# Blender v3.4.1 OBJ File: 'decoratives_and_entities.blend'
# www.blender.org
o Gate_Lock_Cube.004
v -0.043912 -0.094098 0.186721
v -0.014707 0.000000 -0.049857
v -0.043912 0.186721 0.186721
v -0.043912 -0.094098 -0.186721
v -0.014707 -0.019079 -0.046061
v -0.043912 0.186721 -0.186721
v -0.014707 -0.035254 -0.035254
v 0.043912 -0.094098 0.186721
v 0.043912 0.186721 0.186721
v 0.043912 -0.094098 -0.186721
v -0.014707 -0.046061 -0.019079
v 0.043912 0.186721 -0.186721
v -0.043912 -0.133989 -0.176318
v -0.014707 -0.049857 0.000000
v -0.043912 -0.133989 0.176318
v 0.043912 -0.133989 -0.176318
v -0.014707 -0.046061 0.019079
v 0.043912 -0.133989 0.176318
v -0.014707 -0.035254 0.035254
v -0.043912 -0.176589 -0.137507
v -0.043912 -0.176589 0.137507
v -0.014707 -0.019079 0.046061
v 0.043912 -0.176589 -0.137507
v 0.043912 -0.176589 0.137507
v -0.043912 -0.196755 -0.071385
v -0.014707 0.000000 0.049857
v -0.043912 -0.196755 0.071385
v -0.014707 0.019079 0.046061
v 0.043912 -0.196755 -0.071385
v 0.043912 -0.196755 0.071385
v -0.036184 0.233056 0.153860
v -0.014707 0.035254 0.035254
v -0.036184 0.233056 -0.153860
v -0.014707 0.046061 0.019079
v 0.036184 0.233056 -0.153860
v 0.036184 0.233056 0.153860
v -0.014707 0.049857 0.000000
v -0.014707 0.046061 -0.019079
v -0.014707 0.035254 -0.035254
v -0.014707 0.019079 -0.046061
v -0.011085 -0.123495 0.017165
v -0.011085 -0.123495 -0.017165
v 0.043912 0.000000 -0.049857
v 0.043912 -0.019079 -0.046061
v 0.043912 -0.035254 -0.035254
v 0.043912 -0.046061 -0.019079
v -0.011085 -0.046442 -0.017165
v 0.043912 -0.046442 -0.017165
v -0.011085 -0.049857 0.000000
v -0.011085 -0.046442 0.017165
v 0.043912 -0.046061 0.019079
v 0.043912 -0.046442 0.017165
v 0.043912 -0.035254 0.035254
v 0.043912 -0.019079 0.046061
v 0.043912 0.000000 0.049857
v 0.043912 0.019079 0.046061
v 0.043912 0.035254 0.035254
v 0.043912 0.046061 0.019079
v 0.043912 0.049857 0.000000
v 0.043912 0.046061 -0.019079
v 0.043912 0.035254 -0.035254
v 0.043912 0.019079 -0.046061
v 0.043912 -0.123495 -0.017165
v 0.043912 -0.094098 -0.017165
v 0.043912 -0.094098 0.017165
v 0.043912 -0.123495 0.017165
vt 0.625000 0.000000
vt 0.375000 0.250000
vt 0.375000 0.000000
vt 0.625000 0.250000
vt 0.375000 0.500000
vt 0.625000 0.750000
vt 0.499778 0.637773
vt 0.503156 0.625000
vt 0.375000 1.000000
vt 0.375000 0.750000
vt 0.375000 0.750000
vt 0.625000 0.250000
vt 0.375000 0.500000
vt 0.375000 0.500000
vt 0.375000 0.250000
vt 0.375000 0.000000
vt 0.375000 0.636992
vt 0.375000 1.000000
vt 0.375000 0.750000
vt 0.375000 0.750000
vt 0.375000 0.000000
vt 0.375000 1.000000
vt 0.375000 0.250000
vt 0.375000 0.500000
vt 0.125000 0.750000
vt 0.125000 0.500000
vt 0.375000 0.250000
vt 0.375000 0.000000
vt 0.875000 0.500000
vt 0.625000 0.750000
vt 0.625000 0.500000
vt 0.625000 1.000000
vt 0.625000 1.000000
vt 0.625000 0.500000
vt 0.937500 0.500000
vt 1.000000 0.793938
vt 1.000000 0.500000
vt 0.875000 0.500000
vt 0.937500 0.793938
vt 0.812500 0.500000
vt 0.875000 0.793938
vt 0.806229 0.662423
vt 0.812500 0.793938
vt 0.693771 0.662423
vt 0.750000 0.500000
vt 0.687500 0.500000
vt 0.625000 0.500000
vt 0.687500 0.793938
vt 0.562500 0.500000
vt 0.625000 0.793938
vt 0.500000 0.500000
vt 0.562500 0.793938
vt 0.437500 0.500000
vt 0.500000 0.793938
vt 0.375000 0.500000
vt 0.437500 0.793938
vt 0.312500 0.500000
vt 0.375000 0.793938
vt 0.250000 0.500000
vt 0.312500 0.793938
vt 0.187500 0.500000
vt 0.250000 0.793938
vt 0.125000 0.500000
vt 0.187500 0.793938
vt 0.062500 0.500000
vt 0.125000 0.793938
vt 0.000000 0.500000
vt 0.062500 0.793938
vt 0.658156 0.471731
vt 0.658156 0.471731
vt 0.841844 0.028269
vt 0.375000 0.250000
vt 0.375000 0.250000
vt 0.375000 0.125000
vt 0.375000 0.347049
vt 0.444133 0.347049
vt 0.556206 1.000000
vt 0.556206 0.902951
vt 0.444133 0.902951
vt 0.125000 0.750000
vt 0.125000 0.500000
vt 0.125000 0.500000
vt 0.417765 0.612227
vt 0.417426 0.613509
vt 0.375000 0.613509
vt 0.427386 0.601399
vt 0.475757 0.594164
vt 0.441786 0.594164
vt 0.458771 0.591624
vt 0.475757 0.655836
vt 0.375000 0.636491
vt 0.427386 0.648601
vt 0.417426 0.636491
vt 0.417765 0.637773
vt 0.441786 0.655836
vt 0.458771 0.658376
vt 0.490156 0.601399
vt 0.490156 0.648601
vt 0.499777 0.612227
vt 0.625000 0.000000
vt 0.375000 0.613008
vt 0.375000 1.000000
vt 0.875000 0.750000
vt 0.806229 0.793938
vt 0.750000 0.662423
vt 0.693771 0.793938
vt 0.000000 0.793938
vt 0.919706 0.419706
vt 0.971731 0.341844
vt 0.990000 0.250000
vt 0.971731 0.158156
vt 0.919706 0.080294
vt 0.841844 0.028269
vt 0.750000 0.010000
vt 0.919706 0.080294
vt 0.971731 0.158156
vt 0.990000 0.250000
vt 0.971731 0.341844
vt 0.919706 0.419706
vt 0.750000 0.490000
vt 0.375000 0.000000
vt 0.375000 0.000000
vt 0.556206 0.347049
vt 0.556206 0.250000
vt 0.375000 0.902951
vt 0.375000 1.000000
vt 0.125000 0.750000
vn -0.9980 0.0626 0.0000
vn -1.0000 0.0000 0.0000
vn 0.0000 0.0000 -1.0000
vn 0.0000 -0.1272 -0.9919
vn 0.9980 0.0626 0.0000
vn 1.0000 0.0000 0.0000
vn 0.0000 0.0000 1.0000
vn 0.0000 -0.1272 0.9919
vn 0.0000 -0.4768 0.8790
vn -0.9864 0.1645 0.0000
vn 0.0000 -0.4768 -0.8790
vn 0.0000 -0.9565 0.2917
vn 0.0000 -0.9891 0.1475
vn 0.0000 -0.6735 0.7392
vn 0.0000 -0.6735 -0.7392
vn 0.0000 -0.9891 -0.1475
vn 0.0000 -0.9565 -0.2917
vn 0.0000 1.0000 0.0000
vn 0.0000 0.5785 0.8157
vn 0.0000 0.5785 -0.8157
vn 0.9864 0.1645 0.0000
vn 0.0000 0.3827 0.9239
vn 0.0000 0.7071 0.7071
vn -0.0000 0.9239 0.3827
vn -0.0000 0.9808 0.1951
vn -0.0000 0.9808 -0.1951
vn -0.0000 0.9239 -0.3827
vn 0.0000 0.7071 -0.7071
vn 0.0000 0.3827 -0.9239
vn 0.0000 -0.3827 -0.9239
vn 0.0000 -0.7071 -0.7071
vn 0.0000 -0.9239 -0.3827
vn 0.0000 -1.0000 -0.0000
vn 0.0000 -0.9239 0.3827
vn 0.0000 -0.7071 0.7071
vn 0.0000 -0.3827 0.9239
s 1
f 3/1/1 4/2/2 1/3/2
f 6/4/3 10/5/4 4/2/4
f 9/6/5 58/7/6 59/8/6
f 9/6/7 1/9/8 8/10/8
f 1/9/8 18/11/9 8/10/8
f 3/1/1 33/12/10 6/4/1
f 18/11/6 23/13/6 16/14/6
f 10/5/4 13/15/11 4/2/4
f 4/2/2 15/16/2 1/3/2
f 18/11/6 16/14/6 66/17/6
f 21/18/12 30/19/13 24/20/12
f 13/15/2 21/21/2 15/16/2
f 15/22/9 24/20/14 18/11/9
f 16/14/11 20/23/15 13/15/11
f 29/24/16 27/25/13 25/26/16
f 23/13/17 25/27/16 20/23/17
f 24/20/6 29/24/6 23/13/6
f 20/23/2 27/28/2 21/21/2
f 33/29/18 36/30/18 35/31/18
f 9/6/19 31/32/19 3/33/19
f 6/4/20 35/31/20 12/34/20
f 12/34/5 36/30/21 9/6/5
f 5/35/22 43/36/7 2/37/7
f 7/38/23 44/39/22 5/35/22
f 11/40/24 45/41/23 7/38/23
f 47/42/25 46/43/24 11/40/24
f 50/44/26 14/45/18 17/46/27
f 19/47/28 51/48/27 17/46/27
f 22/49/29 53/50/28 19/47/28
f 26/51/3 54/52/29 22/49/29
f 28/53/30 55/54/3 26/51/3
f 32/55/31 56/56/30 28/53/30
f 34/57/32 57/58/31 32/55/31
f 37/59/33 58/60/32 34/57/32
f 38/61/34 59/62/33 37/59/33
f 39/63/35 60/64/34 38/61/34
f 40/65/36 61/66/35 39/63/35
f 2/67/7 62/68/36 40/65/36
f 5/69/6 40/70/6 22/71/6
f 42/72/6 47/73/6 49/74/6
f 42/72/7 63/75/7 64/76/7
f 50/77/3 52/78/3 65/79/3
f 41/80/18 63/81/18 42/82/18
f 3/1/1 6/4/1 4/2/2
f 6/4/3 12/34/3 10/5/4
f 46/83/6 48/84/6 64/85/6
f 64/85/6 10/5/6 45/86/6
f 10/5/6 12/34/5 62/87/6
f 44/88/6 10/5/6 43/89/6
f 9/6/5 8/10/6 56/90/6
f 8/10/6 65/91/6 53/92/6
f 65/91/6 52/93/6 51/94/6
f 65/91/6 51/94/6 53/92/6
f 45/86/6 46/83/6 64/85/6
f 44/88/6 45/86/6 10/5/6
f 8/10/6 53/92/6 54/95/6
f 8/10/6 54/95/6 55/96/6
f 43/89/6 10/5/6 62/87/6
f 8/10/6 55/96/6 56/90/6
f 61/97/6 62/87/6 12/34/5
f 9/6/5 56/90/6 57/98/6
f 9/6/5 57/98/6 58/7/6
f 61/97/6 12/34/5 60/99/6
f 12/34/5 9/6/5 59/8/6
f 60/99/6 12/34/5 59/8/6
f 9/6/7 3/33/7 1/9/8
f 1/9/8 15/22/9 18/11/9
f 3/1/1 31/100/10 33/12/10
f 18/11/6 24/20/6 23/13/6
f 10/5/4 16/14/11 13/15/11
f 4/2/2 13/15/2 15/16/2
f 65/91/6 8/10/6 18/11/6
f 16/14/6 10/5/6 64/85/6
f 16/14/6 64/85/6 63/101/6
f 66/17/6 65/91/6 18/11/6
f 16/14/6 63/101/6 66/17/6
f 21/18/12 27/102/13 30/19/13
f 13/15/2 20/23/2 21/21/2
f 15/22/9 21/18/14 24/20/14
f 16/14/11 23/13/15 20/23/15
f 29/24/16 30/19/13 27/25/13
f 23/13/17 29/24/16 25/27/16
f 24/20/6 30/19/6 29/24/6
f 20/23/2 25/27/2 27/28/2
f 33/29/18 31/103/18 36/30/18
f 9/6/19 36/30/19 31/32/19
f 6/4/20 33/12/20 35/31/20
f 12/34/5 35/31/21 36/30/21
f 5/35/22 44/39/22 43/36/7
f 7/38/23 45/41/23 44/39/22
f 11/40/24 46/43/24 45/41/23
f 47/42/25 48/104/25 46/43/24
f 11/40/24 14/45/18 47/42/25
f 14/45/18 49/105/18 47/42/25
f 17/46/27 51/48/27 50/44/26
f 51/48/27 52/106/26 50/44/26
f 50/44/26 49/105/18 14/45/18
f 19/47/28 53/50/28 51/48/27
f 22/49/29 54/52/29 53/50/28
f 26/51/3 55/54/3 54/52/29
f 28/53/30 56/56/30 55/54/3
f 32/55/31 57/58/31 56/56/30
f 34/57/32 58/60/32 57/58/31
f 37/59/33 59/62/33 58/60/32
f 38/61/34 60/64/34 59/62/33
f 39/63/35 61/66/35 60/64/34
f 40/65/36 62/68/36 61/66/35
f 2/67/7 43/107/7 62/68/36
f 40/70/6 39/108/6 38/109/6
f 38/109/6 37/110/6 34/111/6
f 34/111/6 32/112/6 28/113/6
f 28/113/6 26/114/6 22/71/6
f 22/71/6 19/115/6 17/116/6
f 17/116/6 14/117/6 11/118/6
f 11/118/6 7/119/6 5/69/6
f 5/69/6 2/120/6 40/70/6
f 40/70/6 38/109/6 34/111/6
f 34/111/6 28/113/6 40/70/6
f 28/113/6 22/71/6 40/70/6
f 22/71/6 17/116/6 11/118/6
f 11/118/6 5/69/6 22/71/6
f 49/74/6 50/121/6 41/122/6
f 41/122/6 42/72/6 49/74/6
f 48/123/7 47/124/7 64/76/7
f 47/124/7 42/72/7 64/76/7
f 65/79/3 66/125/3 41/126/3
f 41/126/3 50/77/3 65/79/3
f 41/80/18 66/127/18 63/81/18
