# Blender v3.4.1 OBJ File: 'station.blend'
# www.blender.org
o Beacon_Cube.035
v -0.669530 -0.177301 0.985379
v -0.985379 -0.177301 0.669530
v -0.751278 -0.177301 0.974617
v -0.827455 -0.177301 0.943064
v -0.892869 -0.177301 0.892869
v -0.943064 -0.177301 0.827455
v -0.974617 -0.177301 0.751278
v -0.985379 0.177301 0.669530
v -0.669530 0.177301 0.985379
v -0.974617 0.177301 0.751278
v -0.943064 0.177301 0.827455
v -0.892869 0.177301 0.892869
v -0.827455 0.177301 0.943064
v -0.751278 0.177301 0.974617
v -0.985379 -0.177301 -0.669530
v -0.669530 -0.177301 -0.985379
v -0.974617 -0.177301 -0.751278
v -0.943064 -0.177301 -0.827455
v -0.892869 -0.177301 -0.892869
v -0.827455 -0.177301 -0.943064
v -0.751278 -0.177301 -0.974617
v -0.669530 0.177301 -0.985379
v -0.985379 0.177301 -0.669530
v -0.751278 0.177301 -0.974617
v -0.827455 0.177301 -0.943064
v -0.892869 0.177301 -0.892869
v -0.943064 0.177301 -0.827455
v -0.974617 0.177301 -0.751278
v 0.985379 -0.177301 0.669530
v 0.669530 -0.177301 0.985379
v 0.974617 -0.177301 0.751278
v 0.943064 -0.177301 0.827455
v 0.892869 -0.177301 0.892869
v 0.827455 -0.177301 0.943064
v 0.751278 -0.177301 0.974617
v 0.669530 0.177301 0.985379
v 0.985379 0.177301 0.669530
v 0.751278 0.177301 0.974617
v 0.827455 0.177301 0.943064
v 0.892869 0.177301 0.892869
v 0.943064 0.177301 0.827455
v 0.974617 0.177301 0.751278
v 0.669530 -0.177301 -0.985379
v 0.985379 -0.177301 -0.669530
v 0.751278 -0.177301 -0.974617
v 0.827455 -0.177301 -0.943064
v 0.892869 -0.177301 -0.892869
v 0.943064 -0.177301 -0.827455
v 0.974617 -0.177301 -0.751278
v 0.985379 0.177301 -0.669530
v 0.669530 0.177301 -0.985379
v 0.974617 0.177301 -0.751278
v 0.943064 0.177301 -0.827455
v 0.892869 0.177301 -0.892869
v 0.827455 0.177301 -0.943064
v 0.751278 0.177301 -0.974617
v -0.669530 -0.177301 0.985379
v -0.985379 -0.177301 0.669530
v -0.751278 -0.177301 0.974617
v -0.827455 -0.177301 0.943064
v -0.892869 -0.177301 0.892869
v -0.943064 -0.177301 0.827455
v -0.974617 -0.177301 0.751278
v -0.985379 0.177301 0.669530
v -0.669530 0.177301 0.985379
v -0.974617 0.177301 0.751278
v -0.943064 0.177301 0.827455
v -0.892869 0.177301 0.892869
v -0.827455 0.177301 0.943064
v -0.751278 0.177301 0.974617
v -0.985379 -0.177301 -0.669530
v -0.669530 -0.177301 -0.985379
v -0.974617 -0.177301 -0.751278
v -0.943064 -0.177301 -0.827455
v -0.892869 -0.177301 -0.892869
v -0.827455 -0.177301 -0.943064
v -0.751278 -0.177301 -0.974617
v -0.669530 0.177301 -0.985379
v -0.985379 0.177301 -0.669530
v -0.751278 0.177301 -0.974617
v -0.827455 0.177301 -0.943064
v -0.892869 0.177301 -0.892869
v -0.943064 0.177301 -0.827455
v -0.974617 0.177301 -0.751278
v 0.985379 -0.177301 0.669530
v 0.669530 -0.177301 0.985379
v 0.974617 -0.177301 0.751278
v 0.943064 -0.177301 0.827455
v 0.892869 -0.177301 0.892869
v 0.827455 -0.177301 0.943064
v 0.751278 -0.177301 0.974617
v 0.669530 0.177301 0.985379
v 0.985379 0.177301 0.669530
v 0.751278 0.177301 0.974617
v 0.827455 0.177301 0.943064
v 0.892869 0.177301 0.892869
v 0.943064 0.177301 0.827455
v 0.974617 0.177301 0.751278
v 0.669530 -0.177301 -0.985379
v 0.985379 -0.177301 -0.669530
v 0.751278 -0.177301 -0.974617
v 0.827455 -0.177301 -0.943064
v 0.892869 -0.177301 -0.892869
v 0.943064 -0.177301 -0.827455
v 0.974617 -0.177301 -0.751278
v 0.985379 0.177301 -0.669530
v 0.669530 0.177301 -0.985379
v 0.974617 0.177301 -0.751278
v 0.943064 0.177301 -0.827455
v 0.892869 0.177301 -0.892869
v 0.827455 0.177301 -0.943064
v 0.751278 0.177301 -0.974617
vt 0.625000 0.790067
vt 0.375000 0.959933
vt 0.375000 0.790067
vt 0.625000 0.540067
vt 0.375000 0.709933
vt 0.375000 0.540067
vt 0.625000 0.290067
vt 0.375000 0.459933
vt 0.375000 0.290067
vt 0.625000 0.959933
vt 0.375000 0.970303
vt 0.625000 0.970303
vt 0.375000 0.979967
vt 0.625000 0.979966
vt 0.375000 1.000000
vt 0.625000 0.000000
vt 0.375000 0.020034
vt 0.375000 0.000000
vt 0.625000 0.020034
vt 0.375000 0.029697
vt 0.625000 0.029697
vt 0.375000 0.040067
vt 0.625000 0.279697
vt 0.375000 0.279697
vt 0.625000 0.270034
vt 0.375000 0.270034
vt 0.625000 0.250000
vt 0.375000 0.250000
vt 0.625000 0.229966
vt 0.375000 0.229966
vt 0.625000 0.220303
vt 0.375000 0.220303
vt 0.625000 0.209933
vt 0.625000 0.529697
vt 0.375000 0.529697
vt 0.625000 0.520034
vt 0.375000 0.520034
vt 0.625000 0.500000
vt 0.375000 0.500000
vt 0.625000 0.479966
vt 0.375000 0.479966
vt 0.625000 0.470303
vt 0.375000 0.470303
vt 0.625000 0.459933
vt 0.625000 0.779697
vt 0.375000 0.779697
vt 0.625000 0.770033
vt 0.375000 0.770034
vt 0.625000 0.750000
vt 0.375000 0.750000
vt 0.625000 0.729967
vt 0.375000 0.729966
vt 0.625000 0.720303
vt 0.375000 0.720303
vt 0.625000 0.709933
vt 0.625000 0.040067
vt 0.375000 0.209933
vt 0.375000 0.959933
vt 0.625000 0.790067
vt 0.375000 0.790067
vt 0.375000 0.709933
vt 0.625000 0.540067
vt 0.375000 0.540067
vt 0.375000 0.459933
vt 0.625000 0.290067
vt 0.375000 0.290067
vt 0.375000 0.970303
vt 0.625000 0.959933
vt 0.375000 0.979967
vt 0.625000 0.970303
vt 0.375000 1.000000
vt 0.625000 0.979966
vt 0.375000 0.020034
vt 0.625000 0.000000
vt 0.375000 0.000000
vt 0.375000 0.029697
vt 0.625000 0.020034
vt 0.375000 0.040067
vt 0.625000 0.029697
vt 0.625000 0.279697
vt 0.625000 0.270034
vt 0.375000 0.279697
vt 0.625000 0.250000
vt 0.375000 0.270034
vt 0.625000 0.229966
vt 0.375000 0.250000
vt 0.625000 0.220303
vt 0.375000 0.229966
vt 0.625000 0.209933
vt 0.375000 0.220303
vt 0.625000 0.529697
vt 0.625000 0.520034
vt 0.375000 0.529697
vt 0.625000 0.500000
vt 0.375000 0.520034
vt 0.625000 0.479966
vt 0.375000 0.500000
vt 0.625000 0.470303
vt 0.375000 0.479966
vt 0.625000 0.459933
vt 0.375000 0.470303
vt 0.625000 0.779697
vt 0.625000 0.770033
vt 0.375000 0.779697
vt 0.625000 0.750000
vt 0.375000 0.770034
vt 0.625000 0.729967
vt 0.375000 0.750000
vt 0.625000 0.720303
vt 0.375000 0.729966
vt 0.625000 0.709933
vt 0.375000 0.720303
vt 0.375000 0.209933
vt 0.625000 0.040067
vt 0.625000 1.000000
vt 0.625000 1.000000
vn 0.0654 0.0000 0.9979
vn -0.0654 0.0000 0.9979
vn 0.9979 0.0000 -0.0654
vn 0.9979 0.0000 0.0654
vn -0.0654 0.0000 -0.9979
vn 0.0654 0.0000 -0.9979
vn -0.2588 0.0000 0.9659
vn -0.5000 0.0000 0.8660
vn -0.7071 0.0000 0.7071
vn -0.8660 0.0000 0.5000
vn -0.9659 0.0000 0.2588
vn -0.9979 0.0000 0.0654
vn -0.2588 0.0000 -0.9659
vn -0.5000 0.0000 -0.8660
vn -0.7071 0.0000 -0.7071
vn -0.8660 0.0000 -0.5000
vn -0.9659 0.0000 -0.2588
vn -0.9979 0.0000 -0.0654
vn 0.9659 0.0000 -0.2588
vn 0.8660 0.0000 -0.5000
vn 0.7071 0.0000 -0.7071
vn 0.5000 0.0000 -0.8660
vn 0.2588 0.0000 -0.9659
vn 0.2588 0.0000 0.9659
vn 0.5000 0.0000 0.8660
vn 0.7071 0.0000 0.7071
vn 0.8660 0.0000 0.5000
vn 0.9659 0.0000 0.2588
s 1
f 36/1/1 1/2/2 30/3/1
f 50/4/3 29/5/4 44/6/3
f 22/7/5 43/8/6 16/9/5
f 9/10/2 3/11/7 1/2/2
f 14/12/7 4/13/8 3/11/7
f 13/14/8 5/15/9 4/13/8
f 12/16/9 6/17/10 5/18/9
f 11/19/10 7/20/11 6/17/10
f 10/21/11 2/22/12 7/20/11
f 16/9/5 24/23/13 22/7/5
f 21/24/13 25/25/14 24/23/13
f 20/26/14 26/27/15 25/25/14
f 19/28/15 27/29/16 26/27/15
f 18/30/16 28/31/17 27/29/16
f 17/32/17 23/33/18 28/31/17
f 44/6/3 52/34/19 50/4/3
f 49/35/19 53/36/20 52/34/19
f 48/37/20 54/38/21 53/36/20
f 47/39/21 55/40/22 54/38/21
f 46/41/22 56/42/23 55/40/22
f 45/43/23 51/44/6 56/42/23
f 30/3/1 38/45/24 36/1/1
f 35/46/24 39/47/25 38/45/24
f 34/48/25 40/49/26 39/47/25
f 33/50/26 41/51/27 40/49/26
f 32/52/27 42/53/28 41/51/27
f 31/54/28 37/55/4 42/53/28
f 8/56/12 15/57/18 2/22/12
f 57/58/6 92/59/5 86/60/5
f 85/61/18 106/62/12 100/63/12
f 99/64/2 78/65/1 72/66/1
f 59/67/23 65/68/6 57/58/6
f 60/69/22 70/70/23 59/67/23
f 61/71/21 69/72/22 60/69/22
f 62/73/20 68/74/21 61/75/21
f 63/76/19 67/77/20 62/73/20
f 58/78/3 66/79/19 63/76/19
f 80/80/24 72/66/1 78/65/1
f 81/81/25 77/82/24 80/80/24
f 82/83/26 76/84/25 81/81/25
f 83/85/27 75/86/26 82/83/26
f 84/87/28 74/88/27 83/85/27
f 79/89/4 73/90/28 84/87/28
f 108/91/11 100/63/12 106/62/12
f 109/92/10 105/93/11 108/91/11
f 110/94/9 104/95/10 109/92/10
f 111/96/8 103/97/9 110/94/9
f 112/98/7 102/99/8 111/96/8
f 107/100/2 101/101/7 112/98/7
f 94/102/13 86/60/5 92/59/5
f 95/103/14 91/104/13 94/102/13
f 96/105/15 90/106/14 95/103/14
f 97/107/16 89/108/15 96/105/15
f 98/109/17 88/110/16 97/107/16
f 93/111/18 87/112/17 98/109/17
f 71/113/4 64/114/3 58/78/3
f 36/1/1 9/10/2 1/2/2
f 50/4/3 37/55/4 29/5/4
f 22/7/5 51/44/6 43/8/6
f 9/10/2 14/12/7 3/11/7
f 14/12/7 13/14/8 4/13/8
f 13/14/8 12/115/9 5/15/9
f 12/16/9 11/19/10 6/17/10
f 11/19/10 10/21/11 7/20/11
f 10/21/11 8/56/12 2/22/12
f 16/9/5 21/24/13 24/23/13
f 21/24/13 20/26/14 25/25/14
f 20/26/14 19/28/15 26/27/15
f 19/28/15 18/30/16 27/29/16
f 18/30/16 17/32/17 28/31/17
f 17/32/17 15/57/18 23/33/18
f 44/6/3 49/35/19 52/34/19
f 49/35/19 48/37/20 53/36/20
f 48/37/20 47/39/21 54/38/21
f 47/39/21 46/41/22 55/40/22
f 46/41/22 45/43/23 56/42/23
f 45/43/23 43/8/6 51/44/6
f 30/3/1 35/46/24 38/45/24
f 35/46/24 34/48/25 39/47/25
f 34/48/25 33/50/26 40/49/26
f 33/50/26 32/52/27 41/51/27
f 32/52/27 31/54/28 42/53/28
f 31/54/28 29/5/4 37/55/4
f 8/56/12 23/33/18 15/57/18
f 57/58/6 65/68/6 92/59/5
f 85/61/18 93/111/18 106/62/12
f 99/64/2 107/100/2 78/65/1
f 59/67/23 70/70/23 65/68/6
f 60/69/22 69/72/22 70/70/23
f 61/71/21 68/116/21 69/72/22
f 62/73/20 67/77/20 68/74/21
f 63/76/19 66/79/19 67/77/20
f 58/78/3 64/114/3 66/79/19
f 80/80/24 77/82/24 72/66/1
f 81/81/25 76/84/25 77/82/24
f 82/83/26 75/86/26 76/84/25
f 83/85/27 74/88/27 75/86/26
f 84/87/28 73/90/28 74/88/27
f 79/89/4 71/113/4 73/90/28
f 108/91/11 105/93/11 100/63/12
f 109/92/10 104/95/10 105/93/11
f 110/94/9 103/97/9 104/95/10
f 111/96/8 102/99/8 103/97/9
f 112/98/7 101/101/7 102/99/8
f 107/100/2 99/64/2 101/101/7
f 94/102/13 91/104/13 86/60/5
f 95/103/14 90/106/14 91/104/13
f 96/105/15 89/108/15 90/106/14
f 97/107/16 88/110/16 89/108/15
f 98/109/17 87/112/17 88/110/16
f 93/111/18 85/61/18 87/112/17
f 71/113/4 79/89/4 64/114/3
