# Blender v3.4.1 OBJ File: 'station.blend'
# www.blender.org
o Elevator_Car_Cube.051
v -0.394075 -1.495157 0.652849
v 0.394075 -1.495157 0.652849
v -0.347644 1.495157 0.652849
v -0.394075 1.448726 0.652849
v -0.394075 -1.495157 -0.152559
v -0.347644 -1.495157 -0.198990
v -0.347644 1.495157 -0.152559
v -0.347644 1.448726 -0.198990
v -0.394075 1.448726 -0.152559
v 0.394075 1.448726 0.652849
v 0.347644 1.495157 0.652849
v 0.347644 -1.495157 -0.198990
v 0.394075 -1.495157 -0.152559
v 0.347644 1.495157 -0.152559
v 0.394075 1.448726 -0.152559
v 0.347644 1.448726 -0.198990
v -0.650367 -0.943059 0.665930
v -0.593426 -1.000000 0.665930
v -0.593426 1.000000 0.665930
v -0.650367 0.943059 0.665930
v 0.593426 -1.000000 0.665930
v 0.650367 -0.943059 0.665930
v 0.650367 0.943059 0.665930
v 0.593426 1.000000 0.665930
v -0.593426 -1.000000 -0.415608
v -0.650367 -0.943059 -0.439194
v -0.400045 -1.000000 -0.608989
v -0.423630 -0.943059 -0.665930
v -0.400045 1.000000 -0.608989
v -0.423630 0.943059 -0.665930
v -0.593426 1.000000 -0.415608
v -0.650367 0.943059 -0.439194
v 0.400045 -1.000000 -0.608989
v 0.423630 -0.943059 -0.665930
v 0.593426 -1.000000 -0.415608
v 0.650367 -0.943059 -0.439194
v 0.593426 1.000000 -0.415608
v 0.650367 0.943059 -0.439194
v 0.400045 1.000000 -0.608989
v 0.423630 0.943059 -0.665930
vt 0.860272 0.513627
vt 0.639728 0.750000
vt 0.639728 0.513627
vt 0.621118 0.513627
vt 0.375000 0.750000
vt 0.375000 0.513627
vt 0.621118 0.000000
vt 0.375000 0.236373
vt 0.375000 0.000000
vt 0.621118 0.264728
vt 0.375000 0.485272
vt 0.375000 0.264728
vt 0.125000 0.750000
vt 0.625000 0.236373
vt 0.621118 0.250000
vt 0.621118 0.236373
vt 0.625000 0.485272
vt 0.621118 0.500000
vt 0.621118 0.485272
vt 0.625000 0.000000
vt 0.625000 0.264728
vt 0.621118 1.000000
vt 0.375000 1.000000
vt 0.621118 0.750000
vt 0.382118 0.542560
vt 0.617882 0.456421
vt 0.617882 0.542560
vt 0.382118 0.750000
vt 0.364056 0.546987
vt 0.364056 0.750000
vt 0.135944 0.750000
vt 0.382118 1.000000
vt 0.375000 0.989056
vt 0.382118 0.293579
vt 0.617882 0.207440
vt 0.617882 0.293579
vt 0.382118 0.456421
vt 0.864056 0.546987
vt 0.864056 0.750000
vt 0.635944 0.750000
vt 0.625000 0.287243
vt 0.625000 0.213776
vt 0.135944 0.546987
vt 0.168579 0.500000
vt 0.173112 0.510688
vt 0.625000 0.536224
vt 0.625000 0.462757
vt 0.326888 0.510688
vt 0.375000 0.542560
vt 0.125000 0.750000
vt 0.331421 0.500000
vt 0.625000 0.203013
vt 0.617882 0.000000
vt 0.625000 0.000000
vt 0.625000 0.451888
vt 0.625000 0.298112
vt 0.617882 0.750000
vt 0.635944 0.546987
vt 0.382118 0.207440
vt 0.382118 0.000000
vt 0.860272 0.750000
vt 0.125000 0.513627
vt 0.139728 0.500000
vt 0.360272 0.500000
vt 0.625000 0.764728
vt 0.625000 0.985272
vt 0.375000 0.760944
vt 0.617882 1.000000
vt 0.625000 0.760944
vt 0.625000 0.989056
vt 0.673112 0.510688
vt 0.826888 0.510688
vt 0.125000 0.542560
vn 0.0000 1.0000 0.0000
vn 1.0000 0.0000 0.0000
vn -1.0000 0.0000 0.0000
vn 0.0000 0.0000 -1.0000
vn 0.0000 -1.0000 0.0000
vn -0.5774 0.5774 -0.5773
vn 0.5774 0.5774 -0.5773
vn -0.7071 0.7071 0.0000
vn -0.7071 0.0000 -0.7071
vn 0.0000 0.7071 -0.7071
vn 0.7071 0.0000 -0.7071
vn 0.7071 0.7071 0.0000
vn 0.0000 0.0000 1.0000
vn -0.5000 0.7071 -0.5000
vn -0.5000 -0.7071 -0.5000
vn 0.5000 0.7071 -0.5000
vn 0.5000 -0.7071 -0.5000
vn -0.7071 -0.7071 0.0000
vn 0.0000 -0.7071 -0.7071
vn 0.7071 -0.7071 0.0000
s off
f 7/1/1 11/2/1 14/3/1
f 15/4/2 2/5/2 13/6/2
f 4/7/3 5/8/3 1/9/3
f 8/10/4 12/11/4 6/12/4
f 13/6/5 2/5/5 1/13/5
f 7/14/6 8/15/6 9/16/6
f 14/17/7 15/18/7 16/19/7
f 7/14/8 4/7/8 3/20/8
f 6/12/9 9/16/9 8/10/9
f 14/17/10 8/10/10 7/21/10
f 13/6/11 16/19/11 15/4/11
f 11/2/12 15/4/12 14/3/12
f 4/22/13 1/23/13 10/24/13
f 36/25/11 40/26/11 38/27/11
f 38/27/2 22/28/2 36/25/2
f 35/29/5 21/30/5 18/31/5
f 17/32/13 18/33/13 22/28/13
f 28/34/9 32/35/9 30/36/9
f 30/36/4 34/37/4 28/34/4
f 31/38/1 19/39/1 24/40/1
f 29/41/14 32/35/14 31/42/14
f 25/43/15 28/44/15 27/45/15
f 37/46/16 40/26/16 39/47/16
f 33/48/17 36/49/17 35/29/17
f 17/50/18 25/43/18 18/31/18
f 34/51/19 27/45/19 28/44/19
f 22/28/20 35/29/20 36/25/20
f 31/52/8 20/53/8 19/54/8
f 39/55/10 30/36/10 29/56/10
f 23/57/12 37/58/12 24/40/12
f 20/53/3 26/59/3 17/60/3
f 7/1/1 3/61/1 11/2/1
f 15/4/2 10/24/2 2/5/2
f 4/7/3 9/16/3 5/8/3
f 8/10/4 16/19/4 12/11/4
f 1/13/5 5/62/5 13/6/5
f 5/62/5 6/63/5 13/6/5
f 6/63/5 12/64/5 13/6/5
f 7/14/8 9/16/8 4/7/8
f 6/12/9 5/8/9 9/16/9
f 14/17/10 16/19/10 8/10/10
f 13/6/11 12/11/11 16/19/11
f 11/2/12 10/24/12 15/4/12
f 1/23/13 2/5/13 10/24/13
f 10/24/13 11/65/13 3/66/13
f 3/66/13 4/22/13 10/24/13
f 36/25/11 34/37/11 40/26/11
f 38/27/2 23/57/2 22/28/2
f 18/31/5 25/43/5 35/29/5
f 25/43/5 27/45/5 35/29/5
f 27/45/5 33/48/5 35/29/5
f 18/33/13 21/67/13 22/28/13
f 22/28/13 23/57/13 20/68/13
f 23/57/13 24/69/13 20/68/13
f 24/69/13 19/70/13 20/68/13
f 20/68/13 17/32/13 22/28/13
f 28/34/9 26/59/9 32/35/9
f 30/36/4 40/26/4 34/37/4
f 24/40/1 37/58/1 31/38/1
f 37/58/1 39/71/1 31/38/1
f 39/71/1 29/72/1 31/38/1
f 29/41/14 30/36/14 32/35/14
f 25/43/15 26/73/15 28/44/15
f 37/46/16 38/27/16 40/26/16
f 33/48/17 34/51/17 36/49/17
f 17/50/18 26/73/18 25/43/18
f 34/51/19 33/48/19 27/45/19
f 22/28/20 21/30/20 35/29/20
f 31/52/8 32/35/8 20/53/8
f 39/55/10 40/26/10 30/36/10
f 23/57/12 38/27/12 37/58/12
f 20/53/3 32/35/3 26/59/3
