# Blender v3.4.1 OBJ File: 'station.blend'
# www.blender.org
o Track_Supports_1_Cylinder.013
v 0.000000 -0.779583 -0.854016
v 0.000000 -0.779583 -0.911019
v 0.675139 -0.389792 -0.854016
v 0.675139 -0.389792 -0.911019
v 0.675139 0.389791 -0.854016
v 0.675139 0.389791 -0.911019
v 0.000000 0.779583 -0.854016
v 0.000000 0.779583 -0.911019
v -0.675139 0.389791 -0.854016
v -0.675139 0.389791 -0.911019
v -0.675139 -0.389792 -0.854016
v -0.675139 -0.389792 -0.911019
v 0.614657 -0.354872 -0.911019
v -0.614657 -0.354872 -0.911019
v 0.000000 0.709744 -0.911019
v -0.614657 0.354872 -0.911019
v 0.614657 0.354872 -0.911019
v 0.000000 -0.709744 -0.911019
v 0.000000 -0.709744 -0.854016
v 0.614657 0.354872 -0.854016
v -0.614657 0.354872 -0.854016
v -0.614657 -0.354872 -0.854016
v 0.614657 -0.354872 -0.854016
v 0.000000 0.709744 -0.854016
v 0.000000 -0.779583 0.911019
v 0.000000 -0.779583 0.854016
v 0.675139 -0.389791 0.911019
v 0.675139 -0.389791 0.854016
v 0.675139 0.389792 0.911019
v 0.675139 0.389792 0.854016
v 0.000000 0.779583 0.911019
v 0.000000 0.779583 0.854016
v -0.675139 0.389792 0.911019
v -0.675139 0.389792 0.854016
v -0.675139 -0.389791 0.911019
v -0.675139 -0.389791 0.854016
v 0.614657 -0.354872 0.854016
v -0.614657 -0.354872 0.854016
v 0.000000 0.709744 0.854016
v -0.614657 0.354872 0.854016
v 0.614657 0.354872 0.854016
v 0.000000 -0.709744 0.854016
v 0.000000 -0.709744 0.911019
v 0.614657 0.354872 0.911019
v -0.614657 0.354872 0.911019
v -0.614657 -0.354872 0.911019
v 0.614657 -0.354872 0.911019
v 0.000000 0.709744 0.911019
v -0.030158 0.713437 0.898961
v -0.030158 0.755006 0.898961
v -0.030158 0.713437 -0.898961
v -0.030158 0.755006 -0.898961
v 0.030158 0.713437 0.898961
v 0.030158 0.755006 0.898961
v 0.030158 0.713437 -0.898961
v 0.030158 0.755006 -0.898961
v 0.030157 -0.713437 0.898961
v 0.030157 -0.755006 0.898961
v 0.030157 -0.713437 -0.898961
v 0.030157 -0.755006 -0.898961
v -0.030158 -0.713437 0.898961
v -0.030158 -0.755006 0.898961
v -0.030158 -0.713437 -0.898961
v -0.030158 -0.755006 -0.898961
v -0.624140 -0.030157 0.898961
v -0.665709 -0.030157 0.898961
v -0.624140 -0.030157 -0.898961
v -0.665709 -0.030157 -0.898961
v -0.624140 0.030158 0.898961
v -0.665709 0.030158 0.898961
v -0.624140 0.030158 -0.898961
v -0.665709 0.030158 -0.898961
v 0.624414 0.030157 0.898961
v 0.665984 0.030157 0.898961
v 0.624414 0.030157 -0.898961
v 0.665984 0.030157 -0.898961
v 0.624414 -0.030158 0.898961
v 0.665984 -0.030158 0.898961
v 0.624414 -0.030158 -0.898961
v 0.665984 -0.030158 -0.898961
vt 1.000000 1.000000
vt 0.833333 0.500000
vt 1.000000 0.500000
vt 0.833333 1.000000
vt 0.666667 0.500000
vt 0.666667 1.000000
vt 0.500000 0.500000
vt 0.500000 1.000000
vt 0.333333 0.500000
vt 0.457846 0.130000
vt 0.457846 0.370000
vt 0.439226 0.140750
vt 0.042154 0.370000
vt 0.042154 0.130000
vt 0.060774 0.359250
vt 0.333333 1.000000
vt 0.166667 0.500000
vt 0.166667 1.000000
vt -0.000000 0.500000
vt 0.957846 0.370000
vt 0.957846 0.130000
vt 0.939226 0.359250
vt 0.542154 0.130000
vt 0.542154 0.370000
vt 0.560774 0.140750
vt 0.833333 0.868398
vt 1.000000 0.631602
vt 0.833333 0.631602
vt 0.666667 0.631602
vt 0.666667 0.868398
vt 0.500000 0.631602
vt 0.500000 0.868398
vt 0.333333 0.631602
vt 0.333333 0.868398
vt 0.166667 0.868398
vt 0.166667 0.631602
vt -0.000000 0.868398
vt -0.000000 0.631602
vt 1.000000 1.000000
vt 0.833333 0.500000
vt 1.000000 0.500000
vt 0.833333 1.000000
vt 0.666667 0.500000
vt 0.666667 1.000000
vt 0.500000 0.500000
vt 0.500000 1.000000
vt 0.333333 0.500000
vt 0.457846 0.130000
vt 0.457846 0.370000
vt 0.439226 0.140750
vt 0.042154 0.370000
vt 0.042154 0.130000
vt 0.060774 0.359250
vt 0.333333 1.000000
vt 0.166667 0.500000
vt 0.166667 1.000000
vt -0.000000 0.500000
vt 0.957846 0.370000
vt 0.957846 0.130000
vt 0.939226 0.359250
vt 0.542154 0.130000
vt 0.542154 0.370000
vt 0.560774 0.140750
vt 0.833333 0.868398
vt 1.000000 0.631602
vt 0.833333 0.631602
vt 0.666667 0.631602
vt 0.666667 0.868398
vt 0.500000 0.631602
vt 0.500000 0.868398
vt 0.333333 0.631602
vt 0.333333 0.868398
vt 0.166667 0.868398
vt 0.166667 0.631602
vt -0.000000 0.868398
vt -0.000000 0.631602
vt 0.625000 0.000000
vt 0.375000 0.250000
vt 0.375000 0.000000
vt 0.625000 0.250000
vt 0.375000 0.500000
vt 0.625000 0.500000
vt 0.375000 0.750000
vt 0.625000 0.750000
vt 0.375000 1.000000
vt 0.125000 0.750000
vt 0.125000 0.500000
vt 0.875000 0.500000
vt 0.625000 0.000000
vt 0.375000 0.250000
vt 0.375000 0.000000
vt 0.625000 0.250000
vt 0.375000 0.500000
vt 0.625000 0.500000
vt 0.375000 0.750000
vt 0.625000 1.000000
vt 0.375000 1.000000
vt 0.125000 0.750000
vt 0.125000 0.500000
vt 0.875000 0.500000
vt 0.625000 0.750000
vt 0.625000 0.000000
vt 0.375000 0.250000
vt 0.375000 0.000000
vt 0.625000 0.500000
vt 0.375000 0.750000
vt 0.375000 0.500000
vt 0.125000 0.750000
vt 0.125000 0.500000
vt 0.875000 0.500000
vt 0.625000 0.750000
vt 0.625000 0.000000
vt 0.375000 0.250000
vt 0.375000 0.000000
vt 0.625000 0.500000
vt 0.375000 0.750000
vt 0.375000 0.500000
vt 0.125000 0.750000
vt 0.125000 0.500000
vt 0.875000 0.500000
vt 0.625000 0.750000
vt 0.250000 0.031500
vt 0.250000 0.010000
vt 0.250000 0.490000
vt 0.250000 0.468500
vt 0.439226 0.359250
vt 0.060774 0.140750
vt -0.000000 1.000000
vt 0.750000 0.468500
vt 0.750000 0.490000
vt 0.750000 0.010000
vt 0.750000 0.031500
vt 0.939226 0.140750
vt 0.560774 0.359250
vt 1.000000 0.868398
vt 0.250000 0.031500
vt 0.250000 0.010000
vt 0.250000 0.490000
vt 0.250000 0.468500
vt 0.439226 0.359250
vt 0.060774 0.140750
vt -0.000000 1.000000
vt 0.750000 0.468500
vt 0.750000 0.490000
vt 0.750000 0.010000
vt 0.750000 0.031500
vt 0.939226 0.140750
vt 0.560774 0.359250
vt 1.000000 0.868398
vt 0.625000 1.000000
vt 0.875000 0.750000
vt 0.875000 0.750000
vt 0.625000 0.250000
vt 0.875000 0.750000
vt 0.625000 0.250000
vt 0.875000 0.750000
vn 0.5000 -0.8660 0.0000
vn 1.0000 0.0000 0.0000
vn 0.5000 0.8660 0.0000
vn -0.5000 0.8660 0.0000
vn 0.0000 0.0000 -1.0000
vn -1.0000 0.0000 0.0000
vn -0.5000 -0.8660 0.0000
vn 0.0000 0.0000 1.0000
vn 0.0000 -1.0000 0.0000
vn 0.0000 1.0000 0.0000
s off
f 2/1/1 3/2/1 1/3/1
f 4/4/2 5/5/2 3/2/2
f 6/6/3 7/7/3 5/5/3
f 8/8/4 9/9/4 7/7/4
f 6/10/5 4/11/5 17/12/5
f 12/13/5 10/14/5 14/15/5
f 10/16/6 11/17/6 9/9/6
f 12/18/7 1/19/7 11/17/7
f 3/20/8 5/21/8 23/22/8
f 9/23/8 11/24/8 21/25/8
f 13/26/4 19/27/4 23/28/4
f 13/26/6 20/29/6 17/30/6
f 17/30/7 24/31/7 15/32/7
f 15/32/1 21/33/1 16/34/1
f 14/35/2 21/33/2 22/36/2
f 18/37/3 22/36/3 19/38/3
f 26/39/1 27/40/1 25/41/1
f 28/42/2 29/43/2 27/40/2
f 30/44/3 31/45/3 29/43/3
f 32/46/4 33/47/4 31/45/4
f 30/48/5 28/49/5 41/50/5
f 36/51/5 34/52/5 38/53/5
f 34/54/6 35/55/6 33/47/6
f 36/56/7 25/57/7 35/55/7
f 27/58/8 29/59/8 47/60/8
f 33/61/8 35/62/8 45/63/8
f 37/64/4 43/65/4 47/66/4
f 37/64/6 44/67/6 41/68/6
f 41/68/7 48/69/7 39/70/7
f 39/70/1 45/71/1 40/72/1
f 38/73/2 45/71/2 46/74/2
f 42/75/3 46/74/3 43/76/3
f 50/77/6 51/78/6 49/79/6
f 52/80/5 55/81/5 51/78/5
f 56/82/2 53/83/2 55/81/2
f 54/84/8 49/85/8 53/83/8
f 55/81/9 49/86/9 51/87/9
f 52/88/10 54/84/10 56/82/10
f 58/89/2 59/90/2 57/91/2
f 60/92/5 63/93/5 59/90/5
f 64/94/6 61/95/6 63/93/6
f 61/95/8 58/96/8 57/97/8
f 63/93/10 57/98/10 59/99/10
f 60/100/9 62/101/9 64/94/9
f 66/102/9 67/103/9 65/104/9
f 72/105/10 69/106/10 71/107/10
f 71/107/2 65/108/2 67/109/2
f 68/110/6 70/111/6 72/105/6
f 74/112/10 75/113/10 73/114/10
f 80/115/9 77/116/9 79/117/9
f 79/117/6 73/118/6 75/119/6
f 76/120/2 78/121/2 80/115/2
f 2/1/1 4/4/1 3/2/1
f 4/4/2 6/6/2 5/5/2
f 6/6/3 8/8/3 7/7/3
f 8/8/4 10/16/4 9/9/4
f 17/12/5 15/122/5 8/123/5
f 4/11/5 2/124/5 18/125/5
f 4/11/5 18/125/5 13/126/5
f 17/12/5 8/123/5 6/10/5
f 4/11/5 13/126/5 17/12/5
f 14/15/5 18/125/5 2/124/5
f 10/14/5 8/123/5 15/122/5
f 10/14/5 15/122/5 16/127/5
f 14/15/5 2/124/5 12/13/5
f 10/14/5 16/127/5 14/15/5
f 10/16/6 12/18/6 11/17/6
f 12/18/7 2/128/7 1/19/7
f 23/22/8 19/129/8 1/130/8
f 5/21/8 7/131/8 24/132/8
f 5/21/8 24/132/8 20/133/8
f 23/22/8 1/130/8 3/20/8
f 5/21/8 20/133/8 23/22/8
f 21/25/8 24/132/8 7/131/8
f 11/24/8 1/130/8 19/129/8
f 11/24/8 19/129/8 22/134/8
f 21/25/8 7/131/8 9/23/8
f 11/24/8 22/134/8 21/25/8
f 13/26/4 18/135/4 19/27/4
f 13/26/6 23/28/6 20/29/6
f 17/30/7 20/29/7 24/31/7
f 15/32/1 24/31/1 21/33/1
f 14/35/2 16/34/2 21/33/2
f 18/37/3 14/35/3 22/36/3
f 26/39/1 28/42/1 27/40/1
f 28/42/2 30/44/2 29/43/2
f 30/44/3 32/46/3 31/45/3
f 32/46/4 34/54/4 33/47/4
f 41/50/5 39/136/5 32/137/5
f 28/49/5 26/138/5 42/139/5
f 28/49/5 42/139/5 37/140/5
f 41/50/5 32/137/5 30/48/5
f 28/49/5 37/140/5 41/50/5
f 38/53/5 42/139/5 26/138/5
f 34/52/5 32/137/5 39/136/5
f 34/52/5 39/136/5 40/141/5
f 38/53/5 26/138/5 36/51/5
f 34/52/5 40/141/5 38/53/5
f 34/54/6 36/56/6 35/55/6
f 36/56/7 26/142/7 25/57/7
f 47/60/8 43/143/8 25/144/8
f 29/59/8 31/145/8 48/146/8
f 29/59/8 48/146/8 44/147/8
f 47/60/8 25/144/8 27/58/8
f 29/59/8 44/147/8 47/60/8
f 45/63/8 48/146/8 31/145/8
f 35/62/8 25/144/8 43/143/8
f 35/62/8 43/143/8 46/148/8
f 45/63/8 31/145/8 33/61/8
f 35/62/8 46/148/8 45/63/8
f 37/64/4 42/149/4 43/65/4
f 37/64/6 47/66/6 44/67/6
f 41/68/7 44/67/7 48/69/7
f 39/70/1 48/69/1 45/71/1
f 38/73/2 40/72/2 45/71/2
f 42/75/3 38/73/3 46/74/3
f 50/77/6 52/80/6 51/78/6
f 52/80/5 56/82/5 55/81/5
f 56/82/2 54/84/2 53/83/2
f 54/84/8 50/150/8 49/85/8
f 55/81/9 53/83/9 49/86/9
f 52/88/10 50/151/10 54/84/10
f 58/89/2 60/92/2 59/90/2
f 60/92/5 64/94/5 63/93/5
f 64/94/6 62/101/6 61/95/6
f 61/95/8 62/101/8 58/96/8
f 63/93/10 61/95/10 57/98/10
f 60/100/9 58/152/9 62/101/9
f 66/102/9 68/153/9 67/103/9
f 72/105/10 70/111/10 69/106/10
f 71/107/2 69/106/2 65/108/2
f 68/110/6 66/154/6 70/111/6
f 74/112/10 76/155/10 75/113/10
f 80/115/9 78/121/9 77/116/9
f 79/117/6 77/116/6 73/118/6
f 76/120/2 74/156/2 78/121/2
