# Blender v3.4.1 OBJ File: 'bike.blend'
# www.blender.org
o Common_Grips_Cylinder.024
v 0.498953 0.331089 -0.099616
v 0.340338 0.328085 -0.054696
v 0.503297 0.328686 -0.088340
v 0.336655 0.321240 -0.064255
v 0.506980 0.321841 -0.078781
v 0.334194 0.310996 -0.070642
v 0.509441 0.311597 -0.072394
v 0.333330 0.298912 -0.072885
v 0.510304 0.299513 -0.070151
v 0.334194 0.286829 -0.070642
v 0.509441 0.287430 -0.072394
v 0.336655 0.276585 -0.064255
v 0.506980 0.277186 -0.078781
v 0.340338 0.269740 -0.054696
v 0.503297 0.270341 -0.088340
v 0.344682 0.267336 -0.043420
v 0.498953 0.267937 -0.099616
v 0.349026 0.269740 -0.032144
v 0.494609 0.270341 -0.110892
v 0.352708 0.276585 -0.022585
v 0.490926 0.277186 -0.120451
v 0.355169 0.286829 -0.016198
v 0.488466 0.287430 -0.126838
v 0.356033 0.298912 -0.013955
v 0.487602 0.299513 -0.129081
v 0.355169 0.310996 -0.016198
v 0.488466 0.311597 -0.126838
v 0.352708 0.321240 -0.022585
v 0.490926 0.321841 -0.120451
v 0.349026 0.328085 -0.032144
v 0.494609 0.328686 -0.110892
v 0.344682 0.330488 -0.043420
v 0.508503 0.335129 -0.103295
v 0.513403 0.332418 -0.090577
v 0.517557 0.324698 -0.079795
v 0.520332 0.313143 -0.072590
v 0.521307 0.299513 -0.070060
v 0.520332 0.285883 -0.072590
v 0.517557 0.274329 -0.079795
v 0.513403 0.266608 -0.090577
v 0.508503 0.263897 -0.103295
v 0.503603 0.266608 -0.116014
v 0.499449 0.274329 -0.126796
v 0.496674 0.285884 -0.134001
v 0.495699 0.299513 -0.136530
v 0.496674 0.313143 -0.134001
v 0.499449 0.324698 -0.126796
v 0.503603 0.332418 -0.116014
v 0.336979 0.330838 -0.054624
v 0.341733 0.333469 -0.042284
v 0.332948 0.323347 -0.065085
v 0.330255 0.312137 -0.072075
v 0.329310 0.298912 -0.074530
v 0.330255 0.285688 -0.072075
v 0.332948 0.274477 -0.065085
v 0.336979 0.266987 -0.054624
v 0.341733 0.264356 -0.042284
v 0.346487 0.266987 -0.029944
v 0.350517 0.274477 -0.019482
v 0.353210 0.285688 -0.012492
v 0.354155 0.298912 -0.010038
v 0.353210 0.312137 -0.012492
v 0.350517 0.323347 -0.019482
v 0.346487 0.330838 -0.029944
v 0.332396 0.338941 -0.056455
v 0.338356 0.342239 -0.040983
v 0.327342 0.329549 -0.069571
v 0.323966 0.315493 -0.078335
v 0.322780 0.298912 -0.081413
v 0.323966 0.282332 -0.078335
v 0.327342 0.268276 -0.069571
v 0.332396 0.258884 -0.056455
v 0.338356 0.255586 -0.040983
v 0.344317 0.258884 -0.025511
v 0.349370 0.268276 -0.012395
v 0.352746 0.282332 -0.003631
v 0.353932 0.298912 -0.000553
v 0.352746 0.315493 -0.003631
v 0.349370 0.329549 -0.012395
v 0.344317 0.338941 -0.025511
v 0.329667 0.340320 -0.056016
v 0.335833 0.343731 -0.040011
v 0.324440 0.330604 -0.069584
v 0.320948 0.316064 -0.078650
v 0.319721 0.298912 -0.081834
v 0.320948 0.281761 -0.078650
v 0.324440 0.267221 -0.069584
v 0.329667 0.257505 -0.056016
v 0.335833 0.254094 -0.040011
v 0.341999 0.257505 -0.024006
v 0.347226 0.267221 -0.010438
v 0.350719 0.281761 -0.001372
v 0.351945 0.298912 0.001811
v 0.350719 0.316064 -0.001372
v 0.347226 0.330604 -0.010438
v 0.341999 0.340320 -0.024006
v 0.327756 0.338267 -0.054368
v 0.333616 0.341510 -0.039157
v 0.322788 0.329033 -0.067264
v 0.319468 0.315214 -0.075881
v 0.318303 0.298912 -0.078906
v 0.319468 0.282611 -0.075881
v 0.322788 0.268792 -0.067264
v 0.327756 0.259558 -0.054368
v 0.333616 0.256315 -0.039157
v 0.339476 0.259558 -0.023946
v 0.344444 0.268792 -0.011050
v 0.347764 0.282611 -0.002433
v 0.348930 0.298912 0.000592
v 0.347764 0.315214 -0.002433
v 0.344444 0.329033 -0.011050
v 0.339476 0.338267 -0.023945
v 0.328326 0.320385 -0.046650
v 0.331524 0.322154 -0.038351
v 0.325615 0.315347 -0.053687
v 0.323804 0.307807 -0.058388
v 0.323168 0.298912 -0.060039
v 0.323804 0.290018 -0.058388
v 0.325615 0.282478 -0.053687
v 0.328326 0.277440 -0.046651
v 0.331524 0.275670 -0.038351
v 0.334721 0.277440 -0.030051
v 0.337432 0.282478 -0.023015
v 0.339243 0.290018 -0.018313
v 0.339879 0.298912 -0.016663
v 0.339243 0.307807 -0.018313
v 0.337432 0.315347 -0.023015
v 0.334721 0.320385 -0.030051
v 0.501180 0.299513 -0.100474
v -0.498953 0.331089 -0.099616
v -0.340338 0.328085 -0.054696
v -0.503297 0.328686 -0.088340
v -0.336655 0.321240 -0.064255
v -0.506980 0.321841 -0.078781
v -0.334194 0.310996 -0.070642
v -0.509441 0.311597 -0.072394
v -0.333330 0.298912 -0.072885
v -0.510304 0.299513 -0.070151
v -0.334194 0.286829 -0.070642
v -0.509441 0.287430 -0.072394
v -0.336655 0.276585 -0.064255
v -0.506980 0.277186 -0.078781
v -0.340338 0.269740 -0.054696
v -0.503297 0.270341 -0.088340
v -0.344682 0.267336 -0.043420
v -0.498953 0.267937 -0.099616
v -0.349026 0.269740 -0.032144
v -0.494609 0.270341 -0.110892
v -0.352708 0.276585 -0.022585
v -0.490926 0.277186 -0.120451
v -0.355169 0.286829 -0.016198
v -0.488466 0.287430 -0.126838
v -0.356033 0.298912 -0.013955
v -0.487602 0.299513 -0.129081
v -0.355169 0.310996 -0.016198
v -0.488466 0.311597 -0.126838
v -0.352708 0.321240 -0.022585
v -0.490926 0.321841 -0.120451
v -0.349026 0.328085 -0.032144
v -0.494609 0.328686 -0.110892
v -0.344682 0.330488 -0.043420
v -0.508503 0.335129 -0.103295
v -0.513403 0.332418 -0.090577
v -0.517557 0.324698 -0.079795
v -0.520332 0.313143 -0.072590
v -0.521307 0.299513 -0.070060
v -0.520332 0.285883 -0.072590
v -0.517557 0.274329 -0.079795
v -0.513403 0.266608 -0.090577
v -0.508503 0.263897 -0.103295
v -0.503603 0.266608 -0.116014
v -0.499449 0.274329 -0.126796
v -0.496674 0.285884 -0.134001
v -0.495699 0.299513 -0.136530
v -0.496674 0.313143 -0.134001
v -0.499449 0.324698 -0.126796
v -0.503603 0.332418 -0.116014
v -0.336979 0.330838 -0.054624
v -0.341733 0.333469 -0.042284
v -0.332948 0.323347 -0.065085
v -0.330255 0.312137 -0.072075
v -0.329310 0.298912 -0.074530
v -0.330255 0.285688 -0.072075
v -0.332948 0.274477 -0.065085
v -0.336979 0.266987 -0.054624
v -0.341733 0.264356 -0.042284
v -0.346487 0.266987 -0.029944
v -0.350517 0.274477 -0.019482
v -0.353210 0.285688 -0.012492
v -0.354155 0.298912 -0.010038
v -0.353210 0.312137 -0.012492
v -0.350517 0.323347 -0.019482
v -0.346487 0.330838 -0.029944
v -0.332396 0.338941 -0.056455
v -0.338356 0.342239 -0.040983
v -0.327342 0.329549 -0.069571
v -0.323966 0.315493 -0.078335
v -0.322780 0.298912 -0.081413
v -0.323966 0.282332 -0.078335
v -0.327342 0.268276 -0.069571
v -0.332396 0.258884 -0.056455
v -0.338356 0.255586 -0.040983
v -0.344317 0.258884 -0.025511
v -0.349370 0.268276 -0.012395
v -0.352746 0.282332 -0.003631
v -0.353932 0.298912 -0.000553
v -0.352746 0.315493 -0.003631
v -0.349370 0.329549 -0.012395
v -0.344317 0.338941 -0.025511
v -0.329667 0.340320 -0.056016
v -0.335833 0.343731 -0.040011
v -0.324440 0.330604 -0.069584
v -0.320948 0.316064 -0.078650
v -0.319721 0.298912 -0.081834
v -0.320948 0.281761 -0.078650
v -0.324440 0.267221 -0.069584
v -0.329667 0.257505 -0.056016
v -0.335833 0.254094 -0.040011
v -0.341999 0.257505 -0.024006
v -0.347226 0.267221 -0.010438
v -0.350719 0.281761 -0.001372
v -0.351945 0.298912 0.001811
v -0.350719 0.316064 -0.001372
v -0.347226 0.330604 -0.010438
v -0.341999 0.340320 -0.024006
v -0.327756 0.338267 -0.054368
v -0.333616 0.341510 -0.039157
v -0.322788 0.329033 -0.067264
v -0.319468 0.315214 -0.075881
v -0.318303 0.298912 -0.078906
v -0.319468 0.282611 -0.075881
v -0.322788 0.268792 -0.067264
v -0.327756 0.259558 -0.054368
v -0.333616 0.256315 -0.039157
v -0.339476 0.259558 -0.023946
v -0.344444 0.268792 -0.011050
v -0.347764 0.282611 -0.002433
v -0.348930 0.298912 0.000592
v -0.347764 0.315214 -0.002433
v -0.344444 0.329033 -0.011050
v -0.339476 0.338267 -0.023945
v -0.328326 0.320385 -0.046650
v -0.331524 0.322154 -0.038351
v -0.325615 0.315347 -0.053687
v -0.323804 0.307807 -0.058388
v -0.323168 0.298912 -0.060039
v -0.323804 0.290018 -0.058388
v -0.325615 0.282478 -0.053687
v -0.328326 0.277440 -0.046651
v -0.331524 0.275670 -0.038351
v -0.334721 0.277440 -0.030051
v -0.337432 0.282478 -0.023015
v -0.339243 0.290018 -0.018313
v -0.339879 0.298912 -0.016663
v -0.339243 0.307807 -0.018313
v -0.337432 0.315347 -0.023015
v -0.334721 0.320385 -0.030051
v -0.501180 0.299513 -0.100474
vt 0.750000 0.490000
vt 0.841844 0.471731
vt 0.841844 0.471731
vt 0.919706 0.419706
vt 0.971731 0.341844
vt 0.971731 0.341844
vt 0.580294 0.419706
vt 0.658156 0.471731
vt 0.658156 0.471731
vt 0.658156 0.028269
vt 0.580294 0.080294
vt 0.658156 0.028269
vt 0.990000 0.250000
vt 0.971731 0.158156
vt 0.990000 0.250000
vt 0.528269 0.158156
vt 0.510000 0.250000
vt 0.528269 0.158156
vt 0.919706 0.080294
vt 0.841844 0.028269
vt 0.919706 0.080294
vt 0.919706 0.419706
vt 0.528269 0.341844
vt 0.580294 0.419706
vt 0.750000 0.010000
vt 0.750000 0.010000
vt 0.750000 0.490000
vt 0.580294 0.080294
vt 0.971731 0.158156
vt 0.528269 0.341844
vt 0.580294 0.419706
vt 0.841844 0.028269
vt 0.919706 0.080294
vt 0.580294 0.080294
vt 0.658156 0.471731
vt 0.990000 0.250000
vt 0.750000 0.010000
vt 0.580294 0.419706
vt 0.919706 0.419706
vt 0.510000 0.250000
vt 0.841844 0.028269
vt 0.841844 0.471731
vt 0.971731 0.158156
vt 0.919706 0.080294
vt 0.919706 0.080294
vt 0.658156 0.028269
vt 0.971731 0.341844
vt 0.510000 0.250000
vt 0.528269 0.341844
vt 0.919706 0.419706
vt 0.750000 0.010000
vt 0.841844 0.028269
vt 0.510000 0.250000
vt 0.841844 0.471731
vt 0.528269 0.158156
vt 0.750000 0.490000
vt 0.658156 0.471731
vt 0.750000 0.490000
vt 0.841844 0.471731
vt 0.750000 0.490000
vt 0.528269 0.341844
vt 0.990000 0.250000
vt 0.971731 0.158156
vt 0.528269 0.158156
vt 0.971731 0.341844
vt 0.580294 0.080294
vt 0.580294 0.080294
vt 0.658156 0.028269
vt 0.919706 0.419706
vt 0.750000 0.010000
vt 0.841844 0.028269
vt 0.658156 0.471731
vt 0.919706 0.419706
vt 0.971731 0.341844
vt 0.971731 0.341844
vt 0.841844 0.028269
vt 0.580294 0.419706
vt 0.658156 0.471731
vt 0.919706 0.080294
vt 0.528269 0.341844
vt 0.971731 0.158156
vt 0.510000 0.250000
vt 0.510000 0.250000
vt 0.990000 0.250000
vt 0.990000 0.250000
vt 0.528269 0.158156
vt 0.580294 0.080294
vt 0.750000 0.010000
vt 0.510000 0.250000
vt 0.528269 0.341844
vt 0.528269 0.341844
vt 0.658156 0.028269
vt 0.658156 0.028269
vt 0.841844 0.471731
vt 0.919706 0.419706
vt 0.658156 0.471731
vt 0.750000 0.490000
vt 0.750000 0.010000
vt 0.580294 0.419706
vt 0.919706 0.080294
vt 0.971731 0.158156
vt 0.528269 0.158156
vt 0.580294 0.080294
vt 0.658156 0.028269
vt 0.971731 0.158156
vt 0.990000 0.250000
vt 0.990000 0.250000
vt 0.510000 0.250000
vt 0.971731 0.341844
vt 0.528269 0.158156
vt 0.919706 0.419706
vt 0.580294 0.080294
vt 0.841844 0.471731
vt 0.841844 0.471731
vt 0.658156 0.471731
vt 0.841844 0.028269
vt 0.750000 0.010000
vt 0.580294 0.419706
vt 0.841844 0.028269
vt 0.750000 0.490000
vt 0.750000 0.250000
vt 0.528269 0.341844
vt 0.528269 0.158156
vt 0.658156 0.028269
vt 0.971731 0.158156
vt 0.971731 0.341844
vt 0.750000 0.490000
vt 0.841844 0.471731
vt 0.750000 0.490000
vt 0.919706 0.419706
vt 0.971731 0.341844
vt 0.919706 0.419706
vt 0.580294 0.419706
vt 0.658156 0.471731
vt 0.580294 0.419706
vt 0.580294 0.080294
vt 0.658156 0.028269
vt 0.658156 0.028269
vt 0.971731 0.158156
vt 0.990000 0.250000
vt 0.990000 0.250000
vt 0.510000 0.250000
vt 0.528269 0.158156
vt 0.528269 0.158156
vt 0.841844 0.028269
vt 0.919706 0.080294
vt 0.919706 0.080294
vt 0.841844 0.471731
vt 0.528269 0.341844
vt 0.528269 0.341844
vt 0.750000 0.010000
vt 0.750000 0.010000
vt 0.971731 0.341844
vt 0.658156 0.471731
vt 0.580294 0.080294
vt 0.971731 0.158156
vt 0.510000 0.250000
vt 0.580294 0.419706
vt 0.841844 0.028269
vt 0.919706 0.080294
vt 0.580294 0.080294
vt 0.528269 0.158156
vt 0.658156 0.471731
vt 0.750000 0.490000
vt 0.990000 0.250000
vt 0.750000 0.010000
vt 0.658156 0.028269
vt 0.580294 0.419706
vt 0.919706 0.419706
vt 0.841844 0.028269
vt 0.510000 0.250000
vt 0.971731 0.158156
vt 0.971731 0.341844
vt 0.841844 0.471731
vt 0.528269 0.341844
vt 0.971731 0.158156
vt 0.919706 0.080294
vt 0.971731 0.158156
vt 0.990000 0.250000
vt 0.658156 0.028269
vt 0.750000 0.010000
vt 0.528269 0.341844
vt 0.971731 0.341844
vt 0.510000 0.250000
vt 0.919706 0.419706
vt 0.841844 0.028269
vt 0.919706 0.080294
vt 0.528269 0.158156
vt 0.841844 0.471731
vt 0.580294 0.080294
vt 0.750000 0.490000
vt 0.658156 0.471731
vt 0.841844 0.471731
vt 0.750000 0.490000
vt 0.750000 0.490000
vt 0.528269 0.341844
vt 0.510000 0.250000
vt 0.990000 0.250000
vt 0.528269 0.158156
vt 0.971731 0.341844
vt 0.580294 0.080294
vt 0.919706 0.419706
vt 0.658156 0.028269
vt 0.750000 0.010000
vt 0.658156 0.471731
vt 0.841844 0.028269
vt 0.580294 0.419706
vt 0.919706 0.419706
vt 0.971731 0.341844
vt 0.919706 0.419706
vt 0.841844 0.028269
vt 0.658156 0.471731
vt 0.580294 0.419706
vt 0.919706 0.080294
vt 0.528269 0.341844
vt 0.971731 0.158156
vt 0.510000 0.250000
vt 0.990000 0.250000
vt 0.528269 0.158156
vt 0.971731 0.341844
vt 0.580294 0.080294
vt 0.658156 0.028269
vt 0.841844 0.471731
vt 0.750000 0.010000
vt 0.510000 0.250000
vt 0.528269 0.341844
vt 0.510000 0.250000
vt 0.658156 0.028269
vt 0.841844 0.471731
vt 0.750000 0.010000
vt 0.658156 0.471731
vt 0.750000 0.490000
vt 0.841844 0.028269
vt 0.580294 0.419706
vt 0.919706 0.080294
vt 0.528269 0.341844
vt 0.971731 0.158156
vt 0.990000 0.250000
vt 0.528269 0.158156
vt 0.580294 0.080294
vt 0.841844 0.028269
vt 0.528269 0.158156
vt 0.658156 0.471731
vt 0.990000 0.250000
vt 0.971731 0.341844
vt 0.580294 0.080294
vt 0.919706 0.419706
vt 0.658156 0.028269
vt 0.841844 0.471731
vt 0.750000 0.010000
vt 0.750000 0.490000
vt 0.580294 0.419706
vt 0.919706 0.080294
vt 0.971731 0.158156
vt 0.750000 0.250000
vt 0.750000 0.490000
vt 0.580294 0.419706
vt 0.919706 0.080294
vn -0.1798 0.9812 0.0705
vn 0.1272 0.9246 0.3591
vn -0.0481 0.9055 0.4216
vn 0.0636 0.6925 0.7186
vn 0.3148 0.3830 0.8684
vn 0.1385 0.3747 0.9167
vn -0.4233 0.6954 -0.5807
vn -0.1349 0.9230 -0.3604
vn -0.3116 0.9076 -0.2815
vn -0.1285 -0.9231 -0.3625
vn -0.4211 -0.6955 -0.5822
vn -0.3086 -0.9081 -0.2831
vn 0.3423 -0.0005 0.9396
vn 0.1399 -0.3744 0.9166
vn 0.1653 0.0002 0.9862
vn -0.3150 -0.3822 -0.8687
vn -0.5235 0.0002 -0.8520
vn -0.4966 -0.3765 -0.7821
vn 0.2440 -0.7084 0.6623
vn -0.0448 -0.9061 0.4208
vn 0.0662 -0.6927 0.7182
vn 0.2393 0.7079 0.6645
vn -0.4978 0.3768 -0.7812
vn -0.2449 0.7057 -0.6648
vn 0.0026 -1.0000 -0.0035
vn -0.1764 -0.9819 0.0692
vn -0.0042 1.0000 -0.0008
vn -0.2399 -0.7061 -0.6662
vn 0.3174 -0.3838 0.8671
vn -0.3177 0.3814 -0.8681
vn 0.6405 0.3881 -0.6626
vn 0.5401 0.6721 -0.5064
vn 0.4553 0.5145 -0.7267
vn 0.1334 -0.9247 0.3564
vn -0.1062 -0.6577 0.7457
vn -0.5791 -0.6577 -0.4817
vn -0.4706 0.8593 -0.2001
vn -0.0083 -0.0000 1.0000
vn -0.3427 -0.9301 0.1320
vn -0.5791 0.6577 -0.4817
vn -0.1062 0.6577 0.7457
vn -0.6770 0.0000 -0.7360
vn -0.2147 -0.8593 0.4642
vn -0.2147 0.8593 0.4642
vn 0.9623 -0.2100 0.1726
vn 0.9596 -0.2697 -0.0807
vn 0.9196 -0.3881 0.0616
vn 0.9018 -0.0000 0.4323
vn 0.8818 -0.2784 0.3806
vn 0.7046 -0.5070 -0.4965
vn 0.4553 -0.5144 -0.7267
vn 0.5401 -0.6722 -0.5064
vn 0.6402 -0.7275 -0.2466
vn 0.3986 0.2784 -0.8739
vn 0.9623 0.2100 0.1726
vn 0.8818 0.2784 0.3806
vn 0.3787 0.0000 -0.9255
vn 0.5978 0.2100 -0.7737
vn 0.9196 0.3881 0.0616
vn 0.8252 0.5144 0.2334
vn 0.7403 -0.6722 0.0132
vn 0.7801 -0.5488 -0.3005
vn 0.8252 -0.5144 0.2334
vn 0.8556 -0.5070 -0.1045
vn 0.3986 -0.2784 -0.8739
vn 0.5828 0.0000 -0.8126
vn 0.8556 0.5070 -0.1045
vn 0.7403 0.6721 0.0132
vn 0.5978 -0.2100 -0.7737
vn 0.7801 0.5488 -0.3005
vn 0.6402 0.7275 -0.2466
vn 0.7046 0.5070 -0.4965
vn 0.4510 0.8755 -0.1737
vn 0.5714 0.8088 0.1389
vn 0.7359 0.1460 -0.6611
vn 0.9774 -0.0000 0.2116
vn 0.9893 -0.1460 -0.0035
vn 0.7359 -0.1460 -0.6611
vn 0.9893 0.1459 -0.0035
vn 0.7657 -0.2697 -0.5840
vn 0.6405 -0.3881 -0.6626
vn 0.8101 -0.3524 -0.4685
vn 0.9596 0.2697 -0.0807
vn 0.8626 -0.3814 -0.3323
vn 0.8626 0.3814 -0.3323
vn 0.9151 -0.3524 -0.1961
vn 0.8101 0.3524 -0.4685
vn -0.4517 0.5165 0.7275
vn -0.3947 0.2795 0.8752
vn 0.5714 -0.8088 0.1389
vn 0.4510 -0.8755 -0.1737
vn 0.5715 -0.8088 0.1389
vn 0.2284 0.6190 -0.7514
vn 0.3305 0.8088 -0.4864
vn 0.6735 -0.6190 0.4039
vn 0.1602 0.3350 -0.9285
vn 0.7417 -0.3350 0.5810
vn 0.1363 0.0000 -0.9907
vn 0.7657 0.0000 0.6432
vn 0.1602 -0.3350 -0.9285
vn 0.7417 0.3350 0.5810
vn 0.2284 -0.6190 -0.7514
vn 0.6735 0.6190 0.4039
vn 0.3306 -0.8088 -0.4864
vn -0.9683 -0.0000 0.2497
vn -0.9527 0.0248 0.3029
vn -0.9652 0.0440 0.2579
vn -0.7378 -0.6748 -0.0153
vn -0.8230 -0.5165 -0.2364
vn -0.5368 0.6748 0.5064
vn -0.6373 -0.7304 0.2455
vn -0.7378 0.6748 -0.0153
vn -0.6373 0.7304 0.2455
vn -0.5368 -0.6748 0.5064
vn -0.8230 0.5165 -0.2364
vn -0.4517 -0.5165 0.7275
vn -0.8799 0.2795 -0.3842
vn -0.3947 -0.2795 0.8752
vn -0.8999 0.0000 -0.4360
vn -0.3747 0.0000 0.9271
vn -0.8799 -0.2795 -0.3842
vn -0.9401 -0.0599 0.3356
vn -0.9097 -0.0248 0.4146
vn -0.9079 0.0000 0.4192
vn -0.8887 -0.0440 0.4563
vn -0.8856 -0.0000 0.4645
vn -0.9652 -0.0440 0.2579
vn -0.9545 -0.0000 0.2982
vn -0.9097 0.0248 0.4146
vn -0.8887 0.0440 0.4563
vn -0.9562 -0.0814 0.2812
vn -0.9527 -0.0248 0.3029
vn -0.9147 0.0458 0.4015
vn -0.8977 0.0814 0.4331
vn -0.9428 -0.1063 0.3160
vn -0.9477 -0.0458 0.3160
vn -0.9223 0.0599 0.3819
vn -0.9111 0.1063 0.3982
vn -0.9269 -0.1151 0.3571
vn -0.9401 0.0599 0.3356
vn -0.9269 0.1151 0.3571
vn -0.9428 0.1063 0.3160
vn -0.9111 -0.1063 0.3982
vn -0.9312 -0.0648 0.3587
vn -0.9562 0.0814 0.2812
vn -0.8977 -0.0814 0.4331
vn -0.9223 -0.0599 0.3819
vn 0.9113 -0.2152 -0.3511
vn 0.9331 -0.0000 -0.3595
vn 0.9409 -0.1988 -0.2742
vn 0.9660 -0.1522 -0.2091
vn 0.9828 -0.0823 -0.1656
vn 0.9886 -0.0000 -0.1503
vn 0.9828 0.0823 -0.1656
vn 0.9660 0.1522 -0.2091
vn 0.9409 0.1988 -0.2742
vn 0.9113 0.2152 -0.3511
vn 0.8817 0.1988 -0.4279
vn 0.8566 0.1522 -0.4931
vn 0.8398 0.0823 -0.5366
vn 0.8339 0.0000 -0.5519
vn 0.8398 -0.0823 -0.5366
vn 0.8566 -0.1522 -0.4931
vn 0.8817 -0.1988 -0.4279
vn 0.1798 0.9812 0.0705
vn -0.1272 0.9246 0.3591
vn 0.0042 1.0000 -0.0008
vn -0.0636 0.6925 0.7186
vn -0.3148 0.3830 0.8684
vn -0.2393 0.7079 0.6645
vn 0.4233 0.6954 -0.5807
vn 0.1349 0.9230 -0.3604
vn 0.2449 0.7057 -0.6648
vn 0.4211 -0.6955 -0.5822
vn 0.1285 -0.9231 -0.3625
vn 0.3086 -0.9081 -0.2831
vn -0.1399 -0.3744 0.9166
vn -0.3423 -0.0005 0.9396
vn -0.1653 0.0002 0.9862
vn 0.5236 0.0002 -0.8520
vn 0.3150 -0.3822 -0.8687
vn 0.4966 -0.3765 -0.7821
vn 0.0448 -0.9061 0.4208
vn -0.2440 -0.7084 0.6623
vn -0.0662 -0.6927 0.7182
vn 0.0481 0.9055 0.4216
vn 0.4978 0.3768 -0.7812
vn 0.3177 0.3814 -0.8681
vn -0.0026 -1.0000 -0.0035
vn 0.1764 -0.9819 0.0692
vn -0.1385 0.3747 0.9167
vn 0.3116 0.9076 -0.2815
vn 0.2399 -0.7061 -0.6662
vn -0.3174 -0.3838 0.8671
vn 0.3423 -0.0005 -0.9396
vn -0.5401 0.6721 -0.5064
vn -0.6405 0.3881 -0.6626
vn -0.4553 0.5145 -0.7267
vn -0.1334 -0.9247 0.3564
vn 0.1062 -0.6577 0.7457
vn 0.5791 -0.6577 -0.4817
vn 0.6516 -0.3559 -0.6699
vn 0.4706 0.8593 -0.2001
vn 0.3427 0.9301 0.1320
vn 0.0083 -0.0000 1.0000
vn 0.3427 -0.9301 0.1320
vn 0.4706 -0.8593 -0.2001
vn 0.5791 0.6577 -0.4817
vn 0.1062 0.6577 0.7457
vn 0.2147 -0.8593 0.4642
vn 0.6770 0.0000 -0.7360
vn 0.0337 -0.3560 0.9339
vn 0.0337 0.3560 0.9339
vn 0.2147 0.8593 0.4642
vn 0.6516 0.3559 -0.6699
vn -0.9623 -0.2100 0.1726
vn -0.9596 -0.2697 -0.0807
vn -0.9893 -0.1460 -0.0035
vn -0.9018 0.0000 0.4323
vn -0.9774 0.0000 0.2116
vn -0.4553 -0.5144 -0.7267
vn -0.7046 -0.5070 -0.4965
vn -0.5401 -0.6722 -0.5064
vn -0.6402 -0.7275 -0.2466
vn -0.7801 -0.5488 -0.3005
vn -0.3986 0.2784 -0.8739
vn -0.5978 0.2100 -0.7737
vn -0.9623 0.2100 0.1726
vn -0.8818 0.2784 0.3806
vn -0.3787 0.0000 -0.9255
vn -0.5828 0.0000 -0.8126
vn -0.9196 0.3881 0.0616
vn -0.8252 0.5144 0.2334
vn -0.7403 -0.6722 0.0132
vn -0.8556 -0.5070 -0.1045
vn -0.9196 -0.3881 0.0616
vn -0.8252 -0.5144 0.2334
vn -0.3986 -0.2784 -0.8739
vn -0.5978 -0.2100 -0.7737
vn -0.8556 0.5070 -0.1045
vn -0.7403 0.6721 0.0132
vn -0.6405 -0.3881 -0.6626
vn -0.7801 0.5488 -0.3005
vn -0.6402 0.7275 -0.2466
vn -0.7046 0.5070 -0.4965
vn -0.8818 -0.2784 0.3806
vn -0.5714 0.8088 0.1389
vn -0.4510 0.8755 -0.1737
vn -0.7359 0.1460 -0.6611
vn -0.7255 -0.0000 -0.6882
vn -0.9997 0.0000 0.0236
vn -0.7359 -0.1460 -0.6611
vn -0.9893 0.1459 -0.0035
vn -0.7657 -0.2697 -0.5840
vn -0.9596 0.2697 -0.0807
vn -0.8101 -0.3524 -0.4685
vn -0.9151 0.3524 -0.1961
vn -0.8626 -0.3814 -0.3323
vn -0.8626 0.3814 -0.3323
vn -0.8101 0.3524 -0.4685
vn -0.9151 -0.3524 -0.1961
vn -0.7657 0.2697 -0.5840
vn 0.4517 0.5165 0.7275
vn 0.3947 0.2795 0.8752
vn -0.4510 -0.8755 -0.1737
vn -0.5714 -0.8088 0.1389
vn -0.2284 0.6190 -0.7514
vn -0.3305 0.8088 -0.4864
vn -0.6735 -0.6190 0.4039
vn -0.1602 0.3350 -0.9285
vn -0.7417 -0.3350 0.5810
vn -0.1363 0.0000 -0.9907
vn -0.7657 0.0000 0.6432
vn -0.1602 -0.3350 -0.9285
vn -0.7417 0.3350 0.5810
vn -0.2284 -0.6190 -0.7514
vn -0.6735 0.6190 0.4039
vn -0.3306 -0.8088 -0.4864
vn 0.9683 -0.0000 0.2497
vn 0.9527 0.0248 0.3029
vn 0.9545 -0.0000 0.2982
vn 0.8230 -0.5165 -0.2364
vn 0.7378 -0.6748 -0.0153
vn 0.5368 0.6748 0.5064
vn 0.6373 -0.7304 0.2455
vn 0.6373 0.7304 0.2455
vn 0.7378 0.6748 -0.0153
vn 0.5368 -0.6748 0.5064
vn 0.8230 0.5165 -0.2364
vn 0.4517 -0.5165 0.7275
vn 0.8799 0.2795 -0.3842
vn 0.3947 -0.2795 0.8752
vn 0.8999 -0.0000 -0.4360
vn 0.3747 0.0000 0.9271
vn 0.8799 -0.2795 -0.3842
vn 0.9223 -0.0599 0.3819
vn 0.9527 -0.0248 0.3029
vn 0.9401 0.0599 0.3356
vn 0.8887 -0.0440 0.4563
vn 0.9079 -0.0000 0.4192
vn 0.8856 -0.0000 0.4645
vn 0.9652 -0.0440 0.2579
vn 0.9097 0.0248 0.4146
vn 0.8887 0.0440 0.4563
vn 0.9562 -0.0814 0.2812
vn 0.9477 -0.0458 0.3160
vn 0.9147 0.0458 0.4015
vn 0.8977 0.0814 0.4331
vn 0.9428 -0.1063 0.3160
vn 0.9401 -0.0599 0.3356
vn 0.9223 0.0599 0.3819
vn 0.9111 0.1063 0.3982
vn 0.9312 -0.0648 0.3587
vn 0.9269 -0.1151 0.3571
vn 0.9428 0.1063 0.3160
vn 0.9312 0.0648 0.3587
vn 0.9269 0.1151 0.3571
vn 0.9111 -0.1063 0.3982
vn 0.9562 0.0814 0.2812
vn 0.9477 0.0458 0.3160
vn 0.8977 -0.0814 0.4331
vn 0.9147 -0.0458 0.4015
vn 0.9652 0.0440 0.2579
vn 0.9097 -0.0248 0.4146
vn -0.9113 -0.2152 -0.3511
vn -0.9409 -0.1988 -0.2742
vn -0.9331 -0.0000 -0.3595
vn -0.9660 -0.1522 -0.2091
vn -0.9828 -0.0823 -0.1656
vn -0.9886 -0.0000 -0.1503
vn -0.9828 0.0823 -0.1656
vn -0.9660 0.1522 -0.2091
vn -0.9409 0.1988 -0.2742
vn -0.9113 0.2152 -0.3511
vn -0.8817 0.1988 -0.4279
vn -0.8566 0.1522 -0.4931
vn -0.8398 0.0823 -0.5366
vn -0.8339 0.0000 -0.5519
vn -0.8398 -0.0823 -0.5366
vn -0.8566 -0.1522 -0.4931
vn -0.8817 -0.1988 -0.4279
vn -0.3423 -0.0005 -0.9396
vn -0.0337 -0.3560 0.9339
vn -0.6516 -0.3559 -0.6699
vn -0.3427 0.9301 0.1320
vn -0.0337 0.3560 0.9339
vn -0.4706 -0.8593 -0.2001
vn -0.6516 0.3559 -0.6699
vn 0.7255 -0.0000 -0.6882
vn 0.9997 0.0000 0.0236
vn 0.9151 0.3524 -0.1961
vn 0.7657 0.2697 -0.5840
vn -0.9312 0.0648 0.3587
vn -0.9477 0.0458 0.3160
vn -0.9147 -0.0458 0.4015
s 1
f 1/1/1 30/2/2 3/3/3
f 5/4/4 26/5/5 7/6/6
f 29/7/7 2/8/8 31/9/9
f 14/10/10 21/11/11 19/12/12
f 24/13/13 11/14/14 9/15/15
f 10/16/16 25/17/17 23/18/18
f 20/19/19 15/20/20 13/21/21
f 3/3/3 28/22/22 5/4/4
f 27/23/23 4/24/24 29/7/7
f 16/25/25 19/12/12 17/26/26
f 26/5/5 9/15/15 7/6/6
f 31/9/9 32/27/27 1/1/1
f 12/28/28 23/18/18 21/11/11
f 22/29/29 13/21/21 11/14/14
f 25/17/17 6/30/30 27/23/23
f 51/31/31 2/8/32 4/24/33
f 18/32/34 17/26/26 15/20/20
f 39/33/35 11/14/14 13/21/21
f 23/18/18 43/34/36 21/11/11
f 1/1/1 48/35/37 31/9/9
f 37/36/38 7/6/6 9/15/15
f 19/12/12 41/37/39 17/26/26
f 47/38/40 27/23/23 29/7/7
f 35/39/41 3/3/3 5/4/4
f 15/20/20 39/33/35 13/21/21
f 45/40/42 23/18/18 25/17/17
f 11/14/14 37/36/38 9/15/15
f 43/34/36 19/12/12 21/11/11
f 31/9/9 47/38/40 29/7/7
f 7/6/6 35/39/41 5/4/4
f 17/26/26 40/41/43 15/20/20
f 34/42/44 1/1/1 3/3/3
f 27/23/23 45/40/42 25/17/17
f 60/43/45 75/44/46 59/45/47
f 24/13/48 60/43/45 22/29/49
f 56/46/50 12/28/51 14/10/52
f 16/25/53 56/46/50 14/10/52
f 6/30/54 51/31/31 4/24/33
f 62/47/55 24/13/48 26/5/56
f 8/48/57 52/49/58 6/30/54
f 63/50/59 26/5/56 28/22/60
f 18/32/61 57/51/62 16/25/53
f 20/19/63 58/52/64 18/32/61
f 10/16/65 53/53/66 8/48/57
f 64/54/67 28/22/60 30/2/68
f 12/28/51 54/55/69 10/16/65
f 50/56/70 30/2/68 32/27/71
f 49/57/72 32/27/71 2/8/32
f 22/29/49 59/45/47 20/19/63
f 82/58/73 80/59/74 66/60/73
f 53/53/66 68/61/75 52/49/58
f 61/62/76 76/63/77 60/43/45
f 70/64/78 53/53/66 54/55/69
f 78/65/79 61/62/76 62/47/55
f 71/66/80 54/55/69 55/67/81
f 63/50/59 78/65/79 62/47/55
f 72/68/82 55/67/81 56/46/50
f 64/54/67 79/69/83 63/50/59
f 73/70/84 56/46/50 57/51/62
f 49/57/72 66/60/85 50/56/70
f 66/60/85 64/54/67 50/56/70
f 74/71/86 57/51/62 58/52/64
f 51/31/31 65/72/87 49/57/72
f 59/45/47 74/71/86 58/52/64
f 68/61/75 51/31/31 52/49/58
f 95/73/88 110/74/89 94/75/89
f 90/76/90 73/70/91 74/71/92
f 67/77/93 81/78/94 65/72/94
f 91/79/95 74/71/92 75/44/95
f 84/80/96 67/77/93 68/61/96
f 92/81/97 75/44/95 76/63/97
f 85/82/98 68/61/96 69/83/98
f 93/84/99 76/63/97 77/85/99
f 70/64/100 85/82/98 69/83/98
f 78/65/101 93/84/99 77/85/99
f 71/66/102 86/86/100 70/64/100
f 79/69/103 94/75/101 78/65/101
f 72/68/104 87/87/102 71/66/102
f 80/59/74 95/73/103 79/69/103
f 89/88/91 72/68/104 73/70/91
f 65/72/94 82/58/73 66/60/73
f 101/89/105 116/90/106 100/91/107
f 104/92/108 87/87/109 88/93/108
f 96/94/110 111/95/88 95/73/88
f 89/88/111 104/92/108 88/93/108
f 97/96/112 82/58/113 81/78/112
f 98/97/113 96/94/110 82/58/113
f 90/76/114 105/98/111 89/88/111
f 83/99/115 97/96/112 81/78/112
f 107/100/116 90/76/114 91/79/116
f 100/91/117 83/99/115 84/80/117
f 92/81/118 107/100/116 91/79/116
f 101/89/119 84/80/117 85/82/119
f 93/84/120 108/101/118 92/81/118
f 102/102/121 85/82/119 86/86/121
f 110/74/89 93/84/120 94/75/89
f 103/103/109 86/86/121 87/87/109
f 116/90/106 120/104/122 124/105/123
f 125/106/124 108/101/125 109/107/126
f 102/102/127 117/108/128 101/89/105
f 126/109/129 109/107/126 110/74/130
f 103/103/131 118/110/132 102/102/127
f 127/111/133 110/74/130 111/95/134
f 104/92/135 119/112/136 103/103/131
f 128/113/137 111/95/134 112/114/138
f 105/98/139 120/104/122 104/92/135
f 113/115/140 98/97/141 97/96/142
f 98/97/141 128/113/137 112/114/138
f 106/116/143 121/117/144 105/98/139
f 99/118/145 113/115/140 97/96/142
f 107/100/146 122/119/147 106/116/143
f 116/90/106 99/118/145 100/91/107
f 124/105/123 107/100/146 108/101/125
f 33/120/148 129/121/149 48/35/150
f 48/35/150 129/121/149 47/38/151
f 47/38/151 129/121/149 46/122/152
f 46/122/152 129/121/149 45/40/153
f 45/40/153 129/121/149 44/123/154
f 44/123/154 129/121/149 43/34/155
f 43/34/155 129/121/149 42/124/156
f 42/124/156 129/121/149 41/37/157
f 41/37/157 129/121/149 40/41/158
f 40/41/158 129/121/149 39/33/159
f 39/33/159 129/121/149 38/125/160
f 38/125/160 129/121/149 37/36/161
f 37/36/161 129/121/149 36/126/162
f 36/126/162 129/121/149 35/39/163
f 35/39/163 129/121/149 34/42/164
f 34/42/164 129/121/149 33/120/148
f 130/127/165 159/128/166 161/129/167
f 134/130/168 155/131/169 157/132/170
f 158/133/171 131/134/172 133/135/173
f 150/136/174 143/137/175 148/138/176
f 140/139/177 153/140/178 138/141/179
f 154/142/180 139/143/181 152/144/182
f 144/145/183 149/146/184 142/147/185
f 132/148/186 157/132/170 159/128/166
f 156/149/187 133/135/173 135/150/188
f 148/138/176 145/151/189 146/152/190
f 138/141/179 155/131/169 136/153/191
f 160/154/192 161/129/167 131/134/172
f 152/144/182 141/155/193 150/136/174
f 142/147/185 151/156/194 140/139/177
f 154/142/180 135/150/188 137/157/195
f 131/134/196 180/158/197 133/135/198
f 146/152/190 147/159/199 144/145/183
f 140/139/177 168/160/200 142/147/185
f 152/144/182 172/161/201 173/162/202
f 130/127/165 177/163/203 162/164/204
f 136/153/191 166/165/205 138/141/179
f 148/138/176 170/166/206 171/167/207
f 156/149/187 176/168/208 158/133/171
f 132/148/186 164/169/209 134/130/168
f 144/145/183 168/160/200 169/170/210
f 152/144/182 174/171/211 154/142/180
f 140/139/177 166/165/205 167/172/212
f 148/138/176 172/161/201 150/136/174
f 160/154/192 176/168/208 177/163/203
f 136/153/191 164/169/209 165/173/213
f 144/145/183 170/166/206 146/152/190
f 130/127/165 163/174/214 132/148/186
f 156/149/187 174/171/211 175/175/215
f 189/176/216 204/177/217 205/178/218
f 153/140/219 189/176/216 190/179/220
f 141/155/221 185/180/222 143/137/223
f 145/151/224 185/180/222 186/181/225
f 135/150/226 180/158/197 181/182/227
f 153/140/219 191/183/228 155/131/229
f 137/157/230 181/182/227 182/184/231
f 155/131/229 192/185/232 157/132/233
f 147/159/234 186/181/225 187/186/235
f 147/159/234 188/187/236 149/146/237
f 139/143/238 182/184/231 183/188/239
f 157/132/233 193/189/240 159/128/241
f 141/155/221 183/188/239 184/190/242
f 159/128/241 179/191/243 161/129/244
f 161/129/244 178/192/245 131/134/196
f 149/146/237 189/176/216 151/156/246
f 209/193/247 211/194/248 195/195/248
f 182/184/231 197/196/249 198/197/250
f 190/179/220 205/178/218 206/198/251
f 182/184/231 199/199/252 183/188/239
f 190/179/220 207/200/253 191/183/228
f 183/188/239 200/201/254 184/190/242
f 192/185/232 207/200/253 208/202/255
f 184/190/242 201/203/256 185/180/222
f 193/189/240 208/202/255 209/193/257
f 185/180/222 202/204/258 186/181/225
f 178/192/245 195/195/259 194/205/260
f 193/189/240 195/195/259 179/191/243
f 187/186/235 202/204/258 203/206/261
f 180/158/197 194/205/260 196/207/262
f 188/187/236 203/206/261 204/177/217
f 180/158/197 197/196/249 181/182/227
f 224/208/263 239/209/264 240/210/263
f 202/204/265 219/211/266 203/206/266
f 196/207/267 210/212/268 212/213/267
f 203/206/266 220/214/269 204/177/269
f 196/207/267 213/215/270 197/196/270
f 204/177/269 221/216/271 205/178/271
f 197/196/270 214/217/272 198/197/272
f 205/178/271 222/218/273 206/198/273
f 199/199/274 214/217/272 215/219/274
f 207/200/275 222/218/273 223/220/275
f 200/201/276 215/219/274 216/221/276
f 208/202/277 223/220/275 224/208/277
f 201/203/278 216/221/276 217/222/278
f 209/193/247 224/208/277 225/223/247
f 201/203/278 218/224/265 202/204/265
f 194/205/268 211/194/248 210/212/268
f 230/225/279 245/226/280 246/227/281
f 216/221/282 233/228/283 217/222/283
f 225/223/284 240/210/263 241/229/284
f 218/224/285 233/228/283 234/230/285
f 211/194/286 226/231/287 210/212/287
f 225/223/284 227/232/286 211/194/286
f 219/211/288 234/230/285 235/233/288
f 212/213/289 226/231/287 228/234/289
f 219/211/288 236/235/290 220/214/290
f 212/213/289 229/236/291 213/215/291
f 221/216/292 236/235/290 237/237/292
f 214/217/293 229/236/291 230/225/293
f 222/218/294 237/237/292 238/238/294
f 214/217/293 231/239/295 215/219/295
f 222/218/294 239/209/264 223/220/264
f 215/219/295 232/240/282 216/221/282
f 251/241/296 247/242/297 242/243/298
f 237/237/299 254/244/300 238/238/301
f 231/239/302 246/227/281 247/242/297
f 238/238/301 255/245/303 239/209/304
f 232/240/305 247/242/297 248/246/306
f 239/209/304 256/247/307 240/210/308
f 233/228/309 248/246/306 249/248/310
f 240/210/308 257/249/311 241/229/312
f 233/228/309 250/250/313 234/230/314
f 226/231/315 243/251/316 242/243/298
f 241/229/312 243/251/316 227/232/317
f 235/233/318 250/250/313 251/241/296
f 228/234/319 242/243/298 244/252/320
f 236/235/321 251/241/296 252/253/322
f 228/234/319 245/226/280 229/236/323
f 236/235/321 253/254/324 237/237/299
f 162/164/325 177/163/326 258/255/327
f 177/163/326 176/168/328 258/255/327
f 176/168/328 175/175/329 258/255/327
f 175/175/329 174/171/330 258/255/327
f 174/171/330 173/162/331 258/255/327
f 173/162/331 172/161/332 258/255/327
f 172/161/332 171/167/333 258/255/327
f 171/167/333 170/166/334 258/255/327
f 170/166/334 169/170/335 258/255/327
f 169/170/335 168/160/336 258/255/327
f 168/160/336 167/172/337 258/255/327
f 167/172/337 166/165/338 258/255/327
f 166/165/338 165/173/339 258/255/327
f 165/173/339 164/169/340 258/255/327
f 164/169/340 163/174/341 258/255/327
f 163/174/341 162/164/325 258/255/327
f 1/1/1 32/27/27 30/2/2
f 5/4/4 28/22/22 26/5/5
f 29/7/7 4/24/24 2/8/8
f 14/10/10 12/28/28 21/11/11
f 24/13/13 22/29/29 11/14/14
f 10/16/16 8/48/342 25/17/17
f 20/19/19 18/32/34 15/20/20
f 3/3/3 30/2/2 28/22/22
f 27/23/23 6/30/30 4/24/24
f 16/25/25 14/10/10 19/12/12
f 26/5/5 24/13/13 9/15/15
f 31/9/9 2/8/8 32/27/27
f 12/28/28 10/16/16 23/18/18
f 22/29/29 20/19/19 13/21/21
f 25/17/17 8/48/342 6/30/30
f 51/31/31 49/57/72 2/8/32
f 18/32/34 16/25/25 17/26/26
f 39/33/35 38/125/343 11/14/14
f 23/18/18 44/123/344 43/34/36
f 1/1/1 33/120/345 48/35/37
f 37/36/38 36/126/346 7/6/6
f 19/12/12 42/124/347 41/37/39
f 47/38/40 46/122/348 27/23/23
f 35/39/41 34/42/44 3/3/3
f 15/20/20 40/41/43 39/33/35
f 45/40/42 44/123/344 23/18/18
f 11/14/14 38/125/343 37/36/38
f 43/34/36 42/124/347 19/12/12
f 31/9/9 48/35/37 47/38/40
f 7/6/6 36/126/346 35/39/41
f 17/26/26 41/37/39 40/41/43
f 34/42/44 33/120/345 1/1/1
f 27/23/23 46/122/348 45/40/42
f 60/43/45 76/63/77 75/44/46
f 24/13/48 61/62/76 60/43/45
f 56/46/50 55/67/81 12/28/51
f 16/25/53 57/51/62 56/46/50
f 6/30/54 52/49/58 51/31/31
f 62/47/55 61/62/76 24/13/48
f 8/48/57 53/53/66 52/49/58
f 63/50/59 62/47/55 26/5/56
f 18/32/61 58/52/64 57/51/62
f 20/19/63 59/45/47 58/52/64
f 10/16/65 54/55/69 53/53/66
f 64/54/67 63/50/59 28/22/60
f 12/28/51 55/67/81 54/55/69
f 50/56/70 64/54/67 30/2/68
f 49/57/72 50/56/70 32/27/71
f 22/29/49 60/43/45 59/45/47
f 82/58/73 96/94/74 80/59/74
f 53/53/66 69/83/349 68/61/75
f 61/62/76 77/85/350 76/63/77
f 70/64/78 69/83/349 53/53/66
f 78/65/79 77/85/350 61/62/76
f 71/66/80 70/64/78 54/55/69
f 63/50/59 79/69/83 78/65/79
f 72/68/82 71/66/80 55/67/81
f 64/54/67 80/59/351 79/69/83
f 73/70/84 72/68/82 56/46/50
f 49/57/72 65/72/87 66/60/85
f 66/60/85 80/59/351 64/54/67
f 74/71/86 73/70/84 57/51/62
f 51/31/31 67/77/352 65/72/87
f 59/45/47 75/44/46 74/71/86
f 68/61/75 67/77/352 51/31/31
f 95/73/88 111/95/88 110/74/89
f 90/76/90 89/88/91 73/70/91
f 67/77/93 83/99/93 81/78/94
f 91/79/95 90/76/90 74/71/92
f 84/80/96 83/99/93 67/77/93
f 92/81/97 91/79/95 75/44/95
f 85/82/98 84/80/96 68/61/96
f 93/84/99 92/81/97 76/63/97
f 70/64/100 86/86/100 85/82/98
f 78/65/101 94/75/101 93/84/99
f 71/66/102 87/87/102 86/86/100
f 79/69/103 95/73/103 94/75/101
f 72/68/104 88/93/104 87/87/102
f 80/59/74 96/94/74 95/73/103
f 89/88/91 88/93/104 72/68/104
f 65/72/94 81/78/94 82/58/73
f 101/89/105 117/108/128 116/90/106
f 104/92/108 103/103/109 87/87/109
f 96/94/110 112/114/110 111/95/88
f 89/88/111 105/98/111 104/92/108
f 97/96/112 98/97/113 82/58/113
f 98/97/113 112/114/110 96/94/110
f 90/76/114 106/116/114 105/98/111
f 83/99/115 99/118/115 97/96/112
f 107/100/116 106/116/114 90/76/114
f 100/91/117 99/118/115 83/99/115
f 92/81/118 108/101/118 107/100/116
f 101/89/119 100/91/117 84/80/117
f 93/84/120 109/107/120 108/101/118
f 102/102/121 101/89/119 85/82/119
f 110/74/89 109/107/120 93/84/120
f 103/103/109 102/102/121 86/86/121
f 128/113/137 114/256/353 113/115/140
f 113/115/140 115/257/354 128/113/137
f 115/257/354 116/90/106 128/113/137
f 116/90/106 117/108/128 118/110/132
f 118/110/132 119/112/136 116/90/106
f 119/112/136 120/104/122 116/90/106
f 120/104/122 121/117/144 122/119/147
f 122/119/147 123/258/355 120/104/122
f 123/258/355 124/105/123 120/104/122
f 124/105/123 125/106/124 126/109/129
f 126/109/129 127/111/133 124/105/123
f 127/111/133 128/113/137 124/105/123
f 128/113/137 116/90/106 124/105/123
f 125/106/124 124/105/123 108/101/125
f 102/102/127 118/110/132 117/108/128
f 126/109/129 125/106/124 109/107/126
f 103/103/131 119/112/136 118/110/132
f 127/111/133 126/109/129 110/74/130
f 104/92/135 120/104/122 119/112/136
f 128/113/137 127/111/133 111/95/134
f 105/98/139 121/117/144 120/104/122
f 113/115/140 114/256/353 98/97/141
f 98/97/141 114/256/353 128/113/137
f 106/116/143 122/119/147 121/117/144
f 99/118/145 115/257/354 113/115/140
f 107/100/146 123/258/355 122/119/147
f 116/90/106 115/257/354 99/118/145
f 124/105/123 123/258/355 107/100/146
f 130/127/165 132/148/186 159/128/166
f 134/130/168 136/153/191 155/131/169
f 158/133/171 160/154/192 131/134/172
f 150/136/174 141/155/193 143/137/175
f 140/139/177 151/156/194 153/140/178
f 154/142/180 137/157/195 139/143/181
f 144/145/183 147/159/199 149/146/184
f 132/148/186 134/130/168 157/132/170
f 156/149/187 158/133/171 133/135/173
f 148/138/176 143/137/175 145/151/189
f 138/141/179 153/140/178 155/131/169
f 160/154/192 130/127/165 161/129/167
f 152/144/182 139/143/181 141/155/193
f 142/147/185 149/146/184 151/156/194
f 154/142/180 156/149/187 135/150/188
f 131/134/196 178/192/245 180/158/197
f 146/152/190 145/151/189 147/159/199
f 140/139/177 167/172/212 168/160/200
f 152/144/182 150/136/174 172/161/201
f 130/127/165 160/154/192 177/163/203
f 136/153/191 165/173/213 166/165/205
f 148/138/176 146/152/190 170/166/206
f 156/149/187 175/175/215 176/168/208
f 132/148/186 163/174/214 164/169/209
f 144/145/183 142/147/185 168/160/200
f 152/144/182 173/162/202 174/171/211
f 140/139/177 138/141/179 166/165/205
f 148/138/176 171/167/207 172/161/201
f 160/154/192 158/133/171 176/168/208
f 136/153/191 134/130/168 164/169/209
f 144/145/183 169/170/210 170/166/206
f 130/127/165 162/164/204 163/174/214
f 156/149/187 154/142/180 174/171/211
f 189/176/216 188/187/236 204/177/217
f 153/140/219 151/156/246 189/176/216
f 141/155/221 184/190/242 185/180/222
f 145/151/224 143/137/223 185/180/222
f 135/150/226 133/135/198 180/158/197
f 153/140/219 190/179/220 191/183/228
f 137/157/230 135/150/226 181/182/227
f 155/131/229 191/183/228 192/185/232
f 147/159/234 145/151/224 186/181/225
f 147/159/234 187/186/235 188/187/236
f 139/143/238 137/157/230 182/184/231
f 157/132/233 192/185/232 193/189/240
f 141/155/221 139/143/238 183/188/239
f 159/128/241 193/189/240 179/191/243
f 161/129/244 179/191/243 178/192/245
f 149/146/237 188/187/236 189/176/216
f 209/193/247 225/223/247 211/194/248
f 182/184/231 181/182/227 197/196/249
f 190/179/220 189/176/216 205/178/218
f 182/184/231 198/197/250 199/199/252
f 190/179/220 206/198/251 207/200/253
f 183/188/239 199/199/252 200/201/254
f 192/185/232 191/183/228 207/200/253
f 184/190/242 200/201/254 201/203/256
f 193/189/240 192/185/232 208/202/255
f 185/180/222 201/203/256 202/204/258
f 178/192/245 179/191/243 195/195/259
f 193/189/240 209/193/257 195/195/259
f 187/186/235 186/181/225 202/204/258
f 180/158/197 178/192/245 194/205/260
f 188/187/236 187/186/235 203/206/261
f 180/158/197 196/207/262 197/196/249
f 224/208/263 223/220/264 239/209/264
f 202/204/265 218/224/265 219/211/266
f 196/207/267 194/205/268 210/212/268
f 203/206/266 219/211/266 220/214/269
f 196/207/267 212/213/267 213/215/270
f 204/177/269 220/214/269 221/216/271
f 197/196/270 213/215/270 214/217/272
f 205/178/271 221/216/271 222/218/273
f 199/199/274 198/197/272 214/217/272
f 207/200/275 206/198/273 222/218/273
f 200/201/276 199/199/274 215/219/274
f 208/202/277 207/200/275 223/220/275
f 201/203/278 200/201/276 216/221/276
f 209/193/247 208/202/277 224/208/277
f 201/203/278 217/222/278 218/224/265
f 194/205/268 195/195/248 211/194/248
f 230/225/279 229/236/323 245/226/280
f 216/221/282 232/240/282 233/228/283
f 225/223/284 224/208/263 240/210/263
f 218/224/285 217/222/283 233/228/283
f 211/194/286 227/232/286 226/231/287
f 225/223/284 241/229/284 227/232/286
f 219/211/288 218/224/285 234/230/285
f 212/213/289 210/212/287 226/231/287
f 219/211/288 235/233/288 236/235/290
f 212/213/289 228/234/289 229/236/291
f 221/216/292 220/214/290 236/235/290
f 214/217/293 213/215/291 229/236/291
f 222/218/294 221/216/292 237/237/292
f 214/217/293 230/225/293 231/239/295
f 222/218/294 238/238/294 239/209/264
f 215/219/295 231/239/295 232/240/282
f 242/243/298 243/251/316 257/249/311
f 257/249/311 256/247/307 242/243/298
f 256/247/307 255/245/303 242/243/298
f 255/245/303 254/244/300 251/241/296
f 254/244/300 253/254/324 251/241/296
f 253/254/324 252/253/322 251/241/296
f 251/241/296 250/250/313 249/248/310
f 249/248/310 248/246/306 251/241/296
f 248/246/306 247/242/297 251/241/296
f 247/242/297 246/227/281 245/226/280
f 245/226/280 244/252/320 247/242/297
f 244/252/320 242/243/298 247/242/297
f 242/243/298 255/245/303 251/241/296
f 237/237/299 253/254/324 254/244/300
f 231/239/302 230/225/279 246/227/281
f 238/238/301 254/244/300 255/245/303
f 232/240/305 231/239/302 247/242/297
f 239/209/304 255/245/303 256/247/307
f 233/228/309 232/240/305 248/246/306
f 240/210/308 256/247/307 257/249/311
f 233/228/309 249/248/310 250/250/313
f 226/231/315 227/232/317 243/251/316
f 241/229/312 257/249/311 243/251/316
f 235/233/318 234/230/314 250/250/313
f 228/234/319 226/231/315 242/243/298
f 236/235/321 235/233/318 251/241/296
f 228/234/319 244/252/320 245/226/280
f 236/235/321 252/253/322 253/254/324
