# Blender v3.4.1 OBJ File: 'bike.blend'
# www.blender.org
o Saddle_Cube.002
v -0.067573 0.522271 -0.272911
v -0.067573 0.565134 -0.272911
v 0.067573 0.522271 -0.272911
v 0.067573 0.565134 -0.272911
v -0.043779 0.523695 -0.223527
v -0.043779 0.562148 -0.223527
v 0.043779 0.523695 -0.223527
v 0.043779 0.562148 -0.223527
v 0.080116 0.522271 -0.314380
v -0.080116 0.522271 -0.314380
v -0.080116 0.565134 -0.314380
v 0.080116 0.565134 -0.314380
v 0.091064 0.520797 -0.364475
v -0.091064 0.520797 -0.364475
v -0.091064 0.566608 -0.364475
v 0.091064 0.566608 -0.364475
v 0.023513 0.562148 -0.181346
v 0.023513 0.523695 -0.181346
v -0.023513 0.523695 -0.181346
v -0.023513 0.562148 -0.181346
v 0.019019 0.562148 -0.158667
v 0.019019 0.523695 -0.158667
v -0.019019 0.523695 -0.158667
v -0.019019 0.562148 -0.158667
v 0.019019 0.562148 -0.113161
v 0.019019 0.523695 -0.113161
v -0.019019 0.523695 -0.113161
v -0.019019 0.562148 -0.113161
v 0.015808 0.562148 -0.094678
v 0.015808 0.523695 -0.094678
v -0.015808 0.523695 -0.094678
v -0.015808 0.562148 -0.094678
v 0.008298 0.562148 -0.083119
v 0.008298 0.523695 -0.083119
v -0.008298 0.523695 -0.083119
v -0.008298 0.562148 -0.083119
v 0.087394 0.521720 -0.390077
v -0.087394 0.521720 -0.390077
v -0.087394 0.565685 -0.390077
v 0.087394 0.565685 -0.390077
v 0.075243 0.521720 -0.409104
v -0.075243 0.521720 -0.409104
v -0.075243 0.565685 -0.409104
v 0.075243 0.565685 -0.409104
v 0.054793 0.521720 -0.424617
v -0.054792 0.521720 -0.424617
v -0.054792 0.565685 -0.424617
v 0.054793 0.565685 -0.424617
v 0.024911 0.521720 -0.435505
v -0.024911 0.521720 -0.435505
v -0.024911 0.565685 -0.435505
v 0.024911 0.565685 -0.435505
vt 0.375000 0.250000
vt 0.625000 0.250000
vt 0.625000 0.250000
vt 0.625000 0.500000
vt 0.375000 0.500000
vt 0.625000 0.750000
vt 0.625000 0.500000
vt 0.375000 1.000000
vt 0.375000 0.750000
vt 0.125000 0.750000
vt 0.125000 0.500000
vt 0.875000 0.500000
vt 0.875000 0.500000
vt 0.875000 0.750000
vt 0.875000 0.750000
vt 0.625000 1.000000
vt 0.375000 1.000000
vt 0.875000 0.750000
vt 0.125000 0.500000
vt 0.625000 0.250000
vt 0.375000 0.250000
vt 0.625000 0.250000
vt 0.125000 0.750000
vt 0.125000 0.500000
vt 0.375000 0.250000
vt 0.625000 1.000000
vt 0.375000 1.000000
vt 0.625000 0.750000
vt 0.625000 0.500000
vt 0.375000 0.500000
vt 0.375000 0.750000
vt 0.625000 0.750000
vt 0.625000 0.500000
vt 0.375000 0.500000
vt 0.375000 0.750000
vt 0.375000 0.750000
vt 0.625000 0.750000
vt 0.625000 0.750000
vt 0.375000 0.500000
vt 0.625000 0.500000
vt 0.625000 0.500000
vt 0.375000 0.750000
vt 0.375000 0.500000
vt 0.375000 0.750000
vt 0.375000 0.500000
vt 0.625000 0.750000
vt 0.625000 0.250000
vt 0.375000 1.000000
vt 0.875000 0.500000
vt 0.875000 0.750000
vt 0.125000 0.750000
vt 0.125000 0.500000
vt 0.875000 0.500000
vt 0.875000 0.750000
vt 0.875000 0.750000
vt 0.625000 1.000000
vt 0.375000 1.000000
vt 0.875000 0.500000
vt 0.125000 0.500000
vt 0.375000 0.250000
vt 0.625000 0.250000
vt 0.625000 0.250000
vt 0.125000 0.750000
vt 0.125000 0.500000
vt 0.375000 0.250000
vt 0.625000 1.000000
vt 0.375000 1.000000
vt 0.625000 0.000000
vt 0.375000 0.250000
vt 0.375000 0.000000
vt 0.625000 1.000000
vt 0.375000 1.000000
vt 0.875000 0.500000
vt 0.875000 0.750000
vt 0.125000 0.750000
vt 0.125000 0.500000
vt 0.625000 1.000000
vt 0.375000 0.250000
vt 0.125000 0.750000
vt 0.625000 1.000000
vt 0.875000 0.500000
vt 0.125000 0.750000
vn 0.9321 0.0000 0.3623
vn 0.9679 0.0000 0.2514
vn 0.9323 0.0000 0.3616
vn 0.9011 0.0000 0.4336
vn 0.0000 0.9992 0.0388
vn 0.0000 1.0000 0.0000
vn -0.9011 0.0000 0.4336
vn -0.9321 0.0000 0.3623
vn 0.0000 -0.9998 0.0185
vn 0.0000 -0.9999 0.0108
vn 0.0000 0.9997 0.0227
vn 0.0000 0.9999 0.0171
vn 0.0000 1.0000 -0.0042
vn -0.9323 0.0000 0.3616
vn -0.9679 0.0000 0.2514
vn 0.0000 -0.9999 0.0171
vn 0.9993 0.0000 0.0368
vn 0.9384 0.0000 -0.3456
vn 0.0000 -0.9999 0.0172
vn 0.0000 -1.0000 -0.0042
vn -0.9993 0.0000 0.0368
vn 0.9487 0.0000 0.3162
vn -0.9487 0.0000 0.3162
vn 0.0000 -1.0000 0.0000
vn 0.9952 0.0000 0.0976
vn -0.9952 0.0000 0.0976
vn -0.9963 0.0000 0.0859
vn -0.9308 0.0000 0.3654
vn 0.9963 0.0000 0.0859
vn 0.9308 0.0000 0.3654
vn 0.0000 0.0000 1.0000
vn 0.8386 0.0000 0.5448
vn -0.8386 0.0000 0.5448
vn 0.7350 0.0000 -0.6780
vn -0.9384 0.0000 -0.3456
vn 0.0000 0.9997 -0.0227
vn 0.0000 -0.9997 -0.0227
vn -0.7350 0.0000 -0.6780
vn 0.4787 0.0000 -0.8780
vn 0.1738 0.0000 -0.9848
vn -0.4787 0.0000 -0.8780
vn -0.1738 0.0000 -0.9848
s 1
f 3/1/1 12/2/2 4/3/3
f 3/1/1 8/4/4 7/5/4
f 6/6/5 17/7/6 8/4/5
f 6/6/7 1/8/8 5/9/7
f 7/5/9 1/10/10 3/11/10
f 4/12/11 6/6/5 8/4/5
f 12/13/12 15/14/13 11/15/12
f 2/16/14 10/17/15 1/8/8
f 4/12/11 11/15/12 2/18/11
f 1/10/10 9/19/16 3/11/10
f 16/20/17 37/21/18 40/22/18
f 10/23/19 13/24/20 9/19/16
f 9/25/2 16/20/17 12/2/2
f 10/17/15 15/26/21 14/27/21
f 20/28/6 21/29/6 17/7/6
f 8/4/4 18/30/22 7/5/4
f 5/9/7 20/28/23 6/6/7
f 7/5/9 19/31/24 5/9/9
f 24/32/6 25/33/6 21/29/6
f 17/7/22 22/34/25 18/30/22
f 19/31/23 24/32/26 20/28/23
f 18/30/24 23/35/24 19/31/24
f 27/36/27 32/37/28 28/38/27
f 21/29/25 26/39/29 22/34/25
f 23/35/26 28/38/27 24/32/26
f 22/34/24 27/36/24 23/35/24
f 32/37/6 33/40/6 29/41/6
f 26/39/24 31/42/24 27/36/24
f 28/38/6 29/41/6 25/33/6
f 25/33/29 30/43/30 26/39/29
f 33/40/31 35/44/31 34/45/31
f 29/41/30 34/45/32 30/43/30
f 31/42/28 36/46/33 32/37/28
f 30/43/24 35/44/24 31/42/24
f 37/21/18 44/47/34 40/22/18
f 15/26/21 38/48/35 14/27/21
f 16/49/13 39/50/36 15/14/13
f 13/24/20 38/51/37 37/52/37
f 44/53/6 47/54/6 43/55/6
f 39/56/35 42/57/38 38/48/35
f 40/58/36 43/55/6 39/50/36
f 38/51/37 41/59/24 37/52/37
f 45/60/39 52/61/40 48/62/39
f 42/63/24 45/64/24 41/59/24
f 41/65/34 48/62/39 44/47/34
f 43/66/38 46/67/41 42/57/38
f 51/68/42 49/69/40 50/70/42
f 47/71/41 50/72/42 46/67/41
f 48/73/6 51/74/6 47/54/6
f 46/75/24 49/76/24 45/64/24
f 3/1/1 9/25/2 12/2/2
f 3/1/1 4/3/3 8/4/4
f 6/6/5 20/28/6 17/7/6
f 6/6/7 2/16/14 1/8/8
f 7/5/9 5/9/9 1/10/10
f 4/12/11 2/18/11 6/6/5
f 12/13/12 16/49/13 15/14/13
f 2/16/14 11/77/15 10/17/15
f 4/12/11 12/13/12 11/15/12
f 1/10/10 10/23/19 9/19/16
f 16/20/17 13/78/17 37/21/18
f 10/23/19 14/79/20 13/24/20
f 9/25/2 13/78/17 16/20/17
f 10/17/15 11/77/15 15/26/21
f 20/28/6 24/32/6 21/29/6
f 8/4/4 17/7/22 18/30/22
f 5/9/7 19/31/23 20/28/23
f 7/5/9 18/30/24 19/31/24
f 24/32/6 28/38/6 25/33/6
f 17/7/22 21/29/25 22/34/25
f 19/31/23 23/35/26 24/32/26
f 18/30/24 22/34/24 23/35/24
f 27/36/27 31/42/28 32/37/28
f 21/29/25 25/33/29 26/39/29
f 23/35/26 27/36/27 28/38/27
f 22/34/24 26/39/24 27/36/24
f 32/37/6 36/46/6 33/40/6
f 26/39/24 30/43/24 31/42/24
f 28/38/6 32/37/6 29/41/6
f 25/33/29 29/41/30 30/43/30
f 33/40/31 36/46/31 35/44/31
f 29/41/30 33/40/32 34/45/32
f 31/42/28 35/44/33 36/46/33
f 30/43/24 34/45/24 35/44/24
f 37/21/18 41/65/34 44/47/34
f 15/26/21 39/56/35 38/48/35
f 16/49/13 40/58/36 39/50/36
f 13/24/20 14/79/20 38/51/37
f 44/53/6 48/73/6 47/54/6
f 39/56/35 43/66/38 42/57/38
f 40/58/36 44/53/6 43/55/6
f 38/51/37 42/63/24 41/59/24
f 45/60/39 49/69/40 52/61/40
f 42/63/24 46/75/24 45/64/24
f 41/65/34 45/60/39 48/62/39
f 43/66/38 47/71/41 46/67/41
f 51/68/42 52/61/40 49/69/40
f 47/71/41 51/80/42 50/72/42
f 48/73/6 52/81/6 51/74/6
f 46/75/24 50/82/24 49/76/24
