# Blender v3.4.1 OBJ File: 'bike.blend'
# www.blender.org
o Seatpost_Cylinder.008
v 0.017459 0.344394 -0.225258
v 0.017459 0.535367 -0.270499
v 0.016130 0.345934 -0.218757
v 0.016130 0.536907 -0.263997
v 0.012345 0.347239 -0.213245
v 0.012345 0.538213 -0.258486
v 0.006681 0.348112 -0.209562
v 0.006681 0.539086 -0.254803
v 0.000000 0.348418 -0.208269
v 0.000000 0.539392 -0.253510
v -0.006681 0.348112 -0.209562
v -0.006681 0.539086 -0.254803
v -0.012345 0.347239 -0.213245
v -0.012345 0.538213 -0.258486
v -0.016130 0.345934 -0.218757
v -0.016130 0.536907 -0.263997
v -0.017459 0.344394 -0.225258
v -0.017459 0.535367 -0.270499
v -0.016130 0.342853 -0.231759
v -0.016130 0.533827 -0.277000
v -0.012345 0.341548 -0.237270
v -0.012345 0.532522 -0.282511
v -0.006681 0.340675 -0.240953
v -0.006681 0.531649 -0.286194
v 0.000000 0.340369 -0.242246
v 0.000000 0.531343 -0.287487
v 0.006681 0.340675 -0.240953
v 0.006681 0.531649 -0.286194
v 0.012345 0.341548 -0.237270
v 0.012345 0.532522 -0.282511
v 0.016130 0.342853 -0.231759
v 0.016130 0.533827 -0.277000
vt 1.000000 1.000000
vt 0.937500 0.500000
vt 1.000000 0.500000
vt 0.937500 1.000000
vt 0.875000 0.500000
vt 0.812500 1.000000
vt 0.812500 0.500000
vt 0.750000 0.500000
vt 0.687500 1.000000
vt 0.687500 0.500000
vt 0.625000 1.000000
vt 0.625000 0.500000
vt 0.562500 1.000000
vt 0.562500 0.500000
vt 0.500000 1.000000
vt 0.500000 0.500000
vt 0.437500 1.000000
vt 0.437500 0.500000
vt 0.375000 1.000000
vt 0.375000 0.500000
vt 0.312500 1.000000
vt 0.312500 0.500000
vt 0.250000 0.500000
vt 0.187500 1.000000
vt 0.187500 0.500000
vt 0.125000 1.000000
vt 0.125000 0.500000
vt 0.419706 0.419706
vt 0.080294 0.419706
vt 0.080294 0.080294
vt 0.062500 1.000000
vt 0.062500 0.500000
vt 0.000000 0.500000
vt 0.971731 0.341844
vt 0.841844 0.028269
vt 0.528269 0.158156
vt 0.875000 1.000000
vt 0.750000 1.000000
vt 0.250000 1.000000
vt 0.341844 0.471731
vt 0.250000 0.490000
vt 0.158156 0.471731
vt 0.028269 0.341844
vt 0.010000 0.250000
vt 0.028269 0.158156
vt 0.158156 0.028269
vt 0.250000 0.010000
vt 0.341844 0.028269
vt 0.419706 0.080294
vt 0.471731 0.158156
vt 0.490000 0.250000
vt 0.471731 0.341844
vt 0.000000 1.000000
vt 0.658156 0.471731
vt 0.750000 0.490000
vt 0.841844 0.471731
vt 0.919706 0.419706
vt 0.990000 0.250000
vt 0.971731 0.158156
vt 0.919706 0.080294
vt 0.750000 0.010000
vt 0.658156 0.028269
vt 0.580294 0.080294
vt 0.510000 0.250000
vt 0.528269 0.341844
vt 0.580294 0.419706
vn 1.0000 0.0000 0.0000
vn 0.9239 0.0882 0.3724
vn 0.7071 0.1630 0.6881
vn 0.3827 0.2130 0.8990
vn -0.0000 0.2305 0.9731
vn -0.3827 0.2130 0.8990
vn -0.7071 0.1630 0.6881
vn -0.9239 0.0882 0.3724
vn -1.0000 0.0000 0.0000
vn -0.9239 -0.0882 -0.3724
vn -0.7071 -0.1630 -0.6881
vn -0.3827 -0.2130 -0.8990
vn 0.0000 -0.2305 -0.9731
vn 0.3827 -0.2130 -0.8990
vn 0.7071 -0.1630 -0.6881
vn -0.0000 0.9731 -0.2305
vn 0.9239 -0.0882 -0.3724
vn 0.0000 -0.9731 0.2305
vn 0.0000 0.9731 -0.2306
vn -0.0000 0.9730 -0.2306
s 1
f 2/1/1 3/2/2 1/3/1
f 4/4/2 5/5/3 3/2/2
f 5/5/3 8/6/4 7/7/4
f 8/6/4 9/8/5 7/7/4
f 9/8/5 12/9/6 11/10/6
f 11/10/6 14/11/7 13/12/7
f 13/12/7 16/13/8 15/14/8
f 15/14/8 18/15/9 17/16/9
f 17/16/9 20/17/10 19/18/10
f 19/18/10 22/19/11 21/20/11
f 21/20/11 24/21/12 23/22/12
f 24/21/12 25/23/13 23/22/12
f 25/23/13 28/24/14 27/25/14
f 27/25/14 30/26/15 29/27/15
f 6/28/16 30/29/16 22/30/16
f 29/27/15 32/31/17 31/32/17
f 32/31/17 1/33/1 31/32/17
f 7/34/18 15/35/18 23/36/18
f 2/1/1 4/4/2 3/2/2
f 4/4/2 6/37/3 5/5/3
f 5/5/3 6/37/3 8/6/4
f 8/6/4 10/38/5 9/8/5
f 9/8/5 10/38/5 12/9/6
f 11/10/6 12/9/6 14/11/7
f 13/12/7 14/11/7 16/13/8
f 15/14/8 16/13/8 18/15/9
f 17/16/9 18/15/9 20/17/10
f 19/18/10 20/17/10 22/19/11
f 21/20/11 22/19/11 24/21/12
f 24/21/12 26/39/13 25/23/13
f 25/23/13 26/39/13 28/24/14
f 27/25/14 28/24/14 30/26/15
f 6/28/16 4/40/16 2/41/16
f 2/41/16 32/42/16 30/29/16
f 30/29/16 28/43/19 26/44/16
f 26/44/16 24/45/16 22/30/16
f 22/30/16 20/46/16 18/47/16
f 18/47/16 16/48/16 14/49/16
f 14/49/16 12/50/19 10/51/16
f 10/51/16 8/52/20 6/28/16
f 6/28/16 2/41/16 30/29/16
f 30/29/16 26/44/16 22/30/16
f 22/30/16 18/47/16 14/49/16
f 14/49/16 10/51/16 22/30/16
f 10/51/16 6/28/16 22/30/16
f 29/27/15 30/26/15 32/31/17
f 32/31/17 2/53/1 1/33/1
f 31/54/18 1/55/18 3/56/18
f 3/56/18 5/57/18 31/54/18
f 5/57/18 7/34/18 31/54/18
f 7/34/18 9/58/18 11/59/18
f 11/59/18 13/60/18 7/34/18
f 13/60/18 15/35/18 7/34/18
f 15/35/18 17/61/18 19/62/18
f 19/62/18 21/63/18 23/36/18
f 23/36/18 25/64/18 31/54/18
f 25/64/18 27/65/18 31/54/18
f 27/65/18 29/66/18 31/54/18
f 15/35/18 19/62/18 23/36/18
f 31/54/18 7/34/18 23/36/18
