# Blender v3.4.1 OBJ File: 'bike.blend'
# www.blender.org
o Seatpost_Cylinder.008
v -0.225258 0.344394 -0.017459
v -0.270499 0.535367 -0.017459
v -0.218757 0.345934 -0.016130
v -0.263997 0.536907 -0.016130
v -0.213245 0.347239 -0.012345
v -0.258486 0.538213 -0.012345
v -0.209562 0.348112 -0.006681
v -0.254803 0.539086 -0.006681
v -0.208269 0.348418 -0.000000
v -0.253510 0.539392 -0.000000
v -0.209562 0.348112 0.006681
v -0.254803 0.539086 0.006681
v -0.213245 0.347239 0.012345
v -0.258486 0.538213 0.012345
v -0.218757 0.345934 0.016130
v -0.263997 0.536907 0.016130
v -0.225258 0.344394 0.017459
v -0.270499 0.535367 0.017459
v -0.231759 0.342853 0.016130
v -0.277000 0.533827 0.016130
v -0.237270 0.341548 0.012345
v -0.282511 0.532522 0.012345
v -0.240953 0.340675 0.006681
v -0.286194 0.531649 0.006681
v -0.242246 0.340369 -0.000000
v -0.287487 0.531343 -0.000000
v -0.240953 0.340675 -0.006681
v -0.286194 0.531649 -0.006681
v -0.237270 0.341548 -0.012345
v -0.282511 0.532522 -0.012345
v -0.231759 0.342853 -0.016130
v -0.277000 0.533827 -0.016130
vt 1.000000 0.500000
vt 0.937500 1.000000
vt 0.937500 0.500000
vt 0.875000 0.500000
vt 0.875000 1.000000
vt 0.812500 0.500000
vt 0.812500 1.000000
vt 0.750000 0.500000
vt 0.750000 1.000000
vt 0.687500 0.500000
vt 0.687500 1.000000
vt 0.625000 0.500000
vt 0.625000 1.000000
vt 0.562500 0.500000
vt 0.500000 1.000000
vt 0.500000 0.500000
vt 0.437500 1.000000
vt 0.437500 0.500000
vt 0.375000 0.500000
vt 0.375000 1.000000
vt 0.312500 0.500000
vt 0.312500 1.000000
vt 0.250000 0.500000
vt 0.187500 1.000000
vt 0.187500 0.500000
vt 0.125000 0.500000
vt 0.080294 0.080294
vt 0.419706 0.080294
vt 0.419706 0.419706
vt 0.125000 1.000000
vt 0.062500 0.500000
vt 0.062500 1.000000
vt 0.000000 0.500000
vt 0.971731 0.341844
vt 0.841844 0.028269
vt 0.528269 0.158156
vt 1.000000 1.000000
vt 0.562500 1.000000
vt 0.250000 1.000000
vt 0.341844 0.471731
vt 0.250000 0.490000
vt 0.158156 0.471731
vt 0.080294 0.419706
vt 0.028269 0.341844
vt 0.010000 0.250000
vt 0.028269 0.158156
vt 0.158156 0.028269
vt 0.250000 0.010000
vt 0.341844 0.028269
vt 0.471731 0.158156
vt 0.490000 0.250000
vt 0.471731 0.341844
vt 0.000000 1.000000
vt 0.658156 0.471731
vt 0.750000 0.490000
vt 0.841844 0.471731
vt 0.919706 0.419706
vt 0.990000 0.250000
vt 0.971731 0.158156
vt 0.919706 0.080294
vt 0.750000 0.010000
vt 0.658156 0.028269
vt 0.580294 0.080294
vt 0.510000 0.250000
vt 0.528269 0.341844
vt 0.580294 0.419706
vn 0.0000 0.0000 -1.0000
vn 0.3724 0.0882 -0.9239
vn 0.6881 0.1630 -0.7071
vn 0.8990 0.2130 -0.3827
vn 0.9731 0.2305 0.0000
vn 0.8990 0.2130 0.3827
vn 0.6881 0.1630 0.7071
vn 0.3724 0.0882 0.9239
vn -0.0000 -0.0000 1.0000
vn -0.3724 -0.0882 0.9239
vn -0.6881 -0.1630 0.7071
vn -0.8990 -0.2130 0.3827
vn -0.9731 -0.2305 -0.0000
vn -0.8990 -0.2130 -0.3827
vn -0.6881 -0.1630 -0.7071
vn -0.2305 0.9731 -0.0000
vn -0.3724 -0.0882 -0.9239
vn 0.2305 -0.9731 -0.0000
vn -0.2305 0.9731 -0.0001
vn -0.2305 0.9731 0.0001
s 1
f 1/1/1 4/2/2 3/3/2
f 4/2/2 5/4/3 3/3/2
f 6/5/3 7/6/4 5/4/3
f 8/7/4 9/8/5 7/6/4
f 10/9/5 11/10/6 9/8/5
f 12/11/6 13/12/7 11/10/6
f 14/13/7 15/14/8 13/12/7
f 15/14/8 18/15/9 17/16/9
f 17/16/9 20/17/10 19/18/10
f 20/17/10 21/19/11 19/18/10
f 22/20/11 23/21/12 21/19/11
f 24/22/12 25/23/13 23/21/12
f 25/23/13 28/24/14 27/25/14
f 28/24/14 29/26/15 27/25/14
f 22/27/16 14/28/16 6/29/16
f 30/30/15 31/31/17 29/26/15
f 32/32/17 1/33/1 31/31/17
f 7/34/18 15/35/18 23/36/18
f 1/1/1 2/37/1 4/2/2
f 4/2/2 6/5/3 5/4/3
f 6/5/3 8/7/4 7/6/4
f 8/7/4 10/9/5 9/8/5
f 10/9/5 12/11/6 11/10/6
f 12/11/6 14/13/7 13/12/7
f 14/13/7 16/38/8 15/14/8
f 15/14/8 16/38/8 18/15/9
f 17/16/9 18/15/9 20/17/10
f 20/17/10 22/20/11 21/19/11
f 22/20/11 24/22/12 23/21/12
f 24/22/12 26/39/13 25/23/13
f 25/23/13 26/39/13 28/24/14
f 28/24/14 30/30/15 29/26/15
f 6/29/16 4/40/19 2/41/16
f 2/41/16 32/42/20 30/43/16
f 30/43/16 28/44/16 26/45/16
f 26/45/16 24/46/16 22/27/16
f 22/27/16 20/47/19 18/48/16
f 18/48/16 16/49/20 14/28/16
f 14/28/16 12/50/16 10/51/16
f 10/51/16 8/52/20 6/29/16
f 6/29/16 2/41/16 30/43/16
f 30/43/16 26/45/16 22/27/16
f 22/27/16 18/48/16 14/28/16
f 14/28/16 10/51/16 6/29/16
f 6/29/16 30/43/16 22/27/16
f 30/30/15 32/32/17 31/31/17
f 32/32/17 2/53/1 1/33/1
f 31/54/18 1/55/18 3/56/18
f 3/56/18 5/57/18 31/54/18
f 5/57/18 7/34/18 31/54/18
f 7/34/18 9/58/18 11/59/18
f 11/59/18 13/60/18 7/34/18
f 13/60/18 15/35/18 7/34/18
f 15/35/18 17/61/18 19/62/18
f 19/62/18 21/63/18 23/36/18
f 23/36/18 25/64/18 31/54/18
f 25/64/18 27/65/18 31/54/18
f 27/65/18 29/66/18 31/54/18
f 15/35/18 19/62/18 23/36/18
f 31/54/18 7/34/18 23/36/18
