# Blender v3.4.1 OBJ File: 'bike.blend'
# www.blender.org
o Seat_Cube.002
v -0.272911 0.522271 0.067573
v -0.272911 0.565134 0.067573
v -0.272911 0.522271 -0.067573
v -0.272911 0.565134 -0.067573
v -0.223527 0.523695 0.043779
v -0.223527 0.562148 0.043779
v -0.223527 0.523695 -0.043779
v -0.223527 0.562148 -0.043779
v -0.314380 0.522271 -0.080116
v -0.314380 0.522271 0.080116
v -0.314380 0.565134 0.080116
v -0.314380 0.565134 -0.080116
v -0.364475 0.520797 -0.091064
v -0.364475 0.520797 0.091064
v -0.364475 0.566608 0.091064
v -0.364475 0.566608 -0.091064
v -0.181346 0.562148 -0.023513
v -0.181346 0.523695 -0.023513
v -0.181346 0.523695 0.023513
v -0.181346 0.562148 0.023513
v -0.158667 0.562148 -0.019019
v -0.158667 0.523695 -0.019019
v -0.158667 0.523695 0.019019
v -0.158667 0.562148 0.019019
v -0.113161 0.562148 -0.019019
v -0.113161 0.523695 -0.019019
v -0.113161 0.523695 0.019019
v -0.113161 0.562148 0.019019
v -0.094678 0.562148 -0.015808
v -0.094678 0.523695 -0.015808
v -0.094678 0.523695 0.015808
v -0.094678 0.562148 0.015808
v -0.083119 0.562148 -0.008298
v -0.083119 0.523695 -0.008298
v -0.083119 0.523695 0.008298
v -0.083119 0.562148 0.008298
v -0.390077 0.521720 -0.087394
v -0.390077 0.521720 0.087394
v -0.390077 0.565685 0.087394
v -0.390077 0.565685 -0.087394
v -0.409104 0.521720 -0.075243
v -0.409104 0.521720 0.075243
v -0.409104 0.565685 0.075243
v -0.409104 0.565685 -0.075243
v -0.424617 0.521720 -0.054793
v -0.424617 0.521720 0.054793
v -0.424617 0.565685 0.054793
v -0.424617 0.565685 -0.054793
v -0.435505 0.521720 -0.024911
v -0.435505 0.521720 0.024911
v -0.435505 0.565685 0.024911
v -0.435505 0.565685 -0.024911
vt 0.375000 0.250000
vt 0.625000 0.250000
vt 0.625000 0.250000
vt 0.625000 0.500000
vt 0.375000 0.500000
vt 0.625000 0.750000
vt 0.625000 0.500000
vt 0.375000 1.000000
vt 0.375000 0.750000
vt 0.125000 0.750000
vt 0.125000 0.500000
vt 0.875000 0.500000
vt 0.875000 0.750000
vt 0.875000 0.500000
vt 0.875000 0.750000
vt 0.625000 1.000000
vt 0.375000 1.000000
vt 0.875000 0.750000
vt 0.875000 0.500000
vt 0.125000 0.750000
vt 0.125000 0.500000
vt 0.625000 0.250000
vt 0.375000 0.250000
vt 0.625000 0.250000
vt 0.125000 0.500000
vt 0.375000 0.250000
vt 0.625000 1.000000
vt 0.375000 1.000000
vt 0.625000 0.750000
vt 0.625000 0.500000
vt 0.375000 0.500000
vt 0.625000 0.750000
vt 0.375000 0.750000
vt 0.625000 0.500000
vt 0.375000 0.500000
vt 0.375000 0.750000
vt 0.375000 0.750000
vt 0.625000 0.750000
vt 0.625000 0.750000
vt 0.375000 0.500000
vt 0.625000 0.500000
vt 0.625000 0.750000
vt 0.625000 0.500000
vt 0.375000 0.750000
vt 0.375000 0.500000
vt 0.375000 0.750000
vt 0.375000 0.500000
vt 0.625000 0.250000
vt 0.625000 1.000000
vt 0.375000 1.000000
vt 0.875000 0.750000
vt 0.125000 0.750000
vt 0.125000 0.500000
vt 0.875000 0.750000
vt 0.875000 0.500000
vt 0.875000 0.750000
vt 0.625000 1.000000
vt 0.375000 1.000000
vt 0.875000 0.500000
vt 0.125000 0.750000
vt 0.125000 0.500000
vt 0.375000 0.250000
vt 0.625000 0.250000
vt 0.625000 0.250000
vt 0.125000 0.750000
vt 0.125000 0.500000
vt 0.375000 0.250000
vt 0.625000 1.000000
vt 0.375000 1.000000
vt 0.625000 0.000000
vt 0.375000 0.250000
vt 0.375000 0.000000
vt 0.625000 1.000000
vt 0.375000 1.000000
vt 0.875000 0.750000
vt 0.125000 0.500000
vt 0.375000 0.250000
vt 0.875000 0.500000
vt 0.125000 0.750000
vt 0.625000 1.000000
vt 0.875000 0.500000
vt 0.125000 0.750000
vn 0.3623 0.0000 -0.9321
vn 0.2514 0.0000 -0.9679
vn 0.3616 0.0000 -0.9323
vn 0.4336 0.0000 -0.9011
vn 0.0388 0.9992 0.0000
vn 0.0000 1.0000 0.0000
vn 0.4336 0.0000 0.9011
vn 0.3623 0.0000 0.9321
vn 0.0185 -0.9998 0.0000
vn 0.0108 -0.9999 0.0000
vn 0.0227 0.9997 0.0000
vn 0.0171 0.9999 0.0000
vn -0.0042 1.0000 0.0000
vn 0.3616 0.0000 0.9323
vn 0.2514 0.0000 0.9679
vn 0.0172 -0.9999 0.0000
vn 0.0368 0.0000 -0.9993
vn -0.3456 0.0000 -0.9384
vn -0.0042 -1.0000 0.0000
vn 0.0368 0.0000 0.9993
vn 0.3162 0.0000 -0.9487
vn 0.3162 0.0000 0.9487
vn 0.0000 -1.0000 0.0000
vn 0.0976 0.0000 -0.9952
vn 0.0976 0.0000 0.9952
vn 0.0859 0.0000 0.9963
vn 0.3654 0.0000 0.9308
vn 0.0859 0.0000 -0.9963
vn 0.3654 0.0000 -0.9308
vn 1.0000 0.0000 0.0000
vn 0.5448 0.0000 -0.8386
vn 0.5448 0.0000 0.8386
vn -0.6780 0.0000 -0.7350
vn -0.3456 0.0000 0.9384
vn -0.0227 0.9997 0.0000
vn -0.0227 -0.9997 0.0000
vn -0.6780 0.0000 0.7350
vn -0.8780 0.0000 -0.4787
vn -0.9848 0.0000 -0.1738
vn -0.8780 0.0000 0.4787
vn -0.9848 0.0000 0.1738
s 1
f 3/1/1 12/2/2 4/3/3
f 3/1/1 8/4/4 7/5/4
f 6/6/5 17/7/6 8/4/5
f 6/6/7 1/8/8 5/9/7
f 7/5/9 1/10/10 3/11/10
f 4/12/11 6/6/5 8/4/5
f 11/13/12 16/14/13 15/15/13
f 2/16/14 10/17/15 1/8/8
f 2/18/11 12/19/12 11/13/12
f 3/11/10 10/20/16 9/21/16
f 16/22/17 37/23/18 40/24/18
f 10/20/16 13/25/19 9/21/16
f 9/26/2 16/22/17 12/2/2
f 11/27/15 14/28/20 10/17/15
f 17/7/6 24/29/6 21/30/6
f 8/4/4 18/31/21 7/5/4
f 5/9/7 20/32/22 6/6/7
f 7/5/9 19/33/23 5/9/9
f 24/29/6 25/34/6 21/30/6
f 17/7/21 22/35/24 18/31/21
f 19/33/22 24/29/25 20/32/22
f 19/33/23 22/35/23 23/36/23
f 27/37/26 32/38/27 28/39/26
f 21/30/24 26/40/28 22/35/24
f 23/36/25 28/39/26 24/29/25
f 22/35/23 27/37/23 23/36/23
f 29/41/6 36/42/6 33/43/6
f 26/40/23 31/44/23 27/37/23
f 28/39/6 29/41/6 25/34/6
f 25/34/28 30/45/29 26/40/28
f 33/43/30 35/46/30 34/47/30
f 29/41/29 34/47/31 30/45/29
f 31/44/27 36/42/32 32/38/27
f 31/44/23 34/47/23 35/46/23
f 37/23/18 44/48/33 40/24/18
f 15/49/20 38/50/34 14/28/20
f 16/14/13 39/51/35 15/15/13
f 14/52/19 37/53/36 13/25/19
f 43/54/6 48/55/6 47/56/6
f 39/57/34 42/58/37 38/50/34
f 40/59/35 43/54/6 39/51/35
f 38/60/36 41/61/23 37/53/36
f 45/62/38 52/63/39 48/64/38
f 41/61/23 46/65/23 45/66/23
f 41/67/33 48/64/38 44/48/33
f 43/68/37 46/69/40 42/58/37
f 51/70/41 49/71/39 50/72/41
f 47/73/40 50/74/41 46/69/40
f 48/55/6 51/75/6 47/56/6
f 46/65/23 49/76/23 45/66/23
f 3/1/1 9/26/2 12/2/2
f 3/1/1 4/3/3 8/4/4
f 6/6/5 20/32/6 17/7/6
f 6/6/7 2/16/14 1/8/8
f 7/5/9 5/9/9 1/10/10
f 4/12/11 2/18/11 6/6/5
f 11/13/12 12/19/12 16/14/13
f 2/16/14 11/27/15 10/17/15
f 2/18/11 4/12/11 12/19/12
f 3/11/10 1/10/10 10/20/16
f 16/22/17 13/77/17 37/23/18
f 10/20/16 14/52/19 13/25/19
f 9/26/2 13/77/17 16/22/17
f 11/27/15 15/49/20 14/28/20
f 17/7/6 20/32/6 24/29/6
f 8/4/4 17/7/21 18/31/21
f 5/9/7 19/33/22 20/32/22
f 7/5/9 18/31/23 19/33/23
f 24/29/6 28/39/6 25/34/6
f 17/7/21 21/30/24 22/35/24
f 19/33/22 23/36/25 24/29/25
f 19/33/23 18/31/23 22/35/23
f 27/37/26 31/44/27 32/38/27
f 21/30/24 25/34/28 26/40/28
f 23/36/25 27/37/26 28/39/26
f 22/35/23 26/40/23 27/37/23
f 29/41/6 32/38/6 36/42/6
f 26/40/23 30/45/23 31/44/23
f 28/39/6 32/38/6 29/41/6
f 25/34/28 29/41/29 30/45/29
f 33/43/30 36/42/30 35/46/30
f 29/41/29 33/43/31 34/47/31
f 31/44/27 35/46/32 36/42/32
f 31/44/23 30/45/23 34/47/23
f 37/23/18 41/67/33 44/48/33
f 15/49/20 39/57/34 38/50/34
f 16/14/13 40/59/35 39/51/35
f 14/52/19 38/60/36 37/53/36
f 43/54/6 44/78/6 48/55/6
f 39/57/34 43/68/37 42/58/37
f 40/59/35 44/78/6 43/54/6
f 38/60/36 42/79/23 41/61/23
f 45/62/38 49/71/39 52/63/39
f 41/61/23 42/79/23 46/65/23
f 41/67/33 45/62/38 48/64/38
f 43/68/37 47/73/40 46/69/40
f 51/70/41 52/63/39 49/71/39
f 47/73/40 51/80/41 50/74/41
f 48/55/6 52/81/6 51/75/6
f 46/65/23 50/82/23 49/76/23
