# Blender v3.4.1 OBJ File: 'decoratives_and_entities.blend'
# www.blender.org
o Castle_Tower_Cube.035
v -0.600000 -1.000000 0.600000
v -0.600000 1.000000 0.600000
v -0.600000 -1.000000 -0.600000
v -0.600000 1.000000 -0.600000
v 0.600000 -1.000000 0.600000
v 0.600000 1.000000 0.600000
v 0.600000 -1.000000 -0.600000
v 0.600000 1.000000 -0.600000
v -0.546909 -1.142790 -0.546909
v -0.546909 -1.142790 0.546909
v 0.546909 -1.142790 -0.546909
v 0.546909 -1.142790 0.546909
vt 0.625000 0.000000
vt 0.375000 0.250000
vt 0.375000 0.000000
vt 0.625000 0.250000
vt 0.375000 0.500000
vt 0.625000 0.500000
vt 0.375000 0.750000
vt 0.625000 0.750000
vt 0.375000 1.000000
vt 0.375000 0.250000
vt 0.875000 0.500000
vt 0.375000 0.500000
vt 0.125000 0.750000
vt 0.125000 0.500000
vt 0.375000 0.000000
vt 0.375000 0.750000
vt 0.625000 1.000000
vt 0.875000 0.750000
vt 0.375000 1.000000
vn -1.0000 0.0000 0.0000
vn 0.0000 0.0000 -1.0000
vn 1.0000 0.0000 0.0000
vn 0.0000 0.0000 1.0000
vn 0.0000 -0.3485 -0.9373
vn 0.0000 1.0000 0.0000
vn 0.0000 -1.0000 0.0000
vn -0.9373 -0.3485 0.0000
vn 0.9373 -0.3485 0.0000
vn 0.0000 -0.3485 0.9373
s off
f 2/1/1 3/2/1 1/3/1
f 4/4/2 7/5/2 3/2/2
f 8/6/3 5/7/3 7/5/3
f 6/8/4 1/9/4 5/7/4
f 7/5/5 9/10/5 3/2/5
f 4/11/6 6/8/6 8/6/6
f 11/12/7 10/13/7 9/14/7
f 3/2/8 10/15/8 1/3/8
f 5/7/9 11/12/9 7/5/9
f 1/9/10 12/16/10 5/7/10
f 2/1/1 4/4/1 3/2/1
f 4/4/2 8/6/2 7/5/2
f 8/6/3 6/8/3 5/7/3
f 6/8/4 2/17/4 1/9/4
f 7/5/5 11/12/5 9/10/5
f 4/11/6 2/18/6 6/8/6
f 11/12/7 12/16/7 10/13/7
f 3/2/8 9/10/8 10/15/8
f 5/7/9 12/16/9 11/12/9
f 1/9/10 10/19/10 12/16/10
