# Blender v3.4.1 OBJ File: 'decoratives_and_entities.blend'
# www.blender.org
o Castle_Tower_Cube.035
v -0.600000 -1.000000 0.600000
v -0.600000 1.000000 0.600000
v -0.600000 -1.000000 -0.600000
v -0.600000 1.000000 -0.600000
v 0.600000 -1.000000 0.600000
v 0.600000 1.000000 0.600000
v 0.600000 -1.000000 -0.600000
v 0.600000 1.000000 -0.600000
v -0.546909 -1.142790 -0.546909
v -0.546909 -1.142790 0.546909
v 0.546909 -1.142790 -0.546909
v 0.546909 -1.142790 0.546909
v -0.600000 1.024204 0.600000
v -0.600000 1.024204 -0.600000
v 0.600000 1.024204 -0.600000
v 0.600000 1.024204 0.600000
v -0.617802 1.000000 0.618000
v -0.617802 1.000000 -0.618000
v 0.617802 1.000000 -0.618000
v 0.617802 1.000000 0.618000
v -0.617802 1.024204 0.618000
v -0.617802 1.024204 -0.618000
v 0.617802 1.024204 -0.618000
v 0.617802 1.024204 0.618000
v -0.582251 1.024204 0.582251
v -0.582251 1.024204 -0.582251
v 0.582251 1.024204 -0.582251
v 0.582251 1.024204 0.582251
v -0.582251 0.992322 0.582251
v -0.582251 0.992322 -0.582251
v 0.582251 0.992322 -0.582251
v 0.582251 0.992322 0.582251
vt 0.625000 0.000000
vt 0.375000 0.250000
vt 0.375000 0.000000
vt 0.625000 0.250000
vt 0.375000 0.500000
vt 0.625000 0.500000
vt 0.375000 0.750000
vt 0.625000 0.750000
vt 0.375000 1.000000
vt 0.375000 0.250000
vt 0.625000 0.750000
vt 0.375000 0.500000
vt 0.125000 0.750000
vt 0.125000 0.500000
vt 0.375000 0.000000
vt 0.375000 0.750000
vt 0.625000 0.750000
vt 0.875000 0.750000
vt 0.875000 0.750000
vt 0.625000 0.500000
vt 0.875000 0.500000
vt 0.875000 0.500000
vt 0.625000 0.750000
vt 0.625000 0.500000
vt 0.625000 0.250000
vt 0.625000 0.500000
vt 0.625000 0.000000
vt 0.625000 0.250000
vt 0.625000 1.000000
vt 0.625000 1.000000
vt 0.625000 1.000000
vt 0.875000 0.750000
vt 0.625000 0.750000
vt 0.875000 0.750000
vt 0.625000 0.500000
vt 0.875000 0.500000
vt 0.875000 0.500000
vt 0.625000 0.750000
vt 0.625000 0.500000
vt 0.375000 1.000000
vt 0.625000 0.000000
vn -1.0000 0.0000 0.0000
vn 0.0000 0.0000 -1.0000
vn 1.0000 0.0000 0.0000
vn 0.0000 0.0000 1.0000
vn 0.0000 -0.3485 -0.9373
vn 0.0000 -1.0000 0.0000
vn -0.9373 -0.3485 0.0000
vn 0.9373 -0.3485 0.0000
vn 0.0000 -0.3485 0.9373
vn 0.0000 1.0000 -0.0000
s off
f 2/1/1 3/2/1 1/3/1
f 4/4/2 7/5/2 3/2/2
f 8/6/3 5/7/3 7/5/3
f 6/8/4 1/9/4 5/7/4
f 7/5/5 9/10/5 3/2/5
f 8/6/6 20/11/6 6/8/6
f 11/12/6 10/13/6 9/14/6
f 3/2/7 10/15/7 1/3/7
f 5/7/8 11/12/8 7/5/8
f 1/9/9 12/16/9 5/7/9
f 16/17/10 25/18/10 13/19/10
f 15/20/10 22/21/10 14/22/10
f 13/19/10 24/23/10 16/17/10
f 4/4/6 19/24/6 8/6/6
f 18/25/2 23/26/2 19/24/2
f 19/24/3 24/23/3 20/11/3
f 17/27/1 22/28/1 18/25/1
f 20/11/4 21/29/4 17/30/4
f 2/1/6 18/25/6 4/4/6
f 16/17/10 23/26/10 15/20/10
f 6/8/6 17/30/6 2/31/6
f 14/22/10 21/32/10 13/19/10
f 28/33/2 29/34/2 25/18/2
f 14/22/10 27/35/10 15/20/10
f 15/20/10 28/33/10 16/17/10
f 13/19/10 26/36/10 14/22/10
f 30/37/10 32/38/10 31/39/10
f 26/36/4 31/39/4 27/35/4
f 27/35/1 32/38/1 28/33/1
f 25/18/3 30/37/3 26/36/3
f 2/1/1 4/4/1 3/2/1
f 4/4/2 8/6/2 7/5/2
f 8/6/3 6/8/3 5/7/3
f 6/8/4 2/31/4 1/9/4
f 7/5/5 11/12/5 9/10/5
f 8/6/6 19/24/6 20/11/6
f 11/12/6 12/16/6 10/13/6
f 3/2/7 9/10/7 10/15/7
f 5/7/8 12/16/8 11/12/8
f 1/9/9 10/40/9 12/16/9
f 16/17/10 28/33/10 25/18/10
f 15/20/10 23/26/10 22/21/10
f 13/19/10 21/32/10 24/23/10
f 4/4/6 18/25/6 19/24/6
f 18/25/2 22/28/2 23/26/2
f 19/24/3 23/26/3 24/23/3
f 17/27/1 21/41/1 22/28/1
f 20/11/4 24/23/4 21/29/4
f 2/1/6 17/27/6 18/25/6
f 16/17/10 24/23/10 23/26/10
f 6/8/6 20/11/6 17/30/6
f 14/22/10 22/21/10 21/32/10
f 28/33/2 32/38/2 29/34/2
f 14/22/10 26/36/10 27/35/10
f 15/20/10 27/35/10 28/33/10
f 13/19/10 25/18/10 26/36/10
f 30/37/10 29/34/10 32/38/10
f 26/36/4 30/37/4 31/39/4
f 27/35/1 31/39/1 32/38/1
f 25/18/3 29/34/3 30/37/3
