# Blender v3.4.1 OBJ File: 'decoratives_and_entities.blend'
# www.blender.org
o Low_Guard_Spear_Cube.018
v -0.150635 2.325934 0.055168
v -0.113370 2.701430 0.041520
v -0.150635 2.325934 -0.055168
v -0.113370 2.701430 -0.041520
v 0.150635 2.325934 0.055168
v 0.113370 2.701430 0.041520
v 0.150635 2.325934 -0.055168
v 0.113370 2.701430 -0.041520
v -0.004246 3.411629 0.001555
v -0.004246 3.411629 -0.001555
v 0.004246 3.411629 -0.001555
v 0.004246 3.411629 0.001555
v -0.123841 2.268502 -0.045355
v -0.123841 2.268502 0.045355
v 0.123841 2.268502 -0.045355
v 0.123841 2.268502 0.045355
v -0.069712 2.202006 -0.025531
v -0.069712 2.202006 0.025531
v 0.069712 2.202006 -0.025531
v 0.069712 2.202006 0.025531
v -0.000000 -2.998324 -0.077498
v 0.000000 2.039053 -0.146775
v 0.054800 -2.998324 -0.054800
v 0.103786 2.039053 -0.103786
v 0.077498 -2.998324 0.000000
v 0.146775 2.039053 0.000000
v 0.054800 -2.998324 0.054800
v 0.103786 2.039053 0.103786
v -0.000000 -2.998324 0.077498
v 0.000000 2.039053 0.146775
v -0.054800 -2.998324 0.054800
v -0.103786 2.039053 0.103786
v -0.077498 -2.998324 0.000000
v -0.146775 2.039053 0.000000
v -0.054800 -2.998324 -0.054800
v -0.103786 2.039053 -0.103786
v 0.135539 2.133133 -0.135539
v 0.000000 2.133133 -0.191681
v 0.191681 2.133133 -0.000000
v 0.135539 2.133133 0.135539
v 0.000000 2.133133 0.191681
v -0.135539 2.133133 0.135539
v -0.191681 2.133133 -0.000000
v -0.135539 2.133133 -0.135539
v 0.120968 2.192765 -0.120968
v 0.000000 2.192765 -0.171074
v 0.171074 2.192765 -0.000000
v 0.120968 2.192765 0.120968
v 0.000000 2.192765 0.171074
v -0.120968 2.192765 0.120968
v -0.171074 2.192765 -0.000000
v -0.120968 2.192765 -0.120968
vt 0.625000 0.000000
vt 0.375000 0.250000
vt 0.375000 0.000000
vt 0.625000 0.250000
vt 0.375000 0.500000
vt 0.625000 0.500000
vt 0.375000 0.750000
vt 0.625000 0.750000
vt 0.375000 1.000000
vt 0.375000 0.500000
vt 0.625000 1.000000
vt 0.625000 1.000000
vt 0.875000 0.500000
vt 0.625000 0.750000
vt 0.625000 0.500000
vt 0.625000 0.250000
vt 0.375000 1.000000
vt 0.375000 0.750000
vt 0.375000 0.750000
vt 0.375000 0.250000
vt 0.375000 0.000000
vt 0.375000 0.500000
vt 0.125000 0.750000
vt 0.125000 0.500000
vt 0.375000 0.250000
vt 0.375000 0.000000
vt 1.000000 1.000000
vt 0.875000 0.500000
vt 1.000000 0.500000
vt 0.875000 1.000000
vt 0.750000 0.500000
vt 0.750000 1.000000
vt 0.625000 0.500000
vt 0.625000 1.000000
vt 0.500000 0.500000
vt 0.500000 1.000000
vt 0.375000 0.500000
vt 0.375000 1.000000
vt 0.250000 0.500000
vt 0.750000 1.000000
vt 0.250000 1.000000
vt 0.125000 0.500000
vt 0.125000 1.000000
vt 0.000000 0.500000
vt 0.919706 0.080294
vt 0.580294 0.080294
vt 0.580294 0.419706
vt 0.375000 1.000000
vt 0.250000 1.000000
vt 0.250000 1.000000
vt 0.000000 1.000000
vt 0.125000 1.000000
vt 0.000000 1.000000
vt 0.875000 1.000000
vt 0.625000 1.000000
vt 0.500000 1.000000
vt 0.250000 0.490000
vt 0.010000 0.250000
vt 0.250000 0.010000
vt 0.500000 1.000000
vt 0.750000 1.000000
vt 0.125000 1.000000
vt 0.375000 1.000000
vt 0.625000 1.000000
vt 1.000000 1.000000
vt 0.875000 1.000000
vt 0.000000 1.000000
vt 0.875000 0.750000
vt 0.625000 0.000000
vt 0.375000 1.000000
vt 0.750000 0.490000
vt 0.919706 0.419706
vt 0.990000 0.250000
vt 0.750000 0.010000
vt 0.510000 0.250000
vt 0.490000 0.250000
vt 0.419706 0.419706
vt 0.080294 0.419706
vt 0.080294 0.080294
vt 0.419706 0.080294
vt 1.000000 1.000000
vn -0.9922 0.1246 0.0000
vn -0.9951 0.0988 0.0000
vn 0.0000 0.0454 -0.9990
vn 0.0000 -0.0533 -0.9986
vn 0.9922 0.1246 0.0000
vn 0.9951 0.0988 0.0000
vn 0.0000 0.0454 0.9990
vn 0.0000 -0.0533 0.9986
vn 0.9062 -0.4228 0.0000
vn 0.8554 -0.5180 0.0000
vn 0.0000 0.0562 0.9984
vn 0.0000 1.0000 0.0000
vn 0.0000 0.0562 -0.9984
vn 0.9884 0.1519 0.0000
vn -0.9884 0.1519 0.0000
vn 0.0000 -0.2053 0.9787
vn 0.0000 -0.2857 0.9583
vn 0.0000 -0.2053 -0.9787
vn -0.9062 -0.4228 0.0000
vn -0.8554 -0.5180 0.0000
vn 0.0000 -1.0000 0.0000
vn 0.0000 -0.2857 -0.9583
vn 0.7755 -0.6313 0.0000
vn -0.7755 -0.6313 0.0000
vn 0.3731 -0.2227 -0.9007
vn 0.3827 -0.0127 -0.9238
vn 0.9007 -0.2227 -0.3731
vn 0.9238 -0.0127 -0.3827
vn 0.9007 -0.2227 0.3731
vn 0.9238 -0.0127 0.3827
vn 0.3731 -0.2227 0.9007
vn 0.3827 -0.0127 0.9238
vn -0.3731 -0.2227 0.9007
vn -0.3827 -0.0127 0.9238
vn -0.9007 -0.2227 0.3731
vn -0.9238 -0.0127 0.3827
vn 0.8453 -0.4035 -0.3501
vn -0.9007 -0.2227 -0.3731
vn -0.9238 -0.0127 -0.3827
vn -0.3731 -0.2227 -0.9007
vn -0.3827 -0.0127 -0.9238
vn -0.8801 0.3041 0.3646
vn -0.3501 -0.4035 0.8453
vn -0.3501 -0.4035 -0.8453
vn 0.3501 -0.4035 -0.8453
vn 0.8453 -0.4035 0.3501
vn -0.8453 -0.4035 0.3501
vn 0.3501 -0.4035 0.8453
vn -0.8453 -0.4035 -0.3501
vn 0.3646 0.3041 0.8801
vn 0.8801 0.3041 -0.3646
vn -0.8801 0.3041 -0.3646
vn -0.3646 0.3041 0.8801
vn 0.8801 0.3041 0.3646
vn 0.3646 0.3041 -0.8801
vn -0.3646 0.3041 -0.8801
s 1
f 2/1/1 3/2/2 1/3/2
f 4/4/3 7/5/4 3/2/4
f 8/6/5 5/7/6 7/5/6
f 6/8/7 1/9/8 5/7/8
f 5/7/9 15/10/10 7/5/9
f 6/8/7 9/11/11 2/12/7
f 10/13/12 12/14/12 11/15/12
f 4/4/3 11/15/13 8/6/3
f 8/6/5 12/14/14 6/8/5
f 2/1/1 10/16/15 4/4/1
f 14/17/16 20/18/17 16/19/16
f 1/9/8 16/19/16 5/7/8
f 7/5/4 13/20/18 3/2/4
f 3/2/19 14/21/20 1/3/19
f 19/22/21 18/23/21 17/24/21
f 15/10/18 17/25/22 13/20/18
f 15/10/10 20/18/23 19/22/23
f 14/21/20 17/25/24 18/26/24
f 22/27/25 23/28/26 21/29/26
f 24/30/27 25/31/28 23/28/28
f 26/32/29 27/33/30 25/31/30
f 28/34/31 29/35/32 27/33/32
f 30/36/33 31/37/34 29/35/34
f 32/38/35 33/39/36 31/37/36
f 24/30/27 39/40/37 26/32/27
f 34/41/38 35/42/39 33/39/39
f 36/43/40 21/44/41 35/42/41
f 27/45/21 31/46/21 35/47/21
f 42/48/42 51/49/42 43/50/42
f 30/36/33 42/48/43 32/38/33
f 22/51/40 44/52/44 38/53/44
f 22/27/25 37/54/45 24/30/25
f 26/32/29 40/55/46 28/34/29
f 32/38/35 43/50/47 34/41/35
f 30/36/31 40/55/48 41/56/48
f 34/41/38 44/52/49 36/43/38
f 46/57/12 51/58/12 49/59/12
f 40/55/50 49/60/50 41/56/50
f 37/54/51 47/61/51 39/40/51
f 43/50/52 52/62/52 44/52/52
f 41/56/53 50/63/53 42/48/53
f 39/40/54 48/64/54 40/55/54
f 38/65/55 45/66/55 37/54/55
f 44/52/56 46/67/56 38/53/56
f 2/1/1 4/4/1 3/2/2
f 4/4/3 8/6/3 7/5/4
f 8/6/5 6/8/5 5/7/6
f 6/8/7 2/12/7 1/9/8
f 5/7/9 16/19/10 15/10/10
f 6/8/7 12/14/11 9/11/11
f 10/13/12 9/68/12 12/14/12
f 4/4/3 10/16/13 11/15/13
f 8/6/5 11/15/14 12/14/14
f 2/1/1 9/69/15 10/16/15
f 14/17/16 18/70/17 20/18/17
f 1/9/8 14/17/16 16/19/16
f 7/5/4 15/10/18 13/20/18
f 3/2/19 13/20/20 14/21/20
f 19/22/21 20/18/21 18/23/21
f 15/10/18 19/22/22 17/25/22
f 15/10/10 16/19/10 20/18/23
f 14/21/20 13/20/20 17/25/24
f 22/27/25 24/30/25 23/28/26
f 24/30/27 26/32/27 25/31/28
f 26/32/29 28/34/29 27/33/30
f 28/34/31 30/36/31 29/35/32
f 30/36/33 32/38/33 31/37/34
f 32/38/35 34/41/35 33/39/36
f 24/30/27 37/54/37 39/40/37
f 34/41/38 36/43/38 35/42/39
f 36/43/40 22/51/40 21/44/41
f 35/47/21 21/71/21 23/72/21
f 23/72/21 25/73/21 27/45/21
f 27/45/21 29/74/21 31/46/21
f 31/46/21 33/75/21 35/47/21
f 35/47/21 23/72/21 27/45/21
f 42/48/42 50/63/42 51/49/42
f 30/36/33 41/56/43 42/48/43
f 22/51/40 36/43/40 44/52/44
f 22/27/25 38/65/45 37/54/45
f 26/32/29 39/40/46 40/55/46
f 32/38/35 42/48/47 43/50/47
f 30/36/31 28/34/31 40/55/48
f 34/41/38 43/50/49 44/52/49
f 47/76/12 45/77/12 46/57/12
f 46/57/12 52/78/12 51/58/12
f 51/58/12 50/79/12 49/59/12
f 49/59/12 48/80/12 47/76/12
f 47/76/12 46/57/12 49/59/12
f 40/55/50 48/64/50 49/60/50
f 37/54/51 45/66/51 47/61/51
f 43/50/52 51/49/52 52/62/52
f 41/56/53 49/60/53 50/63/53
f 39/40/54 47/61/54 48/64/54
f 38/65/55 46/81/55 45/66/55
f 44/52/56 52/62/56 46/67/56
