# Blender v3.4.1 OBJ File: 'decoratives_and_entities.blend'
# www.blender.org
o Flag_Banner_Trim_Cylinder.020
v -0.000000 1.874219 -0.043257
v 0.000000 1.428614 -0.043257
v -0.000000 1.874219 -1.383304
v 0.001347 1.427999 -1.384706
v 0.000673 1.651109 -1.384005
v 0.001342 1.380455 -2.575398
v 0.000004 1.872790 -2.234651
v 0.001342 1.429425 -2.236041
v 0.001206 1.474643 -2.065630
v 0.001074 1.518437 -1.895225
v 0.000942 1.562231 -1.724820
v 0.000739 1.606974 -1.555517
v 0.001347 1.427999 -1.554974
v 0.001347 1.427999 -1.725242
v 0.001347 1.427999 -1.895510
v 0.001347 1.427999 -2.065779
v -0.000000 1.874219 -2.064377
v -0.000000 1.874219 -1.894109
v -0.000000 1.874219 -1.723841
v -0.000000 1.874219 -1.553572
v 0.000607 1.696181 -1.556788
v 0.000405 1.739985 -1.724263
v 0.000273 1.783777 -1.894394
v 0.000141 1.827569 -2.064525
v -0.000000 1.874219 -1.215798
v -0.000000 1.874219 -1.048293
v -0.000000 1.874219 -0.880787
v -0.000000 1.874219 -0.713281
v -0.000000 1.874219 -0.545775
v -0.000000 1.874219 -0.378269
v -0.000000 1.874219 -0.210763
v 0.000168 1.428537 -0.210938
v 0.000337 1.428460 -0.378619
v 0.000505 1.428383 -0.546301
v 0.000673 1.428307 -0.713982
v 0.000842 1.428230 -0.881663
v 0.001010 1.428153 -1.049344
v 0.001178 1.428076 -1.217025
v -0.000000 1.924219 -0.043257
v -0.000000 1.924219 -1.383304
v -0.000000 1.924219 -2.234645
v -0.000000 1.924219 -2.064377
v -0.000000 1.924219 -1.894109
v -0.000000 1.924219 -1.723841
v -0.000000 1.924219 -1.553572
v -0.000000 1.924219 -1.215798
v -0.000000 1.924219 -1.048293
v -0.000000 1.924219 -0.880787
v -0.000000 1.924219 -0.713281
v -0.000000 1.924219 -0.545775
v -0.000000 1.924219 -0.378269
v -0.000000 1.924219 -0.210763
v 0.000000 1.378614 -0.043257
v 0.001347 1.377999 -1.384706
v 0.001347 1.377999 -2.236047
v 0.001347 1.377999 -1.554974
v 0.001347 1.377999 -1.725242
v 0.001347 1.377999 -1.895510
v 0.001347 1.377999 -2.065779
v 0.000168 1.378537 -0.210938
v 0.000337 1.378460 -0.378619
v 0.000505 1.378383 -0.546301
v 0.000673 1.378307 -0.713982
v 0.000842 1.378230 -0.881663
v 0.001010 1.378153 -1.049344
v 0.001178 1.378076 -1.217025
v 0.001338 1.479759 -2.247959
v 0.001206 1.523553 -2.077554
v 0.001074 1.567347 -1.907148
v 0.000942 1.611140 -1.736743
v 0.000673 1.652873 -1.567550
v 0.000009 1.825981 -2.249287
v 0.000405 1.694605 -1.738894
v 0.000273 1.738397 -1.909025
v 0.000141 1.782189 -2.079156
v 0.000004 1.921885 -2.568223
vt 0.000000 0.000000
vt 0.000000 0.000000
vt 0.000000 0.000000
vt 0.000000 0.000000
vt 0.000000 0.000000
vt 0.000000 0.000000
vt 0.000000 0.000000
vt 0.000000 0.000000
vt 0.000000 0.000000
vt 0.000000 0.000000
vt 0.000000 0.000000
vt 0.000000 0.000000
vt 0.000000 0.000000
vt 0.000000 0.000000
vt 0.000000 0.000000
vt 0.000000 0.000000
vt 0.000000 0.000000
vt 0.000000 0.000000
vt 0.000000 0.000000
vt 0.000000 0.000000
vt 0.000000 0.000000
vt 0.000000 0.000000
vt 0.000000 0.000000
vt 0.000000 0.000000
vt 0.000000 0.000000
vt 0.000000 0.000000
vt 0.000000 0.000000
vt 0.000000 0.000000
vt 0.000000 0.000000
vt 0.000000 0.000000
vt 0.000000 0.000000
vt 0.000000 0.000000
vt 0.000000 0.000000
vt 0.000000 0.000000
vt 0.000000 0.000000
vt 0.000000 0.000000
vt 0.000000 0.000000
vt 0.000000 0.000000
vt 0.000000 0.000000
vt 0.000000 0.000000
vt 0.000000 0.000000
vt 0.000000 0.000000
vt 0.000000 0.000000
vt 0.000000 0.000000
vt 0.000000 0.000000
vt 0.000000 0.000000
vt 0.000000 0.000000
vt 0.000000 0.000000
vt 0.000000 0.000000
vt 0.000000 0.000000
vt 0.000000 0.000000
vt 0.000000 0.000000
vt 0.000000 0.000000
vt 0.000000 0.000000
vt 0.000000 0.000000
vt 0.000000 0.000000
vt 0.000000 0.000000
vt 0.000000 0.000000
vt 0.000000 0.000000
vt 0.000000 0.000000
vt 0.000000 0.000000
vt 0.000000 0.000000
vt 0.000000 0.000000
vt 0.000000 0.000000
vt 0.000000 0.000000
vt 0.000000 0.000000
vt 0.000000 0.000000
vt 0.000000 0.000000
vt 0.000000 0.000000
vt 0.000000 0.000000
vt 0.000000 0.000000
vt 0.000000 0.000000
vt 0.000000 0.000000
vt 0.000000 0.000000
vt 0.000000 0.000000
vt 0.000000 0.000000
vn 1.0000 0.0000 0.0000
vn 1.0000 0.0001 0.0000
vn 1.0000 0.0000 0.0010
vn 1.0000 0.0002 0.0007
vn 1.0000 0.0003 0.0007
vn 1.0000 0.0014 0.0000
vn 1.0000 0.0003 0.0011
vn 1.0000 0.0002 -0.0007
vn 1.0000 0.0017 -0.0008
vn 1.0000 0.0015 0.0000
vn 1.0000 0.0017 0.0012
vn 1.0000 0.0005 -0.0015
vn 1.0000 0.0003 -0.0007
s off
f 49/1/1 29/2/1 28/3/1
f 45/4/1 3/5/1 20/6/1
f 50/7/1 30/8/1 29/2/1
f 51/9/1 31/10/1 30/8/1
f 41/11/2 17/12/2 7/13/2
f 40/14/1 25/15/1 3/5/1
f 52/16/1 1/17/1 31/10/1
f 42/18/1 18/19/1 17/12/1
f 46/20/1 26/21/1 25/15/1
f 43/22/1 19/23/1 18/19/1
f 47/24/1 27/25/1 26/21/1
f 44/26/1 20/6/1 19/23/1
f 48/27/1 28/3/1 27/25/1
f 63/28/3 36/29/3 35/30/3
f 56/31/1 14/32/1 13/33/1
f 64/34/3 37/35/3 36/29/3
f 57/36/1 15/37/1 14/32/1
f 65/38/3 38/39/3 37/35/3
f 58/40/1 16/41/1 15/37/1
f 53/42/3 32/43/3 2/44/3
f 60/45/3 33/46/3 32/43/3
f 66/47/3 4/48/3 38/39/3
f 61/49/3 34/50/3 33/46/3
f 62/51/3 35/30/3 34/50/3
f 54/52/1 13/33/1 4/48/1
f 16/41/2 55/53/2 8/54/2
f 69/55/4 11/56/4 10/57/4
f 67/58/5 9/59/5 8/54/5
f 71/60/6 5/61/6 12/62/6
f 70/63/7 12/62/7 11/56/7
f 68/64/4 10/57/4 9/59/4
f 74/65/8 24/66/8 23/67/8
f 71/60/9 22/68/9 21/69/9
f 73/70/8 23/67/8 22/68/8
f 8/54/2 6/71/2 67/58/2
f 75/72/8 7/13/8 24/66/8
f 72/73/2 76/74/2 7/13/2
f 7/13/2 76/74/2 41/11/2
f 55/53/2 6/71/2 8/54/2
f 49/1/1 50/7/1 29/2/1
f 45/4/1 40/14/1 3/5/1
f 50/7/1 51/9/1 30/8/1
f 51/9/1 52/16/1 31/10/1
f 41/11/1 42/18/1 17/12/1
f 40/14/1 46/20/1 25/15/1
f 52/16/1 39/75/1 1/17/1
f 42/18/1 43/22/1 18/19/1
f 46/20/1 47/24/1 26/21/1
f 43/22/1 44/26/1 19/23/1
f 47/24/1 48/27/1 27/25/1
f 44/26/1 45/4/1 20/6/1
f 48/27/1 49/1/1 28/3/1
f 63/28/3 64/34/3 36/29/3
f 56/31/1 57/36/1 14/32/1
f 64/34/3 65/38/3 37/35/3
f 57/36/1 58/40/1 15/37/1
f 65/38/3 66/47/3 38/39/3
f 58/40/1 59/76/1 16/41/1
f 53/42/3 60/45/3 32/43/3
f 60/45/3 61/49/3 33/46/3
f 66/47/3 54/52/3 4/48/3
f 61/49/3 62/51/3 34/50/3
f 62/51/3 63/28/3 35/30/3
f 54/52/1 56/31/1 13/33/1
f 16/41/1 59/76/1 55/53/1
f 69/55/4 70/63/4 11/56/4
f 67/58/4 68/64/4 9/59/4
f 71/60/10 21/69/10 5/61/10
f 70/63/11 71/60/11 12/62/11
f 68/64/4 69/55/4 10/57/4
f 74/65/8 75/72/8 24/66/8
f 71/60/12 73/70/12 22/68/12
f 73/70/8 74/65/8 23/67/8
f 75/72/13 72/73/13 7/13/13
