# Blender v3.4.1 OBJ File: 'decoratives_and_entities.blend'
# www.blender.org
o Fairy_Left_Wing_Plane.006
v -1.264864 0.958966 -0.000000
v -0.729593 -0.153866 -0.000000
v -0.015972 0.473554 -0.000000
v -0.018823 -0.173991 0.000000
v -0.286662 0.744994 -0.000000
v -0.557351 0.924163 -0.000000
v -0.815678 1.026961 -0.000000
v -1.097928 1.057783 -0.000000
v -1.309057 0.789030 -0.000000
v -1.042871 0.584511 -0.000000
v -0.829760 0.330349 -0.000000
v -0.708686 0.024095 -0.000000
v -0.414214 -0.111343 -0.000000
v -0.204936 -0.139197 0.000000
v -0.155261 -0.150989 0.000000
v -0.072305 -0.161437 0.000000
v -0.015170 -0.024975 -0.000000
v -0.015170 0.245714 -0.000000
v -0.015170 0.244963 -0.000000
v -0.015170 0.336484 -0.000000
v -0.905539 0.800176 -0.000000
v -0.737033 0.814086 -0.000000
v -0.466344 0.634917 -0.000000
v -0.285860 0.607925 -0.000000
v -0.816818 0.570072 -0.000000
v -0.633023 0.543396 -0.000000
v -0.418045 0.517168 -0.000000
v -0.285860 0.516404 -0.000000
v -0.620483 0.258797 -0.000000
v -0.503037 0.245714 -0.000000
v -0.388645 0.245714 -0.000000
v -0.285860 0.245714 -0.000000
v -0.545356 0.060045 -0.000000
v -0.266877 -0.024975 -0.000000
v -0.152484 -0.024975 -0.000000
v -0.049699 -0.024975 -0.000000
v -0.861306 -0.790947 -0.000000
v -0.420583 -0.162380 -0.000000
v -0.208195 -0.795208 0.000000
v -0.358087 -0.810646 0.000000
v -0.490856 -0.890497 -0.000000
v -0.669372 -0.835478 -0.000000
v -0.836600 -0.847037 -0.000000
v -0.824533 -0.658209 -0.000000
v -0.785275 -0.542840 -0.000000
v -0.629303 -0.325239 -0.000000
v -0.528110 -0.218314 -0.000000
v -0.303509 -0.149299 0.000000
v -0.120664 -0.284424 0.000000
v -0.161922 -0.460499 0.000000
v -0.161866 -0.459964 0.000000
v -0.168722 -0.525053 0.000000
v -0.728531 -0.651140 -0.000000
v -0.669360 -0.779488 -0.000000
v -0.574078 -0.677542 -0.000000
v -0.381567 -0.697820 0.000000
v -0.689273 -0.535771 -0.000000
v -0.630043 -0.571735 -0.000000
v -0.567222 -0.612453 -0.000000
v -0.374711 -0.632732 0.000000
v -0.512398 -0.359755 -0.000000
v -0.466389 -0.398705 -0.000000
v -0.427532 -0.432521 0.000000
v -0.354433 -0.440221 0.000000
v -0.402514 -0.223655 -0.000000
v -0.320655 -0.249132 0.000000
v -0.239300 -0.257701 0.000000
v -0.166201 -0.265401 0.000000
vt 1.000000 0.800000
vt 0.800000 1.000000
vt 0.800000 0.800000
vt 0.200000 0.800000
vt 0.000000 1.000000
vt 0.000000 0.800000
vt 0.400000 0.800000
vt 0.200000 1.000000
vt 0.600000 1.000000
vt 0.400000 1.000000
vt 0.600000 0.800000
vt 0.000000 0.000000
vt 0.200000 0.200000
vt 0.000000 0.200000
vt 0.000000 0.400000
vt 0.200000 0.400000
vt 0.000000 0.600000
vt 0.200000 0.600000
vt 0.400000 0.000000
vt 0.200000 0.000000
vt 0.400000 0.200000
vt 0.400000 0.400000
vt 0.400000 0.600000
vt 0.600000 0.000000
vt 0.600000 0.200000
vt 0.600000 0.400000
vt 0.600000 0.600000
vt 0.800000 0.000000
vt 0.800000 0.200000
vt 0.800000 0.400000
vt 0.800000 0.600000
vt 1.000000 0.000000
vt 1.000000 0.200000
vt 1.000000 0.400000
vt 0.800000 1.000000
vt 0.800000 0.800000
vt 0.000000 1.000000
vt 0.200000 0.800000
vt 0.000000 0.800000
vt 0.200000 1.000000
vt 0.400000 0.800000
vt 0.600000 1.000000
vt 0.600000 0.800000
vt 0.000000 0.000000
vt 0.200000 0.200000
vt 0.200000 0.000000
vt 0.000000 0.200000
vt 0.200000 0.400000
vt 0.000000 0.600000
vt 0.000000 0.400000
vt 0.200000 0.600000
vt 0.400000 0.000000
vt 0.400000 0.400000
vt 0.400000 0.200000
vt 0.400000 0.600000
vt 0.600000 0.000000
vt 0.600000 0.200000
vt 0.600000 0.400000
vt 0.600000 0.600000
vt 0.800000 0.000000
vt 0.800000 0.200000
vt 0.800000 0.400000
vt 0.800000 0.600000
vt 1.000000 0.000000
vt 1.000000 0.200000
vt 1.000000 0.600000
vt 1.000000 1.000000
vt 0.400000 1.000000
vn -0.0000 0.0000 1.0000
vn 0.0000 0.0000 -1.0000
s off
f 16/1/1 17/2/1 36/3/1
f 24/4/1 3/5/1 5/6/1
f 28/7/1 20/8/1 24/4/1
f 28/7/2 18/9/2 19/10/2
f 36/3/1 18/9/1 32/11/1
f 1/12/1 21/13/1 8/14/1
f 21/13/1 7/15/1 8/14/1
f 22/16/1 6/17/1 7/15/1
f 23/18/1 5/6/1 6/17/1
f 10/19/1 21/13/1 9/20/1
f 25/21/1 22/16/1 21/13/1
f 26/22/1 23/18/1 22/16/1
f 27/23/1 24/4/1 23/18/1
f 11/24/1 25/21/1 10/19/1
f 29/25/1 26/22/1 25/21/1
f 30/26/1 27/23/1 26/22/1
f 31/27/1 28/7/1 27/23/1
f 12/28/1 29/25/1 11/24/1
f 33/29/1 30/26/1 29/25/1
f 34/30/1 31/27/1 30/26/1
f 35/31/1 32/11/1 31/27/1
f 2/32/1 33/29/1 12/28/1
f 13/33/1 34/30/1 33/29/1
f 14/34/1 35/31/1 34/30/1
f 35/31/1 16/1/1 36/3/1
f 49/35/1 16/1/1 68/36/1
f 39/37/1 56/38/1 40/39/1
f 52/40/1 60/41/1 56/38/1
f 60/41/1 50/42/1 64/43/1
f 50/42/1 68/36/1 64/43/1
f 37/44/1 53/45/1 44/46/1
f 43/47/1 54/48/1 53/45/1
f 41/49/1 54/48/1 42/50/1
f 41/49/1 56/38/1 55/51/1
f 53/45/1 45/52/1 44/46/1
f 53/45/1 58/53/1 57/54/1
f 55/51/1 58/53/1 54/48/1
f 56/38/1 59/55/1 55/51/1
f 57/54/1 46/56/1 45/52/1
f 58/53/1 61/57/1 57/54/1
f 59/55/1 62/58/1 58/53/1
f 60/41/1 63/59/1 59/55/1
f 61/57/1 47/60/1 46/56/1
f 62/58/1 65/61/1 61/57/1
f 63/59/1 66/62/1 62/58/1
f 64/43/1 67/63/1 63/59/1
f 65/61/1 38/64/1 47/60/1
f 66/62/1 48/65/1 65/61/1
f 67/63/1 14/34/1 66/62/1
f 68/36/1 15/66/1 67/63/1
f 16/1/1 4/67/1 17/2/1
f 24/4/1 20/8/1 3/5/1
f 28/7/1 19/10/1 20/8/1
f 28/7/1 32/11/1 18/9/1
f 36/3/1 17/2/1 18/9/1
f 1/12/1 9/20/1 21/13/1
f 21/13/1 22/16/1 7/15/1
f 22/16/1 23/18/1 6/17/1
f 23/18/1 24/4/1 5/6/1
f 10/19/1 25/21/1 21/13/1
f 25/21/1 26/22/1 22/16/1
f 26/22/1 27/23/1 23/18/1
f 27/23/1 28/7/1 24/4/1
f 11/24/1 29/25/1 25/21/1
f 29/25/1 30/26/1 26/22/1
f 30/26/1 31/27/1 27/23/1
f 31/27/1 32/11/1 28/7/1
f 12/28/1 33/29/1 29/25/1
f 33/29/1 34/30/1 30/26/1
f 34/30/1 35/31/1 31/27/1
f 35/31/1 36/3/1 32/11/1
f 2/32/1 13/33/1 33/29/1
f 13/33/1 14/34/1 34/30/1
f 14/34/1 15/66/1 35/31/1
f 35/31/1 15/66/1 16/1/1
f 49/35/1 4/67/1 16/1/1
f 39/37/1 52/40/1 56/38/1
f 52/40/1 51/68/1 60/41/1
f 60/41/2 51/68/2 50/42/2
f 50/42/1 49/35/1 68/36/1
f 37/44/1 43/47/1 53/45/1
f 43/47/1 42/50/1 54/48/1
f 41/49/1 55/51/1 54/48/1
f 41/49/1 40/39/1 56/38/1
f 53/45/1 57/54/1 45/52/1
f 53/45/1 54/48/1 58/53/1
f 55/51/1 59/55/1 58/53/1
f 56/38/1 60/41/1 59/55/1
f 57/54/1 61/57/1 46/56/1
f 58/53/1 62/58/1 61/57/1
f 59/55/1 63/59/1 62/58/1
f 60/41/1 64/43/1 63/59/1
f 61/57/1 65/61/1 47/60/1
f 62/58/1 66/62/1 65/61/1
f 63/59/1 67/63/1 66/62/1
f 64/43/1 68/36/1 67/63/1
f 65/61/1 48/65/1 38/64/1
f 66/62/1 14/34/1 48/65/1
f 67/63/1 15/66/1 14/34/1
f 68/36/1 16/1/1 15/66/1
