# Blender v3.4.1 OBJ File: 'decoratives_and_entities.blend'
# www.blender.org
o Fairy_Right_Wing_Plane.011
v 1.240227 0.999750 -0.000000
v 0.762151 -0.166087 -0.000000
v 0.015972 0.473554 -0.000000
v 0.018823 -0.173991 -0.000000
v 0.286662 0.744994 -0.000000
v 0.557351 0.924163 0.000195
v 0.815678 1.026961 -0.000000
v 1.029733 1.063201 0.000523
v 1.133956 0.750804 0.047708
v 0.961943 0.477458 -0.000000
v 0.832254 0.234258 0.080099
v 0.760552 0.025593 -0.000000
v 0.414214 -0.111343 0.000523
v 0.204936 -0.139197 -0.000000
v 0.155261 -0.150989 0.000195
v 0.072305 -0.161437 0.000232
v 0.015170 -0.024975 -0.000000
v 0.015170 0.245714 0.061190
v 0.015170 0.273785 0.054391
v 0.015072 0.386972 0.047708
v 0.872874 0.771575 0.048231
v 0.713878 0.753940 0.047708
v 0.469056 0.677518 0.047903
v 0.285860 0.607925 0.047708
v 0.816818 0.570072 0.000523
v 0.633023 0.543396 -0.000000
v 0.418045 0.517168 0.000195
v 0.245091 0.419887 -0.000000
v 0.620483 0.258797 0.080622
v 0.503037 0.245714 0.080099
v 0.388645 0.245714 0.080294
v 0.285860 0.245714 0.080099
v 0.545356 0.060045 0.000523
v 0.266877 -0.024975 -0.000000
v 0.152484 -0.024975 0.000195
v 0.049699 -0.024975 -0.000000
v 0.861306 -0.790947 -0.000000
v 0.420583 -0.162380 -0.000000
v 0.208195 -0.795208 -0.000000
v 0.358087 -0.810646 0.000232
v 0.490856 -0.890497 -0.000000
v 0.669372 -0.835478 -0.000000
v 0.836600 -0.847037 0.000149
v 0.824533 -0.658209 -0.000000
v 0.785275 -0.542840 0.058892
v 0.629303 -0.325239 -0.000000
v 0.528110 -0.218314 0.058892
v 0.303509 -0.149299 0.000149
v 0.120664 -0.284424 0.058892
v 0.161922 -0.460499 -0.000000
v 0.161866 -0.488007 0.002410
v 0.168722 -0.525053 -0.000000
v 0.728531 -0.651140 0.000149
v 0.656716 -0.673128 -0.000000
v 0.574078 -0.677542 -0.000000
v 0.381567 -0.697820 0.000232
v 0.689273 -0.535771 0.059041
v 0.621378 -0.539341 0.058892
v 0.562552 -0.554401 0.058892
v 0.370041 -0.574679 0.059124
v 0.512398 -0.359755 0.000149
v 0.466389 -0.398705 -0.000000
v 0.409844 -0.406328 -0.000000
v 0.319295 -0.420613 0.000232
v 0.402514 -0.223655 0.059041
v 0.320655 -0.249132 0.058892
v 0.239300 -0.257701 0.058892
v 0.166201 -0.265401 0.059124
v 1.148192 1.037656 0.000261
v 1.248049 0.921971 -0.000000
v 0.987083 0.746889 0.047969
v 0.967636 0.931689 0.000523
v 1.095326 0.911649 0.000261
v 1.240227 0.999750 -0.009993
v 0.762151 -0.166087 -0.009993
v 0.015972 0.473554 -0.009993
v 0.018823 -0.173991 -0.009993
v 0.286662 0.744994 -0.009993
v 0.557351 0.924163 -0.009798
v 0.815678 1.026961 -0.009993
v 1.029733 1.063201 -0.009470
v 1.133956 0.750804 0.037715
v 0.961943 0.477458 -0.009993
v 0.832254 0.234258 0.070106
v 0.760552 0.025593 -0.009993
v 0.414214 -0.111343 -0.009470
v 0.204936 -0.139197 -0.009993
v 0.155261 -0.150989 -0.009798
v 0.072305 -0.161437 -0.009761
v 0.015170 -0.024975 -0.009993
v 0.015170 0.245714 0.051197
v 0.015170 0.273785 0.044398
v 0.015072 0.386972 0.037715
v 0.872874 0.771575 0.038238
v 0.713878 0.753940 0.037715
v 0.469056 0.677518 0.037910
v 0.285860 0.607925 0.037715
v 0.816818 0.570072 -0.009470
v 0.633023 0.543396 -0.009993
v 0.418045 0.517168 -0.009798
v 0.245091 0.419887 -0.009993
v 0.620483 0.258797 0.070629
v 0.503037 0.245714 0.070106
v 0.388645 0.245714 0.070301
v 0.285860 0.245714 0.070106
v 0.545356 0.060045 -0.009470
v 0.266877 -0.024975 -0.009993
v 0.152484 -0.024975 -0.009798
v 0.049699 -0.024975 -0.009993
v 0.861306 -0.790947 -0.009993
v 0.420583 -0.162380 -0.009993
v 0.208195 -0.795208 -0.009993
v 0.358087 -0.810646 -0.009761
v 0.490856 -0.890497 -0.009993
v 0.669372 -0.835478 -0.009993
v 0.836600 -0.847037 -0.009844
v 0.824533 -0.658209 -0.009993
v 0.785275 -0.542840 0.048899
v 0.629303 -0.325239 -0.009993
v 0.528110 -0.218314 0.048899
v 0.303509 -0.149299 -0.009844
v 0.120664 -0.284424 0.048899
v 0.161922 -0.460499 -0.009993
v 0.161866 -0.488007 -0.007583
v 0.168722 -0.525053 -0.009993
v 0.728531 -0.651140 -0.009844
v 0.656716 -0.673128 -0.009993
v 0.574078 -0.677542 -0.009993
v 0.381567 -0.697820 -0.009761
v 0.689273 -0.535771 0.049048
v 0.621378 -0.539341 0.048899
v 0.562552 -0.554401 0.048899
v 0.370041 -0.574679 0.049131
v 0.512398 -0.359755 -0.009844
v 0.466389 -0.398705 -0.009993
v 0.409844 -0.406328 -0.009993
v 0.319295 -0.420613 -0.009761
v 0.402514 -0.223655 0.049048
v 0.320655 -0.249132 0.048899
v 0.239300 -0.257701 0.048899
v 0.166201 -0.265401 0.049131
v 1.148192 1.037656 -0.009732
v 1.248049 0.921971 -0.009993
v 0.987083 0.746889 0.037976
v 0.967636 0.931689 -0.009470
v 1.095326 0.911649 -0.009732
vt 1.000000 0.800000
vt 0.800000 0.800000
vt 0.800000 1.000000
vt 0.200000 0.800000
vt 0.000000 0.800000
vt 0.000000 1.000000
vt 0.400000 0.800000
vt 0.200000 1.000000
vt 0.600000 0.800000
vt 0.400000 1.000000
vt 0.600000 1.000000
vt 0.200000 0.100000
vt 0.100000 0.100000
vt 0.100000 0.200000
vt 0.200000 0.200000
vt 0.000000 0.400000
vt 0.200000 0.400000
vt 0.000000 0.600000
vt 0.200000 0.600000
vt 0.400000 0.200000
vt 0.400000 0.400000
vt 0.400000 0.600000
vt 0.600000 0.000000
vt 0.400000 0.000000
vt 0.600000 0.200000
vt 0.600000 0.400000
vt 0.600000 0.600000
vt 0.800000 0.000000
vt 0.800000 0.200000
vt 0.800000 0.400000
vt 0.800000 0.600000
vt 1.000000 0.000000
vt 1.000000 0.200000
vt 1.000000 0.400000
vt 0.800000 1.000000
vt 0.800000 0.800000
vt 0.000000 1.000000
vt 0.000000 0.800000
vt 0.200000 0.800000
vt 0.200000 1.000000
vt 0.400000 0.800000
vt 0.400000 1.000000
vt 0.600000 0.800000
vt 0.600000 1.000000
vt 0.000000 0.000000
vt 0.200000 0.000000
vt 0.200000 0.200000
vt 0.000000 0.400000
vt 0.000000 0.200000
vt 0.200000 0.400000
vt 0.200000 0.600000
vt 0.000000 0.600000
vt 0.400000 0.000000
vt 0.400000 0.200000
vt 0.400000 0.400000
vt 0.400000 0.600000
vt 0.600000 0.000000
vt 0.600000 0.200000
vt 0.600000 0.400000
vt 0.600000 0.600000
vt 0.800000 0.000000
vt 0.800000 0.200000
vt 0.800000 0.400000
vt 0.800000 0.600000
vt 1.000000 0.000000
vt 1.000000 0.200000
vt 1.000000 0.600000
vt 0.000000 0.100000
vt 0.000000 0.200000
vt 0.000000 0.000000
vt 0.200000 0.000000
vt 0.100000 0.000000
vt 0.800000 1.000000
vt 0.800000 0.800000
vt 1.000000 0.800000
vt 0.000000 1.000000
vt 0.000000 0.800000
vt 0.200000 0.800000
vt 0.200000 1.000000
vt 0.400000 0.800000
vt 0.400000 1.000000
vt 0.600000 0.800000
vt 0.600000 1.000000
vt 0.100000 0.200000
vt 0.100000 0.100000
vt 0.200000 0.100000
vt 0.000000 0.400000
vt 0.200000 0.200000
vt 0.000000 0.600000
vt 0.200000 0.400000
vt 0.200000 0.600000
vt 0.400000 0.000000
vt 0.400000 0.200000
vt 0.400000 0.400000
vt 0.400000 0.600000
vt 0.600000 0.000000
vt 0.600000 0.200000
vt 0.600000 0.400000
vt 0.600000 0.600000
vt 0.800000 0.000000
vt 0.800000 0.200000
vt 0.800000 0.400000
vt 0.800000 0.600000
vt 1.000000 0.000000
vt 1.000000 0.200000
vt 1.000000 0.400000
vt 1.000000 0.600000
vt 0.800000 0.800000
vt 0.800000 1.000000
vt 0.200000 0.800000
vt 0.000000 0.800000
vt 0.000000 1.000000
vt 0.400000 0.800000
vt 0.200000 1.000000
vt 0.600000 0.800000
vt 0.400000 1.000000
vt 0.600000 1.000000
vt 0.000000 0.000000
vt 0.000000 0.200000
vt 0.200000 0.200000
vt 0.000000 0.400000
vt 0.000000 0.600000
vt 0.200000 0.600000
vt 0.400000 0.000000
vt 0.200000 0.000000
vt 0.400000 0.200000
vt 0.200000 0.400000
vt 0.400000 0.400000
vt 0.600000 0.000000
vt 0.600000 0.200000
vt 0.600000 0.400000
vt 0.400000 0.600000
vt 0.600000 0.600000
vt 0.800000 0.000000
vt 0.800000 0.200000
vt 0.800000 0.400000
vt 0.800000 0.600000
vt 1.000000 0.000000
vt 1.000000 0.200000
vt 0.000000 0.200000
vt 0.000000 0.100000
vt 0.000000 0.000000
vt 0.100000 0.000000
vt 0.200000 0.000000
vt 1.000000 1.000000
vt 1.000000 1.000000
vn -0.0461 0.2052 0.9776
vn -0.0096 -0.1200 0.9927
vn -0.0005 -0.1112 0.9938
vn -0.0702 0.0522 0.9962
vn -0.1910 0.2971 0.9356
vn -0.3606 0.4304 0.8275
vn 0.0624 0.0579 0.9964
vn 0.0363 0.1236 0.9917
vn -0.0216 0.0742 0.9970
vn 0.0209 0.2222 0.9748
vn -0.0670 0.0038 0.9977
vn -0.0014 0.0220 0.9998
vn 0.0041 0.1458 0.9893
vn 0.0475 0.1333 0.9899
vn 0.0144 0.0166 0.9998
vn 0.0077 0.1515 0.9884
vn -0.0098 -0.0079 0.9999
vn -0.0927 0.2142 0.9724
vn -0.0278 -0.0123 0.9995
vn 0.0037 -0.0305 0.9995
vn 0.0063 0.0112 0.9999
vn 0.0258 -0.0433 0.9987
vn 0.0219 -0.0079 0.9997
vn 0.0456 0.0391 0.9982
vn -0.0145 -0.0327 0.9994
vn 0.0172 -0.0521 0.9985
vn -0.0207 0.0223 0.9995
vn -0.0224 -0.1782 0.9837
vn 0.0212 -0.2133 0.9768
vn 0.0105 -0.1388 0.9903
vn -0.0001 -0.1430 0.9897
vn 0.0019 -0.0005 1.0000
vn -0.0013 0.0009 1.0000
vn -0.0230 0.2148 0.9764
vn -0.0240 0.0631 0.9977
vn -0.0136 0.0999 0.9949
vn -0.0013 -0.0000 1.0000
vn 0.0001 -0.0000 1.0000
vn -0.0388 -0.1702 0.9847
vn -0.2478 -0.1437 0.9581
vn -0.1362 -0.1046 0.9851
vn -0.1508 0.0827 0.9851
vn -0.0126 -0.0039 0.9999
vn 0.0242 -0.0885 0.9958
vn 0.0025 0.0013 1.0000
vn -0.0120 -0.1842 0.9828
vn 0.0214 -0.2533 0.9671
vn -0.0006 -0.0002 1.0000
vn 0.0008 0.0004 1.0000
vn 0.0277 -0.1920 0.9810
vn 0.0232 -0.2161 0.9761
vn 0.0008 -0.0003 1.0000
vn -0.0165 -0.2443 0.9696
vn 0.0068 -0.0658 0.9978
vn -0.0029 -0.0370 0.9993
vn 0.0116 -0.0735 0.9972
vn 0.0093 0.0134 0.9999
vn 0.0241 -0.0858 0.9960
vn -0.0059 0.0495 0.9988
vn 0.0011 0.0039 1.0000
vn 0.0386 -0.1526 0.9875
vn 0.0203 0.2191 0.9755
vn -0.0092 0.0608 0.9981
vn -0.0069 0.0622 0.9980
vn 0.0304 0.6889 0.7242
vn 0.0138 0.5467 0.8372
vn -0.0357 0.2342 0.9715
vn 0.0022 -0.0009 1.0000
vn 0.0004 -0.0001 1.0000
vn 0.0020 -0.0004 1.0000
vn -0.0050 0.1408 0.9900
vn -0.0055 0.1066 0.9943
vn 0.0005 0.1112 -0.9938
vn 0.0096 0.1200 -0.9927
vn 0.0461 -0.2052 -0.9776
vn 0.3606 -0.4304 -0.8275
vn 0.1910 -0.2971 -0.9356
vn 0.0702 -0.0522 -0.9962
vn -0.0363 -0.1236 -0.9917
vn -0.0624 -0.0579 -0.9964
vn -0.0209 -0.2222 -0.9748
vn 0.0216 -0.0742 -0.9970
vn 0.0670 -0.0038 -0.9977
vn -0.0475 -0.1333 -0.9899
vn -0.0041 -0.1458 -0.9893
vn 0.0014 -0.0220 -0.9998
vn -0.0077 -0.1515 -0.9884
vn -0.0144 -0.0166 -0.9998
vn 0.0927 -0.2142 -0.9724
vn 0.0098 0.0079 -0.9999
vn 0.0278 0.0123 -0.9995
vn -0.0456 -0.0391 -0.9982
vn -0.0037 0.0305 -0.9995
vn -0.0063 -0.0112 -0.9999
vn -0.0258 0.0433 -0.9987
vn -0.0219 0.0079 -0.9997
vn 0.0145 0.0327 -0.9994
vn -0.0172 0.0521 -0.9985
vn 0.0207 -0.0223 -0.9995
vn 0.0224 0.1782 -0.9837
vn -0.0212 0.2133 -0.9768
vn -0.0105 0.1388 -0.9903
vn 0.0001 0.1430 -0.9897
vn -0.0019 0.0005 -1.0000
vn 0.0013 -0.0009 -1.0000
vn 0.0230 -0.2148 -0.9764
vn 0.0357 -0.2342 -0.9715
vn 0.0136 -0.0999 -0.9949
vn 0.0240 -0.0631 -0.9977
vn 0.0388 0.1702 -0.9847
vn -0.0001 0.0000 -1.0000
vn 0.0013 0.0000 -1.0000
vn 0.1362 0.1046 -0.9851
vn 0.2478 0.1437 -0.9581
vn 0.0126 0.0039 -0.9999
vn 0.1508 -0.0827 -0.9851
vn -0.0242 0.0885 -0.9958
vn -0.0025 -0.0013 -1.0000
vn -0.0008 -0.0004 -1.0000
vn -0.0214 0.2533 -0.9671
vn 0.0006 0.0002 -1.0000
vn -0.0008 0.0003 -1.0000
vn -0.0232 0.2161 -0.9761
vn 0.0165 0.2443 -0.9696
vn 0.0120 0.1842 -0.9828
vn -0.0068 0.0658 -0.9978
vn -0.0277 0.1920 -0.9810
vn 0.0029 0.0370 -0.9993
vn -0.0093 -0.0134 -0.9999
vn -0.0241 0.0858 -0.9960
vn 0.0059 -0.0495 -0.9988
vn -0.0116 0.0735 -0.9972
vn -0.0011 -0.0039 -1.0000
vn -0.0386 0.1526 -0.9875
vn -0.0203 -0.2191 -0.9755
vn 0.0092 -0.0608 -0.9981
vn 0.0069 -0.0622 -0.9980
vn -0.0304 -0.6889 -0.7242
vn -0.0138 -0.5467 -0.8372
vn -0.0004 0.0001 -1.0000
vn -0.0022 0.0009 -1.0000
vn -0.0020 0.0004 -1.0000
vn 0.0055 -0.1066 -0.9943
vn 0.0050 -0.1408 -0.9900
vn -0.0466 0.1805 0.9825
vn 0.0466 -0.1805 -0.9825
s 1
f 16/1/1 36/2/2 17/3/3
f 24/4/4 5/5/5 3/6/6
f 28/7/7 24/4/4 20/8/8
f 32/9/9 28/7/7 19/10/10
f 36/2/2 32/9/9 18/11/11
f 71/12/12 73/13/13 72/14/14
f 21/15/15 7/16/16 22/17/17
f 22/17/17 7/16/16 6/18/18
f 23/19/19 6/18/18 5/5/5
f 25/20/20 71/12/12 21/15/15
f 25/20/20 21/15/15 22/17/17
f 26/21/21 22/17/17 23/19/19
f 27/22/22 23/19/19 24/4/4
f 11/23/23 10/24/24 25/20/20
f 29/25/25 25/20/20 26/21/21
f 30/26/26 26/21/21 27/22/22
f 31/27/27 27/22/22 28/7/7
f 12/28/28 11/23/23 29/25/25
f 33/29/29 29/25/25 30/26/26
f 34/30/30 30/26/26 31/27/27
f 35/31/31 31/27/27 32/9/9
f 2/32/32 12/28/28 33/29/29
f 13/33/33 33/29/29 34/30/30
f 14/34/34 34/30/30 35/31/31
f 35/31/31 36/2/2 16/1/1
f 49/35/35 68/36/36 16/1/1
f 39/37/37 40/38/38 56/39/39
f 52/40/40 56/39/39 60/41/41
f 51/42/42 60/41/41 64/43/43
f 50/44/44 64/43/43 68/36/36
f 37/45/45 44/46/46 53/47/47
f 42/48/48 43/49/49 53/47/47
f 42/48/48 54/50/50 55/51/51
f 41/52/52 55/51/51 56/39/39
f 53/47/47 44/46/46 45/53/53
f 54/50/50 53/47/47 57/54/54
f 55/51/51 54/50/50 58/55/55
f 55/51/51 59/56/56 60/41/41
f 57/54/54 45/53/53 46/57/57
f 58/55/55 57/54/54 61/58/58
f 59/56/56 58/55/55 62/59/59
f 60/41/41 59/56/56 63/60/60
f 61/58/58 46/57/57 47/61/61
f 62/59/59 61/58/58 65/62/62
f 63/60/60 62/59/59 66/63/63
f 64/43/43 63/60/60 67/64/64
f 65/62/62 47/61/61 38/65/65
f 66/63/63 65/62/62 48/66/66
f 67/64/64 66/63/63 14/34/34
f 68/36/36 67/64/64 15/67/67
f 73/13/13 69/68/68 8/69/69
f 1/70/70 69/68/68 73/13/13
f 9/71/71 70/72/72 73/13/13
f 90/73/73 109/74/74 89/75/75
f 76/76/76 78/77/77 97/78/78
f 93/79/79 97/78/78 101/80/80
f 92/81/81 101/80/80 105/82/82
f 91/83/83 105/82/82 109/74/74
f 145/84/84 146/85/85 144/86/86
f 80/87/87 145/84/84 94/88/88
f 79/89/89 80/87/87 95/90/90
f 78/77/77 79/89/89 96/91/91
f 144/86/86 83/92/92 98/93/93
f 95/90/90 94/88/88 98/93/93
f 96/91/91 95/90/90 99/94/94
f 97/78/78 96/91/91 100/95/95
f 98/93/93 83/92/92 84/96/96
f 99/94/94 98/93/93 102/97/97
f 100/95/95 99/94/94 103/98/98
f 101/80/80 100/95/95 104/99/99
f 102/97/97 84/96/96 85/100/100
f 103/98/98 102/97/97 106/101/101
f 104/99/99 103/98/98 107/102/102
f 105/82/82 104/99/99 108/103/103
f 106/101/101 85/100/100 75/104/104
f 107/102/102 106/101/101 86/105/105
f 108/103/103 107/102/102 87/106/106
f 108/103/103 88/107/107 89/75/75
f 89/75/75 141/108/108 122/109/109
f 129/110/110 113/111/111 112/112/112
f 133/113/113 129/110/110 125/114/114
f 137/115/115 133/113/113 124/116/116
f 141/108/108 137/115/115 123/117/117
f 110/118/118 116/119/119 126/120/120
f 126/120/120 116/119/119 115/121/121
f 115/121/121 114/122/122 128/123/123
f 114/122/122 113/111/111 129/110/110
f 118/124/124 117/125/125 126/120/120
f 130/126/126 126/120/120 127/127/127
f 131/128/128 127/127/127 128/123/123
f 128/123/123 129/110/110 133/113/113
f 119/129/129 118/124/124 130/126/126
f 134/130/130 130/126/126 131/128/128
f 135/131/131 131/128/128 132/132/132
f 136/133/133 132/132/132 133/113/113
f 120/134/134 119/129/129 134/130/130
f 138/135/135 134/130/130 135/131/131
f 139/136/136 135/131/131 136/133/133
f 140/137/137 136/133/133 137/115/115
f 111/138/138 120/134/134 138/135/135
f 121/139/139 138/135/135 139/136/136
f 87/106/106 139/136/136 140/137/137
f 88/107/107 140/137/137 141/108/108
f 81/140/140 142/141/141 146/85/85
f 74/142/142 143/143/143 146/85/85
f 146/85/85 143/143/143 82/144/144
f 16/1/1 17/3/3 4/145/145
f 24/4/4 3/6/6 20/8/8
f 28/7/7 20/8/8 19/10/10
f 32/9/9 19/10/10 18/11/11
f 36/2/2 18/11/11 17/3/3
f 71/12/12 72/14/14 21/15/15
f 7/16/16 72/14/14 8/69/69
f 72/14/14 7/16/16 21/15/15
f 22/17/17 6/18/18 23/19/19
f 23/19/19 5/5/5 24/4/4
f 71/12/12 10/24/24 9/71/71
f 10/24/24 71/12/12 25/20/20
f 25/20/20 22/17/17 26/21/21
f 26/21/21 23/19/19 27/22/22
f 27/22/22 24/4/4 28/7/7
f 11/23/23 25/20/20 29/25/25
f 29/25/25 26/21/21 30/26/26
f 30/26/26 27/22/22 31/27/27
f 31/27/27 28/7/7 32/9/9
f 12/28/28 29/25/25 33/29/29
f 33/29/29 30/26/26 34/30/30
f 34/30/30 31/27/27 35/31/31
f 35/31/31 32/9/9 36/2/2
f 2/32/32 33/29/29 13/33/33
f 13/33/33 34/30/30 14/34/34
f 14/34/34 35/31/31 15/67/67
f 35/31/31 16/1/1 15/67/67
f 49/35/35 16/1/1 4/145/145
f 39/37/37 56/39/39 52/40/40
f 52/40/40 60/41/41 51/42/42
f 51/42/42 64/43/43 50/44/44
f 50/44/44 68/36/36 49/35/35
f 37/45/45 53/47/47 43/49/49
f 42/48/48 53/47/47 54/50/50
f 42/48/48 55/51/51 41/52/52
f 41/52/52 56/39/39 40/38/38
f 53/47/47 45/53/53 57/54/54
f 54/50/50 57/54/54 58/55/55
f 55/51/51 58/55/55 59/56/56
f 55/51/51 60/41/41 56/39/39
f 57/54/54 46/57/57 61/58/58
f 58/55/55 61/58/58 62/59/59
f 59/56/56 62/59/59 63/60/60
f 60/41/41 63/60/60 64/43/43
f 61/58/58 47/61/61 65/62/62
f 62/59/59 65/62/62 66/63/63
f 63/60/60 66/63/63 67/64/64
f 64/43/43 67/64/64 68/36/36
f 65/62/62 38/65/65 48/66/66
f 66/63/63 48/66/66 14/34/34
f 67/64/64 14/34/34 15/67/67
f 68/36/36 15/67/67 16/1/1
f 73/13/13 8/69/69 72/14/14
f 1/70/70 73/13/13 70/72/72
f 9/71/71 73/13/13 71/12/12
f 90/73/73 89/75/75 77/146/146
f 76/76/76 97/78/78 93/79/79
f 93/79/79 101/80/80 92/81/81
f 92/81/81 105/82/82 91/83/83
f 91/83/83 109/74/74 90/73/73
f 145/84/84 144/86/86 94/88/88
f 145/84/84 80/87/87 81/140/140
f 80/87/87 94/88/88 95/90/90
f 79/89/89 95/90/90 96/91/91
f 78/77/77 96/91/91 97/78/78
f 83/92/92 144/86/86 82/144/144
f 144/86/86 98/93/93 94/88/88
f 95/90/90 98/93/93 99/94/94
f 96/91/91 99/94/94 100/95/95
f 97/78/78 100/95/95 101/80/80
f 98/93/93 84/96/96 102/97/97
f 99/94/94 102/97/97 103/98/98
f 100/95/95 103/98/98 104/99/99
f 101/80/80 104/99/99 105/82/82
f 102/97/97 85/100/100 106/101/101
f 103/98/98 106/101/101 107/102/102
f 104/99/99 107/102/102 108/103/103
f 105/82/82 108/103/103 109/74/74
f 106/101/101 75/104/104 86/105/105
f 107/102/102 86/105/105 87/106/106
f 108/103/103 87/106/106 88/107/107
f 108/103/103 89/75/75 109/74/74
f 89/75/75 122/109/109 77/146/146
f 129/110/110 112/112/112 125/114/114
f 133/113/113 125/114/114 124/116/116
f 137/115/115 124/116/116 123/117/117
f 141/108/108 123/117/117 122/109/109
f 110/118/118 126/120/120 117/125/125
f 126/120/120 115/121/121 127/127/127
f 115/121/121 128/123/123 127/127/127
f 114/122/122 129/110/110 128/123/123
f 118/124/124 126/120/120 130/126/126
f 130/126/126 127/127/127 131/128/128
f 131/128/128 128/123/123 132/132/132
f 128/123/123 133/113/113 132/132/132
f 119/129/129 130/126/126 134/130/130
f 134/130/130 131/128/128 135/131/131
f 135/131/131 132/132/132 136/133/133
f 136/133/133 133/113/113 137/115/115
f 120/134/134 134/130/130 138/135/135
f 138/135/135 135/131/131 139/136/136
f 139/136/136 136/133/133 140/137/137
f 140/137/137 137/115/115 141/108/108
f 111/138/138 138/135/135 121/139/139
f 121/139/139 139/136/136 87/106/106
f 87/106/106 140/137/137 88/107/107
f 88/107/107 141/108/108 89/75/75
f 81/140/140 146/85/85 145/84/84
f 74/142/142 146/85/85 142/141/141
f 146/85/85 82/144/144 144/86/86
