# Blender v3.4.1 OBJ File: 'decoratives_and_entities.blend'
# www.blender.org
o Plane_Plane.025
v -0.055896 -0.038072 0.034828
v 0.055896 -0.038072 0.034828
v -0.055896 -0.038072 -0.139335
v 0.055896 -0.038072 -0.139335
v -0.055896 -0.046976 -0.169023
v 0.055896 -0.046976 -0.169023
v -0.055896 -0.057443 -0.136573
v -0.055896 -0.057443 0.037590
v 0.055896 -0.057443 0.037590
v 0.055896 -0.057443 -0.136573
v 0.055896 -0.066346 -0.166262
v -0.055896 -0.066346 -0.166262
v 0.055896 -0.065348 -0.199930
v -0.055896 -0.065348 -0.199930
v 0.055896 -0.082012 -0.189676
v -0.055896 -0.082012 -0.189676
v 0.055896 -0.108216 -0.235270
v -0.055896 -0.108216 -0.235270
v 0.055896 -0.117903 -0.210979
v -0.055896 -0.117903 -0.210979
v 0.055896 -0.200299 -0.258939
v -0.055896 -0.200299 -0.258939
v 0.055896 -0.202182 -0.228150
v -0.055896 -0.202182 -0.228150
v 0.055896 -3.697509 -0.258434
v -0.055896 -3.697509 -0.258434
v 0.055896 -3.697463 -0.227588
v -0.055896 -3.697463 -0.227588
vt 1.000000 0.000000
vt 0.000000 1.000000
vt 0.000000 0.000000
vt 1.000000 1.000000
vt 0.000000 1.000000
vt 0.000000 1.000000
vt 1.000000 0.000000
vt 0.000000 0.000000
vt 0.000000 1.000000
vt 1.000000 1.000000
vt 1.000000 1.000000
vt 1.000000 1.000000
vt 1.000000 1.000000
vt 1.000000 1.000000
vt 0.000000 1.000000
vt 1.000000 1.000000
vt 0.000000 1.000000
vt 1.000000 1.000000
vt 1.000000 1.000000
vt 0.000000 1.000000
vt 0.000000 1.000000
vt 0.000000 1.000000
vt 0.000000 1.000000
vt 0.000000 1.000000
vt 1.000000 1.000000
vt 1.000000 1.000000
vt 1.000000 1.000000
vt 0.000000 1.000000
vn 0.0000 1.0000 0.0000
vn 0.0000 0.9894 -0.1452
vn 0.0000 0.9156 -0.4021
vn 0.0000 -0.9894 0.1452
vn 0.0000 -1.0000 0.0000
vn 0.0000 -0.9045 0.4264
vn 1.0000 0.0000 0.0000
vn 0.0000 0.7591 -0.6510
vn -1.0000 0.0000 0.0000
vn 0.0000 0.1411 0.9900
vn 0.0000 -0.6878 0.7259
vn 0.0000 0.4534 -0.8913
vn 0.0000 -0.3601 0.9329
vn 0.0000 0.1254 -0.9921
vn 0.0000 -0.1002 0.9950
vn 0.0000 -1.0000 0.0015
vn 0.0000 0.0002 1.0000
vn 0.0000 -0.0001 -1.0000
s 1
f 2/1/1 3/2/2 1/3/1
f 4/4/2 5/5/3 3/2/2
f 7/6/4 9/7/5 8/8/5
f 12/9/6 10/10/4 7/6/4
f 10/10/7 6/11/7 4/4/7
f 13/12/8 5/5/3 6/11/3
f 2/1/7 10/10/7 4/4/7
f 7/6/9 1/3/9 3/2/9
f 5/5/9 7/6/9 3/2/9
f 8/8/10 2/1/10 1/3/10
f 15/13/7 17/14/7 13/12/7
f 16/15/11 11/16/6 12/9/6
f 14/17/9 12/9/9 5/5/9
f 11/16/7 13/12/7 6/11/7
f 23/18/7 17/14/7 19/19/7
f 17/14/12 14/17/8 13/12/8
f 18/20/9 16/15/9 14/17/9
f 20/21/13 15/13/11 16/15/11
f 26/22/9 24/23/9 22/24/9
f 21/25/14 18/20/12 17/14/12
f 18/20/9 24/23/9 20/21/9
f 24/23/15 19/19/13 20/21/13
f 27/26/16 26/22/16 25/27/16
f 28/28/17 23/18/15 24/23/15
f 23/18/7 25/27/7 21/25/7
f 25/27/18 22/24/14 21/25/14
f 2/1/1 4/4/2 3/2/2
f 4/4/2 6/11/3 5/5/3
f 7/6/4 10/10/4 9/7/5
f 12/9/6 11/16/6 10/10/4
f 10/10/7 11/16/7 6/11/7
f 13/12/8 14/17/8 5/5/3
f 2/1/7 9/7/7 10/10/7
f 7/6/9 8/8/9 1/3/9
f 5/5/9 12/9/9 7/6/9
f 8/8/10 9/7/10 2/1/10
f 15/13/7 19/19/7 17/14/7
f 16/15/11 15/13/11 11/16/6
f 14/17/9 16/15/9 12/9/9
f 11/16/7 15/13/7 13/12/7
f 23/18/7 21/25/7 17/14/7
f 17/14/12 18/20/12 14/17/8
f 18/20/9 20/21/9 16/15/9
f 20/21/13 19/19/13 15/13/11
f 26/22/9 28/28/9 24/23/9
f 21/25/14 22/24/14 18/20/12
f 18/20/9 22/24/9 24/23/9
f 24/23/15 23/18/15 19/19/13
f 27/26/16 28/28/16 26/22/16
f 28/28/17 27/26/17 23/18/15
f 23/18/7 27/26/7 25/27/7
f 25/27/18 26/22/18 22/24/14
