# Blender v3.4.1 OBJ File: 'station.blend'
# www.blender.org
o Antenna_4_Base_Cube.009
v -0.319853 -0.942347 -0.340151
v 0.319853 -0.942347 -0.340151
v -0.319853 -0.757352 -0.250522
v -0.319853 -0.846980 -0.340151
v 0.319853 -0.846980 -0.340151
v 0.319853 -0.757352 -0.250522
v -0.233595 -0.942347 0.299556
v -0.319853 -0.942347 0.213298
v -0.319853 -0.757352 0.213298
v -0.233595 -0.757352 0.299556
v 0.319853 -0.942347 0.213298
v 0.233595 -0.942347 0.299556
v 0.233595 -0.757352 0.299556
v 0.319853 -0.757352 0.213298
v -0.085344 -0.792283 0.131560
v -0.118198 -0.792283 0.098706
v -0.118198 0.313948 0.098706
v -0.085344 0.313948 0.131560
v -0.118198 -0.792283 -0.071983
v -0.085344 -0.792283 -0.104837
v -0.085344 0.313948 -0.104837
v -0.118198 0.313948 -0.071983
v 0.118198 -0.792283 0.098706
v 0.085344 -0.792283 0.131560
v 0.085344 0.313948 0.131560
v 0.118198 0.313948 0.098706
v 0.085344 -0.792283 -0.104837
v 0.118198 -0.792283 -0.071983
v 0.118198 0.313948 -0.071983
v 0.085344 0.313948 -0.104837
v -0.297665 -0.942059 -0.173727
v -0.297665 -0.867617 -0.173727
v -0.297665 -0.942059 -0.734529
v -0.134998 -0.942059 -0.173727
v -0.134998 -0.867617 -0.173727
v -0.134998 -0.942059 -0.734529
v 0.132779 -0.942059 -0.173727
v 0.132779 -0.867617 -0.173727
v 0.132779 -0.942059 -0.734529
v 0.295446 -0.942059 -0.173727
v 0.295446 -0.867617 -0.173727
v 0.295446 -0.942059 -0.734529
v -0.297665 -0.867617 -0.696841
v -0.297665 -0.905304 -0.734529
v -0.134998 -0.905304 -0.734529
v -0.134998 -0.867617 -0.696841
v 0.132779 -0.867617 -0.696841
v 0.132779 -0.905304 -0.734529
v 0.295446 -0.905304 -0.734529
v 0.295446 -0.867617 -0.696841
v -0.162579 -0.802211 0.175941
v -0.162579 -0.706011 0.175941
v -0.162579 -0.802211 -0.149218
v -0.162579 -0.706011 -0.149218
v 0.162579 -0.802211 0.175941
v 0.162579 -0.706011 0.175941
v 0.162579 -0.802211 -0.149218
v 0.162579 -0.706011 -0.149218
v -0.147428 -0.667967 0.160789
v -0.147428 -0.667967 -0.134066
v 0.147428 -0.667967 -0.134066
v 0.147428 -0.667967 0.160789
v -0.193269 -0.791935 0.062062
v -0.193269 -0.791935 -0.035339
v -0.075961 -0.791935 0.062062
v -0.075961 -0.075931 0.062062
v -0.075961 -0.791935 -0.035339
v -0.075961 -0.075931 -0.035339
v -0.158762 -0.075931 0.062062
v -0.193269 -0.110438 0.062062
v -0.193269 -0.110438 -0.035339
v -0.158762 -0.075931 -0.035339
v 0.000000 0.220002 -0.181973
v 0.000000 0.336190 -0.181973
v 0.169165 0.220002 -0.084306
v 0.169165 0.336190 -0.084306
v 0.169165 0.220002 0.111029
v 0.169165 0.336190 0.111029
v 0.000000 0.220002 0.208696
v 0.000000 0.336190 0.208696
v -0.169165 0.220002 0.111029
v -0.169165 0.336190 0.111029
v -0.169165 0.220002 -0.084306
v -0.169165 0.336190 -0.084306
vt 0.503877 0.250000
vt 0.375000 0.500000
vt 0.375000 0.250000
vt 0.341290 0.750000
vt 0.158710 0.750000
vt 0.125000 0.716290
vt 0.841290 0.750000
vt 0.658710 0.750000
vt 0.875000 0.535027
vt 0.625000 0.783710
vt 0.375000 0.966290
vt 0.375000 0.783710
vt 0.625000 0.500000
vt 0.625000 0.250000
vt 0.625000 0.535027
vt 0.625000 0.716290
vt 0.375000 0.716290
vt 0.625000 0.000000
vt 0.375000 0.033710
vt 0.375000 0.000000
vt 0.625000 0.214973
vt 0.625000 0.784745
vt 0.375000 0.965255
vt 0.375000 0.784745
vt 0.625000 0.534745
vt 0.375000 0.715255
vt 0.375000 0.534745
vt 0.659745 0.750000
vt 0.625000 0.715255
vt 0.875000 0.534745
vt 0.625000 0.034745
vt 0.375000 0.215255
vt 0.375000 0.034745
vt 0.625000 0.284745
vt 0.375000 0.465255
vt 0.375000 0.284745
vt 0.625000 0.000000
vt 0.375000 0.000000
vt 0.625000 0.215255
vt 0.625000 0.465255
vt 0.159745 0.750000
vt 0.125000 0.715255
vt 0.498433 0.250000
vt 0.375000 0.500000
vt 0.375000 0.250000
vt 0.625000 0.516801
vt 0.625000 0.750000
vt 0.375000 0.750000
vt 0.875000 0.516801
vt 0.625000 0.750000
vt 0.625000 0.516801
vt 0.375000 1.000000
vt 0.125000 0.750000
vt 0.125000 0.500000
vt 0.625000 0.233199
vt 0.498433 0.250000
vt 0.375000 0.500000
vt 0.375000 0.250000
vt 0.375000 0.750000
vt 0.375000 1.000000
vt 0.125000 0.750000
vt 0.125000 0.500000
vt 0.625000 0.233199
vt 0.625000 0.500000
vt 0.625000 0.250000
vt 0.625000 0.500000
vt 0.625000 0.250000
vt 0.875000 0.516801
vt 0.625000 0.000000
vt 0.375000 0.250000
vt 0.375000 0.000000
vt 0.625000 0.250000
vt 0.375000 0.500000
vt 0.625000 0.500000
vt 0.375000 0.750000
vt 0.625000 0.750000
vt 0.375000 1.000000
vt 0.125000 0.750000
vt 0.125000 0.500000
vt 0.625000 0.750000
vt 0.875000 0.500000
vt 0.625000 0.500000
vt 0.625000 0.250000
vt 0.625000 1.000000
vt 0.625000 1.000000
vt 0.801461 0.500000
vt 0.625000 0.750000
vt 0.625000 0.500000
vt 0.375000 0.750000
vt 0.375000 0.500000
vt 0.612952 0.000000
vt 0.375000 0.250000
vt 0.375000 0.000000
vt 0.125000 0.750000
vt 0.125000 0.500000
vt 0.612952 0.250000
vt 0.625000 0.250000
vt 0.625000 0.000000
vt 0.625000 0.926461
vt 0.612952 1.000000
vt 1.000000 1.000000
vt 0.833333 0.500000
vt 1.000000 0.500000
vt 0.833333 1.000000
vt 0.666667 0.500000
vt 0.666667 1.000000
vt 0.500000 0.500000
vt 0.500000 1.000000
vt 0.333333 0.500000
vt 0.250000 0.490000
vt 0.042154 0.130000
vt 0.457846 0.130000
vt 0.333333 1.000000
vt 0.166667 0.500000
vt 0.166667 1.000000
vt -0.000000 0.500000
vt 0.957846 0.370000
vt 0.750000 0.010000
vt 0.542154 0.370000
vt 0.503877 0.500000
vt 0.125000 0.500000
vt 0.875000 0.716290
vt 0.625000 0.966290
vt 0.625000 0.033710
vt 0.625000 0.965255
vt 0.659745 0.500000
vt 0.840255 0.500000
vt 0.875000 0.715255
vt 0.840255 0.750000
vt 0.125000 0.534745
vt 0.159745 0.500000
vt 0.340255 0.500000
vt 0.340255 0.750000
vt 0.498433 0.500000
vt 0.875000 0.750000
vt 0.625000 1.000000
vt 0.375000 0.000000
vt 0.625000 0.000000
vt 0.498433 0.500000
vt 0.625000 1.000000
vt 0.375000 0.000000
vt 0.625000 0.000000
vt 0.875000 0.750000
vt 0.875000 0.750000
vt 0.625000 0.000000
vt 0.801461 0.750000
vt 0.625000 0.323539
vt 0.375000 1.000000
vt 0.457846 0.370000
vt 0.042154 0.370000
vt 0.250000 0.010000
vt -0.000000 1.000000
vt 0.750000 0.490000
vt 0.957846 0.130000
vt 0.542154 0.130000
vn 0.0000 0.0000 -1.0000
vn 0.0000 -1.0000 -0.0000
vn 0.0000 1.0000 0.0000
vn 0.0000 0.0000 1.0000
vn 0.0000 0.7071 -0.7071
vn 1.0000 0.0000 0.0000
vn -0.7071 0.0000 0.7071
vn 0.7071 0.0000 0.7071
vn -1.0000 0.0000 0.0000
vn -0.7071 0.0000 -0.7071
vn 0.7071 0.0000 -0.7071
vn 0.9290 0.3700 0.0000
vn -0.9290 0.3700 0.0000
vn 0.0000 0.3700 0.9290
vn 0.0000 0.3700 -0.9290
vn -0.7071 0.7071 0.0000
vn 0.5000 0.0000 -0.8660
vn 0.5000 0.0000 0.8660
vn -0.5000 0.0000 0.8660
vn -0.5000 0.0000 -0.8660
s off
f 4/1/1 2/2/1 1/3/1
f 12/4/2 7/5/2 8/6/2
f 10/7/3 13/8/3 3/9/3
f 13/10/4 7/11/4 12/12/4
f 6/13/5 4/1/5 3/14/5
f 6/15/6 14/16/6 11/17/6
f 10/18/7 8/19/7 7/20/7
f 12/12/8 14/16/8 13/10/8
f 3/21/9 4/1/9 1/3/9
f 25/22/4 15/23/4 24/24/4
f 29/25/6 23/26/6 28/27/6
f 25/28/3 26/29/3 22/30/3
f 17/31/9 19/32/9 16/33/9
f 21/34/1 27/35/1 20/36/1
f 18/37/7 16/33/7 15/38/7
f 20/36/10 22/39/10 21/34/10
f 28/27/11 30/40/11 29/25/11
f 24/24/8 26/29/8 25/22/8
f 15/41/2 16/42/2 28/27/2
f 44/43/1 36/44/1 33/45/1
f 46/46/6 35/47/6 34/48/6
f 47/49/3 41/50/3 50/51/3
f 35/47/4 31/52/4 34/48/4
f 36/44/2 31/53/2 33/54/2
f 43/55/9 44/43/9 33/45/9
f 48/56/1 42/57/1 39/58/1
f 50/51/6 41/50/6 40/59/6
f 41/50/4 37/60/4 40/59/4
f 42/57/2 37/61/2 39/62/2
f 47/63/9 48/56/9 39/58/9
f 46/64/5 44/43/5 43/65/5
f 50/66/5 48/56/5 47/67/5
f 43/68/3 35/47/3 46/46/3
f 52/69/9 53/70/9 51/71/9
f 54/72/1 57/73/1 53/70/1
f 58/74/6 55/75/6 57/73/6
f 56/76/4 51/77/4 55/75/4
f 57/73/2 51/78/2 53/79/2
f 58/74/12 62/80/12 56/76/12
f 60/81/3 62/80/3 61/82/3
f 52/69/13 60/83/13 54/72/13
f 56/76/14 59/84/14 52/85/14
f 54/72/15 61/82/15 58/74/15
f 72/86/3 66/87/3 68/88/3
f 68/88/6 65/89/6 67/90/6
f 70/91/9 64/92/9 63/93/9
f 67/90/2 63/94/2 64/95/2
f 71/96/1 68/88/1 67/90/1
f 72/97/16 70/91/16 69/98/16
f 66/87/4 69/99/4 70/100/4
f 74/101/17 75/102/17 73/103/17
f 76/104/6 77/105/6 75/102/6
f 78/106/18 79/107/18 77/105/18
f 80/108/19 81/109/19 79/107/19
f 74/110/3 82/111/3 78/112/3
f 82/113/9 83/114/9 81/109/9
f 84/115/20 73/116/20 83/114/20
f 75/117/2 79/118/2 83/119/2
f 4/1/1 5/120/1 2/2/1
f 8/6/2 1/121/2 2/2/2
f 2/2/2 11/17/2 8/6/2
f 11/17/2 12/4/2 8/6/2
f 14/16/3 6/15/3 13/8/3
f 6/15/3 3/9/3 13/8/3
f 3/9/3 9/122/3 10/7/3
f 13/10/4 10/123/4 7/11/4
f 6/13/5 5/120/5 4/1/5
f 11/17/6 2/2/6 6/15/6
f 2/2/6 5/120/6 6/15/6
f 10/18/7 9/124/7 8/19/7
f 12/12/8 11/17/8 14/16/8
f 1/3/9 8/19/9 3/21/9
f 8/19/9 9/124/9 3/21/9
f 25/22/4 18/125/4 15/23/4
f 29/25/6 26/29/6 23/26/6
f 26/29/3 29/25/3 30/126/3
f 30/126/3 21/127/3 26/29/3
f 21/127/3 22/30/3 26/29/3
f 22/30/3 17/128/3 18/129/3
f 18/129/3 25/28/3 22/30/3
f 17/31/9 22/39/9 19/32/9
f 21/34/1 30/40/1 27/35/1
f 18/37/7 17/31/7 16/33/7
f 20/36/10 19/32/10 22/39/10
f 28/27/11 27/35/11 30/40/11
f 24/24/8 23/26/8 26/29/8
f 16/42/2 19/130/2 20/131/2
f 20/131/2 27/132/2 16/42/2
f 27/132/2 28/27/2 16/42/2
f 28/27/2 23/26/2 24/133/2
f 24/133/2 15/41/2 28/27/2
f 44/43/1 45/134/1 36/44/1
f 34/48/6 36/44/6 46/46/6
f 36/44/6 45/134/6 46/46/6
f 47/49/3 38/135/3 41/50/3
f 35/47/4 32/136/4 31/52/4
f 36/44/2 34/48/2 31/53/2
f 33/45/9 31/137/9 43/55/9
f 31/137/9 32/138/9 43/55/9
f 48/56/1 49/139/1 42/57/1
f 40/59/6 42/57/6 50/51/6
f 42/57/6 49/139/6 50/51/6
f 41/50/4 38/140/4 37/60/4
f 42/57/2 40/59/2 37/61/2
f 39/58/9 37/141/9 47/63/9
f 37/141/9 38/142/9 47/63/9
f 46/64/5 45/134/5 44/43/5
f 50/66/5 49/139/5 48/56/5
f 43/68/3 32/143/3 35/47/3
f 52/69/9 54/72/9 53/70/9
f 54/72/1 58/74/1 57/73/1
f 58/74/6 56/76/6 55/75/6
f 56/76/4 52/85/4 51/77/4
f 57/73/2 55/75/2 51/78/2
f 58/74/12 61/82/12 62/80/12
f 60/81/3 59/144/3 62/80/3
f 52/69/13 59/145/13 60/83/13
f 56/76/14 62/80/14 59/84/14
f 54/72/15 60/83/15 61/82/15
f 72/86/3 69/146/3 66/87/3
f 68/88/6 66/87/6 65/89/6
f 70/91/9 71/96/9 64/92/9
f 67/90/2 65/89/2 63/94/2
f 67/90/1 64/92/1 71/96/1
f 71/96/1 72/147/1 68/88/1
f 72/97/16 71/96/16 70/91/16
f 63/148/4 65/89/4 70/100/4
f 65/89/4 66/87/4 70/100/4
f 74/101/17 76/104/17 75/102/17
f 76/104/6 78/106/6 77/105/6
f 78/106/18 80/108/18 79/107/18
f 80/108/19 82/113/19 81/109/19
f 78/112/3 76/149/3 74/110/3
f 74/110/3 84/150/3 82/111/3
f 82/111/3 80/151/3 78/112/3
f 82/113/9 84/115/9 83/114/9
f 84/115/20 74/152/20 73/116/20
f 83/119/2 73/153/2 75/117/2
f 75/117/2 77/154/2 79/118/2
f 79/118/2 81/155/2 83/119/2
