# Blender v3.4.1 OBJ File: 'ship.blend'
# www.blender.org
o Fighter_Right_Wing_Core_Cube.048
v 0.665032 -0.032724 0.165547
v 0.665032 -0.032724 0.415403
v 0.665032 0.022958 0.415403
v 0.665032 0.028495 0.412439
v 0.954322 0.019375 0.333676
v 0.954322 0.013838 0.336644
v 0.665032 0.028495 0.168405
v 0.665032 0.022633 0.165547
v 0.954322 0.013513 0.161233
v 0.954322 0.019375 0.164091
v 0.954322 -0.003401 0.161233
v 0.934129 -0.024240 0.161534
v 0.934129 -0.024240 0.342142
v 0.954322 -0.003401 0.336644
v 0.662595 0.028173 0.369822
v 0.852742 0.022179 0.318052
v 0.852742 0.022179 0.206585
v 0.662595 0.028173 0.209421
v 0.828392 0.029339 0.314282
v 0.828392 0.029339 0.216837
v 0.661371 -0.032489 0.377304
v 0.849449 -0.026560 0.326101
v 0.661371 -0.032489 0.202675
v 0.849449 -0.026560 0.199870
v 0.660661 -0.037417 0.369128
v 0.831349 -0.032036 0.322658
v 0.660661 -0.037417 0.210643
v 0.831349 -0.032036 0.208098
v 0.669352 0.034353 0.357583
v 0.654974 0.034701 0.360764
v 0.662420 0.030779 0.365640
v 0.662164 0.028283 0.359325
v 0.654974 0.034701 0.219550
v 0.669352 0.034353 0.219209
v 0.662427 0.030674 0.213284
v 0.662163 0.028261 0.219380
v 0.560755 0.030255 0.430189
v 0.560755 0.024718 0.433151
v 0.560755 0.029892 0.387157
v 0.560755 -0.034484 0.433151
v 0.560755 -0.012689 0.433151
v 0.560755 -0.039103 0.386132
v 0.560755 0.036291 0.376802
v 0.560755 -0.034187 0.394430
v 0.560755 -0.034484 0.168930
v 0.560755 0.024393 0.168930
v 0.560755 0.029892 0.212725
v 0.560755 0.030255 0.171788
v 0.560755 -0.034187 0.205939
v 0.560755 0.036291 0.222607
v 0.560755 -0.039103 0.213885
vt 0.505503 0.162067
vt 0.506743 0.152438
vt 0.492288 0.153930
vt 0.505576 0.103973
vt 0.497137 0.103973
vt 0.506743 0.114086
vt 0.492221 0.103973
vt 0.492288 0.112487
vt 0.491179 0.114311
vt 0.491179 0.152183
vt 0.508187 0.116362
vt 0.506825 0.104624
vt 0.508187 0.150265
vt 0.506825 0.161439
vt 0.492221 0.162067
vt 0.375000 0.750000
vt 0.375000 0.500000
vt 0.375000 0.500000
vt 0.590902 0.500000
vt 0.601062 0.500000
vt 0.375000 0.750000
vt 0.375000 0.750000
vt 0.375000 0.750000
vt 0.602387 0.750000
vt 0.625000 0.745769
vt 0.592790 0.750000
vt 0.492518 0.750000
vt 0.375000 0.500000
vt 0.375000 0.500000
vt 0.625000 0.502720
vt 0.625000 0.502860
vt 0.625000 0.502860
vt 0.625000 0.747035
vt 0.602233 0.500000
vt 0.625000 0.504074
vt 0.492518 0.500000
vt 0.625000 0.745769
vt 0.625000 0.504074
vt 0.625000 0.745769
vt 0.625000 0.502912
vt 0.625000 0.747035
vt 0.625000 0.504074
vt 0.625000 0.746980
vt 0.625000 0.502652
vt 0.625000 0.502623
vt 0.625000 0.502843
vt 0.375000 0.500000
vt 0.375000 0.500000
vt 0.375000 0.750000
vt 0.375000 0.750000
vt 0.375000 0.750000
vt 0.375000 0.750000
vt 0.625000 0.746661
vt 0.625000 0.747035
vt 0.625000 0.747880
vt 0.625000 0.502970
vt 0.625000 0.502860
vt 0.625000 0.504122
vt 0.625000 0.747052
vt 0.375000 0.500000
vt 0.459089 0.750000
vt 0.625000 0.747181
vt 0.375000 0.500000
vt 0.375000 0.500000
vt 0.625000 0.747252
vt 0.375000 0.750000
vt 0.603493 0.750000
vt 0.625000 0.747282
vn 1.0000 0.0000 0.0000
vn 0.0278 -0.9996 -0.0022
vn 0.0815 -0.9967 0.0044
vn 0.0285 -0.9996 0.0025
vn -0.0076 0.2201 -0.9754
vn -0.0149 -0.0000 -0.9999
vn -0.0176 0.2256 -0.9741
vn 0.0218 -0.9997 -0.0083
vn 0.0156 -0.9998 -0.0077
vn 0.0228 -0.9997 -0.0084
vn 0.2132 0.2373 0.9477
vn 0.2148 -0.0000 0.9767
vn 0.2627 0.0000 0.9649
vn 0.0250 -0.9996 0.0088
vn 0.0238 -0.9997 0.0087
vn 0.0172 0.9998 0.0089
vn 0.0240 0.9997 0.0093
vn 0.0248 0.9996 0.0093
vn 0.2041 0.4619 0.8631
vn 0.2620 0.2404 0.9346
vn 0.2470 0.4578 0.8541
vn -0.0277 0.2281 -0.9732
vn -0.0109 0.4382 -0.8988
vn 0.0004 0.4383 -0.8989
vn 0.7182 -0.6959 0.0000
vn 0.0905 0.9959 -0.0043
vn 0.1724 0.9850 0.0000
vn 0.1539 0.9881 0.0000
vn 0.0079 0.8396 -0.5432
vn 0.0184 0.8396 -0.5428
vn 0.0215 0.9997 -0.0088
vn 0.0229 0.9997 -0.0089
vn 0.0810 0.9967 0.0046
vn 0.0286 0.9996 0.0024
vn 0.0279 0.9996 -0.0021
vn 0.0315 0.9995 0.0000
vn 0.1671 0.8399 0.5164
vn 0.1324 0.8437 0.5202
vn -0.0035 0.8394 -0.5436
vn 0.0089 -0.8508 -0.5254
vn 0.0190 -0.8511 -0.5246
vn 0.0074 -0.8508 -0.5255
vn 0.0912 -0.9958 -0.0042
vn 0.0243 -0.9997 0.0000
vn 0.1588 -0.9873 0.0000
vn 0.0231 -0.9997 0.0000
vn 0.1776 -0.9841 0.0000
vn 0.1298 -0.8542 0.5035
vn 0.1627 -0.8513 0.4989
vn 0.1008 -0.8560 0.5071
vn 0.1337 -0.8539 0.5030
vn -0.6534 0.7539 -0.0688
vn -0.6580 0.7414 -0.1317
vn -0.6592 0.7081 -0.2531
vn 0.6452 0.7524 -0.1324
vn 0.6502 0.7523 -0.1068
vn 0.5958 0.7383 -0.3160
vn 0.6656 0.7408 0.0905
vn 0.6620 0.7352 0.1455
vn 0.6391 0.7053 0.3068
vn -0.6402 0.7589 0.1196
vn -0.6431 0.7613 0.0827
vn -0.6196 0.7386 0.2655
vn -0.0238 0.0000 -0.9997
vn -0.0324 0.0000 -0.9995
vn 0.1678 -0.0000 0.9858
vn 0.1561 0.4659 0.8710
vn -0.0027 -0.8504 -0.5261
vn 0.0169 -0.9999 0.0000
vn 0.0169 0.9999 0.0000
vn 0.1361 0.8434 0.5198
vn 0.1033 0.8461 0.5229
vn 0.0171 -0.9998 0.0080
vn 0.0154 0.9998 -0.0084
vn -0.0218 0.4382 -0.8986
vn 0.0073 0.8395 -0.5432
vn 0.1669 0.2362 0.9573
s off
f 46/1/1 47/2/1 49/3/1
f 38/4/1 41/5/1 39/6/1
f 41/5/1 40/7/1 44/8/1
f 44/8/1 42/9/1 39/6/1
f 42/9/1 51/10/1 43/11/1
f 39/6/1 42/9/1 43/11/1
f 41/5/1 44/8/1 39/6/1
f 39/6/1 37/12/1 38/4/1
f 50/13/1 43/11/1 51/10/1
f 46/1/1 48/14/1 47/2/1
f 47/2/1 50/13/1 51/10/1
f 47/2/1 51/10/1 49/3/1
f 49/3/1 45/15/1 46/1/1
s 1
f 13/16/2 24/17/3 12/18/4
f 9/19/5 12/18/6 8/20/7
f 2/21/8 44/22/9 21/23/10
f 3/24/11 2/21/12 13/16/13
f 5/25/1 6/26/1 14/27/1
f 1/28/14 24/17/3 23/29/15
f 48/30/16 18/31/17 7/32/18
f 4/33/19 6/26/20 5/25/21
f 46/34/22 7/32/23 8/20/7
f 8/20/7 10/35/24 9/19/5
f 14/27/25 12/18/25 11/36/25
f 16/37/26 20/38/27 19/39/28
f 18/31/29 34/40/30 20/38/30
f 4/33/31 16/37/26 15/41/32
f 7/32/18 17/42/33 10/35/34
f 5/25/35 17/42/33 16/37/26
f 34/40/36 19/39/28 20/38/27
f 29/43/37 15/41/38 19/39/37
f 47/44/39 50/45/39 33/46/39
f 23/29/40 28/47/41 27/48/42
f 2/21/8 22/49/43 13/16/2
f 27/48/44 26/50/45 25/51/46
f 22/49/43 28/47/47 24/17/3
f 21/23/48 26/50/49 22/49/49
f 21/23/48 42/52/50 25/51/51
f 29/43/52 32/53/53 31/54/54
f 32/53/55 30/55/56 31/54/57
f 33/46/58 36/56/59 35/57/60
f 36/56/61 34/58/62 35/57/63
f 29/43/52 36/56/61 32/53/53
f 32/53/55 33/46/58 30/59/56
f 46/34/22 1/28/64 45/60/65
f 41/61/66 2/21/12 3/24/11
f 37/62/67 3/24/11 4/33/19
f 49/63/68 27/48/42 51/64/68
f 51/64/69 25/51/46 42/52/69
f 50/45/70 30/59/70 33/46/70
f 15/41/38 31/54/71 30/59/72
f 45/60/73 23/29/15 49/63/73
f 39/65/74 4/33/31 15/41/32
f 13/16/2 22/49/43 24/17/3
f 11/36/6 12/18/6 9/19/5
f 12/18/6 1/28/64 8/20/7
f 2/21/8 40/66/9 44/22/9
f 14/27/13 6/26/20 13/16/13
f 6/26/20 3/24/11 13/16/13
f 14/27/1 11/36/1 5/25/1
f 11/36/1 9/19/1 10/35/1
f 5/25/1 11/36/1 10/35/1
f 1/28/14 12/18/4 24/17/3
f 48/30/16 47/44/16 18/31/17
f 4/33/19 3/24/11 6/26/20
f 46/34/22 48/30/75 7/32/23
f 8/20/7 7/32/23 10/35/24
f 14/27/25 13/16/25 12/18/25
f 16/37/26 17/42/33 20/38/27
f 20/38/30 17/42/30 18/31/29
f 18/31/29 35/57/76 34/40/30
f 4/33/31 5/25/35 16/37/26
f 7/32/18 18/31/17 17/42/33
f 5/25/35 10/35/34 17/42/33
f 34/40/36 29/43/36 19/39/28
f 31/54/71 15/41/38 29/43/37
f 15/41/38 16/37/37 19/39/37
f 35/57/76 18/31/29 33/46/39
f 18/31/29 47/44/39 33/46/39
f 23/29/40 24/17/41 28/47/41
f 2/21/8 21/23/10 22/49/43
f 27/48/44 28/47/47 26/50/45
f 22/49/43 26/50/45 28/47/47
f 21/23/48 25/51/51 26/50/49
f 21/23/48 44/22/50 42/52/50
f 29/43/52 34/40/62 36/56/61
f 32/53/55 36/56/59 33/46/58
f 46/34/22 8/20/7 1/28/64
f 3/24/11 38/67/77 41/61/66
f 41/61/66 40/66/66 2/21/12
f 37/62/67 38/67/77 3/24/11
f 49/63/68 23/29/40 27/48/42
f 51/64/69 27/48/44 25/51/46
f 50/45/70 43/68/70 30/59/70
f 30/59/72 43/68/72 39/65/72
f 39/65/72 15/41/38 30/59/72
f 45/60/73 1/28/14 23/29/15
f 39/65/74 37/62/74 4/33/31
