# Blender v3.4.1 OBJ File: 'ship.blend'
# www.blender.org
o Fighter_Left_Wing_Core_Cube.047
v -0.665032 -0.032724 0.165547
v -0.665032 -0.032724 0.415403
v -0.665032 0.028495 0.412439
v -0.665032 0.022958 0.415403
v -0.954322 0.013838 0.336644
v -0.954322 0.019375 0.333676
v -0.665032 0.022633 0.165547
v -0.665032 0.028495 0.168405
v -0.954322 0.019375 0.164091
v -0.954322 0.013513 0.161233
v -0.934129 -0.024240 0.161534
v -0.954322 -0.003401 0.161233
v -0.954322 -0.003401 0.336644
v -0.934129 -0.024240 0.342142
v -0.662595 0.028173 0.209421
v -0.852742 0.022179 0.206585
v -0.662595 0.028173 0.369822
v -0.852742 0.022179 0.318052
v -0.828392 0.029339 0.216837
v -0.828392 0.029339 0.314282
v -0.661371 -0.032489 0.377304
v -0.849449 -0.026560 0.326101
v -0.661371 -0.032489 0.202675
v -0.849449 -0.026560 0.199870
v -0.660661 -0.037417 0.369128
v -0.831349 -0.032036 0.322658
v -0.660661 -0.037417 0.210643
v -0.831349 -0.032036 0.208098
v -0.669352 0.034353 0.219209
v -0.654974 0.034701 0.219550
v -0.662427 0.030674 0.213284
v -0.662163 0.028261 0.219380
v -0.654974 0.034701 0.360764
v -0.669352 0.034353 0.357583
v -0.662420 0.030779 0.365640
v -0.662164 0.028283 0.359325
v -0.560755 -0.034484 0.168930
v -0.560755 0.030255 0.171788
v -0.560755 0.024393 0.168930
v -0.560755 -0.034187 0.205939
v -0.560755 0.029892 0.212725
v -0.560755 -0.039103 0.213885
v -0.560755 0.036291 0.222607
v -0.560755 0.024718 0.433151
v -0.560755 0.030255 0.430189
v -0.560755 -0.034484 0.433151
v -0.560755 -0.034187 0.394430
v -0.560755 0.029892 0.387157
v -0.560755 -0.039103 0.386132
v -0.560755 0.036291 0.376802
vt 0.492288 0.153930
vt 0.505503 0.162067
vt 0.506743 0.152438
vt 0.506825 0.104624
vt 0.505576 0.103973
vt 0.506743 0.114086
vt 0.492221 0.103973
vt 0.492288 0.112487
vt 0.491179 0.114311
vt 0.491179 0.152183
vt 0.508187 0.116362
vt 0.508187 0.150265
vt 0.492221 0.162067
vt 0.506825 0.161439
vt 0.592790 1.000000
vt 0.375000 1.000000
vt 0.602387 1.000000
vt 0.625000 0.004231
vt 0.625000 0.245927
vt 0.625000 0.245927
vt 0.590902 0.250000
vt 0.492518 0.250000
vt 0.601062 0.250000
vt 0.375000 0.250000
vt 0.375000 0.250000
vt 0.625000 0.250000
vt 0.625000 0.250000
vt 0.625000 0.250000
vt 0.625000 1.000000
vt 0.625000 1.000000
vt 0.602233 0.250000
vt 0.625000 0.250000
vt 0.125000 0.500000
vt 0.125000 0.750000
vt 0.125000 0.500000
vt 0.625000 1.000000
vt 0.625000 1.000000
vt 0.625000 1.000000
vt 0.625000 0.004231
vt 0.625000 0.245927
vt 0.875000 0.502912
vt 0.875000 0.745769
vt 0.875000 0.746980
vt 0.625000 1.000000
vt 0.625000 1.000000
vt 0.625000 1.000000
vt 0.625000 1.000000
vt 0.625000 0.250000
vt 0.625000 0.250000
vt 0.125000 0.750000
vt 0.125000 0.500000
vt 0.125000 0.750000
vt 0.125000 0.750000
vt 0.125000 0.500000
vt 0.375000 0.250000
vt 0.375000 0.250000
vt 0.375000 0.250000
vt 0.375000 1.000000
vt 0.375000 1.000000
vt 0.375000 1.000000
vt 0.125000 0.500000
vt 0.375000 0.250000
vt 0.375000 0.250000
vt 0.375000 1.000000
vt 0.375000 1.000000
vt 0.375000 0.250000
vt 0.625000 0.250000
vt 0.625000 0.250000
vt 0.625000 0.250000
vt 0.875000 0.747035
vt 0.875000 0.746661
vt 0.875000 0.747035
vt 0.875000 0.502843
vt 0.875000 0.747052
vt 0.875000 0.502970
vt 0.375000 1.000000
vt 0.875000 0.502623
vt 0.875000 0.747282
vt 0.125000 0.500000
vt 0.125000 0.750000
vt 0.625000 1.000000
vt 0.603493 1.000000
vt 0.375000 1.000000
vt 0.375000 1.000000
vt 0.625000 0.250000
vt 0.625000 0.250000
vt 0.492518 1.000000
vt 0.492518 0.000000
vt 0.592790 0.000000
vt 0.625000 0.004231
vt 0.875000 0.504074
vt 0.625000 1.000000
vt 0.375000 0.250000
vt 0.125000 0.750000
vt 0.625000 0.250000
vn 1.0000 0.0000 0.0000
vn -0.2620 0.2404 0.9346
vn -0.2627 0.0000 0.9649
vn -0.2132 0.2373 0.9477
vn -0.0279 0.9996 -0.0021
vn -0.0810 0.9967 0.0046
vn -0.0286 0.9996 0.0024
vn -1.0000 -0.0000 0.0000
vn 0.0176 0.2256 -0.9741
vn 0.0238 0.0000 -0.9997
vn 0.0149 -0.0000 -0.9999
vn -0.0248 0.9996 0.0093
vn -0.0240 0.9997 0.0093
vn -0.2041 0.4619 0.8631
vn -0.2470 0.4578 0.8541
vn 0.0109 0.4382 -0.8988
vn 0.0277 0.2281 -0.9732
vn -0.0004 0.4383 -0.8988
vn -0.7182 -0.6959 0.0000
vn -0.0215 0.9997 -0.0088
vn -0.0154 0.9998 -0.0084
vn -0.0229 0.9997 -0.0089
vn -0.0905 0.9959 -0.0043
vn -0.1724 0.9850 0.0000
vn -0.0315 0.9995 0.0000
vn -0.1539 0.9881 0.0000
vn -0.1324 0.8437 0.5202
vn -0.1671 0.8399 0.5164
vn -0.1033 0.8461 0.5229
vn -0.0184 0.8396 -0.5428
vn -0.0079 0.8396 -0.5432
vn -0.0912 -0.9958 -0.0042
vn -0.1776 -0.9841 0.0000
vn -0.1588 -0.9873 0.0000
vn -0.0278 -0.9996 -0.0022
vn -0.0815 -0.9967 0.0044
vn -0.0250 -0.9996 0.0088
vn -0.0285 -0.9996 0.0025
vn -0.0171 -0.9998 0.0080
vn -0.0238 -0.9997 0.0087
vn -0.0218 -0.9997 -0.0083
vn -0.0228 -0.9997 -0.0084
vn -0.0243 -0.9997 0.0000
vn 0.0027 -0.8504 -0.5261
vn -0.0074 -0.8508 -0.5255
vn -0.0089 -0.8508 -0.5254
vn -0.1298 -0.8542 0.5035
vn -0.1627 -0.8513 0.4989
vn -0.1337 -0.8539 0.5030
vn -0.0190 -0.8511 -0.5246
vn 0.6431 0.7613 0.0827
vn 0.6402 0.7589 0.1196
vn 0.6196 0.7386 0.2655
vn -0.6620 0.7352 0.1455
vn -0.6656 0.7408 0.0905
vn -0.6391 0.7053 0.3068
vn -0.6502 0.7523 -0.1068
vn -0.6452 0.7524 -0.1324
vn -0.5958 0.7383 -0.3160
vn 0.6580 0.7414 -0.1317
vn 0.6534 0.7539 -0.0688
vn 0.6592 0.7081 -0.2531
vn -0.0156 -0.9998 -0.0077
vn 0.0324 0.0000 -0.9995
vn -0.0169 0.9999 0.0000
vn -0.0169 -0.9999 0.0000
vn -0.0231 -0.9997 0.0000
vn -0.1561 0.4659 0.8709
vn -0.1669 0.2362 0.9573
vn -0.1678 0.0000 0.9858
vn -0.2148 0.0000 0.9767
vn -0.1008 -0.8560 0.5071
vn -0.0172 0.9998 0.0089
vn -0.0073 0.8395 -0.5432
vn 0.0035 0.8394 -0.5436
vn 0.0076 0.2201 -0.9754
vn 0.0218 0.4382 -0.8986
vn -0.1361 0.8434 0.5198
s off
f 40/1/1 39/2/1 41/3/1
f 45/4/1 44/5/1 48/6/1
f 44/5/1 46/7/1 47/8/1
f 47/8/1 49/9/1 48/6/1
f 49/9/1 42/10/1 50/11/1
f 48/6/1 49/9/1 50/11/1
f 44/5/1 47/8/1 48/6/1
f 43/12/1 50/11/1 42/10/1
f 42/10/1 40/1/1 41/3/1
f 40/1/1 37/13/1 39/2/1
f 39/2/1 38/14/1 41/3/1
f 41/3/1 43/12/1 42/10/1
s 1
f 5/15/2 14/16/3 4/17/4
f 6/18/5 16/19/6 9/20/7
f 9/20/8 10/21/8 12/22/8
f 7/23/9 1/24/10 11/25/11
f 8/26/12 16/27/6 15/28/13
f 5/15/2 3/29/14 6/30/15
f 8/26/16 39/31/17 7/23/9
f 7/23/9 9/32/18 8/26/16
f 11/33/19 13/34/19 12/35/19
f 3/29/20 48/36/21 17/37/22
f 3/29/20 18/38/23 6/30/5
f 18/39/23 19/40/24 16/19/6
f 29/41/25 20/42/26 34/43/25
f 17/37/27 34/44/28 20/45/28
f 48/36/29 50/46/29 33/47/29
f 29/48/30 15/28/31 19/49/30
f 22/50/32 28/51/33 26/52/34
f 14/53/35 24/54/36 22/50/32
f 1/24/37 24/55/36 11/25/38
f 37/56/39 23/57/40 1/24/37
f 2/58/41 22/59/32 21/60/42
f 27/61/43 26/52/34 28/51/33
f 40/62/44 27/63/45 23/57/46
f 21/60/47 26/64/48 25/65/49
f 23/57/46 28/66/50 24/55/50
f 29/48/51 32/67/52 31/68/53
f 32/67/54 30/69/55 31/68/56
f 33/70/57 36/71/58 35/72/59
f 36/71/60 34/43/61 35/72/62
f 30/73/55 36/71/58 33/74/57
f 32/75/52 34/43/61 36/71/60
f 47/76/63 2/58/41 21/60/42
f 37/56/64 7/23/9 39/31/17
f 43/77/65 33/74/65 50/78/65
f 42/79/66 25/80/67 27/61/43
f 45/81/68 4/17/4 44/82/69
f 46/83/70 4/17/4 2/58/71
f 49/84/72 21/60/47 25/65/49
f 38/85/73 15/28/13 41/86/73
f 15/28/31 31/68/74 30/69/75
f 13/87/3 14/16/3 5/15/2
f 14/16/3 2/58/71 4/17/4
f 6/18/5 18/39/23 16/19/6
f 12/22/8 13/88/8 6/18/8
f 13/88/8 5/89/8 6/18/8
f 6/18/8 9/20/8 12/22/8
f 12/22/11 10/21/76 11/25/11
f 10/21/76 7/23/9 11/25/11
f 8/26/12 9/32/7 16/27/6
f 5/15/2 4/17/4 3/29/14
f 8/26/16 38/85/77 39/31/17
f 7/23/9 10/21/76 9/32/18
f 11/33/19 14/53/19 13/34/19
f 3/29/20 45/81/21 48/36/21
f 3/29/20 17/37/22 18/38/23
f 18/39/23 20/90/26 19/40/24
f 29/41/25 19/91/24 20/42/26
f 20/45/28 18/38/28 17/37/27
f 17/37/27 35/92/78 34/44/28
f 35/92/78 17/37/27 33/47/29
f 17/37/27 48/36/29 33/47/29
f 31/68/74 15/28/31 29/48/30
f 15/28/31 16/27/30 19/49/30
f 22/50/32 24/54/36 28/51/33
f 14/53/35 11/33/38 24/54/36
f 1/24/37 23/57/40 24/55/36
f 37/56/39 40/62/39 23/57/40
f 2/58/41 14/16/35 22/59/32
f 27/61/43 25/80/67 26/52/34
f 40/62/44 42/93/44 27/63/45
f 21/60/47 22/59/48 26/64/48
f 23/57/46 27/63/45 28/66/50
f 30/73/55 32/75/54 36/71/58
f 32/75/52 29/41/51 34/43/61
f 47/76/63 46/83/63 2/58/41
f 37/56/64 1/24/10 7/23/9
f 43/77/65 30/73/65 33/74/65
f 42/79/66 49/94/66 25/80/67
f 45/81/68 3/29/14 4/17/4
f 46/83/70 44/82/69 4/17/4
f 49/84/72 47/76/72 21/60/47
f 38/85/73 8/26/12 15/28/13
f 30/69/75 43/95/75 41/86/75
f 41/86/75 15/28/31 30/69/75
