# Blender v3.4.1 OBJ File: 'ship.blend'
# www.blender.org
o Fighter_Frame_Cube.014
v -0.467973 -0.073525 -0.050251
v -0.487707 -0.053791 -0.030517
v -0.467973 0.073525 -0.050251
v -0.487707 0.053791 -0.030517
v -0.467973 -0.073525 -0.458913
v -0.487707 -0.053791 -0.458913
v -0.487707 0.053791 -0.458913
v -0.467973 0.073525 -0.458913
v 0.458813 -0.073525 -0.050251
v 0.478547 -0.053791 -0.030517
v 0.458813 0.073525 -0.050251
v 0.478547 0.053791 -0.030517
v 0.478547 -0.053791 -0.458913
v 0.458813 -0.073525 -0.458913
v 0.458813 0.073525 -0.458913
v 0.478547 0.053791 -0.458913
v -0.549504 -0.086335 0.513816
v -0.572677 -0.063163 0.536988
v -0.549504 0.086335 0.513816
v -0.572677 0.063163 0.536988
v -0.549504 -0.086335 0.033957
v -0.572677 -0.063163 0.033957
v -0.572677 0.063163 0.033957
v -0.549504 0.086335 0.033957
v 0.538748 -0.086335 0.513816
v 0.561921 -0.063163 0.536988
v 0.538748 0.086335 0.513816
v 0.561921 0.063163 0.536988
v 0.561921 -0.063163 0.033957
v 0.538748 -0.086335 0.033957
v 0.538748 0.086335 0.033957
v 0.561921 0.063163 0.033957
v -0.441967 0.009650 0.717095
v -0.447549 0.015618 0.723063
v -0.441967 0.039390 0.717095
v -0.447549 0.033422 0.723063
v -0.441967 0.009650 0.036157
v -0.447549 0.015618 0.036157
v -0.447549 0.033422 0.036157
v -0.441967 0.039390 0.036157
v 0.441967 0.009650 0.717095
v 0.447549 0.015618 0.723063
v 0.441967 0.039390 0.717095
v 0.447549 0.033422 0.723063
v 0.447549 0.015618 0.036157
v 0.441967 0.009650 0.036157
v 0.441967 0.039390 0.036157
v 0.447549 0.033422 0.036157
v -0.441967 -0.040315 0.717095
v -0.447549 -0.034347 0.723063
v -0.441967 -0.010574 0.717095
v -0.447549 -0.016542 0.723063
v -0.441967 -0.040315 0.036157
v -0.447549 -0.034347 0.036157
v -0.447549 -0.016542 0.036157
v -0.441967 -0.010574 0.036157
v 0.441967 -0.040315 0.717095
v 0.447549 -0.034347 0.723063
v 0.441967 -0.010574 0.717095
v 0.447549 -0.016542 0.723063
v 0.447549 -0.034347 0.036157
v 0.441967 -0.040315 0.036157
v 0.441967 -0.010574 0.036157
v 0.447549 -0.016542 0.036157
vt 0.591450 0.750000
vt 0.408550 1.000000
vt 0.408550 0.750000
vt 0.591450 0.500000
vt 0.408550 0.500000
vt 0.869894 0.500000
vt 0.630106 0.738483
vt 0.630106 0.500000
vt 0.591450 0.000000
vt 0.408550 0.250000
vt 0.408550 0.000000
vt 0.375000 0.494894
vt 0.130106 0.738483
vt 0.125000 0.500000
vt 0.130106 0.500000
vt 0.625000 0.011517
vt 0.591450 0.250000
vt 0.369894 0.738484
vt 0.125000 0.750000
vt 0.625000 0.994894
vt 0.625000 0.755106
vt 0.369894 0.500000
vt 0.591450 0.750000
vt 0.408550 1.000000
vt 0.408550 0.750000
vt 0.591450 0.500000
vt 0.408550 0.500000
vt 0.869894 0.500000
vt 0.630106 0.738483
vt 0.630106 0.500000
vt 0.591450 0.000000
vt 0.408550 0.250000
vt 0.408550 0.000000
vt 0.375000 0.494894
vt 0.130106 0.738483
vt 0.125000 0.500000
vt 0.130106 0.500000
vt 0.625000 0.011517
vt 0.591450 0.250000
vt 0.369894 0.738484
vt 0.125000 0.750000
vt 0.625000 0.994894
vt 0.625000 0.755106
vt 0.369894 0.500000
vt 0.574832 0.750000
vt 0.425168 1.000000
vt 0.425168 0.750000
vt 0.574832 0.500000
vt 0.425168 0.500000
vt 0.873441 0.500000
vt 0.626559 0.747828
vt 0.626559 0.500000
vt 0.574832 0.000000
vt 0.425168 0.250000
vt 0.425168 0.000000
vt 0.375000 0.498441
vt 0.126559 0.747828
vt 0.125000 0.500000
vt 0.126559 0.500000
vt 0.625000 0.002172
vt 0.574832 0.250000
vt 0.373441 0.747828
vt 0.125000 0.750000
vt 0.625000 0.998441
vt 0.625000 0.751559
vt 0.373441 0.500000
vt 0.574832 0.750000
vt 0.425168 1.000000
vt 0.425168 0.750000
vt 0.574832 0.500000
vt 0.425168 0.500000
vt 0.873441 0.500000
vt 0.626559 0.747828
vt 0.626559 0.500000
vt 0.574832 0.000000
vt 0.425168 0.250000
vt 0.425168 0.000000
vt 0.375000 0.498441
vt 0.126559 0.747828
vt 0.125000 0.500000
vt 0.126559 0.500000
vt 0.625000 0.002172
vt 0.574832 0.250000
vt 0.373441 0.747828
vt 0.125000 0.750000
vt 0.625000 0.998441
vt 0.625000 0.751559
vt 0.373441 0.500000
vt 0.591450 1.000000
vt 0.869894 0.738484
vt 0.375000 0.255106
vt 0.625000 0.255106
vt 0.625000 0.494894
vt 0.625000 0.250000
vt 0.375000 0.750000
vt 0.591450 1.000000
vt 0.869894 0.738484
vt 0.375000 0.255106
vt 0.625000 0.255106
vt 0.625000 0.494894
vt 0.625000 0.250000
vt 0.375000 0.750000
vt 0.574832 1.000000
vt 0.873441 0.747828
vt 0.375000 0.251559
vt 0.625000 0.251559
vt 0.625000 0.498441
vt 0.625000 0.250000
vt 0.375000 0.750000
vt 0.574832 1.000000
vt 0.873441 0.747828
vt 0.375000 0.251559
vt 0.625000 0.251559
vt 0.625000 0.498441
vt 0.625000 0.250000
vt 0.375000 0.750000
vn 0.0000 0.0000 1.0000
vn 1.0000 0.0000 0.0000
vn 0.0000 1.0000 0.0000
vn -1.0000 0.0000 0.0000
vn -0.0000 0.0000 -1.0000
vn -0.7071 -0.7071 0.0000
vn -0.7071 0.7071 0.0000
vn 0.7071 -0.7071 0.0000
vn 0.7071 0.7071 0.0000
vn 0.0000 -0.7071 0.7071
vn 0.0000 0.7071 0.7071
vn 0.0000 -1.0000 0.0000
vn -0.7303 -0.6831 0.0000
vn -0.7303 0.6831 0.0000
vn 0.7303 -0.6831 -0.0000
vn 0.7303 0.6831 0.0000
s off
f 12/1/1 2/2/1 10/3/1
f 16/4/2 10/3/2 13/5/2
f 8/6/3 11/7/3 15/8/3
f 4/9/4 6/10/4 2/11/4
f 16/4/5 13/5/5 14/12/5
f 1/13/6 6/14/6 5/15/6
f 3/16/7 7/17/7 4/9/7
f 9/18/8 13/5/8 10/3/8
f 11/7/9 16/4/9 15/8/9
f 9/18/10 2/19/10 1/13/10
f 3/20/11 12/1/11 11/21/11
f 14/22/12 1/13/12 5/15/12
f 28/23/1 18/24/1 26/25/1
f 32/26/2 26/25/2 29/27/2
f 24/28/3 27/29/3 31/30/3
f 20/31/4 22/32/4 18/33/4
f 32/26/5 29/27/5 30/34/5
f 17/35/6 22/36/6 21/37/6
f 19/38/7 23/39/7 20/31/7
f 25/40/8 29/27/8 26/25/8
f 27/29/9 32/26/9 31/30/9
f 25/40/10 18/41/10 17/35/10
f 19/42/11 28/23/11 27/43/11
f 30/44/12 17/35/12 21/37/12
f 44/45/1 34/46/1 42/47/1
f 48/48/2 42/47/2 45/49/2
f 40/50/3 43/51/3 47/52/3
f 36/53/4 38/54/4 34/55/4
f 48/48/5 45/49/5 46/56/5
f 33/57/13 38/58/13 37/59/13
f 35/60/14 39/61/14 36/53/14
f 41/62/15 45/49/15 42/47/15
f 43/51/16 48/48/16 47/52/16
f 41/62/10 34/63/10 33/57/10
f 35/64/11 44/45/11 43/65/11
f 46/66/12 33/57/12 37/59/12
f 60/67/1 50/68/1 58/69/1
f 64/70/2 58/69/2 61/71/2
f 56/72/3 59/73/3 63/74/3
f 52/75/4 54/76/4 50/77/4
f 64/70/5 61/71/5 62/78/5
f 49/79/13 54/80/13 53/81/13
f 51/82/14 55/83/14 52/75/14
f 57/84/15 61/71/15 58/69/15
f 59/73/16 64/70/16 63/74/16
f 57/84/10 50/85/10 49/79/10
f 51/86/11 60/67/11 59/87/11
f 62/88/12 49/79/12 53/81/12
f 12/1/1 4/89/1 2/2/1
f 16/4/2 12/1/2 10/3/2
f 8/6/3 3/90/3 11/7/3
f 4/9/4 7/17/4 6/10/4
f 14/12/5 5/91/5 8/92/5
f 5/91/5 6/10/5 8/92/5
f 6/10/5 7/17/5 8/92/5
f 8/92/5 15/93/5 14/12/5
f 15/93/5 16/4/5 14/12/5
f 1/13/6 2/19/6 6/14/6
f 3/16/7 8/94/7 7/17/7
f 9/18/8 14/22/8 13/5/8
f 11/7/9 12/1/9 16/4/9
f 9/18/10 10/95/10 2/19/10
f 3/20/11 4/89/11 12/1/11
f 14/22/12 9/18/12 1/13/12
f 28/23/1 20/96/1 18/24/1
f 32/26/2 28/23/2 26/25/2
f 24/28/3 19/97/3 27/29/3
f 20/31/4 23/39/4 22/32/4
f 30/34/5 21/98/5 24/99/5
f 21/98/5 22/32/5 24/99/5
f 22/32/5 23/39/5 24/99/5
f 24/99/5 31/100/5 30/34/5
f 31/100/5 32/26/5 30/34/5
f 17/35/6 18/41/6 22/36/6
f 19/38/7 24/101/7 23/39/7
f 25/40/8 30/44/8 29/27/8
f 27/29/9 28/23/9 32/26/9
f 25/40/10 26/102/10 18/41/10
f 19/42/11 20/96/11 28/23/11
f 30/44/12 25/40/12 17/35/12
f 44/45/1 36/103/1 34/46/1
f 48/48/2 44/45/2 42/47/2
f 40/50/3 35/104/3 43/51/3
f 36/53/4 39/61/4 38/54/4
f 46/56/5 37/105/5 40/106/5
f 37/105/5 38/54/5 40/106/5
f 38/54/5 39/61/5 40/106/5
f 40/106/5 47/107/5 46/56/5
f 47/107/5 48/48/5 46/56/5
f 33/57/13 34/63/13 38/58/13
f 35/60/14 40/108/14 39/61/14
f 41/62/15 46/66/15 45/49/15
f 43/51/16 44/45/16 48/48/16
f 41/62/10 42/109/10 34/63/10
f 35/64/11 36/103/11 44/45/11
f 46/66/12 41/62/12 33/57/12
f 60/67/1 52/110/1 50/68/1
f 64/70/2 60/67/2 58/69/2
f 56/72/3 51/111/3 59/73/3
f 52/75/4 55/83/4 54/76/4
f 62/78/5 53/112/5 56/113/5
f 53/112/5 54/76/5 56/113/5
f 54/76/5 55/83/5 56/113/5
f 56/113/5 63/114/5 62/78/5
f 63/114/5 64/70/5 62/78/5
f 49/79/13 50/85/13 54/80/13
f 51/82/14 56/115/14 55/83/14
f 57/84/15 62/88/15 61/71/15
f 59/73/16 60/67/16 64/70/16
f 57/84/10 58/116/10 50/85/10
f 51/86/11 52/110/11 60/67/11
f 62/88/12 57/84/12 49/79/12
