# Blender v3.4.1 OBJ File: 'ship.blend'
# www.blender.org
o Fighter_Core_Cube.008
v -0.381958 -0.043853 0.001927
v -0.183310 -0.242501 0.001927
v -0.183310 0.242501 0.001927
v -0.381958 0.043853 0.001927
v -0.126885 -0.167856 -0.705185
v -0.264386 -0.030354 -0.705185
v -0.264386 0.030354 -0.705185
v -0.126885 0.167856 -0.705185
v 0.183310 -0.242501 0.001927
v 0.381958 -0.043853 0.001927
v 0.381958 0.043853 0.001927
v 0.183310 0.242501 0.001927
v 0.264386 -0.030354 -0.705185
v 0.126885 -0.167856 -0.705185
v 0.126885 0.167856 -0.705185
v 0.264386 0.030354 -0.705185
v -0.174522 -0.230876 0.012046
v -0.363648 -0.041751 0.012046
v -0.363648 0.041751 0.012046
v -0.174522 0.230876 0.012046
v 0.363648 -0.041751 0.012046
v 0.174522 -0.230876 0.012046
v 0.174522 0.230876 0.012046
v 0.363648 0.041751 0.012046
v -0.183029 -0.242131 0.022662
v -0.381374 -0.043786 0.022662
v -0.381374 0.043786 0.022662
v -0.183029 0.242131 0.022662
v 0.381374 -0.043786 0.022662
v 0.183029 -0.242131 0.022662
v 0.183029 0.242131 0.022662
v 0.381374 0.043786 0.022662
v -0.183029 -0.242131 0.735914
v -0.381374 -0.043786 0.735914
v -0.381374 0.043786 0.735914
v -0.183029 0.242131 0.735914
v 0.381374 -0.043786 0.735914
v 0.183029 -0.242131 0.735914
v 0.183029 0.242131 0.735914
v 0.381374 0.043786 0.735914
v -0.166973 -0.220890 0.782240
v -0.347918 -0.039945 0.782240
v -0.347918 0.039945 0.782240
v -0.166973 0.220890 0.782240
v 0.347918 -0.039945 0.782240
v 0.166973 -0.220890 0.782240
v 0.166973 0.220890 0.782240
v 0.347918 0.039945 0.782240
v -0.220205 -0.025282 -0.736193
v -0.105681 -0.139806 -0.736193
v -0.105681 0.139806 -0.736193
v -0.220205 0.025282 -0.736193
v 0.105681 -0.139806 -0.736193
v 0.220205 -0.025282 -0.736193
v 0.220205 0.025282 -0.736193
v 0.105681 0.139806 -0.736193
v 0.000000 -0.028682 0.150236
v 0.000000 0.027900 0.150236
v 0.000000 -0.028682 0.771830
v 0.000000 0.027900 0.771830
v -0.508635 -0.014571 0.676094
v -0.494525 -0.028682 0.678749
v -0.494525 0.027900 0.678749
v -0.508635 0.013789 0.676094
v -0.494525 -0.028682 0.057155
v -0.508635 -0.014571 0.054499
v -0.508635 0.013789 0.054499
v -0.494525 0.027900 0.057155
v 0.494525 -0.028682 0.678749
v 0.508635 -0.014571 0.676094
v 0.508635 0.013789 0.676094
v 0.494525 0.027900 0.678749
v 0.508635 -0.014571 0.054499
v 0.494525 -0.028682 0.057155
v 0.494525 0.027900 0.057155
v 0.508635 0.013789 0.054499
v -0.347304 -0.038086 0.469481
v -0.347304 -0.038086 0.175855
v 0.347304 -0.038086 0.469481
v 0.347304 -0.038086 0.175855
v -0.665032 -0.032724 0.165547
v -0.665032 -0.032724 0.415403
v 0.665032 -0.032724 0.165547
v 0.665032 -0.032724 0.415403
v -0.954322 -0.023604 0.161233
v -0.954322 -0.023604 0.336644
v 0.954322 -0.023604 0.161233
v 0.954322 -0.023604 0.336644
v -0.347304 0.033858 0.466522
v -0.347304 0.028320 0.469481
v -0.341768 0.033858 0.469481
v 0.347304 0.028320 0.469481
v 0.347304 0.033858 0.466522
v 0.341768 0.033858 0.469481
v -0.665032 0.028495 0.412439
v -0.665032 0.022958 0.415403
v 0.665032 0.022958 0.415403
v 0.665032 0.028495 0.412439
v -0.954322 0.013838 0.336644
v -0.954322 0.019375 0.333676
v 0.954322 0.019375 0.333676
v 0.954322 0.013838 0.336644
v -0.347304 0.027996 0.175855
v -0.347304 0.033858 0.178713
v -0.341444 0.033858 0.175855
v 0.347304 0.033858 0.178713
v 0.347304 0.027996 0.175855
v 0.341444 0.033858 0.175855
v -0.665032 0.022633 0.165547
v -0.665032 0.028495 0.168405
v 0.665032 0.028495 0.168405
v 0.665032 0.022633 0.165547
v -0.954322 0.019375 0.164091
v -0.954322 0.013513 0.161233
v 0.954322 0.013513 0.161233
v 0.954322 0.019375 0.164091
v -0.155808 -0.206120 0.774217
v -0.324654 -0.037274 0.774217
v -0.324654 0.037274 0.774217
v -0.155808 0.206120 0.774217
v 0.324654 -0.037274 0.774217
v 0.155808 -0.206120 0.774217
v 0.155808 0.206120 0.774217
v 0.324654 0.037274 0.774217
vt 0.625000 0.000000
vt 0.522604 0.000000
vt 0.625000 0.000000
vt 0.522604 0.500000
vt 0.477396 0.750000
vt 0.477396 0.500000
vt 0.809990 0.500000
vt 0.690010 0.750000
vt 0.690010 0.500000
vt 0.522604 0.000000
vt 0.477396 0.250000
vt 0.477396 0.000000
vt 0.190010 0.500000
vt 0.309990 0.500000
vt 0.309990 0.500000
vt 0.190010 0.750000
vt 0.125000 0.500000
vt 0.522604 0.250000
vt 0.309990 0.750000
vt 0.477396 0.750000
vt 0.309990 0.750000
vt 0.309990 0.750000
vt 0.125000 0.750000
vt 0.125000 0.750000
vt 0.522604 0.750000
vt 0.522604 0.750000
vt 0.809990 0.750000
vt 0.690010 0.750000
vt 0.190010 0.750000
vt 0.522604 0.750000
vt 0.477396 0.750000
vt 0.477396 0.750000
vt 0.190010 0.750000
vt 0.125000 0.750000
vt 0.809990 0.750000
vt 0.690010 0.750000
vt 0.477396 0.000000
vt 0.522604 0.000000
vt 0.625000 0.000000
vt 0.522604 0.750000
vt 0.477396 0.750000
vt 0.190010 0.750000
vt 0.309990 0.750000
vt 0.125000 0.750000
vt 0.809990 0.750000
vt 0.690010 0.750000
vt 0.522604 0.000000
vt 0.625000 0.000000
vt 0.522604 0.750000
vt 0.477396 0.750000
vt 0.190010 0.750000
vt 0.309990 0.750000
vt 0.125000 0.750000
vt 0.809990 0.750000
vt 0.690010 0.750000
vt 0.477396 0.000000
vt 0.522604 0.000000
vt 0.625000 0.000000
vt 0.522604 0.500000
vt 0.477396 0.500000
vt 0.375000 0.434990
vt 0.690010 0.500000
vt 0.477396 0.250000
vt 0.625000 0.250000
vt 0.522604 0.250000
vt 0.809990 0.500000
vt 0.125000 0.500000
vt 0.190010 0.500000
vt 0.562653 1.000000
vt 0.437347 1.000000
vt 0.375000 0.996532
vt 0.625000 0.753468
vt 0.625000 0.875000
vt 0.375000 0.875000
vt 0.750000 0.500000
vt 0.871532 0.750000
vt 0.750000 0.750000
vt 0.562653 0.500000
vt 0.437347 0.750000
vt 0.437347 0.500000
vt 0.625000 0.253468
vt 0.625000 0.375000
vt 0.375000 0.375000
vt 0.375000 0.496532
vt 0.562653 0.000000
vt 0.437347 0.250000
vt 0.437347 0.000000
vt 0.628468 0.750000
vt 0.628468 0.500000
vt 0.250000 0.500000
vt 0.371532 0.750000
vt 0.250000 0.750000
vt 0.128468 0.500000
vt 0.125000 0.750000
vt 0.125000 0.500000
vt 0.625000 0.248932
vt 0.625000 0.000000
vt 0.371532 0.500000
vt 0.562653 0.750000
vt 0.128468 0.750000
vt 0.375000 0.250000
vt 0.590902 0.250000
vt 0.601062 0.250000
vt 0.875000 0.502434
vt 0.875000 0.747035
vt 0.875000 0.747480
vt 0.625000 0.497891
vt 0.604630 0.500000
vt 0.375000 0.500000
vt 0.873007 0.750000
vt 0.626993 0.750000
vt 0.872891 0.500000
vt 0.125000 0.750000
vt 0.125000 0.500000
vt 0.605758 1.000000
vt 0.375000 1.000000
vt 0.375000 1.000000
vt 0.125000 0.500000
vt 0.125000 0.750000
vt 0.125000 0.500000
vt 0.625000 0.245927
vt 0.375000 0.250000
vt 0.375000 0.750000
vt 0.602387 0.750000
vt 0.605758 0.750000
vt 0.625000 0.502434
vt 0.625000 0.747035
vt 0.625000 0.502860
vt 0.375000 0.500000
vt 0.125000 0.750000
vt 0.602387 1.000000
vt 0.375000 1.000000
vt 0.375000 0.750000
vt 0.625000 0.745769
vt 0.592790 0.750000
vt 0.375000 0.750000
vt 0.875000 0.502860
vt 0.875000 0.745769
vt 0.601062 0.500000
vt 0.375000 0.500000
vt 0.625000 0.504073
vt 0.625000 1.000000
vt 0.625000 1.000000
vt 0.625000 0.750000
vt 0.625000 0.750000
vt 0.625000 0.747480
vt 0.592790 1.000000
vt 0.625000 1.000000
vt 0.625000 1.000000
vt 0.625000 0.998007
vt 0.875000 0.500003
vt 0.875000 0.500000
vt 0.625000 0.500000
vt 0.625000 0.500000
vt 0.625000 0.250000
vt 0.604630 0.250000
vt 0.625000 0.250000
vt 0.590902 0.500000
vt 0.375000 0.250000
vt 0.522604 1.000000
vt 0.477396 1.000000
vt 0.375000 0.934990
vt 0.309990 0.750000
vt 0.190010 0.750000
vt 0.125000 0.750000
vt 0.809990 0.750000
vt 0.690010 0.750000
vt 0.522604 0.000000
vt 0.522604 0.750000
vt 0.625000 0.000000
vt 0.477396 0.000000
vt 0.477396 0.000000
vt 0.375000 0.315010
vt 0.625000 0.315010
vt 0.625000 0.434990
vt 0.625000 0.250000
vt 0.625000 0.996532
vt 0.375000 0.753468
vt 0.871532 0.500000
vt 0.375000 0.253468
vt 0.562653 0.250000
vt 0.625000 0.496532
vt 0.625000 0.252109
vt 0.627109 0.500000
vt 0.375000 0.000000
vt 0.625000 0.004231
vt 0.592790 0.000000
vt 0.875000 0.504074
vt 0.625000 0.751993
vt 0.625000 0.250000
vt 0.375000 0.815010
vt 0.625000 0.815010
vt 0.625000 0.934990
vt 0.809990 0.750000
vt 0.477396 0.000000
vn -0.4059 0.4059 0.8188
vn 0.9865 0.0000 -0.1640
vn 0.0000 0.9945 -0.1050
vn -0.9865 0.0000 -0.1640
vn 0.0000 -0.7416 -0.6709
vn -0.7011 -0.7011 -0.1300
vn -0.7011 0.7011 -0.1300
vn 0.7011 -0.7011 -0.1300
vn 0.7011 0.7011 -0.1300
vn 0.0000 -0.9945 -0.1050
vn 0.4278 -0.4278 -0.7963
vn -0.4059 -0.4059 0.8188
vn 0.4837 0.0000 0.8753
vn -0.4837 0.0000 0.8753
vn 0.4059 0.4059 0.8188
vn 0.0000 0.6565 0.7543
vn 0.4059 -0.4059 0.8188
vn 0.0000 -0.6565 0.7543
vn 1.0000 0.0000 0.0000
vn -0.4278 -0.4278 -0.7963
vn 0.0000 0.6862 -0.7274
vn -0.5138 0.0000 -0.8579
vn 0.4278 0.4278 -0.7963
vn -0.4278 0.4278 -0.7963
vn 0.5138 0.0000 -0.8579
vn 0.0000 -0.6862 -0.7274
vn 0.8107 0.0000 0.5855
vn 0.0000 -1.0000 0.0000
vn 0.7071 -0.7071 0.0000
vn -0.7071 -0.7071 0.0000
vn 0.0000 1.0000 0.0000
vn -1.0000 0.0000 0.0000
vn 0.7071 0.7071 0.0000
vn -0.7071 0.7071 0.0000
vn -0.3260 0.0000 0.9454
vn 0.0000 -0.9090 0.4168
vn 0.6145 -0.6145 0.4947
vn -0.6145 -0.6145 0.4947
vn 0.0000 0.9090 0.4168
vn -0.8107 0.0000 0.5855
vn 0.6145 0.6145 0.4947
vn -0.6145 0.6145 0.4947
vn 0.0000 0.0000 -1.0000
vn 0.5745 0.0000 -0.8185
vn 0.4702 0.4702 -0.7469
vn 0.4702 -0.4702 -0.7469
vn -0.5745 0.0000 -0.8185
vn -0.4702 0.4702 -0.7469
vn 0.0000 0.7416 -0.6709
vn -0.4702 -0.4702 -0.7469
vn -0.1850 0.0000 0.9827
vn 0.1850 0.0000 0.9827
vn 0.1850 0.0000 -0.9827
vn -0.1850 0.0000 -0.9827
vn 0.0149 0.0000 -0.9999
vn -0.0169 0.9999 0.0000
vn -0.1678 0.0000 0.9858
vn -0.0315 -0.9995 0.0000
vn 0.1678 0.0000 0.9858
vn 0.0169 0.9999 0.0000
vn -0.0324 0.0000 -0.9995
vn -0.0169 -0.9999 0.0000
vn -0.2627 0.0000 0.9649
vn 0.0169 -0.9999 0.0000
vn 0.0315 -0.9995 0.0000
vn -0.0315 0.9995 0.0000
vn -0.0149 0.0000 -0.9999
vn 0.2627 0.0000 0.9649
vn 0.0315 0.9995 0.0000
vn -0.4264 0.4263 0.7977
vn 0.4264 0.4263 0.7977
vn -0.1561 0.4656 0.8711
vn 0.1561 0.4656 0.8711
vn -0.2470 0.4578 0.8541
vn 0.2470 0.4578 0.8541
vn -0.0000 0.0000 1.0000
vn -0.4015 0.4014 -0.8232
vn 0.4015 0.4014 -0.8232
vn 0.0218 0.4382 -0.8986
vn -0.0218 0.4382 -0.8986
vn -0.0004 0.4383 -0.8988
vn 0.0004 0.4383 -0.8989
vn 0.0324 0.0000 -0.9995
vn 0.0000 0.4773 0.8787
vn -0.2834 0.2834 0.9162
vn 0.2834 0.2834 0.9162
vn 0.0000 -0.4773 0.8787
vn 0.3260 0.0000 0.9454
vn -0.2834 -0.2834 0.9162
vn 0.2834 -0.2834 0.9162
vn -0.1561 0.4661 0.8709
vn 0.1561 0.4661 0.8709
vn -0.2470 0.4572 0.8544
vn 0.2470 0.4572 0.8544
vn 0.0004 0.4383 -0.8988
s off
f 3/1/1 19/2/1 20/3/1
f 16/4/2 10/5/2 13/6/2
f 8/7/3 12/8/3 15/9/3
f 4/10/4 6/11/4 1/12/4
f 5/13/5 53/14/5 14/15/5
f 2/16/6 6/17/6 5/13/6
f 3/1/7 7/18/7 4/10/7
f 9/19/8 13/6/8 10/5/8
f 12/8/9 16/4/9 15/9/9
f 14/15/10 2/16/10 5/13/10
f 21/20/11 30/21/11 22/22/11
f 2/16/12 18/23/12 1/24/12
f 11/25/13 21/20/13 10/5/13
f 1/12/14 19/2/14 4/10/14
f 12/8/15 24/26/15 11/25/15
f 3/27/16 23/28/16 12/8/16
f 9/19/17 21/20/17 22/22/17
f 9/19/18 17/29/18 2/16/18
f 32/30/19 37/31/19 29/32/19
f 18/23/20 25/33/20 26/34/20
f 20/35/21 31/36/21 23/28/21
f 19/2/22 26/37/22 27/38/22
f 24/26/23 31/36/23 32/30/23
f 19/2/24 28/39/24 20/3/24
f 24/26/25 29/32/25 21/20/25
f 22/22/26 25/33/26 17/29/26
f 40/40/27 45/41/27 37/31/27
f 30/21/28 33/42/28 25/33/28
f 29/32/29 38/43/29 30/21/29
f 25/33/30 34/44/30 26/34/30
f 28/45/31 39/46/31 31/36/31
f 26/37/32 35/47/32 27/38/32
f 31/36/33 40/40/33 32/30/33
f 27/38/34 36/48/34 28/39/34
f 48/49/35 121/50/35 45/41/35
f 38/43/36 41/51/36 33/42/36
f 38/43/37 45/41/37 46/52/37
f 33/42/38 42/53/38 34/44/38
f 36/54/39 47/55/39 39/46/39
f 35/47/40 42/56/40 43/57/40
f 39/46/41 48/49/41 40/40/41
f 36/48/42 43/57/42 44/58/42
f 55/59/43 54/60/43 53/61/43
f 13/6/44 55/59/44 16/4/44
f 15/9/45 55/59/45 56/62/45
f 14/15/46 54/60/46 13/6/46
f 7/18/47 49/63/47 6/11/47
f 8/64/48 52/65/48 7/18/48
f 15/9/49 51/66/49 8/7/49
f 5/13/50 49/67/50 50/68/50
f 64/69/51 61/70/51 62/71/51
f 72/72/52 60/73/52 59/74/52
f 58/75/31 63/76/31 60/77/31
f 76/78/19 70/79/19 73/80/19
f 68/81/53 58/82/53 57/83/53
f 76/78/54 73/80/54 74/84/54
f 64/85/32 66/86/32 61/87/32
f 58/75/31 72/88/31 75/89/31
f 57/90/28 69/91/28 59/92/28
f 65/93/30 61/94/30 66/95/30
f 68/96/34 64/85/34 63/97/34
f 74/98/29 70/79/29 69/91/29
f 75/89/33 71/99/33 76/78/33
f 57/90/28 62/100/28 65/93/28
f 81/101/55 114/102/55 109/103/55
f 104/104/56 95/105/56 89/106/56
f 108/107/43 107/108/43 80/109/43
f 91/110/31 94/111/31 105/112/31
f 80/109/28 77/113/28 78/114/28
f 90/115/57 82/116/57 77/117/57
f 81/118/58 86/119/58 85/120/58
f 113/121/32 114/102/32 85/122/32
f 79/123/59 97/124/59 92/125/59
f 106/126/60 98/127/60 111/128/60
f 107/108/61 83/129/61 80/109/61
f 78/114/62 82/130/62 81/118/62
f 96/131/63 86/132/63 82/116/63
f 80/109/64 84/133/64 79/123/64
f 101/134/19 102/135/19 88/136/19
f 83/129/65 88/136/65 84/133/65
f 110/137/66 100/138/66 95/105/66
f 112/139/67 87/140/67 83/129/67
f 84/133/68 102/135/68 97/124/68
f 111/128/69 101/134/69 116/141/69
f 89/142/70 90/115/70 91/143/70
f 92/125/71 93/144/71 94/145/71
f 89/142/72 96/131/72 90/115/72
f 97/124/73 93/146/73 92/125/73
f 99/147/74 95/148/74 100/149/74
f 98/127/75 102/135/75 101/134/75
f 91/150/76 90/115/76 77/117/76
f 103/151/77 104/104/77 105/152/77
f 106/153/78 107/108/78 108/154/78
f 110/155/79 103/156/79 109/103/79
f 107/108/80 111/128/80 112/139/80
f 109/103/81 113/157/81 110/155/81
f 112/139/82 116/141/82 115/158/82
f 78/159/83 109/103/83 103/156/83
f 119/160/76 118/161/76 117/162/76
f 41/51/84 122/163/84 117/164/84
f 46/52/85 121/50/85 122/163/85
f 41/51/86 118/165/86 42/53/86
f 44/166/87 123/167/87 47/55/87
f 42/56/88 119/168/88 43/57/88
f 47/55/89 124/169/89 48/49/89
f 44/58/90 119/168/90 120/170/90
f 3/1/1 4/10/1 19/2/1
f 16/4/2 11/25/2 10/5/2
f 8/7/3 3/27/3 12/8/3
f 4/10/4 7/18/4 6/11/4
f 5/13/5 50/68/5 53/14/5
f 2/16/6 1/24/6 6/17/6
f 3/1/7 8/64/7 7/18/7
f 9/19/8 14/15/8 13/6/8
f 12/8/9 11/25/9 16/4/9
f 14/15/10 9/19/10 2/16/10
f 21/20/11 29/32/11 30/21/11
f 2/16/12 17/29/12 18/23/12
f 11/25/13 24/26/13 21/20/13
f 1/12/14 18/171/14 19/2/14
f 12/8/15 23/28/15 24/26/15
f 3/27/16 20/35/16 23/28/16
f 9/19/17 10/5/17 21/20/17
f 9/19/18 22/22/18 17/29/18
f 32/30/19 40/40/19 37/31/19
f 18/23/20 17/29/20 25/33/20
f 20/35/21 28/45/21 31/36/21
f 19/2/22 18/171/22 26/37/22
f 24/26/23 23/28/23 31/36/23
f 19/2/24 27/38/24 28/39/24
f 24/26/25 32/30/25 29/32/25
f 22/22/26 30/21/26 25/33/26
f 40/40/27 48/49/27 45/41/27
f 30/21/28 38/43/28 33/42/28
f 29/32/29 37/31/29 38/43/29
f 25/33/30 33/42/30 34/44/30
f 28/45/31 36/54/31 39/46/31
f 26/37/32 34/172/32 35/47/32
f 31/36/33 39/46/33 40/40/33
f 27/38/34 35/47/34 36/48/34
f 48/49/35 124/169/35 121/50/35
f 38/43/36 46/52/36 41/51/36
f 38/43/37 37/31/37 45/41/37
f 33/42/38 41/51/38 42/53/38
f 36/54/39 44/166/39 47/55/39
f 35/47/40 34/172/40 42/56/40
f 39/46/41 47/55/41 48/49/41
f 36/48/42 35/47/42 43/57/42
f 53/61/43 50/173/43 51/174/43
f 50/173/43 49/63/43 51/174/43
f 49/63/43 52/65/43 51/174/43
f 51/174/43 56/175/43 53/61/43
f 56/175/43 55/59/43 53/61/43
f 13/6/44 54/60/44 55/59/44
f 15/9/45 16/4/45 55/59/45
f 14/15/46 53/14/46 54/60/46
f 7/18/47 52/65/47 49/63/47
f 8/64/48 51/176/48 52/65/48
f 15/9/49 56/62/49 51/66/49
f 5/13/50 6/17/50 49/67/50
f 62/71/51 59/74/51 60/73/51
f 60/73/51 63/177/51 62/71/51
f 63/177/51 64/69/51 62/71/51
f 59/74/52 69/178/52 72/72/52
f 69/178/52 70/79/52 72/72/52
f 70/79/52 71/99/52 72/72/52
f 58/75/31 68/179/31 63/76/31
f 76/78/19 71/99/19 70/79/19
f 57/83/53 65/180/53 68/81/53
f 65/180/53 66/86/53 68/81/53
f 66/86/53 67/181/53 68/81/53
f 74/84/54 57/83/54 58/82/54
f 58/82/54 75/182/54 74/84/54
f 75/182/54 76/78/54 74/84/54
f 64/85/32 67/181/32 66/86/32
f 58/75/31 60/77/31 72/88/31
f 57/90/28 74/98/28 69/91/28
f 65/93/30 62/100/30 61/94/30
f 68/96/34 67/181/34 64/85/34
f 74/98/29 73/80/29 70/79/29
f 75/89/33 72/88/33 71/99/33
f 57/90/28 59/92/28 62/100/28
f 81/101/55 85/122/55 114/102/55
f 104/104/56 110/137/56 95/105/56
f 80/109/43 78/159/43 105/183/43
f 78/159/43 103/156/43 105/183/43
f 105/183/43 108/107/43 80/109/43
f 93/146/31 106/126/31 108/184/31
f 108/184/31 105/112/31 94/111/31
f 105/112/31 104/104/31 89/106/31
f 108/184/31 94/111/31 93/146/31
f 89/106/31 91/110/31 105/112/31
f 80/109/28 79/123/28 77/113/28
f 90/115/57 96/131/57 82/116/57
f 81/118/58 82/130/58 86/119/58
f 85/122/32 86/185/32 100/186/32
f 86/185/32 99/187/32 100/186/32
f 100/186/32 113/121/32 85/122/32
f 79/123/59 84/133/59 97/124/59
f 106/126/60 93/146/60 98/127/60
f 107/108/61 112/139/61 83/129/61
f 78/114/62 77/113/62 82/130/62
f 96/131/63 99/147/63 86/132/63
f 80/109/64 83/129/64 84/133/64
f 88/136/19 87/140/19 101/134/19
f 87/140/19 115/158/19 116/141/19
f 101/134/19 87/140/19 116/141/19
f 83/129/65 87/140/65 88/136/65
f 110/137/66 113/188/66 100/138/66
f 112/139/67 115/158/67 87/140/67
f 84/133/68 88/136/68 102/135/68
f 111/128/69 98/127/69 101/134/69
f 89/142/91 95/148/91 96/131/91
f 97/124/92 98/127/92 93/146/92
f 99/147/93 96/131/93 95/148/93
f 98/127/94 97/124/94 102/135/94
f 77/117/76 79/123/76 94/189/76
f 79/123/76 92/125/76 94/189/76
f 94/189/76 91/150/76 77/117/76
f 110/155/79 104/190/79 103/156/79
f 107/108/80 106/126/80 111/128/80
f 109/103/81 114/102/81 113/157/81
f 112/139/95 111/128/95 116/141/95
f 78/159/83 81/101/83 109/103/83
f 117/162/76 122/191/76 123/192/76
f 122/191/76 121/50/76 123/192/76
f 121/50/76 124/169/76 123/192/76
f 123/192/76 120/193/76 117/162/76
f 120/193/76 119/160/76 117/162/76
f 41/51/84 46/52/84 122/163/84
f 46/52/85 45/41/85 121/50/85
f 41/51/86 117/164/86 118/165/86
f 44/166/87 120/194/87 123/167/87
f 42/56/88 118/195/88 119/168/88
f 47/55/89 123/167/89 124/169/89
f 44/58/90 43/57/90 119/168/90
o Fighter_Core_Panels_Cube.026
v 0.159750 0.074088 0.524463
v 0.259624 0.173962 0.524463
v 0.159750 0.074088 0.383219
v 0.259624 0.173962 0.383219
v 0.195013 0.038825 0.524463
v 0.294887 0.138699 0.524463
v 0.195013 0.038825 0.383219
v 0.294887 0.138699 0.383219
v 0.137843 0.090159 0.638121
v 0.243553 0.195869 0.638121
v 0.137843 0.090159 0.488624
v 0.243553 0.195869 0.488624
v 0.200127 0.027875 0.638121
v 0.305837 0.133585 0.638121
v 0.200127 0.027875 0.488624
v 0.305837 0.133585 0.488624
v 0.121047 0.112790 0.609773
v 0.220922 0.212665 0.609773
v 0.121047 0.112790 0.517983
v 0.220922 0.212665 0.517983
v 0.156310 0.077527 0.609773
v 0.256185 0.177401 0.609773
v 0.156310 0.077527 0.517983
v 0.256185 0.177401 0.517983
v -0.293273 0.144638 0.376992
v -0.247482 0.190429 0.376992
v -0.293273 0.144638 0.227495
v -0.247482 0.190429 0.227495
v -0.230988 0.082354 0.376992
v -0.185197 0.128145 0.376992
v -0.230988 0.082354 0.227495
v -0.185197 0.128145 0.227495
v -0.284736 0.145867 0.468205
v -0.248711 0.181892 0.468205
v -0.284736 0.145867 0.350592
v -0.248711 0.181892 0.350592
v -0.235735 0.096866 0.468205
v -0.199710 0.132891 0.468205
v -0.235735 0.096866 0.350592
v -0.199710 0.132891 0.350592
v -0.370665 0.064309 0.655114
v -0.269330 0.165645 0.655114
v -0.370665 0.064309 0.619179
v -0.269330 0.165645 0.619179
v -0.321665 0.015308 0.655114
v -0.220329 0.116644 0.655114
v -0.321665 0.015308 0.619179
v -0.220329 0.116644 0.619179
vt 0.625000 0.000000
vt 0.375000 0.250000
vt 0.375000 0.000000
vt 0.625000 0.250000
vt 0.375000 0.500000
vt 0.625000 0.500000
vt 0.375000 0.750000
vt 0.625000 0.750000
vt 0.375000 1.000000
vt 0.125000 0.750000
vt 0.125000 0.500000
vt 0.875000 0.500000
vt 0.625000 0.000000
vt 0.375000 0.250000
vt 0.375000 0.000000
vt 0.625000 0.250000
vt 0.375000 0.500000
vt 0.625000 0.500000
vt 0.375000 0.750000
vt 0.625000 0.750000
vt 0.375000 1.000000
vt 0.125000 0.750000
vt 0.125000 0.500000
vt 0.875000 0.500000
vt 0.625000 0.000000
vt 0.375000 0.250000
vt 0.375000 0.000000
vt 0.625000 0.250000
vt 0.375000 0.500000
vt 0.625000 0.500000
vt 0.375000 0.750000
vt 0.625000 0.750000
vt 0.375000 1.000000
vt 0.125000 0.750000
vt 0.125000 0.500000
vt 0.875000 0.500000
vt 0.625000 0.000000
vt 0.375000 0.250000
vt 0.375000 0.000000
vt 0.625000 0.250000
vt 0.375000 0.500000
vt 0.625000 0.500000
vt 0.375000 0.750000
vt 0.625000 0.750000
vt 0.375000 1.000000
vt 0.125000 0.750000
vt 0.125000 0.500000
vt 0.875000 0.500000
vt 0.625000 0.000000
vt 0.375000 0.250000
vt 0.375000 0.000000
vt 0.625000 0.250000
vt 0.375000 0.500000
vt 0.625000 0.500000
vt 0.375000 0.750000
vt 0.625000 0.750000
vt 0.375000 1.000000
vt 0.125000 0.750000
vt 0.125000 0.500000
vt 0.875000 0.500000
vt 0.625000 0.000000
vt 0.375000 0.250000
vt 0.375000 0.000000
vt 0.625000 0.250000
vt 0.375000 0.500000
vt 0.625000 0.500000
vt 0.375000 0.750000
vt 0.625000 0.750000
vt 0.375000 1.000000
vt 0.125000 0.750000
vt 0.125000 0.500000
vt 0.875000 0.500000
vt 0.625000 1.000000
vt 0.875000 0.750000
vt 0.625000 1.000000
vt 0.875000 0.750000
vt 0.625000 1.000000
vt 0.875000 0.750000
vt 0.625000 1.000000
vt 0.875000 0.750000
vt 0.625000 1.000000
vt 0.875000 0.750000
vt 0.625000 1.000000
vt 0.875000 0.750000
vn -0.7071 0.7071 0.0000
vn 0.0000 0.0000 -1.0000
vn 0.7071 -0.7071 0.0000
vn 0.0000 0.0000 1.0000
vn -0.7071 -0.7071 0.0000
vn 0.7071 0.7071 0.0000
s off
f 126/196/96 127/197/96 125/198/96
f 128/199/97 131/200/97 127/197/97
f 132/201/98 129/202/98 131/200/98
f 130/203/99 125/204/99 129/202/99
f 131/200/100 125/205/100 127/206/100
f 128/207/101 130/203/101 132/201/101
f 134/208/96 135/209/96 133/210/96
f 136/211/97 139/212/97 135/209/97
f 140/213/98 137/214/98 139/212/98
f 138/215/99 133/216/99 137/214/99
f 139/212/100 133/217/100 135/218/100
f 136/219/101 138/215/101 140/213/101
f 142/220/96 143/221/96 141/222/96
f 144/223/97 147/224/97 143/221/97
f 148/225/98 145/226/98 147/224/98
f 146/227/99 141/228/99 145/226/99
f 147/224/100 141/229/100 143/230/100
f 144/231/101 146/227/101 148/225/101
f 150/232/96 151/233/96 149/234/96
f 152/235/97 155/236/97 151/233/97
f 156/237/98 153/238/98 155/236/98
f 154/239/99 149/240/99 153/238/99
f 155/236/100 149/241/100 151/242/100
f 152/243/101 154/239/101 156/237/101
f 158/244/96 159/245/96 157/246/96
f 160/247/97 163/248/97 159/245/97
f 164/249/98 161/250/98 163/248/98
f 162/251/99 157/252/99 161/250/99
f 163/248/100 157/253/100 159/254/100
f 160/255/101 162/251/101 164/249/101
f 166/256/96 167/257/96 165/258/96
f 168/259/97 171/260/97 167/257/97
f 172/261/98 169/262/98 171/260/98
f 170/263/99 165/264/99 169/262/99
f 171/260/100 165/265/100 167/266/100
f 168/267/101 170/263/101 172/261/101
f 126/196/96 128/199/96 127/197/96
f 128/199/97 132/201/97 131/200/97
f 132/201/98 130/203/98 129/202/98
f 130/203/99 126/268/99 125/204/99
f 131/200/100 129/202/100 125/205/100
f 128/207/101 126/269/101 130/203/101
f 134/208/96 136/211/96 135/209/96
f 136/211/97 140/213/97 139/212/97
f 140/213/98 138/215/98 137/214/98
f 138/215/99 134/270/99 133/216/99
f 139/212/100 137/214/100 133/217/100
f 136/219/101 134/271/101 138/215/101
f 142/220/96 144/223/96 143/221/96
f 144/223/97 148/225/97 147/224/97
f 148/225/98 146/227/98 145/226/98
f 146/227/99 142/272/99 141/228/99
f 147/224/100 145/226/100 141/229/100
f 144/231/101 142/273/101 146/227/101
f 150/232/96 152/235/96 151/233/96
f 152/235/97 156/237/97 155/236/97
f 156/237/98 154/239/98 153/238/98
f 154/239/99 150/274/99 149/240/99
f 155/236/100 153/238/100 149/241/100
f 152/243/101 150/275/101 154/239/101
f 158/244/96 160/247/96 159/245/96
f 160/247/97 164/249/97 163/248/97
f 164/249/98 162/251/98 161/250/98
f 162/251/99 158/276/99 157/252/99
f 163/248/100 161/250/100 157/253/100
f 160/255/101 158/277/101 162/251/101
f 166/256/96 168/259/96 167/257/96
f 168/259/97 172/261/97 171/260/97
f 172/261/98 170/263/98 169/262/98
f 170/263/99 166/278/99 165/264/99
f 171/260/100 169/262/100 165/265/100
f 168/267/101 166/279/101 170/263/101
