# Blender v3.4.1 OBJ File: 'ship.blend'
# www.blender.org
o Fighter_Dock_Cube.018
v 0.108782 0.199799 0.611222
v 0.108782 0.199799 0.410808
v 0.108782 0.249823 0.410808
v 0.128398 0.199799 0.611222
v 0.128398 0.199799 0.410808
v 0.128398 0.249823 0.410808
v -0.137073 0.190861 0.473705
v 0.137073 0.190861 0.473705
v -0.137073 0.190861 0.216546
v -0.120085 0.190861 0.199558
v 0.120085 0.190861 0.199558
v 0.137073 0.190861 0.216546
v -0.100207 0.200063 0.577504
v -0.100207 0.200063 0.377090
v -0.100207 0.250087 0.377090
v 0.100207 0.200063 0.577504
v 0.100207 0.200063 0.377090
v 0.100207 0.250087 0.377090
v -0.129472 0.200063 0.611222
v -0.129472 0.200063 0.410808
v -0.129472 0.250087 0.410808
v -0.109856 0.200063 0.611222
v -0.109856 0.200063 0.410808
v -0.109856 0.250087 0.410808
v -0.105513 0.205408 0.453699
v -0.117068 0.205408 0.442144
v -0.123389 0.269669 0.447841
v -0.111210 0.269669 0.460021
v -0.117068 0.205408 0.231119
v -0.105513 0.205408 0.219563
v -0.111210 0.269669 0.213242
v -0.123389 0.269669 0.225422
v 0.117068 0.205408 0.442144
v 0.105513 0.205408 0.453699
v 0.111210 0.269669 0.460021
v 0.123389 0.269669 0.447841
v 0.105513 0.205408 0.219563
v 0.117068 0.205408 0.231119
v 0.123389 0.269669 0.225422
v 0.111210 0.269669 0.213242
v -0.104416 0.269669 0.454248
v -0.106982 0.269669 0.453274
v -0.106929 0.269669 0.455271
v -0.116643 0.269669 0.443613
v -0.117617 0.269669 0.441048
v -0.118640 0.269669 0.443560
v -0.117617 0.269669 0.232215
v -0.116643 0.269669 0.229650
v -0.118640 0.269669 0.229702
v -0.106982 0.269669 0.219989
v -0.104416 0.269669 0.219014
v -0.106929 0.269669 0.217992
v 0.104416 0.269669 0.219014
v 0.106982 0.269669 0.219989
v 0.106929 0.269669 0.217992
v 0.116643 0.269669 0.229650
v 0.117617 0.269669 0.232215
v 0.118640 0.269669 0.229702
v 0.117617 0.269669 0.441048
v 0.116643 0.269669 0.443613
v 0.118640 0.269669 0.443560
v 0.106982 0.269669 0.453274
v 0.104416 0.269669 0.454248
v 0.106929 0.269669 0.455271
v -0.103514 0.261139 0.449427
v -0.100949 0.261139 0.450401
v -0.113770 0.261139 0.437581
v -0.112796 0.261139 0.440146
v -0.112796 0.261139 0.233117
v -0.113770 0.261139 0.235682
v -0.100949 0.261139 0.222861
v -0.103514 0.261139 0.223835
v 0.103514 0.261139 0.223835
v 0.100949 0.261139 0.222861
v 0.113770 0.261139 0.235682
v 0.112796 0.261139 0.233117
v 0.112796 0.261139 0.440146
v 0.113770 0.261139 0.437581
v 0.100949 0.261139 0.450401
v 0.103514 0.261139 0.449427
v -0.133852 0.259289 0.470484
v -0.137073 0.256068 0.473705
v 0.133852 0.259289 0.470484
v 0.137073 0.256068 0.473705
v -0.118751 0.259289 0.202779
v -0.120085 0.256068 0.199558
v -0.133852 0.259289 0.217881
v -0.137073 0.256068 0.216546
v 0.133852 0.259289 0.217881
v 0.137073 0.256068 0.216546
v 0.118751 0.259289 0.202779
v 0.120085 0.256068 0.199558
v -0.100207 0.246452 0.577504
v -0.100207 0.250087 0.573869
v 0.100207 0.250087 0.573869
v 0.100207 0.246452 0.577504
v 0.108782 0.246402 0.611222
v 0.108782 0.249823 0.607801
v 0.128398 0.249823 0.607801
v 0.128398 0.246402 0.611222
v -0.129472 0.246666 0.611222
v -0.129472 0.250087 0.607801
v -0.109856 0.250087 0.607801
v -0.109856 0.246666 0.611222
v -0.166493 -0.122289 0.261042
v -0.166493 0.250009 0.261042
v -0.166493 -0.122289 0.236670
v -0.166493 0.250009 0.236670
v 0.166493 -0.122289 0.261042
v 0.166493 0.250009 0.261042
v 0.166493 -0.122289 0.236670
v 0.166493 0.250009 0.236670
v -0.183885 -0.129729 0.236670
v -0.183885 -0.129729 0.261042
v -0.183885 0.242569 0.261042
v -0.183885 0.242569 0.236670
v 0.183885 0.242569 0.236670
v 0.183885 -0.129729 0.236670
v 0.183885 -0.129729 0.261042
v 0.183885 0.242569 0.261042
v -0.166493 -0.122289 0.435677
v -0.166493 0.250009 0.435677
v -0.166493 -0.122289 0.411305
v -0.166493 0.250009 0.411305
v 0.166493 -0.122289 0.435677
v 0.166493 0.250009 0.435677
v 0.166493 -0.122289 0.411305
v 0.166493 0.250009 0.411305
v -0.183885 -0.129729 0.411305
v -0.183885 -0.129729 0.435677
v -0.183885 0.242569 0.435677
v -0.183885 0.242569 0.411305
v 0.183885 0.242569 0.411305
v 0.183885 -0.129729 0.411305
v 0.183885 -0.129729 0.435677
v 0.183885 0.242569 0.435677
vt 0.625000 0.750000
vt 0.625000 0.500000
vt 0.625000 0.500000
vt 0.625000 0.250000
vt 0.375000 0.500000
vt 0.375000 0.250000
vt 0.375000 1.000000
vt 0.625000 1.000000
vt 0.375000 1.000000
vt 0.375000 0.750000
vt 0.125000 0.750000
vt 0.125000 0.500000
vt 0.875000 0.500000
vt 0.625000 0.000000
vt 0.375000 0.250000
vt 0.375000 0.000000
vt 0.375000 0.750000
vt 0.375000 0.500000
vt 0.875000 0.750000
vt 0.875000 0.750000
vt 0.125000 0.500000
vt 0.625000 0.750000
vt 0.625000 0.250000
vt 0.625000 0.750000
vt 0.625000 0.500000
vt 0.625000 0.500000
vt 0.625000 0.250000
vt 0.375000 0.500000
vt 0.375000 0.250000
vt 0.375000 1.000000
vt 0.625000 1.000000
vt 0.375000 1.000000
vt 0.375000 0.750000
vt 0.125000 0.750000
vt 0.125000 0.500000
vt 0.875000 0.500000
vt 0.625000 0.000000
vt 0.375000 0.250000
vt 0.375000 0.000000
vt 0.375000 0.750000
vt 0.375000 0.500000
vt 0.875000 0.750000
vt 0.875000 0.750000
vt 0.125000 0.500000
vt 0.625000 0.750000
vt 0.625000 0.250000
vt 0.625000 1.000000
vt 0.875000 0.500000
vt 0.125000 0.750000
vt 0.625000 1.000000
vt 0.875000 0.500000
vt 0.125000 0.750000
vt 0.875000 0.500000
vt 0.625000 0.745733
vt 0.625000 0.500000
vt 0.625000 0.250000
vt 0.375000 0.500000
vt 0.375000 0.250000
vt 0.607903 0.750000
vt 0.375000 1.000000
vt 0.375000 0.750000
vt 0.625000 0.004267
vt 0.125000 0.750000
vt 0.125000 0.500000
vt 0.607903 0.750000
vt 0.375000 0.750000
vt 0.375000 0.515492
vt 0.613232 0.484508
vt 0.613232 0.515492
vt 0.375000 0.750000
vt 0.872063 0.516709
vt 0.872063 0.747063
vt 0.627937 0.747063
vt 0.613232 0.750000
vt 0.375000 1.000000
vt 0.375000 0.265492
vt 0.613232 0.234508
vt 0.613232 0.265492
vt 0.375000 0.484508
vt 0.125000 0.750000
vt 0.875000 0.500000
vt 0.625000 0.745465
vt 0.625000 0.500000
vt 0.625000 0.250000
vt 0.375000 0.500000
vt 0.375000 0.250000
vt 0.625000 0.004535
vt 0.125000 0.750000
vt 0.125000 0.500000
vt 0.606833 0.750000
vt 0.375000 0.750000
vt 0.875000 0.500000
vt 0.625000 0.745733
vt 0.625000 0.500000
vt 0.625000 0.250000
vt 0.375000 0.500000
vt 0.375000 0.250000
vt 0.625000 0.004267
vt 0.125000 0.750000
vt 0.125000 0.500000
vt 0.625000 0.762339
vt 0.375000 0.987661
vt 0.375000 0.762339
vt 0.625000 0.512339
vt 0.375000 0.737661
vt 0.375000 0.512339
vt 0.625000 0.239732
vt 0.625000 0.260198
vt 0.625000 0.260268
vt 0.625000 0.012339
vt 0.375000 0.237661
vt 0.375000 0.012339
vt 0.625000 0.262339
vt 0.375000 0.487661
vt 0.375000 0.262339
vt 0.625000 0.000000
vt 0.375000 0.000000
vt 0.625000 0.237661
vt 0.625000 0.487661
vt 0.625000 0.737661
vt 0.137339 0.750000
vt 0.125000 0.737661
vt 0.625000 0.489732
vt 0.625000 0.510198
vt 0.625000 0.510268
vt 0.625000 0.264029
vt 0.625000 0.485914
vt 0.625000 0.485971
vt 0.639086 0.500000
vt 0.875000 0.514086
vt 0.860914 0.750000
vt 0.625000 0.014029
vt 0.625000 0.235914
vt 0.625000 0.235971
vt 0.625000 0.514029
vt 0.625000 0.735914
vt 0.625000 0.735971
vt 0.625000 0.764029
vt 0.625000 0.985914
vt 0.625000 0.985971
vt 0.625000 0.760268
vt 0.625000 0.739802
vt 0.625000 0.760198
vt 0.625000 0.987661
vt 0.625000 0.739732
vt 0.625000 0.001035
vt 0.625000 0.011303
vt 0.625000 0.000000
vt 0.625000 0.000000
vt 0.625000 0.013225
vt 0.625000 0.012339
vt 0.625000 0.239110
vt 0.625000 0.237661
vt 0.625000 0.264112
vt 0.625000 0.262339
vt 0.625000 0.489110
vt 0.625000 0.487661
vt 0.625000 0.514112
vt 0.625000 0.512339
vt 0.625000 0.739110
vt 0.625000 0.737661
vt 0.625000 0.764112
vt 0.625000 0.762339
vt 0.625000 0.489802
vt 0.625000 0.001071
vt 0.625000 0.000000
vt 0.625000 0.239803
vt 0.625000 0.011268
vt 0.625000 0.750000
vt 0.858291 0.502937
vt 0.875000 0.515492
vt 0.641709 0.502937
vt 0.625000 0.515492
vt 0.640492 0.500000
vt 0.875000 0.750000
vt 0.859508 0.500000
vt 0.613232 0.000000
vt 0.375000 0.234508
vt 0.375000 0.000000
vt 0.625000 1.000000
vt 0.625000 0.750000
vt 0.375000 1.000000
vt 0.625000 1.000000
vt 0.625000 0.750000
vt 0.625000 1.000000
vt 0.625000 0.750000
vt 0.375000 1.000000
vt 0.875000 0.745733
vt 0.607903 1.000000
vt 0.375000 0.000000
vt 0.607903 0.000000
vt 0.627937 0.516709
vt 0.613232 1.000000
vt 0.125000 0.515492
vt 0.140492 0.500000
vt 0.359508 0.500000
vt 0.875000 0.745465
vt 0.375000 0.000000
vt 0.606833 0.000000
vt 0.875000 0.745733
vt 0.375000 0.000000
vt 0.607903 0.000000
vt 0.125000 0.512339
vt 0.137339 0.500000
vt 0.362662 0.500000
vt 0.362661 0.750000
vt 0.625000 0.264086
vt 0.625000 0.514086
vt 0.626070 0.511268
vt 0.636268 0.501070
vt 0.860914 0.500000
vt 0.863732 0.501070
vt 0.873930 0.511268
vt 0.875000 0.735914
vt 0.873930 0.738732
vt 0.863732 0.748930
vt 0.639086 0.750000
vt 0.636268 0.748930
vt 0.626070 0.738732
vt 0.625000 0.014086
vt 0.625000 0.764086
vt 0.625000 0.987661
vt 0.606833 1.000000
vt 0.607903 1.000000
vn 0.3933 0.9194 0.0000
vn 0.0000 0.0000 -1.0000
vn 0.0000 0.0000 1.0000
vn 0.0000 -1.0000 0.0000
vn 0.0000 1.0000 0.0000
vn -1.0000 0.0000 0.0000
vn 1.0000 0.0000 0.0000
vn -0.3933 0.9194 0.0000
vn 0.3933 -0.9194 0.0000
vn -0.3933 -0.9194 0.0000
vn 0.7071 0.0000 -0.7071
vn -0.7071 0.0000 -0.7071
vn 0.0000 -0.0979 0.9952
vn 0.9952 -0.0979 0.0000
vn 0.7152 0.5147 0.4729
vn 0.4573 0.5133 0.7262
vn 0.4729 0.5147 0.7152
vn -0.9952 -0.0979 0.0000
vn 0.0000 -0.0979 -0.9952
vn -0.7010 -0.1311 0.7010
vn -0.7010 -0.1311 -0.7010
vn 0.7010 -0.1311 -0.7010
vn 0.7010 -0.1311 0.7010
vn -0.4729 0.5147 0.7152
vn -0.7262 0.5133 0.4573
vn -0.7152 0.5147 0.4729
vn 0.1853 0.4656 0.8654
vn -0.1309 0.4513 0.8827
vn -0.1853 0.4656 0.8654
vn 0.8654 0.4656 -0.1853
vn 0.8827 0.4513 0.1309
vn 0.8654 0.4656 0.1853
vn -0.8654 0.4656 0.1853
vn -0.8827 0.4513 -0.1309
vn -0.8654 0.4656 -0.1853
vn -0.1853 0.4656 -0.8654
vn 0.1309 0.4513 -0.8827
vn 0.1853 0.4656 -0.8654
vn -0.4729 0.5147 -0.7152
vn -0.7262 0.5133 -0.4573
vn -0.4573 0.5133 -0.7262
vn -0.4573 0.5133 0.7262
vn 0.4573 0.5133 -0.7262
vn -0.7152 0.5147 -0.4729
vn 0.7262 0.5133 0.4573
vn 0.7262 0.5133 -0.4573
vn 0.7152 0.5147 -0.4729
vn 0.4729 0.5147 -0.7152
vn 0.0000 0.7071 0.7071
vn -0.5000 0.7071 -0.5000
vn 0.5000 0.7071 -0.5000
vn -0.7071 0.7071 0.0000
vn 0.0000 0.7071 -0.7071
vn 0.7071 0.7071 0.0000
vn 0.1309 0.4513 0.8827
vn 0.8827 0.4513 -0.1309
vn -0.8827 0.4513 0.1309
vn -0.1309 0.4513 -0.8827
s off
f 110/1/1 117/2/1 112/3/1
f 108/4/2 111/5/2 107/6/2
f 105/7/3 115/8/3 114/9/3
f 110/1/3 105/7/3 109/10/3
f 111/5/4 105/11/4 107/12/4
f 108/13/5 110/1/5 112/3/5
f 115/14/6 113/15/6 114/16/6
f 117/2/7 119/17/7 118/18/7
f 111/5/2 117/2/2 118/18/2
f 108/13/8 115/19/8 106/20/8
f 105/11/9 113/21/9 107/12/9
f 109/10/3 120/22/3 110/1/3
f 111/5/10 119/17/10 109/10/10
f 107/6/2 116/23/2 108/4/2
f 126/24/1 133/25/1 128/26/1
f 124/27/2 127/28/2 123/29/2
f 121/30/3 131/31/3 130/32/3
f 126/24/3 121/30/3 125/33/3
f 127/28/4 121/34/4 123/35/4
f 124/36/5 126/24/5 128/26/5
f 131/37/6 129/38/6 130/39/6
f 133/25/7 135/40/7 134/41/7
f 127/28/2 133/25/2 134/41/2
f 124/36/8 131/42/8 122/43/8
f 121/34/9 129/44/9 123/35/9
f 125/33/3 136/45/3 126/24/3
f 127/28/10 135/40/10 125/33/10
f 123/29/2 132/46/2 124/27/2
f 110/1/1 120/22/1 117/2/1
f 108/4/2 112/3/2 111/5/2
f 105/7/3 106/47/3 115/8/3
f 110/1/3 106/47/3 105/7/3
f 111/5/4 109/10/4 105/11/4
f 108/13/5 106/20/5 110/1/5
f 115/14/6 116/23/6 113/15/6
f 117/2/7 120/22/7 119/17/7
f 111/5/2 112/3/2 117/2/2
f 108/13/8 116/48/8 115/19/8
f 105/11/9 114/49/9 113/21/9
f 109/10/3 119/17/3 120/22/3
f 111/5/10 118/18/10 119/17/10
f 107/6/2 113/15/2 116/23/2
f 126/24/1 136/45/1 133/25/1
f 124/27/2 128/26/2 127/28/2
f 121/30/3 122/50/3 131/31/3
f 126/24/3 122/50/3 121/30/3
f 127/28/4 125/33/4 121/34/4
f 124/36/5 122/43/5 126/24/5
f 131/37/6 132/46/6 129/38/6
f 133/25/7 136/45/7 135/40/7
f 127/28/2 128/26/2 133/25/2
f 124/36/8 132/51/8 131/42/8
f 121/34/9 130/52/9 129/44/9
f 125/33/3 135/40/3 136/45/3
f 127/28/10 134/41/10 135/40/10
f 123/29/2 129/38/2 132/46/2
s 1
f 3/53/5 99/54/5 6/55/5
f 3/56/2 5/57/2 2/58/2
f 104/59/3 19/60/3 22/61/3
f 98/62/6 3/56/6 2/58/6
f 5/57/4 1/63/4 2/64/4
f 99/54/7 100/65/7 4/66/7
f 12/67/11 92/68/11 90/69/11
f 90/69/7 8/70/7 12/67/7
f 87/71/5 81/72/5 83/73/5
f 84/74/3 7/75/3 8/70/3
f 10/76/12 88/77/12 86/78/12
f 86/78/2 11/79/2 10/76/2
f 12/67/4 8/70/4 7/80/4
f 15/81/5 95/82/5 18/83/5
f 15/84/2 17/85/2 14/86/2
f 94/87/6 15/84/6 14/86/6
f 17/85/4 13/88/4 14/89/4
f 95/82/7 96/90/7 16/91/7
f 21/92/5 103/93/5 24/94/5
f 21/95/2 23/96/2 20/97/2
f 102/98/6 21/95/6 20/97/6
f 23/96/4 19/99/4 20/100/4
f 103/93/7 104/59/7 22/61/7
f 35/101/13 25/102/13 34/103/13
f 39/104/14 33/105/14 38/106/14
f 48/107/15 72/108/16 50/109/17
f 27/110/18 29/111/18 26/112/18
f 31/113/19 37/114/19 30/115/19
f 28/116/20 26/112/20 25/117/20
f 31/113/21 29/111/21 32/118/21
f 38/106/22 40/119/22 39/104/22
f 35/101/23 33/105/23 36/120/23
f 25/121/4 26/122/4 38/106/4
f 54/123/24 76/124/25 56/125/26
f 51/126/27 74/127/28 53/128/29
f 74/129/5 70/130/5 66/131/5
f 45/132/30 70/133/31 47/134/32
f 57/135/33 78/136/34 59/137/35
f 51/126/5 53/128/5 40/119/5
f 63/138/36 66/139/37 41/140/38
f 62/141/39 77/142/40 80/143/41
f 63/138/5 41/140/5 28/144/5
f 60/145/5 62/141/5 36/120/5
f 48/107/5 50/109/5 32/118/5
f 57/135/5 59/137/5 36/120/5
f 45/132/5 47/134/5 32/118/5
f 54/123/5 56/125/5 40/119/5
f 42/146/5 44/147/5 28/116/5
f 41/148/5 42/146/5 43/149/5
f 44/147/5 45/150/5 46/151/5
f 47/134/5 48/152/5 49/153/5
f 50/109/5 51/154/5 52/155/5
f 53/128/5 54/156/5 55/157/5
f 56/125/5 57/158/5 58/159/5
f 59/137/5 60/160/5 61/161/5
f 62/141/5 63/162/5 64/163/5
f 72/108/16 51/126/27 50/109/17
f 73/164/42 53/128/29 74/127/28
f 80/143/41 63/138/36 62/141/39
f 65/165/43 41/148/38 66/166/37
f 59/137/35 77/142/40 60/145/44
f 47/134/32 69/167/45 48/107/15
f 76/124/25 57/135/33 56/125/26
f 68/168/46 45/132/30 44/147/47
f 42/146/48 68/168/46 44/147/47
f 81/72/49 84/169/49 83/73/49
f 85/170/50 88/171/50 87/71/50
f 91/172/51 90/173/51 92/174/51
f 81/72/52 88/171/52 82/175/52
f 91/172/53 86/176/53 85/170/53
f 90/69/54 83/73/54 84/74/54
f 82/177/6 9/178/6 7/179/6
f 94/180/49 96/90/49 95/181/49
f 96/90/3 13/182/3 16/91/3
f 98/183/49 100/65/49 99/184/49
f 102/185/49 104/59/49 103/186/49
f 100/65/3 1/187/3 4/66/3
f 3/53/5 98/188/5 99/54/5
f 3/56/2 6/55/2 5/57/2
f 104/59/3 101/189/3 19/60/3
f 2/58/6 1/190/6 98/62/6
f 1/190/6 97/191/6 98/62/6
f 5/57/4 4/66/4 1/63/4
f 4/66/7 5/57/7 99/54/7
f 5/57/7 6/55/7 99/54/7
f 12/67/11 11/79/11 92/68/11
f 90/69/7 84/74/7 8/70/7
f 83/73/5 89/192/5 87/71/5
f 89/192/5 91/172/5 87/71/5
f 91/172/5 85/170/5 87/71/5
f 84/74/3 82/193/3 7/75/3
f 10/76/12 9/178/12 88/77/12
f 86/78/2 92/68/2 11/79/2
f 7/80/4 9/194/4 12/67/4
f 9/194/4 10/195/4 12/67/4
f 10/195/4 11/196/4 12/67/4
f 15/81/5 94/197/5 95/82/5
f 15/84/2 18/83/2 17/85/2
f 14/86/6 13/198/6 94/87/6
f 13/198/6 93/199/6 94/87/6
f 17/85/4 16/91/4 13/88/4
f 16/91/7 17/85/7 95/82/7
f 17/85/7 18/83/7 95/82/7
f 21/92/5 102/200/5 103/93/5
f 21/95/2 24/94/2 23/96/2
f 20/97/6 19/201/6 102/98/6
f 19/201/6 101/202/6 102/98/6
f 23/96/4 22/61/4 19/99/4
f 22/61/7 23/96/7 103/93/7
f 23/96/7 24/94/7 103/93/7
f 35/101/13 28/144/13 25/102/13
f 39/104/14 36/120/14 33/105/14
f 48/107/15 69/167/45 72/108/16
f 27/110/18 32/118/18 29/111/18
f 31/113/19 40/119/19 37/114/19
f 28/116/20 27/110/20 26/112/20
f 31/113/21 30/115/21 29/111/21
f 38/106/22 37/114/22 40/119/22
f 35/101/23 34/103/23 33/105/23
f 26/122/4 29/203/4 30/204/4
f 30/204/4 37/205/4 26/122/4
f 37/205/4 38/106/4 26/122/4
f 38/106/4 33/105/4 34/206/4
f 34/206/4 25/121/4 38/106/4
f 54/123/24 73/164/42 76/124/25
f 51/126/27 71/207/55 74/127/28
f 78/136/5 75/208/5 74/129/5
f 75/208/5 76/209/5 74/129/5
f 76/209/5 73/210/5 74/129/5
f 74/129/5 71/211/5 70/130/5
f 71/211/5 72/212/5 70/130/5
f 72/212/5 69/213/5 70/130/5
f 70/130/5 67/214/5 66/131/5
f 67/214/5 68/215/5 66/131/5
f 68/215/5 65/216/5 66/131/5
f 66/131/5 79/217/5 78/136/5
f 79/217/5 80/218/5 78/136/5
f 80/218/5 77/219/5 78/136/5
f 78/136/5 74/129/5 66/131/5
f 45/132/30 67/220/56 70/133/31
f 57/135/33 75/208/57 78/136/34
f 55/157/5 40/119/5 53/128/5
f 40/119/5 31/113/5 51/126/5
f 31/113/5 52/155/5 51/126/5
f 63/138/36 79/221/58 66/139/37
f 62/141/39 60/145/44 77/142/40
f 43/222/5 28/144/5 41/140/5
f 28/144/5 35/101/5 63/138/5
f 35/101/5 64/163/5 63/138/5
f 64/163/5 35/101/5 62/141/5
f 35/101/5 36/120/5 62/141/5
f 36/120/5 61/161/5 60/145/5
f 52/155/5 31/113/5 50/109/5
f 31/113/5 32/118/5 50/109/5
f 32/118/5 49/153/5 48/107/5
f 61/161/5 36/120/5 59/137/5
f 36/120/5 39/104/5 57/135/5
f 39/104/5 58/159/5 57/135/5
f 49/153/5 32/118/5 47/134/5
f 32/118/5 27/110/5 45/132/5
f 27/110/5 46/151/5 45/132/5
f 58/159/5 39/104/5 56/125/5
f 39/104/5 40/119/5 56/125/5
f 40/119/5 55/157/5 54/123/5
f 46/151/5 27/110/5 44/147/5
f 27/110/5 28/116/5 44/147/5
f 28/116/5 43/149/5 42/146/5
f 72/108/16 71/207/55 51/126/27
f 73/164/42 54/123/24 53/128/29
f 80/143/41 79/221/58 63/138/36
f 65/165/43 42/146/48 41/148/38
f 59/137/35 78/136/34 77/142/40
f 47/134/32 70/133/31 69/167/45
f 76/124/25 75/208/57 57/135/33
f 68/168/46 67/220/56 45/132/30
f 42/146/48 65/165/43 68/168/46
f 81/72/49 82/175/49 84/169/49
f 85/170/50 86/176/50 88/171/50
f 91/172/51 89/192/51 90/173/51
f 81/72/52 87/71/52 88/171/52
f 91/172/53 92/174/53 86/176/53
f 90/69/54 89/192/54 83/73/54
f 82/177/6 88/77/6 9/178/6
f 94/180/49 93/223/49 96/90/49
f 96/90/3 93/223/3 13/182/3
f 98/183/49 97/224/49 100/65/49
f 102/185/49 101/189/49 104/59/49
f 100/65/3 97/224/3 1/187/3
