# Blender v3.4.1 OBJ File: 'station.blend'
# www.blender.org
o Floater_1_Spokes_Cube.204
v -0.016285 0.260966 0.927748
v -0.016285 0.293535 0.927748
v -0.016285 0.260966 -0.927748
v -0.016285 0.293535 -0.927748
v 0.016285 0.260966 0.927748
v 0.016285 0.293535 0.927748
v 0.016285 0.260966 -0.927748
v 0.016285 0.293535 -0.927748
v 0.795311 0.260966 0.477977
v 0.795311 0.293535 0.477977
v -0.811596 0.260966 -0.449771
v -0.811596 0.293535 -0.449771
v 0.811596 0.260966 0.449771
v 0.811596 0.293535 0.449771
v -0.795311 0.260966 -0.477977
v -0.795311 0.293535 -0.477977
v 0.811596 0.260966 -0.449771
v 0.811596 0.293535 -0.449771
v -0.795311 0.260966 0.477977
v -0.795311 0.293535 0.477977
v 0.795311 0.260966 -0.477977
v 0.795311 0.293535 -0.477977
v -0.811596 0.260966 0.449771
v -0.811596 0.293535 0.449771
vt 0.625000 0.000000
vt 0.375000 0.250000
vt 0.375000 0.000000
vt 0.625000 0.250000
vt 0.375000 0.500000
vt 0.625000 0.500000
vt 0.375000 0.750000
vt 0.625000 0.750000
vt 0.375000 1.000000
vt 0.125000 0.500000
vt 0.125000 0.750000
vt 0.875000 0.500000
vt 0.625000 0.000000
vt 0.375000 0.250000
vt 0.375000 0.000000
vt 0.625000 0.250000
vt 0.375000 0.500000
vt 0.625000 0.500000
vt 0.375000 0.750000
vt 0.625000 0.750000
vt 0.375000 1.000000
vt 0.125000 0.750000
vt 0.125000 0.500000
vt 0.875000 0.750000
vt 0.625000 0.000000
vt 0.375000 0.250000
vt 0.375000 0.000000
vt 0.625000 0.250000
vt 0.375000 0.500000
vt 0.625000 0.500000
vt 0.375000 0.750000
vt 0.625000 0.750000
vt 0.375000 1.000000
vt 0.125000 0.500000
vt 0.125000 0.750000
vt 0.875000 0.500000
vt 0.625000 1.000000
vt 0.875000 0.750000
vt 0.625000 1.000000
vt 0.875000 0.500000
vt 0.625000 1.000000
vt 0.875000 0.750000
vn -1.0000 0.0000 -0.0000
vn 0.0000 0.0000 -1.0000
vn 1.0000 0.0000 0.0000
vn 0.0000 0.0000 1.0000
vn 0.0000 -1.0000 0.0000
vn 0.0000 1.0000 -0.0000
vn -0.5000 0.0000 0.8660
vn -0.8660 0.0000 -0.5000
vn 0.5000 0.0000 -0.8660
vn 0.8660 0.0000 0.5000
vn 0.5000 0.0000 0.8660
vn -0.8660 0.0000 0.5000
vn -0.5000 0.0000 -0.8660
vn 0.8660 0.0000 -0.5000
s off
f 2/1/1 3/2/1 1/3/1
f 4/4/2 7/5/2 3/2/2
f 8/6/3 5/7/3 7/5/3
f 6/8/4 1/9/4 5/7/4
f 3/10/5 5/7/5 1/11/5
f 4/12/6 6/8/6 8/6/6
f 10/13/7 11/14/7 9/15/7
f 12/16/8 15/17/8 11/14/8
f 16/18/9 13/19/9 15/17/9
f 14/20/10 9/21/10 13/19/10
f 15/17/5 9/22/5 11/23/5
f 16/18/6 10/24/6 14/20/6
f 18/25/11 19/26/11 17/27/11
f 20/28/12 23/29/12 19/26/12
f 24/30/13 21/31/13 23/29/13
f 22/32/14 17/33/14 21/31/14
f 19/34/5 21/31/5 17/35/5
f 20/36/6 22/32/6 24/30/6
f 2/1/1 4/4/1 3/2/1
f 4/4/2 8/6/2 7/5/2
f 8/6/3 6/8/3 5/7/3
f 6/8/4 2/37/4 1/9/4
f 3/10/5 7/5/5 5/7/5
f 4/12/6 2/38/6 6/8/6
f 10/13/7 12/16/7 11/14/7
f 12/16/8 16/18/8 15/17/8
f 16/18/9 14/20/9 13/19/9
f 14/20/10 10/39/10 9/21/10
f 15/17/5 13/19/5 9/22/5
f 16/18/6 12/40/6 10/24/6
f 18/25/11 20/28/11 19/26/11
f 20/28/12 24/30/12 23/29/12
f 24/30/13 22/32/13 21/31/13
f 22/32/14 18/41/14 17/33/14
f 19/34/5 23/29/5 21/31/5
f 20/36/6 18/42/6 22/32/6
