# Blender v3.4.1 OBJ File: 'station.blend'
# www.blender.org
o Girder_4_Core_Cube.402
v -0.100000 -0.119297 1.000000
v -0.069297 -0.150000 1.000000
v -0.095887 -0.134648 1.000000
v -0.084648 -0.145887 1.000000
v -0.069297 0.150000 1.000000
v -0.100000 0.119297 1.000000
v -0.084648 0.145887 1.000000
v -0.095887 0.134648 1.000000
v -0.069297 -0.150000 -1.000000
v -0.100000 -0.119297 -1.000000
v -0.084648 -0.145887 -1.000000
v -0.095887 -0.134648 -1.000000
v -0.100000 0.119297 -1.000000
v -0.069297 0.150000 -1.000000
v -0.095887 0.134648 -1.000000
v -0.084648 0.145887 -1.000000
v 0.069297 -0.150000 1.000000
v 0.100000 -0.119297 1.000000
v 0.084648 -0.145887 1.000000
v 0.095887 -0.134648 1.000000
v 0.100000 0.119297 1.000000
v 0.069297 0.150000 1.000000
v 0.095887 0.134648 1.000000
v 0.084648 0.145887 1.000000
v 0.100000 -0.119297 -1.000000
v 0.069297 -0.150000 -1.000000
v 0.095887 -0.134648 -1.000000
v 0.084648 -0.145887 -1.000000
v 0.069297 0.150000 -1.000000
v 0.100000 0.119297 -1.000000
v 0.084648 0.145887 -1.000000
v 0.095887 0.134648 -1.000000
vt 0.400586 1.000000
vt 0.375000 0.961621
vt 0.400586 0.750000
vt 0.599414 0.500000
vt 0.400586 0.500000
vt 0.836621 0.500000
vt 0.663379 0.750000
vt 0.663379 0.500000
vt 0.599414 0.000000
vt 0.400586 0.250000
vt 0.400586 0.000000
vt 0.375000 0.461621
vt 0.163379 0.750000
vt 0.144190 0.500000
vt 0.163379 0.500000
vt 0.144190 0.750000
vt 0.125000 0.500000
vt 0.375000 0.000000
vt 0.375000 0.250000
vt 0.875000 0.750000
vt 0.836621 0.750000
vt 0.625000 0.250000
vt 0.612207 0.000000
vt 0.625000 0.000000
vt 0.612207 0.250000
vt 0.336621 0.500000
vt 0.355810 0.750000
vt 0.336621 0.750000
vt 0.355810 0.500000
vt 0.387793 0.750000
vt 0.387793 0.500000
vt 0.644190 0.500000
vt 0.644190 0.750000
vt 0.612207 0.500000
vt 0.612207 0.750000
vt 0.375000 0.788379
vt 0.378428 0.769190
vt 0.387793 0.755142
vt 0.599414 0.750000
vt 0.599414 1.000000
vt 0.612207 0.755142
vt 0.625000 0.788379
vt 0.621572 0.769190
vt 0.625000 0.961621
vt 0.621572 0.980810
vt 0.612207 0.994858
vt 0.387793 0.994858
vt 0.378428 0.980810
vt 0.599414 0.250000
vt 0.375000 0.288379
vt 0.378428 0.269190
vt 0.387793 0.255142
vt 0.612207 0.255142
vt 0.625000 0.288379
vt 0.621572 0.269190
vt 0.625000 0.461621
vt 0.621572 0.480810
vt 0.612207 0.494858
vt 0.387793 0.494858
vt 0.378428 0.480810
vt 0.125000 0.750000
vt 0.875000 0.500000
vn 0.0000 0.0000 1.0000
vn 0.9914 0.1305 0.0000
vn 0.9914 -0.1305 0.0000
vn -0.1305 0.9914 0.0000
vn 0.1305 0.9914 -0.0000
vn -0.9914 0.1305 0.0000
vn -0.9914 -0.1305 0.0000
vn 0.0000 0.0000 -1.0000
vn -0.1305 -0.9914 -0.0000
vn -0.5000 -0.8660 -0.0000
vn -0.8660 -0.5000 0.0000
vn -0.5000 0.8660 0.0000
vn -0.8660 0.5000 0.0000
vn 0.1305 -0.9914 0.0000
vn 0.5000 -0.8660 0.0000
vn 0.8660 -0.5000 0.0000
vn 0.5000 0.8660 -0.0000
vn 0.8660 0.5000 0.0000
s 1
f 1/1/1 2/2/1 18/3/1
f 30/4/2 18/3/3 25/5/3
f 14/6/4 22/7/5 29/8/5
f 6/9/6 10/10/7 1/11/7
f 25/5/8 26/12/8 10/10/8
f 2/13/9 11/14/10 9/15/9
f 4/16/10 12/17/11 11/14/10
f 3/18/11 10/10/7 12/19/11
f 14/6/4 7/20/12 5/21/4
f 16/22/12 8/23/13 7/24/12
f 15/25/13 6/9/6 8/23/13
f 26/26/14 19/27/15 17/28/14
f 28/29/15 20/30/16 19/27/15
f 27/31/16 18/3/3 20/30/16
f 22/7/5 31/32/17 29/8/5
f 24/33/17 32/34/18 31/32/17
f 23/35/18 30/4/2 32/34/18
f 26/26/14 2/13/9 9/15/9
f 2/2/1 17/36/1 18/3/1
f 17/36/1 19/37/1 18/3/1
f 19/37/1 20/38/1 18/3/1
f 18/3/1 21/39/1 6/40/1
f 21/39/1 23/41/1 22/42/1
f 23/41/1 24/43/1 22/42/1
f 22/42/1 5/44/1 6/40/1
f 5/44/1 7/45/1 6/40/1
f 7/45/1 8/46/1 6/40/1
f 6/40/1 1/1/1 18/3/1
f 1/1/1 3/47/1 2/2/1
f 3/47/1 4/48/1 2/2/1
f 21/39/1 22/42/1 6/40/1
f 30/4/2 21/39/2 18/3/3
f 14/6/4 5/21/4 22/7/5
f 6/9/6 13/49/6 10/10/7
f 26/12/8 9/50/8 10/10/8
f 9/50/8 11/51/8 10/10/8
f 11/51/8 12/52/8 10/10/8
f 10/10/8 13/49/8 30/4/8
f 13/49/8 15/53/8 14/54/8
f 15/53/8 16/55/8 14/54/8
f 14/54/8 29/56/8 30/4/8
f 29/56/8 31/57/8 30/4/8
f 31/57/8 32/58/8 30/4/8
f 30/4/8 25/5/8 10/10/8
f 25/5/8 27/59/8 26/12/8
f 27/59/8 28/60/8 26/12/8
f 13/49/8 14/54/8 30/4/8
f 2/13/9 4/16/10 11/14/10
f 4/16/10 3/61/11 12/17/11
f 3/18/11 1/11/7 10/10/7
f 14/6/4 16/62/12 7/20/12
f 16/22/12 15/25/13 8/23/13
f 15/25/13 13/49/6 6/9/6
f 26/26/14 28/29/15 19/27/15
f 28/29/15 27/31/16 20/30/16
f 27/31/16 25/5/3 18/3/3
f 22/7/5 24/33/17 31/32/17
f 24/33/17 23/35/18 32/34/18
f 23/35/18 21/39/2 30/4/2
f 26/26/14 17/28/14 2/13/9
