# Blender v3.4.1 OBJ File: 'station.blend'
# www.blender.org
o Girder_6_Core_Cube.146
v -0.120000 -0.067451 1.000000
v -0.103451 -0.084000 1.000000
v -0.119190 -0.072565 1.000000
v -0.116839 -0.077178 1.000000
v -0.113178 -0.080839 1.000000
v -0.108565 -0.083190 1.000000
v -0.103451 0.084000 1.000000
v -0.120000 0.067451 1.000000
v -0.108565 0.083190 1.000000
v -0.113178 0.080839 1.000000
v -0.116839 0.077178 1.000000
v -0.119190 0.072565 1.000000
v -0.103451 -0.084000 -1.000000
v -0.120000 -0.067451 -1.000000
v -0.108565 -0.083190 -1.000000
v -0.113178 -0.080839 -1.000000
v -0.116839 -0.077178 -1.000000
v -0.119190 -0.072565 -1.000000
v -0.120000 0.067451 -1.000000
v -0.103451 0.084000 -1.000000
v -0.119190 0.072565 -1.000000
v -0.116839 0.077178 -1.000000
v -0.113178 0.080839 -1.000000
v -0.108565 0.083190 -1.000000
v 0.103451 -0.084000 1.000000
v 0.120000 -0.067451 1.000000
v 0.108565 -0.083190 1.000000
v 0.113178 -0.080839 1.000000
v 0.116839 -0.077178 1.000000
v 0.119190 -0.072565 1.000000
v 0.120000 0.067451 1.000000
v 0.103451 0.084000 1.000000
v 0.119190 0.072565 1.000000
v 0.116839 0.077178 1.000000
v 0.113178 0.080839 1.000000
v 0.108565 0.083190 1.000000
v 0.120000 -0.067451 -1.000000
v 0.103451 -0.084000 -1.000000
v 0.119190 -0.072565 -1.000000
v 0.116839 -0.077178 -1.000000
v 0.113178 -0.080839 -1.000000
v 0.108565 -0.083190 -1.000000
v 0.103451 0.084000 -1.000000
v 0.120000 0.067451 -1.000000
v 0.108565 0.083190 -1.000000
v 0.113178 0.080839 -1.000000
v 0.116839 0.077178 -1.000000
v 0.119190 0.072565 -1.000000
v -0.028322 -0.087804 1.000000
v -0.028322 0.087804 1.000000
v -0.028322 -0.087804 -1.000000
v -0.028322 0.087804 -1.000000
v 0.028322 -0.087804 1.000000
v 0.028322 0.087804 1.000000
v 0.028322 -0.087804 -1.000000
v 0.028322 0.087804 -1.000000
v 0.123727 -0.026886 1.000000
v -0.123727 -0.026886 1.000000
v 0.123727 -0.026886 -1.000000
v -0.123727 -0.026886 -1.000000
v 0.123727 0.026886 1.000000
v -0.123727 0.026886 1.000000
v 0.123727 0.026886 -1.000000
v -0.123727 0.026886 -1.000000
vt 0.625000 0.000000
vt 0.375000 0.250000
vt 0.375000 0.000000
vt 0.625000 0.250000
vt 0.375000 0.500000
vt 0.625000 0.500000
vt 0.375000 0.750000
vt 0.625000 0.750000
vt 0.375000 1.000000
vt 0.125000 0.750000
vt 0.125000 0.500000
vt 0.875000 0.500000
vt 0.625000 0.000000
vt 0.375000 0.250000
vt 0.375000 0.000000
vt 0.625000 0.250000
vt 0.375000 0.500000
vt 0.625000 0.500000
vt 0.375000 0.750000
vt 0.625000 0.750000
vt 0.375000 1.000000
vt 0.125000 0.750000
vt 0.125000 0.500000
vt 0.875000 0.500000
vt 0.625000 1.000000
vt 0.875000 0.750000
vt 0.625000 1.000000
vt 0.875000 0.750000
vt 0.625000 0.982762
vt 0.614849 0.996708
vt 0.600374 1.000000
vt 0.600374 0.500000
vt 0.399626 0.750000
vt 0.399626 0.500000
vt 0.857762 0.500000
vt 0.642238 0.750000
vt 0.642238 0.500000
vt 0.600374 0.000000
vt 0.399626 0.250000
vt 0.399626 0.000000
vt 0.625000 0.482762
vt 0.614849 0.496708
vt 0.142238 0.750000
vt 0.136911 0.500000
vt 0.142238 0.500000
vt 0.136911 0.750000
vt 0.132106 0.500000
vt 0.132106 0.750000
vt 0.125000 0.500000
vt 0.375000 0.000000
vt 0.392016 0.250000
vt 0.375000 0.250000
vt 0.392016 0.000000
vt 0.863088 0.750000
vt 0.857762 0.750000
vt 0.863089 0.500000
vt 0.875000 0.750000
vt 0.625000 0.250000
vt 0.614849 0.000000
vt 0.625000 0.000000
vt 0.614849 0.250000
vt 0.607984 0.000000
vt 0.607984 0.250000
vt 0.357762 0.500000
vt 0.363089 0.750000
vt 0.357762 0.750000
vt 0.363089 0.500000
vt 0.367894 0.750000
vt 0.367894 0.500000
vt 0.385151 0.750000
vt 0.385151 0.500000
vt 0.392016 0.750000
vt 0.392016 0.500000
vt 0.636911 0.500000
vt 0.636911 0.750000
vt 0.632106 0.500000
vt 0.632106 0.750000
vt 0.614849 0.500000
vt 0.614849 0.750000
vt 0.607984 0.500000
vt 0.607984 0.750000
vt 0.375000 0.982762
vt 0.375000 0.767238
vt 0.625000 0.767238
vt 0.376205 0.761911
vt 0.385151 0.753292
vt 0.379703 0.757106
vt 0.392016 0.750844
vt 0.600374 0.750000
vt 0.607984 0.750844
vt 0.614849 0.753292
vt 0.620297 0.757106
vt 0.623795 0.761911
vt 0.623795 0.988089
vt 0.620297 0.992894
vt 0.607984 0.999156
vt 0.399626 1.000000
vt 0.392016 0.999156
vt 0.385151 0.996708
vt 0.379703 0.992894
vt 0.376205 0.988089
vt 0.600374 0.250000
vt 0.375000 0.482762
vt 0.375000 0.267238
vt 0.625000 0.267238
vt 0.376205 0.261911
vt 0.385151 0.253292
vt 0.379703 0.257106
vt 0.392016 0.250844
vt 0.607984 0.250844
vt 0.614849 0.253292
vt 0.620297 0.257106
vt 0.623795 0.261911
vt 0.623795 0.488089
vt 0.620297 0.492894
vt 0.607984 0.499156
vt 0.392016 0.499156
vt 0.385151 0.496708
vt 0.379703 0.492894
vt 0.376205 0.488089
vt 0.125000 0.750000
vt 0.875000 0.500000
vn -1.0000 0.0000 0.0000
vn 0.0000 0.0000 -1.0000
vn 1.0000 0.0000 0.0000
vn 0.0000 0.0000 1.0000
vn 0.0000 -1.0000 0.0000
vn 0.0000 1.0000 0.0000
vn 0.9969 0.0785 0.0000
vn 0.9969 -0.0785 0.0000
vn -0.0785 0.9969 0.0000
vn 0.0785 0.9969 0.0000
vn -0.9969 0.0785 0.0000
vn -0.9969 -0.0785 0.0000
vn -0.0785 -0.9969 0.0000
vn -0.3090 -0.9511 0.0000
vn -0.5878 -0.8090 0.0000
vn -0.8090 -0.5878 0.0000
vn -0.9511 -0.3090 0.0000
vn -0.3090 0.9511 0.0000
vn -0.5878 0.8090 0.0000
vn -0.8090 0.5878 0.0000
vn -0.9511 0.3090 0.0000
vn 0.0785 -0.9969 0.0000
vn 0.3090 -0.9511 0.0000
vn 0.5878 -0.8090 0.0000
vn 0.8090 -0.5878 0.0000
vn 0.9511 -0.3090 0.0000
vn 0.3090 0.9511 0.0000
vn 0.5878 0.8090 0.0000
vn 0.8090 0.5878 0.0000
vn 0.9511 0.3090 0.0000
s off
f 50/1/1 51/2/1 49/3/1
f 52/4/2 55/5/2 51/2/2
f 56/6/3 53/7/3 55/5/3
f 54/8/4 49/9/4 53/7/4
f 55/5/5 49/10/5 51/11/5
f 52/12/6 54/8/6 56/6/6
f 58/13/5 59/14/5 57/15/5
f 60/16/2 63/17/2 59/14/2
f 64/18/6 61/19/6 63/17/6
f 62/20/4 57/21/4 61/19/4
f 63/17/3 57/22/3 59/23/3
f 60/24/1 62/20/1 64/18/1
f 50/1/1 52/4/1 51/2/1
f 52/4/2 56/6/2 55/5/2
f 56/6/3 54/8/3 53/7/3
f 54/8/4 50/25/4 49/9/4
f 55/5/5 53/7/5 49/10/5
f 52/12/6 50/26/6 54/8/6
f 58/13/5 60/16/5 59/14/5
f 60/16/2 64/18/2 63/17/2
f 64/18/6 62/20/6 61/19/6
f 62/20/4 58/27/4 57/21/4
f 63/17/3 61/19/3 57/22/3
f 60/24/1 58/28/1 62/20/1
s 1
f 7/29/4 11/30/4 8/31/4
f 44/32/7 26/33/8 37/34/8
f 20/35/9 32/36/10 43/37/10
f 8/38/11 14/39/12 1/40/12
f 43/41/2 47/42/2 44/32/2
f 2/43/13 15/44/14 13/45/13
f 6/46/14 16/47/15 15/44/14
f 5/48/15 17/49/16 16/47/15
f 4/50/16 18/51/17 17/52/16
f 3/53/17 14/39/12 18/51/17
f 20/35/9 9/54/18 7/55/9
f 24/56/18 10/57/19 9/54/18
f 23/58/19 11/59/20 10/60/19
f 22/61/20 12/62/21 11/59/20
f 21/63/21 8/38/11 12/62/21
f 38/64/22 27/65/23 25/66/22
f 42/67/23 28/68/24 27/65/23
f 41/69/24 29/70/25 28/68/24
f 40/71/25 30/72/26 29/70/25
f 39/73/26 26/33/8 30/72/26
f 32/36/10 45/74/27 43/37/10
f 36/75/27 46/76/28 45/74/27
f 35/77/28 47/78/29 46/76/28
f 34/79/29 48/80/30 47/78/29
f 33/81/30 44/32/7 48/80/30
f 38/64/22 2/43/13 13/45/13
f 2/82/4 25/83/4 32/84/4
f 25/83/4 27/85/4 29/86/4
f 32/84/4 25/83/4 26/33/4
f 27/85/4 28/87/4 29/86/4
f 29/86/4 30/88/4 26/33/4
f 26/33/4 31/89/4 32/84/4
f 31/89/4 33/90/4 32/84/4
f 33/90/4 34/91/4 35/92/4
f 35/92/4 36/93/4 33/90/4
f 36/93/4 32/84/4 33/90/4
f 32/84/4 7/29/4 2/82/4
f 7/29/4 9/94/4 11/30/4
f 2/82/4 7/29/4 8/31/4
f 9/94/4 10/95/4 11/30/4
f 11/30/4 12/96/4 8/31/4
f 8/31/4 1/97/4 2/82/4
f 1/97/4 3/98/4 2/82/4
f 3/98/4 4/99/4 5/100/4
f 5/100/4 6/101/4 3/98/4
f 6/101/4 2/82/4 3/98/4
f 25/83/4 29/86/4 26/33/4
f 44/32/7 31/89/7 26/33/8
f 20/35/9 7/55/9 32/36/10
f 8/38/11 19/102/11 14/39/12
f 38/103/2 13/104/2 20/105/2
f 13/104/2 15/106/2 17/107/2
f 20/105/2 13/104/2 14/39/2
f 15/106/2 16/108/2 17/107/2
f 17/107/2 18/109/2 14/39/2
f 14/39/2 19/102/2 20/105/2
f 19/102/2 21/110/2 20/105/2
f 21/110/2 22/111/2 23/112/2
f 23/112/2 24/113/2 21/110/2
f 24/113/2 20/105/2 21/110/2
f 20/105/2 43/41/2 38/103/2
f 43/41/2 45/114/2 47/42/2
f 38/103/2 43/41/2 44/32/2
f 45/114/2 46/115/2 47/42/2
f 47/42/2 48/116/2 44/32/2
f 44/32/2 37/34/2 38/103/2
f 37/34/2 39/117/2 38/103/2
f 39/117/2 40/118/2 41/119/2
f 41/119/2 42/120/2 39/117/2
f 42/120/2 38/103/2 39/117/2
f 13/104/2 17/107/2 14/39/2
f 2/43/13 6/46/14 15/44/14
f 6/46/14 5/48/15 16/47/15
f 5/48/15 4/121/16 17/49/16
f 4/50/16 3/53/17 18/51/17
f 3/53/17 1/40/12 14/39/12
f 20/35/9 24/56/18 9/54/18
f 24/56/18 23/122/19 10/57/19
f 23/58/19 22/61/20 11/59/20
f 22/61/20 21/63/21 12/62/21
f 21/63/21 19/102/11 8/38/11
f 38/64/22 42/67/23 27/65/23
f 42/67/23 41/69/24 28/68/24
f 41/69/24 40/71/25 29/70/25
f 40/71/25 39/73/26 30/72/26
f 39/73/26 37/34/8 26/33/8
f 32/36/10 36/75/27 45/74/27
f 36/75/27 35/77/28 46/76/28
f 35/77/28 34/79/29 47/78/29
f 34/79/29 33/81/30 48/80/30
f 33/81/30 31/89/7 44/32/7
f 38/64/22 25/66/22 2/43/13
