# Blender v3.4.1 OBJ File: 'station.blend'
# www.blender.org
o Girder_4_Frame_lod_2_Cube.038
v -0.014289 -0.165918 1.000000
v -0.014289 0.165918 1.000000
v -0.014289 -0.165918 -1.000000
v -0.014289 0.165918 -1.000000
v 0.014289 -0.165918 1.000000
v 0.014289 0.165918 1.000000
v 0.014289 -0.165918 -1.000000
v 0.014289 0.165918 -1.000000
v 0.092121 -0.013574 0.799623
v 0.092121 0.013574 0.799623
v 0.092121 -0.013574 -0.398665
v 0.092121 0.013574 -0.398665
v 0.108494 -0.013574 0.799623
v 0.108494 0.013574 0.799623
v 0.108494 -0.013574 -0.398665
v 0.108494 0.013574 -0.398665
v 0.096242 0.162483 1.000000
v 0.096242 0.173708 1.000000
v 0.096242 0.162483 -1.000000
v 0.096242 0.173708 -1.000000
v 0.110242 0.162483 1.000000
v 0.110242 0.173708 1.000000
v 0.110242 0.162483 -1.000000
v 0.110242 0.173708 -1.000000
v -0.087830 0.173509 -0.401606
v -0.100732 0.173416 -0.407839
v 0.101021 0.173579 -0.792545
v 0.088119 0.173485 -0.798777
v -0.101004 0.173578 -0.792337
v -0.101004 0.173578 -0.807943
v 0.101004 0.173578 -0.792337
v 0.101004 0.173578 -0.807943
v -0.087830 0.173509 -0.001606
v -0.100732 0.173416 -0.007839
v 0.101021 0.173579 -0.392545
v 0.088119 0.173485 -0.398777
v -0.101004 0.173578 -0.392337
v -0.101004 0.173578 -0.407943
v 0.101004 0.173578 -0.392337
v 0.101004 0.173578 -0.407943
v -0.087830 0.173509 0.398394
v -0.100732 0.173416 0.392161
v 0.101021 0.173579 0.007455
v 0.088119 0.173485 0.001223
v -0.101004 0.173578 0.007663
v -0.101004 0.173578 -0.007943
v 0.101004 0.173578 0.007663
v 0.101004 0.173578 -0.007943
v -0.087830 0.173509 0.798394
v -0.100732 0.173416 0.792161
v 0.101021 0.173579 0.407455
v 0.088119 0.173485 0.401223
v -0.101004 0.173578 0.407663
v -0.101004 0.173578 0.392057
v 0.101004 0.173578 0.407663
v 0.101004 0.173578 0.392057
v -0.101004 0.173578 0.807663
v -0.101004 0.173578 0.792057
v 0.101004 0.173578 0.807663
v 0.101004 0.173578 0.792057
v -0.105659 0.162483 1.000000
v -0.105659 0.173708 1.000000
v -0.105659 0.162483 -1.000000
v -0.105659 0.173708 -1.000000
v -0.091659 0.162483 1.000000
v -0.091659 0.173708 1.000000
v -0.091659 0.162483 -1.000000
v -0.091659 0.173708 -1.000000
v -0.096242 -0.162483 1.000000
v -0.096242 -0.173708 1.000000
v -0.096242 -0.162483 -1.000000
v -0.096242 -0.173708 -1.000000
v -0.110242 -0.162483 1.000000
v -0.110242 -0.173708 1.000000
v -0.110242 -0.162483 -1.000000
v -0.110242 -0.173708 -1.000000
v 0.087830 -0.173509 -0.401606
v 0.100732 -0.173416 -0.407839
v -0.101021 -0.173579 -0.792545
v -0.088119 -0.173485 -0.798777
v 0.101004 -0.173578 -0.792337
v 0.101004 -0.173578 -0.807943
v -0.101004 -0.173578 -0.792337
v -0.101004 -0.173578 -0.807943
v 0.087830 -0.173509 -0.001606
v 0.100732 -0.173416 -0.007839
v -0.101021 -0.173579 -0.392545
v -0.088119 -0.173485 -0.398777
v 0.101004 -0.173578 -0.392337
v 0.101004 -0.173578 -0.407943
v -0.101004 -0.173578 -0.392337
v -0.101004 -0.173578 -0.407943
v 0.087830 -0.173509 0.398394
v 0.100732 -0.173416 0.392161
v -0.101021 -0.173579 0.007455
v -0.088119 -0.173485 0.001223
v 0.101004 -0.173578 0.007663
v 0.101004 -0.173578 -0.007943
v -0.101004 -0.173578 0.007663
v -0.101004 -0.173578 -0.007943
v 0.087830 -0.173509 0.798394
v 0.100732 -0.173416 0.792161
v -0.101021 -0.173579 0.407455
v -0.088119 -0.173485 0.401223
v 0.101004 -0.173578 0.407663
v 0.101004 -0.173578 0.392057
v -0.101004 -0.173578 0.407663
v -0.101004 -0.173578 0.392057
v 0.101004 -0.173578 0.807663
v 0.101004 -0.173578 0.792057
v -0.101004 -0.173578 0.807663
v -0.101004 -0.173578 0.792057
v 0.105659 -0.162483 1.000000
v 0.105659 -0.173708 1.000000
v 0.105659 -0.162483 -1.000000
v 0.105659 -0.173708 -1.000000
v 0.091659 -0.162483 1.000000
v 0.091659 -0.173708 1.000000
v 0.091659 -0.162483 -1.000000
v 0.091659 -0.173708 -1.000000
v -0.107933 0.050764 1.000000
v -0.107933 0.087339 1.000000
v -0.107933 0.050764 -1.000000
v -0.107933 0.087339 -1.000000
v -0.091270 0.050764 1.000000
v -0.091270 0.087339 1.000000
v -0.091270 0.050764 -1.000000
v -0.091270 0.087339 -1.000000
v -0.107933 -0.073259 0.801157
v -0.107933 -0.036683 0.801157
v -0.107933 -0.073259 -0.801157
v -0.107933 -0.036683 -0.801157
v -0.091270 -0.073259 0.801157
v -0.091270 -0.036683 0.801157
v -0.091270 -0.073259 -0.801157
v -0.091270 -0.036683 -0.801157
v -0.111564 -0.160430 0.809977
v -0.111564 0.160430 0.809977
v -0.111564 -0.160430 0.790078
v -0.111564 0.160430 0.790078
v 0.111564 -0.160430 0.809977
v 0.111564 0.160430 0.809977
v 0.111564 -0.160430 0.790078
v 0.111564 0.160430 0.790078
v -0.111564 -0.160430 0.009950
v -0.111564 0.160430 0.009950
v -0.111564 -0.160430 -0.009950
v -0.111564 0.160430 -0.009950
v 0.111564 -0.160430 0.009950
v 0.111564 0.160430 0.009950
v 0.111564 -0.160430 -0.009950
v 0.111564 0.160430 -0.009950
v -0.111564 -0.160430 0.409986
v -0.111564 0.160430 0.409986
v -0.111564 -0.160430 0.390087
v -0.111564 0.160430 0.390087
v 0.111564 -0.160430 0.409986
v 0.111564 0.160430 0.409986
v 0.111564 -0.160430 0.390087
v 0.111564 0.160430 0.390087
v -0.111564 -0.160430 -0.389885
v -0.111564 0.160430 -0.389885
v -0.111564 -0.160430 -0.409785
v -0.111564 0.160430 -0.409785
v 0.111564 -0.160430 -0.389885
v 0.111564 0.160430 -0.389885
v 0.111564 -0.160430 -0.409785
v 0.111564 0.160430 -0.409785
v -0.111564 -0.160430 -0.790078
v -0.111564 0.160430 -0.790078
v -0.111564 -0.160430 -0.809977
v -0.111564 0.160430 -0.809977
v 0.111564 -0.160430 -0.790078
v 0.111564 0.160430 -0.790078
v 0.111564 -0.160430 -0.809977
v 0.111564 0.160430 -0.809977
vt 0.625000 0.000000
vt 0.375000 0.250000
vt 0.375000 0.000000
vt 0.625000 0.250000
vt 0.375000 0.500000
vt 0.625000 0.500000
vt 0.375000 0.750000
vt 0.625000 0.750000
vt 0.375000 1.000000
vt 0.125000 0.750000
vt 0.125000 0.500000
vt 0.875000 0.500000
vt 0.625000 0.000000
vt 0.375000 0.250000
vt 0.375000 0.000000
vt 0.625000 0.250000
vt 0.375000 0.500000
vt 0.625000 0.500000
vt 0.375000 0.750000
vt 0.625000 0.750000
vt 0.375000 1.000000
vt 0.125000 0.750000
vt 0.125000 0.500000
vt 0.875000 0.500000
vt 0.625000 0.000000
vt 0.375000 0.250000
vt 0.375000 0.000000
vt 0.625000 0.250000
vt 0.375000 0.500000
vt 0.625000 0.500000
vt 0.375000 0.750000
vt 0.625000 0.750000
vt 0.375000 1.000000
vt 0.125000 0.750000
vt 0.125000 0.500000
vt 0.875000 0.500000
vt 0.625000 0.000000
vt 0.375000 0.250000
vt 0.375000 0.000000
vt 0.625000 0.250000
vt 0.375000 0.500000
vt 0.625000 0.500000
vt 0.375000 0.750000
vt 0.625000 0.750000
vt 0.375000 1.000000
vt 0.125000 0.750000
vt 0.125000 0.500000
vt 0.875000 0.500000
vt 0.625000 0.000000
vt 0.375000 0.250000
vt 0.375000 0.000000
vt 0.625000 0.250000
vt 0.375000 0.500000
vt 0.625000 0.500000
vt 0.375000 0.750000
vt 0.625000 0.750000
vt 0.375000 1.000000
vt 0.125000 0.750000
vt 0.125000 0.500000
vt 0.875000 0.500000
vt 0.625000 1.000000
vt 0.875000 0.750000
vt 0.625000 1.000000
vt 0.875000 0.750000
vt 0.625000 1.000000
vt 0.875000 0.750000
vt 0.625000 1.000000
vt 0.875000 0.750000
vt 0.625000 1.000000
vt 0.875000 0.750000
vt 0.625000 0.000000
vt 0.375000 0.250000
vt 0.375000 0.000000
vt 0.625000 0.250000
vt 0.375000 0.500000
vt 0.625000 0.500000
vt 0.375000 0.750000
vt 0.625000 0.750000
vt 0.375000 1.000000
vt 0.125000 0.750000
vt 0.125000 0.500000
vt 0.875000 0.500000
vt 0.625000 0.000000
vt 0.375000 0.250000
vt 0.375000 0.000000
vt 0.625000 0.250000
vt 0.375000 0.500000
vt 0.625000 0.500000
vt 0.375000 0.750000
vt 0.625000 0.750000
vt 0.375000 1.000000
vt 0.125000 0.750000
vt 0.125000 0.500000
vt 0.875000 0.500000
vt 0.625000 0.000000
vt 0.375000 0.250000
vt 0.375000 0.000000
vt 0.625000 0.250000
vt 0.375000 0.500000
vt 0.625000 0.500000
vt 0.375000 0.750000
vt 0.625000 0.750000
vt 0.375000 1.000000
vt 0.125000 0.750000
vt 0.125000 0.500000
vt 0.875000 0.500000
vt 0.625000 0.500000
vt 0.875000 0.750000
vt 0.625000 0.750000
vt 0.875000 0.500000
vt 0.625000 0.750000
vt 0.625000 0.500000
vt 0.875000 0.500000
vt 0.625000 0.750000
vt 0.625000 0.500000
vt 0.875000 0.500000
vt 0.625000 0.750000
vt 0.625000 0.500000
vt 0.875000 0.500000
vt 0.625000 0.750000
vt 0.625000 0.500000
vt 0.625000 0.500000
vt 0.875000 0.750000
vt 0.625000 0.750000
vt 0.875000 0.500000
vt 0.625000 0.750000
vt 0.625000 0.500000
vt 0.875000 0.500000
vt 0.625000 0.750000
vt 0.625000 0.500000
vt 0.875000 0.500000
vt 0.625000 0.750000
vt 0.625000 0.500000
vt 0.625000 0.000000
vt 0.375000 0.250000
vt 0.375000 0.000000
vt 0.625000 0.250000
vt 0.375000 0.500000
vt 0.625000 0.500000
vt 0.375000 0.750000
vt 0.625000 0.750000
vt 0.375000 1.000000
vt 0.125000 0.750000
vt 0.125000 0.500000
vt 0.875000 0.500000
vt 0.625000 0.000000
vt 0.375000 0.250000
vt 0.375000 0.000000
vt 0.625000 0.250000
vt 0.375000 0.500000
vt 0.625000 0.500000
vt 0.375000 0.750000
vt 0.625000 1.000000
vt 0.375000 1.000000
vt 0.125000 0.750000
vt 0.125000 0.500000
vt 0.875000 0.500000
vt 0.625000 0.750000
vt 0.875000 0.500000
vt 0.625000 0.750000
vt 0.625000 0.500000
vt 0.875000 0.500000
vt 0.625000 0.750000
vt 0.625000 0.500000
vt 0.625000 0.500000
vt 0.875000 0.750000
vt 0.625000 0.750000
vt 0.875000 0.500000
vt 0.625000 0.750000
vt 0.625000 0.500000
vt 0.875000 0.500000
vt 0.625000 0.750000
vt 0.625000 0.500000
vt 0.625000 0.500000
vt 0.875000 0.750000
vt 0.625000 0.750000
vt 0.875000 0.500000
vt 0.625000 0.750000
vt 0.625000 0.500000
vt 0.875000 0.500000
vt 0.625000 0.750000
vt 0.625000 0.500000
vt 0.875000 0.500000
vt 0.625000 0.750000
vt 0.625000 0.500000
vt 0.625000 0.000000
vt 0.375000 0.250000
vt 0.375000 0.000000
vt 0.625000 0.250000
vt 0.375000 0.500000
vt 0.625000 0.500000
vt 0.375000 0.750000
vt 0.625000 1.000000
vt 0.375000 1.000000
vt 0.125000 0.750000
vt 0.125000 0.500000
vt 0.875000 0.500000
vt 0.625000 0.750000
vt 0.625000 0.000000
vt 0.375000 0.250000
vt 0.375000 0.000000
vt 0.625000 0.250000
vt 0.375000 0.500000
vt 0.625000 0.500000
vt 0.375000 0.750000
vt 0.625000 0.750000
vt 0.375000 1.000000
vt 0.125000 0.750000
vt 0.125000 0.500000
vt 0.875000 0.500000
vt 0.625000 0.000000
vt 0.375000 0.250000
vt 0.375000 0.000000
vt 0.625000 0.250000
vt 0.375000 0.500000
vt 0.625000 0.500000
vt 0.375000 0.750000
vt 0.625000 0.750000
vt 0.375000 1.000000
vt 0.125000 0.750000
vt 0.125000 0.500000
vt 0.875000 0.500000
vt 0.625000 1.000000
vt 0.875000 0.750000
vt 0.625000 1.000000
vt 0.875000 0.750000
vt 0.625000 1.000000
vt 0.875000 0.750000
vt 0.875000 0.500000
vt 0.875000 0.750000
vt 0.875000 0.750000
vt 0.875000 0.750000
vt 0.875000 0.750000
vt 0.875000 0.500000
vt 0.875000 0.750000
vt 0.875000 0.750000
vt 0.875000 0.750000
vt 0.625000 1.000000
vt 0.875000 0.750000
vt 0.875000 0.750000
vt 0.875000 0.750000
vt 0.875000 0.750000
vt 0.875000 0.500000
vt 0.875000 0.750000
vt 0.875000 0.750000
vt 0.875000 0.500000
vt 0.875000 0.750000
vt 0.875000 0.750000
vt 0.875000 0.750000
vt 0.875000 0.750000
vt 0.625000 1.000000
vt 0.875000 0.750000
vt 0.625000 1.000000
vt 0.875000 0.750000
vn -1.0000 0.0000 0.0000
vn 0.0000 0.0000 -1.0000
vn 1.0000 0.0000 0.0000
vn 0.0000 0.0000 1.0000
vn 0.0000 -1.0000 0.0000
vn 0.0000 1.0000 0.0000
vn -0.0060 1.0000 -0.0027
vn 0.0060 -1.0000 -0.0027
s off
f 138/1/1 139/2/1 137/3/1
f 140/4/2 143/5/2 139/2/2
f 144/6/3 141/7/3 143/5/3
f 142/8/4 137/9/4 141/7/4
f 143/5/5 137/10/5 139/11/5
f 140/12/6 142/8/6 144/6/6
f 146/13/1 147/14/1 145/15/1
f 148/16/2 151/17/2 147/14/2
f 152/18/3 149/19/3 151/17/3
f 150/20/4 145/21/4 149/19/4
f 151/17/5 145/22/5 147/23/5
f 148/24/6 150/20/6 152/18/6
f 154/25/1 155/26/1 153/27/1
f 156/28/2 159/29/2 155/26/2
f 160/30/3 157/31/3 159/29/3
f 158/32/4 153/33/4 157/31/4
f 159/29/5 153/34/5 155/35/5
f 156/36/6 158/32/6 160/30/6
f 162/37/1 163/38/1 161/39/1
f 164/40/2 167/41/2 163/38/2
f 168/42/3 165/43/3 167/41/3
f 166/44/4 161/45/4 165/43/4
f 167/41/5 161/46/5 163/47/5
f 164/48/6 166/44/6 168/42/6
f 170/49/1 171/50/1 169/51/1
f 172/52/2 175/53/2 171/50/2
f 176/54/3 173/55/3 175/53/3
f 174/56/4 169/57/4 173/55/4
f 175/53/5 169/58/5 171/59/5
f 172/60/6 174/56/6 176/54/6
f 138/1/1 140/4/1 139/2/1
f 140/4/2 144/6/2 143/5/2
f 144/6/3 142/8/3 141/7/3
f 142/8/4 138/61/4 137/9/4
f 143/5/5 141/7/5 137/10/5
f 140/12/6 138/62/6 142/8/6
f 146/13/1 148/16/1 147/14/1
f 148/16/2 152/18/2 151/17/2
f 152/18/3 150/20/3 149/19/3
f 150/20/4 146/63/4 145/21/4
f 151/17/5 149/19/5 145/22/5
f 148/24/6 146/64/6 150/20/6
f 154/25/1 156/28/1 155/26/1
f 156/28/2 160/30/2 159/29/2
f 160/30/3 158/32/3 157/31/3
f 158/32/4 154/65/4 153/33/4
f 159/29/5 157/31/5 153/34/5
f 156/36/6 154/66/6 158/32/6
f 162/37/1 164/40/1 163/38/1
f 164/40/2 168/42/2 167/41/2
f 168/42/3 166/44/3 165/43/3
f 166/44/4 162/67/4 161/45/4
f 167/41/5 165/43/5 161/46/5
f 164/48/6 162/68/6 166/44/6
f 170/49/1 172/52/1 171/50/1
f 172/52/2 176/54/2 175/53/2
f 176/54/3 174/56/3 173/55/3
f 174/56/4 170/69/4 169/57/4
f 175/53/5 173/55/5 169/58/5
f 172/60/6 170/70/6 174/56/6
s 1
f 2/71/1 3/72/1 1/73/1
f 4/74/2 7/75/2 3/72/2
f 8/76/3 5/77/3 7/75/3
f 6/78/4 1/79/4 5/77/4
f 7/75/5 1/80/5 3/81/5
f 4/82/6 6/78/6 8/76/6
f 10/83/1 11/84/1 9/85/1
f 12/86/2 15/87/2 11/84/2
f 16/88/3 13/89/3 15/87/3
f 14/90/4 9/91/4 13/89/4
f 15/87/5 9/92/5 11/93/5
f 12/94/6 14/90/6 16/88/6
f 18/95/1 19/96/1 17/97/1
f 20/98/2 23/99/2 19/96/2
f 24/100/3 21/101/3 23/99/3
f 22/102/4 17/103/4 21/101/4
f 23/99/5 17/104/5 19/105/5
f 20/106/6 22/102/6 24/100/6
f 28/107/7 25/108/7 27/109/7
f 30/110/6 31/111/6 32/112/6
f 34/113/7 35/114/7 36/115/7
f 38/116/6 39/117/6 40/118/6
f 42/119/7 43/120/7 44/121/7
f 48/122/6 45/123/6 47/124/6
f 50/125/7 51/126/7 52/127/7
f 54/128/6 55/129/6 56/130/6
f 58/131/6 59/132/6 60/133/6
f 62/134/1 63/135/1 61/136/1
f 64/137/2 67/138/2 63/135/2
f 68/139/3 65/140/3 67/138/3
f 66/141/4 61/142/4 65/140/4
f 67/138/5 61/143/5 63/144/5
f 64/145/6 66/141/6 68/139/6
f 70/146/3 71/147/3 69/148/3
f 72/149/2 75/150/2 71/147/2
f 76/151/1 73/152/1 75/150/1
f 73/152/4 70/153/4 69/154/4
f 75/150/6 69/155/6 71/156/6
f 72/157/5 74/158/5 76/151/5
f 78/159/8 79/160/8 80/161/8
f 82/162/5 83/163/5 84/164/5
f 88/165/8 85/166/8 87/167/8
f 90/168/5 91/169/5 92/170/5
f 94/171/8 95/172/8 96/173/8
f 100/174/5 97/175/5 99/176/5
f 102/177/8 103/178/8 104/179/8
f 106/180/5 107/181/5 108/182/5
f 110/183/5 111/184/5 112/185/5
f 114/186/3 115/187/3 113/188/3
f 116/189/2 119/190/2 115/187/2
f 120/191/1 117/192/1 119/190/1
f 117/192/4 114/193/4 113/194/4
f 119/190/6 113/195/6 115/196/6
f 116/197/5 118/198/5 120/191/5
f 122/199/1 123/200/1 121/201/1
f 124/202/2 127/203/2 123/200/2
f 128/204/3 125/205/3 127/203/3
f 126/206/4 121/207/4 125/205/4
f 127/203/5 121/208/5 123/209/5
f 124/210/6 126/206/6 128/204/6
f 130/211/1 131/212/1 129/213/1
f 132/214/2 135/215/2 131/212/2
f 136/216/3 133/217/3 135/215/3
f 134/218/4 129/219/4 133/217/4
f 135/215/5 129/220/5 131/221/5
f 132/222/6 134/218/6 136/216/6
f 2/71/1 4/74/1 3/72/1
f 4/74/2 8/76/2 7/75/2
f 8/76/3 6/78/3 5/77/3
f 6/78/4 2/223/4 1/79/4
f 7/75/5 5/77/5 1/80/5
f 4/82/6 2/224/6 6/78/6
f 10/83/1 12/86/1 11/84/1
f 12/86/2 16/88/2 15/87/2
f 16/88/3 14/90/3 13/89/3
f 14/90/4 10/225/4 9/91/4
f 15/87/5 13/89/5 9/92/5
f 12/94/6 10/226/6 14/90/6
f 18/95/1 20/98/1 19/96/1
f 20/98/2 24/100/2 23/99/2
f 24/100/3 22/102/3 21/101/3
f 22/102/4 18/227/4 17/103/4
f 23/99/5 21/101/5 17/104/5
f 20/106/6 18/228/6 22/102/6
f 28/107/7 26/229/7 25/108/7
f 30/110/6 29/230/6 31/111/6
f 34/113/7 33/231/7 35/114/7
f 38/116/6 37/232/6 39/117/6
f 42/119/7 41/233/7 43/120/7
f 48/122/6 46/234/6 45/123/6
f 50/125/7 49/235/7 51/126/7
f 54/128/6 53/236/6 55/129/6
f 58/131/6 57/237/6 59/132/6
f 62/134/1 64/137/1 63/135/1
f 64/137/2 68/139/2 67/138/2
f 68/139/3 66/141/3 65/140/3
f 66/141/4 62/238/4 61/142/4
f 67/138/5 65/140/5 61/143/5
f 64/145/6 62/239/6 66/141/6
f 70/146/3 72/149/3 71/147/3
f 72/149/2 76/151/2 75/150/2
f 76/151/1 74/158/1 73/152/1
f 73/152/4 74/158/4 70/153/4
f 75/150/6 73/152/6 69/155/6
f 72/157/5 70/240/5 74/158/5
f 78/159/8 77/241/8 79/160/8
f 82/162/5 81/242/5 83/163/5
f 88/165/8 86/243/8 85/166/8
f 90/168/5 89/244/5 91/169/5
f 94/171/8 93/245/8 95/172/8
f 100/174/5 98/246/5 97/175/5
f 102/177/8 101/247/8 103/178/8
f 106/180/5 105/248/5 107/181/5
f 110/183/5 109/249/5 111/184/5
f 114/186/3 116/189/3 115/187/3
f 116/189/2 120/191/2 119/190/2
f 120/191/1 118/198/1 117/192/1
f 117/192/4 118/198/4 114/193/4
f 119/190/6 117/192/6 113/195/6
f 116/197/5 114/250/5 118/198/5
f 122/199/1 124/202/1 123/200/1
f 124/202/2 128/204/2 127/203/2
f 128/204/3 126/206/3 125/205/3
f 126/206/4 122/251/4 121/207/4
f 127/203/5 125/205/5 121/208/5
f 124/210/6 122/252/6 126/206/6
f 130/211/1 132/214/1 131/212/1
f 132/214/2 136/216/2 135/215/2
f 136/216/3 134/218/3 133/217/3
f 134/218/4 130/253/4 129/219/4
f 135/215/5 133/217/5 129/220/5
f 132/222/6 130/254/6 134/218/6
