# Blender v3.4.1 OBJ File: 'station.blend'
# www.blender.org
o Grate_4_Frame_Cube.101
v 0.141653 -0.030144 0.687663
v 0.141653 -0.030144 0.606921
v 0.847394 -0.030144 0.687663
v 0.847394 -0.030144 0.606921
v -0.141653 -0.030144 0.687663
v -0.141653 -0.030144 0.606921
v -0.847394 -0.030144 0.687663
v -0.847394 -0.030144 0.606921
v 0.481694 -0.000003 -0.074020
v 0.529668 -0.000003 -0.074186
v 0.612234 -0.000003 0.628406
v 0.660207 -0.000003 0.619377
v -0.481694 -0.000003 -0.074020
v -0.529668 -0.000003 -0.074186
v -0.612234 -0.000003 0.628406
v -0.660207 -0.000003 0.619377
v 0.152361 0.062708 0.676956
v 0.141653 0.052000 0.687663
v 0.152361 0.062708 0.617628
v 0.141653 0.052000 0.606921
v 0.836687 0.062708 0.676956
v 0.847394 0.052000 0.687663
v 0.836687 0.062708 0.617628
v 0.847394 0.052000 0.606921
v -0.152361 0.062708 0.676956
v -0.141653 0.052000 0.687663
v -0.152361 0.062708 0.617628
v -0.141653 0.052000 0.606921
v -0.836687 0.062708 0.676956
v -0.847394 0.052000 0.687663
v -0.836687 0.062708 0.617628
v -0.847394 0.052000 0.606921
v 0.489051 0.049133 -0.067926
v 0.481694 0.043014 -0.074020
v 0.524596 0.049133 -0.068049
v 0.529668 0.043014 -0.074186
v 0.618248 0.049133 0.627274
v 0.612234 0.043014 0.628406
v 0.660207 0.043014 0.619377
v 0.654193 0.049133 0.620509
v -0.489051 0.049133 -0.067926
v -0.481694 0.043014 -0.074020
v -0.524596 0.049133 -0.068049
v -0.529668 0.043014 -0.074186
v -0.612234 0.043014 0.628406
v -0.618248 0.049133 0.627274
v -0.654193 0.049133 0.620509
v -0.660207 0.043014 0.619377
vt 0.871207 0.533152
vt 0.628793 0.716848
vt 0.628793 0.533152
vt 0.596171 0.500000
vt 0.375000 0.750000
vt 0.375000 0.500000
vt 0.375000 1.000000
vt 0.596171 0.750000
vt 0.375000 0.750000
vt 0.596171 0.000000
vt 0.375000 0.250000
vt 0.375000 0.000000
vt 0.125000 0.750000
vt 0.125000 0.500000
vt 0.596171 0.250000
vt 0.628793 0.716848
vt 0.871207 0.533152
vt 0.628793 0.533152
vt 0.596171 0.500000
vt 0.375000 0.500000
vt 0.375000 0.250000
vt 0.596171 0.000000
vt 0.375000 0.000000
vt 0.125000 0.750000
vt 0.125000 0.500000
vt 0.596171 0.250000
vt 0.872806 0.532400
vt 0.625000 0.718659
vt 0.625000 0.531340
vt 0.375000 1.000000
vt 0.593864 0.750000
vt 0.375000 0.750000
vt 0.593864 0.000000
vt 0.375000 0.250000
vt 0.375000 0.000000
vt 0.593864 0.250000
vt 0.375000 0.500000
vt 0.625000 0.718659
vt 0.872806 0.532400
vt 0.625000 0.531340
vt 0.375000 0.250000
vt 0.593864 0.000000
vt 0.375000 0.000000
vt 0.375000 0.500000
vt 0.593864 0.250000
vt 0.875000 0.750000
vt 0.871207 0.716848
vt 0.875000 0.500000
vt 0.596171 0.750000
vt 0.625000 0.750000
vt 0.875000 0.500000
vt 0.871207 0.716848
vt 0.875000 0.750000
vt 0.625000 0.500000
vt 0.625000 0.750000
vt 0.375000 1.000000
vt 0.625000 0.038229
vt 0.625000 0.251804
vt 0.593864 0.500000
vt 0.625000 0.997433
vt 0.593864 0.750000
vt 0.625000 0.750005
vt 0.625000 0.038229
vt 0.593864 0.500000
vt 0.625000 0.251804
vt 0.625000 0.997433
vt 0.625000 0.750005
vt 0.375000 1.000000
vt 0.375000 0.750000
vt 0.596171 1.000000
vt 0.872816 0.717603
vt 0.593864 1.000000
vt 0.872816 0.717603
vt 0.625000 0.500000
vt 0.596171 1.000000
vt 0.625000 0.223459
vt 0.625000 0.500000
vt 0.593864 1.000000
vt 0.625000 0.223459
vt 0.625000 0.500000
vn 0.0000 1.0000 0.0000
vn 1.0000 0.0000 0.0000
vn 0.0000 0.0000 1.0000
vn -1.0000 0.0000 0.0000
vn 0.0000 -1.0000 0.0000
vn 0.0000 0.0000 -1.0000
vn 0.9832 0.0000 0.1827
vn -0.0035 0.0000 -1.0000
vn 0.9827 0.0000 -0.1850
vn 0.0035 0.0000 -1.0000
vn -0.9827 0.0000 -0.1850
vn -0.7071 0.7071 0.0000
vn 0.0000 0.7071 -0.7071
vn 0.7071 0.7071 0.0000
vn 0.0000 0.7071 0.7071
vn -0.0024 0.7071 -0.7071
vn 0.6949 0.7071 -0.1308
vn -0.6952 0.7071 0.1292
vn 0.0024 0.7071 -0.7071
vn -0.6949 0.7071 -0.1308
vn 0.6952 0.7071 0.1292
vn -0.9832 0.0000 0.1827
s off
f 19/1/1 21/2/1 23/3/1
f 24/4/2 3/5/2 4/6/2
f 5/7/3 30/8/3 7/9/3
f 18/10/4 2/11/4 1/12/4
f 4/6/5 1/13/5 2/14/5
f 20/15/6 4/6/6 2/11/6
f 29/16/1 27/17/1 31/18/1
f 7/9/4 32/19/4 8/20/4
f 6/21/2 26/22/2 5/23/2
f 5/24/5 8/20/5 6/25/5
f 8/20/6 28/26/6 6/21/6
f 35/27/1 37/28/1 40/29/1
f 13/30/7 45/31/7 15/32/7
f 34/33/8 10/34/8 9/35/8
f 36/36/9 12/37/9 10/34/9
f 46/38/1 43/39/1 47/40/1
f 14/41/10 42/42/10 13/43/10
f 16/44/11 44/45/11 14/41/11
f 19/1/12 18/46/12 17/47/12
f 23/3/13 20/48/13 19/1/13
f 23/3/14 22/49/14 24/4/14
f 17/47/15 22/50/15 21/2/15
f 28/51/14 25/52/14 26/53/14
f 32/54/13 27/17/13 28/51/13
f 30/8/12 31/18/12 32/19/12
f 26/53/15 29/16/15 30/55/15
f 22/49/3 1/56/3 3/5/3
f 33/57/16 36/36/16 34/33/16
f 35/58/17 39/59/17 36/36/17
f 33/60/18 38/61/18 37/62/18
f 44/45/19 41/63/19 42/42/19
f 48/64/20 43/65/20 44/45/20
f 45/31/21 41/66/21 46/67/21
f 38/61/22 9/68/22 11/69/22
f 19/1/1 17/47/1 21/2/1
f 24/4/2 22/49/2 3/5/2
f 5/7/3 26/70/3 30/8/3
f 18/10/4 20/15/4 2/11/4
f 4/6/5 3/5/5 1/13/5
f 20/15/6 24/4/6 4/6/6
f 29/16/1 25/52/1 27/17/1
f 7/9/4 30/8/4 32/19/4
f 6/21/2 28/26/2 26/22/2
f 5/24/5 7/9/5 8/20/5
f 8/20/6 32/19/6 28/26/6
f 35/27/1 33/71/1 37/28/1
f 13/30/7 42/72/7 45/31/7
f 34/33/8 36/36/8 10/34/8
f 36/36/9 39/59/9 12/37/9
f 46/38/1 41/73/1 43/39/1
f 14/41/10 44/45/10 42/42/10
f 16/44/11 48/64/11 44/45/11
f 19/1/12 20/48/12 18/46/12
f 23/3/13 24/74/13 20/48/13
f 23/3/14 21/2/14 22/49/14
f 17/47/15 18/46/15 22/50/15
f 28/51/14 27/17/14 25/52/14
f 32/54/13 31/18/13 27/17/13
f 30/8/12 29/16/12 31/18/12
f 26/53/15 25/52/15 29/16/15
f 22/49/3 18/75/3 1/56/3
f 33/57/16 35/76/16 36/36/16
f 35/58/17 40/77/17 39/59/17
f 33/60/18 34/78/18 38/61/18
f 44/45/19 43/79/19 41/63/19
f 48/64/20 47/80/20 43/65/20
f 45/31/21 42/72/21 41/66/21
f 38/61/22 34/78/22 9/68/22
