# Blender v3.4.1 OBJ File: 'station.blend'
# www.blender.org
o Habitation_1_Insulation_lod_2_Cylinder.088
v 0.000000 -0.203979 0.168156
v 0.000000 -0.203979 -0.168156
v -0.078059 -0.188452 0.168156
v -0.078059 -0.188452 -0.168156
v -0.144235 -0.144235 0.168156
v -0.144235 -0.144235 -0.168156
v -0.188452 -0.078059 0.168156
v -0.188452 -0.078059 -0.168156
v -0.203979 -0.000000 0.168156
v -0.203979 0.000000 -0.168156
v -0.188452 0.078059 0.168156
v -0.188452 0.078059 -0.168156
v -0.144235 0.144235 0.168156
v -0.144235 0.144235 -0.168156
v -0.078059 0.188452 0.168156
v -0.078059 0.188452 -0.168156
v 0.000000 0.203979 0.168156
v 0.000000 0.203979 -0.168156
v 0.078059 0.188452 0.168156
v 0.078059 0.188452 -0.168156
v 0.144235 0.144235 0.168156
v 0.144235 0.144235 -0.168156
v 0.188452 0.078059 0.168156
v 0.188452 0.078059 -0.168156
v 0.203979 -0.000000 0.168156
v 0.203979 0.000000 -0.168156
v 0.188452 -0.078059 0.168156
v 0.188452 -0.078059 -0.168156
v 0.144235 -0.144235 0.168156
v 0.144235 -0.144235 -0.168156
v 0.078059 -0.188452 0.168156
v 0.078059 -0.188452 -0.168156
v 0.000000 -0.203979 0.838018
v 0.000000 -0.203979 0.501705
v -0.078059 -0.188452 0.838018
v -0.078059 -0.188452 0.501705
v -0.144235 -0.144235 0.838018
v -0.144235 -0.144235 0.501705
v -0.188452 -0.078059 0.838018
v -0.188452 -0.078059 0.501705
v -0.203979 -0.000000 0.838018
v -0.203979 0.000000 0.501705
v -0.188452 0.078059 0.838018
v -0.188452 0.078059 0.501705
v -0.144235 0.144235 0.838018
v -0.144235 0.144235 0.501705
v -0.078059 0.188452 0.838018
v -0.078059 0.188452 0.501705
v 0.000000 0.203979 0.838018
v 0.000000 0.203979 0.501705
v 0.078059 0.188452 0.838018
v 0.078059 0.188452 0.501705
v 0.144235 0.144235 0.838018
v 0.144235 0.144235 0.501705
v 0.188452 0.078059 0.838018
v 0.188452 0.078059 0.501705
v 0.203979 -0.000000 0.838018
v 0.203979 0.000000 0.501705
v 0.188452 -0.078059 0.838018
v 0.188452 -0.078059 0.501705
v 0.144235 -0.144235 0.838018
v 0.144235 -0.144235 0.501705
v 0.078059 -0.188452 0.838018
v 0.078059 -0.188452 0.501705
v 0.000000 -0.203979 -0.500305
v 0.000000 -0.203979 -0.836618
v -0.078059 -0.188452 -0.500305
v -0.078059 -0.188452 -0.836618
v -0.144235 -0.144235 -0.500305
v -0.144235 -0.144235 -0.836618
v -0.188452 -0.078059 -0.500305
v -0.188452 -0.078059 -0.836618
v -0.203979 -0.000000 -0.500305
v -0.203979 0.000000 -0.836618
v -0.188452 0.078059 -0.500305
v -0.188452 0.078059 -0.836618
v -0.144235 0.144235 -0.500305
v -0.144235 0.144235 -0.836618
v -0.078059 0.188452 -0.500305
v -0.078059 0.188452 -0.836618
v 0.000000 0.203979 -0.500305
v 0.000000 0.203979 -0.836618
v 0.078059 0.188452 -0.500305
v 0.078059 0.188452 -0.836618
v 0.144235 0.144235 -0.500305
v 0.144235 0.144235 -0.836618
v 0.188452 0.078059 -0.500305
v 0.188452 0.078059 -0.836618
v 0.203979 -0.000000 -0.500305
v 0.203979 0.000000 -0.836618
v 0.188452 -0.078059 -0.500305
v 0.188452 -0.078059 -0.836618
v 0.144235 -0.144235 -0.500305
v 0.144235 -0.144235 -0.836618
v 0.078059 -0.188452 -0.500305
v 0.078059 -0.188452 -0.836618
vt 1.000000 1.000000
vt 1.000000 0.500000
vt 0.937500 0.500000
vt 0.937500 1.000000
vt 0.875000 0.500000
vt 0.875000 1.000000
vt 0.812500 0.500000
vt 0.812500 1.000000
vt 0.750000 0.500000
vt 0.750000 1.000000
vt 0.687500 0.500000
vt 0.687500 1.000000
vt 0.625000 0.500000
vt 0.625000 1.000000
vt 0.562500 0.500000
vt 0.562500 1.000000
vt 0.500000 0.500000
vt 0.500000 1.000000
vt 0.437500 0.500000
vt 0.437500 1.000000
vt 0.375000 0.500000
vt 0.375000 1.000000
vt 0.312500 0.500000
vt 0.312500 1.000000
vt 0.250000 0.500000
vt 0.250000 1.000000
vt 0.187500 0.500000
vt 0.187500 1.000000
vt 0.125000 0.500000
vt 0.080294 0.080294
vt 0.419706 0.419706
vt 0.419706 0.080294
vt 0.125000 1.000000
vt 0.062500 0.500000
vt 0.062500 1.000000
vt 0.000000 0.500000
vt 0.841844 0.028269
vt 0.658156 0.471731
vt 0.528269 0.158156
vt 1.000000 1.000000
vt 1.000000 0.500000
vt 0.937500 0.500000
vt 0.937500 1.000000
vt 0.875000 0.500000
vt 0.875000 1.000000
vt 0.812500 0.500000
vt 0.812500 1.000000
vt 0.750000 0.500000
vt 0.750000 1.000000
vt 0.687500 0.500000
vt 0.687500 1.000000
vt 0.625000 0.500000
vt 0.625000 1.000000
vt 0.562500 0.500000
vt 0.562500 1.000000
vt 0.500000 0.500000
vt 0.500000 1.000000
vt 0.437500 0.500000
vt 0.437500 1.000000
vt 0.375000 0.500000
vt 0.375000 1.000000
vt 0.312500 0.500000
vt 0.312500 1.000000
vt 0.250000 0.500000
vt 0.250000 1.000000
vt 0.187500 0.500000
vt 0.187500 1.000000
vt 0.125000 0.500000
vt 0.080294 0.080294
vt 0.419706 0.419706
vt 0.419706 0.080294
vt 0.125000 1.000000
vt 0.062500 0.500000
vt 0.062500 1.000000
vt 0.000000 0.500000
vt 0.971731 0.341844
vt 0.528269 0.158156
vt 0.841844 0.028269
vt 1.000000 1.000000
vt 1.000000 0.500000
vt 0.937500 0.500000
vt 0.937500 1.000000
vt 0.875000 0.500000
vt 0.875000 1.000000
vt 0.812500 0.500000
vt 0.812500 1.000000
vt 0.750000 0.500000
vt 0.750000 1.000000
vt 0.687500 0.500000
vt 0.687500 1.000000
vt 0.625000 0.500000
vt 0.625000 1.000000
vt 0.562500 0.500000
vt 0.562500 1.000000
vt 0.500000 0.500000
vt 0.500000 1.000000
vt 0.437500 0.500000
vt 0.437500 1.000000
vt 0.375000 0.500000
vt 0.375000 1.000000
vt 0.312500 0.500000
vt 0.312500 1.000000
vt 0.250000 0.500000
vt 0.250000 1.000000
vt 0.187500 0.500000
vt 0.187500 1.000000
vt 0.125000 0.500000
vt 0.080294 0.080294
vt 0.419706 0.419706
vt 0.419706 0.080294
vt 0.125000 1.000000
vt 0.062500 0.500000
vt 0.062500 1.000000
vt 0.000000 0.500000
vt 0.971731 0.341844
vt 0.528269 0.158156
vt 0.841844 0.028269
vt 0.250000 0.490000
vt 0.341844 0.471731
vt 0.158156 0.471731
vt 0.080294 0.419706
vt 0.028269 0.341844
vt 0.010000 0.250000
vt 0.028269 0.158156
vt 0.158156 0.028269
vt 0.250000 0.010000
vt 0.341844 0.028269
vt 0.490000 0.250000
vt 0.471731 0.158156
vt 0.471731 0.341844
vt 0.000000 1.000000
vt 0.841844 0.471731
vt 0.750000 0.490000
vt 0.919706 0.419706
vt 0.971731 0.341844
vt 0.971731 0.158156
vt 0.990000 0.250000
vt 0.919706 0.080294
vt 0.658156 0.028269
vt 0.750000 0.010000
vt 0.580294 0.080294
vt 0.528269 0.341844
vt 0.510000 0.250000
vt 0.580294 0.419706
vt 0.080294 0.419706
vt 0.341844 0.471731
vt 0.250000 0.490000
vt 0.158156 0.471731
vt 0.028269 0.341844
vt 0.010000 0.250000
vt 0.028269 0.158156
vt 0.250000 0.010000
vt 0.158156 0.028269
vt 0.341844 0.028269
vt 0.490000 0.250000
vt 0.471731 0.158156
vt 0.471731 0.341844
vt 0.000000 1.000000
vt 0.658156 0.471731
vt 0.750000 0.490000
vt 0.841844 0.471731
vt 0.919706 0.419706
vt 0.971731 0.158156
vt 0.990000 0.250000
vt 0.919706 0.080294
vt 0.658156 0.028269
vt 0.750000 0.010000
vt 0.580294 0.080294
vt 0.528269 0.341844
vt 0.510000 0.250000
vt 0.580294 0.419706
vt 0.080294 0.419706
vt 0.341844 0.471731
vt 0.250000 0.490000
vt 0.158156 0.471731
vt 0.010000 0.250000
vt 0.028269 0.341844
vt 0.028269 0.158156
vt 0.250000 0.010000
vt 0.158156 0.028269
vt 0.341844 0.028269
vt 0.471731 0.158156
vt 0.490000 0.250000
vt 0.471731 0.341844
vt 0.000000 1.000000
vt 0.658156 0.471731
vt 0.841844 0.471731
vt 0.750000 0.490000
vt 0.919706 0.419706
vt 0.971731 0.158156
vt 0.990000 0.250000
vt 0.919706 0.080294
vt 0.750000 0.010000
vt 0.658156 0.028269
vt 0.580294 0.080294
vt 0.528269 0.341844
vt 0.510000 0.250000
vt 0.580294 0.419706
vn -0.1951 -0.9808 0.0000
vn -0.5556 -0.8315 0.0000
vn -0.8315 -0.5556 0.0000
vn -0.9808 -0.1951 -0.0000
vn -0.9808 0.1951 0.0000
vn -0.8315 0.5556 0.0000
vn -0.5556 0.8315 0.0000
vn -0.1951 0.9808 0.0000
vn 0.1951 0.9808 0.0000
vn 0.5556 0.8315 0.0000
vn 0.8315 0.5556 0.0000
vn 0.9808 0.1951 0.0000
vn 0.9808 -0.1951 -0.0000
vn 0.8315 -0.5556 0.0000
vn 0.0000 0.0000 -1.0000
vn 0.5556 -0.8315 0.0000
vn 0.1951 -0.9808 0.0000
vn 0.0000 -0.0000 1.0000
s off
f 2/1/1 1/2/1 3/3/1
f 4/4/2 3/3/2 5/5/2
f 6/6/3 5/5/3 7/7/3
f 8/8/4 7/7/4 9/9/4
f 10/10/5 9/9/5 11/11/5
f 12/12/6 11/11/6 13/13/6
f 14/14/7 13/13/7 15/15/7
f 16/16/8 15/15/8 17/17/8
f 18/18/9 17/17/9 19/19/9
f 20/20/10 19/19/10 21/21/10
f 22/22/11 21/21/11 23/23/11
f 24/24/12 23/23/12 25/25/12
f 26/26/13 25/25/13 27/27/13
f 28/28/14 27/27/14 29/29/14
f 22/30/15 6/31/15 14/32/15
f 30/33/16 29/29/16 31/34/16
f 32/35/17 31/34/17 1/36/17
f 15/37/18 31/38/18 23/39/18
f 34/40/1 33/41/1 35/42/1
f 36/43/2 35/42/2 37/44/2
f 38/45/3 37/44/3 39/46/3
f 40/47/4 39/46/4 41/48/4
f 42/49/5 41/48/5 43/50/5
f 44/51/6 43/50/6 45/52/6
f 46/53/7 45/52/7 47/54/7
f 48/55/8 47/54/8 49/56/8
f 50/57/9 49/56/9 51/58/9
f 52/59/10 51/58/10 53/60/10
f 54/61/11 53/60/11 55/62/11
f 56/63/12 55/62/12 57/64/12
f 58/65/13 57/64/13 59/66/13
f 60/67/14 59/66/14 61/68/14
f 54/69/15 38/70/15 46/71/15
f 62/72/16 61/68/16 63/73/16
f 64/74/17 63/73/17 33/75/17
f 39/76/18 55/77/18 47/78/18
f 66/79/1 65/80/1 67/81/1
f 68/82/2 67/81/2 69/83/2
f 70/84/3 69/83/3 71/85/3
f 72/86/4 71/85/4 73/87/4
f 74/88/5 73/87/5 75/89/5
f 76/90/6 75/89/6 77/91/6
f 78/92/7 77/91/7 79/93/7
f 80/94/8 79/93/8 81/95/8
f 82/96/9 81/95/9 83/97/9
f 84/98/10 83/97/10 85/99/10
f 86/100/11 85/99/11 87/101/11
f 88/102/12 87/101/12 89/103/12
f 90/104/13 89/103/13 91/105/13
f 92/106/14 91/105/14 93/107/14
f 86/108/15 70/109/15 78/110/15
f 94/111/16 93/107/16 95/112/16
f 96/113/17 95/112/17 65/114/17
f 71/115/18 87/116/18 79/117/18
f 2/1/1 3/3/1 4/4/1
f 4/4/2 5/5/2 6/6/2
f 6/6/3 7/7/3 8/8/3
f 8/8/4 9/9/4 10/10/4
f 10/10/5 11/11/5 12/12/5
f 12/12/6 13/13/6 14/14/6
f 14/14/7 15/15/7 16/16/7
f 16/16/8 17/17/8 18/18/8
f 18/18/9 19/19/9 20/20/9
f 20/20/10 21/21/10 22/22/10
f 22/22/11 23/23/11 24/24/11
f 24/24/12 25/25/12 26/26/12
f 26/26/13 27/27/13 28/28/13
f 28/28/14 29/29/14 30/33/14
f 6/31/15 2/118/15 4/119/15
f 2/118/15 6/31/15 32/120/15
f 32/120/15 6/31/15 30/121/15
f 30/121/15 22/30/15 28/122/15
f 28/122/15 22/30/15 26/123/15
f 26/123/15 22/30/15 24/124/15
f 22/30/15 14/32/15 20/125/15
f 20/125/15 14/32/15 18/126/15
f 18/126/15 14/32/15 16/127/15
f 14/32/15 10/128/15 12/129/15
f 10/128/15 14/32/15 8/130/15
f 8/130/15 14/32/15 6/31/15
f 6/31/15 22/30/15 30/121/15
f 30/33/16 31/34/16 32/35/16
f 32/35/17 1/36/17 2/131/17
f 31/38/18 3/132/18 1/133/18
f 3/132/18 31/38/18 5/134/18
f 5/134/18 31/38/18 7/135/18
f 7/135/18 11/136/18 9/137/18
f 11/136/18 7/135/18 13/138/18
f 13/138/18 7/135/18 15/37/18
f 15/37/18 19/139/18 17/140/18
f 19/139/18 15/37/18 21/141/18
f 21/141/18 15/37/18 23/39/18
f 23/39/18 27/142/18 25/143/18
f 27/142/18 23/39/18 29/144/18
f 29/144/18 23/39/18 31/38/18
f 31/38/18 15/37/18 7/135/18
f 34/40/1 35/42/1 36/43/1
f 36/43/2 37/44/2 38/45/2
f 38/45/3 39/46/3 40/47/3
f 40/47/4 41/48/4 42/49/4
f 42/49/5 43/50/5 44/51/5
f 44/51/6 45/52/6 46/53/6
f 46/53/7 47/54/7 48/55/7
f 48/55/8 49/56/8 50/57/8
f 50/57/9 51/58/9 52/59/9
f 52/59/10 53/60/10 54/61/10
f 54/61/11 55/62/11 56/63/11
f 56/63/12 57/64/12 58/65/12
f 58/65/13 59/66/13 60/67/13
f 60/67/14 61/68/14 62/72/14
f 38/70/15 62/145/15 36/146/15
f 36/146/15 62/145/15 34/147/15
f 34/147/15 62/145/15 64/148/15
f 62/145/15 54/69/15 60/149/15
f 60/149/15 54/69/15 58/150/15
f 58/150/15 54/69/15 56/151/15
f 54/69/15 50/152/15 52/153/15
f 50/152/15 54/69/15 48/154/15
f 48/154/15 54/69/15 46/71/15
f 46/71/15 42/155/15 44/156/15
f 42/155/15 46/71/15 40/157/15
f 40/157/15 46/71/15 38/70/15
f 38/70/15 54/69/15 62/145/15
f 62/72/16 63/73/16 64/74/16
f 64/74/17 33/75/17 34/158/17
f 63/159/18 39/76/18 33/160/18
f 33/160/18 39/76/18 35/161/18
f 35/161/18 39/76/18 37/162/18
f 39/76/18 43/163/18 41/164/18
f 43/163/18 39/76/18 45/165/18
f 45/165/18 39/76/18 47/78/18
f 47/78/18 51/166/18 49/167/18
f 51/166/18 47/78/18 53/168/18
f 53/168/18 47/78/18 55/77/18
f 55/77/18 59/169/18 57/170/18
f 59/169/18 63/159/18 61/171/18
f 55/77/18 63/159/18 59/169/18
f 63/159/18 55/77/18 39/76/18
f 66/79/1 67/81/1 68/82/1
f 68/82/2 69/83/2 70/84/2
f 70/84/3 71/85/3 72/86/3
f 72/86/4 73/87/4 74/88/4
f 74/88/5 75/89/5 76/90/5
f 76/90/6 77/91/6 78/92/6
f 78/92/7 79/93/7 80/94/7
f 80/94/8 81/95/8 82/96/8
f 82/96/9 83/97/9 84/98/9
f 84/98/10 85/99/10 86/100/10
f 86/100/11 87/101/11 88/102/11
f 88/102/12 89/103/12 90/104/12
f 90/104/13 91/105/13 92/106/13
f 92/106/14 93/107/14 94/111/14
f 70/109/15 94/172/15 68/173/15
f 68/173/15 94/172/15 66/174/15
f 66/174/15 94/172/15 96/175/15
f 94/172/15 90/176/15 92/177/15
f 90/176/15 94/172/15 88/178/15
f 88/178/15 94/172/15 86/108/15
f 86/108/15 82/179/15 84/180/15
f 82/179/15 86/108/15 80/181/15
f 80/181/15 86/108/15 78/110/15
f 78/110/15 70/109/15 76/182/15
f 76/182/15 70/109/15 74/183/15
f 74/183/15 70/109/15 72/184/15
f 70/109/15 86/108/15 94/172/15
f 94/111/16 95/112/16 96/113/16
f 96/113/17 65/114/17 66/185/17
f 95/186/18 67/187/18 65/188/18
f 67/187/18 95/186/18 69/189/18
f 69/189/18 95/186/18 71/115/18
f 71/115/18 75/190/18 73/191/18
f 75/190/18 79/117/18 77/192/18
f 79/117/18 87/116/18 81/193/18
f 81/193/18 87/116/18 83/194/18
f 83/194/18 87/116/18 85/195/18
f 87/116/18 91/196/18 89/197/18
f 91/196/18 87/116/18 93/198/18
f 93/198/18 87/116/18 95/186/18
f 71/115/18 79/117/18 75/190/18
f 95/186/18 87/116/18 71/115/18
