# Blender v3.4.1 OBJ File: 'station.blend'
# www.blender.org
o Habitation_1_Lights_Cube.065
v 0.175552 -0.103768 -0.761755
v 0.175552 -0.103768 -0.798919
v 0.165296 -0.118973 -0.761755
v 0.165296 -0.118973 -0.798919
v 0.164112 0.121051 -0.537168
v 0.164112 0.121051 -0.574332
v 0.174101 0.105669 -0.537168
v 0.174101 0.105669 -0.574332
v 0.175552 -0.103768 -0.537168
v 0.175552 -0.103768 -0.574332
v 0.165296 -0.118973 -0.537168
v 0.165296 -0.118973 -0.574332
v 0.164112 0.121051 -0.761755
v 0.164112 0.121051 -0.798919
v 0.174101 0.105669 -0.761755
v 0.174101 0.105669 -0.798919
v -0.173714 0.106816 -0.537168
v -0.173714 0.106816 -0.574332
v -0.163194 0.121840 -0.537168
v -0.163194 0.121840 -0.574332
v -0.173714 0.106816 -0.761755
v -0.173714 0.106816 -0.798919
v -0.163194 0.121840 -0.761755
v -0.163194 0.121840 -0.798919
v -0.106816 -0.173714 0.018582
v -0.106816 -0.173714 -0.018582
v -0.121840 -0.163194 0.018582
v -0.121840 -0.163194 -0.018582
v 0.030449 0.201641 0.018582
v 0.030449 0.201641 -0.018582
v 0.048389 0.197828 0.018582
v 0.048389 0.197828 -0.018582
v 0.164112 0.121051 0.018582
v 0.164112 0.121051 -0.018582
v 0.174101 0.105669 0.018582
v 0.174101 0.105669 -0.018582
v 0.197509 0.050759 0.018582
v 0.197509 0.050759 -0.018582
v 0.201008 0.032755 0.018582
v 0.201008 0.032755 -0.018582
v -0.201641 0.030449 0.018582
v -0.201641 0.030449 -0.018582
v -0.197828 0.048389 0.018582
v -0.197828 0.048389 -0.018582
v -0.030449 0.201641 0.761755
v -0.030449 0.201641 0.798919
v -0.048389 0.197828 0.761755
v -0.048389 0.197828 0.798919
v 0.173714 0.106816 0.537168
v 0.173714 0.106816 0.574332
v 0.163194 0.121840 0.537168
v 0.163194 0.121840 0.574332
v -0.030449 0.201641 0.537168
v -0.030449 0.201641 0.574332
v -0.048389 0.197828 0.537168
v -0.048389 0.197828 0.574332
v 0.173714 0.106816 0.761755
v 0.173714 0.106816 0.798919
v 0.163194 0.121840 0.761755
v 0.163194 0.121840 0.798919
v 0.033964 -0.201079 0.537168
v 0.033964 -0.201079 0.574332
v 0.051834 -0.196953 0.537168
v 0.051834 -0.196953 0.574332
v 0.033964 -0.201079 0.761755
v 0.033964 -0.201079 0.798919
v 0.051834 -0.196953 0.761755
v 0.051834 -0.196953 0.798919
vt 0.875000 0.500000
vt 0.625000 0.750000
vt 0.625000 0.500000
vt 0.875000 0.500000
vt 0.625000 0.750000
vt 0.625000 0.500000
vt 0.875000 0.500000
vt 0.625000 0.750000
vt 0.625000 0.500000
vt 0.875000 0.500000
vt 0.625000 0.750000
vt 0.625000 0.500000
vt 0.875000 0.500000
vt 0.625000 0.750000
vt 0.625000 0.500000
vt 0.875000 0.500000
vt 0.625000 0.750000
vt 0.625000 0.500000
vt 0.875000 0.500000
vt 0.625000 0.750000
vt 0.625000 0.500000
vt 0.875000 0.500000
vt 0.625000 0.750000
vt 0.625000 0.500000
vt 0.875000 0.500000
vt 0.625000 0.750000
vt 0.625000 0.500000
vt 0.875000 0.500000
vt 0.625000 0.750000
vt 0.625000 0.500000
vt 0.875000 0.500000
vt 0.625000 0.750000
vt 0.625000 0.500000
vt 0.625000 0.500000
vt 0.875000 0.750000
vt 0.625000 0.750000
vt 0.875000 0.500000
vt 0.625000 0.750000
vt 0.625000 0.500000
vt 0.875000 0.500000
vt 0.625000 0.750000
vt 0.625000 0.500000
vt 0.875000 0.500000
vt 0.625000 0.750000
vt 0.625000 0.500000
vt 0.875000 0.500000
vt 0.625000 0.750000
vt 0.625000 0.500000
vt 0.875000 0.500000
vt 0.625000 0.750000
vt 0.625000 0.500000
vt 0.875000 0.750000
vt 0.875000 0.750000
vt 0.875000 0.750000
vt 0.875000 0.750000
vt 0.875000 0.750000
vt 0.875000 0.750000
vt 0.875000 0.750000
vt 0.875000 0.750000
vt 0.875000 0.750000
vt 0.875000 0.750000
vt 0.875000 0.750000
vt 0.875000 0.500000
vt 0.875000 0.750000
vt 0.875000 0.750000
vt 0.875000 0.750000
vt 0.875000 0.750000
vt 0.875000 0.750000
vn 0.8290 -0.5592 0.0000
vn 0.8387 0.5446 0.0000
vn -0.8192 0.5736 0.0000
vn -0.5736 -0.8192 0.0000
vn 0.2079 0.9781 0.0000
vn 0.9816 0.1908 0.0000
vn -0.9781 0.2079 0.0000
vn -0.2079 0.9781 0.0000
vn 0.8192 0.5736 0.0000
vn 0.2249 -0.9744 0.0000
s off
f 2/1/1 3/2/1 4/3/1
f 6/4/2 7/5/2 8/6/2
f 10/7/1 11/8/1 12/9/1
f 14/10/2 15/11/2 16/12/2
f 18/13/3 19/14/3 20/15/3
f 22/16/3 23/17/3 24/18/3
f 26/19/4 27/20/4 28/21/4
f 30/22/5 31/23/5 32/24/5
f 34/25/2 35/26/2 36/27/2
f 38/28/6 39/29/6 40/30/6
f 42/31/7 43/32/7 44/33/7
f 48/34/8 45/35/8 47/36/8
f 50/37/9 51/38/9 52/39/9
f 54/40/8 55/41/8 56/42/8
f 58/43/9 59/44/9 60/45/9
f 62/46/10 63/47/10 64/48/10
f 66/49/10 67/50/10 68/51/10
f 2/1/1 1/52/1 3/2/1
f 6/4/2 5/53/2 7/5/2
f 10/7/1 9/54/1 11/8/1
f 14/10/2 13/55/2 15/11/2
f 18/13/3 17/56/3 19/14/3
f 22/16/3 21/57/3 23/17/3
f 26/19/4 25/58/4 27/20/4
f 30/22/5 29/59/5 31/23/5
f 34/25/2 33/60/2 35/26/2
f 38/28/6 37/61/6 39/29/6
f 42/31/7 41/62/7 43/32/7
f 48/34/8 46/63/8 45/35/8
f 50/37/9 49/64/9 51/38/9
f 54/40/8 53/65/8 55/41/8
f 58/43/9 57/66/9 59/44/9
f 62/46/10 61/67/10 63/47/10
f 66/49/10 65/68/10 67/50/10
