# Blender v3.4.1 OBJ File: 'station.blend'
# www.blender.org
o Cylinder.001_Cylinder.107
v 0.078775 -0.190181 -0.718679
v 0.078775 -0.190181 -0.794808
v 0.145558 -0.145558 -0.718679
v 0.145558 -0.145558 -0.794808
v 0.190181 -0.078775 -0.718679
v 0.190181 -0.078775 -0.794808
v -0.040953 0.099088 -0.794808
v -0.040953 0.099089 -0.718679
v 0.190181 0.078775 -0.718679
v 0.190181 0.078775 -0.794808
v 0.145558 0.145558 -0.718679
v 0.145558 0.145558 -0.794808
v 0.078775 0.190181 -0.718679
v 0.078775 0.190181 -0.794808
v -0.078775 0.190181 -0.718679
v -0.078775 0.190181 -0.794808
v -0.145558 0.145558 -0.718679
v -0.145558 0.145558 -0.794808
v -0.190181 0.078775 -0.718679
v -0.190181 0.078775 -0.794808
v -0.076217 0.031728 -0.794808
v -0.076217 0.031728 -0.718679
v -0.190181 -0.078775 -0.718679
v -0.190181 -0.078775 -0.794808
v -0.145558 -0.145558 -0.718679
v -0.145558 -0.145558 -0.794808
v -0.078775 -0.190181 -0.718679
v -0.078775 -0.190181 -0.794808
v -0.000000 -0.000000 -0.794808
v 0.000000 0.000000 -0.718679
v 0.045848 0.110669 -0.718679
v 0.045848 0.110669 -0.794808
v 0.087150 0.036094 -0.718679
v 0.087150 0.036094 -0.794808
v 0.073248 -0.030373 -0.718679
v 0.073248 -0.030373 -0.794808
v 0.044980 -0.108642 -0.718679
v 0.044980 -0.108642 -0.794808
v -0.040250 -0.096812 -0.718679
v -0.040250 -0.096812 -0.794808
v -0.100202 -0.041574 -0.718679
v -0.100202 -0.041574 -0.794808
v 0.078775 -0.190181 0.038065
v 0.078775 -0.190181 -0.038065
v 0.145558 -0.145558 0.038065
v 0.145558 -0.145558 -0.038065
v 0.190181 -0.078775 0.038065
v 0.190181 -0.078775 -0.038065
v -0.040953 0.099088 -0.038065
v -0.040953 0.099088 0.038065
v 0.190181 0.078775 0.038065
v 0.190181 0.078775 -0.038065
v 0.145558 0.145558 0.038065
v 0.145558 0.145558 -0.038065
v 0.078775 0.190181 0.038065
v 0.078775 0.190181 -0.038065
v -0.078775 0.190181 0.038065
v -0.078775 0.190181 -0.038065
v -0.145558 0.145558 0.038065
v -0.145558 0.145558 -0.038065
v -0.190181 0.078775 0.038065
v -0.190181 0.078775 -0.038065
v -0.076217 0.031728 -0.038065
v -0.076217 0.031728 0.038065
v -0.190181 -0.078775 0.038065
v -0.190181 -0.078775 -0.038065
v -0.145558 -0.145558 0.038065
v -0.145558 -0.145558 -0.038065
v -0.078775 -0.190181 0.038065
v -0.078775 -0.190181 -0.038065
v -0.000000 -0.000000 -0.038065
v 0.000000 0.000000 0.038065
v 0.045848 0.110669 0.063441
v 0.045848 0.110669 -0.063441
v 0.087150 0.036094 0.038065
v 0.087150 0.036094 -0.038065
v 0.073248 -0.030373 0.038065
v 0.073248 -0.030373 -0.038065
v 0.044980 -0.108642 0.063441
v 0.044980 -0.108642 -0.063441
v -0.040250 -0.096812 0.038065
v -0.040250 -0.096812 -0.038065
v -0.100202 -0.041574 0.038065
v -0.100202 -0.041574 -0.038065
v 0.078775 -0.190181 0.713065
v 0.078775 -0.190181 0.636935
v 0.145558 -0.145558 0.713065
v 0.145558 -0.145558 0.636935
v 0.190181 -0.078775 0.713065
v 0.190181 -0.078775 0.636935
v -0.040953 0.099088 0.636935
v -0.040953 0.099088 0.713065
v 0.190181 0.078775 0.713065
v 0.190181 0.078775 0.636935
v 0.145558 0.145558 0.713065
v 0.145558 0.145558 0.636935
v 0.078775 0.190181 0.713065
v 0.078775 0.190181 0.636935
v -0.078775 0.190181 0.713065
v -0.078775 0.190181 0.636935
v -0.145558 0.145558 0.713065
v -0.145558 0.145558 0.636935
v -0.190181 0.078775 0.713065
v -0.190181 0.078775 0.636935
v -0.076217 0.031728 0.636935
v -0.076217 0.031728 0.713065
v -0.190181 -0.078775 0.713065
v -0.190181 -0.078775 0.636935
v -0.145558 -0.145558 0.713065
v -0.145558 -0.145558 0.636935
v -0.078775 -0.190181 0.713065
v -0.078775 -0.190181 0.636935
v -0.000000 -0.000000 0.636935
v 0.000000 0.000000 0.713065
v 0.045848 0.110669 0.713065
v 0.045848 0.110669 0.636935
v 0.087150 0.036094 0.713065
v 0.087150 0.036094 0.636935
v 0.073248 -0.030373 0.713065
v 0.073248 -0.030373 0.636935
v 0.044980 -0.108642 0.713065
v 0.044980 -0.108642 0.636935
v -0.040250 -0.096812 0.713065
v -0.040250 -0.096812 0.636935
v -0.100202 -0.041574 0.713065
v -0.100202 -0.041574 0.636935
v 0.078775 -0.190181 -0.551237
v 0.078775 -0.190181 -0.627366
v 0.145558 -0.145558 -0.551237
v 0.145558 -0.145558 -0.627366
v 0.190181 -0.078775 -0.551237
v 0.190181 -0.078775 -0.627366
v -0.040953 0.099089 -0.627366
v -0.040953 0.099089 -0.551237
v 0.190181 0.078775 -0.551237
v 0.190181 0.078775 -0.627366
v 0.145558 0.145558 -0.551237
v 0.145558 0.145558 -0.627366
v 0.078775 0.190181 -0.551237
v 0.078775 0.190181 -0.627366
v -0.078775 0.190181 -0.551237
v -0.078775 0.190181 -0.627366
v -0.145558 0.145558 -0.551237
v -0.145558 0.145558 -0.627366
v -0.190181 0.078775 -0.551237
v -0.190181 0.078775 -0.627366
v -0.076217 0.031728 -0.627366
v -0.076217 0.031728 -0.551237
v -0.190181 -0.078775 -0.551237
v -0.190181 -0.078775 -0.627366
v -0.145558 -0.145558 -0.551237
v -0.145558 -0.145558 -0.627366
v -0.078775 -0.190181 -0.551237
v -0.078775 -0.190181 -0.627366
v -0.000000 -0.000000 -0.627366
v 0.000000 0.000000 -0.551237
v 0.045848 0.110669 -0.551237
v 0.045848 0.110669 -0.627366
v 0.087150 0.036094 -0.551237
v 0.087150 0.036094 -0.627366
v 0.073248 -0.030373 -0.551237
v 0.073248 -0.030373 -0.627366
v 0.044980 -0.108642 -0.551237
v 0.044980 -0.108642 -0.627366
v -0.040250 -0.096812 -0.551237
v -0.040250 -0.096812 -0.627366
v -0.100202 -0.041574 -0.551237
v -0.100202 -0.041574 -0.627366
vt 0.937500 1.000000
vt 0.875000 0.500000
vt 0.937500 0.500000
vt 0.875000 1.000000
vt 0.812500 0.500000
vt 0.687500 1.000000
vt 0.625000 0.500000
vt 0.687500 0.500000
vt 0.625000 1.000000
vt 0.562500 0.500000
vt 0.437500 1.000000
vt 0.375000 0.500000
vt 0.437500 0.500000
vt 0.375000 1.000000
vt 0.312500 0.500000
vt 0.187500 1.000000
vt 0.125000 0.500000
vt 0.187500 0.500000
vt 0.125000 1.000000
vt 0.062500 0.500000
vt 0.158156 0.471731
vt 0.080294 0.419706
vt 0.250000 0.250000
vt 0.028269 0.341844
vt 0.028269 0.158156
vt 0.080294 0.080294
vt 0.158156 0.028269
vt 0.341844 0.028269
vt 0.419706 0.080294
vt 0.471731 0.158156
vt 0.471731 0.341844
vt 0.419706 0.419706
vt 0.341844 0.471731
vt 0.841844 0.471731
vt 0.919706 0.419706
vt 0.750000 0.250000
vt 0.971731 0.341844
vt 0.971731 0.158156
vt 0.919706 0.080294
vt 0.841844 0.028269
vt 0.658156 0.028269
vt 0.580294 0.080294
vt 0.528269 0.158156
vt 0.437500 1.000000
vt 0.312500 1.000000
vt 0.312500 0.500000
vt 0.528269 0.341844
vt 0.580294 0.419706
vt 0.658156 0.471731
vt 0.562500 1.000000
vt 0.562500 0.500000
vt 0.687500 1.000000
vt 0.812500 1.000000
vt 0.812500 0.500000
vt 0.937500 1.000000
vt 0.062500 1.000000
vt 0.062500 0.500000
vt 0.187500 1.000000
vt 0.937500 1.000000
vt 0.875000 0.500000
vt 0.937500 0.500000
vt 0.875000 1.000000
vt 0.812500 0.500000
vt 0.687500 1.000000
vt 0.625000 0.500000
vt 0.687500 0.500000
vt 0.625000 1.000000
vt 0.562500 0.500000
vt 0.437500 1.000000
vt 0.375000 0.500000
vt 0.437500 0.500000
vt 0.375000 1.000000
vt 0.312500 0.500000
vt 0.187500 1.000000
vt 0.125000 0.500000
vt 0.187500 0.500000
vt 0.125000 1.000000
vt 0.062500 0.500000
vt 0.158156 0.471731
vt 0.080294 0.419706
vt 0.250000 0.250000
vt 0.028269 0.341844
vt 0.028269 0.158156
vt 0.080294 0.080294
vt 0.158156 0.028269
vt 0.341844 0.028269
vt 0.419706 0.080294
vt 0.471731 0.158156
vt 0.471731 0.341844
vt 0.419706 0.419706
vt 0.341844 0.471731
vt 0.841844 0.471731
vt 0.919706 0.419706
vt 0.750000 0.250000
vt 0.971731 0.341844
vt 0.971731 0.158156
vt 0.919706 0.080294
vt 0.841844 0.028269
vt 0.658156 0.028269
vt 0.580294 0.080294
vt 0.528269 0.158156
vt 0.437500 1.000000
vt 0.312500 1.000000
vt 0.312500 0.500000
vt 0.528269 0.341844
vt 0.580294 0.419706
vt 0.658156 0.471731
vt 0.562500 1.000000
vt 0.562500 0.500000
vt 0.687500 1.000000
vt 0.812500 1.000000
vt 0.812500 0.500000
vt 0.937500 1.000000
vt 0.062500 1.000000
vt 0.062500 0.500000
vt 0.187500 1.000000
vt 0.937500 1.000000
vt 0.875000 0.500000
vt 0.937500 0.500000
vt 0.875000 1.000000
vt 0.812500 0.500000
vt 0.687500 1.000000
vt 0.625000 0.500000
vt 0.687500 0.500000
vt 0.625000 1.000000
vt 0.562500 0.500000
vt 0.437500 1.000000
vt 0.375000 0.500000
vt 0.437500 0.500000
vt 0.375000 1.000000
vt 0.312500 0.500000
vt 0.187500 1.000000
vt 0.125000 0.500000
vt 0.187500 0.500000
vt 0.125000 1.000000
vt 0.062500 0.500000
vt 0.158156 0.471731
vt 0.080294 0.419706
vt 0.250000 0.250000
vt 0.028269 0.341844
vt 0.028269 0.158156
vt 0.080294 0.080294
vt 0.158156 0.028269
vt 0.341844 0.028269
vt 0.419706 0.080294
vt 0.471731 0.158156
vt 0.471731 0.341844
vt 0.419706 0.419706
vt 0.341844 0.471731
vt 0.841844 0.471731
vt 0.919706 0.419706
vt 0.750000 0.250000
vt 0.971731 0.341844
vt 0.971731 0.158156
vt 0.919706 0.080294
vt 0.841844 0.028269
vt 0.658156 0.028269
vt 0.580294 0.080294
vt 0.528269 0.158156
vt 0.437500 1.000000
vt 0.312500 1.000000
vt 0.312500 0.500000
vt 0.528269 0.341844
vt 0.580294 0.419706
vt 0.658156 0.471731
vt 0.562500 1.000000
vt 0.562500 0.500000
vt 0.687500 1.000000
vt 0.812500 1.000000
vt 0.812500 0.500000
vt 0.937500 1.000000
vt 0.062500 1.000000
vt 0.062500 0.500000
vt 0.187500 1.000000
vt 0.937500 1.000000
vt 0.875000 0.500000
vt 0.937500 0.500000
vt 0.875000 1.000000
vt 0.812500 0.500000
vt 0.687500 1.000000
vt 0.625000 0.500000
vt 0.687500 0.500000
vt 0.625000 1.000000
vt 0.562500 0.500000
vt 0.437500 1.000000
vt 0.375000 0.500000
vt 0.437500 0.500000
vt 0.375000 1.000000
vt 0.312500 0.500000
vt 0.187500 1.000000
vt 0.125000 0.500000
vt 0.187500 0.500000
vt 0.125000 1.000000
vt 0.062500 0.500000
vt 0.158156 0.471731
vt 0.080294 0.419706
vt 0.250000 0.250000
vt 0.028269 0.341844
vt 0.028269 0.158156
vt 0.080294 0.080294
vt 0.158156 0.028269
vt 0.341844 0.028269
vt 0.419706 0.080294
vt 0.471731 0.158156
vt 0.471731 0.341844
vt 0.419706 0.419706
vt 0.341844 0.471731
vt 0.841844 0.471731
vt 0.919706 0.419706
vt 0.750000 0.250000
vt 0.971731 0.341844
vt 0.971731 0.158156
vt 0.919706 0.080294
vt 0.841844 0.028269
vt 0.658156 0.028269
vt 0.580294 0.080294
vt 0.528269 0.158156
vt 0.437500 1.000000
vt 0.312500 1.000000
vt 0.312500 0.500000
vt 0.528269 0.341844
vt 0.580294 0.419706
vt 0.658156 0.471731
vt 0.562500 1.000000
vt 0.562500 0.500000
vt 0.687500 1.000000
vt 0.812500 1.000000
vt 0.812500 0.500000
vt 0.937500 1.000000
vt 0.062500 1.000000
vt 0.062500 0.500000
vt 0.187500 1.000000
vt 0.437500 0.500000
vt 0.312500 1.000000
vt 0.562500 1.000000
vt 0.687500 0.500000
vt 0.812500 1.000000
vt 0.937500 0.500000
vt 0.062500 1.000000
vt 0.187500 0.500000
vt 0.437500 0.500000
vt 0.312500 1.000000
vt 0.562500 1.000000
vt 0.687500 0.500000
vt 0.812500 1.000000
vt 0.937500 0.500000
vt 0.062500 1.000000
vt 0.187500 0.500000
vt 0.437500 0.500000
vt 0.312500 1.000000
vt 0.562500 1.000000
vt 0.687500 0.500000
vt 0.812500 1.000000
vt 0.937500 0.500000
vt 0.062500 1.000000
vt 0.187500 0.500000
vt 0.437500 0.500000
vt 0.312500 1.000000
vt 0.562500 1.000000
vt 0.687500 0.500000
vt 0.812500 1.000000
vt 0.937500 0.500000
vt 0.062500 1.000000
vt 0.187500 0.500000
vn 0.5556 -0.8315 0.0000
vn 0.7071 -0.7071 0.0000
vn 0.8315 -0.5556 0.0000
vn 0.8315 0.5556 0.0000
vn 0.7071 0.7071 0.0000
vn 0.5556 0.8315 0.0000
vn -0.5556 0.8315 0.0000
vn -0.7071 0.7071 0.0000
vn -0.8315 0.5556 0.0000
vn -0.8315 -0.5556 0.0000
vn -0.7071 -0.7071 0.0000
vn -0.5556 -0.8315 0.0000
vn 0.0000 0.0000 -1.0000
vn 0.0000 0.0000 1.0000
vn 0.9236 0.3835 0.0000
vn -0.3816 -0.9243 0.0000
vn -0.9239 0.3826 0.0000
vn 0.3827 -0.9239 0.0000
vn 0.3825 0.9240 -0.0000
vn -0.9238 -0.3829 0.0000
vn 0.9244 -0.3814 0.0000
vn -0.3821 0.9241 -0.0000
s 1
f 2/1/1 3/2/2 1/3/1
f 4/4/2 5/5/3 3/2/2
f 10/6/4 11/7/5 9/8/4
f 12/9/5 13/10/6 11/7/5
f 16/11/7 17/12/8 15/13/7
f 18/14/8 19/15/9 17/12/8
f 24/16/10 25/17/11 23/18/10
f 26/19/11 27/20/12 25/17/11
f 28/21/13 26/22/13 29/23/13
f 26/22/13 24/24/13 29/23/13
f 20/25/13 18/26/13 29/23/13
f 18/26/13 16/27/13 29/23/13
f 14/28/13 12/29/13 29/23/13
f 12/29/13 10/30/13 29/23/13
f 6/31/13 4/32/13 29/23/13
f 4/32/13 2/33/13 29/23/13
f 1/34/14 3/35/14 30/36/14
f 3/35/14 5/37/14 30/36/14
f 9/38/14 11/39/14 30/36/14
f 11/39/14 13/40/14 30/36/14
f 15/41/14 17/42/14 30/36/14
f 17/42/14 19/43/14 30/36/14
f 15/13/15 7/44/15 16/11/15
f 20/45/16 22/46/16 19/15/16
f 23/47/14 25/48/14 30/36/14
f 25/48/14 27/49/14 30/36/14
f 14/50/17 31/51/17 13/10/17
f 9/8/18 34/52/18 10/6/18
f 6/53/19 35/54/19 5/5/19
f 1/3/20 38/55/20 2/1/20
f 28/56/21 39/57/21 27/20/21
f 23/18/22 42/58/22 24/16/22
f 44/59/1 45/60/2 43/61/1
f 46/62/2 47/63/3 45/60/2
f 52/64/4 53/65/5 51/66/4
f 54/67/5 55/68/6 53/65/5
f 58/69/7 59/70/8 57/71/7
f 60/72/8 61/73/9 59/70/8
f 66/74/10 67/75/11 65/76/10
f 68/77/11 69/78/12 67/75/11
f 70/79/13 68/80/13 71/81/13
f 68/80/13 66/82/13 71/81/13
f 62/83/13 60/84/13 71/81/13
f 60/84/13 58/85/13 71/81/13
f 56/86/13 54/87/13 71/81/13
f 54/87/13 52/88/13 71/81/13
f 48/89/13 46/90/13 71/81/13
f 46/90/13 44/91/13 71/81/13
f 43/92/14 45/93/14 72/94/14
f 45/93/14 47/95/14 72/94/14
f 51/96/14 53/97/14 72/94/14
f 53/97/14 55/98/14 72/94/14
f 57/99/14 59/100/14 72/94/14
f 59/100/14 61/101/14 72/94/14
f 57/71/15 49/102/15 58/69/15
f 62/103/16 64/104/16 61/73/16
f 65/105/14 67/106/14 72/94/14
f 67/106/14 69/107/14 72/94/14
f 56/108/17 73/109/17 55/68/17
f 51/66/18 76/110/18 52/64/18
f 48/111/19 77/112/19 47/63/19
f 43/61/20 80/113/20 44/59/20
f 70/114/21 81/115/21 69/78/21
f 65/76/22 84/116/22 66/74/22
f 86/117/1 87/118/2 85/119/1
f 88/120/2 89/121/3 87/118/2
f 94/122/4 95/123/5 93/124/4
f 96/125/5 97/126/6 95/123/5
f 100/127/7 101/128/8 99/129/7
f 102/130/8 103/131/9 101/128/8
f 108/132/10 109/133/11 107/134/10
f 110/135/11 111/136/12 109/133/11
f 112/137/13 110/138/13 113/139/13
f 110/138/13 108/140/13 113/139/13
f 104/141/13 102/142/13 113/139/13
f 102/142/13 100/143/13 113/139/13
f 98/144/13 96/145/13 113/139/13
f 96/145/13 94/146/13 113/139/13
f 90/147/13 88/148/13 113/139/13
f 88/148/13 86/149/13 113/139/13
f 85/150/14 87/151/14 114/152/14
f 87/151/14 89/153/14 114/152/14
f 93/154/14 95/155/14 114/152/14
f 95/155/14 97/156/14 114/152/14
f 99/157/14 101/158/14 114/152/14
f 101/158/14 103/159/14 114/152/14
f 99/129/15 91/160/15 100/127/15
f 104/161/16 106/162/16 103/131/16
f 107/163/14 109/164/14 114/152/14
f 109/164/14 111/165/14 114/152/14
f 98/166/17 115/167/17 97/126/17
f 93/124/18 118/168/18 94/122/18
f 90/169/19 119/170/19 89/121/19
f 85/119/20 122/171/20 86/117/20
f 112/172/21 123/173/21 111/136/21
f 107/134/22 126/174/22 108/132/22
f 128/175/1 129/176/2 127/177/1
f 130/178/2 131/179/3 129/176/2
f 136/180/4 137/181/5 135/182/4
f 138/183/5 139/184/6 137/181/5
f 142/185/7 143/186/8 141/187/7
f 144/188/8 145/189/9 143/186/8
f 150/190/10 151/191/11 149/192/10
f 152/193/11 153/194/12 151/191/11
f 154/195/13 152/196/13 155/197/13
f 152/196/13 150/198/13 155/197/13
f 146/199/13 144/200/13 155/197/13
f 144/200/13 142/201/13 155/197/13
f 140/202/13 138/203/13 155/197/13
f 138/203/13 136/204/13 155/197/13
f 132/205/13 130/206/13 155/197/13
f 130/206/13 128/207/13 155/197/13
f 127/208/14 129/209/14 156/210/14
f 129/209/14 131/211/14 156/210/14
f 135/212/14 137/213/14 156/210/14
f 137/213/14 139/214/14 156/210/14
f 141/215/14 143/216/14 156/210/14
f 143/216/14 145/217/14 156/210/14
f 141/187/15 133/218/15 142/185/15
f 146/219/16 148/220/16 145/189/16
f 149/221/14 151/222/14 156/210/14
f 151/222/14 153/223/14 156/210/14
f 140/224/17 157/225/17 139/184/17
f 135/182/18 160/226/18 136/180/18
f 132/227/19 161/228/19 131/179/19
f 127/177/20 164/229/20 128/175/20
f 154/230/21 165/231/21 153/194/21
f 149/192/22 168/232/22 150/190/22
f 2/1/1 4/4/2 3/2/2
f 4/4/2 6/53/3 5/5/3
f 10/6/4 12/9/5 11/7/5
f 12/9/5 14/50/6 13/10/6
f 16/11/7 18/14/8 17/12/8
f 18/14/8 20/45/9 19/15/9
f 24/16/10 26/19/11 25/17/11
f 26/19/11 28/56/12 27/20/12
f 15/13/15 8/233/15 7/44/15
f 20/45/16 21/234/16 22/46/16
f 14/50/17 32/235/17 31/51/17
f 9/8/18 33/236/18 34/52/18
f 6/53/19 36/237/19 35/54/19
f 1/3/20 37/238/20 38/55/20
f 28/56/21 40/239/21 39/57/21
f 23/18/22 41/240/22 42/58/22
f 44/59/1 46/62/2 45/60/2
f 46/62/2 48/111/3 47/63/3
f 52/64/4 54/67/5 53/65/5
f 54/67/5 56/108/6 55/68/6
f 58/69/7 60/72/8 59/70/8
f 60/72/8 62/103/9 61/73/9
f 66/74/10 68/77/11 67/75/11
f 68/77/11 70/114/12 69/78/12
f 57/71/15 50/241/15 49/102/15
f 62/103/16 63/242/16 64/104/16
f 56/108/17 74/243/17 73/109/17
f 51/66/18 75/244/18 76/110/18
f 48/111/19 78/245/19 77/112/19
f 43/61/20 79/246/20 80/113/20
f 70/114/21 82/247/21 81/115/21
f 65/76/22 83/248/22 84/116/22
f 86/117/1 88/120/2 87/118/2
f 88/120/2 90/169/3 89/121/3
f 94/122/4 96/125/5 95/123/5
f 96/125/5 98/166/6 97/126/6
f 100/127/7 102/130/8 101/128/8
f 102/130/8 104/161/9 103/131/9
f 108/132/10 110/135/11 109/133/11
f 110/135/11 112/172/12 111/136/12
f 99/129/15 92/249/15 91/160/15
f 104/161/16 105/250/16 106/162/16
f 98/166/17 116/251/17 115/167/17
f 93/124/18 117/252/18 118/168/18
f 90/169/19 120/253/19 119/170/19
f 85/119/20 121/254/20 122/171/20
f 112/172/21 124/255/21 123/173/21
f 107/134/22 125/256/22 126/174/22
f 128/175/1 130/178/2 129/176/2
f 130/178/2 132/227/3 131/179/3
f 136/180/4 138/183/5 137/181/5
f 138/183/5 140/224/6 139/184/6
f 142/185/7 144/188/8 143/186/8
f 144/188/8 146/219/9 145/189/9
f 150/190/10 152/193/11 151/191/11
f 152/193/11 154/230/12 153/194/12
f 141/187/15 134/257/15 133/218/15
f 146/219/16 147/258/16 148/220/16
f 140/224/17 158/259/17 157/225/17
f 135/182/18 159/260/18 160/226/18
f 132/227/19 162/261/19 161/228/19
f 127/177/20 163/262/20 164/229/20
f 154/230/21 166/263/21 165/231/21
f 149/192/22 167/264/22 168/232/22
