# Blender v3.4.1 OBJ File: 'station.blend'
# www.blender.org
o Habitation_2_Icosphere
v 0.003696 -0.995800 0.011376
v -0.009677 -0.995800 0.007031
v -0.009677 -0.995800 -0.007031
v 0.003696 -0.995800 -0.011376
v 0.011962 -0.995800 0.000000
v 0.712934 -0.453997 0.526661
v 0.721199 -0.453997 0.515285
v 0.728592 -0.442035 0.515285
v 0.724896 -0.434642 0.526662
v 0.715218 -0.442035 0.533692
v -0.267203 -0.453997 0.845133
v -0.264919 -0.442035 0.852164
v -0.276880 -0.434642 0.852164
v -0.286558 -0.442035 0.845133
v -0.280577 -0.453997 0.840788
v -0.886342 -0.453993 0.007031
v -0.892322 -0.442031 0.011376
v -0.896019 -0.434638 0.000000
v -0.892322 -0.442031 -0.011376
v -0.886342 -0.453993 -0.007031
v -0.280577 -0.453997 -0.840788
v -0.286558 -0.442035 -0.845133
v -0.276880 -0.434642 -0.852164
v -0.264919 -0.442035 -0.852164
v -0.267203 -0.453997 -0.845133
v 0.721199 -0.453997 -0.515285
v 0.712934 -0.453997 -0.526661
v 0.715218 -0.442035 -0.533692
v 0.724896 -0.434642 -0.526662
v 0.728592 -0.442035 -0.515285
v 0.276880 0.434642 0.852164
v 0.286558 0.442035 0.845133
v 0.280577 0.453997 0.840788
v 0.267203 0.453997 0.845133
v 0.264919 0.442035 0.852164
v -0.724896 0.434642 0.526662
v -0.715218 0.442035 0.533692
v -0.712934 0.453997 0.526661
v -0.721199 0.453997 0.515285
v -0.728592 0.442035 0.515285
v -0.724896 0.434642 -0.526662
v -0.728592 0.442035 -0.515285
v -0.721199 0.453997 -0.515285
v -0.712934 0.453997 -0.526661
v -0.715218 0.442035 -0.533692
v 0.276880 0.434642 -0.852164
v 0.264919 0.442035 -0.852164
v 0.267203 0.453997 -0.845133
v 0.280577 0.453997 -0.840788
v 0.286558 0.442035 -0.845133
v 0.896019 0.434638 0.000000
v 0.892322 0.442031 -0.011376
v 0.886342 0.453993 -0.007031
v 0.886342 0.453993 0.007031
v 0.892322 0.442031 0.011376
v 0.009677 0.995800 -0.007031
v -0.003696 0.995800 -0.011376
v -0.011962 0.995800 0.000000
v -0.003696 0.995800 0.011376
v 0.009677 0.995800 0.007031
v -0.151607 -0.853029 0.489359
v -0.148887 -0.846303 0.501576
v -0.158286 -0.839670 0.509917
v -0.171660 -0.839670 0.505571
v -0.174362 -0.846303 0.493299
v -0.164981 -0.853029 0.485014
v 0.427781 -0.839670 0.319489
v 0.415275 -0.846303 0.318266
v 0.410294 -0.853029 0.306783
v 0.418559 -0.853029 0.295407
v 0.431019 -0.846303 0.296596
v 0.436047 -0.839670 0.308112
v 0.248313 -0.529058 0.805328
v 0.259348 -0.534441 0.798177
v 0.272480 -0.529058 0.797476
v 0.274764 -0.517096 0.804507
v 0.263700 -0.511656 0.811570
v 0.250597 -0.517096 0.812359
v 0.842647 -0.529056 0.012705
v 0.839255 -0.534439 0.000000
v 0.842647 -0.529056 -0.012705
v 0.850040 -0.517095 -0.012705
v 0.853337 -0.511654 0.000000
v 0.850040 -0.517095 0.012705
v 0.436047 -0.839670 -0.308112
v 0.431019 -0.846303 -0.296596
v 0.418559 -0.853029 -0.295407
v 0.410294 -0.853029 -0.306783
v 0.415275 -0.846303 -0.318266
v 0.427781 -0.839670 -0.319488
v -0.512261 -0.853027 0.007031
v -0.523040 -0.846300 0.013393
v -0.533877 -0.839667 0.007031
v -0.533877 -0.839667 -0.007031
v -0.523040 -0.846300 -0.013393
v -0.512261 -0.853027 -0.007031
v -0.689184 -0.529057 0.485015
v -0.678973 -0.534439 0.493301
v -0.674248 -0.529057 0.505573
v -0.680229 -0.517095 0.509918
v -0.690365 -0.511654 0.501578
v -0.695165 -0.517095 0.489361
v -0.164981 -0.853029 -0.485014
v -0.174362 -0.846303 -0.493299
v -0.171660 -0.839670 -0.505571
v -0.158286 -0.839670 -0.509917
v -0.148887 -0.846303 -0.501576
v -0.151607 -0.853029 -0.489359
v -0.674248 -0.529057 -0.505573
v -0.678973 -0.534439 -0.493301
v -0.689184 -0.529057 -0.485015
v -0.695165 -0.517095 -0.489361
v -0.690365 -0.511654 -0.501578
v -0.680229 -0.517095 -0.509918
v 0.272480 -0.529058 -0.797476
v 0.259348 -0.534441 -0.798177
v 0.248313 -0.529058 -0.805328
v 0.250597 -0.517096 -0.812359
v 0.263700 -0.511656 -0.811570
v 0.274764 -0.517096 -0.804507
v 0.946029 -0.014504 0.308113
v 0.949713 -0.007041 0.296597
v 0.950157 0.007111 0.295408
v 0.946461 0.014504 0.306784
v 0.942672 0.007041 0.318267
v 0.942333 -0.007111 0.319490
v 0.950157 0.007111 -0.295408
v 0.949713 -0.007041 -0.296597
v 0.946029 -0.014504 -0.308113
v 0.942333 -0.007111 -0.319490
v 0.942672 0.007041 -0.318267
v 0.946461 0.014504 -0.306784
v -0.000699 -0.014504 0.994939
v 0.011392 -0.007041 0.994884
v 0.012660 0.007111 0.994940
v 0.000699 0.014504 0.994939
v -0.011392 0.007041 0.994884
v -0.012660 -0.007111 0.994940
v 0.574569 0.007111 0.812364
v 0.575562 -0.007041 0.811574
v 0.585376 -0.014504 0.804512
v 0.595054 -0.007111 0.797481
v 0.593995 0.007041 0.798182
v 0.584246 0.014504 0.805333
v -0.946461 -0.014504 0.306784
v -0.942672 -0.007041 0.318267
v -0.942333 0.007111 0.319490
v -0.946029 0.014504 0.308113
v -0.949713 0.007041 0.296597
v -0.950157 -0.007111 0.295408
v -0.595054 0.007111 0.797481
v -0.593995 -0.007041 0.798182
v -0.584246 -0.014504 0.805333
v -0.574569 -0.007111 0.812364
v -0.575562 0.007041 0.811574
v -0.585376 0.014504 0.804512
v -0.584246 -0.014504 -0.805333
v -0.593995 -0.007041 -0.798182
v -0.595054 0.007111 -0.797481
v -0.585376 0.014504 -0.804512
v -0.575562 0.007041 -0.811574
v -0.574569 -0.007111 -0.812364
v -0.942333 0.007111 -0.319490
v -0.942672 -0.007041 -0.318267
v -0.946461 -0.014504 -0.306784
v -0.950157 -0.007111 -0.295408
v -0.949713 0.007041 -0.296597
v -0.946029 0.014504 -0.308113
v 0.585376 -0.014504 -0.804512
v 0.575562 -0.007041 -0.811574
v 0.574569 0.007111 -0.812364
v 0.584246 0.014504 -0.805333
v 0.593995 0.007041 -0.798182
v 0.595054 -0.007111 -0.797481
v 0.012660 0.007111 -0.994939
v 0.011392 -0.007041 -0.994884
v -0.000699 -0.014504 -0.994939
v -0.012660 -0.007111 -0.994939
v -0.011392 0.007041 -0.994884
v 0.000699 0.014504 -0.994939
v 0.680229 0.517095 0.509918
v 0.690365 0.511654 0.501578
v 0.695165 0.517095 0.489361
v 0.689184 0.529057 0.485015
v 0.678973 0.534439 0.493301
v 0.674248 0.529057 0.505573
v -0.274764 0.517096 0.804507
v -0.263700 0.511656 0.811570
v -0.250597 0.517096 0.812359
v -0.248313 0.529058 0.805328
v -0.259348 0.534441 0.798177
v -0.272480 0.529058 0.797476
v -0.850040 0.517095 -0.012705
v -0.853337 0.511654 0.000000
v -0.850040 0.517095 0.012705
v -0.842647 0.529056 0.012705
v -0.839255 0.534439 0.000000
v -0.842647 0.529056 -0.012705
v -0.250597 0.517096 -0.812359
v -0.263700 0.511656 -0.811570
v -0.274764 0.517096 -0.804507
v -0.272480 0.529058 -0.797476
v -0.259348 0.534441 -0.798177
v -0.248313 0.529058 -0.805328
v 0.695165 0.517095 -0.489361
v 0.690365 0.511654 -0.501578
v 0.680229 0.517095 -0.509918
v 0.674248 0.529057 -0.505573
v 0.678973 0.534439 -0.493301
v 0.689184 0.529057 -0.485015
v 0.171660 0.839670 0.505571
v 0.174362 0.846303 0.493299
v 0.164981 0.853029 0.485014
v 0.151607 0.853029 0.489359
v 0.148887 0.846303 0.501576
v 0.158286 0.839670 0.509917
v 0.512261 0.853027 0.007031
v 0.523040 0.846300 0.013393
v 0.533877 0.839667 0.007031
v 0.533877 0.839667 -0.007031
v 0.523040 0.846300 -0.013393
v 0.512261 0.853027 -0.007031
v -0.427781 0.839670 0.319489
v -0.415275 0.846303 0.318266
v -0.410294 0.853029 0.306783
v -0.418559 0.853029 0.295407
v -0.431019 0.846303 0.296596
v -0.436047 0.839670 0.308112
v -0.436047 0.839670 -0.308112
v -0.431019 0.846303 -0.296596
v -0.418559 0.853029 -0.295407
v -0.410294 0.853029 -0.306783
v -0.415275 0.846303 -0.318266
v -0.427781 0.839670 -0.319488
v 0.158286 0.839670 -0.509917
v 0.148887 0.846303 -0.501576
v 0.151607 0.853029 -0.489359
v 0.164981 0.853029 -0.485014
v 0.174362 0.846303 -0.493299
v 0.171660 0.839670 -0.505571
vt 0.320184 0.077479
vt 0.363637 0.002214
vt 0.407090 0.077479
vt 0.274646 0.158568
vt 0.361552 0.158568
vt 0.318099 0.233832
vt 0.727273 0.002214
vt 0.770726 0.077479
vt 0.683820 0.077479
vt 0.545455 0.002214
vt 0.588908 0.077479
vt 0.502002 0.077479
vt 0.181819 0.002214
vt 0.225272 0.077479
vt 0.138366 0.077479
vt 0.272728 0.159675
vt 0.316181 0.234939
vt 0.229275 0.234939
vt 0.090910 0.159675
vt 0.134363 0.234939
vt 0.047456 0.234939
vt 0.818182 0.159675
vt 0.861635 0.234939
vt 0.774729 0.234939
vt 0.636364 0.159675
vt 0.679817 0.234939
vt 0.592911 0.234939
vt 0.454546 0.159675
vt 0.497999 0.234939
vt 0.411093 0.234939
vt 0.136281 0.081090
vt 0.179734 0.156354
vt 0.092828 0.156354
vt 0.863553 0.081090
vt 0.907006 0.156354
vt 0.820100 0.156354
vt 0.681735 0.081090
vt 0.725188 0.156354
vt 0.638282 0.156354
vt 0.365722 0.156354
vt 0.409175 0.081090
vt 0.452628 0.156354
vt 0.138366 0.237443
vt 0.225272 0.237443
vt 0.181819 0.312707
vt 0.092994 0.316028
vt 0.179901 0.316028
vt 0.136448 0.391292
vt 0.820267 0.316028
vt 0.907173 0.316028
vt 0.863720 0.391292
vt 0.638449 0.316028
vt 0.725355 0.316028
vt 0.681902 0.391292
vt 0.456631 0.316028
vt 0.543537 0.316028
vt 0.500084 0.391293
vt 0.229275 0.394903
vt 0.316181 0.394903
vt 0.272728 0.470168
vt 0.865463 0.079785
vt 0.952719 0.079785
vt 0.909091 0.155352
vt 0.320184 0.237443
vt 0.407090 0.237443
vt 0.363637 0.312707
vt 0.411093 0.394903
vt 0.497999 0.394903
vt 0.454546 0.470168
vt 0.410918 0.392597
vt 0.454546 0.317030
vt 0.498174 0.392597
vt 0.502002 0.237443
vt 0.588908 0.237443
vt 0.545455 0.312707
vt 0.592911 0.394903
vt 0.679817 0.394903
vt 0.636364 0.470168
vt 0.592736 0.392597
vt 0.636364 0.317030
vt 0.679992 0.392597
vt 0.683820 0.237443
vt 0.770726 0.237443
vt 0.727273 0.312707
vt 0.774729 0.394903
vt 0.861635 0.394903
vt 0.818182 0.470168
vt 0.774554 0.392597
vt 0.818182 0.317030
vt 0.861810 0.392597
vt 0.865638 0.237443
vt 0.952544 0.237443
vt 0.909091 0.312707
vt 0.047456 0.394903
vt 0.134363 0.394903
vt 0.090910 0.470168
vt 0.047281 0.392597
vt 0.090910 0.317030
vt 0.134538 0.392597
vt 0.409008 0.238550
vt 0.452461 0.313814
vt 0.365555 0.313814
vt 0.365555 0.316028
vt 0.452461 0.316028
vt 0.409008 0.391292
vt 0.047281 0.237245
vt 0.134538 0.237245
vt 0.090910 0.312812
vt 0.590826 0.238550
vt 0.634279 0.313814
vt 0.547373 0.313814
vt 0.547373 0.316028
vt 0.634279 0.316028
vt 0.590826 0.391292
vt 0.229100 0.392597
vt 0.272728 0.317030
vt 0.316356 0.392597
vt 0.772644 0.238550
vt 0.816097 0.313814
vt 0.729191 0.313814
vt 0.729191 0.316028
vt 0.816097 0.316028
vt 0.772644 0.391292
vt 0.592736 0.237245
vt 0.679992 0.237245
vt 0.636364 0.312812
vt 0.045371 0.238550
vt 0.088825 0.313814
vt 0.001918 0.313814
vt 0.001918 0.316028
vt 0.088825 0.316028
vt 0.045371 0.391292
vt 0.774554 0.237245
vt 0.861810 0.237245
vt 0.818182 0.312812
vt 0.227190 0.238550
vt 0.270643 0.313814
vt 0.183737 0.313814
vt 0.183737 0.316028
vt 0.270643 0.316028
vt 0.227190 0.391292
vt 0.410918 0.237245
vt 0.498174 0.237245
vt 0.454546 0.312812
vt 0.274813 0.316028
vt 0.361719 0.316028
vt 0.318266 0.391292
vt 0.500084 0.238550
vt 0.543537 0.313814
vt 0.456631 0.313814
vt 0.229100 0.237245
vt 0.316356 0.237245
vt 0.272728 0.312812
vt 0.638282 0.158568
vt 0.725188 0.158568
vt 0.681735 0.233832
vt 0.681902 0.238550
vt 0.725355 0.313814
vt 0.638449 0.313814
vt 0.501827 0.235137
vt 0.545455 0.159570
vt 0.589083 0.235137
vt 0.820100 0.158568
vt 0.907006 0.158568
vt 0.863553 0.233832
vt 0.863720 0.238550
vt 0.907174 0.313814
vt 0.820267 0.313814
vt 0.683645 0.235137
vt 0.727273 0.159570
vt 0.770901 0.235137
vt 0.092828 0.158568
vt 0.179734 0.158568
vt 0.136281 0.233832
vt 0.136448 0.238550
vt 0.179901 0.313814
vt 0.092994 0.313814
vt 0.320009 0.235137
vt 0.363637 0.159570
vt 0.407265 0.235137
vt 0.274646 0.156354
vt 0.318099 0.081090
vt 0.361552 0.156354
vt 0.318266 0.238550
vt 0.361719 0.313814
vt 0.274813 0.313814
vt 0.501827 0.079785
vt 0.589083 0.079785
vt 0.545455 0.155352
vt 0.499917 0.081090
vt 0.543370 0.156354
vt 0.456464 0.156354
vt 0.456464 0.158568
vt 0.543370 0.158568
vt 0.499917 0.233832
vt 0.683645 0.079785
vt 0.770901 0.079785
vt 0.727273 0.155352
vt 0.547540 0.158568
vt 0.634446 0.158568
vt 0.590993 0.233832
vt 0.590993 0.081090
vt 0.634446 0.156354
vt 0.547540 0.156354
vt 0.865463 0.235137
vt 0.909091 0.159570
vt 0.952719 0.235137
vt 0.729358 0.158568
vt 0.816265 0.158568
vt 0.772811 0.233832
vt 0.772811 0.081090
vt 0.816264 0.156354
vt 0.729358 0.156354
vt 0.138191 0.079785
vt 0.225447 0.079785
vt 0.181819 0.155352
vt 0.911176 0.158568
vt 0.998082 0.158568
vt 0.954629 0.233832
vt 0.365722 0.158568
vt 0.452628 0.158568
vt 0.409175 0.233832
vt 0.138191 0.235137
vt 0.181819 0.159570
vt 0.225447 0.235137
vt 0.227357 0.081090
vt 0.270810 0.156354
vt 0.183904 0.156354
vt 0.954629 0.081090
vt 0.998082 0.156354
vt 0.911176 0.156354
vt 0.363637 0.155352
vt 0.320009 0.079785
vt 0.407265 0.079785
vt 0.183904 0.158568
vt 0.270810 0.158568
vt 0.227357 0.233832
vt 0.909091 0.002214
vt 0.952544 0.077479
vt 0.865638 0.077479
vn 0.3313 -0.9435 0.0000
vn 0.9050 -0.3304 0.2680
vn -0.2680 -0.9435 -0.1947
vn 0.1024 -0.9435 -0.3151
vn 0.1024 -0.9435 0.3151
vn 0.8026 -0.1256 0.5831
vn -0.3066 -0.1256 0.9435
vn -0.9921 -0.1256 -0.0000
vn -0.3066 -0.1256 -0.9435
vn 0.8026 -0.1256 -0.5831
vn -0.0385 -0.6617 0.7488
vn -0.7240 -0.6617 0.1947
vn -0.4089 -0.6617 -0.6284
vn 0.7002 -0.6617 -0.2680
vn 0.3066 0.1256 0.9435
vn 0.0385 0.6617 0.7488
vn -0.7002 0.6617 0.2680
vn -0.4713 0.6617 -0.5831
vn 0.4089 0.6617 -0.6284
vn 0.2680 0.9435 0.1947
vn -0.4911 -0.7947 0.3568
vn 0.9921 0.1256 -0.0000
vn 0.2680 0.9435 -0.1947
vn 0.4911 0.7947 -0.3568
vn 0.3066 0.1256 -0.9435
vn -0.1024 0.9435 -0.3151
vn -0.1876 0.7947 -0.5773
vn -0.8026 0.1256 -0.5831
vn -0.3313 0.9435 0.0000
vn -0.6071 0.7947 0.0000
vn -0.8026 0.1256 0.5831
vn -0.1024 0.9435 0.3151
vn -0.1876 0.7947 0.5773
vn 0.8897 0.3304 -0.3151
vn 0.7240 0.6617 -0.1947
vn -0.3035 0.1876 0.9342
vn -0.0247 0.3304 -0.9435
vn 0.0385 0.6617 -0.7488
vn 0.4911 0.7947 0.3568
vn -0.9050 0.3304 -0.2680
vn -0.7002 0.6617 -0.2680
vn -0.3035 0.1876 -0.9342
vn -0.5346 0.3304 0.7779
vn -0.4713 0.6617 0.5831
vn -0.9822 0.1876 0.0000
vn 0.5746 0.3304 0.7488
vn 0.4089 0.6617 0.6284
vn 0.7947 0.1876 -0.5773
vn 0.7240 0.6617 0.1947
vn 0.5746 0.3304 -0.7488
vn 0.7947 0.1876 0.5773
vn -0.5746 -0.3304 -0.7488
vn -0.5346 0.3304 -0.7779
vn 0.3035 -0.1876 -0.9342
vn -0.8897 -0.3304 0.3151
vn -0.9050 0.3304 0.2680
vn -0.7947 -0.1876 -0.5773
vn 0.0247 -0.3304 0.9435
vn -0.0247 0.3304 0.9435
vn 0.9822 -0.1876 0.0000
vn 0.7002 -0.6617 0.2680
vn 0.8897 0.3304 0.3151
vn 0.1876 -0.7947 -0.5773
vn 0.4713 -0.6617 -0.5831
vn 0.5346 -0.3304 -0.7779
vn -0.4911 -0.7947 -0.3568
vn 0.0247 -0.3304 -0.9435
vn -0.0385 -0.6617 -0.7488
vn -0.7947 -0.1876 0.5773
vn -0.8897 -0.3304 -0.3151
vn -0.7240 -0.6617 -0.1947
vn 0.1876 -0.7947 0.5773
vn -0.5746 -0.3304 0.7488
vn 0.9050 -0.3304 -0.2680
vn 0.3035 -0.1876 0.9342
vn 0.4713 -0.6617 0.5831
vn -0.4089 -0.6617 0.6284
vn 0.6071 -0.7947 0.0000
vn 0.5346 -0.3304 0.7779
vn -0.2680 -0.9435 0.1947
s off
f 70/1/1 5/2/1 87/3/1
f 8/4/2 84/5/2 121/6/2
f 3/7/3 96/8/3 103/9/3
f 4/10/4 108/11/4 88/12/4
f 1/13/5 69/14/5 61/15/5
f 9/16/6 126/17/6 142/18/6
f 13/19/7 138/20/7 154/21/7
f 18/22/8 150/23/8 166/24/8
f 23/25/9 162/26/9 178/27/9
f 29/28/10 174/29/10 130/30/10
f 63/31/11 73/32/11 11/33/11
f 93/34/12 97/35/12 16/36/12
f 105/37/13 109/38/13 21/39/13
f 81/40/14 85/41/14 26/42/14
f 135/43/15 139/44/15 31/45/15
f 190/46/16 34/47/16 216/48/16
f 196/49/17 39/50/17 228/51/17
f 202/52/18 44/53/18 234/54/18
f 208/55/19 49/56/19 240/57/19
f 213/58/20 217/59/20 60/60/20
f 92/61/21 65/62/21 98/63/21
f 123/64/22 127/65/22 51/66/22
f 222/67/23 238/68/23 56/69/23
f 221/70/24 209/71/24 239/72/24
f 171/73/25 175/74/25 46/75/25
f 237/76/26 232/77/26 57/78/26
f 236/79/27 203/80/27 233/81/27
f 159/82/28 163/83/28 41/84/28
f 231/85/29 226/86/29 58/87/29
f 230/88/30 197/89/30 227/90/30
f 147/91/31 151/92/31 36/93/31
f 225/94/32 214/95/32 59/96/32
f 224/97/33 191/98/33 215/99/33
f 132/100/34 205/101/34 52/102/34
f 53/103/35 210/104/35 220/105/35
f 155/106/36 137/107/36 188/108/36
f 180/109/37 199/110/37 47/111/37
f 48/112/38 204/113/38 235/114/38
f 212/115/39 185/116/39 218/117/39
f 168/118/40 193/119/40 42/120/40
f 43/121/41 198/122/41 229/123/41
f 179/124/42 161/125/42 200/126/42
f 156/127/43 187/128/43 37/129/43
f 38/130/44 192/131/44 223/132/44
f 167/133/45 149/134/45 194/135/45
f 144/136/46 181/137/46 32/138/46
f 33/139/47 186/140/47 211/141/47
f 131/142/48 173/143/48 206/144/48
f 184/145/49 54/146/49 219/147/49
f 172/148/50 50/149/50 207/150/50
f 143/151/51 125/152/51 182/153/51
f 22/154/52 114/155/52 157/156/52
f 160/157/53 45/158/53 201/159/53
f 170/160/54 119/161/54 176/162/54
f 17/163/55 102/164/55 145/165/55
f 148/166/56 40/167/56 195/168/56
f 158/169/57 113/170/57 164/171/57
f 12/172/58 78/173/58 133/174/58
f 136/175/59 35/176/59 189/177/59
f 122/178/60 83/179/60 128/180/60
f 7/181/61 72/182/61 79/183/61
f 124/184/62 55/185/62 183/186/62
f 89/187/63 107/188/63 116/189/63
f 90/190/64 115/191/64 27/192/64
f 28/193/65 120/194/65 169/195/65
f 104/196/66 95/197/66 110/198/66
f 118/199/67 24/200/67 177/201/67
f 106/202/68 25/203/68 117/204/68
f 146/205/69 101/206/69 152/207/69
f 112/208/70 19/209/70 165/210/70
f 94/211/71 20/212/71 111/213/71
f 62/214/72 68/215/72 74/216/72
f 100/217/73 14/218/73 153/219/73
f 82/220/74 30/221/74 129/222/74
f 134/223/75 77/224/75 140/225/75
f 67/226/76 6/227/76 75/228/76
f 64/229/77 15/230/77 99/231/77
f 80/232/78 71/233/78 86/234/78
f 76/235/79 10/236/79 141/237/79
f 2/238/80 66/239/80 91/240/80
