# Blender v3.4.1 OBJ File: 'station.blend'
# www.blender.org
o Habitation_3_Lights_Cube.050
v 0.159572 -0.173516 -0.614265
v 0.173516 -0.159572 -0.893245
v 0.159572 -0.173516 -0.567936
v 0.173516 -0.159572 -0.939573
v 0.173516 -0.159572 -0.614265
v 0.159572 -0.173516 -0.893245
v 0.173516 -0.159572 -0.567936
v 0.159572 -0.173516 -0.939573
v 0.151228 -0.165172 -0.192688
v 0.151228 -0.165172 -0.146360
v 0.165172 -0.151228 -0.192688
v 0.165172 -0.151228 -0.146360
v 0.151228 -0.165172 -0.108934
v 0.151228 -0.165172 -0.062605
v 0.165172 -0.151228 -0.108934
v 0.165172 -0.151228 -0.062605
v 0.151228 -0.165172 -0.432147
v 0.151228 -0.165172 -0.385819
v 0.165172 -0.151228 -0.432147
v 0.165172 -0.151228 -0.385819
v 0.173516 -0.159572 0.773208
v 0.173516 -0.159572 0.726879
v 0.159572 -0.173516 0.773208
v 0.159572 -0.173516 0.726879
v 0.165172 -0.151228 0.107766
v 0.165172 -0.151228 0.061437
v 0.151228 -0.165172 0.107766
v 0.151228 -0.165172 0.061437
v 0.173516 -0.159572 0.608013
v 0.173516 -0.159572 0.561685
v 0.159572 -0.173516 0.608013
v 0.159572 -0.173516 0.561685
v -0.159572 0.173516 -0.614265
v -0.173516 0.159572 -0.893245
v -0.159572 0.173516 -0.567936
v -0.173516 0.159572 -0.939573
v -0.173516 0.159572 -0.614265
v -0.159572 0.173516 -0.893245
v -0.173516 0.159572 -0.567936
v -0.159572 0.173516 -0.939573
v -0.151228 0.165172 -0.192688
v -0.151228 0.165172 -0.146360
v -0.165172 0.151228 -0.192688
v -0.165172 0.151228 -0.146360
v -0.151228 0.165172 -0.108933
v -0.151228 0.165172 -0.062605
v -0.165172 0.151228 -0.108933
v -0.165172 0.151228 -0.062605
v -0.151228 0.165172 -0.432147
v -0.151228 0.165172 -0.385818
v -0.165172 0.151228 -0.432147
v -0.165172 0.151228 -0.385818
v -0.173516 0.159572 0.773208
v -0.173516 0.159572 0.726879
v -0.159572 0.173516 0.773208
v -0.159572 0.173516 0.726879
v -0.165172 0.151228 0.107766
v -0.165172 0.151228 0.061437
v -0.151228 0.165172 0.107766
v -0.151228 0.165172 0.061437
v -0.173516 0.159572 0.608013
v -0.173516 0.159572 0.561685
v -0.159572 0.173516 0.608013
v -0.159572 0.173516 0.561685
v 0.159572 0.173516 0.614264
v 0.173516 0.159572 0.893244
v 0.159572 0.173516 0.567936
v 0.173516 0.159572 0.939573
v 0.173516 0.159572 0.614264
v 0.159572 0.173516 0.893244
v 0.173516 0.159572 0.567936
v 0.159572 0.173516 0.939573
v 0.151228 0.165172 0.192688
v 0.151227 0.165172 0.146359
v 0.165172 0.151228 0.192688
v 0.165172 0.151228 0.146359
v 0.151227 0.165172 0.108933
v 0.151227 0.165172 0.062604
v 0.165172 0.151228 0.108933
v 0.165172 0.151228 0.062604
v 0.151228 0.165172 0.432147
v 0.151228 0.165172 0.385818
v 0.165172 0.151227 0.432147
v 0.165172 0.151227 0.385818
v 0.173516 0.159572 -0.773208
v 0.173516 0.159572 -0.726879
v 0.159571 0.173516 -0.773208
v 0.159571 0.173516 -0.726879
v 0.165172 0.151228 -0.107766
v 0.165172 0.151228 -0.061437
v 0.151227 0.165172 -0.107766
v 0.151227 0.165172 -0.061437
v 0.173516 0.159572 -0.608013
v 0.173516 0.159572 -0.561685
v 0.159572 0.173516 -0.608013
v 0.159572 0.173516 -0.561685
v -0.159571 -0.173516 0.614264
v -0.173516 -0.159572 0.893244
v -0.159571 -0.173516 0.567936
v -0.173516 -0.159572 0.939573
v -0.173516 -0.159572 0.614264
v -0.159571 -0.173516 0.893244
v -0.173516 -0.159572 0.567936
v -0.159571 -0.173516 0.939573
v -0.151227 -0.165172 0.192688
v -0.151227 -0.165172 0.146359
v -0.165172 -0.151228 0.192688
v -0.165172 -0.151228 0.146359
v -0.151227 -0.165172 0.108933
v -0.151227 -0.165172 0.062604
v -0.165172 -0.151228 0.108933
v -0.165172 -0.151228 0.062604
v -0.151227 -0.165172 0.432147
v -0.151227 -0.165172 0.385818
v -0.165172 -0.151228 0.432147
v -0.165172 -0.151228 0.385818
v -0.173516 -0.159572 -0.773208
v -0.173516 -0.159572 -0.726879
v -0.159572 -0.173516 -0.773208
v -0.159572 -0.173516 -0.726879
v -0.165172 -0.151228 -0.107766
v -0.165172 -0.151228 -0.061437
v -0.151227 -0.165172 -0.107766
v -0.151227 -0.165172 -0.061437
v -0.173516 -0.159572 -0.608013
v -0.173516 -0.159572 -0.561685
v -0.159572 -0.173516 -0.608013
v -0.159572 -0.173516 -0.561685
vt 0.875000 0.500000
vt 0.625000 0.750000
vt 0.625000 0.500000
vt 0.875000 0.500000
vt 0.625000 0.750000
vt 0.625000 0.500000
vt 0.875000 0.500000
vt 0.625000 0.750000
vt 0.625000 0.500000
vt 0.875000 0.500000
vt 0.625000 0.750000
vt 0.625000 0.500000
vt 0.875000 0.500000
vt 0.625000 0.750000
vt 0.625000 0.500000
vt 0.875000 0.500000
vt 0.625000 0.750000
vt 0.625000 0.500000
vt 0.875000 0.500000
vt 0.625000 0.750000
vt 0.625000 0.500000
vt 0.875000 0.500000
vt 0.625000 0.750000
vt 0.625000 0.500000
vt 0.875000 0.500000
vt 0.625000 0.750000
vt 0.625000 0.500000
vt 0.875000 0.500000
vt 0.625000 0.750000
vt 0.625000 0.500000
vt 0.875000 0.500000
vt 0.625000 0.750000
vt 0.625000 0.500000
vt 0.875000 0.500000
vt 0.625000 0.750000
vt 0.625000 0.500000
vt 0.875000 0.500000
vt 0.625000 0.750000
vt 0.625000 0.500000
vt 0.875000 0.500000
vt 0.625000 0.750000
vt 0.625000 0.500000
vt 0.875000 0.500000
vt 0.625000 0.750000
vt 0.625000 0.500000
vt 0.875000 0.500000
vt 0.625000 0.750000
vt 0.625000 0.500000
vt 0.625000 0.500000
vt 0.875000 0.750000
vt 0.625000 0.750000
vt 0.625000 0.500000
vt 0.875000 0.750000
vt 0.625000 0.750000
vt 0.875000 0.500000
vt 0.625000 0.750000
vt 0.625000 0.500000
vt 0.625000 0.500000
vt 0.875000 0.750000
vt 0.625000 0.750000
vt 0.875000 0.500000
vt 0.625000 0.750000
vt 0.625000 0.500000
vt 0.875000 0.500000
vt 0.625000 0.750000
vt 0.625000 0.500000
vt 0.875000 0.500000
vt 0.625000 0.750000
vt 0.625000 0.500000
vt 0.625000 0.500000
vt 0.875000 0.750000
vt 0.625000 0.750000
vt 0.875000 0.500000
vt 0.625000 0.750000
vt 0.625000 0.500000
vt 0.875000 0.500000
vt 0.625000 0.750000
vt 0.625000 0.500000
vt 0.625000 0.500000
vt 0.875000 0.750000
vt 0.625000 0.750000
vt 0.875000 0.500000
vt 0.625000 0.750000
vt 0.625000 0.500000
vt 0.875000 0.500000
vt 0.625000 0.750000
vt 0.625000 0.500000
vt 0.875000 0.500000
vt 0.625000 0.750000
vt 0.625000 0.500000
vt 0.625000 0.500000
vt 0.875000 0.750000
vt 0.625000 0.750000
vt 0.875000 0.500000
vt 0.625000 0.750000
vt 0.625000 0.500000
vt 0.875000 0.750000
vt 0.875000 0.750000
vt 0.875000 0.750000
vt 0.875000 0.750000
vt 0.875000 0.750000
vt 0.875000 0.750000
vt 0.875000 0.750000
vt 0.875000 0.750000
vt 0.875000 0.750000
vt 0.875000 0.750000
vt 0.875000 0.750000
vt 0.875000 0.750000
vt 0.875000 0.750000
vt 0.875000 0.750000
vt 0.875000 0.750000
vt 0.875000 0.750000
vt 0.875000 0.500000
vt 0.875000 0.500000
vt 0.875000 0.750000
vt 0.875000 0.500000
vt 0.875000 0.750000
vt 0.875000 0.750000
vt 0.875000 0.750000
vt 0.875000 0.500000
vt 0.875000 0.750000
vt 0.875000 0.750000
vt 0.875000 0.500000
vt 0.875000 0.750000
vt 0.875000 0.750000
vt 0.875000 0.750000
vt 0.875000 0.500000
vt 0.875000 0.750000
vn 0.7071 -0.7071 0.0000
vn -0.7071 0.7071 0.0000
vn 0.7071 0.7071 0.0000
vn -0.7071 -0.7071 0.0000
s off
f 22/1/1 23/2/1 24/3/1
f 19/4/1 18/5/1 17/6/1
f 15/7/1 14/8/1 13/9/1
f 11/10/1 10/11/1 9/12/1
f 5/13/1 3/14/1 1/15/1
f 4/16/1 6/17/1 8/18/1
f 26/19/1 27/20/1 28/21/1
f 30/22/1 31/23/1 32/24/1
f 54/25/2 55/26/2 56/27/2
f 51/28/2 50/29/2 49/30/2
f 47/31/2 46/32/2 45/33/2
f 43/34/2 42/35/2 41/36/2
f 37/37/2 35/38/2 33/39/2
f 36/40/2 38/41/2 40/42/2
f 58/43/2 59/44/2 60/45/2
f 62/46/2 63/47/2 64/48/2
f 88/49/3 85/50/3 87/51/3
f 81/52/3 84/53/3 82/54/3
f 79/55/3 78/56/3 77/57/3
f 73/58/3 76/59/3 74/60/3
f 69/61/3 67/62/3 65/63/3
f 68/64/3 70/65/3 72/66/3
f 90/67/3 91/68/3 92/69/3
f 96/70/3 93/71/3 95/72/3
f 118/73/4 119/74/4 120/75/4
f 115/76/4 114/77/4 113/78/4
f 109/79/4 112/80/4 110/81/4
f 107/82/4 106/83/4 105/84/4
f 101/85/4 99/86/4 97/87/4
f 100/88/4 102/89/4 104/90/4
f 124/91/4 121/92/4 123/93/4
f 126/94/4 127/95/4 128/96/4
f 22/1/1 21/97/1 23/2/1
f 19/4/1 20/98/1 18/5/1
f 15/7/1 16/99/1 14/8/1
f 11/10/1 12/100/1 10/11/1
f 5/13/1 7/101/1 3/14/1
f 4/16/1 2/102/1 6/17/1
f 26/19/1 25/103/1 27/20/1
f 30/22/1 29/104/1 31/23/1
f 54/25/2 53/105/2 55/26/2
f 51/28/2 52/106/2 50/29/2
f 47/31/2 48/107/2 46/32/2
f 43/34/2 44/108/2 42/35/2
f 37/37/2 39/109/2 35/38/2
f 36/40/2 34/110/2 38/41/2
f 58/43/2 57/111/2 59/44/2
f 62/46/2 61/112/2 63/47/2
f 88/49/3 86/113/3 85/50/3
f 81/52/3 83/114/3 84/53/3
f 79/55/3 80/115/3 78/56/3
f 73/58/3 75/116/3 76/59/3
f 69/61/3 71/117/3 67/62/3
f 68/64/3 66/118/3 70/65/3
f 90/67/3 89/119/3 91/68/3
f 96/70/3 94/120/3 93/71/3
f 118/73/4 117/121/4 119/74/4
f 115/76/4 116/122/4 114/77/4
f 109/79/4 111/123/4 112/80/4
f 107/82/4 108/124/4 106/83/4
f 101/85/4 103/125/4 99/86/4
f 100/88/4 98/126/4 102/89/4
f 124/91/4 122/127/4 121/92/4
f 126/94/4 125/128/4 127/95/4
