# Blender v3.4.1 OBJ File: 'station.blend'
# www.blender.org
o Silo_6_Frame_Cube.361
v 0.084563 0.314778 0.010350
v 0.084563 0.314778 -0.009902
v 0.102761 -0.325725 0.013281
v -0.090326 0.092541 0.010350
v -0.090326 0.092541 -0.009902
v 0.000000 0.765564 -0.113226
v 0.000000 0.774842 -0.113226
v 0.034989 0.765564 -0.107684
v 0.034989 0.774842 -0.107684
v 0.066552 0.765564 -0.091601
v 0.066552 0.774842 -0.091601
v 0.091601 0.765564 -0.066552
v 0.091601 0.774842 -0.066552
v 0.107684 0.765564 -0.034989
v 0.107684 0.774842 -0.034989
v 0.113226 0.765564 0.000000
v 0.113226 0.774842 0.000000
v 0.107684 0.765564 0.034989
v 0.107684 0.774842 0.034989
v 0.091601 0.765564 0.066552
v 0.091601 0.774842 0.066552
v 0.066552 0.765564 0.091601
v 0.066552 0.774842 0.091601
v 0.034989 0.765564 0.107684
v 0.034989 0.774842 0.107684
v 0.000000 0.765564 0.113226
v 0.000000 0.774842 0.113226
v -0.034989 0.765564 0.107684
v -0.034989 0.774842 0.107684
v -0.066552 0.765564 0.091601
v -0.066552 0.774842 0.091601
v -0.091601 0.765564 0.066552
v -0.091601 0.774842 0.066552
v -0.107684 0.765564 0.034989
v -0.107684 0.774842 0.034989
v -0.113226 0.765564 0.000000
v -0.113226 0.774842 0.000000
v -0.107684 0.765564 -0.034989
v -0.107684 0.774842 -0.034989
v -0.091601 0.765564 -0.066552
v -0.091601 0.774842 -0.066552
v -0.066552 0.765564 -0.091601
v -0.066552 0.774842 -0.091601
v -0.034989 0.765564 -0.107684
v -0.034989 0.774842 -0.107684
v 0.000000 -0.327512 -0.135326
v 0.000000 -0.316423 -0.135326
v 0.041818 -0.327512 -0.128702
v 0.041818 -0.316423 -0.128702
v 0.079542 -0.327512 -0.109481
v 0.079542 -0.316423 -0.109481
v 0.109481 -0.327512 -0.079542
v 0.109481 -0.316423 -0.079542
v 0.128702 -0.327512 -0.041818
v 0.128702 -0.316423 -0.041818
v 0.135326 -0.327512 0.000000
v 0.135326 -0.316423 0.000000
v 0.128702 -0.327512 0.041818
v 0.128702 -0.316423 0.041818
v 0.109481 -0.327512 0.079542
v 0.109481 -0.316423 0.079542
v 0.079542 -0.327512 0.109481
v 0.079542 -0.316423 0.109481
v 0.041818 -0.327512 0.128702
v 0.041818 -0.316423 0.128702
v 0.000000 -0.327512 0.135326
v 0.000000 -0.316423 0.135326
v -0.041818 -0.327512 0.128702
v -0.041818 -0.316423 0.128702
v -0.079542 -0.327512 0.109481
v -0.079542 -0.316423 0.109481
v -0.109481 -0.327512 0.079542
v -0.109481 -0.316423 0.079542
v -0.128702 -0.327512 0.041818
v -0.128702 -0.316423 0.041818
v -0.135326 -0.327512 0.000000
v -0.135326 -0.316423 0.000000
v -0.128702 -0.327512 -0.041818
v -0.128702 -0.316423 -0.041818
v -0.109481 -0.327512 -0.079542
v -0.109481 -0.316423 -0.079542
v -0.079542 -0.327512 -0.109481
v -0.079542 -0.316423 -0.109481
v -0.041818 -0.327512 -0.128702
v -0.041818 -0.316423 -0.128702
v 0.000000 -0.106515 -0.135326
v 0.000000 -0.095426 -0.135326
v 0.041818 -0.106515 -0.128702
v 0.041818 -0.095426 -0.128702
v 0.079542 -0.106515 -0.109481
v 0.079542 -0.095426 -0.109481
v 0.109481 -0.106515 -0.079542
v 0.109481 -0.095426 -0.079542
v 0.128702 -0.106515 -0.041818
v 0.128702 -0.095426 -0.041818
v 0.135326 -0.106515 0.000000
v 0.135326 -0.095426 0.000000
v 0.128702 -0.106515 0.041818
v 0.128702 -0.095426 0.041818
v 0.109481 -0.106515 0.079542
v 0.109481 -0.095426 0.079542
v 0.079542 -0.106515 0.109481
v 0.079542 -0.095426 0.109481
v 0.041818 -0.106515 0.128702
v 0.041818 -0.095426 0.128702
v 0.000000 -0.106515 0.135326
v 0.000000 -0.095426 0.135326
v -0.041818 -0.106515 0.128702
v -0.041818 -0.095426 0.128702
v -0.079542 -0.106515 0.109481
v -0.079542 -0.095426 0.109481
v -0.109481 -0.106515 0.079542
v -0.109481 -0.095426 0.079542
v -0.128702 -0.106515 0.041818
v -0.128702 -0.095426 0.041818
v -0.135326 -0.106515 0.000000
v -0.135326 -0.095426 0.000000
v -0.128702 -0.106515 -0.041818
v -0.128702 -0.095426 -0.041818
v -0.109481 -0.106515 -0.079542
v -0.109481 -0.095426 -0.079542
v -0.079542 -0.106515 -0.109481
v -0.079542 -0.095426 -0.109481
v -0.041818 -0.106515 -0.128702
v -0.041818 -0.095426 -0.128702
v 0.000000 0.834930 -0.113226
v 0.000000 0.844208 -0.113226
v 0.034989 0.834930 -0.107684
v 0.034989 0.844208 -0.107684
v 0.066552 0.834930 -0.091601
v 0.066552 0.844208 -0.091601
v 0.091601 0.834930 -0.066552
v 0.091601 0.844208 -0.066552
v 0.107684 0.834930 -0.034989
v 0.107684 0.844208 -0.034989
v 0.113226 0.834930 0.000000
v 0.113226 0.844208 0.000000
v 0.107684 0.834930 0.034989
v 0.107684 0.844208 0.034989
v 0.091601 0.834930 0.066552
v 0.091601 0.844208 0.066552
v 0.066552 0.834930 0.091601
v 0.066552 0.844208 0.091601
v 0.034989 0.834930 0.107684
v 0.034989 0.844208 0.107684
v 0.000000 0.834930 0.113226
v 0.000000 0.844208 0.113226
v -0.034989 0.834930 0.107684
v -0.034989 0.844208 0.107684
v -0.066552 0.834930 0.091601
v -0.066552 0.844208 0.091601
v -0.091601 0.834930 0.066552
v -0.091601 0.844208 0.066552
v -0.107684 0.834930 0.034989
v -0.107684 0.844208 0.034989
v -0.113226 0.834930 0.000000
v -0.113226 0.844208 0.000000
v -0.107684 0.834930 -0.034989
v -0.107684 0.844208 -0.034989
v -0.091601 0.834930 -0.066552
v -0.091601 0.844208 -0.066552
v -0.066552 0.834930 -0.091601
v -0.066552 0.844208 -0.091601
v -0.034989 0.834930 -0.107684
v -0.034989 0.844208 -0.107684
v 0.108249 -0.820439 0.015725
v 0.108249 -0.732009 0.015725
v 0.108249 -0.820439 -0.015725
v 0.108249 -0.732009 -0.015725
v 0.139700 -0.820439 0.015725
v 0.139700 -0.732009 0.015725
v 0.139700 -0.820439 -0.015725
v 0.139700 -0.732009 -0.015725
v 0.116152 -0.738317 0.013727
v 0.116152 -0.719338 0.013727
v 0.116152 -0.738317 -0.001919
v 0.116152 -0.719338 -0.001919
v 0.131798 -0.738317 0.013727
v 0.131798 -0.719338 0.013727
v 0.131798 -0.738317 -0.001919
v 0.131798 -0.719338 -0.001919
vt 0.625000 0.000000
vt 0.375000 0.250000
vt 0.375000 0.000000
vt 0.625000 0.250000
vt 0.375000 0.500000
vt 0.625000 0.500000
vt 0.375000 0.750000
vt 0.625000 0.750000
vt 0.375000 1.000000
vt 0.125000 0.750000
vt 0.125000 0.500000
vt 0.875000 0.500000
vt 0.625000 0.000000
vt 0.375000 0.250000
vt 0.375000 0.000000
vt 0.625000 0.250000
vt 0.375000 0.500000
vt 0.625000 0.500000
vt 0.375000 0.750000
vt 0.625000 0.750000
vt 0.375000 1.000000
vt 0.125000 0.750000
vt 0.125000 0.500000
vt 0.875000 0.500000
vt 0.625000 1.000000
vt 0.875000 0.750000
vt 0.625000 1.000000
vt 0.875000 0.750000
vt 1.000000 1.000000
vt 0.950000 0.500000
vt 1.000000 0.500000
vt 0.950000 1.000000
vt 0.900000 0.500000
vt 0.900000 1.000000
vt 0.850000 0.500000
vt 0.850000 1.000000
vt 0.800000 0.500000
vt 0.800000 1.000000
vt 0.750000 0.500000
vt 0.750000 1.000000
vt 0.700000 0.500000
vt 0.700000 1.000000
vt 0.650000 0.500000
vt 0.650000 1.000000
vt 0.600000 0.500000
vt 0.600000 1.000000
vt 0.550000 0.500000
vt 0.550000 1.000000
vt 0.500000 0.500000
vt 0.500000 1.000000
vt 0.450000 0.500000
vt 0.450000 1.000000
vt 0.400000 0.500000
vt 0.400000 1.000000
vt 0.350000 0.500000
vt 0.350000 1.000000
vt 0.300000 0.500000
vt 0.300000 1.000000
vt 0.250000 0.500000
vt 0.250000 1.000000
vt 0.200000 0.500000
vt 0.200000 1.000000
vt 0.150000 0.500000
vt 0.150000 1.000000
vt 0.100000 0.500000
vt 0.250000 0.010000
vt 0.478254 0.175836
vt 0.391068 0.444164
vt 0.100000 1.000000
vt 0.050000 0.500000
vt 0.050000 1.000000
vt -0.000000 0.500000
vt 0.675836 0.021746
vt 0.510000 0.250000
vt 0.675836 0.478254
vt 1.000000 1.000000
vt 0.950000 0.500000
vt 1.000000 0.500000
vt 0.950000 1.000000
vt 0.900000 0.500000
vt 0.900000 1.000000
vt 0.850000 0.500000
vt 0.850000 1.000000
vt 0.800000 0.500000
vt 0.800000 1.000000
vt 0.750000 0.500000
vt 0.750000 1.000000
vt 0.700000 0.500000
vt 0.700000 1.000000
vt 0.650000 0.500000
vt 0.650000 1.000000
vt 0.600000 0.500000
vt 0.600000 1.000000
vt 0.550000 0.500000
vt 0.550000 1.000000
vt 0.500000 0.500000
vt 0.500000 1.000000
vt 0.450000 0.500000
vt 0.450000 1.000000
vt 0.400000 0.500000
vt 0.400000 1.000000
vt 0.350000 0.500000
vt 0.350000 1.000000
vt 0.300000 0.500000
vt 0.300000 1.000000
vt 0.250000 0.500000
vt 0.250000 1.000000
vt 0.200000 0.500000
vt 0.200000 1.000000
vt 0.150000 0.500000
vt 0.150000 1.000000
vt 0.100000 0.500000
vt 0.021746 0.175836
vt 0.250000 0.010000
vt 0.478254 0.175836
vt 0.100000 1.000000
vt 0.050000 0.500000
vt 0.050000 1.000000
vt -0.000000 0.500000
vt 0.675836 0.021746
vt 0.510000 0.250000
vt 0.675836 0.478254
vt 1.000000 1.000000
vt 0.950000 0.500000
vt 1.000000 0.500000
vt 0.950000 1.000000
vt 0.900000 0.500000
vt 0.900000 1.000000
vt 0.850000 0.500000
vt 0.850000 1.000000
vt 0.800000 0.500000
vt 0.800000 1.000000
vt 0.750000 0.500000
vt 0.750000 1.000000
vt 0.700000 0.500000
vt 0.700000 1.000000
vt 0.650000 0.500000
vt 0.650000 1.000000
vt 0.600000 0.500000
vt 0.600000 1.000000
vt 0.550000 0.500000
vt 0.550000 1.000000
vt 0.500000 0.500000
vt 0.500000 1.000000
vt 0.450000 0.500000
vt 0.450000 1.000000
vt 0.400000 0.500000
vt 0.400000 1.000000
vt 0.350000 0.500000
vt 0.350000 1.000000
vt 0.300000 0.500000
vt 0.300000 1.000000
vt 0.250000 0.500000
vt 0.250000 1.000000
vt 0.200000 0.500000
vt 0.200000 1.000000
vt 0.150000 0.500000
vt 0.150000 1.000000
vt 0.100000 0.500000
vt 0.021746 0.175836
vt 0.250000 0.010000
vt 0.478254 0.175836
vt 0.100000 1.000000
vt 0.050000 0.500000
vt 0.050000 1.000000
vt -0.000000 0.500000
vt 0.675836 0.021746
vt 0.510000 0.250000
vt 0.675836 0.478254
vt 1.000000 1.000000
vt 0.950000 0.500000
vt 1.000000 0.500000
vt 0.950000 1.000000
vt 0.900000 0.500000
vt 0.900000 1.000000
vt 0.850000 0.500000
vt 0.850000 1.000000
vt 0.800000 0.500000
vt 0.800000 1.000000
vt 0.750000 0.500000
vt 0.750000 1.000000
vt 0.700000 0.500000
vt 0.700000 1.000000
vt 0.650000 0.500000
vt 0.650000 1.000000
vt 0.600000 0.500000
vt 0.600000 1.000000
vt 0.550000 0.500000
vt 0.550000 1.000000
vt 0.500000 0.500000
vt 0.500000 1.000000
vt 0.450000 0.500000
vt 0.450000 1.000000
vt 0.400000 0.500000
vt 0.400000 1.000000
vt 0.350000 0.500000
vt 0.350000 1.000000
vt 0.300000 0.500000
vt 0.300000 1.000000
vt 0.250000 0.500000
vt 0.250000 1.000000
vt 0.200000 0.500000
vt 0.200000 1.000000
vt 0.150000 0.500000
vt 0.150000 1.000000
vt 0.100000 0.500000
vt 0.021746 0.175836
vt 0.478254 0.175836
vt 0.391068 0.444164
vt 0.100000 1.000000
vt 0.050000 0.500000
vt 0.050000 1.000000
vt -0.000000 0.500000
vt 0.944164 0.108932
vt 0.510000 0.250000
vt 0.675836 0.478254
vt 0.324164 0.478254
vt 0.250000 0.490000
vt 0.175836 0.478254
vt 0.108932 0.444164
vt 0.055836 0.391068
vt 0.021746 0.175836
vt 0.021746 0.324164
vt 0.010000 0.250000
vt 0.055836 0.108932
vt 0.108932 0.055836
vt 0.175836 0.021746
vt 0.324164 0.021746
vt 0.391068 0.055836
vt 0.444164 0.108932
vt 0.490000 0.250000
vt 0.478254 0.324164
vt 0.444164 0.391068
vt -0.000000 1.000000
vt 0.750000 0.490000
vt 0.824164 0.478254
vt 0.891068 0.444164
vt 0.944164 0.391068
vt 0.978254 0.324164
vt 0.990000 0.250000
vt 0.978254 0.175836
vt 0.944164 0.108932
vt 0.891068 0.055836
vt 0.824164 0.021746
vt 0.750000 0.010000
vt 0.608932 0.055836
vt 0.555836 0.108932
vt 0.521746 0.175836
vt 0.521746 0.324164
vt 0.555836 0.391068
vt 0.608932 0.444164
vt 0.391068 0.444164
vt 0.324164 0.478254
vt 0.250000 0.490000
vt 0.175836 0.478254
vt 0.108932 0.444164
vt 0.055836 0.391068
vt 0.021746 0.324164
vt 0.010000 0.250000
vt 0.055836 0.108932
vt 0.108932 0.055836
vt 0.175836 0.021746
vt 0.324164 0.021746
vt 0.391068 0.055836
vt 0.444164 0.108932
vt 0.490000 0.250000
vt 0.478254 0.324164
vt 0.444164 0.391068
vt -0.000000 1.000000
vt 0.750000 0.490000
vt 0.824164 0.478254
vt 0.891068 0.444164
vt 0.944164 0.391068
vt 0.978254 0.324164
vt 0.990000 0.250000
vt 0.978254 0.175836
vt 0.944164 0.108932
vt 0.891068 0.055836
vt 0.824164 0.021746
vt 0.750000 0.010000
vt 0.608932 0.055836
vt 0.555836 0.108932
vt 0.521746 0.175836
vt 0.521746 0.324164
vt 0.555836 0.391068
vt 0.608932 0.444164
vt 0.391068 0.444164
vt 0.324164 0.478254
vt 0.250000 0.490000
vt 0.175836 0.478254
vt 0.108932 0.444164
vt 0.055836 0.391068
vt 0.021746 0.324164
vt 0.010000 0.250000
vt 0.055836 0.108932
vt 0.108932 0.055836
vt 0.175836 0.021746
vt 0.324164 0.021746
vt 0.391068 0.055836
vt 0.444164 0.108932
vt 0.490000 0.250000
vt 0.478254 0.324164
vt 0.444164 0.391068
vt -0.000000 1.000000
vt 0.750000 0.490000
vt 0.824164 0.478254
vt 0.891068 0.444164
vt 0.944164 0.391068
vt 0.978254 0.324164
vt 0.990000 0.250000
vt 0.978254 0.175836
vt 0.944164 0.108932
vt 0.891068 0.055836
vt 0.824164 0.021746
vt 0.750000 0.010000
vt 0.608932 0.055836
vt 0.555836 0.108932
vt 0.521746 0.175836
vt 0.521746 0.324164
vt 0.555836 0.391068
vt 0.608932 0.444164
vt 0.324164 0.478254
vt 0.250000 0.490000
vt 0.175836 0.478254
vt 0.108932 0.444164
vt 0.055836 0.391068
vt 0.021746 0.324164
vt 0.010000 0.250000
vt 0.055836 0.108932
vt 0.250000 0.010000
vt 0.108932 0.055836
vt 0.175836 0.021746
vt 0.324164 0.021746
vt 0.391068 0.055836
vt 0.444164 0.108932
vt 0.490000 0.250000
vt 0.478254 0.324164
vt 0.444164 0.391068
vt -0.000000 1.000000
vt 0.750000 0.490000
vt 0.824164 0.478254
vt 0.891068 0.444164
vt 0.944164 0.391068
vt 0.978254 0.324164
vt 0.990000 0.250000
vt 0.978254 0.175836
vt 0.891068 0.055836
vt 0.824164 0.021746
vt 0.750000 0.010000
vt 0.675836 0.021746
vt 0.608932 0.055836
vt 0.555836 0.108932
vt 0.521746 0.175836
vt 0.521746 0.324164
vt 0.555836 0.391068
vt 0.608932 0.444164
vn -1.0000 0.0000 0.0000
vn 0.0000 0.0000 -1.0000
vn 1.0000 0.0000 0.0000
vn 0.0000 0.0000 1.0000
vn 0.0000 -1.0000 0.0000
vn 0.0000 1.0000 0.0000
vn 0.3090 0.0000 -0.9511
vn 0.5878 0.0000 -0.8090
vn 0.8090 0.0000 -0.5878
vn 0.9511 0.0000 -0.3090
vn 0.9511 0.0000 0.3090
vn 0.8090 0.0000 0.5878
vn 0.5878 0.0000 0.8090
vn 0.3090 0.0000 0.9511
vn -0.3090 0.0000 0.9511
vn -0.5878 0.0000 0.8090
vn -0.8090 0.0000 0.5878
vn -0.9511 0.0000 0.3090
vn -0.9511 0.0000 -0.3090
vn -0.8090 0.0000 -0.5878
vn -0.5878 0.0000 -0.8090
vn -0.3090 0.0000 -0.9511
s off
f 167/1/1 168/2/1 166/3/1
f 169/4/2 172/5/2 168/2/2
f 173/6/3 170/7/3 172/5/3
f 171/8/4 166/9/4 170/7/4
f 172/5/5 166/10/5 168/11/5
f 169/12/6 171/8/6 173/6/6
f 175/13/1 176/14/1 174/15/1
f 177/16/2 180/17/2 176/14/2
f 181/18/3 178/19/3 180/17/3
f 179/20/4 174/21/4 178/19/4
f 180/17/5 174/22/5 176/23/5
f 177/24/6 179/20/6 181/18/6
f 167/1/1 169/4/1 168/2/1
f 169/4/2 173/6/2 172/5/2
f 173/6/3 171/8/3 170/7/3
f 171/8/4 167/25/4 166/9/4
f 172/5/5 170/7/5 166/10/5
f 169/12/6 167/26/6 171/8/6
f 175/13/1 177/16/1 176/14/1
f 177/16/2 181/18/2 180/17/2
f 181/18/3 179/20/3 178/19/3
f 179/20/4 175/27/4 174/21/4
f 180/17/5 178/19/5 174/22/5
f 177/24/6 175/28/6 179/20/6
s 1
f 7/29/2 8/30/7 6/31/2
f 9/32/7 10/33/8 8/30/7
f 11/34/8 12/35/9 10/33/8
f 13/36/9 14/37/10 12/35/9
f 15/38/10 16/39/3 14/37/10
f 17/40/3 18/41/11 16/39/3
f 19/42/11 20/43/12 18/41/11
f 21/44/12 22/45/13 20/43/12
f 23/46/13 24/47/14 22/45/13
f 25/48/14 26/49/4 24/47/14
f 27/50/4 28/51/15 26/49/4
f 29/52/15 30/53/16 28/51/15
f 31/54/16 32/55/17 30/53/16
f 33/56/17 34/57/18 32/55/17
f 35/58/18 36/59/1 34/57/18
f 37/60/1 38/61/19 36/59/1
f 39/62/19 40/63/20 38/61/19
f 41/64/20 42/65/21 40/63/20
f 27/66/6 19/67/6 11/68/6
f 43/69/21 44/70/22 42/65/21
f 45/71/22 6/72/2 44/70/22
f 28/73/5 36/74/5 44/75/5
f 47/76/2 48/77/7 46/78/2
f 49/79/7 50/80/8 48/77/7
f 51/81/8 52/82/9 50/80/8
f 53/83/9 54/84/10 52/82/9
f 55/85/10 56/86/3 54/84/10
f 57/87/3 58/88/11 56/86/3
f 59/89/11 60/90/12 58/88/11
f 61/91/12 62/92/13 60/90/12
f 63/93/13 64/94/14 62/92/13
f 65/95/14 66/96/4 64/94/14
f 67/97/4 68/98/15 66/96/4
f 69/99/15 70/100/16 68/98/15
f 71/101/16 72/102/17 70/100/16
f 73/103/17 74/104/18 72/102/17
f 75/105/18 76/106/1 74/104/18
f 77/107/1 78/108/19 76/106/1
f 79/109/19 80/110/20 78/108/19
f 81/111/20 82/112/21 80/110/20
f 75/113/6 67/114/6 59/115/6
f 83/116/21 84/117/22 82/112/21
f 85/118/22 46/119/2 84/117/22
f 68/120/5 76/121/5 84/122/5
f 87/123/2 88/124/7 86/125/2
f 89/126/7 90/127/8 88/124/7
f 91/128/8 92/129/9 90/127/8
f 93/130/9 94/131/10 92/129/9
f 95/132/10 96/133/3 94/131/10
f 97/134/3 98/135/11 96/133/3
f 99/136/11 100/137/12 98/135/11
f 101/138/12 102/139/13 100/137/12
f 103/140/13 104/141/14 102/139/13
f 105/142/14 106/143/4 104/141/14
f 107/144/4 108/145/15 106/143/4
f 109/146/15 110/147/16 108/145/15
f 111/148/16 112/149/17 110/147/16
f 113/150/17 114/151/18 112/149/17
f 115/152/18 116/153/1 114/151/18
f 117/154/1 118/155/19 116/153/1
f 119/156/19 120/157/20 118/155/19
f 121/158/20 122/159/21 120/157/20
f 115/160/6 107/161/6 99/162/6
f 123/163/21 124/164/22 122/159/21
f 125/165/22 86/166/2 124/164/22
f 108/167/5 116/168/5 124/169/5
f 127/170/2 128/171/7 126/172/2
f 129/173/7 130/174/8 128/171/7
f 131/175/8 132/176/9 130/174/8
f 133/177/9 134/178/10 132/176/9
f 135/179/10 136/180/3 134/178/10
f 137/181/3 138/182/11 136/180/3
f 139/183/11 140/184/12 138/182/11
f 141/185/12 142/186/13 140/184/12
f 143/187/13 144/188/14 142/186/13
f 145/189/14 146/190/4 144/188/14
f 147/191/4 148/192/15 146/190/4
f 149/193/15 150/194/16 148/192/15
f 151/195/16 152/196/17 150/194/16
f 153/197/17 154/198/18 152/196/17
f 155/199/18 156/200/1 154/198/18
f 157/201/1 158/202/19 156/200/1
f 159/203/19 160/204/20 158/202/19
f 161/205/20 162/206/21 160/204/20
f 155/207/6 139/208/6 131/209/6
f 163/210/21 164/211/22 162/206/21
f 165/212/22 126/213/2 164/211/22
f 140/214/5 156/215/5 164/216/5
f 7/29/2 9/32/7 8/30/7
f 9/32/7 11/34/8 10/33/8
f 11/34/8 13/36/9 12/35/9
f 13/36/9 15/38/10 14/37/10
f 15/38/10 17/40/3 16/39/3
f 17/40/3 19/42/11 18/41/11
f 19/42/11 21/44/12 20/43/12
f 21/44/12 23/46/13 22/45/13
f 23/46/13 25/48/14 24/47/14
f 25/48/14 27/50/4 26/49/4
f 27/50/4 29/52/15 28/51/15
f 29/52/15 31/54/16 30/53/16
f 31/54/16 33/56/17 32/55/17
f 33/56/17 35/58/18 34/57/18
f 35/58/18 37/60/1 36/59/1
f 37/60/1 39/62/19 38/61/19
f 39/62/19 41/64/20 40/63/20
f 41/64/20 43/69/21 42/65/21
f 11/68/6 9/217/6 7/218/6
f 7/218/6 45/219/6 43/220/6
f 43/220/6 41/221/6 35/222/6
f 41/221/6 39/223/6 35/222/6
f 39/223/6 37/224/6 35/222/6
f 35/222/6 33/225/6 27/66/6
f 33/225/6 31/226/6 27/66/6
f 31/226/6 29/227/6 27/66/6
f 27/66/6 25/228/6 19/67/6
f 25/228/6 23/229/6 19/67/6
f 23/229/6 21/230/6 19/67/6
f 19/67/6 17/231/6 15/232/6
f 15/232/6 13/233/6 19/67/6
f 13/233/6 11/68/6 19/67/6
f 11/68/6 7/218/6 35/222/6
f 7/218/6 43/220/6 35/222/6
f 35/222/6 27/66/6 11/68/6
f 43/69/21 45/71/22 44/70/22
f 45/71/22 7/234/2 6/72/2
f 44/75/5 6/235/5 8/236/5
f 8/236/5 10/237/5 12/238/5
f 12/238/5 14/239/5 16/240/5
f 16/240/5 18/241/5 20/242/5
f 20/242/5 22/243/5 24/244/5
f 24/244/5 26/245/5 28/73/5
f 28/73/5 30/246/5 32/247/5
f 32/247/5 34/248/5 36/74/5
f 36/74/5 38/249/5 40/250/5
f 40/250/5 42/251/5 44/75/5
f 44/75/5 8/236/5 20/242/5
f 8/236/5 12/238/5 20/242/5
f 12/238/5 16/240/5 20/242/5
f 20/242/5 24/244/5 28/73/5
f 28/73/5 32/247/5 36/74/5
f 36/74/5 40/250/5 44/75/5
f 20/242/5 28/73/5 44/75/5
f 47/76/2 49/79/7 48/77/7
f 49/79/7 51/81/8 50/80/8
f 51/81/8 53/83/9 52/82/9
f 53/83/9 55/85/10 54/84/10
f 55/85/10 57/87/3 56/86/3
f 57/87/3 59/89/11 58/88/11
f 59/89/11 61/91/12 60/90/12
f 61/91/12 63/93/13 62/92/13
f 63/93/13 65/95/14 64/94/14
f 65/95/14 67/97/4 66/96/4
f 67/97/4 69/99/15 68/98/15
f 69/99/15 71/101/16 70/100/16
f 71/101/16 73/103/17 72/102/17
f 73/103/17 75/105/18 74/104/18
f 75/105/18 77/107/1 76/106/1
f 77/107/1 79/109/19 78/108/19
f 79/109/19 81/111/20 80/110/20
f 81/111/20 83/116/21 82/112/21
f 51/252/6 49/253/6 47/254/6
f 47/254/6 85/255/6 51/252/6
f 85/255/6 83/256/6 51/252/6
f 83/256/6 81/257/6 79/258/6
f 79/258/6 77/259/6 75/113/6
f 75/113/6 73/260/6 71/261/6
f 71/261/6 69/262/6 75/113/6
f 69/262/6 67/114/6 75/113/6
f 67/114/6 65/263/6 59/115/6
f 65/263/6 63/264/6 59/115/6
f 63/264/6 61/265/6 59/115/6
f 59/115/6 57/266/6 55/267/6
f 55/267/6 53/268/6 51/252/6
f 83/256/6 79/258/6 75/113/6
f 59/115/6 55/267/6 75/113/6
f 55/267/6 51/252/6 75/113/6
f 51/252/6 83/256/6 75/113/6
f 83/116/21 85/118/22 84/117/22
f 85/118/22 47/269/2 46/119/2
f 84/122/5 46/270/5 48/271/5
f 48/271/5 50/272/5 52/273/5
f 52/273/5 54/274/5 56/275/5
f 56/275/5 58/276/5 52/273/5
f 58/276/5 60/277/5 52/273/5
f 60/277/5 62/278/5 64/279/5
f 64/279/5 66/280/5 68/120/5
f 68/120/5 70/281/5 72/282/5
f 72/282/5 74/283/5 68/120/5
f 74/283/5 76/121/5 68/120/5
f 76/121/5 78/284/5 84/122/5
f 78/284/5 80/285/5 84/122/5
f 80/285/5 82/286/5 84/122/5
f 84/122/5 48/271/5 52/273/5
f 60/277/5 64/279/5 68/120/5
f 84/122/5 52/273/5 60/277/5
f 60/277/5 68/120/5 84/122/5
f 87/123/2 89/126/7 88/124/7
f 89/126/7 91/128/8 90/127/8
f 91/128/8 93/130/9 92/129/9
f 93/130/9 95/132/10 94/131/10
f 95/132/10 97/134/3 96/133/3
f 97/134/3 99/136/11 98/135/11
f 99/136/11 101/138/12 100/137/12
f 101/138/12 103/140/13 102/139/13
f 103/140/13 105/142/14 104/141/14
f 105/142/14 107/144/4 106/143/4
f 107/144/4 109/146/15 108/145/15
f 109/146/15 111/148/16 110/147/16
f 111/148/16 113/150/17 112/149/17
f 113/150/17 115/152/18 114/151/18
f 115/152/18 117/154/1 116/153/1
f 117/154/1 119/156/19 118/155/19
f 119/156/19 121/158/20 120/157/20
f 121/158/20 123/163/21 122/159/21
f 91/287/6 89/288/6 87/289/6
f 87/289/6 125/290/6 91/287/6
f 125/290/6 123/291/6 91/287/6
f 123/291/6 121/292/6 119/293/6
f 119/293/6 117/294/6 115/160/6
f 115/160/6 113/295/6 111/296/6
f 111/296/6 109/297/6 115/160/6
f 109/297/6 107/161/6 115/160/6
f 107/161/6 105/298/6 99/162/6
f 105/298/6 103/299/6 99/162/6
f 103/299/6 101/300/6 99/162/6
f 99/162/6 97/301/6 95/302/6
f 95/302/6 93/303/6 91/287/6
f 123/291/6 119/293/6 115/160/6
f 99/162/6 95/302/6 115/160/6
f 95/302/6 91/287/6 115/160/6
f 91/287/6 123/291/6 115/160/6
f 123/163/21 125/165/22 124/164/22
f 125/165/22 87/304/2 86/166/2
f 124/169/5 86/305/5 88/306/5
f 88/306/5 90/307/5 92/308/5
f 92/308/5 94/309/5 96/310/5
f 96/310/5 98/311/5 92/308/5
f 98/311/5 100/312/5 92/308/5
f 100/312/5 102/313/5 104/314/5
f 104/314/5 106/315/5 108/167/5
f 108/167/5 110/316/5 112/317/5
f 112/317/5 114/318/5 108/167/5
f 114/318/5 116/168/5 108/167/5
f 116/168/5 118/319/5 124/169/5
f 118/319/5 120/320/5 124/169/5
f 120/320/5 122/321/5 124/169/5
f 124/169/5 88/306/5 92/308/5
f 100/312/5 104/314/5 108/167/5
f 124/169/5 92/308/5 100/312/5
f 100/312/5 108/167/5 124/169/5
f 127/170/2 129/173/7 128/171/7
f 129/173/7 131/175/8 130/174/8
f 131/175/8 133/177/9 132/176/9
f 133/177/9 135/179/10 134/178/10
f 135/179/10 137/181/3 136/180/3
f 137/181/3 139/183/11 138/182/11
f 139/183/11 141/185/12 140/184/12
f 141/185/12 143/187/13 142/186/13
f 143/187/13 145/189/14 144/188/14
f 145/189/14 147/191/4 146/190/4
f 147/191/4 149/193/15 148/192/15
f 149/193/15 151/195/16 150/194/16
f 151/195/16 153/197/17 152/196/17
f 153/197/17 155/199/18 154/198/18
f 155/199/18 157/201/1 156/200/1
f 157/201/1 159/203/19 158/202/19
f 159/203/19 161/205/20 160/204/20
f 161/205/20 163/210/21 162/206/21
f 131/209/6 129/322/6 127/323/6
f 127/323/6 165/324/6 163/325/6
f 163/325/6 161/326/6 159/327/6
f 159/327/6 157/328/6 163/325/6
f 157/328/6 155/207/6 163/325/6
f 155/207/6 153/329/6 147/330/6
f 153/329/6 151/331/6 147/330/6
f 151/331/6 149/332/6 147/330/6
f 147/330/6 145/333/6 139/208/6
f 145/333/6 143/334/6 139/208/6
f 143/334/6 141/335/6 139/208/6
f 139/208/6 137/336/6 135/337/6
f 135/337/6 133/338/6 131/209/6
f 131/209/6 127/323/6 155/207/6
f 127/323/6 163/325/6 155/207/6
f 139/208/6 135/337/6 131/209/6
f 155/207/6 147/330/6 139/208/6
f 163/210/21 165/212/22 164/211/22
f 165/212/22 127/339/2 126/213/2
f 164/216/5 126/340/5 128/341/5
f 128/341/5 130/342/5 132/343/5
f 132/343/5 134/344/5 136/345/5
f 136/345/5 138/346/5 132/343/5
f 138/346/5 140/214/5 132/343/5
f 140/214/5 142/347/5 144/348/5
f 144/348/5 146/349/5 148/350/5
f 148/350/5 150/351/5 152/352/5
f 152/352/5 154/353/5 156/215/5
f 156/215/5 158/354/5 160/355/5
f 160/355/5 162/356/5 164/216/5
f 164/216/5 128/341/5 132/343/5
f 140/214/5 144/348/5 148/350/5
f 148/350/5 152/352/5 156/215/5
f 156/215/5 160/355/5 164/216/5
f 164/216/5 132/343/5 140/214/5
f 140/214/5 148/350/5 156/215/5
l 2 1
l 5 4
