# Blender v3.4.1 OBJ File: 'station.blend'
# www.blender.org
o Silo_3_Frame_lod_2_Cylinder.023
v 1.016925 -0.000000 0.032403
v 1.016925 -0.000000 -0.032403
v 0.967153 0.314247 0.032403
v 0.967153 0.314247 -0.032403
v 0.822709 0.597733 0.032403
v 0.822709 0.597733 -0.032403
v 0.597733 0.822709 0.032403
v 0.597733 0.822709 -0.032403
v 0.314247 0.967153 0.032403
v 0.314247 0.967153 -0.032403
v 0.000000 1.000598 0.032403
v 0.000000 1.000598 -0.032403
v -0.314247 0.967153 0.032403
v -0.314247 0.967153 -0.032403
v -0.597733 0.822709 0.032403
v -0.597733 0.822709 -0.032403
v -0.822709 0.597733 0.032403
v -0.822709 0.597733 -0.032403
v -0.967153 0.314247 0.032403
v -0.967153 0.314247 -0.032403
v -1.016925 0.000000 0.032403
v -1.016925 0.000000 -0.032403
v -0.967153 -0.314247 0.032403
v -0.967153 -0.314247 -0.032403
v -0.822709 -0.597733 0.032403
v -0.822709 -0.597733 -0.032403
v -0.597733 -0.822709 0.032403
v -0.597733 -0.822709 -0.032403
v -0.314247 -0.967153 0.032403
v -0.314247 -0.967153 -0.032403
v -0.000000 -0.997291 0.032403
v -0.000000 -0.997291 -0.032403
v 0.314247 -0.967153 0.032403
v 0.314247 -0.967153 -0.032403
v 0.597733 -0.822709 0.032403
v 0.597733 -0.822709 -0.032403
v 0.822709 -0.597733 0.032403
v 0.822709 -0.597733 -0.032403
v 0.967153 -0.314247 0.032403
v 0.967153 -0.314247 -0.032403
v -0.000000 -1.002346 -0.334755
v 0.000540 1.003979 -0.328909
v 0.101458 -1.002346 -0.318371
v 0.101998 1.003979 -0.312525
v 0.192985 -1.002346 -0.270822
v 0.193525 1.003979 -0.264977
v 0.265621 -1.002346 -0.196764
v 0.266161 1.003979 -0.190918
v 0.312257 -1.002346 -0.103445
v 0.312796 1.003979 -0.097599
v 0.328326 -1.002346 0.000000
v 0.328866 1.003979 0.005846
v 0.312257 -1.002346 0.103445
v 0.312796 1.003979 0.109290
v 0.265621 -1.002346 0.196764
v 0.266161 1.003979 0.202609
v 0.192985 -1.002346 0.270822
v 0.193525 1.003979 0.276668
v 0.101458 -1.002346 0.318371
v 0.101998 1.003979 0.324216
v -0.000000 -1.002346 0.334755
v 0.000540 1.003979 0.340600
v -0.101458 -1.002346 0.318371
v -0.100919 1.003979 0.324216
v -0.192985 -1.002346 0.270822
v -0.192446 1.003979 0.276668
v -0.265621 -1.002346 0.196764
v -0.265082 1.003979 0.202609
v -0.312257 -1.002346 0.103445
v -0.311717 1.003979 0.109290
v -0.328326 -1.002346 0.000000
v -0.327786 1.003979 0.005846
v -0.312257 -1.002346 -0.103445
v -0.311717 1.003979 -0.097599
v -0.265621 -1.002346 -0.196764
v -0.265082 1.003979 -0.190918
v -0.192985 -1.002346 -0.270822
v -0.192446 1.003979 -0.264977
v -0.101458 -1.002346 -0.318371
v -0.100919 1.003979 -0.312525
v -0.000000 -0.032403 -1.016925
v 0.000000 0.032403 -1.016925
v 0.314247 -0.032403 -0.967153
v 0.314247 0.032403 -0.967153
v 0.597733 -0.032403 -0.822709
v 0.597733 0.032403 -0.822709
v 0.822709 -0.032403 -0.597733
v 0.822709 0.032403 -0.597733
v 0.967153 -0.032403 -0.314247
v 0.967153 0.032403 -0.314247
v 1.016925 -0.032403 0.000000
v 1.016925 0.032403 0.000000
v 0.967153 -0.032403 0.314247
v 0.967153 0.032403 0.314247
v 0.822709 -0.032403 0.597733
v 0.822709 0.032403 0.597733
v 0.597733 -0.032403 0.822709
v 0.597733 0.032403 0.822709
v 0.314247 -0.032403 0.967153
v 0.314247 0.032403 0.967153
v -0.000000 -0.032403 1.016925
v 0.000000 0.032403 1.016925
v -0.314247 -0.032403 0.967153
v -0.314247 0.032403 0.967153
v -0.597733 -0.032403 0.822709
v -0.597733 0.032403 0.822709
v -0.822709 -0.032403 0.597733
v -0.822709 0.032403 0.597733
v -0.967153 -0.032403 0.314247
v -0.967153 0.032403 0.314247
v -1.016925 -0.032403 0.000000
v -1.016925 0.032403 0.000000
v -0.967153 -0.032403 -0.314247
v -0.967153 0.032403 -0.314247
v -0.822709 -0.032403 -0.597733
v -0.822709 0.032403 -0.597733
v -0.597733 -0.032403 -0.822709
v -0.597733 0.032403 -0.822709
v -0.314247 -0.032403 -0.967153
v -0.314247 0.032403 -0.967153
v 0.032403 -0.000000 -1.016925
v -0.032403 0.000000 -1.016925
v 0.032403 0.314247 -0.967153
v -0.032403 0.314247 -0.967153
v 0.032403 0.597733 -0.822709
v -0.032403 0.597733 -0.822709
v 0.032403 0.822709 -0.597733
v -0.032403 0.822709 -0.597733
v 0.032403 0.967153 -0.314247
v -0.032403 0.967153 -0.314247
v 0.032403 1.000598 -0.000000
v -0.032403 1.000598 0.000000
v 0.032403 0.967153 0.314247
v -0.032403 0.967153 0.314247
v 0.032403 0.822709 0.597733
v -0.032403 0.822709 0.597733
v 0.032403 0.597733 0.822709
v -0.032403 0.597733 0.822709
v 0.032403 0.314247 0.967153
v -0.032403 0.314247 0.967153
v 0.032403 -0.000000 1.016925
v -0.032403 0.000000 1.016925
v 0.032403 -0.314247 0.967153
v -0.032403 -0.314247 0.967153
v 0.032403 -0.597733 0.822709
v -0.032403 -0.597733 0.822709
v 0.032403 -0.822709 0.597733
v -0.032403 -0.822709 0.597733
v 0.032403 -0.967153 0.314247
v -0.032403 -0.967153 0.314247
v 0.032403 -0.997291 0.000000
v -0.032403 -0.997291 0.000000
v 0.032403 -0.967153 -0.314247
v -0.032403 -0.967153 -0.314247
v 0.032403 -0.822709 -0.597733
v -0.032403 -0.822709 -0.597733
v 0.032403 -0.597733 -0.822709
v -0.032403 -0.597733 -0.822709
v 0.032403 -0.314247 -0.967153
v -0.032403 -0.314247 -0.967153
vt 1.000000 1.000000
vt 0.950000 0.500000
vt 1.000000 0.500000
vt 0.950000 1.000000
vt 0.900000 0.500000
vt 0.900000 1.000000
vt 0.850000 0.500000
vt 0.850000 1.000000
vt 0.800000 0.500000
vt 0.800000 1.000000
vt 0.750000 0.500000
vt 0.750000 1.000000
vt 0.700000 0.500000
vt 0.700000 1.000000
vt 0.650000 0.500000
vt 0.650000 1.000000
vt 0.600000 0.500000
vt 0.600000 1.000000
vt 0.550000 0.500000
vt 0.550000 1.000000
vt 0.500000 0.500000
vt 0.500000 1.000000
vt 0.450000 0.500000
vt 0.450000 1.000000
vt 0.400000 0.500000
vt 0.400000 1.000000
vt 0.350000 0.500000
vt 0.350000 1.000000
vt 0.300000 0.500000
vt 0.300000 1.000000
vt 0.250000 0.500000
vt 0.250000 1.000000
vt 0.200000 0.500000
vt 0.200000 1.000000
vt 0.150000 0.500000
vt 0.150000 1.000000
vt 0.100000 0.500000
vt 0.490000 0.250000
vt 0.010000 0.250000
vt 0.250000 0.010000
vt 0.100000 1.000000
vt 0.050000 0.500000
vt 0.050000 1.000000
vt -0.000000 0.500000
vt 0.750000 0.490000
vt 0.990000 0.250000
vt 0.510000 0.250000
vt 1.000000 1.000000
vt 0.950000 0.500000
vt 1.000000 0.500000
vt 0.950000 1.000000
vt 0.900000 0.500000
vt 0.900000 1.000000
vt 0.850000 0.500000
vt 0.850000 1.000000
vt 0.800000 0.500000
vt 0.800000 1.000000
vt 0.750000 0.500000
vt 0.750000 1.000000
vt 0.700000 0.500000
vt 0.700000 1.000000
vt 0.650000 0.500000
vt 0.650000 1.000000
vt 0.600000 0.500000
vt 0.600000 1.000000
vt 0.550000 0.500000
vt 0.550000 1.000000
vt 0.500000 0.500000
vt 0.450000 1.000000
vt 0.450000 0.500000
vt 0.400000 1.000000
vt 0.400000 0.500000
vt 0.350000 1.000000
vt 0.350000 0.500000
vt 0.300000 1.000000
vt 0.300000 0.500000
vt 0.250000 1.000000
vt 0.250000 0.500000
vt 0.200000 1.000000
vt 0.200000 0.500000
vt 0.150000 1.000000
vt 0.150000 0.500000
vt 0.100000 1.000000
vt 0.100000 0.500000
vt 0.478254 0.324164
vt 0.444164 0.391068
vt 0.021746 0.324164
vt 0.050000 1.000000
vt 0.050000 0.500000
vt -0.000000 1.000000
vt -0.000000 0.500000
vt 0.555836 0.391068
vt 0.608932 0.444164
vt 0.944164 0.391068
vt 1.000000 0.500000
vt 0.950000 1.000000
vt 0.950000 0.500000
vt 0.900000 0.500000
vt 0.900000 1.000000
vt 0.850000 0.500000
vt 0.800000 1.000000
vt 0.800000 0.500000
vt 0.750000 0.500000
vt 0.750000 1.000000
vt 0.700000 0.500000
vt 0.700000 1.000000
vt 0.650000 0.500000
vt 0.650000 1.000000
vt 0.600000 0.500000
vt 0.600000 1.000000
vt 0.550000 0.500000
vt 0.550000 1.000000
vt 0.500000 0.500000
vt 0.500000 1.000000
vt 0.450000 0.500000
vt 0.450000 1.000000
vt 0.400000 0.500000
vt 0.400000 1.000000
vt 0.350000 0.500000
vt 0.350000 1.000000
vt 0.300000 0.500000
vt 0.250000 1.000000
vt 0.250000 0.500000
vt 0.200000 0.500000
vt 0.150000 1.000000
vt 0.150000 0.500000
vt 0.100000 0.500000
vt 0.478254 0.324164
vt 0.444164 0.391068
vt 0.021746 0.324164
vt 0.100000 1.000000
vt 0.050000 0.500000
vt -0.000000 1.000000
vt -0.000000 0.500000
vt 0.555836 0.391068
vt 0.608932 0.444164
vt 0.944164 0.391068
vt 1.000000 0.500000
vt 0.950000 1.000000
vt 0.950000 0.500000
vt 0.900000 0.500000
vt 0.900000 1.000000
vt 0.850000 0.500000
vt 0.850000 1.000000
vt 0.800000 0.500000
vt 0.800000 1.000000
vt 0.750000 0.500000
vt 0.750000 1.000000
vt 0.700000 0.500000
vt 0.700000 1.000000
vt 0.650000 0.500000
vt 0.650000 1.000000
vt 0.600000 0.500000
vt 0.600000 1.000000
vt 0.550000 0.500000
vt 0.500000 1.000000
vt 0.500000 0.500000
vt 0.450000 0.500000
vt 0.450000 1.000000
vt 0.400000 0.500000
vt 0.400000 1.000000
vt 0.350000 0.500000
vt 0.300000 1.000000
vt 0.300000 0.500000
vt 0.250000 0.500000
vt 0.250000 1.000000
vt 0.200000 0.500000
vt 0.150000 1.000000
vt 0.150000 0.500000
vt 0.100000 0.500000
vt 0.478254 0.324164
vt 0.444164 0.391068
vt 0.021746 0.324164
vt 0.100000 1.000000
vt 0.050000 0.500000
vt 0.050000 1.000000
vt -0.000000 0.500000
vt 0.555836 0.391068
vt 0.608932 0.444164
vt 0.944164 0.391068
vt 0.391068 0.444164
vt 0.324164 0.478254
vt 0.250000 0.490000
vt 0.175836 0.478254
vt 0.108932 0.444164
vt 0.055836 0.391068
vt 0.021746 0.324164
vt 0.021746 0.175836
vt 0.055836 0.108932
vt 0.108932 0.055836
vt 0.175836 0.021746
vt 0.324164 0.021746
vt 0.391068 0.055836
vt 0.444164 0.108932
vt 0.478254 0.175836
vt 0.478254 0.324164
vt 0.444164 0.391068
vt -0.000000 1.000000
vt 0.675836 0.478254
vt 0.824164 0.478254
vt 0.891068 0.444164
vt 0.944164 0.391068
vt 0.978254 0.324164
vt 0.978254 0.175836
vt 0.944164 0.108932
vt 0.891068 0.055836
vt 0.824164 0.021746
vt 0.750000 0.010000
vt 0.675836 0.021746
vt 0.608932 0.055836
vt 0.555836 0.108932
vt 0.521746 0.175836
vt 0.521746 0.324164
vt 0.555836 0.391068
vt 0.608932 0.444164
vt 0.500000 1.000000
vt 0.391068 0.444164
vt 0.324164 0.478254
vt 0.175836 0.478254
vt 0.250000 0.490000
vt 0.108932 0.444164
vt 0.055836 0.391068
vt 0.010000 0.250000
vt 0.021746 0.175836
vt 0.490000 0.250000
vt 0.055836 0.108932
vt 0.444164 0.108932
vt 0.108932 0.055836
vt 0.391068 0.055836
vt 0.175836 0.021746
vt 0.250000 0.010000
vt 0.324164 0.021746
vt 0.478254 0.175836
vt 0.675836 0.478254
vt 0.750000 0.490000
vt 0.824164 0.478254
vt 0.891068 0.444164
vt 0.978254 0.324164
vt 0.521746 0.324164
vt 0.990000 0.250000
vt 0.510000 0.250000
vt 0.978254 0.175836
vt 0.944164 0.108932
vt 0.521746 0.175836
vt 0.891068 0.055836
vt 0.608932 0.055836
vt 0.824164 0.021746
vt 0.675836 0.021746
vt 0.750000 0.010000
vt 0.555836 0.108932
vt 1.000000 1.000000
vt 0.850000 1.000000
vt 0.300000 1.000000
vt 0.200000 1.000000
vt 0.391068 0.444164
vt 0.324164 0.478254
vt 0.108932 0.444164
vt 0.250000 0.490000
vt 0.175836 0.478254
vt 0.055836 0.391068
vt 0.010000 0.250000
vt 0.021746 0.175836
vt 0.490000 0.250000
vt 0.055836 0.108932
vt 0.444164 0.108932
vt 0.108932 0.055836
vt 0.391068 0.055836
vt 0.175836 0.021746
vt 0.250000 0.010000
vt 0.324164 0.021746
vt 0.478254 0.175836
vt 0.050000 1.000000
vt 0.675836 0.478254
vt 0.750000 0.490000
vt 0.824164 0.478254
vt 0.891068 0.444164
vt 0.978254 0.324164
vt 0.521746 0.324164
vt 0.990000 0.250000
vt 0.510000 0.250000
vt 0.978254 0.175836
vt 0.944164 0.108932
vt 0.521746 0.175836
vt 0.891068 0.055836
vt 0.608932 0.055836
vt 0.824164 0.021746
vt 0.675836 0.021746
vt 0.750000 0.010000
vt 0.555836 0.108932
vt 1.000000 1.000000
vt 0.550000 1.000000
vt 0.350000 1.000000
vt 0.200000 1.000000
vt 0.391068 0.444164
vt 0.324164 0.478254
vt 0.175836 0.478254
vt 0.250000 0.490000
vt 0.108932 0.444164
vt 0.055836 0.391068
vt 0.010000 0.250000
vt 0.021746 0.175836
vt 0.490000 0.250000
vt 0.055836 0.108932
vt 0.478254 0.175836
vt 0.108932 0.055836
vt 0.444164 0.108932
vt 0.175836 0.021746
vt 0.324164 0.021746
vt 0.250000 0.010000
vt 0.391068 0.055836
vt -0.000000 1.000000
vt 0.675836 0.478254
vt 0.750000 0.490000
vt 0.824164 0.478254
vt 0.891068 0.444164
vt 0.978254 0.324164
vt 0.521746 0.324164
vt 0.990000 0.250000
vt 0.510000 0.250000
vt 0.978254 0.175836
vt 0.944164 0.108932
vt 0.521746 0.175836
vt 0.891068 0.055836
vt 0.608932 0.055836
vt 0.824164 0.021746
vt 0.675836 0.021746
vt 0.750000 0.010000
vt 0.555836 0.108932
vn 1.0000 -0.0000 0.0000
vn 0.9511 0.3090 0.0000
vn 0.8090 0.5878 0.0000
vn 0.5878 0.8090 0.0000
vn 0.2846 0.9586 0.0000
vn -0.0000 1.0000 0.0000
vn -0.2846 0.9586 0.0000
vn -0.5878 0.8090 0.0000
vn -0.8090 0.5878 0.0000
vn -0.9511 0.3090 0.0000
vn -1.0000 -0.0000 0.0000
vn -0.9511 -0.3090 0.0000
vn -0.8090 -0.5878 0.0000
vn -0.5878 -0.8090 0.0000
vn -0.2796 -0.9601 0.0000
vn -0.0000 -1.0000 -0.0000
vn 0.2796 -0.9601 0.0000
vn 0.5878 -0.8090 0.0000
vn 0.8090 -0.5878 0.0000
vn 0.0000 -0.0000 -1.0000
vn 0.9511 -0.3090 0.0000
vn -0.0000 -0.0000 1.0000
vn 0.0000 0.0029 -1.0000
vn 0.3141 0.0027 -0.9494
vn 0.3143 0.0027 -0.9493
vn 0.5947 0.0022 -0.8039
vn 0.5950 0.0022 -0.8037
vn 0.8140 0.0015 -0.5809
vn 0.8143 0.0015 -0.5805
vn 0.9526 0.0006 -0.3042
vn 0.9528 0.0006 -0.3036
vn 1.0000 -0.0003 -0.0003
vn 1.0000 -0.0003 0.0003
vn 0.9528 -0.0011 0.3036
vn 0.9526 -0.0011 0.3041
vn 0.8143 -0.0019 0.5805
vn 0.8140 -0.0019 0.5809
vn 0.5950 -0.0025 0.8037
vn 0.5948 -0.0025 0.8039
vn 0.3143 -0.0029 0.9493
vn 0.3141 -0.0029 0.9494
vn -0.0000 -0.0029 1.0000
vn -0.3141 -0.0027 0.9494
vn -0.3143 -0.0027 0.9493
vn -0.5947 -0.0022 0.8039
vn -0.5950 -0.0022 0.8037
vn -0.8140 -0.0015 0.5809
vn -0.8143 -0.0015 0.5805
vn -0.9526 -0.0006 0.3042
vn -0.9528 -0.0006 0.3036
vn -1.0000 0.0003 0.0003
vn -1.0000 0.0003 -0.0003
vn -0.9528 0.0011 -0.3036
vn -0.9526 0.0011 -0.3041
vn -0.8143 0.0019 -0.5805
vn -0.8140 0.0019 -0.5809
vn -0.5950 0.0025 -0.8037
vn -0.5948 0.0025 -0.8039
vn -0.3143 0.0029 -0.9493
vn -0.3141 0.0029 -0.9494
vn 0.3090 0.0000 -0.9511
vn 0.5878 0.0000 -0.8090
vn 0.8090 0.0000 -0.5878
vn 0.9511 0.0000 -0.3090
vn 0.9511 0.0000 0.3090
vn 0.8090 0.0000 0.5878
vn 0.5878 0.0000 0.8090
vn 0.3090 0.0000 0.9511
vn -0.3090 0.0000 0.9511
vn -0.5878 0.0000 0.8090
vn -0.8090 0.0000 0.5878
vn -0.9511 0.0000 0.3090
vn -0.9511 0.0000 -0.3090
vn -0.8090 0.0000 -0.5878
vn -0.5878 0.0000 -0.8090
vn -0.3090 0.0000 -0.9511
vn 0.0000 0.3090 -0.9511
vn 0.0000 0.5878 -0.8090
vn 0.0000 0.8090 -0.5878
vn 0.0000 0.9586 -0.2846
vn 0.0000 0.9586 0.2846
vn 0.0000 0.8090 0.5878
vn 0.0000 0.5878 0.8090
vn 0.0000 0.3090 0.9511
vn 0.0000 -0.3090 0.9511
vn 0.0000 -0.5878 0.8090
vn 0.0000 -0.8090 0.5878
vn 0.0000 -0.9601 0.2796
vn 0.0000 -0.9601 -0.2796
vn 0.0000 -0.8090 -0.5878
vn 0.0000 -0.5878 -0.8090
vn 0.0000 -0.3090 -0.9511
s 1
f 2/1/1 3/2/2 1/3/1
f 4/4/2 5/5/3 3/2/2
f 6/6/3 7/7/4 5/5/3
f 8/8/4 9/9/5 7/7/4
f 10/10/5 11/11/6 9/9/5
f 12/12/6 13/13/7 11/11/6
f 14/14/7 15/15/8 13/13/7
f 16/16/8 17/17/9 15/15/8
f 18/18/9 19/19/10 17/17/9
f 20/20/10 21/21/11 19/19/10
f 22/22/11 23/23/12 21/21/11
f 24/24/12 25/25/13 23/23/12
f 26/26/13 27/27/14 25/25/13
f 28/28/14 29/29/15 27/27/14
f 30/30/15 31/31/16 29/29/15
f 32/32/16 33/33/17 31/31/16
f 34/34/17 35/35/18 33/33/17
f 36/36/18 37/37/19 35/35/18
f 12/38/20 32/39/20 22/40/20
f 38/41/19 39/42/21 37/37/19
f 40/43/21 1/44/1 39/42/21
f 1/45/22 11/46/22 31/47/22
f 42/48/23 43/49/24 41/50/23
f 44/51/25 45/52/26 43/49/24
f 46/53/27 47/54/28 45/52/26
f 48/55/29 49/56/30 47/54/28
f 50/57/31 51/58/32 49/56/30
f 52/59/33 53/60/34 51/58/32
f 54/61/35 55/62/36 53/60/34
f 56/63/37 57/64/38 55/62/36
f 58/65/39 59/66/40 57/64/38
f 60/67/41 61/68/42 59/66/40
f 61/68/42 64/69/43 63/70/44
f 63/70/44 66/71/45 65/72/46
f 65/72/46 68/73/47 67/74/48
f 67/74/48 70/75/49 69/76/50
f 69/76/50 72/77/51 71/78/52
f 71/78/52 74/79/53 73/80/54
f 73/80/54 76/81/55 75/82/56
f 75/82/56 78/83/57 77/84/58
f 50/85/6 48/86/6 74/87/6
f 77/84/58 80/88/59 79/89/60
f 79/89/60 42/90/23 41/91/23
f 75/92/16 77/93/16 47/94/16
f 81/95/20 84/96/61 83/97/61
f 84/96/61 85/98/62 83/97/61
f 86/99/62 87/100/63 85/98/62
f 87/100/63 90/101/64 89/102/64
f 90/101/64 91/103/1 89/102/64
f 92/104/1 93/105/65 91/103/1
f 94/106/65 95/107/66 93/105/65
f 96/108/66 97/109/67 95/107/66
f 98/110/67 99/111/68 97/109/67
f 100/112/68 101/113/22 99/111/68
f 102/114/22 103/115/69 101/113/22
f 104/116/69 105/117/70 103/115/69
f 106/118/70 107/119/71 105/117/70
f 108/120/71 109/121/72 107/119/71
f 109/121/72 112/122/11 111/123/11
f 112/122/11 113/124/73 111/123/11
f 113/124/73 116/125/74 115/126/74
f 116/125/74 117/127/75 115/126/74
f 90/128/6 88/129/6 114/130/6
f 118/131/75 119/132/76 117/127/75
f 119/132/76 82/133/20 81/134/20
f 115/135/16 117/136/16 87/137/16
f 121/138/20 124/139/77 123/140/77
f 124/139/77 125/141/78 123/140/77
f 126/142/78 127/143/79 125/141/78
f 128/144/79 129/145/80 127/143/79
f 130/146/80 131/147/6 129/145/80
f 132/148/6 133/149/81 131/147/6
f 134/150/81 135/151/82 133/149/81
f 136/152/82 137/153/83 135/151/82
f 138/154/83 139/155/84 137/153/83
f 139/155/84 142/156/22 141/157/22
f 142/156/22 143/158/85 141/157/22
f 144/159/85 145/160/86 143/158/85
f 146/161/86 147/162/87 145/160/86
f 147/162/87 150/163/88 149/164/88
f 150/163/88 151/165/16 149/164/88
f 152/166/16 153/167/89 151/165/16
f 153/167/89 156/168/90 155/169/90
f 156/168/90 157/170/91 155/169/90
f 130/171/11 128/172/11 154/173/11
f 158/174/91 159/175/92 157/170/91
f 160/176/92 121/177/20 159/175/92
f 155/178/1 157/179/1 127/180/1
f 2/1/1 4/4/2 3/2/2
f 4/4/2 6/6/3 5/5/3
f 6/6/3 8/8/4 7/7/4
f 8/8/4 10/10/5 9/9/5
f 10/10/5 12/12/6 11/11/6
f 12/12/6 14/14/7 13/13/7
f 14/14/7 16/16/8 15/15/8
f 16/16/8 18/18/9 17/17/9
f 18/18/9 20/20/10 19/19/10
f 20/20/10 22/22/11 21/21/11
f 22/22/11 24/24/12 23/23/12
f 24/24/12 26/26/13 25/25/13
f 26/26/13 28/28/14 27/27/14
f 28/28/14 30/30/15 29/29/15
f 30/30/15 32/32/16 31/31/16
f 32/32/16 34/34/17 33/33/17
f 34/34/17 36/36/18 35/35/18
f 36/36/18 38/41/19 37/37/19
f 6/181/20 4/182/20 12/38/20
f 4/182/20 2/183/20 12/38/20
f 2/183/20 40/184/20 32/39/20
f 40/184/20 38/185/20 32/39/20
f 38/185/20 36/186/20 32/39/20
f 36/186/20 34/187/20 32/39/20
f 32/39/20 30/188/20 28/189/20
f 28/189/20 26/190/20 32/39/20
f 26/190/20 24/191/20 32/39/20
f 24/191/20 22/40/20 32/39/20
f 22/40/20 20/192/20 12/38/20
f 20/192/20 18/193/20 12/38/20
f 18/193/20 16/194/20 12/38/20
f 16/194/20 14/195/20 12/38/20
f 12/38/20 10/196/20 8/197/20
f 6/181/20 12/38/20 8/197/20
f 2/183/20 32/39/20 12/38/20
f 38/41/19 40/43/21 39/42/21
f 40/43/21 2/198/1 1/44/1
f 39/199/22 1/45/22 31/47/22
f 1/45/22 3/200/22 11/46/22
f 3/200/22 5/201/22 11/46/22
f 5/201/22 7/202/22 11/46/22
f 7/202/22 9/203/22 11/46/22
f 11/46/22 13/204/22 15/205/22
f 15/205/22 17/206/22 11/46/22
f 17/206/22 19/207/22 11/46/22
f 19/207/22 21/208/22 11/46/22
f 21/208/22 23/209/22 31/47/22
f 11/46/22 21/208/22 31/47/22
f 23/209/22 25/210/22 31/47/22
f 25/210/22 27/211/22 31/47/22
f 27/211/22 29/212/22 31/47/22
f 31/47/22 33/213/22 35/214/22
f 35/214/22 37/215/22 31/47/22
f 37/215/22 39/199/22 31/47/22
f 42/48/23 44/51/25 43/49/24
f 44/51/25 46/53/27 45/52/26
f 46/53/27 48/55/29 47/54/28
f 48/55/29 50/57/31 49/56/30
f 50/57/31 52/59/33 51/58/32
f 52/59/33 54/61/35 53/60/34
f 54/61/35 56/63/37 55/62/36
f 56/63/37 58/65/39 57/64/38
f 58/65/39 60/67/41 59/66/40
f 60/67/41 62/216/42 61/68/42
f 61/68/42 62/216/42 64/69/43
f 63/70/44 64/69/43 66/71/45
f 65/72/46 66/71/45 68/73/47
f 67/74/48 68/73/47 70/75/49
f 69/76/50 70/75/49 72/77/51
f 71/78/52 72/77/51 74/79/53
f 73/80/54 74/79/53 76/81/55
f 75/82/56 76/81/55 78/83/57
f 46/217/6 44/218/6 80/219/6
f 44/218/6 42/220/6 80/219/6
f 80/219/6 78/221/6 46/217/6
f 78/221/6 76/222/6 46/217/6
f 76/222/6 74/87/6 48/86/6
f 46/217/6 76/222/6 48/86/6
f 74/87/6 72/223/6 50/85/6
f 72/223/6 70/224/6 52/225/6
f 50/85/6 72/223/6 52/225/6
f 70/224/6 68/226/6 56/227/6
f 68/226/6 66/228/6 58/229/6
f 66/228/6 64/230/6 58/229/6
f 64/230/6 62/231/6 60/232/6
f 58/229/6 64/230/6 60/232/6
f 58/229/6 56/227/6 68/226/6
f 56/227/6 54/233/6 70/224/6
f 54/233/6 52/225/6 70/224/6
f 77/84/58 78/83/57 80/88/59
f 79/89/60 80/88/59 42/90/23
f 79/234/16 41/235/16 43/236/16
f 43/236/16 45/237/16 79/234/16
f 45/237/16 47/94/16 77/93/16
f 79/234/16 45/237/16 77/93/16
f 47/94/16 49/238/16 73/239/16
f 49/238/16 51/240/16 71/241/16
f 51/240/16 53/242/16 71/241/16
f 53/242/16 55/243/16 69/244/16
f 71/241/16 53/242/16 69/244/16
f 55/243/16 57/245/16 65/246/16
f 57/245/16 59/247/16 63/248/16
f 59/247/16 61/249/16 63/248/16
f 63/248/16 65/246/16 57/245/16
f 65/246/16 67/250/16 55/243/16
f 67/250/16 69/244/16 55/243/16
f 71/241/16 73/239/16 49/238/16
f 73/239/16 75/92/16 47/94/16
f 81/95/20 82/251/20 84/96/61
f 84/96/61 86/99/62 85/98/62
f 86/99/62 88/252/63 87/100/63
f 87/100/63 88/252/63 90/101/64
f 90/101/64 92/104/1 91/103/1
f 92/104/1 94/106/65 93/105/65
f 94/106/65 96/108/66 95/107/66
f 96/108/66 98/110/67 97/109/67
f 98/110/67 100/112/68 99/111/68
f 100/112/68 102/114/22 101/113/22
f 102/114/22 104/116/69 103/115/69
f 104/116/69 106/118/70 105/117/70
f 106/118/70 108/120/71 107/119/71
f 108/120/71 110/253/72 109/121/72
f 109/121/72 110/253/72 112/122/11
f 112/122/11 114/254/73 113/124/73
f 113/124/73 114/254/73 116/125/74
f 116/125/74 118/131/75 117/127/75
f 86/255/6 84/256/6 118/257/6
f 84/256/6 82/258/6 120/259/6
f 118/257/6 84/256/6 120/259/6
f 118/257/6 116/260/6 86/255/6
f 116/260/6 114/130/6 88/129/6
f 86/255/6 116/260/6 88/129/6
f 114/130/6 112/261/6 90/128/6
f 112/261/6 110/262/6 92/263/6
f 90/128/6 112/261/6 92/263/6
f 110/262/6 108/264/6 96/265/6
f 108/264/6 106/266/6 98/267/6
f 106/266/6 104/268/6 98/267/6
f 104/268/6 102/269/6 100/270/6
f 98/267/6 104/268/6 100/270/6
f 98/267/6 96/265/6 108/264/6
f 96/265/6 94/271/6 110/262/6
f 94/271/6 92/263/6 110/262/6
f 118/131/75 120/272/76 119/132/76
f 119/132/76 120/272/76 82/133/20
f 119/273/16 81/274/16 83/275/16
f 83/275/16 85/276/16 119/273/16
f 85/276/16 87/137/16 117/136/16
f 119/273/16 85/276/16 117/136/16
f 87/137/16 89/277/16 113/278/16
f 89/277/16 91/279/16 111/280/16
f 91/279/16 93/281/16 111/280/16
f 93/281/16 95/282/16 109/283/16
f 111/280/16 93/281/16 109/283/16
f 95/282/16 97/284/16 105/285/16
f 97/284/16 99/286/16 103/287/16
f 99/286/16 101/288/16 103/287/16
f 103/287/16 105/285/16 97/284/16
f 105/285/16 107/289/16 95/282/16
f 107/289/16 109/283/16 95/282/16
f 111/280/16 113/278/16 89/277/16
f 113/278/16 115/135/16 87/137/16
f 121/138/20 122/290/20 124/139/77
f 124/139/77 126/142/78 125/141/78
f 126/142/78 128/144/79 127/143/79
f 128/144/79 130/146/80 129/145/80
f 130/146/80 132/148/6 131/147/6
f 132/148/6 134/150/81 133/149/81
f 134/150/81 136/152/82 135/151/82
f 136/152/82 138/154/83 137/153/83
f 138/154/83 140/291/84 139/155/84
f 139/155/84 140/291/84 142/156/22
f 142/156/22 144/159/85 143/158/85
f 144/159/85 146/161/86 145/160/86
f 146/161/86 148/292/87 147/162/87
f 147/162/87 148/292/87 150/163/88
f 150/163/88 152/166/16 151/165/16
f 152/166/16 154/293/89 153/167/89
f 153/167/89 154/293/89 156/168/90
f 156/168/90 158/174/91 157/170/91
f 126/294/11 124/295/11 160/296/11
f 124/295/11 122/297/11 160/296/11
f 160/296/11 158/298/11 126/294/11
f 158/298/11 156/299/11 126/294/11
f 156/299/11 154/173/11 128/172/11
f 126/294/11 156/299/11 128/172/11
f 154/173/11 152/300/11 130/171/11
f 152/300/11 150/301/11 132/302/11
f 130/171/11 152/300/11 132/302/11
f 150/301/11 148/303/11 134/304/11
f 148/303/11 146/305/11 136/306/11
f 134/304/11 148/303/11 136/306/11
f 146/305/11 144/307/11 140/308/11
f 144/307/11 142/309/11 140/308/11
f 140/308/11 138/310/11 146/305/11
f 138/310/11 136/306/11 146/305/11
f 134/304/11 132/302/11 150/301/11
f 158/174/91 160/176/92 159/175/92
f 160/176/92 122/311/20 121/177/20
f 159/312/1 121/313/1 123/314/1
f 123/314/1 125/315/1 159/312/1
f 125/315/1 127/180/1 157/179/1
f 159/312/1 125/315/1 157/179/1
f 127/180/1 129/316/1 153/317/1
f 129/316/1 131/318/1 151/319/1
f 131/318/1 133/320/1 151/319/1
f 133/320/1 135/321/1 149/322/1
f 151/319/1 133/320/1 149/322/1
f 135/321/1 137/323/1 145/324/1
f 137/323/1 139/325/1 143/326/1
f 139/325/1 141/327/1 143/326/1
f 143/326/1 145/324/1 137/323/1
f 145/324/1 147/328/1 135/321/1
f 147/328/1 149/322/1 135/321/1
f 151/319/1 153/317/1 129/316/1
f 153/317/1 155/178/1 127/180/1
