# Blender v3.4.1 OBJ File: 'station.blend'
# www.blender.org
o Solar_Panel_2_Cells_Plane.002
v -0.200000 -0.002642 1.000000
v 0.200000 -0.002642 1.000000
v -0.200000 -0.002642 -1.000000
v 0.200000 -0.002642 -1.000000
v -0.200000 0.047358 -0.666667
v -0.200000 -0.002642 -0.333333
v -0.200000 0.047358 0.000000
v -0.200000 -0.002642 0.333333
v -0.200000 0.047358 0.666667
v 0.200000 0.047358 0.666667
v 0.200000 -0.002642 0.333333
v 0.200000 0.047358 -0.000000
v 0.200000 -0.002642 -0.333333
v 0.200000 0.047358 -0.666667
v -0.200000 -0.002642 1.000000
v 0.200000 -0.002642 1.000000
v -0.200000 -0.002642 -1.000000
v 0.200000 -0.002642 -1.000000
v -0.200000 0.047358 -0.666667
v -0.200000 -0.002642 -0.333333
v -0.200000 0.047358 0.000000
v -0.200000 -0.002642 0.333333
v -0.200000 0.047358 0.666667
v 0.200000 0.047358 0.666667
v 0.200000 -0.002642 0.333333
v 0.200000 0.047358 -0.000000
v 0.200000 -0.002642 -0.333333
v 0.200000 0.047358 -0.666667
v 0.013150 -0.002642 -1.000000
v 0.013150 0.047358 -0.666667
v 0.013150 -0.002642 -1.000000
v 0.013150 0.047358 -0.666667
v 0.013150 -0.002642 -0.333333
v 0.013150 -0.002642 -0.333333
v 0.013150 0.047358 -0.000000
v 0.013150 0.047358 -0.000000
v 0.013150 0.047358 0.666667
v 0.013150 -0.002642 0.333333
v 0.013150 -0.002642 0.333333
v 0.013150 0.047358 0.666667
v 0.013150 -0.000554 0.986080
v 0.013150 -0.000554 0.986080
v -0.013150 -0.002642 -1.000000
v -0.013150 0.047358 -0.666667
v -0.013150 -0.002642 -1.000000
v -0.013150 0.047358 -0.666667
v -0.013150 0.047358 0.000000
v -0.013150 -0.002642 -0.333333
v -0.013150 -0.002642 -0.333333
v -0.013150 0.047358 0.000000
v -0.013150 0.047358 0.666667
v -0.013150 -0.002642 0.333333
v -0.013150 -0.002642 0.333333
v -0.013150 0.047358 0.666667
v -0.013150 -0.000554 0.986080
v -0.013150 -0.000554 0.986080
vt 0.000000 1.000000
vt 0.467126 0.833333
vt 0.000000 0.833333
vt 0.000000 0.000000
vt 0.532874 0.006960
vt 1.000000 0.000000
vt 0.000000 0.333333
vt 0.467126 0.166667
vt 0.000000 0.166667
vt 0.000000 0.500000
vt 0.467126 0.333333
vt 0.000000 0.666667
vt 0.467126 0.500000
vt 0.467126 0.666667
vt 0.467126 0.833333
vt 0.000000 1.000000
vt 0.000000 0.833333
vt 0.000000 0.000000
vt 1.000000 0.000000
vt 0.467126 0.006960
vt 0.467126 0.166667
vt 0.000000 0.333333
vt 0.000000 0.166667
vt 0.467126 0.333333
vt 0.000000 0.500000
vt 0.467126 0.500000
vt 0.000000 0.666667
vt 0.467126 0.666667
vt 0.532874 1.000000
vt 1.000000 0.833333
vt 0.532874 0.833333
vt 0.532874 0.333333
vt 1.000000 0.166667
vt 0.532874 0.166667
vt 0.532874 0.666667
vt 1.000000 0.500000
vt 0.532874 0.500000
vt 0.532874 0.833333
vt 1.000000 0.666667
vt 1.000000 0.833333
vt 1.000000 0.333333
vt 0.532874 0.333333
vt 1.000000 0.500000
vt 0.532874 0.500000
vt 0.532874 0.166667
vt 1.000000 0.333333
vt 1.000000 0.666667
vt 0.532874 0.666667
vt 1.000000 1.000000
vt 0.532874 1.000000
vt 0.467126 1.000000
vt 0.467126 0.006960
vt 0.467126 1.000000
vt 1.000000 0.166667
vt 0.532874 0.006960
vt 1.000000 1.000000
vn 0.0000 -0.9889 0.1483
vn 0.0000 -0.9889 -0.1483
vn 0.0000 0.9889 -0.1483
vn 0.0000 0.9889 0.1483
s off
f 3/1/1 44/2/1 5/3/1
f 1/4/2 41/5/2 2/6/2
f 8/7/1 51/8/1 9/9/1
f 7/10/2 53/11/2 8/7/2
f 6/12/1 47/13/1 7/10/1
f 5/3/2 48/14/2 6/12/2
f 46/15/3 17/16/3 19/17/3
f 15/18/4 16/19/4 56/20/4
f 54/21/3 22/22/3 23/23/3
f 52/24/4 21/25/4 22/22/4
f 50/26/3 20/27/3 21/25/3
f 49/28/4 19/17/4 20/27/4
f 29/29/1 14/30/1 30/31/1
f 39/32/1 10/33/1 37/34/1
f 33/35/1 12/36/1 35/37/1
f 32/38/4 27/39/4 28/40/4
f 35/37/2 11/41/2 39/32/2
f 38/42/4 26/43/4 36/44/4
f 40/45/3 25/46/3 38/42/3
f 30/31/2 13/47/2 33/35/2
f 36/44/3 27/39/3 34/48/3
f 32/38/3 18/49/3 31/50/3
f 3/1/1 43/51/1 44/2/1
f 1/4/2 9/9/2 55/52/2
f 9/9/2 51/8/2 55/52/2
f 37/34/2 10/33/2 41/5/2
f 10/33/2 2/6/2 41/5/2
f 1/4/2 55/52/2 41/5/2
f 8/7/1 53/11/1 51/8/1
f 7/10/2 47/13/2 53/11/2
f 6/12/1 48/14/1 47/13/1
f 5/3/2 44/2/2 48/14/2
f 46/15/3 45/53/3 17/16/3
f 16/19/4 24/54/4 42/55/4
f 24/54/4 40/45/4 42/55/4
f 54/21/4 23/23/4 56/20/4
f 23/23/4 15/18/4 56/20/4
f 16/19/4 42/55/4 56/20/4
f 54/21/3 52/24/3 22/22/3
f 52/24/4 50/26/4 21/25/4
f 50/26/3 49/28/3 20/27/3
f 49/28/4 46/15/4 19/17/4
f 29/29/1 4/56/1 14/30/1
f 39/32/1 11/41/1 10/33/1
f 33/35/1 13/47/1 12/36/1
f 32/38/4 34/48/4 27/39/4
f 35/37/2 12/36/2 11/41/2
f 38/42/4 25/46/4 26/43/4
f 40/45/3 24/54/3 25/46/3
f 30/31/2 14/30/2 13/47/2
f 36/44/3 26/43/3 27/39/3
f 32/38/3 28/40/3 18/49/3
