# Blender v3.4.1 OBJ File: 'station.blend'
# www.blender.org
o Solar_Rotator_Antennae_Cylinder.063
v 0.017990 -0.000000 -2.798921
v 0.010913 -0.000000 -3.026736
v 0.016621 0.006884 -2.798921
v 0.010082 0.004176 -3.026736
v 0.012721 0.012721 -2.798921
v 0.007717 0.007717 -3.026736
v 0.006884 0.016621 -2.798921
v 0.004176 0.010082 -3.026736
v -0.000000 0.017990 -2.798921
v -0.000000 0.010913 -3.026736
v -0.006885 0.016621 -2.798921
v -0.004177 0.010082 -3.026736
v -0.012721 0.012721 -2.798921
v -0.007717 0.007717 -3.026736
v -0.016621 0.006884 -2.798921
v -0.010083 0.004176 -3.026736
v -0.017991 -0.000000 -2.798921
v -0.010913 -0.000000 -3.026736
v -0.016621 -0.006885 -2.798921
v -0.010083 -0.004177 -3.026736
v -0.012721 -0.012721 -2.798921
v -0.007717 -0.007717 -3.026736
v -0.006885 -0.016621 -2.798921
v -0.004177 -0.010083 -3.026736
v -0.000000 -0.017991 -2.798921
v -0.000000 -0.010913 -3.026736
v 0.006884 -0.016621 -2.798921
v 0.004176 -0.010083 -3.026736
v 0.012721 -0.012721 -2.798921
v 0.007717 -0.007717 -3.026736
v 0.016621 -0.006885 -2.798921
v 0.010082 -0.004177 -3.026736
v 2.798922 -0.000000 0.017990
v 3.026736 -0.000000 0.010913
v 2.798922 0.006884 0.016621
v 3.026736 0.004176 0.010082
v 2.798922 0.012721 0.012721
v 3.026736 0.007716 0.007717
v 2.798922 0.016621 0.006885
v 3.026736 0.010082 0.004176
v 2.798922 0.017990 -0.000000
v 3.026736 0.010913 -0.000000
v 2.798922 0.016621 -0.006885
v 3.026736 0.010082 -0.004176
v 2.798922 0.012721 -0.012721
v 3.026736 0.007716 -0.007717
v 2.798922 0.006884 -0.016621
v 3.026736 0.004176 -0.010083
v 2.798922 -0.000000 -0.017991
v 3.026736 -0.000000 -0.010913
v 2.798922 -0.006885 -0.016621
v 3.026736 -0.004177 -0.010083
v 2.798922 -0.012722 -0.012721
v 3.026736 -0.007717 -0.007717
v 2.798922 -0.016621 -0.006885
v 3.026736 -0.010083 -0.004176
v 2.798922 -0.017991 -0.000000
v 3.026736 -0.010914 -0.000000
v 2.798922 -0.016621 0.006885
v 3.026736 -0.010083 0.004176
v 2.798922 -0.012722 0.012721
v 3.026736 -0.007717 0.007717
v 2.798922 -0.006885 0.016621
v 3.026736 -0.004177 0.010082
v -0.017990 -0.000000 2.798921
v -0.010913 -0.000000 3.026736
v -0.016621 0.006884 2.798921
v -0.010082 0.004176 3.026736
v -0.012721 0.012721 2.798921
v -0.007717 0.007717 3.026736
v -0.006885 0.016621 2.798921
v -0.004176 0.010082 3.026736
v 0.000000 0.017990 2.798921
v 0.000000 0.010913 3.026736
v 0.006885 0.016621 2.798921
v 0.004176 0.010082 3.026736
v 0.012721 0.012721 2.798921
v 0.007717 0.007717 3.026736
v 0.016621 0.006884 2.798921
v 0.010083 0.004176 3.026736
v 0.017991 -0.000000 2.798921
v 0.010913 -0.000000 3.026736
v 0.016621 -0.006885 2.798921
v 0.010083 -0.004177 3.026736
v 0.012721 -0.012721 2.798921
v 0.007717 -0.007717 3.026736
v 0.006885 -0.016621 2.798921
v 0.004176 -0.010083 3.026736
v 0.000000 -0.017991 2.798921
v 0.000000 -0.010913 3.026736
v -0.006885 -0.016621 2.798921
v -0.004176 -0.010083 3.026736
v -0.012721 -0.012721 2.798921
v -0.007717 -0.007717 3.026736
v -0.016621 -0.006885 2.798921
v -0.010082 -0.004177 3.026736
v -2.798922 -0.000000 -0.017990
v -3.026736 0.000000 -0.010913
v -2.798922 0.006885 -0.016621
v -3.026736 0.004176 -0.010082
v -2.798922 0.012721 -0.012721
v -3.026736 0.007717 -0.007717
v -2.798922 0.016621 -0.006885
v -3.026736 0.010083 -0.004176
v -2.798922 0.017990 0.000000
v -3.026736 0.010913 0.000000
v -2.798922 0.016621 0.006885
v -3.026736 0.010083 0.004176
v -2.798922 0.012721 0.012721
v -3.026736 0.007717 0.007717
v -2.798922 0.006885 0.016621
v -3.026736 0.004176 0.010082
v -2.798922 -0.000000 0.017990
v -3.026736 0.000000 0.010913
v -2.798922 -0.006885 0.016621
v -3.026736 -0.004176 0.010082
v -2.798922 -0.012721 0.012721
v -3.026736 -0.007717 0.007717
v -2.798922 -0.016621 0.006885
v -3.026736 -0.010082 0.004176
v -2.798922 -0.017990 0.000000
v -3.026736 -0.010913 0.000000
v -2.798922 -0.016621 -0.006885
v -3.026736 -0.010082 -0.004176
v -2.798922 -0.012721 -0.012721
v -3.026736 -0.007717 -0.007717
v -2.798922 -0.006885 -0.016621
v -3.026736 -0.004176 -0.010082
vt 1.000000 1.000000
vt 0.937500 0.500000
vt 1.000000 0.500000
vt 0.937500 1.000000
vt 0.875000 0.500000
vt 0.875000 1.000000
vt 0.812500 0.500000
vt 0.812500 1.000000
vt 0.750000 0.500000
vt 0.750000 1.000000
vt 0.687500 0.500000
vt 0.625000 1.000000
vt 0.625000 0.500000
vt 0.562500 1.000000
vt 0.562500 0.500000
vt 0.500000 1.000000
vt 0.500000 0.500000
vt 0.437500 1.000000
vt 0.437500 0.500000
vt 0.375000 1.000000
vt 0.375000 0.500000
vt 0.312500 1.000000
vt 0.312500 0.500000
vt 0.250000 0.500000
vt 0.187500 1.000000
vt 0.187500 0.500000
vt 0.125000 0.500000
vt 0.080294 0.080294
vt 0.419706 0.080294
vt 0.419706 0.419706
vt 0.125000 1.000000
vt 0.062500 0.500000
vt 0.062500 1.000000
vt 0.000000 0.500000
vt 0.841844 0.028269
vt 0.528269 0.158156
vt 0.658156 0.471731
vt 1.000000 0.500000
vt 0.937500 1.000000
vt 0.937500 0.500000
vt 0.875000 1.000000
vt 0.875000 0.500000
vt 0.812500 1.000000
vt 0.812500 0.500000
vt 0.750000 1.000000
vt 0.750000 0.500000
vt 0.687500 0.500000
vt 0.687500 1.000000
vt 0.625000 0.500000
vt 0.625000 1.000000
vt 0.562500 0.500000
vt 0.562500 1.000000
vt 0.500000 0.500000
vt 0.437500 1.000000
vt 0.437500 0.500000
vt 0.375000 1.000000
vt 0.375000 0.500000
vt 0.312500 1.000000
vt 0.312500 0.500000
vt 0.250000 1.000000
vt 0.250000 0.500000
vt 0.187500 0.500000
vt 0.187500 1.000000
vt 0.125000 0.500000
vt 0.419706 0.419706
vt 0.471731 0.158156
vt 0.471731 0.341844
vt 0.125000 1.000000
vt 0.062500 0.500000
vt 0.062500 1.000000
vt 0.000000 0.500000
vt 0.528269 0.341844
vt 0.580294 0.419706
vt 0.528269 0.158156
vt 1.000000 1.000000
vt 0.937500 0.500000
vt 1.000000 0.500000
vt 0.937500 1.000000
vt 0.875000 0.500000
vt 0.875000 1.000000
vt 0.812500 0.500000
vt 0.812500 1.000000
vt 0.750000 0.500000
vt 0.687500 1.000000
vt 0.687500 0.500000
vt 0.625000 1.000000
vt 0.625000 0.500000
vt 0.562500 0.500000
vt 0.500000 1.000000
vt 0.500000 0.500000
vt 0.437500 1.000000
vt 0.437500 0.500000
vt 0.375000 1.000000
vt 0.375000 0.500000
vt 0.312500 0.500000
vt 0.312500 1.000000
vt 0.250000 0.500000
vt 0.250000 1.000000
vt 0.187500 0.500000
vt 0.187500 1.000000
vt 0.125000 0.500000
vt 0.080294 0.080294
vt 0.419706 0.080294
vt 0.419706 0.419706
vt 0.125000 1.000000
vt 0.062500 0.500000
vt 0.062500 1.000000
vt 0.000000 0.500000
vt 0.841844 0.028269
vt 0.528269 0.158156
vt 0.658156 0.471731
vt 1.000000 0.500000
vt 0.937500 1.000000
vt 0.937500 0.500000
vt 0.875000 1.000000
vt 0.875000 0.500000
vt 0.812500 1.000000
vt 0.812500 0.500000
vt 0.750000 1.000000
vt 0.750000 0.500000
vt 0.687500 0.500000
vt 0.687500 1.000000
vt 0.625000 0.500000
vt 0.625000 1.000000
vt 0.562500 0.500000
vt 0.562500 1.000000
vt 0.500000 0.500000
vt 0.437500 1.000000
vt 0.437500 0.500000
vt 0.375000 1.000000
vt 0.375000 0.500000
vt 0.312500 1.000000
vt 0.312500 0.500000
vt 0.250000 1.000000
vt 0.250000 0.500000
vt 0.187500 0.500000
vt 0.187500 1.000000
vt 0.125000 0.500000
vt 0.419706 0.419706
vt 0.471731 0.158156
vt 0.471731 0.341844
vt 0.125000 1.000000
vt 0.062500 0.500000
vt 0.062500 1.000000
vt 0.000000 0.500000
vt 0.528269 0.341844
vt 0.580294 0.419706
vt 0.528269 0.158156
vt 0.687500 1.000000
vt 0.250000 1.000000
vt 0.341844 0.471731
vt 0.250000 0.490000
vt 0.158156 0.471731
vt 0.080294 0.419706
vt 0.028269 0.341844
vt 0.010000 0.250000
vt 0.028269 0.158156
vt 0.158156 0.028269
vt 0.250000 0.010000
vt 0.341844 0.028269
vt 0.471731 0.158156
vt 0.490000 0.250000
vt 0.471731 0.341844
vt 0.000000 1.000000
vt 0.750000 0.490000
vt 0.841844 0.471731
vt 0.919706 0.419706
vt 0.971731 0.341844
vt 0.990000 0.250000
vt 0.971731 0.158156
vt 0.919706 0.080294
vt 0.750000 0.010000
vt 0.658156 0.028269
vt 0.580294 0.080294
vt 0.510000 0.250000
vt 0.528269 0.341844
vt 0.580294 0.419706
vt 1.000000 1.000000
vt 0.500000 1.000000
vt 0.341844 0.471731
vt 0.341844 0.028269
vt 0.250000 0.490000
vt 0.250000 0.010000
vt 0.158156 0.471731
vt 0.158156 0.028269
vt 0.080294 0.419706
vt 0.080294 0.080294
vt 0.028269 0.341844
vt 0.010000 0.250000
vt 0.028269 0.158156
vt 0.419706 0.080294
vt 0.490000 0.250000
vt 0.000000 1.000000
vt 0.658156 0.471731
vt 0.750000 0.490000
vt 0.750000 0.010000
vt 0.841844 0.471731
vt 0.841844 0.028269
vt 0.919706 0.419706
vt 0.971731 0.341844
vt 0.919706 0.080294
vt 0.990000 0.250000
vt 0.971731 0.158156
vt 0.658156 0.028269
vt 0.580294 0.080294
vt 0.510000 0.250000
vt 0.750000 1.000000
vt 0.562500 1.000000
vt 0.341844 0.471731
vt 0.080294 0.419706
vt 0.250000 0.490000
vt 0.158156 0.471731
vt 0.028269 0.341844
vt 0.010000 0.250000
vt 0.028269 0.158156
vt 0.158156 0.028269
vt 0.250000 0.010000
vt 0.341844 0.028269
vt 0.471731 0.158156
vt 0.490000 0.250000
vt 0.471731 0.341844
vt 0.000000 1.000000
vt 0.750000 0.490000
vt 0.971731 0.341844
vt 0.841844 0.471731
vt 0.919706 0.419706
vt 0.990000 0.250000
vt 0.971731 0.158156
vt 0.919706 0.080294
vt 0.750000 0.010000
vt 0.658156 0.028269
vt 0.580294 0.080294
vt 0.510000 0.250000
vt 0.528269 0.341844
vt 0.580294 0.419706
vt 1.000000 1.000000
vt 0.500000 1.000000
vt 0.341844 0.471731
vt 0.341844 0.028269
vt 0.250000 0.490000
vt 0.250000 0.010000
vt 0.158156 0.471731
vt 0.158156 0.028269
vt 0.080294 0.419706
vt 0.080294 0.080294
vt 0.028269 0.341844
vt 0.028269 0.158156
vt 0.010000 0.250000
vt 0.419706 0.080294
vt 0.490000 0.250000
vt 0.000000 1.000000
vt 0.658156 0.471731
vt 0.750000 0.490000
vt 0.750000 0.010000
vt 0.841844 0.471731
vt 0.841844 0.028269
vt 0.919706 0.419706
vt 0.971731 0.341844
vt 0.919706 0.080294
vt 0.990000 0.250000
vt 0.971731 0.158156
vt 0.658156 0.028269
vt 0.580294 0.080294
vt 0.510000 0.250000
vn 0.9995 0.0000 -0.0311
vn 0.9234 0.3825 -0.0311
vn 0.7068 0.7068 -0.0311
vn 0.3825 0.9234 -0.0311
vn 0.0000 0.9995 -0.0311
vn -0.3825 0.9234 -0.0311
vn -0.7068 0.7068 -0.0311
vn -0.9234 0.3825 -0.0311
vn -0.9995 0.0000 -0.0311
vn -0.9234 -0.3825 -0.0311
vn -0.7068 -0.7068 -0.0311
vn -0.3825 -0.9234 -0.0311
vn 0.0000 -0.9995 -0.0311
vn 0.3825 -0.9234 -0.0311
vn 0.7068 -0.7068 -0.0311
vn -0.0000 0.0000 -1.0000
vn 0.9234 -0.3825 -0.0311
vn -0.0000 0.0000 1.0000
vn 0.0311 -0.0000 0.9995
vn 0.0311 0.3825 0.9234
vn 0.0311 0.7068 0.7068
vn 0.0311 0.9234 0.3825
vn 0.0311 0.9995 0.0000
vn 0.0311 0.9234 -0.3825
vn 0.0311 0.7068 -0.7068
vn 0.0311 0.3825 -0.9234
vn 0.0311 0.0000 -0.9995
vn 0.0311 -0.3825 -0.9234
vn 0.0311 -0.7068 -0.7068
vn 0.0311 -0.9234 -0.3825
vn 0.0311 -0.9995 0.0000
vn 0.0311 -0.9234 0.3825
vn 0.0311 -0.7068 0.7068
vn 1.0000 0.0001 0.0000
vn 1.0000 0.0000 0.0000
vn 0.0311 -0.3825 0.9234
vn -1.0000 0.0000 0.0000
vn -1.0000 0.0001 0.0000
vn -1.0000 -0.0001 0.0000
vn -0.9995 0.0000 0.0311
vn -0.9234 0.3825 0.0311
vn -0.7068 0.7068 0.0311
vn -0.3825 0.9234 0.0311
vn 0.0000 0.9995 0.0311
vn 0.3825 0.9234 0.0311
vn 0.7068 0.7068 0.0311
vn 0.9234 0.3825 0.0311
vn 0.9995 0.0000 0.0311
vn 0.9234 -0.3825 0.0311
vn 0.7068 -0.7068 0.0311
vn 0.3825 -0.9234 0.0311
vn -0.0000 -0.9995 0.0311
vn -0.3825 -0.9234 0.0311
vn -0.7068 -0.7068 0.0311
vn -0.9234 -0.3825 0.0311
vn -0.0311 -0.0000 -0.9995
vn -0.0311 0.3825 -0.9234
vn -0.0311 0.7068 -0.7068
vn -0.0311 0.9234 -0.3825
vn -0.0311 0.9995 -0.0000
vn -0.0311 0.9234 0.3825
vn -0.0311 0.7068 0.7068
vn -0.0311 0.3825 0.9234
vn -0.0311 0.0000 0.9995
vn -0.0311 -0.3825 0.9234
vn -0.0311 -0.7068 0.7068
vn -0.0311 -0.9234 0.3825
vn -0.0311 -0.9995 -0.0000
vn -0.0311 -0.9234 -0.3825
vn -0.0311 -0.7068 -0.7068
vn -0.0311 -0.3825 -0.9234
vn 1.0000 -0.0001 0.0000
vn -0.0003 0.0000 -1.0000
vn -0.0001 0.0000 -1.0000
vn 0.0001 0.0000 -1.0000
vn 0.0002 0.0000 1.0000
vn -0.0001 0.0000 1.0000
vn -0.0002 0.0000 1.0000
vn 0.0001 0.0000 1.0000
vn -0.0003 0.0000 1.0000
vn 0.0002 0.0000 -1.0000
vn -1.0000 -0.0005 0.0000
vn -1.0000 0.0005 0.0000
vn 1.0000 -0.0002 0.0000
vn 1.0000 0.0002 0.0000
s 1
f 2/1/1 3/2/2 1/3/1
f 4/4/2 5/5/3 3/2/2
f 6/6/3 7/7/4 5/5/3
f 8/8/4 9/9/5 7/7/4
f 10/10/5 11/11/6 9/9/5
f 11/11/6 14/12/7 13/13/7
f 13/13/7 16/14/8 15/15/8
f 15/15/8 18/16/9 17/17/9
f 17/17/9 20/18/10 19/19/10
f 19/19/10 22/20/11 21/21/11
f 21/21/11 24/22/12 23/23/12
f 24/22/12 25/24/13 23/23/12
f 25/24/13 28/25/14 27/26/14
f 28/25/14 29/27/15 27/26/14
f 22/28/16 14/29/16 6/30/16
f 30/31/15 31/32/17 29/27/15
f 32/33/17 1/34/1 31/32/17
f 15/35/18 23/36/18 31/37/18
f 33/38/19 36/39/20 35/40/20
f 35/40/20 38/41/21 37/42/21
f 37/42/21 40/43/22 39/44/22
f 39/44/22 42/45/23 41/46/23
f 42/45/23 43/47/24 41/46/23
f 44/48/24 45/49/25 43/47/24
f 46/50/25 47/51/26 45/49/25
f 48/52/26 49/53/27 47/51/26
f 49/53/27 52/54/28 51/55/28
f 51/55/28 54/56/29 53/57/29
f 53/57/29 56/58/30 55/59/30
f 55/59/30 58/60/31 57/61/31
f 58/60/31 59/62/32 57/61/31
f 60/63/32 61/64/33 59/62/32
f 38/65/34 44/66/35 40/67/35
f 62/68/33 63/69/36 61/64/33
f 64/70/36 33/71/19 63/69/36
f 59/72/37 61/73/38 55/74/39
f 66/75/40 67/76/41 65/77/40
f 68/78/41 69/79/42 67/76/41
f 70/80/42 71/81/43 69/79/42
f 72/82/43 73/83/44 71/81/43
f 73/83/44 76/84/45 75/85/45
f 75/85/45 78/86/46 77/87/46
f 78/86/46 79/88/47 77/87/46
f 79/88/47 82/89/48 81/90/48
f 81/90/48 84/91/49 83/92/49
f 83/92/49 86/93/50 85/94/50
f 86/93/50 87/95/51 85/94/50
f 88/96/51 89/97/52 87/95/51
f 90/98/52 91/99/53 89/97/52
f 92/100/53 93/101/54 91/99/53
f 86/102/18 78/103/18 70/104/18
f 94/105/54 95/106/55 93/101/54
f 96/107/55 65/108/40 95/106/55
f 79/109/16 87/110/16 95/111/16
f 97/112/56 100/113/57 99/114/57
f 99/114/57 102/115/58 101/116/58
f 101/116/58 104/117/59 103/118/59
f 103/118/59 106/119/60 105/120/60
f 106/119/60 107/121/61 105/120/60
f 108/122/61 109/123/62 107/121/61
f 110/124/62 111/125/63 109/123/62
f 112/126/63 113/127/64 111/125/63
f 113/127/64 116/128/65 115/129/65
f 115/129/65 118/130/66 117/131/66
f 117/131/66 120/132/67 119/133/67
f 119/133/67 122/134/68 121/135/68
f 122/134/68 123/136/69 121/135/68
f 124/137/69 125/138/70 123/136/69
f 102/139/38 108/140/37 104/141/37
f 126/142/70 127/143/71 125/138/70
f 128/144/71 97/145/56 127/143/71
f 123/146/72 125/147/35 119/148/35
f 2/1/1 4/4/2 3/2/2
f 4/4/2 6/6/3 5/5/3
f 6/6/3 8/8/4 7/7/4
f 8/8/4 10/10/5 9/9/5
f 10/10/5 12/149/6 11/11/6
f 11/11/6 12/149/6 14/12/7
f 13/13/7 14/12/7 16/14/8
f 15/15/8 16/14/8 18/16/9
f 17/17/9 18/16/9 20/18/10
f 19/19/10 20/18/10 22/20/11
f 21/21/11 22/20/11 24/22/12
f 24/22/12 26/150/13 25/24/13
f 25/24/13 26/150/13 28/25/14
f 28/25/14 30/31/15 29/27/15
f 6/30/16 4/151/73 2/152/16
f 2/152/16 32/153/16 6/30/16
f 32/153/16 30/154/16 6/30/16
f 30/154/16 28/155/74 26/156/16
f 26/156/16 24/157/16 22/28/16
f 22/28/16 20/158/16 18/159/16
f 18/159/16 16/160/16 22/28/16
f 16/160/16 14/29/16 22/28/16
f 14/29/16 12/161/74 10/162/16
f 10/162/16 8/163/75 6/30/16
f 30/154/16 26/156/16 22/28/16
f 14/29/16 10/162/16 6/30/16
f 6/30/16 30/154/16 22/28/16
f 30/31/15 32/33/17 31/32/17
f 32/33/17 2/164/1 1/34/1
f 31/37/18 1/165/76 3/166/18
f 3/166/18 5/167/77 31/37/18
f 5/167/77 7/168/18 31/37/18
f 7/168/18 9/169/18 11/170/18
f 11/170/18 13/171/18 7/168/18
f 13/171/18 15/35/18 7/168/18
f 15/35/18 17/172/78 19/173/77
f 19/173/77 21/174/79 15/35/18
f 21/174/79 23/36/18 15/35/18
f 23/36/18 25/175/18 27/176/18
f 27/176/18 29/177/18 23/36/18
f 29/177/18 31/37/18 23/36/18
f 31/37/18 7/168/18 15/35/18
f 33/38/19 34/178/19 36/39/20
f 35/40/20 36/39/20 38/41/21
f 37/42/21 38/41/21 40/43/22
f 39/44/22 40/43/22 42/45/23
f 42/45/23 44/48/24 43/47/24
f 44/48/24 46/50/25 45/49/25
f 46/50/25 48/52/26 47/51/26
f 48/52/26 50/179/27 49/53/27
f 49/53/27 50/179/27 52/54/28
f 51/55/28 52/54/28 54/56/29
f 53/57/29 54/56/29 56/58/30
f 55/59/30 56/58/30 58/60/31
f 58/60/31 60/63/32 59/62/32
f 60/63/32 62/68/33 61/64/33
f 38/65/34 36/180/34 48/181/72
f 36/180/34 34/182/34 50/183/72
f 34/182/34 64/184/34 52/185/72
f 64/184/34 62/186/35 54/187/72
f 62/186/35 60/188/35 54/187/72
f 60/188/35 58/189/35 56/190/35
f 54/187/72 60/188/35 56/190/35
f 54/187/72 52/185/72 64/184/34
f 52/185/72 50/183/72 34/182/34
f 50/183/72 48/181/72 36/180/34
f 48/181/72 46/191/72 38/65/34
f 46/191/72 44/66/35 38/65/34
f 44/66/35 42/192/35 40/67/35
f 62/68/33 64/70/36 63/69/36
f 64/70/36 34/193/19 33/71/19
f 63/194/37 33/195/37 49/196/37
f 33/195/37 35/197/37 47/198/37
f 35/197/37 37/199/37 47/198/37
f 37/199/37 39/200/38 45/201/39
f 47/198/37 37/199/37 45/201/39
f 39/200/38 41/202/37 43/203/37
f 43/203/37 45/201/39 39/200/38
f 47/198/37 49/196/37 33/195/37
f 49/196/37 51/204/37 63/194/37
f 51/204/37 53/205/37 63/194/37
f 53/205/37 55/74/39 61/73/38
f 63/194/37 53/205/37 61/73/38
f 55/74/39 57/206/37 59/72/37
f 66/75/40 68/78/41 67/76/41
f 68/78/41 70/80/42 69/79/42
f 70/80/42 72/82/43 71/81/43
f 72/82/43 74/207/44 73/83/44
f 73/83/44 74/207/44 76/84/45
f 75/85/45 76/84/45 78/86/46
f 78/86/46 80/208/47 79/88/47
f 79/88/47 80/208/47 82/89/48
f 81/90/48 82/89/48 84/91/49
f 83/92/49 84/91/49 86/93/50
f 86/93/50 88/96/51 87/95/51
f 88/96/51 90/98/52 89/97/52
f 90/98/52 92/100/53 91/99/53
f 92/100/53 94/105/54 93/101/54
f 70/104/18 68/209/18 94/210/18
f 68/209/18 66/211/18 94/210/18
f 66/211/18 96/212/18 94/210/18
f 94/210/18 92/213/79 90/214/18
f 90/214/18 88/215/18 86/102/18
f 86/102/18 84/216/77 78/103/18
f 84/216/77 82/217/76 78/103/18
f 82/217/76 80/218/80 78/103/18
f 78/103/18 76/219/79 74/220/18
f 74/220/18 72/221/77 70/104/18
f 94/210/18 90/214/18 86/102/18
f 78/103/18 74/220/18 70/104/18
f 70/104/18 94/210/18 86/102/18
f 94/105/54 96/107/55 95/106/55
f 96/107/55 66/222/40 65/108/40
f 95/111/16 65/223/75 71/224/16
f 65/223/75 67/225/74 71/224/16
f 67/225/74 69/226/16 71/224/16
f 71/224/16 73/227/16 75/228/16
f 75/228/16 77/229/16 71/224/16
f 77/229/16 79/109/16 71/224/16
f 79/109/16 81/230/81 83/231/74
f 83/231/74 85/232/16 79/109/16
f 85/232/16 87/110/16 79/109/16
f 87/110/16 89/233/16 91/234/16
f 91/234/16 93/235/16 87/110/16
f 93/235/16 95/111/16 87/110/16
f 95/111/16 71/224/16 79/109/16
f 97/112/56 98/236/56 100/113/57
f 99/114/57 100/113/57 102/115/58
f 101/116/58 102/115/58 104/117/59
f 103/118/59 104/117/59 106/119/60
f 106/119/60 108/122/61 107/121/61
f 108/122/61 110/124/62 109/123/62
f 110/124/62 112/126/63 111/125/63
f 112/126/63 114/237/64 113/127/64
f 113/127/64 114/237/64 116/128/65
f 115/129/65 116/128/65 118/130/66
f 117/131/66 118/130/66 120/132/67
f 119/133/67 120/132/67 122/134/68
f 122/134/68 124/137/69 123/136/69
f 124/137/69 126/142/70 125/138/70
f 102/139/38 100/238/38 112/239/39
f 100/238/38 98/240/38 114/241/39
f 98/240/38 128/242/38 116/243/39
f 128/242/38 126/244/37 118/245/39
f 126/244/37 124/246/37 120/247/37
f 124/246/37 122/248/82 120/247/37
f 120/247/37 118/245/39 126/244/37
f 118/245/39 116/243/39 128/242/38
f 116/243/39 114/241/39 98/240/38
f 114/241/39 112/239/39 100/238/38
f 112/239/39 110/249/39 102/139/38
f 110/249/39 108/140/37 102/139/38
f 108/140/37 106/250/83 104/141/37
f 126/142/70 128/144/71 127/143/71
f 128/144/71 98/251/56 97/145/56
f 127/252/35 97/253/35 113/254/35
f 97/253/35 99/255/35 111/256/35
f 99/255/35 101/257/72 111/256/35
f 101/257/72 103/258/35 109/259/35
f 111/256/35 101/257/72 109/259/35
f 103/258/35 105/260/84 107/261/35
f 107/261/35 109/259/35 103/258/35
f 111/256/35 113/254/35 97/253/35
f 113/254/35 115/262/35 127/252/35
f 115/262/35 117/263/34 127/252/35
f 117/263/34 119/148/35 125/147/35
f 127/252/35 117/263/34 125/147/35
f 119/148/35 121/264/85 123/146/72
