# Blender v3.4.1 OBJ File: 'decoratives_and_entities.blend'
# www.blender.org
o Lilac_Flower_Icosphere.006
v 0.114296 0.133309 0.083040
v -0.043656 0.133309 0.134362
v -0.141277 0.133309 0.000000
v -0.043656 0.133309 -0.134362
v 0.114296 0.133309 -0.083040
v 0.043656 0.352585 0.134362
v -0.114296 0.352585 0.083040
v -0.114296 0.352585 -0.083040
v 0.043656 0.352585 -0.134362
v 0.141277 0.352584 0.000000
v 0.000000 0.646767 0.000000
v -0.025660 0.069585 0.078976
v 0.067181 0.069585 0.048809
v 0.041521 0.120907 0.127786
v 0.134362 0.120907 0.000000
v 0.067181 0.069585 -0.048809
v -0.083040 0.069585 0.000000
v -0.108701 0.120907 0.078976
v -0.025660 0.069585 -0.078976
v -0.108701 0.120907 -0.078976
v 0.041521 0.120907 -0.127786
v 0.150222 0.203948 0.048809
v 0.150222 0.203948 -0.048809
v 0.000000 0.203948 0.157953
v 0.092842 0.203948 0.127786
v -0.150222 0.203948 0.048809
v -0.092842 0.203948 0.127786
v -0.092842 0.203948 -0.127786
v -0.150222 0.203948 -0.048809
v 0.092842 0.203948 -0.127786
v 0.000000 0.203948 -0.157953
v 0.108701 0.364987 0.078976
v -0.041521 0.364987 0.127786
v -0.134362 0.364987 0.000000
v -0.041521 0.364987 -0.127786
v 0.108701 0.364987 -0.078976
v 0.025660 0.547980 0.078976
v 0.083040 0.547980 0.000000
v -0.067181 0.547980 0.048809
v -0.067181 0.547980 -0.048809
v 0.025660 0.547980 -0.078976
vt 0.272728 0.157461
vt 0.318182 0.078731
vt 0.363637 0.157461
vt 0.318182 0.236191
vt 0.090910 0.157461
vt 0.181819 0.157461
vt 0.136365 0.236191
vt 0.818182 0.157461
vt 0.909091 0.157461
vt 0.863636 0.236191
vt 0.636364 0.157461
vt 0.727273 0.157461
vt 0.681818 0.236191
vt 0.454546 0.157461
vt 0.545455 0.157461
vt 0.500000 0.236191
vt 0.772727 0.236191
vt 0.590909 0.236191
vt 0.409092 0.236191
vt 0.181819 0.314921
vt 0.272728 0.314921
vt 0.227273 0.393651
vt 0.727273 0.314921
vt 0.818182 0.314921
vt 0.772727 0.393651
vt 0.363637 0.314921
vt 0.454546 0.314921
vt 0.409092 0.393651
vt 0.500000 0.393651
vt 0.454546 0.472382
vt 0.545455 0.314921
vt 0.590909 0.393651
vt 0.636364 0.314921
vt 0.681818 0.393651
vt 0.863636 0.393651
vt 0.818182 0.472382
vt 0.909091 0.314921
vt 0.045455 0.393651
vt 0.136365 0.393651
vt 0.090910 0.472382
vt 0.090910 0.314921
vt 0.318182 0.393651
vt 0.272728 0.472382
vt 0.045455 0.236191
vt 0.000000 0.314921
vt 0.227273 0.236191
vt 0.954545 0.236191
vt 1.000000 0.157461
vt 0.500000 0.078731
vt 0.590909 0.078731
vt 0.681818 0.078731
vt 0.772727 0.078731
vt 0.863636 0.078731
vt 0.954545 0.078731
vt 0.409092 0.078731
vt 0.136365 0.078731
vt 0.227273 0.078731
vn 0.7002 -0.6617 0.2680
vn 0.9050 -0.3304 0.2680
vn 0.0247 -0.3304 0.9435
vn -0.8897 -0.3304 0.3151
vn -0.5746 -0.3304 -0.7488
vn 0.5346 -0.3304 -0.7779
vn -0.9921 -0.1256 0.0000
vn -0.3066 -0.1256 -0.9435
vn 0.8026 -0.1256 -0.5831
vn 0.5940 0.2696 0.7580
vn -0.9261 0.2696 -0.2640
vn 0.9044 0.2696 -0.3307
vn 0.6690 0.5623 -0.4860
vn 0.7595 0.3446 -0.5518
vn 0.5940 0.2696 -0.7580
vn -0.2901 0.3446 -0.8928
vn -0.5373 0.2696 -0.7992
vn -0.8269 0.5623 0.0000
vn -0.9387 0.3446 0.0000
vn -0.9261 0.2696 0.2640
vn -0.2555 0.5623 0.7864
vn -0.2901 0.3446 0.8928
vn -0.0351 0.2696 0.9623
vn 0.6690 0.5623 0.4860
vn 0.9044 0.2696 0.3307
vn 0.9200 0.1712 -0.3526
vn 0.6196 0.1712 -0.7660
vn -0.0511 0.1712 -0.9839
vn -0.3075 0.0980 -0.9465
vn -0.9515 0.1712 -0.2555
vn -0.9515 0.1712 0.2555
vn -0.5370 0.1712 0.8260
vn -0.3075 0.0980 0.9465
vn 0.6196 0.1712 0.7660
vn 0.8051 0.0980 0.5850
vn 0.9200 0.1712 0.3526
vn 0.3085 0.0601 -0.9493
vn 0.3035 -0.1876 -0.9342
vn 0.0247 -0.3304 -0.9435
vn -0.8076 0.0601 -0.5867
vn -0.7947 -0.1876 -0.5773
vn -0.8897 -0.3304 -0.3151
vn -0.8076 0.0601 0.5867
vn -0.7947 -0.1876 0.5773
vn -0.5746 -0.3304 0.7488
vn 0.3085 0.0601 0.9493
vn 0.5346 -0.3304 0.7779
vn 0.9982 0.0601 0.0000
vn 0.9822 -0.1876 0.0000
vn 0.9050 -0.3304 -0.2680
vn 0.4713 -0.6617 -0.5831
vn -0.0385 -0.6617 -0.7488
vn -0.4911 -0.7947 -0.3568
vn -0.7240 -0.6617 -0.1947
vn -0.4911 -0.7947 0.3568
vn -0.4089 -0.6617 0.6284
vn 0.7002 -0.6617 -0.2680
vn -0.0385 -0.6617 0.7488
vn 0.1876 -0.7947 0.5773
vn 0.4713 -0.6617 0.5831
s off
f 1/1/1 13/2/1 15/3/1
f 1/1/2 15/3/2 22/4/2
f 2/5/3 14/6/3 24/7/3
f 3/8/4 18/9/4 26/10/4
f 4/11/5 20/12/5 28/13/5
f 5/14/6 21/15/6 30/16/6
f 3/8/7 26/10/7 29/17/7
f 4/11/8 28/13/8 31/18/8
f 5/14/9 30/16/9 23/19/9
f 6/20/10 32/21/10 37/22/10
f 8/23/11 34/24/11 40/25/11
f 10/26/12 36/27/12 38/28/12
f 38/28/13 41/29/13 11/30/13
f 38/28/14 36/27/14 41/29/14
f 36/27/15 9/31/15 41/29/15
f 41/32/16 35/33/16 40/34/16
f 35/33/17 8/23/17 40/34/17
f 40/25/18 39/35/18 11/36/18
f 40/25/19 34/24/19 39/35/19
f 34/24/20 7/37/20 39/35/20
f 39/38/21 37/39/21 11/40/21
f 39/38/22 33/41/22 37/39/22
f 33/41/23 6/20/23 37/39/23
f 37/22/24 38/42/24 11/43/24
f 32/21/25 10/26/25 38/42/25
f 23/19/26 36/27/26 10/26/26
f 30/16/27 9/31/27 36/27/27
f 31/18/28 35/33/28 9/31/28
f 31/18/29 28/13/29 35/33/29
f 29/17/30 34/24/30 8/23/30
f 26/10/31 7/37/31 34/24/31
f 27/44/32 33/41/32 7/45/32
f 27/44/33 24/7/33 33/41/33
f 25/46/34 32/21/34 6/20/34
f 25/46/35 22/4/35 32/21/35
f 22/4/36 10/26/36 32/21/36
f 30/16/37 31/18/37 9/31/37
f 30/16/38 21/15/38 31/18/38
f 21/15/39 4/11/39 31/18/39
f 28/13/40 29/17/40 8/23/40
f 28/13/41 20/12/41 29/17/41
f 20/12/42 3/8/42 29/17/42
f 26/10/43 27/47/43 7/37/43
f 26/10/44 18/9/44 27/47/44
f 18/9/45 2/48/45 27/47/45
f 24/7/46 25/46/46 6/20/46
f 14/6/47 1/1/47 25/46/47
f 22/4/48 23/19/48 10/26/48
f 22/4/49 15/3/49 23/19/49
f 15/3/50 5/14/50 23/19/50
f 16/49/51 21/15/51 5/14/51
f 19/50/52 4/11/52 21/15/52
f 19/51/53 17/52/53 20/12/53
f 17/52/54 3/8/54 20/12/54
f 17/53/55 12/54/55 18/9/55
f 12/54/56 2/48/56 18/9/56
f 15/3/57 16/55/57 5/14/57
f 12/56/58 14/6/58 2/5/58
f 12/56/59 13/57/59 14/6/59
f 13/57/60 1/1/60 14/6/60
