# Blender v3.4.1 OBJ File: 'bike.blend'
# www.blender.org
o ScooterDeck_Cube.001
v -0.093070 -0.116625 0.254439
v -0.093070 -0.107387 0.254439
v -0.093070 -0.116625 -0.444538
v -0.093070 -0.107387 -0.444538
v 0.093070 -0.116625 0.254439
v 0.093070 -0.107387 0.254439
v 0.093070 -0.116625 -0.444538
v 0.093070 -0.107387 -0.444538
v -0.062295 -0.116625 0.334899
v -0.062295 -0.107387 0.334899
v 0.062295 -0.107387 0.334899
v 0.062295 -0.116625 0.334899
v -0.039487 -0.116625 0.356738
v -0.039487 -0.107387 0.356738
v 0.039487 -0.107387 0.356738
v 0.039487 -0.116625 0.356738
v -0.083674 -0.127641 -0.533147
v -0.083674 -0.127641 0.245459
v 0.083674 -0.127641 -0.533147
v 0.083674 -0.127641 0.245459
v -0.056005 -0.127641 0.317796
v 0.056005 -0.127641 0.317796
v -0.035500 -0.127641 0.337430
v 0.035500 -0.127641 0.337430
v -0.080710 -0.145264 -0.532262
v -0.080710 -0.145264 0.242626
v 0.080710 -0.145264 -0.532262
v 0.080710 -0.145264 0.242626
v -0.054021 -0.145264 0.312400
v 0.054021 -0.145264 0.312400
v -0.034243 -0.145264 0.331340
v 0.034243 -0.145264 0.331340
vt 0.625000 0.000000
vt 0.375000 0.250000
vt 0.375000 0.000000
vt 0.625000 0.250000
vt 0.375000 0.500000
vt 0.625000 0.500000
vt 0.375000 0.750000
vt 0.625000 0.000000
vt 0.375000 0.750000
vt 0.375000 0.750000
vt 0.375000 0.750000
vt 0.875000 0.500000
vt 0.625000 0.750000
vt 0.375000 0.250000
vt 0.375000 0.000000
vt 0.375000 0.000000
vt 0.375000 0.000000
vt 0.875000 0.750000
vt 0.625000 0.750000
vt 0.625000 0.750000
vt 0.375000 1.000000
vt 0.375000 0.750000
vt 0.625000 0.000000
vt 0.875000 0.750000
vt 0.375000 0.500000
vt 0.375000 0.750000
vt 0.375000 0.500000
vt 0.375000 0.750000
vt 0.375000 0.750000
vt 0.375000 0.750000
vt 0.375000 1.000000
vt 0.375000 0.000000
vt 0.375000 0.000000
vt 0.125000 0.750000
vt 0.125000 0.500000
vt 0.125000 0.750000
vt 0.125000 0.750000
vt 0.375000 0.000000
vt 0.375000 0.000000
vt 0.375000 0.000000
vt 0.375000 0.250000
vt 0.625000 1.000000
vt 0.875000 0.750000
vt 0.375000 1.000000
vn -1.0000 0.0000 0.0000
vn 0.0000 0.0000 -1.0000
vn 1.0000 0.0000 0.0000
vn -0.9340 0.0000 0.3573
vn 0.3808 -0.8348 0.3976
vn 0.0000 1.0000 0.0000
vn 0.0000 0.9924 -0.1234
vn -0.3808 -0.8348 0.3976
vn 0.9340 0.0000 0.3573
vn 0.0000 0.0000 1.0000
vn -0.6916 0.0000 0.7223
vn 0.6916 0.0000 0.7223
vn 0.9861 -0.1659 0.0000
vn 0.9132 -0.2097 0.3493
vn 0.6626 -0.2864 0.6920
vn 0.0000 -0.8686 0.4955
vn -0.7608 -0.6490 0.0000
vn 0.6321 -0.7363 0.2418
vn 0.7608 -0.6490 0.0000
vn -0.6321 -0.7363 0.2418
vn 0.0000 -1.0000 0.0000
vn -0.9861 -0.1659 0.0000
vn -0.6626 -0.2864 0.6920
vn 0.0000 -0.3266 0.9451
vn -0.9132 -0.2097 0.3493
vn 0.0000 -0.0501 -0.9987
s off
f 2/1/1 3/2/1 1/3/1
f 4/4/2 7/5/2 3/2/2
f 8/6/3 5/7/3 7/5/3
f 1/3/4 10/8/4 2/1/4
f 12/9/5 24/10/5 22/11/5
f 4/12/6 6/13/6 8/6/6
f 7/5/7 17/14/7 3/2/7
f 9/15/8 23/16/8 13/17/8
f 2/18/6 11/19/6 6/13/6
f 6/13/9 12/9/9 5/7/9
f 15/20/10 13/21/10 16/22/10
f 9/15/11 14/23/11 10/8/11
f 10/24/6 15/20/6 11/19/6
f 11/19/12 16/22/12 12/9/12
f 19/25/13 28/26/13 27/27/13
f 20/28/14 30/29/14 28/26/14
f 22/11/15 32/30/15 30/29/15
f 16/22/16 23/31/16 24/10/16
f 3/2/17 18/32/17 1/3/17
f 5/7/18 22/11/18 20/28/18
f 7/5/19 20/28/19 19/25/19
f 1/3/20 21/33/20 9/15/20
f 27/27/21 26/34/21 25/35/21
f 30/29/21 31/36/21 29/37/21
f 28/26/21 29/37/21 26/34/21
f 17/14/22 26/38/22 18/32/22
f 21/33/23 31/39/23 23/16/23
f 23/31/24 32/30/24 24/10/24
f 18/32/25 29/40/25 21/33/25
f 19/25/26 25/41/26 17/14/26
f 2/1/1 4/4/1 3/2/1
f 4/4/2 8/6/2 7/5/2
f 8/6/3 6/13/3 5/7/3
f 1/3/4 9/15/4 10/8/4
f 12/9/5 16/22/5 24/10/5
f 4/12/6 2/18/6 6/13/6
f 7/5/7 19/25/7 17/14/7
f 9/15/8 21/33/8 23/16/8
f 2/18/6 10/24/6 11/19/6
f 6/13/9 11/19/9 12/9/9
f 15/20/10 14/42/10 13/21/10
f 9/15/11 13/17/11 14/23/11
f 10/24/6 14/43/6 15/20/6
f 11/19/12 15/20/12 16/22/12
f 19/25/13 20/28/13 28/26/13
f 20/28/14 22/11/14 30/29/14
f 22/11/15 24/10/15 32/30/15
f 16/22/16 13/21/16 23/31/16
f 3/2/17 17/14/17 18/32/17
f 5/7/18 12/9/18 22/11/18
f 7/5/19 5/7/19 20/28/19
f 1/3/20 18/32/20 21/33/20
f 27/27/21 28/26/21 26/34/21
f 30/29/21 32/30/21 31/36/21
f 28/26/21 30/29/21 29/37/21
f 17/14/22 25/41/22 26/38/22
f 21/33/23 29/40/23 31/39/23
f 23/31/24 31/44/24 32/30/24
f 18/32/25 26/38/25 29/40/25
f 19/25/26 27/27/26 25/41/26
