# Blender v3.4.1 OBJ File: 'bike.blend'
# www.blender.org
o ScooterFold_Cylinder.003
v 0.000000 -0.020974 0.457844
v 0.000000 0.135017 0.437308
v 0.013510 -0.020624 0.460509
v 0.013510 0.135368 0.439972
v 0.024964 -0.019625 0.468096
v 0.024964 0.136367 0.447560
v 0.032617 -0.018130 0.479452
v 0.032617 0.137862 0.458915
v 0.035304 -0.016366 0.492847
v 0.035304 0.139625 0.472310
v 0.032617 -0.014603 0.506241
v 0.032617 0.141389 0.485705
v 0.024964 -0.013108 0.517597
v 0.024964 0.142884 0.497060
v 0.013510 -0.012109 0.525184
v 0.013510 0.143883 0.504648
v 0.000000 -0.011758 0.527849
v 0.000000 0.144234 0.507312
v -0.013510 -0.012109 0.525184
v -0.013510 0.143883 0.504648
v -0.024964 -0.013108 0.517597
v -0.024964 0.142884 0.497060
v -0.032617 -0.014603 0.506241
v -0.032617 0.141389 0.485705
v -0.035304 -0.016366 0.492847
v -0.035304 0.139625 0.472310
v -0.032617 -0.018130 0.479452
v -0.032617 0.137862 0.458915
v -0.024964 -0.019625 0.468096
v -0.024964 0.136367 0.447560
v -0.013510 -0.020624 0.460509
v -0.013510 0.135368 0.439972
v 0.012611 0.147549 0.440558
v 0.000000 0.147221 0.438071
v 0.023302 0.148481 0.447641
v 0.030446 0.149877 0.458241
v 0.032954 0.151523 0.470744
v 0.030446 0.153169 0.483247
v 0.023302 0.154564 0.493847
v 0.012611 0.155497 0.500929
v 0.000000 0.155824 0.503416
v -0.012611 0.155497 0.500929
v -0.023302 0.154564 0.493847
v -0.030446 0.153169 0.483247
v -0.032954 0.151523 0.470744
v -0.030446 0.149877 0.458241
v -0.023302 0.148481 0.447641
v -0.012611 0.147549 0.440558
v -0.019657 0.084501 0.493217
v -0.013309 0.080060 0.497753
v -0.017797 0.081361 0.496424
v -0.013309 0.119032 0.457945
v -0.019657 0.114592 0.462481
v -0.017797 0.117732 0.459274
v -0.013309 -0.114656 0.307120
v -0.019657 -0.110216 0.302584
v -0.017797 -0.113356 0.305791
v -0.019657 -0.123754 0.232879
v -0.013309 -0.119313 0.228343
v -0.017797 -0.120614 0.229672
v 0.013309 0.080060 0.497753
v 0.019657 0.084501 0.493217
v 0.017797 0.081361 0.496424
v 0.019657 0.114592 0.462481
v 0.013309 0.119032 0.457945
v 0.017797 0.117732 0.459274
v 0.019657 -0.110216 0.302584
v 0.013309 -0.114656 0.307120
v 0.017797 -0.113356 0.305791
v 0.013309 -0.119313 0.228343
v 0.019657 -0.123754 0.232879
v 0.017797 -0.120614 0.229672
vt 1.000000 0.500000
vt 0.937500 1.000000
vt 0.937500 0.500000
vt 0.875000 0.500000
vt 0.812500 1.000000
vt 0.812500 0.500000
vt 0.750000 0.500000
vt 0.750000 1.000000
vt 0.687500 0.500000
vt 0.687500 1.000000
vt 0.625000 0.500000
vt 0.625000 1.000000
vt 0.562500 0.500000
vt 0.562500 1.000000
vt 0.500000 0.500000
vt 0.500000 1.000000
vt 0.437500 0.500000
vt 0.437500 1.000000
vt 0.375000 0.500000
vt 0.375000 1.000000
vt 0.312500 0.500000
vt 0.312500 1.000000
vt 0.250000 0.500000
vt 0.250000 1.000000
vt 0.187500 0.500000
vt 0.187500 1.000000
vt 0.125000 0.500000
vt 0.750000 1.000000
vt 0.687500 1.000000
vt 0.125000 1.000000
vt 0.062500 0.500000
vt 0.062500 1.000000
vt 0.000000 0.500000
vt 0.080294 0.419706
vt 0.080294 0.080294
vt 0.419706 0.080294
vt 0.375000 1.000000
vt 0.062500 1.000000
vt 0.875000 1.000000
vt 0.812500 1.000000
vt 0.500000 1.000000
vt 0.187500 1.000000
vt 1.000000 1.000000
vt 0.937500 1.000000
vt 0.625000 1.000000
vt 0.312500 1.000000
vt 0.000000 1.000000
vt 0.000000 1.000000
vt 0.437500 1.000000
vt 0.125000 1.000000
vt 0.875000 1.000000
vt 0.562500 1.000000
vt 0.250000 1.000000
vt 0.596513 0.750000
vt 0.625000 0.790367
vt 0.596513 1.000000
vt 0.403487 0.500000
vt 0.403487 0.750000
vt 0.834633 0.500000
vt 0.665367 0.750000
vt 0.665367 0.500000
vt 0.596513 0.000000
vt 0.403487 0.250000
vt 0.403487 0.000000
vt 0.596513 0.250000
vt 0.625000 0.290367
vt 0.596513 0.500000
vt 0.165367 0.750000
vt 0.125000 0.500000
vt 0.165367 0.500000
vt 0.375000 0.000000
vt 0.375000 0.250000
vt 0.875000 0.750000
vt 0.834633 0.750000
vt 0.625000 0.250000
vt 0.625000 0.000000
vt 0.334633 0.750000
vt 0.375000 0.500000
vt 0.375000 0.750000
vt 0.625000 0.750000
vt 0.625000 0.500000
vt 0.334633 0.500000
vt 1.000000 1.000000
vt 0.419706 0.419706
vt 0.341844 0.471731
vt 0.250000 0.490000
vt 0.158156 0.471731
vt 0.028269 0.341844
vt 0.010000 0.250000
vt 0.028269 0.158156
vt 0.158156 0.028269
vt 0.250000 0.010000
vt 0.341844 0.028269
vt 0.471731 0.158156
vt 0.490000 0.250000
vt 0.471731 0.341844
vt 0.375000 0.959633
vt 0.375000 0.790367
vt 0.383344 0.761823
vt 0.403487 1.000000
vt 0.616656 0.761823
vt 0.625000 0.959633
vt 0.616656 0.988177
vt 0.383344 0.988177
vt 0.375000 0.459633
vt 0.375000 0.290367
vt 0.383344 0.261823
vt 0.616656 0.261823
vt 0.625000 0.459633
vt 0.616656 0.488177
vt 0.383344 0.488177
vt 0.125000 0.750000
vt 0.875000 0.500000
vn -0.0000 -0.1305 -0.9914
vn 0.3809 -0.0254 -0.9243
vn 0.3827 -0.1206 -0.9160
vn 0.7071 -0.0923 -0.7011
vn 0.9197 0.0449 -0.3901
vn 0.9239 -0.0500 -0.3794
vn 1.0000 0.0000 0.0000
vn 0.9954 0.0946 -0.0125
vn 0.9239 0.0500 0.3794
vn 0.9197 0.1443 0.3652
vn 0.7071 0.0923 0.7011
vn 0.7039 0.1865 0.6854
vn 0.3827 0.1206 0.9160
vn 0.3809 0.2146 0.8993
vn -0.0000 0.1305 0.9914
vn -0.0000 0.2245 0.9745
vn -0.3827 0.1206 0.9160
vn -0.3809 0.2146 0.8993
vn -0.7071 0.0923 0.7011
vn -0.7039 0.1865 0.6854
vn -0.9239 0.0500 0.3794
vn -0.9197 0.1443 0.3652
vn -1.0000 0.0000 0.0000
vn -0.9954 0.0946 -0.0125
vn -0.9239 -0.0500 -0.3794
vn -0.9197 0.0449 -0.3901
vn -0.7071 -0.0923 -0.7011
vn 0.9814 0.1905 -0.0251
vn 0.9067 0.2395 0.3473
vn -0.7039 0.0027 -0.7103
vn -0.3827 -0.1206 -0.9160
vn -0.3809 -0.0254 -0.9242
vn 0.0000 0.9914 -0.1305
vn -0.6939 0.2811 0.6629
vn -0.3756 0.0722 -0.9240
vn 0.6939 0.1000 -0.7131
vn 0.9067 0.1415 -0.3974
vn -0.0000 0.3186 0.9479
vn -0.9067 0.1415 -0.3974
vn -0.0000 0.0624 -0.9980
vn 0.3756 0.0722 -0.9240
vn 0.6939 0.2811 0.6629
vn -0.9067 0.2395 0.3473
vn -0.0000 -0.0353 -0.9994
vn -0.3756 0.3089 0.8738
vn -0.6939 0.1000 -0.7131
vn 0.7039 0.0027 -0.7103
vn 0.3756 0.3089 0.8738
vn -0.9814 0.1905 -0.0251
vn -0.0000 -0.9914 0.1305
vn 0.0000 0.7146 0.6996
vn 0.9888 -0.1043 0.1065
vn 0.9806 0.1360 -0.1412
vn 0.9808 -0.1365 0.1394
vn -0.1953 0.6804 -0.7063
vn 0.1949 0.6805 -0.7064
vn 0.1953 0.6804 -0.7063
vn -0.9806 0.1360 -0.1412
vn -0.9888 -0.1043 0.1065
vn -0.9808 -0.1365 0.1394
vn 0.0000 -0.7146 -0.6996
vn -0.1951 -0.6861 0.7008
vn -0.3827 -0.6463 0.6602
vn -0.9239 -0.2677 0.2735
vn -0.9239 -0.2677 0.2734
vn -0.3827 0.6410 -0.6654
vn -0.1949 0.6805 -0.7064
vn -0.9239 0.2655 -0.2756
vn 0.1951 -0.6861 0.7008
vn 0.3827 -0.6463 0.6602
vn 0.9239 -0.2677 0.2735
vn 0.3827 0.6410 -0.6654
vn 0.9239 0.2655 -0.2756
vn 0.9602 0.1938 -0.2012
vn -0.9602 0.1938 -0.2012
vn -0.0000 -0.9817 0.1907
vn 0.9239 -0.2677 0.2734
s 1
f 1/1/1 4/2/2 3/3/3
f 4/2/2 5/4/4 3/3/3
f 5/4/4 8/5/5 7/6/6
f 8/5/5 9/7/7 7/6/6
f 10/8/8 11/9/9 9/7/7
f 12/10/10 13/11/11 11/9/9
f 14/12/12 15/13/13 13/11/11
f 16/14/14 17/15/15 15/13/13
f 18/16/16 19/17/17 17/15/15
f 20/18/18 21/19/19 19/17/17
f 22/20/20 23/21/21 21/19/19
f 24/22/22 25/23/23 23/21/21
f 26/24/24 27/25/25 25/23/23
f 28/26/26 29/27/27 27/25/25
f 12/10/10 37/28/28 38/29/29
f 30/30/30 31/31/31 29/27/27
f 32/32/32 1/33/1 31/31/31
f 47/34/33 43/35/33 39/36/33
f 20/18/18 43/37/34 22/20/20
f 30/30/30 48/38/35 32/32/32
f 8/5/5 35/39/36 36/40/37
f 16/14/14 41/41/38 18/16/16
f 26/24/24 46/42/39 28/26/26
f 4/2/2 34/43/40 33/44/41
f 14/12/12 38/29/29 39/45/42
f 22/20/20 44/46/43 24/22/22
f 32/32/32 34/47/40 2/48/44
f 10/8/8 36/40/37 37/28/28
f 20/18/18 41/41/38 42/49/45
f 28/26/26 47/50/46 30/30/30
f 4/2/2 35/39/36 6/51/47
f 16/14/14 39/45/42 40/52/48
f 24/22/22 45/53/49 26/24/24
f 7/6/50 15/13/50 23/21/50
f 64/54/51 65/55/51 53/56/51
f 67/57/52 64/54/53 62/58/54
f 59/59/55 65/60/56 70/61/57
f 53/62/58 56/63/59 49/64/60
f 58/65/61 59/66/61 71/67/61
f 50/68/62 57/69/63 55/70/62
f 51/71/64 56/63/59 57/72/65
f 59/59/55 54/73/66 52/74/67
f 60/75/68 53/62/58 54/76/68
f 61/77/69 69/78/70 63/79/70
f 63/79/71 67/57/52 62/58/54
f 70/61/57 66/80/72 72/81/72
f 72/81/73 64/54/53 71/67/74
f 68/82/69 50/68/62 55/70/62
f 1/1/1 2/83/44 4/2/2
f 4/2/2 6/51/47 5/4/4
f 5/4/4 6/51/47 8/5/5
f 8/5/5 10/8/8 9/7/7
f 10/8/8 12/10/10 11/9/9
f 12/10/10 14/12/12 13/11/11
f 14/12/12 16/14/14 15/13/13
f 16/14/14 18/16/16 17/15/15
f 18/16/16 20/18/18 19/17/17
f 20/18/18 22/20/20 21/19/19
f 22/20/20 24/22/22 23/21/21
f 24/22/22 26/24/24 25/23/23
f 26/24/24 28/26/26 27/25/25
f 28/26/26 30/30/30 29/27/27
f 12/10/10 10/8/8 37/28/28
f 30/30/30 32/32/32 31/31/31
f 32/32/32 2/48/44 1/33/1
f 35/84/33 33/85/33 34/86/33
f 34/86/33 48/87/33 35/84/33
f 48/87/33 47/34/33 35/84/33
f 47/34/33 46/88/33 43/35/33
f 46/88/33 45/89/33 43/35/33
f 45/89/33 44/90/33 43/35/33
f 43/35/33 42/91/33 41/92/33
f 41/92/33 40/93/33 39/36/33
f 39/36/33 38/94/33 37/95/33
f 37/95/33 36/96/33 39/36/33
f 36/96/33 35/84/33 39/36/33
f 43/35/33 41/92/33 39/36/33
f 35/84/33 47/34/33 39/36/33
f 20/18/18 42/49/45 43/37/34
f 30/30/30 47/50/46 48/38/35
f 8/5/5 6/51/47 35/39/36
f 16/14/14 40/52/48 41/41/38
f 26/24/24 45/53/49 46/42/39
f 4/2/2 2/83/44 34/43/40
f 14/12/12 12/10/10 38/29/29
f 22/20/20 43/37/34 44/46/43
f 32/32/32 48/38/35 34/47/40
f 10/8/8 8/5/5 36/40/37
f 20/18/18 18/16/16 41/41/38
f 28/26/26 46/42/39 47/50/46
f 4/2/2 33/44/41 35/39/36
f 16/14/14 14/12/12 39/45/42
f 24/22/22 44/46/43 45/53/49
f 31/31/50 1/1/50 7/6/50
f 1/1/50 3/3/50 7/6/50
f 3/3/50 5/4/50 7/6/50
f 7/6/50 9/7/50 11/9/50
f 11/9/50 13/11/50 15/13/50
f 15/13/50 17/15/50 19/17/50
f 19/17/50 21/19/50 23/21/50
f 23/21/50 25/23/50 27/25/50
f 27/25/50 29/27/50 23/21/50
f 29/27/50 31/31/50 23/21/50
f 7/6/50 11/9/50 15/13/50
f 15/13/50 19/17/50 23/21/50
f 31/31/50 7/6/50 23/21/50
f 50/97/51 61/98/51 62/58/51
f 61/98/51 63/99/51 62/58/51
f 62/58/51 64/54/51 49/100/51
f 50/97/51 62/58/51 49/100/51
f 64/54/51 66/101/51 65/55/51
f 65/55/51 52/102/51 53/56/51
f 52/102/51 54/103/51 53/56/51
f 53/56/51 49/100/51 64/54/51
f 49/100/51 51/104/51 50/97/51
f 67/57/52 71/67/74 64/54/53
f 59/59/55 52/74/67 65/60/56
f 53/62/58 58/65/75 56/63/59
f 68/105/61 55/106/61 56/63/61
f 55/106/61 57/107/61 56/63/61
f 56/63/76 58/65/76 67/57/76
f 68/105/61 56/63/61 67/57/61
f 58/65/61 60/108/61 59/66/61
f 59/66/61 70/109/61 71/67/61
f 70/109/61 72/110/61 71/67/61
f 71/67/76 67/57/76 58/65/76
f 67/57/61 69/111/61 68/105/61
f 50/68/62 51/112/63 57/69/63
f 51/71/64 49/64/60 56/63/59
f 59/59/55 60/113/66 54/73/66
f 60/75/68 58/65/75 53/62/58
f 61/77/69 68/82/69 69/78/70
f 63/79/71 69/78/77 67/57/52
f 70/61/57 65/60/56 66/80/72
f 72/81/73 66/80/73 64/54/53
f 68/82/69 61/77/69 50/68/62
