# Blender v3.4.1 OBJ File: 'bike.blend'
# www.blender.org
o ScooterGrips_Cylinder.014
v 0.126923 1.259972 0.399299
v 0.165000 1.259972 0.399299
v 0.126923 1.244691 0.402339
v 0.165000 1.244691 0.402339
v 0.126923 1.231737 0.410994
v 0.165000 1.231737 0.410994
v 0.126923 1.223081 0.423949
v 0.165000 1.223081 0.423949
v 0.126923 1.220041 0.439230
v 0.165000 1.220041 0.439230
v 0.126923 1.223081 0.454510
v 0.165000 1.223081 0.454510
v 0.126923 1.231737 0.467465
v 0.165000 1.231737 0.467465
v 0.126923 1.244691 0.476121
v 0.165000 1.244691 0.476121
v 0.126923 1.259972 0.479160
v 0.165000 1.259972 0.479160
v 0.126923 1.275253 0.476121
v 0.165000 1.275253 0.476121
v 0.126923 1.288207 0.467465
v 0.165000 1.288207 0.467465
v 0.126923 1.296863 0.454510
v 0.165000 1.296863 0.454510
v 0.126923 1.299902 0.439230
v 0.165000 1.299902 0.439230
v 0.126923 1.296863 0.423949
v 0.165000 1.296863 0.423949
v 0.126923 1.288207 0.410994
v 0.165000 1.288207 0.410994
v 0.126923 1.275253 0.402339
v 0.165000 1.275253 0.402339
v 0.166342 1.246581 0.406901
v 0.166342 1.259972 0.404237
v 0.166342 1.235228 0.414486
v 0.166342 1.227643 0.425838
v 0.166342 1.224979 0.439230
v 0.166342 1.227643 0.452621
v 0.166342 1.235228 0.463973
v 0.166342 1.246581 0.471559
v 0.166342 1.259972 0.474222
v 0.166342 1.273363 0.471559
v 0.166342 1.284715 0.463973
v 0.166342 1.292301 0.452621
v 0.166342 1.294965 0.439230
v 0.166342 1.292301 0.425838
v 0.166342 1.284715 0.414486
v 0.166342 1.273363 0.406901
v 0.125536 1.259972 0.404526
v 0.125536 1.246691 0.407167
v 0.125536 1.235433 0.414690
v 0.125536 1.227910 0.425949
v 0.125536 1.225268 0.439230
v 0.125536 1.227910 0.452510
v 0.125536 1.235433 0.463769
v 0.125536 1.246691 0.471292
v 0.125536 1.259972 0.473934
v 0.125536 1.273252 0.471292
v 0.125536 1.284511 0.463769
v 0.125536 1.292034 0.452510
v 0.125536 1.294676 0.439230
v 0.125536 1.292034 0.425949
v 0.125536 1.284511 0.414690
v 0.125536 1.273252 0.407167
v 0.136067 1.259972 0.408483
v 0.360720 1.259972 0.408483
v 0.136067 1.248206 0.410823
v 0.360720 1.248206 0.410823
v 0.136067 1.238231 0.417488
v 0.360720 1.238231 0.417488
v 0.136067 1.231566 0.427463
v 0.360720 1.231566 0.427463
v 0.136067 1.229225 0.439230
v 0.360720 1.229225 0.439230
v 0.136067 1.231566 0.450996
v 0.360720 1.231566 0.450996
v 0.136067 1.238231 0.460971
v 0.360720 1.238231 0.460971
v 0.136067 1.248206 0.467636
v 0.360720 1.248206 0.467636
v 0.136067 1.259972 0.469976
v 0.360720 1.259972 0.469976
v 0.136067 1.271738 0.467636
v 0.360720 1.271738 0.467636
v 0.136067 1.281713 0.460971
v 0.360720 1.281713 0.460971
v 0.136067 1.288378 0.450996
v 0.360720 1.288378 0.450996
v 0.136067 1.290718 0.439230
v 0.360720 1.290718 0.439230
v 0.136067 1.288378 0.427463
v 0.360720 1.288378 0.427463
v 0.136067 1.281713 0.417488
v 0.360720 1.281713 0.417488
v 0.136067 1.271738 0.410823
v 0.360720 1.271738 0.410823
v 0.347524 1.259972 0.439230
v -0.126923 1.259972 0.399299
v -0.165000 1.259972 0.399299
v -0.126923 1.244691 0.402339
v -0.165000 1.244691 0.402339
v -0.126923 1.231737 0.410994
v -0.165000 1.231737 0.410994
v -0.126923 1.223081 0.423949
v -0.165000 1.223081 0.423949
v -0.126923 1.220041 0.439230
v -0.165000 1.220041 0.439230
v -0.126923 1.223081 0.454510
v -0.165000 1.223081 0.454510
v -0.126923 1.231737 0.467465
v -0.165000 1.231737 0.467465
v -0.126923 1.244691 0.476121
v -0.165000 1.244691 0.476121
v -0.126923 1.259972 0.479160
v -0.165000 1.259972 0.479160
v -0.126923 1.275253 0.476121
v -0.165000 1.275253 0.476121
v -0.126923 1.288207 0.467465
v -0.165000 1.288207 0.467465
v -0.126923 1.296863 0.454510
v -0.165000 1.296863 0.454510
v -0.126923 1.299902 0.439230
v -0.165000 1.299902 0.439230
v -0.126923 1.296863 0.423949
v -0.165000 1.296863 0.423949
v -0.126923 1.288207 0.410994
v -0.165000 1.288207 0.410994
v -0.126923 1.275253 0.402339
v -0.165000 1.275253 0.402339
v -0.166342 1.246581 0.406901
v -0.166342 1.259972 0.404237
v -0.166342 1.235228 0.414486
v -0.166342 1.227643 0.425838
v -0.166342 1.224979 0.439230
v -0.166342 1.227643 0.452621
v -0.166342 1.235228 0.463973
v -0.166342 1.246581 0.471559
v -0.166342 1.259972 0.474222
v -0.166342 1.273363 0.471559
v -0.166342 1.284715 0.463973
v -0.166342 1.292301 0.452621
v -0.166342 1.294965 0.439230
v -0.166342 1.292301 0.425838
v -0.166342 1.284715 0.414486
v -0.166342 1.273363 0.406901
v -0.125536 1.259972 0.404526
v -0.125536 1.246691 0.407167
v -0.125536 1.235433 0.414690
v -0.125536 1.227910 0.425949
v -0.125536 1.225268 0.439230
v -0.125536 1.227910 0.452510
v -0.125536 1.235433 0.463769
v -0.125536 1.246691 0.471292
v -0.125536 1.259972 0.473934
v -0.125536 1.273252 0.471292
v -0.125536 1.284511 0.463769
v -0.125536 1.292034 0.452510
v -0.125536 1.294676 0.439230
v -0.125536 1.292034 0.425949
v -0.125536 1.284511 0.414690
v -0.125536 1.273252 0.407167
v -0.136067 1.259972 0.408483
v -0.360720 1.259972 0.408483
v -0.136067 1.248206 0.410823
v -0.360720 1.248206 0.410823
v -0.136067 1.238231 0.417488
v -0.360720 1.238231 0.417488
v -0.136067 1.231566 0.427463
v -0.360720 1.231566 0.427463
v -0.136067 1.229225 0.439230
v -0.360720 1.229225 0.439230
v -0.136067 1.231566 0.450996
v -0.360720 1.231566 0.450996
v -0.136067 1.238231 0.460971
v -0.360720 1.238231 0.460971
v -0.136067 1.248206 0.467636
v -0.360720 1.248206 0.467636
v -0.136067 1.259972 0.469976
v -0.360720 1.259972 0.469976
v -0.136067 1.271738 0.467636
v -0.360720 1.271738 0.467636
v -0.136067 1.281713 0.460971
v -0.360720 1.281713 0.460971
v -0.136067 1.288378 0.450996
v -0.360720 1.288378 0.450996
v -0.136067 1.290718 0.439230
v -0.360720 1.290718 0.439230
v -0.136067 1.288378 0.427463
v -0.360720 1.288378 0.427463
v -0.136067 1.281713 0.417488
v -0.360720 1.281713 0.417488
v -0.136067 1.271738 0.410823
v -0.360720 1.271738 0.410823
v -0.347524 1.259972 0.439230
vt 1.000000 1.000000
vt 0.937500 0.500000
vt 1.000000 0.500000
vt 0.937500 1.000000
vt 0.875000 0.500000
vt 0.875000 1.000000
vt 0.812500 0.500000
vt 0.812500 1.000000
vt 0.750000 0.500000
vt 0.750000 1.000000
vt 0.687500 0.500000
vt 0.687500 1.000000
vt 0.625000 0.500000
vt 0.625000 1.000000
vt 0.562500 0.500000
vt 0.562500 1.000000
vt 0.500000 0.500000
vt 0.500000 1.000000
vt 0.437500 0.500000
vt 0.437500 1.000000
vt 0.375000 0.500000
vt 0.375000 1.000000
vt 0.312500 0.500000
vt 0.312500 1.000000
vt 0.250000 0.500000
vt 0.250000 1.000000
vt 0.187500 0.500000
vt 0.187500 1.000000
vt 0.125000 0.500000
vt 0.937500 1.000000
vt 0.125000 1.000000
vt 0.062500 0.500000
vt 0.062500 1.000000
vt 0.000000 0.500000
vt 0.625000 0.500000
vt 0.687500 0.500000
vt 0.080294 0.080294
vt 0.419706 0.080294
vt 0.419706 0.419706
vt 0.250000 1.000000
vt 0.187500 1.000000
vt 0.625000 1.000000
vt 0.375000 1.000000
vt 0.312500 1.000000
vt 0.000000 1.000000
vt 0.000000 1.000000
vt 0.812500 1.000000
vt 0.750000 1.000000
vt 0.500000 1.000000
vt 0.437500 1.000000
vt 0.125000 1.000000
vt 0.875000 1.000000
vt 0.562500 1.000000
vt 0.687500 1.000000
vt 0.062500 1.000000
vt 0.971731 0.341844
vt 0.841844 0.028269
vt 0.528269 0.158156
vt 0.312500 0.500000
vt 0.375000 0.500000
vt 0.062500 0.500000
vt 0.812500 0.500000
vt 0.500000 0.500000
vt 0.125000 0.500000
vt 0.187500 0.500000
vt 0.937500 0.500000
vt 0.750000 0.500000
vt 0.437500 0.500000
vt 0.875000 0.500000
vt 0.562500 0.500000
vt 1.000000 0.500000
vt 0.250000 0.500000
vt 1.000000 1.000000
vt 0.937500 0.500000
vt 1.000000 0.500000
vt 0.937500 1.000000
vt 0.875000 0.500000
vt 0.875000 1.000000
vt 0.812500 0.500000
vt 0.812500 1.000000
vt 0.750000 0.500000
vt 0.750000 1.000000
vt 0.687500 0.500000
vt 0.687500 1.000000
vt 0.625000 0.500000
vt 0.625000 1.000000
vt 0.562500 0.500000
vt 0.562500 1.000000
vt 0.500000 0.500000
vt 0.500000 1.000000
vt 0.437500 0.500000
vt 0.437500 1.000000
vt 0.375000 0.500000
vt 0.375000 1.000000
vt 0.312500 0.500000
vt 0.312500 1.000000
vt 0.250000 0.500000
vt 0.250000 1.000000
vt 0.187500 0.500000
vt 0.187500 1.000000
vt 0.125000 0.500000
vt 0.125000 1.000000
vt 0.062500 0.500000
vt 0.062500 1.000000
vt 0.000000 0.500000
vt 0.971731 0.341844
vt 0.841844 0.028269
vt 0.528269 0.158156
vt 0.341844 0.471731
vt 0.250000 0.490000
vt 0.250000 0.250000
vt 0.158156 0.471731
vt 0.080294 0.419706
vt 0.028269 0.341844
vt 0.010000 0.250000
vt 0.028269 0.158156
vt 0.080294 0.080294
vt 0.158156 0.028269
vt 0.250000 0.010000
vt 0.341844 0.028269
vt 0.419706 0.080294
vt 0.471731 0.158156
vt 0.490000 0.250000
vt 0.471731 0.341844
vt 0.419706 0.419706
vt 0.937500 0.500000
vt 1.000000 1.000000
vt 1.000000 0.500000
vt 0.875000 0.500000
vt 0.937500 1.000000
vt 0.812500 0.500000
vt 0.875000 1.000000
vt 0.750000 0.500000
vt 0.812500 1.000000
vt 0.687500 0.500000
vt 0.750000 1.000000
vt 0.625000 0.500000
vt 0.687500 1.000000
vt 0.562500 0.500000
vt 0.625000 1.000000
vt 0.500000 0.500000
vt 0.562500 1.000000
vt 0.437500 0.500000
vt 0.500000 1.000000
vt 0.375000 0.500000
vt 0.437500 1.000000
vt 0.312500 0.500000
vt 0.375000 1.000000
vt 0.250000 0.500000
vt 0.312500 1.000000
vt 0.187500 0.500000
vt 0.250000 1.000000
vt 0.125000 0.500000
vt 0.187500 1.000000
vt 0.937500 1.000000
vt 0.062500 0.500000
vt 0.125000 1.000000
vt 0.000000 0.500000
vt 0.062500 1.000000
vt 0.625000 0.500000
vt 0.080294 0.419706
vt 0.250000 0.490000
vt 0.250000 0.010000
vt 0.250000 1.000000
vt 0.625000 1.000000
vt 0.375000 1.000000
vt 0.000000 1.000000
vt 0.062500 1.000000
vt 0.750000 1.000000
vt 0.500000 1.000000
vt 0.125000 1.000000
vt 0.562500 1.000000
vt 0.437500 1.000000
vt 0.875000 1.000000
vt 0.528269 0.341844
vt 0.658156 0.028269
vt 0.971731 0.158156
vt 0.375000 0.500000
vt 0.062500 0.500000
vt 0.812500 0.500000
vt 0.500000 0.500000
vt 0.125000 0.500000
vt 0.875000 0.500000
vt 0.250000 0.500000
vt 0.750000 0.500000
vt 0.937500 0.500000
vt 0.187500 0.500000
vt 0.937500 0.500000
vt 1.000000 1.000000
vt 1.000000 0.500000
vt 0.875000 0.500000
vt 0.937500 1.000000
vt 0.812500 0.500000
vt 0.875000 1.000000
vt 0.750000 0.500000
vt 0.812500 1.000000
vt 0.687500 0.500000
vt 0.750000 1.000000
vt 0.625000 0.500000
vt 0.687500 1.000000
vt 0.562500 0.500000
vt 0.625000 1.000000
vt 0.500000 0.500000
vt 0.562500 1.000000
vt 0.437500 0.500000
vt 0.500000 1.000000
vt 0.375000 0.500000
vt 0.437500 1.000000
vt 0.312500 0.500000
vt 0.375000 1.000000
vt 0.250000 0.500000
vt 0.312500 1.000000
vt 0.187500 0.500000
vt 0.250000 1.000000
vt 0.125000 0.500000
vt 0.187500 1.000000
vt 0.062500 0.500000
vt 0.125000 1.000000
vt 0.000000 0.500000
vt 0.062500 1.000000
vt 0.528269 0.341844
vt 0.658156 0.028269
vt 0.971731 0.158156
vt 0.341844 0.471731
vt 0.250000 0.250000
vt 0.250000 0.490000
vt 0.158156 0.471731
vt 0.080294 0.419706
vt 0.028269 0.341844
vt 0.010000 0.250000
vt 0.028269 0.158156
vt 0.080294 0.080294
vt 0.158156 0.028269
vt 0.250000 0.010000
vt 0.341844 0.028269
vt 0.419706 0.080294
vt 0.471731 0.158156
vt 0.490000 0.250000
vt 0.471731 0.341844
vt 0.419706 0.419706
vt 1.000000 1.000000
vt 0.341844 0.471731
vt 0.250000 0.490000
vt 0.158156 0.471731
vt 0.080294 0.419706
vt 0.028269 0.341844
vt 0.010000 0.250000
vt 0.028269 0.158156
vt 0.158156 0.028269
vt 0.250000 0.010000
vt 0.341844 0.028269
vt 0.471731 0.158156
vt 0.490000 0.250000
vt 0.471731 0.341844
vt 0.658156 0.471731
vt 0.750000 0.490000
vt 0.841844 0.471731
vt 0.919706 0.419706
vt 0.990000 0.250000
vt 0.971731 0.158156
vt 0.919706 0.080294
vt 0.750000 0.010000
vt 0.658156 0.028269
vt 0.580294 0.080294
vt 0.510000 0.250000
vt 0.528269 0.341844
vt 0.580294 0.419706
vt 0.000000 0.500000
vt 0.000000 1.000000
vt 0.658156 0.471731
vt 0.750000 0.490000
vt 0.841844 0.471731
vt 0.919706 0.419706
vt 0.990000 0.250000
vt 0.971731 0.158156
vt 0.919706 0.080294
vt 0.750000 0.010000
vt 0.658156 0.028269
vt 0.580294 0.080294
vt 0.510000 0.250000
vt 0.528269 0.341844
vt 0.580294 0.419706
vt 1.000000 1.000000
vt 0.687500 0.500000
vt 0.341844 0.471731
vt 0.419706 0.419706
vt 0.471731 0.341844
vt 0.490000 0.250000
vt 0.471731 0.158156
vt 0.419706 0.080294
vt 0.341844 0.028269
vt 0.158156 0.028269
vt 0.080294 0.080294
vt 0.028269 0.158156
vt 0.010000 0.250000
vt 0.028269 0.341844
vt 0.158156 0.471731
vt 0.187500 1.000000
vt 0.687500 1.000000
vt 0.312500 1.000000
vt 0.000000 1.000000
vt 0.812500 1.000000
vt 0.841844 0.471731
vt 0.750000 0.490000
vt 0.658156 0.471731
vt 0.580294 0.419706
vt 0.510000 0.250000
vt 0.528269 0.158156
vt 0.580294 0.080294
vt 0.750000 0.010000
vt 0.841844 0.028269
vt 0.919706 0.080294
vt 0.990000 0.250000
vt 0.971731 0.341844
vt 0.919706 0.419706
vt 0.312500 0.500000
vt 0.000000 0.500000
vt 0.437500 0.500000
vt 0.562500 0.500000
vt 1.000000 0.500000
vt 0.000000 1.000000
vt 0.841844 0.471731
vt 0.750000 0.490000
vt 0.658156 0.471731
vt 0.580294 0.419706
vt 0.510000 0.250000
vt 0.528269 0.158156
vt 0.580294 0.080294
vt 0.750000 0.010000
vt 0.841844 0.028269
vt 0.919706 0.080294
vt 0.990000 0.250000
vt 0.971731 0.341844
vt 0.919706 0.419706
vn 0.0000 -0.0000 -1.0000
vn 0.0000 -0.3827 -0.9239
vn 0.0000 -0.7071 -0.7071
vn 0.0000 -0.9239 -0.3827
vn 0.0000 -1.0000 -0.0000
vn 0.0000 -0.9239 0.3827
vn 0.0000 -0.7071 0.7071
vn 0.0000 -0.3827 0.9239
vn 0.0000 0.0000 1.0000
vn 0.0000 0.3827 0.9239
vn 0.0000 0.7071 0.7071
vn 0.0000 0.9239 0.3827
vn 0.0000 1.0000 0.0000
vn 0.0000 0.9239 -0.3827
vn 0.0000 0.7071 -0.7071
vn 0.9650 0.0000 -0.2621
vn 0.9889 -0.0568 -0.1371
vn 0.9650 -0.1003 -0.2422
vn 0.0000 0.3827 -0.9239
vn -0.9665 -0.2371 0.0982
vn -0.9894 -0.1027 0.1027
vn -0.9894 -0.1342 0.0556
vn 0.9889 0.1049 0.1049
vn 0.9889 -0.1049 0.1049
vn 0.9889 -0.1049 -0.1049
vn 0.9650 0.2422 -0.1003
vn 0.9889 0.1484 -0.0000
vn 0.9889 0.1371 -0.0568
vn 0.9650 -0.2422 0.1003
vn 0.9650 -0.1853 0.1853
vn 0.9650 0.2422 0.1003
vn 0.9889 0.1371 0.0568
vn 0.9650 0.1003 -0.2422
vn 0.9889 0.0000 -0.1484
vn 0.9650 -0.2621 -0.0000
vn 0.9889 -0.1371 -0.0568
vn 0.9889 -0.1484 -0.0000
vn 0.9650 0.1003 0.2422
vn 0.9889 0.0000 0.1484
vn 0.9889 0.0568 0.1371
vn 0.9889 0.1049 -0.1049
vn 0.9650 0.1853 -0.1853
vn 0.9650 -0.1853 -0.1853
vn 0.9889 -0.0568 0.1371
vn 0.9650 -0.1003 0.2422
vn 0.9650 0.2621 0.0000
vn 0.9889 -0.1371 0.0568
vn 0.9650 0.1853 0.1853
vn 0.9889 0.0568 -0.1371
vn 0.9650 -0.2422 -0.1003
vn 0.9650 0.0000 0.2621
vn -0.9894 -0.1342 -0.0556
vn -0.9894 -0.0556 0.1342
vn -0.9894 0.1342 0.0556
vn -0.9665 0.1815 0.1815
vn -0.9894 0.1027 0.1027
vn -0.9665 0.0000 -0.2566
vn -0.9894 0.0556 -0.1342
vn -0.9665 0.0982 -0.2371
vn -0.9665 -0.2566 0.0000
vn -0.9665 -0.2371 -0.0982
vn -0.9665 0.0982 0.2371
vn -0.9894 0.0000 0.1452
vn -0.9665 0.0000 0.2566
vn -0.9665 0.2371 -0.0982
vn -0.9894 0.1027 -0.1027
vn -0.9894 0.1342 -0.0556
vn -0.9665 -0.1815 -0.1815
vn -0.9894 -0.0556 -0.1342
vn -0.9665 -0.0982 -0.2371
vn -0.9665 -0.0982 0.2371
vn -0.9665 -0.1815 0.1815
vn -0.9665 0.2566 0.0000
vn -0.9665 0.2371 0.0982
vn -0.9894 -0.1452 0.0000
vn -0.9894 0.0556 0.1342
vn -0.9665 0.1815 -0.1815
vn -0.9894 -0.1027 -0.1027
vn -0.9894 0.0000 -0.1452
vn -0.9894 0.1452 -0.0000
vn -1.0000 0.0000 0.0000
vn 0.9189 0.1509 0.3644
vn 0.9189 0.0000 0.3944
vn 1.0000 0.0000 -0.0000
vn 0.9189 -0.1509 0.3644
vn 0.9189 -0.2789 0.2789
vn 0.9189 -0.3644 0.1509
vn 0.9189 -0.3944 0.0000
vn 0.9189 -0.3644 -0.1509
vn 0.9189 -0.2789 -0.2789
vn 0.9189 -0.1509 -0.3644
vn 0.9189 0.0000 -0.3944
vn 0.9189 0.1509 -0.3644
vn 0.9189 0.2789 -0.2789
vn 0.9189 0.3644 -0.1509
vn 0.9189 0.3944 0.0000
vn 0.9189 0.3644 0.1509
vn 0.9189 0.2789 0.2789
vn -0.9889 -0.0568 -0.1371
vn -0.9650 -0.0000 -0.2621
vn -0.9650 -0.1003 -0.2422
vn 0.9665 -0.2371 0.0982
vn 0.9894 -0.1027 0.1027
vn 0.9665 -0.1815 0.1815
vn -0.9889 0.1049 -0.1049
vn -0.9889 0.0000 -0.1484
vn -0.9889 0.0000 0.1484
vn -0.9650 0.2422 -0.1003
vn -0.9889 0.1484 0.0000
vn -0.9650 0.2621 0.0000
vn -0.9889 -0.1049 0.1049
vn -0.9650 -0.2422 0.1003
vn -0.9650 -0.1853 0.1853
vn -0.9650 0.2422 0.1003
vn -0.9889 0.1049 0.1049
vn -0.9650 0.1853 0.1853
vn -0.9889 0.0568 -0.1371
vn -0.9650 0.1003 -0.2422
vn -0.9889 -0.1484 -0.0000
vn -0.9650 -0.2422 -0.1003
vn -0.9650 -0.2621 0.0000
vn -0.9650 0.1003 0.2422
vn -0.9650 0.0000 0.2621
vn -0.9650 0.1853 -0.1853
vn -0.9650 -0.1853 -0.1853
vn -0.9889 -0.0568 0.1371
vn -0.9650 -0.1003 0.2422
vn -0.9889 0.0568 0.1371
vn -0.9889 -0.1049 -0.1049
vn 0.9894 0.1342 -0.0556
vn 0.9894 0.0556 0.1342
vn 0.9894 -0.1342 0.0556
vn 0.9894 0.1027 0.1027
vn 0.9665 0.2371 0.0982
vn 0.9665 0.1815 0.1815
vn 0.9894 0.0556 -0.1342
vn 0.9665 0.0000 -0.2566
vn 0.9665 0.0982 -0.2371
vn 0.9894 -0.1342 -0.0556
vn 0.9665 -0.2566 -0.0000
vn 0.9665 -0.2371 -0.0982
vn 0.9894 0.0000 0.1452
vn 0.9665 0.0982 0.2371
vn 0.9665 0.0000 0.2566
vn 0.9665 0.2371 -0.0982
vn 0.9894 0.1027 -0.1027
vn 0.9665 0.1815 -0.1815
vn 0.9665 -0.0982 -0.2371
vn 0.9894 -0.1027 -0.1027
vn 0.9665 -0.1815 -0.1815
vn 0.9665 -0.0982 0.2371
vn 0.9894 0.1452 0.0000
vn 0.9665 0.2566 -0.0000
vn 0.9894 -0.1452 0.0000
vn 0.9894 -0.0556 -0.1342
vn -0.9189 0.1509 0.3644
vn -0.9189 0.0000 0.3944
vn -0.9189 -0.1509 0.3644
vn -0.9189 -0.2789 0.2789
vn -0.9189 -0.3644 0.1509
vn -0.9189 -0.3944 0.0000
vn -0.9189 -0.3644 -0.1509
vn -0.9189 -0.2789 -0.2789
vn -0.9189 -0.1509 -0.3644
vn -0.9189 0.0000 -0.3944
vn -0.9189 0.1509 -0.3644
vn -0.9189 0.2789 -0.2789
vn -0.9189 0.3644 -0.1509
vn -0.9189 0.3944 0.0000
vn -0.9189 0.3644 0.1509
vn -0.9189 0.2789 0.2789
vn -0.9889 -0.1371 -0.0568
vn -0.9889 -0.1371 0.0568
vn -0.9889 0.1371 0.0568
vn -0.9889 0.1371 -0.0568
vn 0.9894 0.0000 -0.1452
vn 0.9894 0.1342 0.0556
vn 0.9894 -0.0556 0.1342
s 1
f 2/1/1 3/2/2 1/3/1
f 4/4/2 5/5/3 3/2/2
f 6/6/3 7/7/4 5/5/3
f 8/8/4 9/9/5 7/7/4
f 10/10/5 11/11/6 9/9/5
f 12/12/6 13/13/7 11/11/6
f 14/14/7 15/15/8 13/13/7
f 16/16/8 17/17/9 15/15/8
f 18/18/9 19/19/10 17/17/9
f 20/20/10 21/21/11 19/19/10
f 22/22/11 23/23/12 21/21/11
f 24/24/12 25/25/13 23/23/12
f 26/26/13 27/27/14 25/25/13
f 28/28/14 29/29/15 27/27/14
f 2/1/16 33/30/17 4/4/18
f 30/31/15 31/32/19 29/29/15
f 32/33/19 1/34/1 31/32/19
f 11/11/20 55/35/21 54/36/22
f 43/37/23 39/38/24 35/39/25
f 28/28/26 45/40/27 46/41/28
f 12/12/29 39/42/24 14/14/30
f 24/24/31 43/43/23 44/44/32
f 32/33/33 34/45/34 2/46/16
f 10/10/35 36/47/36 37/48/37
f 20/20/38 41/49/39 42/50/40
f 28/28/26 47/51/41 30/31/42
f 6/6/43 33/30/17 35/52/25
f 14/14/30 40/53/44 16/16/45
f 24/24/31 45/40/27 26/26/46
f 12/12/29 37/48/37 38/54/47
f 22/22/48 42/50/40 43/43/23
f 30/31/42 48/55/49 32/33/33
f 8/8/50 35/52/25 36/47/36
f 18/18/51 40/53/44 41/49/39
f 52/56/52 56/57/53 60/58/54
f 21/21/55 60/59/54 59/60/56
f 1/34/57 64/61/58 31/32/59
f 9/9/60 52/62/52 7/7/61
f 19/19/62 57/63/63 17/17/64
f 27/27/65 63/64/66 62/65/67
f 5/5/68 50/66/69 3/2/70
f 15/15/71 55/35/21 13/13/72
f 25/25/73 60/59/54 23/23/74
f 9/9/60 54/36/22 53/67/75
f 19/19/62 59/60/56 58/68/76
f 29/29/77 64/61/58 63/64/66
f 7/7/61 51/69/78 5/5/68
f 15/15/71 57/63/63 56/70/53
f 1/3/57 50/66/69 49/71/79
f 27/27/65 61/72/80 25/25/73
f 66/73/1 67/74/2 65/75/1
f 68/76/2 69/77/3 67/74/2
f 70/78/3 71/79/4 69/77/3
f 72/80/4 73/81/5 71/79/4
f 74/82/5 75/83/6 73/81/5
f 76/84/6 77/85/7 75/83/6
f 78/86/7 79/87/8 77/85/7
f 80/88/8 81/89/9 79/87/8
f 82/90/9 83/91/10 81/89/9
f 84/92/10 85/93/11 83/91/10
f 86/94/11 87/95/12 85/93/11
f 88/96/12 89/97/13 87/95/12
f 90/98/13 91/99/14 89/97/13
f 92/100/14 93/101/15 91/99/14
f 94/102/15 95/103/19 93/101/15
f 96/104/19 65/105/1 95/103/19
f 71/106/81 79/107/81 87/108/81
f 68/109/82 66/110/83 97/111/84
f 66/110/83 96/112/85 97/111/84
f 96/112/85 94/113/86 97/111/84
f 94/113/86 92/114/87 97/111/84
f 92/114/87 90/115/88 97/111/84
f 90/115/88 88/116/89 97/111/84
f 88/116/89 86/117/90 97/111/84
f 86/117/90 84/118/91 97/111/84
f 84/118/91 82/119/92 97/111/84
f 82/119/92 80/120/93 97/111/84
f 80/120/93 78/121/94 97/111/84
f 78/121/94 76/122/95 97/111/84
f 76/122/95 74/123/96 97/111/84
f 74/123/96 72/124/97 97/111/84
f 72/124/97 70/125/98 97/111/84
f 70/125/98 68/109/82 97/111/84
f 100/126/2 99/127/1 98/128/1
f 102/129/3 101/130/2 100/126/2
f 104/131/4 103/132/3 102/129/3
f 106/133/5 105/134/4 104/131/4
f 108/135/6 107/136/5 106/133/5
f 110/137/7 109/138/6 108/135/6
f 112/139/8 111/140/7 110/137/7
f 114/141/9 113/142/8 112/139/8
f 116/143/10 115/144/9 114/141/9
f 118/145/11 117/146/10 116/143/10
f 120/147/12 119/148/11 118/145/11
f 122/149/13 121/150/12 120/147/12
f 124/151/14 123/152/13 122/149/13
f 126/153/15 125/154/14 124/151/14
f 130/155/99 99/127/100 101/130/101
f 128/156/19 127/157/15 126/153/15
f 98/158/1 129/159/19 128/156/19
f 108/135/102 152/160/103 110/137/104
f 144/161/105 131/162/106 138/163/107
f 125/154/108 142/164/109 123/152/110
f 136/165/111 109/138/112 111/140/113
f 121/150/114 140/166/115 119/148/116
f 99/167/100 145/168/117 129/159/118
f 134/169/119 105/134/120 107/136/121
f 117/146/122 138/170/107 115/144/123
f 144/171/105 125/154/108 127/157/124
f 103/132/125 130/155/99 101/130/101
f 137/172/126 111/140/113 113/142/127
f 142/164/109 121/150/114 123/152/110
f 109/138/112 134/169/119 107/136/121
f 119/148/116 139/173/128 117/146/122
f 145/168/117 127/157/124 129/159/118
f 105/134/120 132/174/129 103/132/125
f 115/144/123 137/172/126 113/142/127
f 159/175/130 155/176/131 151/177/132
f 156/178/133 120/147/134 118/145/135
f 161/179/136 98/158/137 128/156/138
f 149/180/139 106/133/140 104/131/141
f 154/181/142 116/143/143 114/141/144
f 124/151/145 160/182/146 126/153/147
f 100/126/148 148/183/149 102/129/150
f 152/160/103 112/139/151 110/137/104
f 120/147/134 158/184/152 122/149/153
f 150/185/154 108/135/102 106/133/140
f 116/143/143 156/178/133 118/145/135
f 126/153/147 161/179/136 128/156/138
f 148/183/149 104/131/141 102/129/150
f 112/139/151 154/181/142 114/141/144
f 98/128/137 147/186/155 100/126/148
f 122/149/153 159/187/130 124/151/145
f 164/188/2 163/189/1 162/190/1
f 166/191/3 165/192/2 164/188/2
f 168/193/4 167/194/3 166/191/3
f 170/195/5 169/196/4 168/193/4
f 172/197/6 171/198/5 170/195/5
f 174/199/7 173/200/6 172/197/6
f 176/201/8 175/202/7 174/199/7
f 178/203/9 177/204/8 176/201/8
f 180/205/10 179/206/9 178/203/9
f 182/207/11 181/208/10 180/205/10
f 184/209/12 183/210/11 182/207/11
f 186/211/13 185/212/12 184/209/12
f 188/213/14 187/214/13 186/211/13
f 190/215/15 189/216/14 188/213/14
f 192/217/19 191/218/15 190/215/15
f 162/219/1 193/220/19 192/217/19
f 188/221/84 180/222/84 172/223/84
f 165/224/156 194/225/81 163/226/157
f 163/226/157 194/225/81 193/227/158
f 193/227/158 194/225/81 191/228/159
f 191/228/159 194/225/81 189/229/160
f 189/229/160 194/225/81 187/230/161
f 187/230/161 194/225/81 185/231/162
f 185/231/162 194/225/81 183/232/163
f 183/232/163 194/225/81 181/233/164
f 181/233/164 194/225/81 179/234/165
f 179/234/165 194/225/81 177/235/166
f 177/235/166 194/225/81 175/236/167
f 175/236/167 194/225/81 173/237/168
f 173/237/168 194/225/81 171/238/169
f 171/238/169 194/225/81 169/239/170
f 169/239/170 194/225/81 167/240/171
f 167/240/171 194/225/81 165/224/156
f 2/1/1 4/4/2 3/2/2
f 4/4/2 6/6/3 5/5/3
f 6/6/3 8/8/4 7/7/4
f 8/8/4 10/10/5 9/9/5
f 10/10/5 12/12/6 11/11/6
f 12/12/6 14/14/7 13/13/7
f 14/14/7 16/16/8 15/15/8
f 16/16/8 18/18/9 17/17/9
f 18/18/9 20/20/10 19/19/10
f 20/20/10 22/22/11 21/21/11
f 22/22/11 24/24/12 23/23/12
f 24/24/12 26/26/13 25/25/13
f 26/26/13 28/28/14 27/27/14
f 28/28/14 30/31/15 29/29/15
f 2/1/16 34/241/34 33/30/17
f 30/31/15 32/33/19 31/32/19
f 32/33/19 2/46/1 1/34/1
f 11/11/20 13/13/72 55/35/21
f 35/39/25 33/242/17 34/243/34
f 34/243/34 48/244/49 47/245/41
f 47/245/41 46/246/28 45/247/27
f 45/247/27 44/248/32 47/245/41
f 44/248/32 43/37/23 47/245/41
f 43/37/23 42/249/40 41/250/39
f 41/250/39 40/251/44 39/38/24
f 39/38/24 38/252/47 37/253/37
f 37/253/37 36/254/36 39/38/24
f 36/254/36 35/39/25 39/38/24
f 35/39/25 34/243/34 47/245/41
f 43/37/23 41/250/39 39/38/24
f 35/39/25 47/245/41 43/37/23
f 28/28/26 26/26/46 45/40/27
f 12/12/29 38/54/47 39/42/24
f 24/24/31 22/22/48 43/43/23
f 32/33/33 48/55/49 34/45/34
f 10/10/35 8/8/50 36/47/36
f 20/20/38 18/18/51 41/49/39
f 28/28/26 46/41/28 47/51/41
f 6/6/43 4/4/18 33/30/17
f 14/14/30 39/42/24 40/53/44
f 24/24/31 44/44/32 45/40/27
f 12/12/29 10/10/35 37/48/37
f 22/22/48 20/20/38 42/50/40
f 30/31/42 47/51/41 48/55/49
f 8/8/50 6/6/43 35/52/25
f 18/18/51 16/16/45 40/53/44
f 64/255/58 49/256/79 52/56/52
f 49/256/79 50/257/69 52/56/52
f 50/257/69 51/258/78 52/56/52
f 52/56/52 53/259/75 54/260/22
f 54/260/22 55/261/21 56/57/53
f 56/57/53 57/262/63 60/58/54
f 57/262/63 58/263/76 60/58/54
f 58/263/76 59/264/56 60/58/54
f 60/58/54 61/265/80 62/266/67
f 62/266/67 63/267/66 64/255/58
f 52/56/52 54/260/22 56/57/53
f 60/58/54 62/266/67 64/255/58
f 64/255/58 52/56/52 60/58/54
f 21/21/55 23/23/74 60/59/54
f 1/34/57 49/268/79 64/61/58
f 9/9/60 53/67/75 52/62/52
f 19/19/62 58/68/76 57/63/63
f 27/27/65 29/29/77 63/64/66
f 5/5/68 51/69/78 50/66/69
f 15/15/71 56/70/53 55/35/21
f 25/25/73 61/72/80 60/59/54
f 9/9/60 11/11/20 54/36/22
f 19/19/62 21/21/55 59/60/56
f 29/29/77 31/32/59 64/61/58
f 7/7/61 52/62/52 51/69/78
f 15/15/71 17/17/64 57/63/63
f 1/3/57 3/2/70 50/66/69
f 27/27/65 62/65/67 61/72/80
f 66/73/1 68/76/2 67/74/2
f 68/76/2 70/78/3 69/77/3
f 70/78/3 72/80/4 71/79/4
f 72/80/4 74/82/5 73/81/5
f 74/82/5 76/84/6 75/83/6
f 76/84/6 78/86/7 77/85/7
f 78/86/7 80/88/8 79/87/8
f 80/88/8 82/90/9 81/89/9
f 82/90/9 84/92/10 83/91/10
f 84/92/10 86/94/11 85/93/11
f 86/94/11 88/96/12 87/95/12
f 88/96/12 90/98/13 89/97/13
f 90/98/13 92/100/14 91/99/14
f 92/100/14 94/102/15 93/101/15
f 94/102/15 96/104/19 95/103/19
f 96/104/19 66/269/1 65/105/1
f 95/270/81 65/271/81 71/106/81
f 65/271/81 67/272/81 71/106/81
f 67/272/81 69/273/81 71/106/81
f 71/106/81 73/274/81 75/275/81
f 75/275/81 77/276/81 79/107/81
f 79/107/81 81/277/81 83/278/81
f 83/278/81 85/279/81 79/107/81
f 85/279/81 87/108/81 79/107/81
f 87/108/81 89/280/81 91/281/81
f 91/281/81 93/282/81 87/108/81
f 93/282/81 95/270/81 87/108/81
f 71/106/81 75/275/81 79/107/81
f 95/270/81 71/106/81 87/108/81
f 100/126/2 101/130/2 99/127/1
f 102/129/3 103/132/3 101/130/2
f 104/131/4 105/134/4 103/132/3
f 106/133/5 107/136/5 105/134/4
f 108/135/6 109/138/6 107/136/5
f 110/137/7 111/140/7 109/138/6
f 112/139/8 113/142/8 111/140/7
f 114/141/9 115/144/9 113/142/8
f 116/143/10 117/146/10 115/144/9
f 118/145/11 119/148/11 117/146/10
f 120/147/12 121/150/12 119/148/11
f 122/149/13 123/152/13 121/150/12
f 124/151/14 125/154/14 123/152/13
f 126/153/15 127/157/15 125/154/14
f 130/155/99 131/283/106 99/127/100
f 128/156/19 129/159/19 127/157/15
f 98/158/1 99/167/1 129/159/19
f 108/135/102 151/284/132 152/160/103
f 131/162/106 130/285/99 132/286/129
f 132/286/129 133/287/172 134/288/119
f 134/288/119 135/289/173 138/163/107
f 135/289/173 136/290/111 138/163/107
f 136/290/111 137/291/126 138/163/107
f 138/163/107 139/292/128 140/293/115
f 140/293/115 141/294/174 138/163/107
f 141/294/174 142/295/109 138/163/107
f 142/295/109 143/296/175 144/161/105
f 144/161/105 145/297/117 131/162/106
f 131/162/106 132/286/129 138/163/107
f 132/286/129 134/288/119 138/163/107
f 142/295/109 144/161/105 138/163/107
f 125/154/108 143/298/175 142/164/109
f 136/165/111 135/299/173 109/138/112
f 121/150/114 141/300/174 140/166/115
f 99/167/100 131/301/106 145/168/117
f 134/169/119 133/302/172 105/134/120
f 117/146/122 139/173/128 138/170/107
f 144/171/105 143/298/175 125/154/108
f 103/132/125 132/174/129 130/155/99
f 137/172/126 136/165/111 111/140/113
f 142/164/109 141/300/174 121/150/114
f 109/138/112 135/299/173 134/169/119
f 119/148/116 140/166/115 139/173/128
f 145/168/117 144/171/105 127/157/124
f 105/134/120 133/302/172 132/174/129
f 115/144/123 138/170/107 137/172/126
f 147/303/155 146/304/176 159/175/130
f 146/304/176 161/305/136 159/175/130
f 161/305/136 160/306/146 159/175/130
f 159/175/130 158/307/152 157/308/177
f 157/308/177 156/309/133 155/176/131
f 155/176/131 154/310/142 151/177/132
f 154/310/142 153/311/178 151/177/132
f 153/311/178 152/312/103 151/177/132
f 151/177/132 150/313/154 149/314/139
f 149/314/139 148/315/149 147/303/155
f 159/175/130 157/308/177 155/176/131
f 151/177/132 149/314/139 147/303/155
f 147/303/155 159/175/130 151/177/132
f 156/178/133 157/316/177 120/147/134
f 161/179/136 146/317/176 98/158/137
f 149/180/139 150/185/154 106/133/140
f 154/181/142 155/318/131 116/143/143
f 124/151/145 159/187/130 160/182/146
f 100/126/148 147/186/155 148/183/149
f 152/160/103 153/319/178 112/139/151
f 120/147/134 157/316/177 158/184/152
f 150/185/154 151/284/132 108/135/102
f 116/143/143 155/318/131 156/178/133
f 126/153/147 160/182/146 161/179/136
f 148/183/149 149/180/139 104/131/141
f 112/139/151 153/319/178 154/181/142
f 98/128/137 146/320/176 147/186/155
f 122/149/153 158/184/152 159/187/130
f 164/188/2 165/192/2 163/189/1
f 166/191/3 167/194/3 165/192/2
f 168/193/4 169/196/4 167/194/3
f 170/195/5 171/198/5 169/196/4
f 172/197/6 173/200/6 171/198/5
f 174/199/7 175/202/7 173/200/6
f 176/201/8 177/204/8 175/202/7
f 178/203/9 179/206/9 177/204/8
f 180/205/10 181/208/10 179/206/9
f 182/207/11 183/210/11 181/208/10
f 184/209/12 185/212/12 183/210/11
f 186/211/13 187/214/13 185/212/12
f 188/213/14 189/216/14 187/214/13
f 190/215/15 191/218/15 189/216/14
f 192/217/19 193/220/19 191/218/15
f 162/219/1 163/321/1 193/220/19
f 164/322/84 162/323/84 192/324/84
f 192/324/84 190/325/84 164/322/84
f 190/325/84 188/221/84 164/322/84
f 188/221/84 186/326/84 184/327/84
f 184/327/84 182/328/84 188/221/84
f 182/328/84 180/222/84 188/221/84
f 180/222/84 178/329/84 176/330/84
f 176/330/84 174/331/84 172/223/84
f 172/223/84 170/332/84 168/333/84
f 168/333/84 166/334/84 164/322/84
f 180/222/84 176/330/84 172/223/84
f 172/223/84 168/333/84 164/322/84
f 164/322/84 188/221/84 172/223/84
