# Blender v3.4.1 OBJ File: 'bike.blend'
# www.blender.org
o ScooterStem_Cylinder.002
v 0.000000 0.152858 0.434959
v 0.000000 1.135439 0.305600
v 0.013510 0.153209 0.437623
v 0.013510 1.135790 0.308264
v 0.024964 0.154208 0.445211
v 0.024964 1.136789 0.315852
v 0.032617 0.155703 0.456566
v 0.032617 1.138284 0.327207
v 0.035304 0.157467 0.469961
v 0.035304 1.140047 0.340602
v 0.032617 0.159230 0.483356
v 0.032617 1.141811 0.353997
v 0.024964 0.160725 0.494711
v 0.024964 1.143306 0.365352
v 0.013510 0.161724 0.502299
v 0.013510 1.144305 0.372940
v 0.000000 0.162075 0.504963
v 0.000000 1.144656 0.375604
v -0.013510 0.161724 0.502299
v -0.013510 1.144305 0.372940
v -0.024964 0.160725 0.494711
v -0.024964 1.143306 0.365352
v -0.032617 0.159230 0.483356
v -0.032617 1.141811 0.353997
v -0.035304 0.157467 0.469961
v -0.035304 1.140047 0.340602
v -0.032617 0.155703 0.456566
v -0.032617 1.138284 0.327207
v -0.024964 0.154208 0.445211
v -0.024964 1.136789 0.315852
v -0.013510 0.153209 0.437623
v -0.013510 1.135790 0.308264
v -0.011070 0.145342 0.444600
v -0.020456 0.146160 0.450818
v -0.026726 0.147385 0.460122
v -0.028928 0.148830 0.471098
v -0.026726 0.150275 0.482074
v -0.020456 0.151500 0.491379
v -0.011070 0.152319 0.497596
v -0.000000 0.152606 0.499779
v 0.011070 0.152319 0.497596
v 0.020456 0.151500 0.491379
v 0.026726 0.150275 0.482074
v 0.028928 0.148830 0.471098
v 0.026726 0.147385 0.460122
v 0.020456 0.146160 0.450818
v 0.011070 0.145342 0.444600
v -0.000000 0.145054 0.442417
v -0.037751 1.260967 0.380854
v -0.037751 1.209490 0.341354
v 0.037751 1.209490 0.341354
v 0.037751 1.260967 0.380854
v -0.006042 1.262442 0.288477
v -0.012228 1.262522 0.289081
v -0.018177 1.262758 0.290870
v -0.023659 1.263140 0.293776
v -0.028464 1.263655 0.297685
v -0.032407 1.264282 0.302449
v -0.035338 1.264997 0.307884
v -0.037142 1.265774 0.313782
v -0.006042 1.203547 0.296212
v -0.037751 1.207686 0.327649
v -0.012228 1.203627 0.296816
v -0.018177 1.203862 0.298605
v -0.023659 1.204244 0.301510
v -0.028464 1.204759 0.305420
v -0.032407 1.205387 0.310183
v -0.035338 1.206102 0.315619
v -0.037142 1.206878 0.321516
v 0.037751 1.207686 0.327649
v 0.006042 1.203547 0.296212
v 0.037142 1.206878 0.321516
v 0.035338 1.206102 0.315619
v 0.032407 1.205387 0.310183
v 0.028464 1.204759 0.305420
v 0.023659 1.204244 0.301510
v 0.018177 1.203862 0.298605
v 0.012228 1.203627 0.296816
v 0.006042 1.262442 0.288477
v 0.037142 1.265774 0.313782
v 0.035338 1.264997 0.307884
v 0.032407 1.264282 0.302449
v 0.028464 1.263655 0.297685
v 0.023659 1.263140 0.293776
v 0.018177 1.262758 0.290870
v 0.012228 1.262522 0.289081
v 0.006042 1.100772 0.309742
v 0.037751 1.104910 0.341180
v 0.012228 1.100851 0.310346
v 0.018177 1.101087 0.312135
v 0.023659 1.101469 0.315040
v 0.028464 1.101984 0.318950
v 0.032407 1.102611 0.323714
v 0.035338 1.103327 0.329149
v 0.037142 1.104103 0.335047
v -0.037751 1.104910 0.341180
v -0.006042 1.100772 0.309742
v -0.037142 1.104103 0.335047
v -0.035338 1.103327 0.329149
v -0.032407 1.102611 0.323714
v -0.028464 1.101984 0.318950
v -0.023659 1.101469 0.315040
v -0.018177 1.101087 0.312135
v -0.012228 1.100851 0.310346
v -0.033887 1.283022 0.378616
v -0.037751 1.279191 0.379120
v -0.035819 1.282509 0.378683
v -0.037234 1.281106 0.378868
v 0.037751 1.279191 0.379120
v 0.033887 1.283022 0.378616
v 0.037234 1.281106 0.378868
v 0.035819 1.282509 0.378683
v 0.037751 1.109608 0.376865
v 0.033887 1.110063 0.380319
v 0.037234 1.109836 0.378592
v 0.035819 1.110002 0.379856
v -0.033887 1.110063 0.380319
v -0.037751 1.109608 0.376865
v -0.035819 1.110002 0.379856
v -0.037234 1.109836 0.378592
v -0.037751 1.173655 0.376471
v -0.033887 1.170121 0.379934
v -0.037234 1.171888 0.378203
v -0.035819 1.170595 0.379470
v -0.033887 1.221467 0.432331
v -0.037751 1.224650 0.428184
v -0.035819 1.221894 0.431775
v -0.037234 1.223059 0.430257
v -0.033887 1.179085 0.382156
v -0.037751 1.178539 0.377696
v -0.035819 1.179012 0.381558
v -0.037234 1.178812 0.379926
v -0.033887 1.187935 0.386041
v -0.037751 1.189768 0.382625
v -0.035819 1.188180 0.385583
v -0.037234 1.188851 0.384333
v -0.033887 1.196330 0.391438
v -0.037751 1.198665 0.388345
v -0.035819 1.196643 0.391024
v -0.037234 1.197497 0.389892
v -0.033887 1.203948 0.398142
v -0.037751 1.206716 0.395430
v -0.035819 1.204319 0.397779
v -0.037234 1.205332 0.396786
v -0.033887 1.210496 0.405895
v -0.037751 1.213636 0.403623
v -0.035819 1.210917 0.405590
v -0.037234 1.212066 0.404759
v -0.033887 1.215723 0.414397
v -0.037751 1.219176 0.412634
v -0.035819 1.216186 0.414161
v -0.037234 1.217449 0.413516
v -0.033887 1.219428 0.423324
v -0.037751 1.223460 0.422958
v -0.035819 1.219968 0.423275
v -0.037234 1.221444 0.423141
v 0.037751 1.224650 0.428184
v 0.033887 1.221467 0.432331
v 0.037234 1.223059 0.430257
v 0.035819 1.221894 0.431775
v 0.033887 1.170121 0.379934
v 0.037751 1.173655 0.376471
v 0.035819 1.170595 0.379470
v 0.037234 1.171888 0.378203
v 0.033887 1.219428 0.423324
v 0.037751 1.223460 0.422958
v 0.035819 1.219968 0.423275
v 0.037234 1.221444 0.423141
v 0.033887 1.215723 0.414397
v 0.037751 1.219176 0.412634
v 0.035819 1.216186 0.414161
v 0.037234 1.217449 0.413516
v 0.033887 1.210496 0.405895
v 0.037751 1.213636 0.403623
v 0.035819 1.210917 0.405590
v 0.037234 1.212066 0.404759
v 0.033887 1.203948 0.398142
v 0.037751 1.206716 0.395430
v 0.035819 1.204319 0.397779
v 0.037234 1.205332 0.396786
v 0.033887 1.196330 0.391438
v 0.037751 1.198665 0.388345
v 0.035819 1.196643 0.391024
v 0.037234 1.197497 0.389892
v 0.033887 1.187935 0.386041
v 0.037751 1.189768 0.382625
v 0.035819 1.188180 0.385583
v 0.037234 1.188851 0.384333
v 0.033887 1.179085 0.382156
v 0.037751 1.178539 0.377696
v 0.035819 1.179012 0.381558
v 0.037234 1.178812 0.379926
v -0.037751 1.226616 0.443069
v -0.033887 1.223184 0.445371
v -0.037234 1.224900 0.444220
v -0.035819 1.223644 0.445062
v -0.037751 1.264342 0.473339
v -0.033887 1.264659 0.477195
v -0.037234 1.264501 0.475267
v -0.035819 1.264616 0.476679
v -0.037751 1.228507 0.451180
v -0.033887 1.224830 0.452428
v -0.037234 1.226668 0.451804
v -0.035819 1.225322 0.452261
v -0.037751 1.231184 0.457087
v -0.033887 1.227820 0.459029
v -0.037234 1.229502 0.458058
v -0.035819 1.228271 0.458768
v -0.037751 1.234961 0.462358
v -0.033887 1.232042 0.464919
v -0.037234 1.233501 0.463639
v -0.035819 1.232433 0.464576
v -0.037751 1.239695 0.466792
v -0.033887 1.237331 0.469873
v -0.037234 1.238513 0.468332
v -0.035819 1.237647 0.469460
v -0.037751 1.245202 0.470216
v -0.033887 1.243484 0.473699
v -0.037234 1.244343 0.471958
v -0.035819 1.243714 0.473233
v -0.037751 1.251271 0.472501
v -0.033887 1.250266 0.476252
v -0.037234 1.250769 0.474376
v -0.035819 1.250401 0.475749
v -0.037751 1.257670 0.473557
v -0.033887 1.257416 0.477432
v -0.037234 1.257543 0.475495
v -0.035819 1.257450 0.476913
v -0.037751 1.265524 0.473183
v -0.033887 1.266217 0.476990
v -0.037234 1.265870 0.475087
v -0.035819 1.266124 0.476480
v -0.037751 1.294185 0.435832
v -0.033887 1.298041 0.435516
v -0.037234 1.296113 0.435674
v -0.035819 1.297524 0.435558
v -0.037751 1.272026 0.471667
v -0.033887 1.273274 0.475345
v -0.037234 1.272650 0.473506
v -0.035819 1.273107 0.474852
v -0.037751 1.277933 0.468991
v -0.033887 1.279874 0.472354
v -0.037234 1.278904 0.470672
v -0.035819 1.279614 0.471903
v -0.037751 1.283204 0.465213
v -0.033887 1.285765 0.468133
v -0.037234 1.284484 0.466673
v -0.035819 1.285422 0.467742
v -0.037751 1.287638 0.460480
v -0.033887 1.290718 0.462844
v -0.037234 1.289178 0.461662
v -0.035819 1.290306 0.462527
v -0.037751 1.291062 0.454973
v -0.033887 1.294545 0.456690
v -0.037234 1.292804 0.455831
v -0.035819 1.294078 0.456460
v -0.037751 1.293347 0.448903
v -0.033887 1.297098 0.449908
v -0.037234 1.295222 0.449406
v -0.035819 1.296595 0.449773
v -0.037751 1.294403 0.442504
v -0.033887 1.298278 0.442758
v -0.037234 1.296341 0.442631
v -0.035819 1.297759 0.442724
v 0.037751 1.264342 0.473339
v 0.033887 1.264659 0.477195
v 0.037234 1.264501 0.475267
v 0.035819 1.264616 0.476679
v 0.037751 1.226616 0.443069
v 0.033887 1.223184 0.445371
v 0.037234 1.224900 0.444220
v 0.035819 1.223644 0.445062
v 0.037751 1.257670 0.473557
v 0.033887 1.257416 0.477432
v 0.037234 1.257543 0.475495
v 0.035819 1.257450 0.476913
v 0.037751 1.251271 0.472501
v 0.033887 1.250266 0.476252
v 0.037234 1.250769 0.474376
v 0.035819 1.250401 0.475749
v 0.037751 1.245202 0.470216
v 0.033887 1.243484 0.473699
v 0.037234 1.244343 0.471958
v 0.035819 1.243714 0.473233
v 0.037751 1.239695 0.466792
v 0.033887 1.237331 0.469873
v 0.037234 1.238513 0.468332
v 0.035819 1.237647 0.469460
v 0.037751 1.234961 0.462358
v 0.033887 1.232042 0.464919
v 0.037234 1.233501 0.463639
v 0.035819 1.232433 0.464576
v 0.037751 1.231184 0.457087
v 0.033887 1.227820 0.459029
v 0.037234 1.229502 0.458058
v 0.035819 1.228271 0.458768
v 0.037751 1.228507 0.451180
v 0.033887 1.224830 0.452428
v 0.037234 1.226668 0.451804
v 0.035819 1.225322 0.452261
v 0.037751 1.294185 0.435832
v 0.033887 1.298041 0.435516
v 0.037234 1.296113 0.435674
v 0.035819 1.297524 0.435558
v 0.037751 1.265524 0.473183
v 0.033887 1.266217 0.476990
v 0.037234 1.265870 0.475087
v 0.035819 1.266124 0.476480
v 0.037751 1.294403 0.442504
v 0.033887 1.298278 0.442758
v 0.037234 1.296341 0.442631
v 0.035819 1.297759 0.442724
v 0.037751 1.293347 0.448903
v 0.033887 1.297098 0.449908
v 0.037234 1.295222 0.449406
v 0.035819 1.296595 0.449773
v 0.037751 1.291062 0.454973
v 0.033887 1.294545 0.456690
v 0.037234 1.292804 0.455831
v 0.035819 1.294078 0.456460
v 0.037751 1.287638 0.460480
v 0.033887 1.290718 0.462844
v 0.037234 1.289178 0.461662
v 0.035819 1.290306 0.462527
v 0.037751 1.283204 0.465213
v 0.033887 1.285765 0.468133
v 0.037234 1.284484 0.466673
v 0.035819 1.285422 0.467742
v 0.037751 1.277933 0.468991
v 0.033887 1.279874 0.472354
v 0.037234 1.278904 0.470672
v 0.035819 1.279614 0.471903
v 0.037751 1.272026 0.471667
v 0.033887 1.273274 0.475345
v 0.037234 1.272650 0.473506
v 0.035819 1.273107 0.474852
v -0.037751 1.262750 0.320420
v -0.037142 1.265774 0.313782
v -0.037670 1.264557 0.319346
v -0.037447 1.265664 0.316916
v 0.037142 1.265774 0.313782
v 0.037751 1.262750 0.320420
v 0.037447 1.265664 0.316916
v 0.037670 1.264557 0.319346
vt 1.000000 1.000000
vt 0.937500 0.500000
vt 1.000000 0.500000
vt 0.875000 1.000000
vt 0.875000 0.500000
vt 0.812500 0.500000
vt 0.812500 1.000000
vt 0.750000 0.500000
vt 0.750000 1.000000
vt 0.687500 0.500000
vt 0.687500 1.000000
vt 0.625000 0.500000
vt 0.625000 1.000000
vt 0.562500 0.500000
vt 0.562500 1.000000
vt 0.500000 0.500000
vt 0.437500 1.000000
vt 0.437500 0.500000
vt 0.375000 1.000000
vt 0.375000 0.500000
vt 0.312500 0.500000
vt 0.250000 1.000000
vt 0.250000 0.500000
vt 0.187500 0.500000
vt 0.125000 1.000000
vt 0.125000 0.500000
vt 0.419706 0.419706
vt 0.080294 0.419706
vt 0.080294 0.080294
vt 0.062500 0.500000
vt 0.000000 1.000000
vt 0.000000 0.500000
vt 0.625000 0.500000
vt 0.375000 0.500000
vt 0.437500 0.500000
vt 0.062500 0.500000
vt 0.562500 0.500000
vt 0.500000 0.500000
vt 0.250000 0.500000
vt 0.750000 0.500000
vt 0.937500 0.500000
vt 0.875000 0.500000
vt 0.312500 0.500000
vt 0.812500 0.500000
vt 1.000000 0.500000
vt 0.125000 0.500000
vt 0.187500 0.500000
vt 0.687500 0.500000
vt 0.375000 0.395007
vt 0.375000 0.354993
vt 0.375000 0.354993
vt 0.375000 0.250000
vt 0.375000 0.250000
vt 0.375000 0.250000
vt 0.375000 0.500000
vt 0.125000 0.500000
vt 0.270007 0.500000
vt 0.137796 0.500000
vt 0.362204 0.500000
vt 0.362204 0.500000
vt 0.137796 0.500000
vt 0.362204 0.500000
vt 0.362204 0.500000
vt 0.375000 0.500000
vt 0.375000 0.500000
vt 0.612204 0.500000
vt 0.436542 0.013734
vt 0.476028 0.007956
vt 0.389963 0.021054
vt 0.362204 0.735454
vt 0.137796 0.738844
vt 0.137796 0.735454
vt 0.872983 0.500000
vt 0.627017 0.500000
vt 0.770007 0.500000
vt 0.375000 0.250000
vt 0.375000 0.250000
vt 0.375000 0.250000
vt 0.375000 0.500000
vt 0.375000 0.500000
vt 0.137796 0.500000
vt 0.362204 0.731929
vt 0.137796 0.731929
vt 0.362204 0.725499
vt 0.137796 0.725499
vt 0.381060 0.510326
vt 0.382922 0.546999
vt 0.137796 0.680300
vt 0.362204 0.634427
vt 0.362204 0.680301
vt 0.137796 0.634427
vt 0.362204 0.589641
vt 0.137796 0.589641
vt 0.362204 0.500000
vt 0.137796 0.500000
vt 0.362204 0.500000
vt 0.137796 0.500000
vt 0.526917 0.250000
vt 0.612204 0.250000
vt 0.612204 0.250000
vt 0.473520 0.762796
vt 0.497398 0.987204
vt 0.473520 0.987204
vt 0.362204 0.738844
vt 0.137796 0.741969
vt 0.362204 0.741969
vt 0.137796 0.750000
vt 0.375000 0.762796
vt 0.429398 0.987204
vt 0.375000 0.987204
vt 0.429398 0.762796
vt 0.450559 0.987204
vt 0.450559 0.762796
vt 0.526480 0.987204
vt 0.502602 0.762796
vt 0.526480 0.762796
vt 0.497398 0.762796
vt 0.549441 0.987204
vt 0.549441 0.762796
vt 0.625000 0.250000
vt 0.375000 0.250000
vt 0.862204 0.672515
vt 0.637796 0.690573
vt 0.637796 0.672515
vt 0.862204 0.690573
vt 0.637796 0.707217
vt 0.862204 0.707217
vt 0.637796 0.750000
vt 0.625000 0.987204
vt 0.570602 0.762796
vt 0.625000 0.762796
vt 0.570602 0.987204
vt 0.862204 0.653734
vt 0.637796 0.653734
vt 0.476028 0.742044
vt 0.436542 0.736267
vt 0.406320 0.731683
vt 0.625000 0.354993
vt 0.375000 0.334510
vt 0.625000 0.334510
vt 0.375000 0.314814
vt 0.625000 0.314814
vt 0.375000 0.296662
vt 0.625000 0.296662
vt 0.375000 0.250000
vt 0.625000 0.250000
vt 0.375000 0.250000
vt 0.625000 0.250000
vt 0.375000 0.250000
vt 0.625000 0.250000
vt 0.625000 0.250000
vt 0.625000 0.500000
vt 0.625101 0.500000
vt 0.375000 0.500000
vt 0.625000 0.500000
vt 0.375000 0.500000
vt 0.625000 0.500000
vt 0.375000 0.500000
vt 0.625000 0.500000
vt 0.375000 0.500000
vt 0.625000 0.453338
vt 0.375000 0.453338
vt 0.625000 0.435186
vt 0.375000 0.435186
vt 0.625000 0.415490
vt 0.375000 0.415490
vt 0.625000 0.395007
vt 0.375000 0.500000
vt 0.375000 0.500000
vt 0.375000 0.500000
vt 0.375000 0.500000
vt 0.375000 0.435186
vt 0.375000 0.415490
vt 0.375000 0.395007
vt 0.375000 0.250000
vt 0.375000 0.250000
vt 0.375000 0.250000
vt 0.375000 0.250000
vt 0.375000 0.296662
vt 0.375000 0.314814
vt 0.375000 0.334510
vt 0.131398 0.500000
vt 0.131398 0.500000
vt 0.125000 0.500000
vt 0.375000 0.250000
vt 0.375000 0.250000
vt 0.131398 0.500000
vt 0.125000 0.500000
vt 0.125000 0.500000
vt 0.375000 0.250000
vt 0.375000 0.250000
vt 0.131398 0.500000
vt 0.125000 0.500000
vt 0.375000 0.250000
vt 0.375000 0.250000
vt 0.131398 0.500000
vt 0.125000 0.500000
vt 0.375000 0.250000
vt 0.131398 0.499662
vt 0.131398 0.589986
vt 0.375000 0.250000
vt 0.375000 0.250000
vt 0.131398 0.589467
vt 0.131398 0.634611
vt 0.125000 0.589641
vt 0.375000 0.250000
vt 0.131398 0.634233
vt 0.131398 0.681068
vt 0.125000 0.634427
vt 0.375000 0.250000
vt 0.375000 0.250000
vt 0.131398 0.723308
vt 0.131398 0.680650
vt 0.125000 0.717321
vt 0.125000 0.681606
vt 0.375000 0.250000
vt 0.375000 0.250000
vt 0.368602 0.724283
vt 0.368602 0.680859
vt 0.381119 0.716416
vt 0.381349 0.682592
vt 0.387239 0.707333
vt 0.368602 0.634422
vt 0.380556 0.634188
vt 0.386135 0.633388
vt 0.387577 0.683671
vt 0.368602 0.589467
vt 0.379813 0.589216
vt 0.384654 0.588465
vt 0.368602 0.499662
vt 0.368602 0.589986
vt 0.375000 0.500000
vt 0.375000 0.589641
vt 0.368602 0.500000
vt 0.368602 0.500000
vt 0.375000 0.510111
vt 0.375000 0.547665
vt 0.368602 0.500000
vt 0.375000 0.500000
vt 0.375000 0.478422
vt 0.368602 0.500000
vt 0.375000 0.500000
vt 0.375000 0.453816
vt 0.379252 0.479501
vt 0.368602 0.500000
vt 0.375000 0.500000
vt 0.375000 0.500000
vt 0.375000 0.452377
vt 0.375000 0.442873
vt 0.377007 0.451754
vt 0.131398 0.500000
vt 0.137796 0.500000
vt 0.125000 0.500000
vt 0.375000 0.250000
vt 0.375000 0.250000
vt 0.374429 0.500000
vt 0.368602 0.500000
vt 0.375000 0.018071
vt 0.377290 0.015533
vt 0.125000 0.735362
vt 0.131398 0.731834
vt 0.131398 0.735430
vt 0.389963 0.728946
vt 0.381130 0.728609
vt 0.387260 0.725061
vt 0.383658 0.731747
vt 0.368602 0.731821
vt 0.368602 0.735430
vt 0.384134 0.014405
vt 0.396197 0.019423
vt 0.125000 0.738755
vt 0.131398 0.735478
vt 0.131398 0.738821
vt 0.384134 0.735595
vt 0.377535 0.734564
vt 0.375000 0.738755
vt 0.368602 0.735478
vt 0.375000 0.735543
vt 0.368602 0.738820
vt 0.406320 0.018317
vt 0.384614 0.014364
vt 0.395331 0.013924
vt 0.125000 0.738926
vt 0.131398 0.741947
vt 0.125000 0.741887
vt 0.131398 0.738866
vt 0.384614 0.735636
vt 0.396197 0.730577
vt 0.375000 0.738926
vt 0.368602 0.741947
vt 0.368602 0.738866
vt 0.410450 0.012489
vt 0.419942 0.016617
vt 0.125000 0.749789
vt 0.131398 0.742025
vt 0.131398 0.749943
vt 0.410450 0.737511
vt 0.396028 0.736127
vt 0.375000 0.749789
vt 0.368602 0.742025
vt 0.375000 0.742180
vt 0.362204 0.750000
vt 0.411337 0.012358
vt 0.428911 0.008983
vt 0.376429 1.000000
vt 0.429015 0.993602
vt 0.427969 1.000000
vt 0.411337 0.737642
vt 0.419942 0.733383
vt 0.376429 0.750000
vt 0.429015 0.756398
vt 0.375383 0.756398
vt 0.455480 0.010428
vt 0.429954 0.008776
vt 0.450003 0.004665
vt 0.429954 1.000000
vt 0.450410 0.993602
vt 0.450003 1.000000
vt 0.429547 0.993602
vt 0.455480 0.739572
vt 0.429954 0.741224
vt 0.429954 0.750000
vt 0.450410 0.756398
vt 0.429547 0.756398
vt 0.451162 0.004464
vt 0.472917 0.001329
vt 0.451162 1.000000
vt 0.473358 0.993602
vt 0.472917 1.000000
vt 0.450720 0.993602
vt 0.451162 0.745536
vt 0.451162 0.750000
vt 0.473358 0.756398
vt 0.450720 0.756398
vt 0.497086 0.000016
vt 0.498027 0.007208
vt 0.474147 1.000000
vt 0.497315 0.993602
vt 0.497086 1.000000
vt 0.473688 0.993602
vt 0.497713 0.746386
vt 0.474774 0.745376
vt 0.497399 0.756398
vt 0.473688 0.756398
vt 0.610037 0.673089
vt 0.618602 0.654652
vt 0.616342 0.673007
vt 0.631398 0.653734
vt 0.631398 0.672382
vt 0.610037 0.076911
vt 0.618602 0.095348
vt 0.612204 0.094442
vt 0.616342 0.076993
vt 0.624992 0.096199
vt 0.875000 0.672382
vt 0.875000 0.653800
vt 0.603803 0.689974
vt 0.609743 0.690991
vt 0.622599 0.673036
vt 0.615732 0.691844
vt 0.625000 0.672642
vt 0.625000 0.690446
vt 0.603803 0.060026
vt 0.609743 0.059009
vt 0.622599 0.076964
vt 0.875000 0.672642
vt 0.593680 0.705729
vt 0.599026 0.707803
vt 0.604451 0.709732
vt 0.625000 0.707099
vt 0.593680 0.044271
vt 0.604451 0.040268
vt 0.615603 0.057896
vt 0.875000 0.707099
vt 0.875000 0.690691
vt 0.580058 0.719239
vt 0.584604 0.722175
vt 0.589257 0.725004
vt 0.625000 0.749699
vt 0.580058 0.030761
vt 0.599026 0.042197
vt 0.589257 0.024996
vt 0.604264 0.040034
vt 0.875000 0.749699
vt 0.875000 0.707518
vt 0.567030 0.733113
vt 0.563458 0.729660
vt 0.570733 0.736477
vt 0.624617 0.750000
vt 0.570985 0.750000
vt 0.567030 0.016887
vt 0.584604 0.027825
vt 0.570733 0.013523
vt 0.589019 0.024808
vt 0.624617 1.000000
vt 0.544520 0.736863
vt 0.546981 0.740557
vt 0.549590 0.744182
vt 0.570453 0.750000
vt 0.549590 0.750000
vt 0.544520 0.013137
vt 0.563458 0.020340
vt 0.549590 0.005818
vt 0.570453 0.013389
vt 0.570453 1.000000
vt 0.523971 0.741107
vt 0.525226 0.744860
vt 0.549280 0.744266
vt 0.526642 0.748579
vt 0.549280 0.750000
vt 0.526642 0.750000
vt 0.523971 0.008893
vt 0.546981 0.009443
vt 0.526642 0.001421
vt 0.549280 0.005734
vt 0.549280 1.000000
vt 0.502287 0.746351
vt 0.501973 0.742727
vt 0.502601 0.756398
vt 0.526312 0.756398
vt 0.502287 0.003649
vt 0.525226 0.005140
vt 0.502685 0.000005
vt 0.526312 0.001381
vt 0.526312 1.000000
vt 0.502602 0.987204
vt 0.131398 0.725257
vt 0.125000 0.731481
vt 0.125000 0.725499
vt 0.375000 0.024501
vt 0.387260 0.024939
vt 0.387239 0.042667
vt 0.502517 1.000000
vt 0.497483 1.000000
vt 0.502517 0.000000
vt 0.497713 0.003614
vt 0.497483 0.000000
vt 0.501973 0.007273
vt 0.862204 0.500000
vt 0.875000 0.653668
vt 0.625000 0.250000
vt 0.625000 0.096332
vt 0.618602 0.250000
vt 0.498027 0.742792
vt 0.612203 0.655558
vt 0.618602 0.500000
vt 0.631398 0.500000
vt 0.637796 0.500000
vt 0.618602 0.250000
vt 0.625000 0.250000
vt 0.875000 0.500000
vt 0.872983 0.500000
vt 0.612204 0.500000
vt 0.618602 0.500000
vt 0.937500 1.000000
vt 0.500000 1.000000
vt 0.312500 1.000000
vt 0.187500 1.000000
vt 0.341844 0.471731
vt 0.250000 0.490000
vt 0.158156 0.471731
vt 0.028269 0.341844
vt 0.010000 0.250000
vt 0.028269 0.158156
vt 0.158156 0.028269
vt 0.250000 0.010000
vt 0.341844 0.028269
vt 0.419706 0.080294
vt 0.471731 0.158156
vt 0.490000 0.250000
vt 0.471731 0.341844
vt 0.062500 1.000000
vt 0.000000 0.500000
vt 0.375000 0.250000
vt 0.125000 0.500000
vt 0.126714 0.500000
vt 0.127017 0.500000
vt 0.209510 0.500000
vt 0.132992 0.500000
vt 0.142695 0.500000
vt 0.155752 0.500000
vt 0.171662 0.500000
vt 0.189814 0.500000
vt 0.229993 0.500000
vt 0.290490 0.500000
vt 0.310186 0.500000
vt 0.328338 0.500000
vt 0.344248 0.500000
vt 0.357305 0.500000
vt 0.367008 0.500000
vt 0.372983 0.500000
vt 0.526917 0.500000
vt 0.627017 0.500000
vt 0.632992 0.500000
vt 0.642695 0.500000
vt 0.655752 0.500000
vt 0.671662 0.500000
vt 0.689814 0.500000
vt 0.709510 0.500000
vt 0.729993 0.500000
vt 0.790490 0.500000
vt 0.810186 0.500000
vt 0.828338 0.500000
vt 0.844248 0.500000
vt 0.857305 0.500000
vt 0.867008 0.500000
vt 0.623286 0.250000
vt 0.862204 0.750000
vt 0.625000 0.500000
vt 0.375000 0.453338
vt 0.125000 0.680300
vt 0.375000 0.250000
vt 0.375000 0.439570
vt 0.125000 0.731929
vt 0.377535 0.015436
vt 0.125000 0.735543
vt 0.395331 0.736076
vt 0.375000 0.741887
vt 0.396028 0.013873
vt 0.125000 0.742180
vt 0.368602 0.749943
vt 0.375383 0.993602
vt 0.428911 0.741017
vt 0.427969 0.750000
vt 0.450003 0.745335
vt 0.450003 0.750000
vt 0.472917 0.748671
vt 0.472917 0.750000
vt 0.474147 0.001209
vt 0.622664 0.077234
vt 0.615732 0.058156
vt 0.875000 0.690446
vt 0.615603 0.692104
vt 0.625000 0.690691
vt 0.604265 0.709966
vt 0.625000 0.707518
vt 0.589019 0.725192
vt 0.570985 1.000000
vt 0.570453 0.736611
vt 0.549590 1.000000
vt 0.526642 1.000000
vt 0.502685 1.000000
vt 0.375000 0.018519
vt 0.875000 0.500000
vn 0.0000 -0.1305 -0.9914
vn 0.3827 -0.1206 -0.9160
vn 0.7071 -0.0923 -0.7011
vn 0.9239 -0.0500 -0.3794
vn 1.0000 0.0000 0.0000
vn 0.9239 0.0500 0.3794
vn 0.7071 0.0923 0.7011
vn 0.3827 0.1206 0.9160
vn 0.0000 0.1305 0.9914
vn -0.3827 0.1206 0.9160
vn -0.7071 0.0923 0.7011
vn -0.9239 0.0500 0.3794
vn -1.0000 -0.0000 -0.0000
vn -0.9239 -0.0500 -0.3794
vn -0.7071 -0.0923 -0.7011
vn -0.0000 0.9914 -0.1305
vn -0.3827 -0.1206 -0.9160
vn 0.3088 -0.4883 0.8162
vn 0.5706 -0.5111 0.6428
vn -0.3088 -0.4883 0.8162
vn -0.5706 -0.5111 0.6428
vn 0.0000 -0.6909 -0.7230
vn -0.3088 -0.6829 -0.6621
vn -0.0000 -0.4802 0.8771
vn -0.7455 -0.6259 -0.2291
vn -0.8069 -0.5856 0.0771
vn 0.7455 -0.5453 0.3833
vn 0.8069 -0.5856 0.0771
vn 0.5706 -0.6600 -0.4886
vn 0.3088 -0.6829 -0.6621
vn -0.7455 -0.5453 0.3833
vn 0.7455 -0.6259 -0.2291
vn -0.5706 -0.6600 -0.4886
vn -0.0000 -0.9914 0.1305
vn 0.0491 -0.1302 -0.9903
vn -0.0491 -0.1304 -0.9903
vn -0.0491 -0.1302 -0.9903
vn -0.9988 -0.0064 -0.0486
vn -0.9932 -0.0193 0.1148
vn -0.9988 -0.0064 -0.0487
vn -0.1318 -0.4687 0.8735
vn 0.1369 -0.3228 0.9365
vn 0.1318 -0.4687 0.8735
vn -0.1299 -0.1088 0.9855
vn 0.1184 0.0064 0.9929
vn 0.1299 -0.1088 0.9855
vn 0.9988 -0.0064 -0.0487
vn 0.9990 0.0079 -0.0440
vn -0.9904 -0.0610 0.1237
vn -0.9904 -0.0090 0.1376
vn -0.9904 -0.1306 0.0443
vn 0.1301 -0.9389 0.3187
vn -0.1301 -0.8587 0.4958
vn -0.1301 -0.9389 0.3187
vn 0.0000 0.9798 -0.1998
vn -0.9923 -0.1005 0.0727
vn -0.9923 -0.0887 0.0869
vn 0.9932 -0.0193 0.1148
vn 0.9910 0.0008 0.1338
vn 0.9988 -0.0064 -0.0486
vn -0.1369 -0.3228 0.9365
vn 0.1277 -0.9755 0.1792
vn -0.1277 -0.9755 0.1792
vn 0.1302 -0.9766 0.1711
vn -0.1302 -0.9766 0.1711
vn 0.9923 -0.0747 0.0990
vn 0.9923 -0.0887 0.0869
vn -0.1343 -0.9438 0.3020
vn 0.1318 -0.8828 0.4509
vn 0.1343 -0.9438 0.3020
vn -0.1318 -0.8828 0.4509
vn 0.1317 -0.8031 0.5811
vn -0.1317 -0.8031 0.5810
vn 0.1317 -0.7080 0.6938
vn -0.1317 -0.7080 0.6938
vn 0.1317 -0.5972 0.7912
vn -0.1317 -0.5972 0.7912
vn -0.9912 0.1276 -0.0348
vn -0.9990 0.0079 -0.0440
vn 0.1301 -0.0648 0.9894
vn -0.1302 0.0810 0.9882
vn -0.1301 -0.0648 0.9894
vn 0.1301 -0.8587 0.4958
vn -0.1301 -0.7454 0.6538
vn 0.1301 -0.7454 0.6538
vn -0.1301 -0.6036 0.7866
vn 0.1301 -0.6036 0.7866
vn -0.1301 -0.4385 0.8892
vn 0.1301 -0.4385 0.8892
vn -0.1301 -0.2566 0.9577
vn 0.1301 -0.2566 0.9577
vn -0.1301 0.3187 0.9389
vn 0.1302 0.1775 0.9755
vn 0.1301 0.3187 0.9389
vn 0.1302 0.0810 0.9882
vn -0.1301 0.4958 0.8587
vn 0.1301 0.4957 0.8587
vn -0.9928 0.0740 -0.0939
vn -0.9808 -0.0254 -0.1934
vn -0.1301 0.9894 0.0649
vn 0.1301 0.9577 0.2566
vn 0.1301 0.9894 0.0649
vn -0.1301 0.9577 0.2566
vn 0.1301 0.8893 0.4385
vn -0.1301 0.8892 0.4385
vn 0.1301 0.7866 0.6036
vn -0.1301 0.7866 0.6036
vn 0.1301 0.6537 0.7454
vn -0.1301 0.6537 0.7454
vn -0.1293 0.9812 -0.1431
vn 0.1293 0.9812 -0.1431
vn 0.9904 -0.0090 0.1376
vn 0.9904 -0.0610 0.1237
vn 0.9904 -0.1037 0.0909
vn -0.0491 -0.1300 -0.9903
vn -0.1951 -0.1279 -0.9724
vn -0.1951 -0.1277 -0.9724
vn -0.3827 -0.1204 -0.9160
vn -0.3827 -0.1203 -0.9160
vn -0.5556 -0.1084 -0.8244
vn -0.5556 -0.1083 -0.8244
vn -0.7071 -0.0922 -0.7011
vn -0.7071 -0.0921 -0.7011
vn -0.8315 -0.0724 -0.5508
vn -0.8315 -0.0723 -0.5508
vn -0.9239 -0.0499 -0.3794
vn -0.9239 -0.0498 -0.3794
vn -0.9569 -0.0378 -0.2878
vn 0.9797 -0.0261 -0.1987
vn 0.9964 0.0224 -0.0813
vn 0.9808 -0.0254 -0.1934
vn 0.9239 -0.0498 -0.3794
vn 0.9239 -0.0499 -0.3794
vn 0.8315 -0.0723 -0.5508
vn 0.8315 -0.0724 -0.5508
vn 0.7071 -0.0921 -0.7011
vn 0.7071 -0.0922 -0.7011
vn 0.5556 -0.1083 -0.8244
vn 0.5556 -0.1084 -0.8244
vn 0.3827 -0.1203 -0.9160
vn 0.3827 -0.1204 -0.9160
vn 0.1951 -0.1277 -0.9724
vn 0.1951 -0.1279 -0.9724
vn 0.0491 -0.1300 -0.9903
vn 0.9808 -0.0255 -0.1934
vn 0.8315 -0.0725 -0.5508
vn 0.1951 -0.1280 -0.9724
vn 0.0491 -0.1304 -0.9903
vn -0.9808 -0.0255 -0.1934
vn -0.8315 -0.0725 -0.5508
vn -0.5556 -0.1085 -0.8244
vn -0.1951 -0.1280 -0.9724
vn -0.5013 -0.0926 0.8603
vn -0.5196 -0.2792 0.8075
vn -0.8747 -0.0613 0.4807
vn -0.8804 -0.1509 0.4496
vn -0.5067 -0.4076 0.7596
vn -0.7082 -0.3338 0.6221
vn -0.9923 -0.0585 0.1090
vn -0.9931 -0.0355 0.1118
vn -0.2595 -0.5818 0.7708
vn -0.8719 -0.2950 0.3909
vn -0.9661 -0.1220 0.2274
vn -0.9923 -0.0747 0.0990
vn -0.5062 -0.6159 0.6036
vn -0.7081 -0.4254 0.5636
vn -0.8718 -0.3499 0.3429
vn -0.5064 -0.6986 0.5054
vn -0.9661 -0.2091 0.1513
vn -0.5067 -0.7677 0.3922
vn -0.7081 -0.5721 0.4139
vn -0.8722 -0.4356 0.2225
vn -0.5133 -0.8172 0.2620
vn -0.8762 -0.4595 0.1452
vn -0.9923 -0.1102 0.0563
vn -0.5003 -0.8529 0.1493
vn -0.8697 -0.4854 0.0896
vn -0.9922 -0.1222 0.0245
vn -0.9927 -0.1154 0.0354
vn 0.5003 -0.8529 0.1493
vn 0.5133 -0.8172 0.2620
vn 0.8697 -0.4854 0.0896
vn 0.8762 -0.4595 0.1452
vn 0.9922 -0.1222 0.0245
vn 0.5067 -0.7677 0.3922
vn 0.8722 -0.4356 0.2225
vn 0.9923 -0.1102 0.0563
vn 0.9927 -0.1154 0.0354
vn 0.5064 -0.6986 0.5054
vn 0.8719 -0.3968 0.2870
vn 0.9923 -0.1005 0.0727
vn 0.5063 -0.6159 0.6036
vn 0.8718 -0.3499 0.3429
vn 0.5064 -0.5195 0.6883
vn 0.8719 -0.2950 0.3909
vn 0.5067 -0.4077 0.7596
vn 0.9661 -0.1220 0.2274
vn 0.5196 -0.2792 0.8075
vn 0.7082 -0.3338 0.6221
vn 0.8804 -0.1509 0.4496
vn 0.9923 -0.0585 0.1090
vn 0.5013 -0.0926 0.8603
vn 0.8747 -0.0613 0.4807
vn 0.9931 -0.0355 0.1118
vn -0.4718 0.0056 0.8817
vn -0.1184 0.0064 0.9929
vn -0.6666 0.0047 0.7454
vn -0.9910 0.0008 0.1338
vn -0.9579 0.0018 0.2870
vn 0.9579 0.0018 0.2870
vn 0.6666 0.0047 0.7454
vn 0.4718 0.0056 0.8817
vn -0.8585 -0.5049 0.0898
vn -0.8600 -0.4833 0.1641
vn -0.4908 -0.8569 0.1575
vn -0.4947 -0.8230 0.2794
vn 0.9904 -0.1306 0.0443
vn 0.8585 -0.5049 0.0898
vn 0.9905 -0.1359 0.0229
vn 0.8600 -0.4833 0.1641
vn 0.4908 -0.8569 0.1575
vn 0.4947 -0.8230 0.2793
vn -0.8600 -0.4420 0.2552
vn -0.9904 -0.1194 0.0689
vn -0.4947 -0.7526 0.4345
vn 0.8600 -0.4420 0.2552
vn 0.4947 -0.7526 0.4345
vn -0.9904 -0.1037 0.0909
vn -0.8600 -0.3837 0.3365
vn -0.7088 -0.5303 0.4651
vn -0.2600 -0.7260 0.6367
vn 0.9904 -0.1194 0.0689
vn 0.7088 -0.5303 0.4651
vn -0.8600 -0.3107 0.4049
vn -0.9904 -0.0839 0.1094
vn -0.7088 -0.4294 0.5596
vn -0.2600 -0.5878 0.7661
vn 0.8600 -0.3107 0.4049
vn 0.8600 -0.3837 0.3365
vn 0.2600 -0.7260 0.6367
vn -0.8600 -0.2257 0.4577
vn -0.4947 -0.3844 0.7795
vn 0.9904 -0.0839 0.1094
vn 0.4947 -0.3844 0.7795
vn 0.7088 -0.4294 0.5596
vn 0.2600 -0.5878 0.7661
vn -0.9904 -0.0357 0.1332
vn -0.8600 -0.1321 0.4930
vn -0.4947 -0.2249 0.8395
vn 0.9904 -0.0357 0.1332
vn 0.8600 -0.2257 0.4577
vn 0.4947 -0.2249 0.8395
vn -0.8600 -0.0334 0.5093
vn -0.4947 -0.0568 0.8672
vn 0.8600 -0.1321 0.4930
vn 0.4947 -0.0568 0.8672
vn -0.8628 0.0413 0.5039
vn -0.9909 0.0110 0.1339
vn -0.4969 0.0709 0.8649
vn 0.8628 0.0413 0.5039
vn 0.8600 -0.0334 0.5093
vn 0.4969 0.0709 0.8649
vn 0.9904 0.1376 0.0090
vn 0.8578 0.5084 -0.0753
vn 0.8600 0.5093 0.0334
vn 0.4919 0.8615 -0.1257
vn 0.4947 0.8672 0.0568
vn -0.9904 0.1376 0.0090
vn -0.8578 0.5084 -0.0753
vn -0.9902 0.1383 -0.0210
vn -0.8600 0.5093 0.0334
vn -0.4919 0.8615 -0.1257
vn -0.4947 0.8672 0.0568
vn 0.9904 0.1332 0.0357
vn 0.9662 0.2489 0.0667
vn 0.7088 0.6814 0.1826
vn 0.4947 0.8395 0.2249
vn -0.9904 0.1332 0.0357
vn -0.7088 0.6814 0.1826
vn 0.9904 0.1237 0.0610
vn 0.9662 0.2311 0.1140
vn 0.4947 0.7795 0.3844
vn 0.7088 0.6327 0.3120
vn -0.9904 0.1237 0.0610
vn -0.9662 0.2489 0.0667
vn -0.4947 0.7795 0.3844
vn -0.4947 0.8395 0.2249
vn 0.9904 0.1094 0.0839
vn 0.9662 0.2044 0.1569
vn 0.4947 0.6895 0.5291
vn 0.7088 0.5596 0.4294
vn -0.9904 0.1094 0.0839
vn -0.9662 0.2311 0.1140
vn -0.7088 0.6327 0.3120
vn -0.4947 0.6895 0.5291
vn 0.9662 0.1699 0.1937
vn 0.9904 0.0909 0.1037
vn 0.4947 0.5730 0.6534
vn 0.7088 0.4651 0.5303
vn -0.9662 0.1699 0.1937
vn -0.9662 0.2044 0.1569
vn -0.7088 0.5596 0.4294
vn -0.4947 0.5730 0.6534
vn 0.9904 0.0689 0.1194
vn 0.8600 0.2552 0.4420
vn 0.4947 0.4345 0.7526
vn -0.9904 0.0689 0.1194
vn -0.9904 0.0909 0.1037
vn -0.7088 0.4651 0.5303
vn -0.4947 0.4345 0.7527
vn 0.9904 0.0443 0.1306
vn 0.8600 0.1641 0.4833
vn 0.4947 0.2794 0.8230
vn -0.9904 0.0443 0.1306
vn -0.8600 0.2552 0.4420
vn -0.4947 0.2794 0.8230
vn 0.8628 0.0905 0.4975
vn 0.9909 0.0241 0.1322
vn 0.7075 0.1265 0.6953
vn 0.2591 0.1729 0.9503
vn -0.8628 0.0905 0.4975
vn -0.8600 0.1641 0.4833
vn -0.7075 0.1265 0.6953
vn -0.1302 0.1775 0.9755
vn -0.9905 -0.1359 0.0229
vn -0.2591 0.1729 0.9503
vn -0.9909 0.0241 0.1322
vn -0.1273 0.9588 -0.2540
vn -0.4946 0.8400 -0.2232
vn -0.9659 0.2498 -0.0677
vn 0.9909 0.0110 0.1339
vn 0.9902 0.1383 -0.0210
vn 0.9659 0.2498 -0.0677
vn 0.4946 0.8400 -0.2232
vn 0.1273 0.9588 -0.2540
vn -0.9967 0.0657 -0.0473
vn -0.9869 0.1601 -0.0177
vn -0.9737 0.2139 -0.0788
vn -0.8958 0.4387 -0.0717
vn 0.9912 0.1276 -0.0348
vn 0.7040 0.6856 -0.1855
vn 0.7041 0.6860 -0.1835
vn 0.2568 0.9341 -0.2480
vn 0.0000 0.9914 -0.1306
vn 0.0000 0.9915 -0.1305
vn 0.0001 -0.9914 0.1305
vn -0.0001 -0.9914 0.1306
vn -0.0000 -0.9915 0.1303
vn 0.0000 -0.9914 0.1306
vn -0.0000 -0.9914 0.1307
vn -0.0000 -0.9915 0.1305
vn 0.0000 0.0000 1.0000
vn -0.0001 0.9914 -0.1305
vn -0.0000 0.9914 -0.1307
vn 0.0001 0.9914 -0.1305
vn 0.9967 0.0657 -0.0473
vn 0.5556 -0.1085 -0.8244
vn -0.7041 0.6860 -0.1835
vn -0.7040 0.6856 -0.1855
vn -0.2568 0.9341 -0.2480
vn 0.9869 0.1601 -0.0177
vn 0.8958 0.4386 -0.0717
s 1
f 2/1/1 3/2/2 1/3/1
f 3/2/2 6/4/3 5/5/3
f 6/4/3 7/6/4 5/5/3
f 8/7/4 9/8/5 7/6/4
f 10/9/5 11/10/6 9/8/5
f 12/11/6 13/12/7 11/10/6
f 14/13/7 15/14/8 13/12/7
f 16/15/8 17/16/9 15/14/8
f 17/16/9 20/17/10 19/18/10
f 19/18/10 22/19/11 21/20/11
f 22/19/11 23/21/12 21/20/11
f 23/21/12 26/22/13 25/23/13
f 26/22/13 27/24/14 25/23/13
f 27/24/14 30/25/15 29/26/15
f 6/27/16 30/28/16 22/29/16
f 30/25/15 31/30/17 29/26/15
f 31/30/17 2/31/1 1/32/1
f 15/14/18 42/33/19 13/12/19
f 19/18/20 38/34/21 39/35/20
f 1/32/22 33/36/23 31/30/23
f 17/16/24 41/37/18 15/14/18
f 17/16/24 39/35/20 40/38/24
f 27/24/25 36/39/26 25/23/26
f 11/10/27 44/40/28 9/8/28
f 5/5/29 47/41/30 3/2/30
f 23/21/31 38/34/21 21/20/21
f 7/6/32 46/42/29 5/5/29
f 25/23/26 37/43/31 23/21/31
f 7/6/32 44/40/28 45/44/32
f 1/3/22 47/41/30 48/45/22
f 27/24/25 34/46/33 35/47/25
f 13/12/19 43/48/27 11/10/27
f 45/44/34 41/37/34 37/43/34
f 29/26/33 33/36/23 34/46/33
f 71/49/35 97/50/36 61/51/37
f 96/52/38 121/53/39 62/54/40
f 88/55/34 96/56/34 87/57/34
f 133/58/41 189/59/42 185/60/43
f 122/61/44 114/62/45 161/63/46
f 51/64/5 70/65/47 342/66/48
f 217/67/49 225/68/50 201/69/51
f 298/70/52 206/71/53 202/72/54
f 60/73/55 80/74/55 53/75/16
f 146/76/56 49/77/13 142/78/57
f 162/79/58 113/80/59 88/55/60
f 129/81/61 161/63/46 189/59/42
f 270/82/62 202/72/54 194/83/63
f 158/84/64 194/83/63 125/85/65
f 182/86/66 51/64/5 178/87/67
f 153/88/68 169/89/69 165/90/70
f 149/91/71 173/92/72 169/89/69
f 145/93/73 177/94/74 173/92/72
f 141/95/75 181/96/76 177/94/74
f 137/97/77 185/60/43 181/96/76
f 125/85/65 165/90/70 158/84/64
f 49/98/13 106/99/78 337/100/79
f 274/101/80 198/102/81 226/103/82
f 294/104/83 210/105/84 206/71/53
f 290/106/85 214/107/86 210/105/84
f 286/108/87 218/109/88 214/110/86
f 282/111/89 222/112/90 218/109/88
f 278/113/91 226/103/82 222/112/90
f 238/114/92 306/115/93 334/116/94
f 306/115/93 198/102/81 266/117/95
f 242/118/96 334/116/94 330/119/97
f 338/120/98 69/121/99 337/100/79
f 262/122/100 314/123/101 310/124/102
f 258/125/103 318/126/104 314/123/101
f 254/127/105 322/128/106 318/126/104
f 250/129/107 326/130/108 322/131/106
f 246/132/109 330/119/97 326/130/108
f 234/133/110 310/124/102 302/134/111
f 273/135/112 281/136/113 289/137/114
f 53/138/115 63/139/116 54/140/117
f 54/140/117 64/141/118 55/142/119
f 55/142/119 65/143/120 56/144/121
f 56/144/121 66/145/122 57/146/123
f 57/146/123 67/147/124 58/148/125
f 58/148/125 68/149/126 59/150/127
f 59/150/127 69/121/99 60/151/128
f 80/152/129 343/153/130 342/66/48
f 72/154/131 81/155/132 80/152/129
f 73/156/133 82/157/134 81/155/132
f 74/158/135 83/159/136 82/157/134
f 75/160/137 84/161/138 83/159/136
f 76/162/139 85/163/140 84/161/138
f 77/164/141 86/165/142 85/163/140
f 78/166/143 79/167/144 86/165/142
f 70/65/47 95/168/145 72/154/131
f 72/154/131 94/169/4 73/156/133
f 73/156/133 93/170/146 74/158/135
f 93/170/146 75/160/137 74/158/135
f 92/171/3 76/162/139 75/160/137
f 76/162/139 90/172/2 77/164/141
f 77/164/141 89/173/147 78/166/143
f 78/166/143 87/174/148 71/49/35
f 62/54/40 98/175/149 96/52/38
f 98/175/149 68/149/126 99/176/126
f 99/176/126 67/147/124 100/177/150
f 100/177/150 66/145/122 101/178/15
f 66/145/122 102/179/151 101/178/15
f 65/143/120 103/180/17 102/179/151
f 64/141/118 104/181/152 103/180/17
f 63/139/116 97/50/36 104/181/152
f 53/138/115 71/49/35 61/51/37
f 129/81/61 124/182/153 122/61/44
f 131/183/154 123/184/155 124/182/153
f 132/185/156 121/53/39 123/186/155
f 129/81/61 135/187/157 131/183/154
f 131/183/154 136/188/158 132/189/156
f 132/185/156 134/190/159 130/191/160
f 133/58/41 139/192/161 135/187/157
f 135/187/157 140/193/162 136/188/158
f 136/194/163 138/195/164 134/190/159
f 137/97/77 143/196/165 139/192/161
f 139/192/166 144/197/167 140/193/162
f 140/198/162 142/78/57 138/195/164
f 145/93/73 143/199/165 141/95/75
f 147/200/168 144/197/167 143/199/165
f 148/201/169 142/78/57 144/202/167
f 149/91/71 147/203/168 145/93/73
f 151/204/170 148/205/171 147/203/168
f 152/206/172 146/76/56 148/201/169
f 153/88/68 151/207/170 149/91/71
f 155/208/173 152/209/172 151/207/170
f 156/210/174 150/211/175 152/206/172
f 153/88/68 127/212/176 155/213/173
f 155/213/173 128/214/177 156/215/174
f 156/210/174 126/216/178 154/217/179
f 165/90/70 160/218/180 158/84/64
f 167/219/181 159/220/182 160/218/180
f 168/221/183 157/222/184 159/220/182
f 165/90/70 171/223/185 167/219/181
f 167/219/181 172/224/186 168/221/183
f 168/221/183 170/225/187 166/226/188
f 169/89/69 175/227/189 171/223/185
f 171/223/185 176/228/190 172/224/186
f 172/224/186 174/229/191 170/225/187
f 173/92/72 179/230/192 175/231/189
f 175/231/189 180/232/193 176/233/190
f 176/233/190 178/87/67 174/229/191
f 181/96/76 179/234/192 177/94/74
f 183/235/194 180/232/193 179/234/192
f 184/236/195 178/87/67 180/237/193
f 185/60/43 183/235/194 181/96/76
f 187/238/196 184/239/195 183/235/194
f 188/240/197 182/86/66 184/236/195
f 189/59/42 187/238/196 185/60/43
f 191/241/198 188/242/199 187/238/196
f 192/243/200 186/244/201 188/240/197
f 189/59/42 163/245/202 191/241/198
f 191/241/198 164/246/203 192/247/200
f 192/248/200 162/249/58 190/250/204
f 122/61/44 119/251/205 117/252/206
f 124/182/153 120/253/207 119/251/205
f 123/186/155 118/254/208 120/255/209
f 113/80/59 164/246/203 115/256/210
f 115/256/211 163/245/202 116/257/212
f 116/257/212 161/63/46 114/62/45
f 201/69/51 195/258/213 203/259/214
f 203/260/214 196/261/215 204/262/216
f 204/262/216 194/83/63 202/72/54
f 297/263/217 271/264/218 269/265/219
f 299/266/220 272/267/221 271/264/218
f 300/268/222 270/82/62 272/267/221
f 201/69/51 207/269/223 205/270/224
f 207/271/223 204/272/216 208/273/225
f 204/272/216 206/71/53 208/273/225
f 297/263/217 295/274/226 299/275/220
f 295/276/226 300/277/222 299/278/220
f 296/279/227 298/70/52 300/277/222
f 209/280/228 207/281/223 211/282/229
f 207/283/223 212/284/230 211/285/229
f 208/286/225 210/105/84 212/284/231
f 289/137/114 295/287/226 293/288/232
f 295/289/226 292/290/233 296/291/227
f 296/291/227 290/106/85 294/104/83
f 209/280/228 215/292/234 213/293/235
f 215/294/234 212/295/230 216/296/236
f 216/296/237 210/105/84 214/107/86
f 289/137/114 287/297/238 291/298/239
f 287/299/238 292/300/233 291/301/239
f 292/300/240 286/302/87 290/106/85
f 217/67/49 215/303/234 219/304/241
f 215/305/234 220/306/242 219/307/241
f 220/306/242 214/110/86 218/109/88
f 281/136/113 287/308/238 285/309/243
f 287/310/238 284/311/244 288/312/245
f 284/311/244 286/108/87 288/312/246
f 221/313/247 219/314/241 223/315/248
f 219/316/241 224/317/249 223/318/248
f 220/319/242 222/112/90 224/317/249
f 277/320/250 283/321/251 281/136/113
f 283/322/251 280/323/252 284/324/244
f 284/324/244 278/113/91 282/111/89
f 225/68/50 223/325/248 227/326/253
f 223/327/248 228/328/254 227/329/253
f 224/330/249 226/103/82 228/328/254
f 273/135/112 279/331/255 277/320/250
f 279/332/255 276/333/256 280/334/252
f 280/334/252 274/101/80 278/113/91
f 225/68/50 199/335/257 197/336/258
f 227/337/253 200/338/259 199/339/257
f 228/340/254 198/102/81 200/338/259
f 273/135/112 267/341/260 275/342/261
f 275/342/261 268/343/262 276/344/256
f 276/344/256 266/117/95 274/101/80
f 309/345/263 303/346/264 311/347/265
f 311/347/265 304/348/266 312/349/267
f 312/349/267 302/134/111 310/124/102
f 261/350/268 235/351/269 233/352/270
f 263/353/271 236/354/272 235/351/269
f 264/355/273 234/133/110 236/356/272
f 313/357/274 311/347/265 315/358/275
f 315/358/276 312/359/267 316/360/277
f 312/361/267 314/123/101 316/362/277
f 257/363/278 263/353/271 261/350/268
f 259/364/279 264/365/273 263/353/271
f 264/366/273 258/125/103 262/122/100
f 317/367/280 315/358/275 319/368/281
f 315/358/276 320/369/282 319/368/283
f 320/370/282 314/123/101 318/126/104
f 253/371/284 259/364/285 257/363/278
f 259/364/279 256/372/286 260/373/287
f 256/374/286 258/125/103 260/375/287
f 321/376/288 319/368/281 323/377/289
f 319/368/283 324/378/290 323/377/291
f 324/379/290 318/126/104 322/128/106
f 249/380/292 255/381/293 253/371/284
f 255/381/294 252/382/295 256/383/286
f 252/384/295 254/127/105 256/385/286
f 321/376/288 327/386/296 325/387/297
f 323/377/291 328/388/298 327/386/299
f 324/389/290 326/130/108 328/390/298
f 249/380/292 247/391/300 251/392/301
f 251/392/302 248/393/303 252/394/295
f 252/395/295 246/132/109 250/129/107
f 329/396/304 327/386/296 331/397/305
f 327/386/299 332/398/306 331/397/305
f 328/399/298 330/119/97 332/400/306
f 241/401/307 247/391/300 245/402/308
f 247/391/309 244/403/310 248/404/303
f 248/405/303 242/118/96 246/132/109
f 333/406/311 331/397/305 335/407/312
f 335/407/312 332/408/306 336/409/313
f 332/410/306 334/116/94 336/411/313
f 237/412/314 243/413/315 241/401/307
f 243/413/315 240/414/316 244/415/310
f 244/416/310 238/114/92 242/118/96
f 333/406/311 307/417/317 305/418/318
f 335/407/312 308/419/319 307/417/317
f 336/420/313 306/115/93 308/419/320
f 237/412/314 231/421/321 239/422/322
f 239/422/322 232/423/323 240/424/316
f 240/425/316 230/426/324 238/114/92
f 125/85/65 196/261/215 127/427/176
f 127/427/176 195/428/213 128/429/177
f 128/430/177 193/431/325 126/432/178
f 198/102/81 232/433/326 200/434/259
f 232/435/323 199/436/257 200/437/259
f 199/436/257 229/438/327 197/336/258
f 105/439/328 236/440/272 234/133/110
f 107/441/329 235/351/269 236/442/272
f 108/443/330 233/352/270 235/351/269
f 305/418/318 267/341/260 265/444/331
f 267/341/260 308/419/319 268/343/262
f 308/419/320 266/117/95 268/343/262
f 269/265/219 159/220/182 157/222/184
f 271/264/218 160/218/180 159/220/182
f 272/267/221 158/84/64 160/218/180
f 301/445/332 111/446/333 303/346/264
f 303/346/264 112/447/334 304/348/266
f 304/348/266 110/448/335 302/134/111
f 337/100/79 108/443/330 339/449/336
f 339/449/336 107/441/337 340/450/338
f 340/451/338 105/439/339 338/452/98
f 342/66/48 111/446/333 109/453/340
f 344/454/341 112/447/334 111/446/342
f 343/153/343 110/448/335 112/447/334
f 105/439/328 302/134/111 110/448/335
f 2/1/1 4/455/2 3/2/2
f 3/2/2 4/455/2 6/4/3
f 6/4/3 8/7/4 7/6/4
f 8/7/4 10/9/5 9/8/5
f 10/9/5 12/11/6 11/10/6
f 12/11/6 14/13/7 13/12/7
f 14/13/7 16/15/8 15/14/8
f 16/15/8 18/456/9 17/16/9
f 17/16/9 18/456/9 20/17/10
f 19/18/10 20/17/10 22/19/11
f 22/19/11 24/457/12 23/21/12
f 23/21/12 24/457/12 26/22/13
f 26/22/13 28/458/14 27/24/14
f 27/24/14 28/458/14 30/25/15
f 6/27/16 4/459/16 2/460/344
f 2/460/344 32/461/16 6/27/16
f 32/461/16 30/28/16 6/27/16
f 30/28/16 28/462/16 26/463/16
f 26/463/16 24/464/16 22/29/16
f 22/29/16 20/465/16 18/466/16
f 18/466/16 16/467/345 14/468/16
f 14/468/16 12/469/16 6/27/16
f 12/469/16 10/470/16 6/27/16
f 10/470/16 8/471/16 6/27/16
f 30/28/16 26/463/16 22/29/16
f 22/29/16 18/466/16 6/27/16
f 18/466/16 14/468/16 6/27/16
f 30/25/15 32/472/17 31/30/17
f 31/30/17 32/472/17 2/31/1
f 15/14/18 41/37/18 42/33/19
f 19/18/20 21/20/21 38/34/21
f 1/32/22 48/473/22 33/36/23
f 17/16/24 40/38/24 41/37/18
f 17/16/24 19/18/20 39/35/20
f 27/24/25 35/47/25 36/39/26
f 11/10/27 43/48/27 44/40/28
f 5/5/29 46/42/29 47/41/30
f 23/21/31 37/43/31 38/34/21
f 7/6/32 45/44/32 46/42/29
f 25/23/26 36/39/26 37/43/31
f 7/6/32 9/8/28 44/40/28
f 1/3/22 3/2/30 47/41/30
f 27/24/25 29/26/33 34/46/33
f 13/12/19 42/33/19 43/48/27
f 33/36/34 48/45/34 45/44/34
f 48/45/34 47/41/34 45/44/34
f 47/41/34 46/42/34 45/44/34
f 45/44/34 44/40/34 43/48/34
f 43/48/34 42/33/34 41/37/34
f 41/37/34 40/38/34 37/43/34
f 40/38/34 39/35/34 37/43/34
f 39/35/34 38/34/34 37/43/34
f 37/43/34 36/39/34 35/47/34
f 35/47/34 34/46/34 33/36/34
f 45/44/34 43/48/34 41/37/34
f 37/43/34 35/47/34 33/36/34
f 33/36/34 45/44/34 37/43/34
f 29/26/33 31/30/23 33/36/23
f 71/49/35 87/174/148 97/50/36
f 118/254/208 121/53/39 96/52/38
f 121/53/39 50/474/13 62/54/40
f 88/55/34 113/80/34 114/62/34
f 113/80/34 115/256/346 116/257/34
f 114/62/34 113/80/34 116/257/34
f 114/62/34 117/252/34 96/56/34
f 117/252/34 119/251/34 118/475/34
f 119/251/34 120/476/347 118/475/34
f 118/475/34 96/56/34 117/252/34
f 96/56/34 98/477/34 104/478/34
f 114/62/34 96/56/34 88/55/34
f 98/477/34 99/479/348 100/480/34
f 100/480/34 101/481/34 104/478/34
f 101/481/34 102/482/349 104/478/34
f 102/482/349 103/483/349 104/478/34
f 104/478/34 97/484/34 96/56/34
f 97/484/34 87/57/34 96/56/34
f 87/57/34 89/485/350 90/486/34
f 90/486/34 91/487/349 92/488/34
f 92/488/34 93/489/351 94/490/34
f 94/490/34 95/491/34 88/55/34
f 98/477/34 100/480/34 104/478/34
f 87/57/34 90/486/34 88/55/34
f 90/486/34 92/488/34 94/490/34
f 94/490/34 88/55/34 90/486/34
f 133/58/41 129/81/61 189/59/42
f 122/61/44 117/252/206 114/62/45
f 342/66/48 109/453/340 52/492/5
f 52/492/5 51/64/5 342/66/48
f 126/432/178 193/431/325 233/352/270
f 193/431/325 201/69/51 233/352/270
f 201/69/51 205/270/224 209/280/228
f 209/280/228 213/293/235 217/67/49
f 217/67/49 221/313/247 225/68/50
f 225/68/50 197/336/258 201/69/51
f 197/336/258 229/438/327 233/352/270
f 201/69/51 197/336/258 233/352/270
f 229/438/327 237/412/314 261/350/268
f 237/412/314 241/401/307 249/380/292
f 241/401/307 245/402/308 249/380/292
f 249/380/292 253/371/284 257/363/278
f 257/363/278 261/350/268 249/380/292
f 261/350/268 233/352/270 229/438/327
f 249/380/292 261/350/268 237/412/314
f 233/352/270 106/99/78 49/98/13
f 49/98/13 126/432/178 233/352/270
f 201/69/51 209/280/228 217/67/49
f 298/70/52 294/104/83 206/71/53
f 110/448/352 341/493/352 80/74/352
f 80/74/55 81/494/353 82/495/344
f 82/495/344 83/496/344 80/74/55
f 83/496/344 84/497/16 80/74/55
f 84/497/16 85/498/16 80/74/55
f 85/498/16 86/499/16 80/74/55
f 86/499/16 79/500/16 80/74/55
f 79/500/16 53/75/16 80/74/55
f 53/75/16 54/501/16 60/73/55
f 54/501/16 55/502/16 60/73/55
f 55/502/16 56/503/354 57/504/16
f 57/504/16 58/505/16 60/73/55
f 58/505/16 59/506/355 60/73/55
f 60/73/352 338/452/352 105/439/352
f 55/502/16 57/504/16 60/73/55
f 105/439/328 110/448/335 80/74/55
f 60/73/55 105/439/328 80/74/55
f 50/474/13 121/53/39 130/191/160
f 50/474/13 130/191/160 134/190/159
f 126/216/178 49/77/13 154/217/179
f 49/77/13 50/474/13 142/78/57
f 154/217/179 49/77/13 150/211/175
f 150/211/175 49/77/13 146/76/56
f 50/474/13 134/190/159 138/195/164
f 50/474/13 138/195/164 142/78/57
f 88/55/60 70/65/47 162/79/58
f 70/65/47 51/64/5 162/79/58
f 129/81/61 122/61/44 161/63/46
f 270/82/62 298/70/52 202/72/54
f 158/84/64 270/82/62 194/83/63
f 52/492/5 157/222/184 166/226/188
f 52/492/5 166/226/188 170/225/187
f 162/249/58 51/64/5 190/250/204
f 51/64/5 52/492/5 178/87/67
f 190/250/204 51/64/5 186/244/201
f 186/244/201 51/64/5 182/86/66
f 52/492/5 170/225/187 174/229/191
f 52/492/5 174/229/191 178/87/67
f 153/88/68 149/91/71 169/89/69
f 149/91/71 145/93/73 173/92/72
f 145/93/73 141/95/75 177/94/74
f 141/95/75 137/97/77 181/96/76
f 137/97/77 133/58/41 185/60/43
f 125/85/65 153/88/68 165/90/70
f 62/54/40 50/474/13 337/100/79
f 50/474/13 49/98/13 337/100/79
f 274/101/80 266/117/95 198/102/81
f 294/104/83 290/106/85 210/105/84
f 290/106/85 286/302/87 214/107/86
f 286/108/87 282/111/89 218/109/88
f 282/111/89 278/113/91 222/112/90
f 278/113/91 274/101/80 226/103/82
f 238/114/92 230/426/324 306/115/93
f 306/115/93 230/426/324 198/102/81
f 242/118/96 238/114/92 334/116/94
f 338/120/352 60/151/352 69/121/352
f 69/121/99 62/54/40 337/100/79
f 337/100/79 339/449/336 340/507/338
f 340/507/338 338/120/98 337/100/79
f 262/122/100 258/125/103 314/123/101
f 258/125/103 254/127/105 318/126/104
f 254/127/105 250/508/107 322/128/106
f 250/129/107 246/132/109 326/130/108
f 246/132/109 242/118/96 330/119/97
f 234/133/110 262/122/100 310/124/102
f 269/265/219 157/222/184 301/445/332
f 157/222/184 52/492/5 301/445/332
f 52/492/5 109/453/340 301/445/332
f 301/445/332 309/345/263 305/418/318
f 309/345/263 313/357/274 333/406/311
f 305/418/318 309/345/263 333/406/311
f 313/357/274 317/367/280 329/396/304
f 317/367/280 321/376/288 329/396/304
f 321/376/288 325/387/297 329/396/304
f 329/396/304 333/406/311 313/357/274
f 305/418/318 265/444/331 301/445/332
f 265/444/331 273/135/112 297/263/217
f 297/263/217 273/135/112 289/137/114
f 273/135/112 277/320/250 281/136/113
f 281/136/113 285/309/243 289/137/114
f 289/137/114 293/288/232 297/263/217
f 297/263/217 269/265/219 301/445/332
f 301/445/332 265/444/331 297/263/217
f 53/138/115 61/51/37 63/139/116
f 54/140/117 63/139/116 64/141/118
f 55/142/119 64/141/118 65/143/120
f 56/144/121 65/143/120 66/145/122
f 57/146/123 66/145/122 67/147/124
f 58/148/125 67/147/124 68/149/126
f 59/150/127 68/149/126 69/121/99
f 80/152/352 341/509/352 343/153/352
f 343/153/130 344/454/356 342/66/48
f 342/66/48 70/65/47 72/154/131
f 72/154/131 80/152/129 342/66/48
f 72/154/131 73/156/133 81/155/132
f 73/156/133 74/158/135 82/157/134
f 74/158/135 75/160/137 83/159/136
f 75/160/137 76/162/139 84/161/138
f 76/162/139 77/164/141 85/163/140
f 77/164/141 78/166/143 86/165/142
f 78/166/143 71/49/35 79/167/144
f 70/65/47 88/55/60 95/168/145
f 72/154/131 95/168/145 94/169/4
f 73/156/133 94/169/4 93/170/146
f 93/170/146 92/171/3 75/160/137
f 92/171/3 91/510/357 76/162/139
f 76/162/139 91/510/357 90/172/2
f 77/164/141 90/172/2 89/173/147
f 78/166/143 89/173/147 87/174/148
f 62/54/40 69/121/99 98/175/149
f 98/175/149 69/121/99 68/149/126
f 99/176/126 68/149/126 67/147/124
f 100/177/150 67/147/124 66/145/122
f 66/145/122 65/143/120 102/179/151
f 65/143/120 64/141/118 103/180/17
f 64/141/118 63/139/116 104/181/152
f 63/139/116 61/51/37 97/50/36
f 53/138/115 79/167/144 71/49/35
f 129/81/61 131/183/154 124/182/153
f 131/183/154 132/189/156 123/184/155
f 132/185/156 130/191/160 121/53/39
f 129/81/61 133/58/41 135/187/157
f 131/183/154 135/187/157 136/188/158
f 132/185/156 136/194/163 134/190/159
f 133/58/41 137/97/77 139/192/161
f 135/187/157 139/192/166 140/193/162
f 136/194/163 140/198/162 138/195/164
f 137/97/77 141/95/75 143/196/165
f 139/192/166 143/196/165 144/197/167
f 140/198/162 144/202/167 142/78/57
f 145/93/73 147/200/168 143/199/165
f 147/200/168 148/205/171 144/197/167
f 148/201/169 146/76/56 142/78/57
f 149/91/71 151/204/170 147/203/168
f 151/204/170 152/209/172 148/205/171
f 152/206/172 150/211/175 146/76/56
f 153/88/68 155/208/173 151/207/170
f 155/208/173 156/511/174 152/209/172
f 156/210/174 154/217/179 150/211/175
f 153/88/68 125/85/65 127/212/176
f 155/213/173 127/212/176 128/214/177
f 156/210/174 128/512/177 126/216/178
f 165/90/70 167/219/181 160/218/180
f 167/219/181 168/221/183 159/220/182
f 168/221/183 166/226/188 157/222/184
f 165/90/70 169/89/69 171/223/185
f 167/219/181 171/223/185 172/224/186
f 168/221/183 172/224/186 170/225/187
f 169/89/69 173/92/72 175/227/189
f 171/223/185 175/227/189 176/228/190
f 172/224/186 176/228/190 174/229/191
f 173/92/72 177/94/74 179/230/192
f 175/231/189 179/230/192 180/232/193
f 176/233/190 180/237/193 178/87/67
f 181/96/76 183/235/194 179/234/192
f 183/235/194 184/239/195 180/232/193
f 184/236/195 182/86/66 178/87/67
f 185/60/43 187/238/196 183/235/194
f 187/238/196 188/242/199 184/239/195
f 188/240/197 186/244/201 182/86/66
f 189/59/42 191/241/198 187/238/196
f 191/241/198 192/247/200 188/242/199
f 192/243/200 190/250/204 186/244/201
f 189/59/42 161/63/46 163/245/202
f 191/241/198 163/245/202 164/246/203
f 192/248/200 164/513/203 162/249/58
f 122/61/44 124/182/153 119/251/205
f 124/182/153 123/184/155 120/253/207
f 123/186/155 121/53/39 118/254/208
f 113/80/59 162/79/58 164/246/203
f 115/256/211 164/246/203 163/245/202
f 116/257/212 163/245/202 161/63/46
f 201/69/51 193/431/325 195/258/213
f 203/260/214 195/514/213 196/261/215
f 204/262/216 196/261/215 194/83/63
f 297/263/217 299/266/220 271/264/218
f 299/266/220 300/268/222 272/267/221
f 300/268/222 298/70/52 270/82/62
f 201/69/51 203/515/214 207/269/223
f 207/271/223 203/516/214 204/272/216
f 204/272/216 202/72/54 206/71/53
f 297/263/217 293/288/232 295/274/226
f 295/276/226 296/279/227 300/277/222
f 296/279/227 294/104/83 298/70/52
f 209/280/228 205/270/224 207/281/223
f 207/283/223 208/286/225 212/284/230
f 208/286/225 206/71/53 210/105/84
f 289/137/114 291/517/239 295/287/226
f 295/289/226 291/518/239 292/290/233
f 296/291/227 292/290/240 290/106/85
f 209/280/228 211/519/229 215/292/234
f 215/294/234 211/520/229 212/295/230
f 216/296/237 212/295/231 210/105/84
f 289/137/114 285/309/243 287/297/238
f 287/299/238 288/521/245 292/300/233
f 292/300/240 288/521/246 286/302/87
f 217/67/49 213/293/235 215/303/234
f 215/305/234 216/522/236 220/306/242
f 220/306/242 216/522/237 214/110/86
f 281/136/113 283/523/251 287/308/238
f 287/310/238 283/524/251 284/311/244
f 284/311/244 282/111/89 286/108/87
f 221/313/247 217/67/49 219/314/241
f 219/316/241 220/319/242 224/317/249
f 220/319/242 218/109/88 222/112/90
f 277/320/250 279/525/255 283/321/251
f 283/322/251 279/526/255 280/323/252
f 284/324/244 280/323/252 278/113/91
f 225/68/50 221/313/247 223/325/248
f 223/327/248 224/330/249 228/328/254
f 224/330/249 222/112/90 226/103/82
f 273/135/112 275/527/261 279/331/255
f 279/332/255 275/528/261 276/333/256
f 280/334/252 276/333/256 274/101/80
f 225/68/50 227/529/253 199/335/257
f 227/337/253 228/340/254 200/338/259
f 228/340/254 226/103/82 198/102/81
f 273/135/112 265/444/331 267/341/260
f 275/342/261 267/341/260 268/343/262
f 276/344/256 268/343/262 266/117/95
f 309/345/263 301/445/332 303/346/264
f 311/347/265 303/346/264 304/348/266
f 312/349/267 304/348/266 302/134/111
f 261/350/268 263/353/271 235/351/269
f 263/353/271 264/530/273 236/354/272
f 264/355/273 262/122/100 234/133/110
f 313/357/274 309/345/263 311/347/265
f 315/358/276 311/347/265 312/359/267
f 312/361/267 310/124/102 314/123/101
f 257/363/278 259/364/285 263/353/271
f 259/364/279 260/531/287 264/365/273
f 264/366/273 260/532/287 258/125/103
f 317/367/280 313/357/274 315/358/275
f 315/358/276 316/533/277 320/369/282
f 320/370/282 316/534/277 314/123/101
f 253/371/284 255/381/293 259/364/285
f 259/364/279 255/381/294 256/372/286
f 256/374/286 254/127/105 258/125/103
f 321/376/288 317/367/280 319/368/281
f 319/368/283 320/535/282 324/378/290
f 324/379/290 320/536/282 318/126/104
f 249/380/292 251/392/301 255/381/293
f 255/381/294 251/392/302 252/382/295
f 252/384/295 250/508/107 254/127/105
f 321/376/288 323/377/289 327/386/296
f 323/377/291 324/537/290 328/388/298
f 324/389/290 322/131/106 326/130/108
f 249/380/292 245/402/308 247/391/300
f 251/392/302 247/391/309 248/393/303
f 252/395/295 248/538/303 246/132/109
f 329/396/304 325/387/297 327/386/296
f 327/386/299 328/539/298 332/398/306
f 328/399/298 326/130/108 330/119/97
f 241/401/307 243/413/315 247/391/300
f 247/391/309 243/413/315 244/403/310
f 248/405/303 244/540/310 242/118/96
f 333/406/311 329/396/304 331/397/305
f 335/407/312 331/397/305 332/408/306
f 332/410/306 330/119/97 334/116/94
f 237/412/314 239/422/322 243/413/315
f 243/413/315 239/422/322 240/414/316
f 244/416/310 240/541/316 238/114/92
f 333/406/311 335/407/312 307/417/317
f 335/407/312 336/420/313 308/419/319
f 336/420/313 334/116/94 306/115/93
f 237/412/314 229/438/327 231/421/321
f 239/422/322 231/421/321 232/423/323
f 240/425/316 232/542/326 230/426/324
f 125/85/65 194/83/63 196/261/215
f 127/427/176 196/261/215 195/428/213
f 128/430/177 195/543/213 193/431/325
f 198/102/81 230/426/324 232/433/326
f 232/435/323 231/421/321 199/436/257
f 199/436/257 231/421/321 229/438/327
f 105/439/328 107/544/329 236/440/272
f 107/441/329 108/443/358 235/351/269
f 108/443/330 106/99/78 233/352/270
f 305/418/318 307/417/317 267/341/260
f 267/341/260 307/417/317 308/419/319
f 308/419/320 306/115/93 266/117/95
f 269/265/219 271/264/218 159/220/182
f 271/264/218 272/267/221 160/218/180
f 272/267/221 270/82/62 158/84/64
f 301/445/332 109/453/340 111/446/333
f 303/346/264 111/446/342 112/447/334
f 304/348/266 112/447/334 110/448/335
f 337/100/79 106/99/78 108/443/330
f 339/449/359 108/443/358 107/441/329
f 340/451/360 107/544/329 105/439/328
f 342/66/48 344/454/356 111/446/333
f 344/454/356 343/153/130 112/447/361
f 343/153/362 341/493/362 110/448/362
f 105/439/328 234/133/110 302/134/111
