# Blender v3.4.1 OBJ File: 'bike.blend'
# www.blender.org
o ScooterWheelFront_Cylinder.005
v -0.008688 -0.166615 0.373289
v 0.008688 -0.166615 0.373289
v -0.008688 -0.201871 0.377931
v 0.008688 -0.201871 0.377931
v -0.008688 -0.234724 0.391539
v 0.008688 -0.234724 0.391539
v -0.008688 -0.262936 0.413187
v 0.008688 -0.262936 0.413187
v -0.008688 -0.284583 0.441398
v 0.008688 -0.284583 0.441398
v -0.008688 -0.298192 0.474252
v 0.008688 -0.298192 0.474252
v -0.008688 -0.302833 0.509508
v 0.008688 -0.302833 0.509508
v -0.008688 -0.298192 0.544764
v 0.008688 -0.298192 0.544764
v -0.008688 -0.284583 0.577617
v 0.008688 -0.284583 0.577617
v -0.008688 -0.262936 0.605829
v 0.008688 -0.262936 0.605829
v -0.008688 -0.234724 0.627477
v 0.008688 -0.234724 0.627477
v -0.008688 -0.201871 0.641085
v 0.008688 -0.201871 0.641085
v -0.008688 -0.166615 0.645726
v 0.008688 -0.166615 0.645726
v -0.008688 -0.131359 0.641085
v 0.008688 -0.131359 0.641085
v -0.008688 -0.098505 0.627477
v 0.008688 -0.098505 0.627477
v -0.008688 -0.070293 0.605829
v 0.008688 -0.070293 0.605829
v -0.008688 -0.048646 0.577617
v 0.008688 -0.048646 0.577617
v -0.008688 -0.035037 0.544764
v 0.008688 -0.035037 0.544764
v -0.008688 -0.030396 0.509508
v 0.008688 -0.030396 0.509508
v -0.008688 -0.035037 0.474252
v 0.008688 -0.035037 0.474252
v -0.008688 -0.048646 0.441398
v 0.008688 -0.048646 0.441398
v -0.008688 -0.070293 0.413187
v 0.008688 -0.070293 0.413187
v -0.008688 -0.098505 0.391539
v 0.008688 -0.098505 0.391539
v -0.008688 -0.131359 0.377931
v 0.008688 -0.131359 0.377931
v -0.017501 -0.166615 0.376187
v -0.017501 -0.201121 0.380730
v 0.017501 -0.201121 0.380730
v 0.017501 -0.166615 0.376187
v -0.017501 -0.233275 0.394049
v 0.017501 -0.233275 0.394049
v -0.017501 -0.260887 0.415236
v 0.017501 -0.260887 0.415236
v -0.017501 -0.282074 0.442847
v 0.017501 -0.282074 0.442847
v -0.017501 -0.295393 0.475002
v 0.017501 -0.295393 0.475002
v -0.017501 -0.299935 0.509508
v 0.017501 -0.299935 0.509508
v -0.017501 -0.295393 0.544014
v 0.017501 -0.295393 0.544014
v -0.017501 -0.282074 0.576168
v 0.017501 -0.282074 0.576168
v -0.017501 -0.260887 0.603780
v 0.017501 -0.260887 0.603780
v -0.017501 -0.233275 0.624967
v 0.017501 -0.233275 0.624967
v -0.017501 -0.201121 0.638286
v 0.017501 -0.201121 0.638286
v -0.017501 -0.166615 0.642829
v 0.017501 -0.166615 0.642829
v -0.017501 -0.132109 0.638286
v 0.017501 -0.132109 0.638286
v -0.017501 -0.099954 0.624967
v 0.017501 -0.099954 0.624967
v -0.017501 -0.072343 0.603780
v 0.017501 -0.072343 0.603780
v -0.017501 -0.051155 0.576168
v 0.017501 -0.051155 0.576168
v -0.017501 -0.037837 0.544014
v 0.017501 -0.037837 0.544014
v -0.017501 -0.033294 0.509508
v 0.017501 -0.033294 0.509508
v -0.017501 -0.037837 0.475002
v 0.017501 -0.037837 0.475002
v -0.017501 -0.051155 0.442847
v 0.017501 -0.051155 0.442847
v -0.017501 -0.072343 0.415236
v 0.017501 -0.072343 0.415236
v -0.017501 -0.099954 0.394049
v 0.017501 -0.099954 0.394049
v -0.017501 -0.132109 0.380730
v 0.017501 -0.132109 0.380730
v -0.026382 -0.166615 0.385036
v -0.026382 -0.198830 0.389277
v 0.026382 -0.198830 0.389277
v 0.026382 -0.166615 0.385036
v -0.026382 -0.228851 0.401712
v 0.026382 -0.228851 0.401712
v -0.026382 -0.254629 0.421493
v 0.026382 -0.254629 0.421493
v -0.026382 -0.274410 0.447272
v 0.026382 -0.274410 0.447272
v -0.026382 -0.286845 0.477292
v 0.026382 -0.286845 0.477292
v -0.026382 -0.291086 0.509508
v 0.026382 -0.291086 0.509508
v -0.026382 -0.286845 0.541723
v 0.026382 -0.286845 0.541723
v -0.026382 -0.274410 0.571744
v 0.026382 -0.274410 0.571744
v -0.026382 -0.254629 0.597523
v 0.026382 -0.254629 0.597523
v -0.026382 -0.228851 0.617303
v 0.026382 -0.228851 0.617303
v -0.026382 -0.198830 0.629738
v 0.026382 -0.198830 0.629738
v -0.026382 -0.166615 0.633980
v 0.026382 -0.166615 0.633980
v -0.026382 -0.134399 0.629738
v 0.026382 -0.134399 0.629738
v -0.026382 -0.104379 0.617303
v 0.026382 -0.104379 0.617303
v -0.026382 -0.078600 0.597523
v 0.026382 -0.078600 0.597523
v -0.026382 -0.058819 0.571744
v 0.026382 -0.058819 0.571744
v -0.026382 -0.046384 0.541723
v 0.026382 -0.046384 0.541723
v -0.026382 -0.042143 0.509508
v 0.026382 -0.042143 0.509508
v -0.026382 -0.046384 0.477292
v 0.026382 -0.046384 0.477292
v -0.026382 -0.058819 0.447272
v 0.026382 -0.058819 0.447272
v -0.026382 -0.078600 0.421493
v 0.026382 -0.078600 0.421493
v -0.026382 -0.104379 0.401712
v 0.026382 -0.104379 0.401712
v -0.026382 -0.134399 0.389277
v 0.026382 -0.134399 0.389277
v -0.035252 -0.166615 0.414095
v -0.035252 -0.191309 0.417346
v 0.035252 -0.191309 0.417346
v 0.035252 -0.166615 0.414095
v -0.035252 -0.214321 0.426878
v 0.035252 -0.214321 0.426878
v -0.035252 -0.234082 0.442041
v 0.035252 -0.234081 0.442041
v -0.035252 -0.249244 0.461801
v 0.035252 -0.249244 0.461801
v -0.035252 -0.258776 0.484813
v 0.035252 -0.258776 0.484813
v -0.035252 -0.262027 0.509508
v 0.035252 -0.262027 0.509508
v -0.035252 -0.258776 0.534202
v 0.035252 -0.258776 0.534202
v -0.035252 -0.249244 0.557214
v 0.035252 -0.249244 0.557214
v -0.035252 -0.234082 0.576975
v 0.035252 -0.234081 0.576975
v -0.035252 -0.214321 0.592138
v 0.035252 -0.214321 0.592138
v -0.035252 -0.191309 0.601669
v 0.035252 -0.191309 0.601669
v -0.035252 -0.166615 0.604920
v 0.035252 -0.166615 0.604920
v -0.035252 -0.141920 0.601669
v 0.035252 -0.141920 0.601669
v -0.035252 -0.118908 0.592138
v 0.035252 -0.118908 0.592138
v -0.035252 -0.099148 0.576975
v 0.035252 -0.099148 0.576975
v -0.035252 -0.083985 0.557214
v 0.035252 -0.083985 0.557214
v -0.035252 -0.074453 0.534202
v 0.035252 -0.074453 0.534202
v -0.035252 -0.071202 0.509508
v 0.035252 -0.071202 0.509508
v -0.035252 -0.074453 0.484813
v 0.035252 -0.074453 0.484813
v -0.035252 -0.083985 0.461801
v 0.035252 -0.083985 0.461801
v -0.035252 -0.099148 0.442041
v 0.035252 -0.099148 0.442041
v -0.035252 -0.118908 0.426878
v 0.035252 -0.118908 0.426878
v -0.035252 -0.141920 0.417346
v 0.035252 -0.141920 0.417346
vt 1.000000 1.000000
vt 0.958333 0.500000
vt 1.000000 0.500000
vt 0.958333 1.000000
vt 0.916667 0.500000
vt 0.916667 1.000000
vt 0.875000 0.500000
vt 0.875000 1.000000
vt 0.833333 0.500000
vt 0.833333 1.000000
vt 0.791667 0.500000
vt 0.791667 1.000000
vt 0.750000 0.500000
vt 0.750000 1.000000
vt 0.708333 0.500000
vt 0.708333 1.000000
vt 0.666667 0.500000
vt 0.625000 1.000000
vt 0.625000 0.500000
vt 0.583333 0.500000
vt 0.541666 1.000000
vt 0.541666 0.500000
vt 0.500000 0.500000
vt 0.500000 1.000000
vt 0.458333 0.500000
vt 0.416666 1.000000
vt 0.416666 0.500000
vt 0.375000 1.000000
vt 0.375000 0.500000
vt 0.333333 0.500000
vt 0.333333 1.000000
vt 0.291667 0.500000
vt 0.291667 1.000000
vt 0.250000 0.500000
vt 0.250000 1.000000
vt 0.208333 0.500000
vt 0.208333 1.000000
vt 0.166666 0.500000
vt 0.166666 1.000000
vt 0.125000 0.500000
vt 0.125000 1.000000
vt 0.083333 0.500000
vt 0.458333 1.000000
vt 0.416666 1.000000
vt 0.083333 1.000000
vt 0.041666 0.500000
vt 0.041666 1.000000
vt -0.000000 0.500000
vt 0.833333 1.000000
vt 0.791667 1.000000
vt 0.208333 0.500000
vt 0.250000 0.500000
vt 0.250000 0.500000
vt 0.791667 1.000000
vt 0.041666 1.000000
vt 0.958333 1.000000
vt 0.583333 0.500000
vt 0.625000 0.500000
vt 0.583333 1.000000
vt 0.583333 1.000000
vt 0.208333 1.000000
vt 0.791667 0.500000
vt 0.416666 0.500000
vt 0.041666 0.500000
vt 0.750000 1.000000
vt 0.375000 1.000000
vt -0.000000 1.000000
vt -0.000000 1.000000
vt 0.958333 0.500000
vt 0.541666 0.500000
vt 0.166666 0.500000
vt 0.916667 1.000000
vt 0.541666 1.000000
vt 0.166666 1.000000
vt 0.708333 0.500000
vt 0.750000 0.500000
vt 0.375000 0.500000
vt 0.708333 1.000000
vt 0.333333 1.000000
vt 0.875000 0.500000
vt 0.916667 0.500000
vt 0.125000 0.500000
vt 0.875000 1.000000
vt 0.500000 1.000000
vt 0.125000 1.000000
vt 0.666667 0.500000
vt 0.333333 0.500000
vt 0.666667 1.000000
vt 0.666667 1.000000
vt 0.291667 1.000000
vt 0.458333 0.500000
vt 0.500000 0.500000
vt 0.458333 1.000000
vt 0.083333 1.000000
vt 0.291667 0.500000
vt 0.625000 1.000000
vt 0.250000 1.000000
vt 0.833333 0.500000
vt 0.083333 0.500000
vt 1.000000 0.500000
vt 0.833333 1.000000
vt 0.875000 1.000000
vt 0.833333 1.000000
vt -0.000000 1.000000
vt 0.041666 1.000000
vt -0.000000 1.000000
vt 0.500000 1.000000
vt 0.750000 0.500000
vt 0.791667 0.500000
vt 0.250000 1.000000
vt 0.208333 1.000000
vt 0.500000 0.500000
vt 0.750000 1.000000
vt 0.208333 0.500000
vt 0.458333 1.000000
vt 0.166666 1.000000
vt 0.458333 0.500000
vt 0.708333 1.000000
vt 0.125000 0.500000
vt 0.166666 0.500000
vt 1.000000 0.500000
vt 0.416666 1.000000
vt 0.708333 0.500000
vt 0.125000 1.000000
vt 1.000000 1.000000
vt 0.958333 1.000000
vt 0.375000 0.500000
vt 0.416666 0.500000
vt 0.666667 1.000000
vt 0.916667 0.500000
vt 0.958333 0.500000
vt 0.375000 1.000000
vt 0.666667 0.500000
vt 0.083333 1.000000
vt 0.916667 1.000000
vt 0.625000 1.000000
vt 0.041666 0.500000
vt 0.083333 0.500000
vt 0.333333 1.000000
vt 0.583333 0.500000
vt 0.625000 0.500000
vt 0.041666 1.000000
vt 0.875000 1.000000
vt 0.291667 0.500000
vt 0.333333 0.500000
vt 0.583333 1.000000
vt -0.000000 0.500000
vt 0.875000 0.500000
vt 0.291667 1.000000
vt 0.541666 0.500000
vt 0.541666 1.000000
vt 0.833333 0.500000
vt 0.130000 0.457846
vt 0.010000 0.250000
vt 0.370000 0.042154
vt 0.919706 0.419706
vt 0.981822 0.187883
vt 0.580294 0.080294
vt 0.291667 0.500000
vt 0.583333 1.000000
vt 0.541666 1.000000
vt 0.833333 0.500000
vt 0.291667 1.000000
vt 0.250000 1.000000
vt 0.541666 0.500000
vt 0.791667 1.000000
vt 0.250000 0.500000
vt 0.500000 1.000000
vt 0.750000 0.500000
vt 0.791667 0.500000
vt 0.208333 1.000000
vt 0.458333 0.500000
vt 0.500000 0.500000
vt 0.750000 1.000000
vt 0.166666 0.500000
vt 0.208333 0.500000
vt 0.458333 1.000000
vt 0.166666 1.000000
vt 0.416666 0.500000
vt 0.708333 1.000000
vt 0.125000 0.500000
vt 0.958333 0.500000
vt 1.000000 0.500000
vt 0.416666 1.000000
vt 0.666667 0.500000
vt 0.708333 0.500000
vt 0.125000 1.000000
vt 0.958333 1.000000
vt 0.666667 1.000000
vt 0.083333 0.500000
vt 0.375000 1.000000
vt 0.625000 0.500000
vt 0.083333 1.000000
vt 0.916667 1.000000
vt 0.375000 0.500000
vt 0.625000 1.000000
vt 0.041666 0.500000
vt 0.916667 0.500000
vt 0.333333 1.000000
vt 0.583333 0.500000
vt 0.333333 0.500000
vt 0.875000 0.500000
vt 1.000000 1.000000
vt -0.000000 0.500000
vt 0.370000 0.457846
vt 0.312117 0.481822
vt 0.250000 0.490000
vt 0.187883 0.481822
vt 0.080294 0.419706
vt 0.042154 0.370000
vt 0.018178 0.312117
vt 0.018178 0.187883
vt 0.042154 0.130000
vt 0.080294 0.080294
vt 0.130000 0.042154
vt 0.187883 0.018178
vt 0.250000 0.010000
vt 0.312117 0.018178
vt 0.419706 0.080294
vt 0.457846 0.130000
vt 0.481822 0.187883
vt 0.490000 0.250000
vt 0.481822 0.312117
vt 0.457846 0.370000
vt 0.419706 0.419706
vt 0.687883 0.481822
vt 0.750000 0.490000
vt 0.812117 0.481822
vt 0.870000 0.457846
vt 0.957846 0.370000
vt 0.981822 0.312117
vt 0.990000 0.250000
vt 0.957846 0.130000
vt 0.919706 0.080294
vt 0.870000 0.042154
vt 0.812117 0.018178
vt 0.750000 0.010000
vt 0.687883 0.018178
vt 0.630000 0.042154
vt 0.542154 0.130000
vt 0.518178 0.312117
vt 0.518178 0.187883
vt 0.510000 0.250000
vt 0.542154 0.370000
vt 0.580294 0.419706
vt 0.630000 0.457846
vt 1.000000 1.000000
vt -0.000000 0.500000
vn 0.1562 0.0000 -0.9877
vn -0.1562 -0.2556 -0.9541
vn -0.1562 0.0000 -0.9877
vn 0.1562 -0.2556 -0.9541
vn -0.1562 -0.4939 -0.8554
vn 0.1562 -0.4939 -0.8554
vn -0.1562 -0.6984 -0.6984
vn 0.1562 -0.6984 -0.6984
vn -0.1562 -0.8554 -0.4939
vn 0.1562 -0.8554 -0.4939
vn -0.1562 -0.9541 -0.2556
vn 0.1562 -0.9541 -0.2556
vn -0.1562 -0.9877 0.0000
vn 0.1562 -0.9877 0.0000
vn -0.1562 -0.9541 0.2556
vn 0.1562 -0.9541 0.2556
vn -0.1562 -0.8554 0.4939
vn 0.1562 -0.6984 0.6984
vn -0.1562 -0.6984 0.6984
vn -0.1562 -0.4939 0.8554
vn 0.1562 -0.2556 0.9541
vn -0.1562 -0.2556 0.9541
vn -0.1562 0.0000 0.9877
vn 0.1562 -0.0000 0.9877
vn -0.1562 0.2556 0.9541
vn 0.1562 0.4939 0.8554
vn -0.1562 0.4939 0.8554
vn 0.1562 0.6984 0.6984
vn -0.1562 0.6984 0.6984
vn -0.1562 0.8554 0.4939
vn 0.1562 0.8554 0.4939
vn -0.1562 0.9541 0.2556
vn 0.1562 0.9541 0.2556
vn -0.1562 0.9877 0.0000
vn 0.1562 0.9877 0.0000
vn -0.1562 0.9541 -0.2556
vn 0.1562 0.9541 -0.2556
vn -0.1562 0.8554 -0.4939
vn 0.1562 0.8554 -0.4939
vn -0.1562 0.6984 -0.6984
vn 0.1562 0.6984 -0.6984
vn -0.1562 0.4939 -0.8554
vn 0.5148 0.2219 0.8281
vn 0.5148 0.4286 0.7424
vn 0.1562 0.4939 -0.8554
vn -0.1562 0.2556 -0.9541
vn 0.1562 0.2556 -0.9541
vn 0.5148 -0.7424 -0.4286
vn 0.5148 -0.8281 -0.2219
vn -0.5148 0.8281 -0.2219
vn -0.8479 0.5302 0.0000
vn -0.5148 0.8573 0.0000
vn 0.8479 -0.5121 -0.1372
vn 0.5148 0.2219 -0.8281
vn 0.5148 -0.2219 -0.8281
vn -0.5148 -0.4286 0.7424
vn -0.5148 -0.6062 0.6062
vn 0.5148 -0.4286 0.7424
vn 0.1562 -0.4939 0.8554
vn 0.5148 0.8281 -0.2219
vn -0.5148 -0.8281 -0.2219
vn -0.5148 0.4286 0.7424
vn -0.5148 0.2219 -0.8281
vn 0.5148 -0.8573 -0.0000
vn 0.5148 0.6062 0.6062
vn 0.5148 0.0000 -0.8573
vn -0.5148 -0.2219 -0.8281
vn -0.5148 -0.2219 0.8281
vn -0.5148 0.7424 -0.4286
vn 0.5148 -0.4286 -0.7424
vn 0.5148 -0.2219 0.8281
vn 0.5148 0.7424 -0.4286
vn -0.5148 -0.8281 0.2219
vn -0.5148 -0.8573 -0.0000
vn -0.5148 0.6062 0.6062
vn 0.5148 -0.8281 0.2219
vn 0.5148 0.7424 0.4286
vn -0.5148 -0.6062 -0.6062
vn -0.5148 -0.4286 -0.7424
vn -0.5148 0.6062 -0.6062
vn 0.5148 -0.6062 -0.6062
vn 0.5148 0.0000 0.8573
vn 0.5148 0.6062 -0.6062
vn -0.5148 -0.7424 0.4286
vn -0.5148 0.7424 0.4286
vn 0.5148 -0.7424 0.4286
vn 0.1562 -0.8554 0.4939
vn 0.5148 0.8281 0.2219
vn -0.5148 0.2219 0.8281
vn -0.5148 0.0000 0.8573
vn 0.1562 0.2556 0.9541
vn 0.5148 0.4286 -0.7424
vn -0.5148 0.8281 0.2219
vn 0.5148 -0.6062 0.6062
vn 0.5148 0.8573 0.0000
vn -0.5148 -0.7424 -0.4286
vn -0.5148 0.4286 -0.7424
vn -0.5148 0.0000 -0.8573
vn 0.8479 -0.4591 -0.2651
vn 0.9872 -0.1128 -0.1128
vn 0.9872 -0.1382 -0.0798
vn 0.8479 0.0000 -0.5302
vn 0.9872 0.0413 -0.1541
vn 0.9872 0.0000 -0.1596
vn 0.8479 0.0000 0.5302
vn -0.8479 -0.5302 0.0000
vn -0.8479 -0.5121 -0.1372
vn 0.8479 0.5302 -0.0000
vn 0.8479 0.5121 -0.1372
vn -0.8479 -0.0000 0.5302
vn 0.8479 -0.5302 -0.0000
vn -0.8479 0.5121 -0.1372
vn 0.8479 0.1372 0.5121
vn 0.8479 0.4591 -0.2651
vn -0.8479 0.1372 0.5121
vn 0.8479 -0.5121 0.1372
vn -0.8479 0.3749 -0.3749
vn -0.8479 0.4591 -0.2651
vn -0.8479 -0.0000 -0.5302
vn 0.8479 0.2651 0.4591
vn -0.8479 -0.5121 0.1372
vn 0.8479 0.3749 -0.3749
vn 0.8479 -0.1372 -0.5121
vn -0.8479 0.3749 0.3749
vn -0.8479 0.2651 0.4591
vn 0.8479 -0.4591 0.2651
vn -0.8479 -0.2651 -0.4591
vn -0.8479 -0.1372 -0.5121
vn 0.8479 0.3749 0.3749
vn -0.8479 -0.4591 0.2651
vn 0.8479 0.2651 -0.4591
vn 0.8479 -0.2651 -0.4591
vn 0.8479 -0.3749 0.3749
vn -0.8479 0.1372 -0.5121
vn -0.8479 0.2651 -0.4591
vn 0.8479 0.4591 0.2651
vn -0.8479 -0.2651 0.4591
vn -0.8479 -0.3749 0.3749
vn 0.8479 0.1372 -0.5121
vn 0.8479 -0.3749 -0.3749
vn -0.8479 0.5121 0.1372
vn -0.8479 0.4591 0.2651
vn 0.8479 -0.2651 0.4591
vn -0.8479 -0.3749 -0.3749
vn 0.8479 0.5121 0.1372
vn -0.8479 -0.1372 0.5121
vn 0.8479 -0.1372 0.5121
vn -0.8479 -0.4591 -0.2651
vn 0.9872 0.0798 -0.1382
vn 0.9872 0.1596 0.0000
vn 0.9872 -0.0798 0.1382
vn -0.9872 -0.1128 -0.1128
vn -0.9872 -0.1541 0.0413
vn -0.9872 0.1128 0.1128
vn -0.9872 0.1541 0.0413
vn 0.9872 -0.0413 0.1541
vn -0.9872 -0.1382 -0.0798
vn 0.9872 0.1541 0.0413
vn -0.9872 -0.0413 0.1541
vn 0.9872 -0.1541 -0.0413
vn -0.9872 0.1596 0.0000
vn 0.9872 0.0000 0.1596
vn -0.9872 -0.1596 -0.0000
vn -0.9872 -0.1541 -0.0413
vn 0.9872 0.1541 -0.0413
vn -0.9872 0.0413 0.1541
vn -0.9872 -0.0000 0.1596
vn 0.9872 -0.1596 0.0000
vn -0.9872 0.1382 -0.0798
vn -0.9872 0.1541 -0.0413
vn 0.9872 0.0413 0.1541
vn 0.9872 0.1382 -0.0798
vn -0.9872 0.0798 0.1382
vn 0.9872 -0.1541 0.0413
vn -0.9872 0.1128 -0.1128
vn -0.9872 -0.0413 -0.1541
vn -0.9872 -0.0000 -0.1596
vn 0.9872 0.0798 0.1382
vn -0.9872 -0.1382 0.0798
vn 0.9872 0.1128 -0.1128
vn 0.9872 -0.0413 -0.1541
vn 0.9872 -0.1382 0.0798
vn -0.9872 0.0798 -0.1382
vn 0.9872 0.1128 0.1128
vn -0.9872 -0.1128 0.1128
vn 0.9872 -0.0798 -0.1382
vn 0.9872 -0.1128 0.1128
vn -0.9872 0.0413 -0.1541
vn -0.9872 -0.0798 -0.1382
vn 0.9872 0.1382 0.0798
vn -0.9872 -0.0798 0.1382
vn -0.9872 0.1382 0.0798
s 1
f 2/1/1 3/2/2 1/3/3
f 4/4/4 5/5/5 3/2/2
f 6/6/6 7/7/7 5/5/5
f 8/8/8 9/9/9 7/7/7
f 10/10/10 11/11/11 9/9/9
f 12/12/12 13/13/13 11/11/11
f 14/14/14 15/15/15 13/13/13
f 16/16/16 17/17/17 15/15/15
f 17/17/17 20/18/18 19/19/19
f 20/18/18 21/20/20 19/19/19
f 21/20/20 24/21/21 23/22/22
f 24/21/21 25/23/23 23/22/22
f 26/24/24 27/25/25 25/23/23
f 27/25/25 30/26/26 29/27/27
f 29/27/27 32/28/28 31/29/29
f 32/28/28 33/30/30 31/29/29
f 34/31/31 35/32/32 33/30/30
f 36/33/33 37/34/34 35/32/32
f 38/35/35 39/36/36 37/34/34
f 40/37/37 41/38/38 39/36/36
f 42/39/39 43/40/40 41/38/38
f 44/41/41 45/42/42 43/40/40
f 30/26/26 76/43/43 78/44/44
f 46/45/45 47/46/46 45/42/42
f 48/47/47 1/48/3 47/46/46
f 12/12/12 58/49/48 60/50/49
f 87/51/50 133/52/51 85/53/52
f 58/49/48 108/54/53 60/50/49
f 46/45/45 96/55/54 48/47/47
f 2/1/1 51/56/55 4/4/4
f 19/19/19 69/57/56 67/58/57
f 37/34/34 87/51/50 85/53/52
f 20/18/18 70/59/58 22/60/59
f 38/35/35 88/61/60 40/37/37
f 13/13/13 59/62/61 11/11/11
f 31/29/29 77/63/62 29/27/27
f 1/48/3 95/64/63 47/46/46
f 14/14/14 60/50/49 62/65/64
f 32/28/28 78/44/44 80/66/65
f 2/67/1 96/55/54 52/68/66
f 5/5/5 50/69/67 3/2/2
f 21/20/20 71/70/68 69/57/56
f 39/36/36 89/71/69 87/51/50
f 6/6/6 51/56/55 54/72/70
f 22/60/59 72/73/71 24/21/21
f 40/37/37 90/74/72 42/39/39
f 13/13/13 63/75/73 61/76/74
f 33/30/30 79/77/75 31/29/29
f 14/14/14 64/78/76 16/16/16
f 32/28/28 82/79/77 34/31/31
f 5/5/5 55/80/78 53/81/79
f 25/23/23 71/70/68 23/22/22
f 41/38/38 91/82/80 89/71/69
f 6/6/6 56/83/81 8/8/8
f 26/24/24 72/73/71 74/84/82
f 42/39/39 92/85/83 44/41/41
f 15/15/15 65/86/84 63/75/73
f 35/32/32 81/87/85 33/30/30
f 16/16/16 66/88/86 18/89/87
f 36/33/33 82/79/77 84/90/88
f 9/9/9 55/80/78 7/7/7
f 25/23/23 75/91/89 73/92/90
f 45/42/42 91/82/80 43/40/40
f 10/10/10 56/83/81 58/49/48
f 26/24/24 76/43/43 28/93/91
f 44/41/41 94/94/92 46/45/45
f 19/19/19 65/86/84 17/17/17
f 37/34/34 83/95/93 35/32/32
f 18/89/87 68/96/94 20/18/18
f 38/35/35 84/90/88 86/97/95
f 11/11/11 57/98/96 9/9/9
f 29/27/27 75/91/89 27/25/25
f 45/42/42 95/64/63 93/99/97
f 1/3/3 50/69/67 49/100/98
f 106/101/99 152/102/100 154/103/101
f 100/104/102 192/105/103 148/106/104
f 72/73/71 122/107/105 74/84/82
f 59/62/61 109/108/106 107/109/107
f 88/61/60 134/110/108 136/111/109
f 75/91/89 121/112/110 73/92/90
f 60/50/49 110/113/111 62/65/64
f 89/71/69 135/114/112 87/51/50
f 74/84/82 124/115/113 76/43/43
f 63/75/73 109/108/106 61/76/74
f 90/74/72 136/111/109 138/116/114
f 77/63/62 123/117/115 75/91/89
f 64/78/76 110/113/111 112/118/116
f 89/71/69 139/119/117 137/120/118
f 50/69/67 97/121/119 49/100/98
f 78/44/44 124/115/113 126/122/120
f 65/86/84 111/123/121 63/75/73
f 92/85/83 138/116/114 140/124/122
f 51/56/55 100/125/102 99/126/123
f 77/63/62 127/127/124 125/128/125
f 66/88/86 112/118/116 114/129/126
f 93/99/97 139/119/117 91/82/80
f 50/69/67 101/130/127 98/131/128
f 80/66/65 126/122/120 128/132/129
f 67/58/57 113/133/130 65/86/84
f 92/85/83 142/134/131 94/94/92
f 54/72/70 99/126/123 102/135/132
f 81/87/85 127/127/124 79/77/75
f 68/96/94 114/129/126 116/136/133
f 93/99/97 143/137/134 141/138/135
f 55/80/78 101/130/127 53/81/79
f 80/66/65 130/139/136 82/79/77
f 67/58/57 117/140/137 115/141/138
f 96/55/54 142/134/131 144/142/139
f 54/72/70 104/143/140 56/83/81
f 81/87/85 131/144/141 129/145/142
f 68/96/94 118/146/143 70/59/58
f 95/64/63 97/147/119 143/137/134
f 57/98/96 103/148/144 55/80/78
f 82/79/77 132/149/145 84/90/88
f 69/57/56 119/150/146 117/140/137
f 96/55/54 100/104/102 52/68/66
f 56/83/81 106/101/99 58/49/48
f 83/95/93 133/52/51 131/144/141
f 70/59/58 120/151/147 72/73/71
f 57/98/96 107/109/107 105/152/148
f 84/90/88 134/110/108 86/97/95
f 71/70/68 121/112/110 119/150/146
f 190/153/149 182/154/150 166/155/151
f 151/156/152 159/157/153 175/158/154
f 133/52/51 179/159/155 131/144/141
f 120/151/147 166/160/151 168/161/156
f 107/109/107 153/162/157 105/152/148
f 134/110/108 180/163/158 182/164/150
f 121/112/110 167/165/159 119/150/146
f 108/54/53 154/103/101 156/166/160
f 135/114/112 181/167/161 133/52/51
f 122/107/105 168/161/156 170/168/162
f 107/109/107 157/169/163 155/170/164
f 136/111/109 182/164/150 184/171/165
f 121/112/110 171/172/166 169/173/167
f 108/54/53 158/174/168 110/113/111
f 135/114/112 185/175/169 183/176/170
f 122/107/105 172/177/171 124/115/113
f 111/123/121 157/169/163 109/108/106
f 136/111/109 186/178/172 138/116/114
f 123/117/115 173/179/173 171/172/166
f 110/113/111 160/180/174 112/118/116
f 137/120/118 187/181/175 185/175/169
f 97/121/119 146/182/176 145/183/177
f 124/115/113 174/184/178 126/122/120
f 111/123/121 161/185/179 159/186/153
f 138/116/114 188/187/180 140/124/122
f 100/125/102 147/188/181 99/126/123
f 127/127/124 173/179/173 125/128/125
f 112/118/116 162/189/182 114/129/126
f 139/119/117 189/190/183 187/181/175
f 101/130/127 146/182/176 98/131/128
f 128/132/129 174/184/178 176/191/184
f 113/133/130 163/192/185 161/185/179
f 140/124/122 190/193/149 142/134/131
f 102/135/132 147/188/181 150/194/186
f 129/145/142 175/195/154 127/127/124
f 114/129/126 164/196/187 116/136/133
f 141/138/135 191/197/188 189/190/183
f 103/148/144 149/198/189 101/130/127
f 130/139/136 176/191/184 178/199/190
f 115/141/138 165/200/191 163/192/185
f 142/134/131 192/105/103 144/142/139
f 104/143/140 150/194/186 152/102/100
f 131/144/141 177/201/192 129/145/142
f 118/146/143 164/196/187 166/160/151
f 97/147/119 191/197/188 143/137/134
f 105/152/148 151/202/152 103/148/144
f 132/149/145 178/199/190 180/163/158
f 119/150/146 165/200/191 117/140/137
f 2/1/1 4/4/4 3/2/2
f 4/4/4 6/6/6 5/5/5
f 6/6/6 8/8/8 7/7/7
f 8/8/8 10/10/10 9/9/9
f 10/10/10 12/12/12 11/11/11
f 12/12/12 14/14/14 13/13/13
f 14/14/14 16/16/16 15/15/15
f 16/16/16 18/89/87 17/17/17
f 17/17/17 18/89/87 20/18/18
f 20/18/18 22/60/59 21/20/20
f 21/20/20 22/60/59 24/21/21
f 24/21/21 26/24/24 25/23/23
f 26/24/24 28/93/91 27/25/25
f 27/25/25 28/93/91 30/26/26
f 29/27/27 30/26/26 32/28/28
f 32/28/28 34/31/31 33/30/30
f 34/31/31 36/33/33 35/32/32
f 36/33/33 38/35/35 37/34/34
f 38/35/35 40/37/37 39/36/36
f 40/37/37 42/39/39 41/38/38
f 42/39/39 44/41/41 43/40/40
f 44/41/41 46/45/45 45/42/42
f 30/26/26 28/93/91 76/43/43
f 46/45/45 48/47/47 47/46/46
f 48/47/47 2/67/1 1/48/3
f 12/12/12 10/10/10 58/49/48
f 87/51/50 135/114/112 133/52/51
f 58/49/48 106/101/99 108/54/53
f 46/45/45 94/94/92 96/55/54
f 2/1/1 52/203/66 51/56/55
f 19/19/19 21/20/20 69/57/56
f 37/34/34 39/36/36 87/51/50
f 20/18/18 68/96/94 70/59/58
f 38/35/35 86/97/95 88/61/60
f 13/13/13 61/76/74 59/62/61
f 31/29/29 79/77/75 77/63/62
f 1/48/3 49/204/98 95/64/63
f 14/14/14 12/12/12 60/50/49
f 32/28/28 30/26/26 78/44/44
f 2/67/1 48/47/47 96/55/54
f 5/5/5 53/81/79 50/69/67
f 21/20/20 23/22/22 71/70/68
f 39/36/36 41/38/38 89/71/69
f 6/6/6 4/4/4 51/56/55
f 22/60/59 70/59/58 72/73/71
f 40/37/37 88/61/60 90/74/72
f 13/13/13 15/15/15 63/75/73
f 33/30/30 81/87/85 79/77/75
f 14/14/14 62/65/64 64/78/76
f 32/28/28 80/66/65 82/79/77
f 5/5/5 7/7/7 55/80/78
f 25/23/23 73/92/90 71/70/68
f 41/38/38 43/40/40 91/82/80
f 6/6/6 54/72/70 56/83/81
f 26/24/24 24/21/21 72/73/71
f 42/39/39 90/74/72 92/85/83
f 15/15/15 17/17/17 65/86/84
f 35/32/32 83/95/93 81/87/85
f 16/16/16 64/78/76 66/88/86
f 36/33/33 34/31/31 82/79/77
f 9/9/9 57/98/96 55/80/78
f 25/23/23 27/25/25 75/91/89
f 45/42/42 93/99/97 91/82/80
f 10/10/10 8/8/8 56/83/81
f 26/24/24 74/84/82 76/43/43
f 44/41/41 92/85/83 94/94/92
f 19/19/19 67/58/57 65/86/84
f 37/34/34 85/53/52 83/95/93
f 18/89/87 66/88/86 68/96/94
f 38/35/35 36/33/33 84/90/88
f 11/11/11 59/62/61 57/98/96
f 29/27/27 77/63/62 75/91/89
f 45/42/42 47/46/46 95/64/63
f 1/3/3 3/2/2 50/69/67
f 106/101/99 104/143/140 152/102/100
f 100/104/102 144/142/139 192/105/103
f 72/73/71 120/151/147 122/107/105
f 59/62/61 61/76/74 109/108/106
f 88/61/60 86/97/95 134/110/108
f 75/91/89 123/117/115 121/112/110
f 60/50/49 108/54/53 110/113/111
f 89/71/69 137/120/118 135/114/112
f 74/84/82 122/107/105 124/115/113
f 63/75/73 111/123/121 109/108/106
f 90/74/72 88/61/60 136/111/109
f 77/63/62 125/128/125 123/117/115
f 64/78/76 62/65/64 110/113/111
f 89/71/69 91/82/80 139/119/117
f 50/69/67 98/131/128 97/121/119
f 78/44/44 76/43/43 124/115/113
f 65/86/84 113/133/130 111/123/121
f 92/85/83 90/74/72 138/116/114
f 51/56/55 52/203/66 100/125/102
f 77/63/62 79/77/75 127/127/124
f 66/88/86 64/78/76 112/118/116
f 93/99/97 141/138/135 139/119/117
f 50/69/67 53/81/79 101/130/127
f 80/66/65 78/44/44 126/122/120
f 67/58/57 115/141/138 113/133/130
f 92/85/83 140/124/122 142/134/131
f 54/72/70 51/56/55 99/126/123
f 81/87/85 129/145/142 127/127/124
f 68/96/94 66/88/86 114/129/126
f 93/99/97 95/64/63 143/137/134
f 55/80/78 103/148/144 101/130/127
f 80/66/65 128/132/129 130/139/136
f 67/58/57 69/57/56 117/140/137
f 96/55/54 94/94/92 142/134/131
f 54/72/70 102/135/132 104/143/140
f 81/87/85 83/95/93 131/144/141
f 68/96/94 116/136/133 118/146/143
f 95/64/63 49/204/98 97/147/119
f 57/98/96 105/152/148 103/148/144
f 82/79/77 130/139/136 132/149/145
f 69/57/56 71/70/68 119/150/146
f 96/55/54 144/142/139 100/104/102
f 56/83/81 104/143/140 106/101/99
f 83/95/93 85/53/52 133/52/51
f 70/59/58 118/146/143 120/151/147
f 57/98/96 59/62/61 107/109/107
f 84/90/88 132/149/145 134/110/108
f 71/70/68 73/92/90 121/112/110
f 150/205/186 147/206/181 148/207/104
f 148/207/104 192/208/103 190/153/149
f 190/153/149 188/209/180 186/210/172
f 186/210/172 184/211/165 182/154/150
f 182/154/150 180/212/158 178/213/190
f 178/213/190 176/214/184 174/215/178
f 174/215/178 172/216/171 170/217/162
f 170/217/162 168/218/156 166/155/151
f 166/155/151 164/219/187 162/220/182
f 162/220/182 160/221/174 158/222/168
f 158/222/168 156/223/160 154/224/101
f 154/224/101 152/225/100 150/205/186
f 150/205/186 148/207/104 190/153/149
f 190/153/149 186/210/172 182/154/150
f 182/154/150 178/213/190 166/155/151
f 178/213/190 174/215/178 166/155/151
f 174/215/178 170/217/162 166/155/151
f 166/155/151 162/220/182 150/205/186
f 162/220/182 158/222/168 150/205/186
f 158/222/168 154/224/101 150/205/186
f 150/205/186 190/153/149 166/155/151
f 191/226/188 145/227/177 146/228/176
f 146/228/176 149/229/189 191/226/188
f 149/229/189 151/156/152 191/226/188
f 151/156/152 153/230/157 159/157/153
f 153/230/157 155/231/164 159/157/153
f 155/231/164 157/232/163 159/157/153
f 159/157/153 161/233/179 163/234/185
f 163/234/185 165/235/191 167/236/159
f 167/236/159 169/237/167 171/238/166
f 171/238/166 173/239/173 167/236/159
f 173/239/173 175/158/154 167/236/159
f 175/158/154 177/240/192 183/241/170
f 177/240/192 179/242/155 183/241/170
f 179/242/155 181/243/161 183/241/170
f 183/241/170 185/244/169 187/245/175
f 187/245/175 189/246/183 191/226/188
f 159/157/153 163/234/185 175/158/154
f 163/234/185 167/236/159 175/158/154
f 183/241/170 187/245/175 175/158/154
f 187/245/175 191/226/188 175/158/154
f 191/226/188 151/156/152 175/158/154
f 133/52/51 181/167/161 179/159/155
f 120/151/147 118/146/143 166/160/151
f 107/109/107 155/170/164 153/162/157
f 134/110/108 132/149/145 180/163/158
f 121/112/110 169/173/167 167/165/159
f 108/54/53 106/101/99 154/103/101
f 135/114/112 183/176/170 181/167/161
f 122/107/105 120/151/147 168/161/156
f 107/109/107 109/108/106 157/169/163
f 136/111/109 134/110/108 182/164/150
f 121/112/110 123/117/115 171/172/166
f 108/54/53 156/166/160 158/174/168
f 135/114/112 137/120/118 185/175/169
f 122/107/105 170/168/162 172/177/171
f 111/123/121 159/186/153 157/169/163
f 136/111/109 184/171/165 186/178/172
f 123/117/115 125/128/125 173/179/173
f 110/113/111 158/174/168 160/180/174
f 137/120/118 139/119/117 187/181/175
f 97/121/119 98/131/128 146/182/176
f 124/115/113 172/177/171 174/184/178
f 111/123/121 113/133/130 161/185/179
f 138/116/114 186/178/172 188/187/180
f 100/125/102 148/247/104 147/188/181
f 127/127/124 175/195/154 173/179/173
f 112/118/116 160/180/174 162/189/182
f 139/119/117 141/138/135 189/190/183
f 101/130/127 149/198/189 146/182/176
f 128/132/129 126/122/120 174/184/178
f 113/133/130 115/141/138 163/192/185
f 140/124/122 188/187/180 190/193/149
f 102/135/132 99/126/123 147/188/181
f 129/145/142 177/201/192 175/195/154
f 114/129/126 162/189/182 164/196/187
f 141/138/135 143/137/134 191/197/188
f 103/148/144 151/202/152 149/198/189
f 130/139/136 128/132/129 176/191/184
f 115/141/138 117/140/137 165/200/191
f 142/134/131 190/193/149 192/105/103
f 104/143/140 102/135/132 150/194/186
f 131/144/141 179/159/155 177/201/192
f 118/146/143 116/136/133 164/196/187
f 97/147/119 145/248/177 191/197/188
f 105/152/148 153/162/157 151/202/152
f 132/149/145 130/139/136 178/199/190
f 119/150/146 167/165/159 165/200/191
o ScooterWheelBack_Cylinder.009
v -0.008688 -0.166615 -0.737887
v 0.008688 -0.166615 -0.737887
v -0.008688 -0.201871 -0.733245
v 0.008688 -0.201871 -0.733245
v -0.008688 -0.234724 -0.719637
v 0.008688 -0.234724 -0.719637
v -0.008688 -0.262936 -0.697989
v 0.008688 -0.262936 -0.697989
v -0.008688 -0.284583 -0.669778
v 0.008688 -0.284583 -0.669778
v -0.008688 -0.298192 -0.636924
v 0.008688 -0.298192 -0.636924
v -0.008688 -0.302833 -0.601668
v 0.008688 -0.302833 -0.601668
v -0.008688 -0.298192 -0.566412
v 0.008688 -0.298192 -0.566412
v -0.008688 -0.284583 -0.533559
v 0.008688 -0.284583 -0.533559
v -0.008688 -0.262936 -0.505347
v 0.008688 -0.262936 -0.505347
v -0.008688 -0.234724 -0.483699
v 0.008688 -0.234724 -0.483699
v -0.008688 -0.201871 -0.470091
v 0.008688 -0.201871 -0.470091
v -0.008688 -0.166615 -0.465450
v 0.008688 -0.166615 -0.465450
v -0.008688 -0.131359 -0.470091
v 0.008688 -0.131359 -0.470091
v -0.008688 -0.098505 -0.483699
v 0.008688 -0.098505 -0.483699
v -0.008688 -0.070293 -0.505347
v 0.008688 -0.070293 -0.505347
v -0.008688 -0.048646 -0.533559
v 0.008688 -0.048646 -0.533559
v -0.008688 -0.035037 -0.566412
v 0.008688 -0.035037 -0.566412
v -0.008688 -0.030396 -0.601668
v 0.008688 -0.030396 -0.601668
v -0.008688 -0.035037 -0.636924
v 0.008688 -0.035037 -0.636924
v -0.008688 -0.048646 -0.669778
v 0.008688 -0.048646 -0.669778
v -0.008688 -0.070293 -0.697989
v 0.008688 -0.070293 -0.697989
v -0.008688 -0.098505 -0.719637
v 0.008688 -0.098505 -0.719637
v -0.008688 -0.131359 -0.733245
v 0.008688 -0.131359 -0.733245
v -0.017501 -0.166615 -0.734989
v -0.017501 -0.201121 -0.730446
v 0.017501 -0.201121 -0.730446
v 0.017501 -0.166615 -0.734989
v -0.017501 -0.233275 -0.717127
v 0.017501 -0.233275 -0.717127
v -0.017501 -0.260887 -0.695940
v 0.017501 -0.260887 -0.695940
v -0.017501 -0.282074 -0.668329
v 0.017501 -0.282074 -0.668329
v -0.017501 -0.295393 -0.636174
v 0.017501 -0.295393 -0.636174
v -0.017501 -0.299935 -0.601668
v 0.017501 -0.299935 -0.601668
v -0.017501 -0.295393 -0.567162
v 0.017501 -0.295393 -0.567162
v -0.017501 -0.282074 -0.535008
v 0.017501 -0.282074 -0.535008
v -0.017501 -0.260887 -0.507396
v 0.017501 -0.260887 -0.507396
v -0.017501 -0.233275 -0.486209
v 0.017501 -0.233275 -0.486209
v -0.017501 -0.201121 -0.472890
v 0.017501 -0.201121 -0.472890
v -0.017501 -0.166615 -0.468347
v 0.017501 -0.166615 -0.468347
v -0.017501 -0.132109 -0.472890
v 0.017501 -0.132109 -0.472890
v -0.017501 -0.099954 -0.486209
v 0.017501 -0.099954 -0.486209
v -0.017501 -0.072343 -0.507396
v 0.017501 -0.072343 -0.507396
v -0.017501 -0.051155 -0.535008
v 0.017501 -0.051155 -0.535008
v -0.017501 -0.037837 -0.567162
v 0.017501 -0.037837 -0.567162
v -0.017501 -0.033294 -0.601668
v 0.017501 -0.033294 -0.601668
v -0.017501 -0.037837 -0.636174
v 0.017501 -0.037837 -0.636174
v -0.017501 -0.051155 -0.668329
v 0.017501 -0.051155 -0.668329
v -0.017501 -0.072343 -0.695940
v 0.017501 -0.072343 -0.695940
v -0.017501 -0.099954 -0.717127
v 0.017501 -0.099954 -0.717127
v -0.017501 -0.132109 -0.730446
v 0.017501 -0.132109 -0.730446
v -0.026382 -0.166615 -0.726140
v -0.026382 -0.198830 -0.721899
v 0.026382 -0.198830 -0.721899
v 0.026382 -0.166615 -0.726140
v -0.026382 -0.228851 -0.709464
v 0.026382 -0.228851 -0.709464
v -0.026382 -0.254629 -0.689683
v 0.026382 -0.254629 -0.689683
v -0.026382 -0.274410 -0.663904
v 0.026382 -0.274410 -0.663904
v -0.026382 -0.286845 -0.633884
v 0.026382 -0.286845 -0.633884
v -0.026382 -0.291086 -0.601668
v 0.026382 -0.291086 -0.601668
v -0.026382 -0.286845 -0.569453
v 0.026382 -0.286845 -0.569453
v -0.026382 -0.274410 -0.539432
v 0.026382 -0.274410 -0.539432
v -0.026382 -0.254629 -0.513653
v 0.026382 -0.254629 -0.513653
v -0.026382 -0.228851 -0.493873
v 0.026382 -0.228851 -0.493873
v -0.026382 -0.198830 -0.481438
v 0.026382 -0.198830 -0.481438
v -0.026382 -0.166615 -0.477196
v 0.026382 -0.166615 -0.477196
v -0.026382 -0.134399 -0.481438
v 0.026382 -0.134399 -0.481438
v -0.026382 -0.104379 -0.493873
v 0.026382 -0.104379 -0.493873
v -0.026382 -0.078600 -0.513653
v 0.026382 -0.078600 -0.513653
v -0.026382 -0.058819 -0.539432
v 0.026382 -0.058819 -0.539432
v -0.026382 -0.046384 -0.569453
v 0.026382 -0.046384 -0.569453
v -0.026382 -0.042143 -0.601668
v 0.026382 -0.042143 -0.601668
v -0.026382 -0.046384 -0.633884
v 0.026382 -0.046384 -0.633884
v -0.026382 -0.058819 -0.663904
v 0.026382 -0.058819 -0.663904
v -0.026382 -0.078600 -0.689683
v 0.026382 -0.078600 -0.689683
v -0.026382 -0.104379 -0.709464
v 0.026382 -0.104379 -0.709464
v -0.026382 -0.134399 -0.721899
v 0.026382 -0.134399 -0.721899
v -0.035252 -0.166615 -0.697081
v -0.035252 -0.191309 -0.693830
v 0.035252 -0.191309 -0.693830
v 0.035252 -0.166615 -0.697081
v -0.035252 -0.214321 -0.684298
v 0.035252 -0.214321 -0.684298
v -0.035252 -0.234082 -0.669135
v 0.035252 -0.234081 -0.669135
v -0.035252 -0.249244 -0.649375
v 0.035252 -0.249244 -0.649375
v -0.035252 -0.258776 -0.626363
v 0.035252 -0.258776 -0.626363
v -0.035252 -0.262027 -0.601668
v 0.035252 -0.262027 -0.601668
v -0.035252 -0.258776 -0.576974
v 0.035252 -0.258776 -0.576974
v -0.035252 -0.249244 -0.553962
v 0.035252 -0.249244 -0.553962
v -0.035252 -0.234082 -0.534201
v 0.035252 -0.234081 -0.534201
v -0.035252 -0.214321 -0.519038
v 0.035252 -0.214321 -0.519038
v -0.035252 -0.191309 -0.509507
v 0.035252 -0.191309 -0.509507
v -0.035252 -0.166615 -0.506256
v 0.035252 -0.166615 -0.506256
v -0.035252 -0.141920 -0.509507
v 0.035252 -0.141920 -0.509507
v -0.035252 -0.118908 -0.519038
v 0.035252 -0.118908 -0.519038
v -0.035252 -0.099148 -0.534201
v 0.035252 -0.099148 -0.534201
v -0.035252 -0.083985 -0.553962
v 0.035252 -0.083985 -0.553962
v -0.035252 -0.074453 -0.576974
v 0.035252 -0.074453 -0.576974
v -0.035252 -0.071202 -0.601668
v 0.035252 -0.071202 -0.601668
v -0.035252 -0.074453 -0.626363
v 0.035252 -0.074453 -0.626363
v -0.035252 -0.083985 -0.649375
v 0.035252 -0.083985 -0.649375
v -0.035252 -0.099148 -0.669135
v 0.035252 -0.099148 -0.669135
v -0.035252 -0.118908 -0.684298
v 0.035252 -0.118908 -0.684298
v -0.035252 -0.141920 -0.693830
v 0.035252 -0.141920 -0.693830
vt 1.000000 1.000000
vt 0.958333 0.500000
vt 1.000000 0.500000
vt 0.958333 1.000000
vt 0.916667 0.500000
vt 0.916667 1.000000
vt 0.875000 0.500000
vt 0.875000 1.000000
vt 0.833333 0.500000
vt 0.833333 1.000000
vt 0.791667 0.500000
vt 0.791667 1.000000
vt 0.750000 0.500000
vt 0.750000 1.000000
vt 0.708333 0.500000
vt 0.708333 1.000000
vt 0.666667 0.500000
vt 0.666667 1.000000
vt 0.625000 0.500000
vt 0.583333 1.000000
vt 0.583333 0.500000
vt 0.541666 1.000000
vt 0.541666 0.500000
vt 0.500000 0.500000
vt 0.500000 1.000000
vt 0.458333 0.500000
vt 0.458333 1.000000
vt 0.416666 0.500000
vt 0.375000 1.000000
vt 0.375000 0.500000
vt 0.333333 0.500000
vt 0.333333 1.000000
vt 0.291667 0.500000
vt 0.291667 1.000000
vt 0.250000 0.500000
vt 0.250000 1.000000
vt 0.208333 0.500000
vt 0.208333 1.000000
vt 0.166666 0.500000
vt 0.166666 1.000000
vt 0.125000 0.500000
vt 0.125000 1.000000
vt 0.083333 0.500000
vt 0.416666 1.000000
vt 0.458333 1.000000
vt 0.416666 1.000000
vt 0.083333 1.000000
vt 0.041666 0.500000
vt 0.041666 1.000000
vt -0.000000 0.500000
vt 0.833333 1.000000
vt 0.791667 1.000000
vt 0.208333 0.500000
vt 0.250000 0.500000
vt 0.250000 0.500000
vt 0.833333 1.000000
vt 0.791667 1.000000
vt 0.041666 1.000000
vt 0.958333 1.000000
vt 0.583333 0.500000
vt 0.625000 0.500000
vt 0.625000 1.000000
vt 0.583333 1.000000
vt 0.208333 1.000000
vt 0.791667 0.500000
vt 0.416666 0.500000
vt 0.041666 0.500000
vt 0.750000 1.000000
vt 0.375000 1.000000
vt -0.000000 1.000000
vt -0.000000 1.000000
vt 0.916667 0.500000
vt 0.958333 0.500000
vt 0.541666 0.500000
vt 0.166666 0.500000
vt 0.916667 1.000000
vt 0.541666 1.000000
vt 0.166666 1.000000
vt 0.708333 0.500000
vt 0.750000 0.500000
vt 0.375000 0.500000
vt 0.708333 1.000000
vt 0.333333 1.000000
vt 0.875000 1.000000
vt 0.500000 1.000000
vt 0.125000 1.000000
vt 0.666667 0.500000
vt 0.291667 0.500000
vt 0.333333 0.500000
vt 0.666667 1.000000
vt 0.291667 1.000000
vt 0.875000 0.500000
vt 0.458333 0.500000
vt 0.500000 0.500000
vt 0.125000 0.500000
vt 0.083333 1.000000
vt 0.625000 1.000000
vt 0.250000 1.000000
vt 0.833333 0.500000
vt 0.083333 0.500000
vt 1.000000 0.500000
vt 0.875000 1.000000
vt 0.833333 1.000000
vt -0.000000 1.000000
vt 0.041666 1.000000
vt -0.000000 1.000000
vt 0.500000 1.000000
vt 0.791667 0.500000
vt 0.208333 1.000000
vt 0.458333 0.500000
vt 0.500000 0.500000
vt 0.750000 1.000000
vt 0.166666 0.500000
vt 0.208333 0.500000
vt 0.458333 1.000000
vt 0.750000 0.500000
vt 0.166666 1.000000
vt 0.708333 1.000000
vt 0.125000 0.500000
vt 1.000000 0.500000
vt 0.416666 1.000000
vt 0.708333 0.500000
vt 0.125000 1.000000
vt 1.000000 1.000000
vt 0.958333 1.000000
vt 0.375000 0.500000
vt 0.416666 0.500000
vt 0.666667 1.000000
vt 0.083333 0.500000
vt 0.916667 0.500000
vt 0.958333 0.500000
vt 0.375000 1.000000
vt 0.625000 0.500000
vt 0.666667 0.500000
vt 0.083333 1.000000
vt 0.916667 1.000000
vt 0.333333 0.500000
vt 0.625000 1.000000
vt 0.333333 1.000000
vt 0.041666 1.000000
vt 0.291667 0.500000
vt 0.583333 1.000000
vt -0.000000 0.500000
vt 0.041666 0.500000
vt 0.875000 0.500000
vt 0.291667 1.000000
vt 0.541666 0.500000
vt 0.583333 0.500000
vt 0.541666 1.000000
vt 0.833333 0.500000
vt 0.250000 1.000000
vt 0.010000 0.250000
vt 0.370000 0.042154
vt 0.370000 0.457846
vt 0.919706 0.419706
vt 0.981822 0.187883
vt 0.580294 0.080294
vt 0.250000 0.500000
vt 0.291667 0.500000
vt 0.583333 1.000000
vt 0.541666 1.000000
vt 0.791667 0.500000
vt 0.833333 0.500000
vt 0.250000 1.000000
vt 0.541666 0.500000
vt 0.791667 1.000000
vt 0.500000 1.000000
vt 0.750000 0.500000
vt 0.208333 1.000000
vt 0.458333 0.500000
vt 0.500000 0.500000
vt 0.750000 1.000000
vt 0.208333 0.500000
vt 0.458333 1.000000
vt 0.166666 1.000000
vt 0.708333 1.000000
vt 0.166666 0.500000
vt 0.958333 0.500000
vt 1.000000 0.500000
vt 0.416666 1.000000
vt 0.666667 0.500000
vt 0.708333 0.500000
vt 0.125000 1.000000
vt 0.958333 1.000000
vt 0.375000 0.500000
vt 0.416666 0.500000
vt 0.666667 1.000000
vt 0.083333 0.500000
vt 0.125000 0.500000
vt 0.916667 0.500000
vt 0.375000 1.000000
vt 0.625000 0.500000
vt 0.083333 1.000000
vt 0.916667 1.000000
vt 0.333333 0.500000
vt 0.625000 1.000000
vt 0.333333 1.000000
vt 0.875000 1.000000
vt 0.041666 0.500000
vt 0.875000 0.500000
vt 0.291667 1.000000
vt 0.583333 0.500000
vt 1.000000 1.000000
vt -0.000000 0.500000
vt 0.312117 0.481822
vt 0.250000 0.490000
vt 0.187883 0.481822
vt 0.130000 0.457846
vt 0.080294 0.419706
vt 0.042154 0.370000
vt 0.018178 0.312117
vt 0.018178 0.187883
vt 0.042154 0.130000
vt 0.080294 0.080294
vt 0.130000 0.042154
vt 0.187883 0.018178
vt 0.250000 0.010000
vt 0.312117 0.018178
vt 0.419706 0.080294
vt 0.457846 0.130000
vt 0.481822 0.187883
vt 0.490000 0.250000
vt 0.481822 0.312117
vt 0.457846 0.370000
vt 0.419706 0.419706
vt 0.687883 0.481822
vt 0.750000 0.490000
vt 0.812117 0.481822
vt 0.870000 0.457846
vt 0.957846 0.370000
vt 0.981822 0.312117
vt 0.990000 0.250000
vt 0.957846 0.130000
vt 0.919706 0.080294
vt 0.870000 0.042154
vt 0.812117 0.018178
vt 0.750000 0.010000
vt 0.687883 0.018178
vt 0.630000 0.042154
vt 0.542154 0.130000
vt 0.518178 0.312117
vt 0.518178 0.187883
vt 0.510000 0.250000
vt 0.542154 0.370000
vt 0.580294 0.419706
vt 0.630000 0.457846
vt 1.000000 1.000000
vt -0.000000 0.500000
vn 0.1562 0.0000 -0.9877
vn -0.1562 -0.2556 -0.9541
vn -0.1562 0.0000 -0.9877
vn 0.1562 -0.2556 -0.9541
vn -0.1562 -0.4939 -0.8554
vn 0.1562 -0.4939 -0.8554
vn -0.1562 -0.6984 -0.6984
vn 0.1562 -0.6984 -0.6984
vn -0.1562 -0.8554 -0.4939
vn 0.1562 -0.8554 -0.4939
vn -0.1562 -0.9541 -0.2556
vn 0.1562 -0.9541 -0.2556
vn -0.1562 -0.9877 0.0000
vn 0.1562 -0.9877 -0.0000
vn -0.1562 -0.9541 0.2556
vn 0.1562 -0.9541 0.2556
vn -0.1562 -0.8554 0.4939
vn 0.1562 -0.8554 0.4939
vn -0.1562 -0.6984 0.6984
vn 0.1562 -0.4939 0.8554
vn -0.1562 -0.4939 0.8554
vn 0.1562 -0.2556 0.9541
vn -0.1562 -0.2556 0.9541
vn -0.1562 0.0000 0.9877
vn 0.1562 0.0000 0.9877
vn -0.1562 0.2556 0.9541
vn 0.1562 0.2556 0.9541
vn -0.1562 0.4939 0.8554
vn 0.1562 0.6984 0.6984
vn -0.1562 0.6984 0.6984
vn -0.1562 0.8554 0.4939
vn 0.1562 0.8554 0.4939
vn -0.1562 0.9541 0.2556
vn 0.1562 0.9541 0.2556
vn -0.1562 0.9877 0.0000
vn 0.1562 0.9877 0.0000
vn -0.1562 0.9541 -0.2556
vn 0.1562 0.9541 -0.2556
vn -0.1562 0.8554 -0.4939
vn 0.1562 0.8554 -0.4939
vn -0.1561 0.6984 -0.6984
vn 0.1562 0.6984 -0.6984
vn -0.1562 0.4939 -0.8554
vn 0.1562 0.4939 0.8554
vn 0.5148 0.2219 0.8281
vn 0.5148 0.4286 0.7424
vn 0.1562 0.4939 -0.8554
vn -0.1562 0.2556 -0.9541
vn 0.1562 0.2556 -0.9541
vn 0.5148 -0.7424 -0.4286
vn 0.5148 -0.8281 -0.2219
vn -0.5148 0.8281 -0.2219
vn -0.8479 0.5302 -0.0000
vn -0.5148 0.8573 0.0000
vn 0.8479 -0.4591 -0.2651
vn 0.8479 -0.5121 -0.1372
vn 0.5148 0.2219 -0.8281
vn 0.5148 -0.2219 -0.8281
vn -0.5148 -0.4286 0.7424
vn -0.5148 -0.6062 0.6062
vn 0.5148 -0.6062 0.6062
vn 0.5148 -0.4286 0.7424
vn 0.5148 0.8281 -0.2219
vn -0.5148 -0.8281 -0.2219
vn -0.5148 0.4286 0.7424
vn -0.5148 0.2219 -0.8281
vn 0.5148 -0.8573 -0.0000
vn 0.5148 0.6062 0.6062
vn 0.5148 0.0000 -0.8573
vn -0.5148 -0.4286 -0.7424
vn -0.5148 -0.2219 -0.8281
vn -0.5148 -0.2219 0.8281
vn -0.5148 0.7424 -0.4286
vn 0.5148 -0.4286 -0.7424
vn 0.5148 -0.2219 0.8281
vn 0.5148 0.7424 -0.4286
vn -0.5148 -0.8281 0.2219
vn -0.5148 -0.8573 -0.0000
vn -0.5148 0.6062 0.6062
vn 0.5148 -0.8281 0.2219
vn 0.5148 0.7424 0.4286
vn 0.5148 -0.6062 -0.6062
vn 0.5148 0.0000 0.8573
vn 0.5148 0.6062 -0.6062
vn -0.5148 -0.7424 0.4286
vn -0.5148 0.8281 0.2219
vn -0.5148 0.7424 0.4286
vn 0.5148 -0.7424 0.4286
vn 0.5148 0.8281 0.2219
vn -0.5148 -0.6062 -0.6062
vn -0.5148 0.2219 0.8281
vn -0.5148 0.0000 0.8573
vn -0.5148 0.6062 -0.6062
vn 0.5148 0.4286 -0.7424
vn 0.1562 -0.6984 0.6984
vn 0.5148 0.8573 -0.0000
vn -0.5148 -0.7424 -0.4286
vn -0.5148 0.4286 -0.7424
vn -0.5148 0.0000 -0.8573
vn 0.8479 -0.3749 -0.3749
vn 0.9872 -0.1382 -0.0798
vn 0.8479 0.0000 -0.5302
vn 0.9872 0.0413 -0.1541
vn 0.9872 0.0000 -0.1596
vn 0.8479 0.0000 0.5302
vn -0.8479 -0.5121 -0.1372
vn 0.8479 0.5121 -0.1372
vn -0.8479 0.1372 0.5121
vn -0.8479 0.0000 0.5302
vn 0.8479 -0.5302 -0.0000
vn -0.8479 0.4591 -0.2651
vn -0.8479 0.5121 -0.1372
vn 0.8479 0.1372 0.5121
vn -0.8479 -0.5302 -0.0000
vn 0.8479 0.4591 -0.2651
vn 0.8479 -0.5121 0.1372
vn -0.8479 0.3749 -0.3749
vn -0.8479 -0.0000 -0.5302
vn 0.8479 0.2651 0.4591
vn -0.8479 -0.5121 0.1372
vn 0.8479 0.3749 -0.3749
vn 0.8479 -0.1372 -0.5121
vn -0.8479 0.3749 0.3749
vn -0.8479 0.2651 0.4591
vn 0.8479 -0.4591 0.2651
vn -0.8479 0.2651 -0.4591
vn -0.8479 -0.2651 -0.4591
vn -0.8479 -0.1372 -0.5121
vn 0.8479 0.3749 0.3749
vn -0.8479 -0.3749 0.3749
vn -0.8479 -0.4591 0.2651
vn 0.8479 0.2651 -0.4591
vn 0.8479 -0.2651 -0.4591
vn -0.8479 0.4591 0.2651
vn 0.8479 -0.3749 0.3749
vn 0.8479 0.4591 0.2651
vn 0.8479 0.1372 -0.5121
vn -0.8479 0.5121 0.1372
vn 0.8479 -0.2651 0.4591
vn -0.8479 0.1372 -0.5121
vn -0.8479 -0.3749 -0.3749
vn 0.8479 0.5121 0.1372
vn -0.8479 -0.1372 0.5121
vn -0.8479 -0.2651 0.4591
vn 0.8479 -0.1372 0.5121
vn -0.8479 -0.4591 -0.2651
vn 0.8479 0.5302 -0.0000
vn 0.9872 0.1596 -0.0000
vn 0.9872 -0.0798 0.1382
vn 0.9872 -0.0798 -0.1382
vn -0.9872 -0.1128 -0.1128
vn -0.9872 -0.1541 0.0413
vn -0.9872 0.1128 0.1128
vn -0.9872 0.1596 -0.0000
vn -0.9872 0.1541 0.0413
vn 0.9872 -0.0413 0.1541
vn -0.9872 -0.1541 -0.0413
vn -0.9872 -0.1382 -0.0798
vn -0.9872 -0.0413 0.1541
vn 0.9872 -0.1541 -0.0413
vn 0.9872 0.0000 0.1596
vn -0.9872 -0.1596 0.0000
vn 0.9872 0.1541 -0.0413
vn -0.9872 0.0413 0.1541
vn -0.9872 -0.0000 0.1596
vn 0.9872 -0.1596 0.0000
vn -0.9872 0.1541 -0.0413
vn 0.9872 0.0413 0.1541
vn 0.9872 0.1382 -0.0798
vn 0.9872 -0.1541 0.0413
vn -0.9872 0.1382 -0.0798
vn -0.9872 -0.0413 -0.1541
vn -0.9872 -0.0000 -0.1596
vn 0.9872 0.0798 0.1382
vn -0.9872 -0.1382 0.0798
vn 0.9872 0.1128 -0.1128
vn 0.9872 -0.0413 -0.1541
vn -0.9872 0.0798 0.1382
vn 0.9872 -0.1382 0.0798
vn -0.9872 0.0798 -0.1382
vn -0.9872 0.1128 -0.1128
vn -0.9872 -0.0798 -0.1382
vn 0.9872 0.1128 0.1128
vn -0.9872 -0.1128 0.1128
vn 0.9872 0.0798 -0.1382
vn -0.9872 0.1382 0.0798
vn 0.9872 -0.1128 0.1128
vn 0.9872 0.1382 0.0798
vn 0.9872 -0.1128 -0.1128
vn -0.9872 0.0413 -0.1541
vn 0.9872 0.1541 0.0413
vn -0.9872 -0.0798 0.1382
s 1
f 194/249/193 195/250/194 193/251/195
f 196/252/196 197/253/197 195/250/194
f 198/254/198 199/255/199 197/253/197
f 200/256/200 201/257/201 199/255/199
f 202/258/202 203/259/203 201/257/201
f 204/260/204 205/261/205 203/259/203
f 206/262/206 207/263/207 205/261/205
f 208/264/208 209/265/209 207/263/207
f 210/266/210 211/267/211 209/265/209
f 211/267/211 214/268/212 213/269/213
f 213/269/213 216/270/214 215/271/215
f 216/270/214 217/272/216 215/271/215
f 218/273/217 219/274/218 217/272/216
f 220/275/219 221/276/220 219/274/218
f 221/276/220 224/277/221 223/278/222
f 224/277/221 225/279/223 223/278/222
f 226/280/224 227/281/225 225/279/223
f 228/282/226 229/283/227 227/281/225
f 230/284/228 231/285/229 229/283/227
f 232/286/230 233/287/231 231/285/229
f 234/288/232 235/289/233 233/287/231
f 236/290/234 237/291/235 235/289/233
f 222/292/236 268/293/237 270/294/238
f 238/295/239 239/296/240 237/291/235
f 240/297/241 193/298/195 239/296/240
f 204/260/204 250/299/242 252/300/243
f 279/301/244 325/302/245 277/303/246
f 252/300/243 298/304/247 300/305/248
f 238/295/239 288/306/249 240/297/241
f 194/249/193 243/307/250 196/252/196
f 211/267/211 261/308/251 259/309/252
f 229/283/227 279/301/244 277/303/246
f 214/268/212 260/310/253 262/311/254
f 230/284/228 280/312/255 232/286/230
f 205/261/205 251/313/256 203/259/203
f 223/278/222 269/314/257 221/276/220
f 193/298/195 287/315/258 239/296/240
f 204/260/204 254/316/259 206/262/206
f 224/277/221 270/294/238 272/317/260
f 194/318/193 288/306/249 244/319/261
f 195/250/194 245/320/262 242/321/263
f 213/269/213 263/322/264 261/308/251
f 231/285/229 281/323/265 279/301/244
f 196/252/196 246/324/266 198/254/198
f 214/268/212 264/325/267 216/270/214
f 232/286/230 282/326/268 234/288/232
f 205/261/205 255/327/269 253/328/270
f 225/279/223 271/329/271 223/278/222
f 206/262/206 256/330/272 208/264/208
f 226/280/224 272/317/260 274/331/273
f 199/255/199 245/320/262 197/253/197
f 217/272/216 263/322/264 215/271/215
f 235/289/233 281/323/265 233/287/231
f 198/254/198 248/332/274 200/256/200
f 216/270/214 266/333/275 218/273/217
f 234/288/232 284/334/276 236/290/234
f 207/263/207 257/335/277 255/327/269
f 225/279/223 275/336/278 273/337/279
f 208/264/208 258/338/280 210/266/210
f 228/282/226 274/331/273 276/339/281
f 201/257/201 247/340/282 199/255/199
f 217/272/216 267/341/283 265/342/284
f 237/291/235 283/343/285 235/289/233
f 200/256/200 250/299/242 202/258/202
f 220/275/219 266/333/275 268/293/237
f 238/295/239 284/334/276 286/344/286
f 211/267/211 257/335/277 209/265/209
f 229/283/227 275/336/278 227/281/225
f 210/266/210 260/310/253 212/345/287
f 230/284/228 276/339/281 278/346/288
f 203/259/203 249/347/289 201/257/201
f 221/276/220 267/341/283 219/274/218
f 237/291/235 287/315/258 285/348/290
f 193/251/195 242/321/263 241/349/291
f 296/350/292 346/351/293 298/304/247
f 292/352/294 384/353/295 340/354/296
f 264/325/267 314/355/297 266/333/275
f 253/328/270 299/356/298 251/313/256
f 278/346/288 328/357/299 280/312/255
f 265/342/284 315/358/300 313/359/301
f 254/316/259 300/305/248 302/360/302
f 279/301/244 329/361/303 327/362/304
f 266/333/275 316/363/305 268/293/237
f 255/327/269 301/364/306 253/328/270
f 280/312/255 330/365/307 282/326/268
f 269/314/257 315/358/300 267/341/283
f 256/330/272 302/360/302 304/366/308
f 281/323/265 331/367/309 329/361/303
f 242/321/263 289/368/310 241/349/291
f 270/294/238 316/363/305 318/369/311
f 257/335/277 303/370/312 255/327/269
f 282/326/268 332/371/313 284/334/276
f 243/307/250 292/372/294 291/373/314
f 269/314/257 319/374/315 317/375/316
f 258/338/280 304/366/308 306/376/317
f 283/343/285 333/377/318 331/367/309
f 242/321/263 293/378/319 290/379/320
f 270/294/238 320/380/321 272/317/260
f 257/335/277 307/381/322 305/382/323
f 284/334/276 334/383/324 286/344/286
f 246/324/266 291/373/314 294/384/325
f 271/329/271 321/385/326 319/374/315
f 258/338/280 308/386/327 260/310/253
f 287/315/258 333/377/318 285/348/290
f 247/340/282 293/378/319 245/320/262
f 272/317/260 322/387/328 274/331/273
f 261/308/251 307/381/322 259/309/252
f 288/306/249 334/383/324 336/388/329
f 248/332/274 294/384/325 296/350/292
f 273/337/279 323/389/330 321/385/326
f 262/311/254 308/386/327 310/390/331
f 287/315/258 289/391/310 335/392/332
f 249/347/289 295/393/333 247/340/282
f 274/331/273 324/394/334 276/339/281
f 261/308/251 311/395/335 309/396/336
f 288/306/249 292/352/294 244/319/261
f 250/299/242 296/350/292 298/304/247
f 275/336/278 325/302/245 323/389/330
f 262/311/254 312/397/337 264/325/267
f 251/313/256 297/398/338 249/347/289
f 276/339/281 326/399/339 278/346/288
f 263/322/264 313/359/301 311/395/335
f 374/400/340 358/401/341 342/402/342
f 343/403/343 351/404/344 367/405/345
f 323/389/330 373/406/346 371/407/347
f 312/397/337 358/408/341 360/409/348
f 297/398/338 347/410/349 345/411/350
f 324/394/334 374/412/340 326/399/339
f 313/359/301 359/413/351 311/395/335
f 298/304/247 348/414/352 300/305/248
f 327/362/304 373/406/346 325/302/245
f 312/397/337 362/415/353 314/355/297
f 299/356/298 349/416/354 347/410/349
f 328/357/299 374/412/340 376/417/355
f 313/359/301 363/418/356 361/419/357
f 300/305/248 350/420/358 302/360/302
f 329/361/303 375/421/359 327/362/304
f 314/355/297 364/422/360 316/363/305
f 303/370/312 349/416/354 301/364/306
f 330/365/307 376/417/355 378/423/361
f 317/375/316 363/418/356 315/358/300
f 304/366/308 350/420/358 352/424/362
f 331/367/309 377/425/363 329/361/303
f 289/368/310 338/426/364 337/427/365
f 316/363/305 366/428/366 318/369/311
f 303/370/312 353/429/367 351/430/344
f 332/371/313 378/423/361 380/431/368
f 292/372/294 339/432/369 291/373/314
f 317/375/316 367/433/345 365/434/370
f 304/366/308 354/435/371 306/376/317
f 331/367/309 381/436/372 379/437/373
f 290/379/320 341/438/374 338/426/364
f 318/369/311 368/439/375 320/380/321
f 305/382/323 355/440/376 353/429/367
f 332/371/313 382/441/377 334/383/324
f 291/373/314 342/442/342 294/384/325
f 319/374/315 369/443/378 367/433/345
f 306/376/317 356/444/379 308/386/327
f 335/392/332 381/436/372 333/377/318
f 295/393/333 341/438/374 293/378/319
f 322/387/328 368/439/375 370/445/380
f 309/396/336 355/440/376 307/381/322
f 336/388/329 382/441/377 384/353/295
f 296/350/292 342/442/342 344/446/381
f 323/389/330 369/443/378 321/385/326
f 310/390/331 356/444/379 358/408/341
f 289/391/310 383/447/382 335/392/332
f 295/393/333 345/411/350 343/448/343
f 324/394/334 370/445/380 372/449/383
f 309/396/336 359/413/351 357/450/384
f 194/249/193 196/252/196 195/250/194
f 196/252/196 198/254/198 197/253/197
f 198/254/198 200/256/200 199/255/199
f 200/256/200 202/258/202 201/257/201
f 202/258/202 204/260/204 203/259/203
f 204/260/204 206/262/206 205/261/205
f 206/262/206 208/264/208 207/263/207
f 208/264/208 210/266/210 209/265/209
f 210/266/210 212/345/287 211/267/211
f 211/267/211 212/345/287 214/268/212
f 213/269/213 214/268/212 216/270/214
f 216/270/214 218/273/217 217/272/216
f 218/273/217 220/275/219 219/274/218
f 220/275/219 222/292/236 221/276/220
f 221/276/220 222/292/236 224/277/221
f 224/277/221 226/280/224 225/279/223
f 226/280/224 228/282/226 227/281/225
f 228/282/226 230/284/228 229/283/227
f 230/284/228 232/286/230 231/285/229
f 232/286/230 234/288/232 233/287/231
f 234/288/232 236/290/234 235/289/233
f 236/290/234 238/295/239 237/291/235
f 222/292/236 220/275/219 268/293/237
f 238/295/239 240/297/241 239/296/240
f 240/297/241 194/318/193 193/298/195
f 204/260/204 202/258/202 250/299/242
f 279/301/244 327/362/304 325/302/245
f 252/300/243 250/299/242 298/304/247
f 238/295/239 286/344/286 288/306/249
f 194/249/193 244/451/261 243/307/250
f 211/267/211 213/269/213 261/308/251
f 229/283/227 231/285/229 279/301/244
f 214/268/212 212/345/287 260/310/253
f 230/284/228 278/346/288 280/312/255
f 205/261/205 253/328/270 251/313/256
f 223/278/222 271/329/271 269/314/257
f 193/298/195 241/452/291 287/315/258
f 204/260/204 252/300/243 254/316/259
f 224/277/221 222/292/236 270/294/238
f 194/318/193 240/297/241 288/306/249
f 195/250/194 197/253/197 245/320/262
f 213/269/213 215/271/215 263/322/264
f 231/285/229 233/287/231 281/323/265
f 196/252/196 243/307/250 246/324/266
f 214/268/212 262/311/254 264/325/267
f 232/286/230 280/312/255 282/326/268
f 205/261/205 207/263/207 255/327/269
f 225/279/223 273/337/279 271/329/271
f 206/262/206 254/316/259 256/330/272
f 226/280/224 224/277/221 272/317/260
f 199/255/199 247/340/282 245/320/262
f 217/272/216 265/342/284 263/322/264
f 235/289/233 283/343/285 281/323/265
f 198/254/198 246/324/266 248/332/274
f 216/270/214 264/325/267 266/333/275
f 234/288/232 282/326/268 284/334/276
f 207/263/207 209/265/209 257/335/277
f 225/279/223 227/281/225 275/336/278
f 208/264/208 256/330/272 258/338/280
f 228/282/226 226/280/224 274/331/273
f 201/257/201 249/347/289 247/340/282
f 217/272/216 219/274/218 267/341/283
f 237/291/235 285/348/290 283/343/285
f 200/256/200 248/332/274 250/299/242
f 220/275/219 218/273/217 266/333/275
f 238/295/239 236/290/234 284/334/276
f 211/267/211 259/309/252 257/335/277
f 229/283/227 277/303/246 275/336/278
f 210/266/210 258/338/280 260/310/253
f 230/284/228 228/282/226 276/339/281
f 203/259/203 251/313/256 249/347/289
f 221/276/220 269/314/257 267/341/283
f 237/291/235 239/296/240 287/315/258
f 193/251/195 195/250/194 242/321/263
f 296/350/292 344/446/381 346/351/293
f 292/352/294 336/388/329 384/353/295
f 264/325/267 312/397/337 314/355/297
f 253/328/270 301/364/306 299/356/298
f 278/346/288 326/399/339 328/357/299
f 265/342/284 267/341/283 315/358/300
f 254/316/259 252/300/243 300/305/248
f 279/301/244 281/323/265 329/361/303
f 266/333/275 314/355/297 316/363/305
f 255/327/269 303/370/312 301/364/306
f 280/312/255 328/357/299 330/365/307
f 269/314/257 317/375/316 315/358/300
f 256/330/272 254/316/259 302/360/302
f 281/323/265 283/343/285 331/367/309
f 242/321/263 290/379/320 289/368/310
f 270/294/238 268/293/237 316/363/305
f 257/335/277 305/382/323 303/370/312
f 282/326/268 330/365/307 332/371/313
f 243/307/250 244/451/261 292/372/294
f 269/314/257 271/329/271 319/374/315
f 258/338/280 256/330/272 304/366/308
f 283/343/285 285/348/290 333/377/318
f 242/321/263 245/320/262 293/378/319
f 270/294/238 318/369/311 320/380/321
f 257/335/277 259/309/252 307/381/322
f 284/334/276 332/371/313 334/383/324
f 246/324/266 243/307/250 291/373/314
f 271/329/271 273/337/279 321/385/326
f 258/338/280 306/376/317 308/386/327
f 287/315/258 335/392/332 333/377/318
f 247/340/282 295/393/333 293/378/319
f 272/317/260 320/380/321 322/387/328
f 261/308/251 309/396/336 307/381/322
f 288/306/249 286/344/286 334/383/324
f 248/332/274 246/324/266 294/384/325
f 273/337/279 275/336/278 323/389/330
f 262/311/254 260/310/253 308/386/327
f 287/315/258 241/452/291 289/391/310
f 249/347/289 297/398/338 295/393/333
f 274/331/273 322/387/328 324/394/334
f 261/308/251 263/322/264 311/395/335
f 288/306/249 336/388/329 292/352/294
f 250/299/242 248/332/274 296/350/292
f 275/336/278 277/303/246 325/302/245
f 262/311/254 310/390/331 312/397/337
f 251/313/256 299/356/298 297/398/338
f 276/339/281 324/394/334 326/399/339
f 263/322/264 265/342/284 313/359/301
f 342/402/342 339/453/369 340/454/296
f 340/454/296 384/455/295 382/456/377
f 382/456/377 380/457/368 374/400/340
f 380/457/368 378/458/361 374/400/340
f 378/458/361 376/459/355 374/400/340
f 374/400/340 372/460/383 370/461/380
f 370/461/380 368/462/375 366/463/366
f 366/463/366 364/464/360 362/465/353
f 362/465/353 360/466/348 358/401/341
f 358/401/341 356/467/379 354/468/371
f 354/468/371 352/469/362 350/470/358
f 350/470/358 348/471/352 346/472/293
f 346/472/293 344/473/381 350/470/358
f 344/473/381 342/402/342 350/470/358
f 342/402/342 340/454/296 374/400/340
f 340/454/296 382/456/377 374/400/340
f 374/400/340 370/461/380 358/401/341
f 370/461/380 366/463/366 358/401/341
f 366/463/366 362/465/353 358/401/341
f 358/401/341 354/468/371 342/402/342
f 354/468/371 350/470/358 342/402/342
f 383/474/382 337/475/365 343/403/343
f 337/475/365 338/476/364 343/403/343
f 338/476/364 341/477/374 343/403/343
f 343/403/343 345/478/350 347/479/349
f 347/479/349 349/480/354 351/404/344
f 351/404/344 353/481/367 355/482/376
f 355/482/376 357/483/384 359/484/351
f 359/484/351 361/485/357 363/486/356
f 363/486/356 365/487/370 359/484/351
f 365/487/370 367/405/345 359/484/351
f 367/405/345 369/488/378 375/489/359
f 369/488/378 371/490/347 375/489/359
f 371/490/347 373/491/346 375/489/359
f 375/489/359 377/492/363 379/493/373
f 379/493/373 381/494/372 383/474/382
f 343/403/343 347/479/349 351/404/344
f 351/404/344 355/482/376 367/405/345
f 355/482/376 359/484/351 367/405/345
f 375/489/359 379/493/373 367/405/345
f 379/493/373 383/474/382 367/405/345
f 383/474/382 343/403/343 367/405/345
f 323/389/330 325/302/245 373/406/346
f 312/397/337 310/390/331 358/408/341
f 297/398/338 299/356/298 347/410/349
f 324/394/334 372/449/383 374/412/340
f 313/359/301 361/419/357 359/413/351
f 298/304/247 346/351/293 348/414/352
f 327/362/304 375/421/359 373/406/346
f 312/397/337 360/409/348 362/415/353
f 299/356/298 301/364/306 349/416/354
f 328/357/299 326/399/339 374/412/340
f 313/359/301 315/358/300 363/418/356
f 300/305/248 348/414/352 350/420/358
f 329/361/303 377/425/363 375/421/359
f 314/355/297 362/415/353 364/422/360
f 303/370/312 351/430/344 349/416/354
f 330/365/307 328/357/299 376/417/355
f 317/375/316 365/434/370 363/418/356
f 304/366/308 302/360/302 350/420/358
f 331/367/309 379/437/373 377/425/363
f 289/368/310 290/379/320 338/426/364
f 316/363/305 364/422/360 366/428/366
f 303/370/312 305/382/323 353/429/367
f 332/371/313 330/365/307 378/423/361
f 292/372/294 340/495/296 339/432/369
f 317/375/316 319/374/315 367/433/345
f 304/366/308 352/424/362 354/435/371
f 331/367/309 333/377/318 381/436/372
f 290/379/320 293/378/319 341/438/374
f 318/369/311 366/428/366 368/439/375
f 305/382/323 307/381/322 355/440/376
f 332/371/313 380/431/368 382/441/377
f 291/373/314 339/432/369 342/442/342
f 319/374/315 321/385/326 369/443/378
f 306/376/317 354/435/371 356/444/379
f 335/392/332 383/447/382 381/436/372
f 295/393/333 343/448/343 341/438/374
f 322/387/328 320/380/321 368/439/375
f 309/396/336 357/450/384 355/440/376
f 336/388/329 334/383/324 382/441/377
f 296/350/292 294/384/325 342/442/342
f 323/389/330 371/407/347 369/443/378
f 310/390/331 308/386/327 356/444/379
f 289/391/310 337/496/365 383/447/382
f 295/393/333 297/398/338 345/411/350
f 324/394/334 322/387/328 370/445/380
f 309/396/336 311/395/335 359/413/351
