# Blender v3.4.1 OBJ File: 'decoratives_and_entities.blend'
# www.blender.org
o Switch_Base_Cube.048
v -0.944701 -0.084610 1.000000
v -0.750872 0.030654 0.837369
v -1.000000 -0.084610 0.944701
v -0.837369 0.030654 0.750872
v -0.794121 0.030654 0.825781
v -0.972350 -0.084610 0.992591
v -0.992591 -0.084610 0.972350
v -0.825781 0.030654 0.794121
v -0.949690 0.084610 0.894390
v -0.894390 0.084610 0.949690
v -0.942281 0.084610 0.922040
v -0.922040 0.084610 0.942281
v -1.000000 -0.084610 -0.944701
v -0.837369 0.030654 -0.750872
v -0.944701 -0.084610 -1.000000
v -0.750872 0.030654 -0.837369
v -0.992591 -0.084610 -0.972350
v -0.825781 0.030654 -0.794121
v -0.972350 -0.084610 -0.992591
v -0.794121 0.030654 -0.825781
v -0.894390 0.084610 -0.949690
v -0.949690 0.084610 -0.894390
v -0.922040 0.084610 -0.942281
v -0.942281 0.084610 -0.922040
v 1.000000 -0.084610 0.944701
v 0.837369 0.030654 0.750872
v 0.944701 -0.084610 1.000000
v 0.750872 0.030654 0.837369
v 0.825781 0.030654 0.794121
v 0.992591 -0.084610 0.972350
v 0.972350 -0.084610 0.992591
v 0.794121 0.030654 0.825781
v 0.894390 0.084610 0.949690
v 0.949690 0.084610 0.894390
v 0.922040 0.084610 0.942281
v 0.942281 0.084610 0.922040
v 0.944701 -0.084610 -1.000000
v 0.750872 0.030654 -0.837369
v 1.000000 -0.084610 -0.944701
v 0.837369 0.030654 -0.750872
v 0.972350 -0.084610 -0.992591
v 0.794121 0.030654 -0.825781
v 0.992591 -0.084610 -0.972350
v 0.825781 0.030654 -0.794121
v 0.949690 0.084610 -0.894390
v 0.894390 0.084610 -0.949690
v 0.942281 0.084610 -0.922040
v 0.922040 0.084610 -0.942281
v -0.822059 0.085113 -0.790399
v -0.790399 0.085113 -0.822059
v -0.747150 0.085113 -0.833647
v 0.822059 0.085113 -0.790399
v 0.833647 0.085113 0.747150
v 0.833647 0.085113 -0.747150
v 0.790399 0.085113 -0.822059
v 0.747150 0.085113 -0.833647
v -0.833647 0.085113 0.747150
v -0.833647 0.085113 -0.747150
v -0.822059 0.085113 0.790399
v 0.790399 0.085113 0.822059
v 0.822059 0.085113 0.790399
v 0.747150 0.085113 0.833647
v -0.747150 0.085113 0.833647
v -0.790399 0.085113 0.822059
vt 0.625000 0.757279
vt 0.375000 0.993088
vt 0.375000 0.756912
vt 0.625000 0.507279
vt 0.375000 0.743088
vt 0.375000 0.506912
vt 0.857700 0.528475
vt 0.856202 0.522888
vt 0.875000 0.507279
vt 0.643797 0.727112
vt 0.647888 0.731202
vt 0.625000 0.742721
vt 0.625000 0.007279
vt 0.375000 0.243088
vt 0.375000 0.006912
vt 0.625000 0.257279
vt 0.375000 0.493088
vt 0.375000 0.256912
vt 0.625000 1.000000
vt 0.375110 1.000000
vt 0.625000 0.000000
vt 0.375023 0.003456
vt 0.375110 0.000000
vt 0.625023 0.003639
vt 0.625023 0.253639
vt 0.375023 0.253456
vt 0.625023 0.246361
vt 0.625000 0.242721
vt 0.625023 0.503639
vt 0.375023 0.503456
vt 0.625023 0.496361
vt 0.625000 0.492721
vt 0.625023 0.753639
vt 0.375023 0.753456
vt 0.625023 0.746361
vt 0.368088 0.500000
vt 0.131912 0.750000
vt 0.375000 0.987088
vt 0.397086 0.762972
vt 0.375000 0.762912
vt 0.375000 0.737088
vt 0.397086 0.512972
vt 0.375000 0.512912
vt 0.375000 0.012912
vt 0.397086 0.237028
vt 0.397086 0.012972
vt 0.375000 0.262912
vt 0.397086 0.487028
vt 0.397086 0.262972
vt 0.419369 1.000000
vt 0.397086 0.987028
vt 0.399443 0.000000
vt 0.402670 0.006358
vt 0.419369 0.000000
vt 0.402670 0.256358
vt 0.380585 0.243673
vt 0.402670 0.243642
vt 0.375000 0.237088
vt 0.402670 0.506358
vt 0.380585 0.493673
vt 0.402670 0.493642
vt 0.375000 0.487088
vt 0.402670 0.756358
vt 0.380585 0.743673
vt 0.402670 0.743642
vt 0.397086 0.737028
vt 0.137912 0.750000
vt 0.362088 0.500000
vt 0.625000 0.992721
vt 0.875000 0.742721
vt 0.874025 0.746361
vt 0.871361 0.749025
vt 0.867721 0.750000
vt 0.852112 0.731203
vt 0.856202 0.727112
vt 0.857700 0.721525
vt 0.871361 0.500975
vt 0.874025 0.503639
vt 0.632279 0.500000
vt 0.867721 0.500000
vt 0.846525 0.517300
vt 0.852112 0.518797
vt 0.653475 0.517300
vt 0.647888 0.518798
vt 0.632279 0.750000
vt 0.628639 0.749025
vt 0.625975 0.746361
vt 0.642300 0.721525
vt 0.625975 0.503639
vt 0.628639 0.500975
vt 0.643797 0.522888
vt 0.642300 0.528475
vt 0.653475 0.732700
vt 0.846525 0.732700
vt 0.375023 0.246544
vt 0.375023 0.496544
vt 0.375023 0.746544
vt 0.128456 0.749074
vt 0.125926 0.746544
vt 0.125000 0.743088
vt 0.125000 0.506912
vt 0.125926 0.503456
vt 0.128456 0.500926
vt 0.131912 0.500000
vt 0.371544 0.500926
vt 0.374074 0.503456
vt 0.374074 0.746544
vt 0.371544 0.749074
vt 0.368088 0.750000
vt 0.399443 1.000000
vt 0.380585 0.006327
vt 0.380585 0.256327
vt 0.380585 0.506327
vt 0.380585 0.756327
vt 0.137912 0.500000
vt 0.125000 0.512912
vt 0.131456 0.501730
vt 0.126730 0.506456
vt 0.125000 0.737088
vt 0.126730 0.743544
vt 0.131456 0.748270
vt 0.362088 0.750000
vt 0.368544 0.748270
vt 0.373270 0.743544
vt 0.373270 0.506456
vt 0.368544 0.501730
vn 0.1046 0.3119 0.9444
vn -0.1415 0.3205 0.9366
vn 0.1415 0.3205 0.9366
vn 0.9444 0.3119 -0.1046
vn 0.9366 0.3205 0.1415
vn 0.9366 0.3205 -0.1415
vn -0.0040 1.0000 -0.0002
vn -0.0027 1.0000 -0.0015
vn -0.0024 1.0000 -0.0012
vn 0.0027 1.0000 0.0015
vn 0.0015 1.0000 0.0027
vn 0.0024 1.0000 0.0012
vn -0.9444 0.3119 0.1046
vn -0.9366 0.3205 -0.1415
vn -0.9366 0.3205 0.1415
vn -0.1046 0.3119 -0.9444
vn 0.1415 0.3205 -0.9366
vn -0.1415 0.3205 -0.9366
vn -0.4489 0.3746 0.8113
vn -0.4751 0.3776 0.7948
vn -0.7948 0.3776 0.4751
vn -0.8113 0.3746 0.4489
vn -0.4489 0.3746 -0.8113
vn -0.4751 0.3776 -0.7948
vn -0.8113 0.3746 -0.4489
vn -0.9444 0.3119 -0.1046
vn 0.8113 0.3746 -0.4489
vn 0.7948 0.3776 -0.4751
vn 0.4489 0.3746 -0.8113
vn 0.1046 0.3119 -0.9444
vn 0.4489 0.3746 0.8113
vn 0.4751 0.3776 0.7948
vn 0.8113 0.3746 0.4489
vn 0.9444 0.3119 0.1046
vn 0.0000 -1.0000 -0.0000
vn 0.1349 -0.0767 -0.9879
vn -0.1253 -0.0762 -0.9892
vn -0.1349 -0.0767 -0.9879
vn -0.9879 -0.0767 -0.1349
vn -0.9892 -0.0762 0.1253
vn -0.9879 -0.0767 0.1349
vn 0.9879 -0.0767 -0.1349
vn 0.9892 -0.0762 0.1253
vn 0.9892 -0.0762 -0.1253
vn 0.1349 -0.0767 0.9879
vn -0.1253 -0.0762 0.9892
vn 0.1253 -0.0762 0.9892
vn 0.4942 -0.0928 -0.8644
vn 0.1253 -0.0762 -0.9892
vn 0.5013 -0.0930 -0.8603
vn 0.8644 -0.0928 -0.4942
vn 0.4942 -0.0928 0.8644
vn 0.8603 -0.0930 0.5013
vn 0.8644 -0.0928 0.4942
vn 0.9879 -0.0767 0.1349
vn -0.8644 -0.0928 0.4942
vn -0.5013 -0.0930 0.8603
vn -0.4942 -0.0928 0.8644
vn -0.1349 -0.0767 0.9879
vn -0.4942 -0.0928 -0.8644
vn -0.8603 -0.0930 -0.5013
vn -0.8644 -0.0928 -0.4942
vn -0.9892 -0.0762 -0.1253
vn -0.0000 1.0000 -0.0000
vn -0.1046 0.3119 0.9444
vn -0.0024 1.0000 0.0012
vn -0.0012 1.0000 0.0024
vn -0.0015 1.0000 0.0027
vn -0.0027 1.0000 0.0015
vn -0.0040 1.0000 0.0002
vn 0.0012 1.0000 -0.0024
vn -0.0012 1.0000 -0.0024
vn -0.0002 1.0000 -0.0040
vn -0.0015 1.0000 -0.0027
vn 0.0002 1.0000 -0.0040
vn 0.0015 1.0000 -0.0027
vn 0.0012 1.0000 0.0024
vn 0.0024 1.0000 -0.0012
vn 0.0040 1.0000 0.0002
vn 0.0027 1.0000 -0.0015
vn 0.0040 1.0000 -0.0002
vn 0.0002 1.0000 0.0040
vn -0.0002 1.0000 0.0040
vn -0.7948 0.3776 -0.4751
vn 0.4751 0.3776 -0.7948
vn 0.7948 0.3776 0.4751
vn 0.8603 -0.0930 -0.5013
vn 0.5013 -0.0930 0.8603
vn -0.8603 -0.0930 0.5013
vn -0.5013 -0.0930 -0.8603
s 1
f 33/1/1 1/2/2 27/3/3
f 45/4/4 25/5/5 39/6/6
f 58/7/7 49/8/8 22/9/9
f 61/10/10 60/11/11 34/12/12
f 9/13/13 13/14/14 3/15/15
f 21/16/16 37/17/17 15/18/18
f 1/2/2 12/19/19 6/20/20
f 12/21/19 7/22/21 6/23/20
f 11/24/22 3/15/15 7/22/21
f 15/18/18 23/25/23 21/16/16
f 19/26/24 24/27/25 23/25/23
f 24/27/25 13/14/14 22/28/26
f 39/6/6 47/29/27 45/4/4
f 43/30/28 48/31/29 47/29/27
f 48/31/29 37/17/17 46/32/30
f 27/3/3 35/33/31 33/1/1
f 31/34/32 36/35/33 35/33/31
f 36/35/33 25/5/5 34/12/34
f 37/36/35 25/5/35 1/37/35
f 2/38/36 62/39/37 28/40/38
f 26/41/39 54/42/40 40/43/41
f 4/44/42 58/45/43 57/46/44
f 16/47/45 56/48/46 51/49/47
f 2/38/36 64/50/48 63/51/49
f 5/52/50 59/53/51 64/54/48
f 59/53/51 4/44/42 57/46/44
f 50/55/52 16/47/45 51/49/47
f 18/56/53 50/55/52 49/57/54
f 14/58/55 49/57/54 58/45/43
f 52/59/56 40/43/41 54/42/40
f 42/60/57 52/59/56 55/61/58
f 38/62/59 55/61/58 56/48/46
f 60/63/60 28/40/38 62/39/37
f 29/64/61 60/63/60 61/65/62
f 26/41/39 61/65/62 53/66/63
f 2/67/64 26/41/64 38/68/64
f 33/1/1 10/69/65 1/2/2
f 45/4/4 34/12/34 25/5/5
f 9/70/66 11/71/64 12/72/64
f 12/72/64 10/73/67 9/70/66
f 10/73/67 64/74/68 59/75/69
f 10/73/67 59/75/69 9/70/66
f 22/9/9 9/70/66 58/7/7
f 58/7/7 9/70/66 57/76/70
f 23/77/64 24/78/64 22/9/9
f 46/79/71 21/80/72 51/81/73
f 21/80/72 23/77/64 22/9/9
f 51/81/73 21/80/72 50/82/74
f 56/83/75 55/84/76 46/79/71
f 51/81/73 56/83/75 46/79/71
f 59/75/69 57/76/70 9/70/66
f 50/82/74 21/80/72 22/9/9
f 49/8/8 50/82/74 22/9/9
f 33/85/77 35/86/64 36/87/64
f 36/87/64 34/12/12 33/85/77
f 34/12/12 45/4/78 53/88/79
f 45/4/78 47/89/64 48/90/64
f 48/90/64 46/79/71 45/4/78
f 46/79/71 55/84/76 52/91/80
f 46/79/71 52/91/80 45/4/78
f 34/12/12 53/88/79 61/10/10
f 53/88/79 45/4/78 54/92/81
f 10/73/67 33/85/77 62/93/82
f 62/93/82 33/85/77 60/11/11
f 63/94/83 64/74/68 10/73/67
f 62/93/82 63/94/83 10/73/67
f 52/91/80 54/92/81 45/4/78
f 60/11/11 33/85/77 34/12/12
f 9/13/13 22/28/26 13/14/14
f 21/16/16 46/32/30 37/17/17
f 1/2/2 10/69/65 12/19/19
f 12/21/19 11/24/22 7/22/21
f 11/24/22 9/13/13 3/15/15
f 15/18/18 19/26/24 23/25/23
f 19/26/24 17/95/84 24/27/25
f 24/27/25 17/95/84 13/14/14
f 39/6/6 43/30/28 47/29/27
f 43/30/28 41/96/85 48/31/29
f 48/31/29 41/96/85 37/17/17
f 27/3/3 31/34/32 35/33/31
f 31/34/32 30/97/86 36/35/33
f 36/35/33 30/97/86 25/5/5
f 1/37/35 6/98/35 7/99/35
f 7/99/35 3/100/35 1/37/35
f 3/100/35 13/101/35 1/37/35
f 13/101/35 17/102/35 19/103/35
f 19/103/35 15/104/35 13/101/35
f 15/104/35 37/36/35 13/101/35
f 37/36/35 41/105/35 43/106/35
f 43/106/35 39/6/35 37/36/35
f 39/6/35 25/5/35 37/36/35
f 25/5/35 30/107/35 31/108/35
f 31/108/35 27/109/35 25/5/35
f 27/109/35 1/37/35 25/5/35
f 1/37/35 13/101/35 37/36/35
f 2/38/36 63/51/49 62/39/37
f 26/41/39 53/66/63 54/42/40
f 4/44/42 14/58/55 58/45/43
f 16/47/45 38/62/59 56/48/46
f 2/38/36 5/110/50 64/50/48
f 5/52/50 8/111/87 59/53/51
f 59/53/51 8/111/87 4/44/42
f 50/55/52 20/112/88 16/47/45
f 18/56/53 20/112/88 50/55/52
f 14/58/55 18/56/53 49/57/54
f 52/59/56 44/113/89 40/43/41
f 42/60/57 44/113/89 52/59/56
f 38/62/59 42/60/57 55/61/58
f 60/63/60 32/114/90 28/40/38
f 29/64/61 32/114/90 60/63/60
f 26/41/39 29/64/61 61/65/62
f 38/68/64 16/115/64 14/116/64
f 16/115/64 20/117/64 14/116/64
f 20/117/64 18/118/64 14/116/64
f 14/116/64 4/119/64 2/67/64
f 4/119/64 8/120/64 2/67/64
f 8/120/64 5/121/64 2/67/64
f 2/67/64 28/122/64 26/41/64
f 28/122/64 32/123/64 26/41/64
f 32/123/64 29/124/64 26/41/64
f 26/41/64 40/43/64 38/68/64
f 40/43/64 44/125/64 38/68/64
f 44/125/64 42/126/64 38/68/64
f 38/68/64 14/116/64 2/67/64
