# Blender v3.4.1 OBJ File: 'decoratives_and_entities.blend'
# www.blender.org
o Switch_Button_Cube.053
v -0.737003 0.046277 0.821903
v -0.821903 0.046277 0.737003
v -0.779453 0.046277 0.810528
v -0.810528 0.046277 0.779453
v -0.780553 0.199919 0.695653
v -0.695653 0.199919 0.780553
v -0.769178 0.199919 0.738103
v -0.738103 0.199919 0.769178
v -0.821903 0.046277 -0.737003
v -0.737003 0.046277 -0.821903
v -0.810528 0.046277 -0.779453
v -0.779453 0.046277 -0.810528
v -0.695653 0.199919 -0.780553
v -0.780553 0.199919 -0.695653
v -0.738103 0.199919 -0.769178
v -0.769178 0.199919 -0.738103
v 0.821903 0.046277 0.737003
v 0.737003 0.046277 0.821903
v 0.810528 0.046277 0.779453
v 0.779453 0.046277 0.810528
v 0.695653 0.199919 0.780553
v 0.780553 0.199919 0.695653
v 0.738103 0.199919 0.769178
v 0.769178 0.199919 0.738103
v 0.737003 0.046277 -0.821903
v 0.821903 0.046277 -0.737003
v 0.779453 0.046277 -0.810528
v 0.810528 0.046277 -0.779453
v 0.780553 0.199919 -0.695653
v 0.695653 0.199919 -0.780553
v 0.769178 0.199919 -0.738103
v 0.738103 0.199919 -0.769178
vt 0.625000 0.763596
vt 0.375000 0.987088
vt 0.375000 0.762912
vt 0.625000 0.513596
vt 0.375000 0.737088
vt 0.375000 0.512912
vt 0.875000 0.513596
vt 0.861404 0.750000
vt 0.625000 0.736404
vt 0.625000 0.013596
vt 0.375000 0.237088
vt 0.375000 0.012912
vt 0.625000 0.263596
vt 0.375000 0.487088
vt 0.375000 0.262912
vt 0.625000 1.000000
vt 0.399443 1.000000
vt 0.625000 0.000000
vt 0.380585 0.006327
vt 0.399443 0.000000
vt 0.630585 0.006673
vt 0.630585 0.256673
vt 0.380585 0.256327
vt 0.630585 0.243327
vt 0.625000 0.236404
vt 0.630585 0.506673
vt 0.380585 0.506327
vt 0.630585 0.493327
vt 0.625000 0.486404
vt 0.630585 0.756673
vt 0.380585 0.756327
vt 0.630585 0.743327
vt 0.362088 0.750000
vt 0.125000 0.737088
vt 0.625000 0.986404
vt 0.638596 0.500000
vt 0.626822 0.506798
vt 0.631798 0.501822
vt 0.861404 0.500000
vt 0.868202 0.501822
vt 0.873178 0.506798
vt 0.875000 0.736404
vt 0.873178 0.743202
vt 0.868202 0.748179
vt 0.638596 0.750000
vt 0.631798 0.748179
vt 0.626822 0.743202
vt 0.380585 0.243673
vt 0.380585 0.493673
vt 0.380585 0.743673
vt 0.125000 0.512912
vt 0.137912 0.500000
vt 0.126730 0.506456
vt 0.131456 0.501730
vt 0.362088 0.500000
vt 0.368544 0.501730
vt 0.373270 0.506456
vt 0.373270 0.743544
vt 0.368544 0.748270
vt 0.137912 0.750000
vt 0.131456 0.748270
vt 0.126730 0.743544
vn 0.1072 0.2852 0.9525
vn -0.1414 0.2926 0.9457
vn 0.1414 0.2926 0.9457
vn 0.9525 0.2852 -0.1072
vn 0.9457 0.2926 0.1414
vn 0.9457 0.2926 -0.1414
vn 0.0000 1.0000 -0.0000
vn -0.9525 0.2852 0.1072
vn -0.9457 0.2926 -0.1414
vn -0.9457 0.2926 0.1414
vn -0.1072 0.2852 -0.9525
vn 0.1414 0.2926 -0.9457
vn -0.1414 0.2926 -0.9457
vn -0.4560 0.3437 0.8209
vn -0.4804 0.3462 0.8058
vn -0.8058 0.3462 0.4804
vn -0.8209 0.3437 0.4560
vn -0.4560 0.3437 -0.8209
vn -0.4804 0.3462 -0.8058
vn -0.8209 0.3437 -0.4560
vn -0.9525 0.2852 -0.1072
vn 0.8209 0.3437 -0.4560
vn 0.8058 0.3462 -0.4804
vn 0.4560 0.3437 -0.8209
vn 0.1072 0.2852 -0.9525
vn 0.4560 0.3437 0.8209
vn 0.4804 0.3462 0.8058
vn 0.8209 0.3437 0.4560
vn 0.9525 0.2852 0.1072
vn -0.0000 -1.0000 -0.0000
vn -0.1072 0.2852 0.9525
vn -0.8058 0.3462 -0.4804
vn 0.4804 0.3462 -0.8058
vn 0.8058 0.3462 0.4804
s 1
f 21/1/1 1/2/2 18/3/3
f 29/4/4 17/5/5 26/6/6
f 14/7/7 6/8/7 22/9/7
f 5/10/8 9/11/9 2/12/10
f 13/13/11 25/14/12 10/15/13
f 1/2/2 8/16/14 3/17/15
f 8/18/14 4/19/16 3/20/15
f 7/21/17 2/12/10 4/19/16
f 10/15/13 15/22/18 13/13/11
f 12/23/19 16/24/20 15/22/18
f 16/24/20 9/11/9 14/25/21
f 26/6/6 31/26/22 29/4/4
f 28/27/23 32/28/24 31/26/22
f 32/28/24 25/14/12 30/29/25
f 18/3/3 23/30/26 21/1/1
f 20/31/27 24/32/28 23/30/26
f 24/32/28 17/5/5 22/9/29
f 26/6/30 18/33/30 2/34/30
f 21/1/1 6/35/31 1/2/2
f 29/4/4 22/9/29 17/5/5
f 22/9/7 29/4/7 30/36/7
f 29/4/7 31/37/7 30/36/7
f 31/37/7 32/38/7 30/36/7
f 30/36/7 13/39/7 14/7/7
f 13/39/7 15/40/7 14/7/7
f 15/40/7 16/41/7 14/7/7
f 14/7/7 5/42/7 6/8/7
f 5/42/7 7/43/7 6/8/7
f 7/43/7 8/44/7 6/8/7
f 6/8/7 21/45/7 22/9/7
f 21/45/7 23/46/7 22/9/7
f 23/46/7 24/47/7 22/9/7
f 22/9/7 30/36/7 14/7/7
f 5/10/8 14/25/21 9/11/9
f 13/13/11 30/29/25 25/14/12
f 1/2/2 6/35/31 8/16/14
f 8/18/14 7/21/17 4/19/16
f 7/21/17 5/10/8 2/12/10
f 10/15/13 12/23/19 15/22/18
f 12/23/19 11/48/32 16/24/20
f 16/24/20 11/48/32 9/11/9
f 26/6/6 28/27/23 31/26/22
f 28/27/23 27/49/33 32/28/24
f 32/28/24 27/49/33 25/14/12
f 18/3/3 20/31/27 23/30/26
f 20/31/27 19/50/34 24/32/28
f 24/32/28 19/50/34 17/5/5
f 2/34/30 9/51/30 10/52/30
f 9/51/30 11/53/30 10/52/30
f 11/53/30 12/54/30 10/52/30
f 10/52/30 25/55/30 26/6/30
f 25/55/30 27/56/30 26/6/30
f 27/56/30 28/57/30 26/6/30
f 26/6/30 17/5/30 18/33/30
f 17/5/30 19/58/30 18/33/30
f 19/58/30 20/59/30 18/33/30
f 18/33/30 1/60/30 2/34/30
f 1/60/30 3/61/30 2/34/30
f 3/61/30 4/62/30 2/34/30
f 2/34/30 10/52/30 26/6/30
