# Blender v3.4.1 OBJ File: 'decoratives_and_entities.blend'
# www.blender.org
o Hosta_Stalks_Cylinder.033
v -0.247768 -0.670571 0.332705
v -0.333061 -0.028719 0.332443
v -0.229592 -0.668275 0.301003
v -0.315756 -0.026533 0.302259
v -0.193269 -0.663661 0.301017
v -0.281173 -0.022140 0.302273
v -0.175122 -0.661344 0.332734
v -0.263895 -0.019933 0.332470
v -0.193297 -0.663639 0.364436
v -0.281200 -0.022119 0.362654
v -0.229620 -0.668253 0.364421
v -0.315783 -0.026512 0.362640
v -0.388049 0.483293 0.306153
v -0.403002 0.481404 0.332233
v -0.358168 0.487088 0.306165
v -0.343238 0.488995 0.332257
v -0.358191 0.487107 0.358338
v -0.388072 0.483311 0.358326
v -0.469382 1.009868 0.310538
v -0.481695 1.008313 0.332014
v -0.444775 1.012994 0.310547
v -0.432481 1.014564 0.332034
v -0.444794 1.013009 0.353511
v -0.469401 1.009883 0.353501
v -0.555773 1.571539 0.320316
v -0.562347 1.570709 0.331782
v -0.542635 1.573208 0.320321
v -0.536071 1.574047 0.331793
v -0.542645 1.573216 0.343259
v -0.555783 1.571548 0.343254
v 0.009735 -0.833360 -0.011574
v 0.009735 0.081767 -0.015842
v 0.045970 -0.833360 0.009347
v 0.044235 0.081767 0.004076
v 0.045970 -0.833360 0.051189
v 0.044235 0.081767 0.043914
v 0.009735 -0.833360 0.072109
v 0.009735 0.081767 0.063833
v -0.026501 -0.833360 0.051189
v -0.024766 0.081767 0.043914
v -0.026501 -0.833360 0.009347
v -0.024766 0.081767 0.004076
v 0.039544 0.809464 -0.004463
v 0.009735 0.809464 -0.021674
v 0.039544 0.809464 0.029958
v 0.009735 0.809464 0.047169
v -0.020075 0.809464 0.029958
v -0.020075 0.809464 -0.004463
v 0.034283 1.562254 -0.020839
v 0.009735 1.562254 -0.035012
v 0.034283 1.562254 0.007507
v 0.009735 1.562254 0.021680
v -0.014813 1.562254 0.007507
v -0.014813 1.562254 -0.020839
v 0.022841 2.365150 -0.037892
v 0.009734 2.365149 -0.045459
v 0.022841 2.365150 -0.022758
v 0.009735 2.365150 -0.015191
v -0.003372 2.365150 -0.022758
v -0.003372 2.365150 -0.037892
v -0.452511 -1.055783 -0.004455
v -0.456779 -0.220760 -0.131372
v -0.432525 -1.061311 -0.040796
v -0.437750 -0.226023 -0.165973
v -0.390697 -1.061472 -0.041855
v -0.397925 -0.226177 -0.166981
v -0.368856 -1.056105 -0.006572
v -0.377130 -0.221066 -0.133388
v -0.388842 -1.050576 0.029769
v -0.396159 -0.215803 -0.098787
v -0.430670 -1.050415 0.030828
v -0.435983 -0.215649 -0.097779
v -0.446166 0.438700 -0.262130
v -0.462608 0.443248 -0.232233
v -0.411756 0.438568 -0.263001
v -0.393788 0.442983 -0.233975
v -0.410230 0.447532 -0.204078
v -0.444640 0.447664 -0.203207
v -0.462402 1.126437 -0.361007
v -0.475942 1.130183 -0.336388
v -0.434065 1.126328 -0.361724
v -0.419269 1.129964 -0.337822
v -0.432809 1.133710 -0.313203
v -0.461145 1.133819 -0.312485
v -0.479157 1.860824 -0.460714
v -0.486386 1.862823 -0.447570
v -0.464028 1.860766 -0.461097
v -0.456128 1.862707 -0.448336
v -0.463357 1.864707 -0.435191
v -0.478486 1.864765 -0.434808
v 0.148533 -0.795328 0.477583
v 0.226897 -0.153476 0.511260
v 0.119384 -0.793032 0.499622
v 0.199144 -0.151290 0.532244
v 0.085974 -0.788419 0.485370
v 0.167335 -0.146897 0.518674
v 0.081713 -0.786101 0.449078
v 0.163277 -0.144690 0.484120
v 0.110862 -0.788396 0.427038
v 0.191030 -0.146876 0.463137
v 0.144271 -0.793010 0.441291
v 0.222840 -0.151269 0.476707
v 0.267177 0.358536 0.557002
v 0.291157 0.356647 0.538871
v 0.239692 0.362332 0.545276
v 0.236187 0.364238 0.515420
v 0.260166 0.362350 0.497289
v 0.287651 0.358554 0.509014
v 0.343719 0.885112 0.584852
v 0.363466 0.883556 0.569921
v 0.321085 0.888237 0.575196
v 0.318198 0.889808 0.550610
v 0.337945 0.888252 0.535679
v 0.360579 0.885127 0.545335
v 0.427028 1.446783 0.609723
v 0.437571 1.445952 0.601751
v 0.414944 1.448452 0.604568
v 0.413402 1.449290 0.591441
v 0.423945 1.448459 0.583470
v 0.436029 1.446791 0.588625
v 0.055184 -0.675357 -0.434574
v 0.124655 0.001123 -0.490507
v 0.060239 -0.673369 -0.403324
v 0.129468 0.003016 -0.460754
v 0.035784 -0.669372 -0.383526
v 0.106184 0.006821 -0.441903
v 0.006273 -0.667364 -0.394977
v 0.078086 0.008733 -0.452806
v 0.001218 -0.669353 -0.426226
v 0.073273 0.006840 -0.482559
v 0.025673 -0.673349 -0.446025
v 0.096558 0.003034 -0.501409
v 0.185481 0.540453 -0.510429
v 0.181322 0.538817 -0.536137
v 0.165362 0.543741 -0.494141
v 0.141084 0.545393 -0.503562
v 0.136926 0.543757 -0.529270
v 0.157045 0.540469 -0.545557
v 0.247637 1.095703 -0.565627
v 0.244213 1.094356 -0.586797
v 0.231070 1.098411 -0.552214
v 0.211077 1.099771 -0.559972
v 0.207653 1.098424 -0.581142
v 0.224220 1.095716 -0.594555
v 0.310909 1.687951 -0.627739
v 0.309081 1.687232 -0.639042
v 0.302064 1.689397 -0.620578
v 0.291390 1.690123 -0.624720
v 0.289561 1.689404 -0.636022
v 0.298407 1.687958 -0.643184
vt 1.000000 0.500000
vt 0.833333 1.000000
vt 0.833333 0.500000
vt 0.666667 1.000000
vt 0.666667 0.500000
vt 0.500000 1.000000
vt 0.500000 0.500000
vt 0.333333 0.500000
vt 0.666667 1.000000
vt 0.333333 1.000000
vt 0.166667 0.500000
vt 0.166667 1.000000
vt -0.000000 0.500000
vt 0.957846 0.370000
vt 0.750000 0.010000
vt 0.542154 0.370000
vt 1.000000 1.000000
vt 0.833333 1.000000
vt 0.833333 1.000000
vt 0.333333 1.000000
vt 0.166667 1.000000
vt 1.000000 1.000000
vt 0.500000 1.000000
vt -0.000000 1.000000
vt -0.000000 1.000000
vt 0.166667 1.000000
vt 0.333333 1.000000
vt 0.166667 1.000000
vt -0.000000 1.000000
vt 0.500000 1.000000
vt 0.333333 1.000000
vt 0.666667 1.000000
vt 0.250000 0.010000
vt 0.457846 0.130000
vt 0.250000 0.490000
vt 0.500000 1.000000
vt 1.000000 1.000000
vt 0.833333 1.000000
vt -0.000000 1.000000
vt 0.666667 1.000000
vt 1.000000 1.000000
vt 0.833333 0.500000
vt 1.000000 0.500000
vt 0.666667 1.000000
vt 0.666667 0.500000
vt 0.500000 1.000000
vt 0.500000 0.500000
vt 0.333333 1.000000
vt 0.333333 0.500000
vt 0.833333 1.000000
vt 0.666667 1.000000
vt 0.166667 0.500000
vt 0.166667 1.000000
vt -0.000000 0.500000
vt 0.542154 0.370000
vt 0.957846 0.130000
vt 0.542154 0.130000
vt 0.833333 1.000000
vt 1.000000 1.000000
vt 0.833333 1.000000
vt 0.333333 1.000000
vt 0.166667 1.000000
vt 1.000000 1.000000
vt 0.500000 1.000000
vt -0.000000 1.000000
vt -0.000000 1.000000
vt 0.166667 1.000000
vt 0.333333 1.000000
vt 0.166667 1.000000
vt -0.000000 1.000000
vt 0.333333 1.000000
vt 0.666667 1.000000
vt 0.500000 1.000000
vt 0.042154 0.130000
vt 0.250000 0.010000
vt 0.457846 0.130000
vt 0.500000 1.000000
vt 1.000000 1.000000
vt 0.833333 1.000000
vt -0.000000 1.000000
vt 0.666667 1.000000
vt 1.000000 1.000000
vt 0.833333 0.500000
vt 1.000000 0.500000
vt 0.833333 1.000000
vt 0.666667 0.500000
vt 0.500000 1.000000
vt 0.500000 0.500000
vt 0.333333 1.000000
vt 0.333333 0.500000
vt 0.666667 1.000000
vt 0.833333 1.000000
vt 0.666667 1.000000
vt 0.166667 1.000000
vt 0.166667 0.500000
vt -0.000000 0.500000
vt 0.750000 0.010000
vt 0.542154 0.130000
vt 0.542154 0.370000
vt 1.000000 1.000000
vt 0.833333 1.000000
vt 0.166667 1.000000
vt 1.000000 1.000000
vt 0.500000 1.000000
vt -0.000000 1.000000
vt -0.000000 1.000000
vt 0.333333 1.000000
vt 0.333333 1.000000
vt 0.166667 1.000000
vt 0.166667 1.000000
vt -0.000000 1.000000
vt 0.666667 1.000000
vt 0.500000 1.000000
vt 0.457846 0.130000
vt 0.042154 0.370000
vt 0.250000 0.010000
vt 0.500000 1.000000
vt 1.000000 1.000000
vt 0.833333 1.000000
vt -0.000000 1.000000
vt 0.333333 1.000000
vt 0.666667 1.000000
vt 1.000000 0.500000
vt 0.833333 1.000000
vt 0.833333 0.500000
vt 0.666667 1.000000
vt 0.666667 0.500000
vt 0.500000 1.000000
vt 0.500000 0.500000
vt 0.333333 0.500000
vt 0.666667 1.000000
vt 0.333333 1.000000
vt 0.166667 0.500000
vt 0.166667 1.000000
vt -0.000000 0.500000
vt 0.750000 0.010000
vt 0.542154 0.130000
vt 0.542154 0.370000
vt 1.000000 1.000000
vt 0.833333 1.000000
vt 0.833333 1.000000
vt 0.333333 1.000000
vt 0.166667 1.000000
vt 1.000000 1.000000
vt 0.500000 1.000000
vt -0.000000 1.000000
vt -0.000000 1.000000
vt 0.166667 1.000000
vt 0.333333 1.000000
vt 0.166667 1.000000
vt -0.000000 1.000000
vt 0.500000 1.000000
vt 0.333333 1.000000
vt 0.666667 1.000000
vt 0.250000 0.010000
vt 0.457846 0.130000
vt 0.250000 0.490000
vt 0.500000 1.000000
vt 1.000000 1.000000
vt 0.833333 1.000000
vt -0.000000 1.000000
vt 0.666667 1.000000
vt 1.000000 0.500000
vt 0.833333 1.000000
vt 0.833333 0.500000
vt 0.666667 1.000000
vt 0.666667 0.500000
vt 0.500000 1.000000
vt 0.500000 0.500000
vt 0.333333 0.500000
vt 0.666667 1.000000
vt 0.333333 1.000000
vt 0.166667 0.500000
vt 0.166667 1.000000
vt -0.000000 0.500000
vt 0.750000 0.010000
vt 0.542154 0.130000
vt 0.750000 0.490000
vt 1.000000 1.000000
vt 0.833333 1.000000
vt 0.833333 1.000000
vt 0.333333 1.000000
vt 0.166667 1.000000
vt 1.000000 1.000000
vt 0.500000 1.000000
vt -0.000000 1.000000
vt -0.000000 1.000000
vt 0.166667 1.000000
vt 0.333333 1.000000
vt 0.166667 1.000000
vt -0.000000 1.000000
vt 0.500000 1.000000
vt 0.333333 1.000000
vt 0.666667 1.000000
vt 0.042154 0.130000
vt 0.250000 0.010000
vt 0.250000 0.490000
vt 0.500000 1.000000
vt 1.000000 1.000000
vt 0.833333 1.000000
vt -0.000000 1.000000
vt 0.666667 1.000000
vt 0.750000 0.490000
vt 0.957846 0.130000
vt 0.542154 0.130000
vt 0.457846 0.370000
vt 0.042154 0.370000
vt 0.042154 0.130000
vt 1.000000 1.000000
vt 0.750000 0.490000
vt 0.957846 0.370000
vt 0.750000 0.010000
vt 0.457846 0.370000
vt 0.042154 0.370000
vt 0.250000 0.490000
vt 0.750000 0.490000
vt 0.957846 0.130000
vt 0.957846 0.370000
vt 0.457846 0.370000
vt 0.250000 0.490000
vt 0.042154 0.130000
vt 0.750000 0.490000
vt 0.957846 0.370000
vt 0.957846 0.130000
vt 0.457846 0.370000
vt 0.042154 0.370000
vt 0.042154 0.130000
vt 1.000000 1.000000
vt 0.542154 0.370000
vt 0.957846 0.370000
vt 0.957846 0.130000
vt 0.457846 0.130000
vt 0.457846 0.370000
vt 0.042154 0.370000
vt 1.000000 1.000000
vn -0.8583 -0.1143 -0.5003
vn -0.8580 -0.1160 -0.5003
vn 0.0002 0.0020 -1.0000
vn -0.0002 0.0047 -1.0000
vn 0.8581 0.1186 -0.4996
vn 0.8571 0.1259 -0.4996
vn 0.8566 0.1262 0.5003
vn 0.8576 0.1189 0.5003
vn -0.0002 0.0048 -1.0000
vn -0.0006 0.0079 -1.0000
vn -0.0011 0.0054 1.0000
vn -0.0007 0.0027 1.0000
vn -0.8585 -0.1157 0.4996
vn -0.8587 -0.1139 0.4997
vn 0.1260 -0.9920 0.0004
vn -0.8571 -0.1230 -0.5003
vn -0.8567 -0.1256 -0.5003
vn -0.8571 -0.1229 -0.5003
vn -0.0011 0.0055 1.0000
vn -0.0015 0.0086 1.0000
vn 0.8551 0.1390 -0.4994
vn -0.8575 -0.1226 0.4996
vn 0.8566 0.1263 0.5003
vn 0.8547 0.1393 0.5001
vn 0.8547 0.1394 0.5001
vn -0.0021 0.0135 0.9999
vn -0.0027 0.0178 0.9998
vn -0.8571 -0.1253 0.4996
vn -0.8572 -0.1252 0.4996
vn 0.8528 0.1514 0.4999
vn 0.8527 0.1516 0.4999
vn -0.0012 0.0126 -0.9999
vn -0.0021 0.0133 0.9999
vn 0.8551 0.1391 -0.4994
vn 0.8532 0.1511 -0.4992
vn -0.1260 0.9920 -0.0004
vn 0.8532 0.1512 -0.4992
vn 0.8521 0.1576 -0.4991
vn -0.8571 -0.1231 -0.5003
vn -0.8575 -0.1228 0.4996
vn 0.8517 0.1579 0.4997
vn -0.0012 0.0128 -0.9999
vn -0.0018 0.0171 -0.9999
vn 0.5000 -0.0055 -0.8660
vn 0.5000 -0.0040 -0.8660
vn 1.0000 0.0019 -0.0000
vn 1.0000 0.0042 0.0000
vn 0.5000 0.0078 0.8660
vn 0.5000 0.0138 0.8659
vn -0.5000 0.0078 0.8660
vn -0.5000 0.0138 0.8659
vn 1.0000 0.0067 -0.0000
vn -1.0000 0.0042 0.0000
vn -1.0000 0.0019 -0.0000
vn -0.5000 -0.0055 -0.8660
vn -0.5000 -0.0040 -0.8660
vn -0.0000 -1.0000 0.0000
vn 0.5000 -0.0111 -0.8660
vn 0.5000 -0.0133 -0.8659
vn -1.0000 0.0067 0.0000
vn 0.5000 -0.0112 -0.8660
vn 0.4999 0.0245 0.8658
vn -0.5000 -0.0111 -0.8660
vn -0.5000 -0.0112 -0.8660
vn -0.4998 0.0246 0.8658
vn -0.9999 0.0107 -0.0000
vn -0.9999 0.0142 -0.0000
vn -0.5000 -0.0133 -0.8659
vn -0.4998 0.0245 0.8658
vn -0.4997 0.0346 0.8655
vn 0.9999 0.0105 -0.0000
vn -0.9999 0.0105 -0.0000
vn 0.4998 0.0246 0.8658
vn 0.4997 0.0345 0.8655
vn 0.0000 1.0000 0.0000
vn 0.4997 0.0346 0.8655
vn 0.4996 0.0397 0.8653
vn 0.5000 -0.0113 -0.8660
vn -0.5000 -0.0113 -0.8660
vn -0.4997 0.0345 0.8655
vn -0.4996 0.0397 0.8653
vn 0.9999 0.0107 -0.0000
vn 0.9999 0.0142 -0.0000
vn -0.8785 -0.0777 -0.4713
vn -0.8785 -0.0762 -0.4716
vn -0.0256 -0.1459 -0.9890
vn -0.0256 -0.1483 -0.9886
vn 0.8529 -0.0701 -0.5173
vn 0.8528 -0.0637 -0.5183
vn 0.8785 0.0802 0.4709
vn 0.8784 0.0867 0.4699
vn -0.0256 -0.1431 -0.9894
vn -0.0256 -0.1432 -0.9894
vn 0.0256 0.1524 0.9880
vn 0.0256 0.1548 0.9876
vn -0.8529 0.0726 0.5169
vn -0.8529 0.0742 0.5167
vn 0.0000 -0.9886 0.1504
vn -0.8785 -0.0837 -0.4704
vn -0.8784 -0.0861 -0.4700
vn 0.0256 0.1575 0.9872
vn -0.8785 -0.0838 -0.4704
vn 0.8526 -0.0522 -0.5199
vn -0.8529 0.0726 0.5170
vn -0.8529 0.0666 0.5178
vn -0.8529 0.0665 0.5178
vn 0.8784 0.0866 0.4699
vn 0.8782 0.0982 0.4681
vn 0.0256 0.1616 0.9865
vn 0.0256 0.1656 0.9859
vn 0.0256 0.1618 0.9865
vn -0.8529 0.0642 0.5182
vn -0.8529 0.0643 0.5182
vn 0.8782 0.0981 0.4681
vn 0.8779 0.1088 0.4663
vn -0.0256 -0.1389 -0.9900
vn -0.0256 -0.1391 -0.9900
vn 0.8526 -0.0521 -0.5199
vn 0.8524 -0.0416 -0.5213
vn -0.0000 0.9886 -0.1504
vn 0.8523 -0.0414 -0.5213
vn 0.8522 -0.0359 -0.5221
vn -0.8785 -0.0839 -0.4704
vn -0.8529 0.0664 0.5179
vn 0.8779 0.1087 0.4663
vn 0.8777 0.1143 0.4653
vn -0.0256 -0.1351 -0.9905
vn 0.5934 -0.1143 0.7967
vn 0.5932 -0.1160 0.7966
vn -0.3922 0.0020 0.9199
vn -0.3918 0.0047 0.9200
vn -0.9853 0.1186 0.1233
vn -0.9843 0.1259 0.1236
vn -0.5920 0.1262 -0.7960
vn -0.5929 0.1189 -0.7965
vn -0.3918 0.0048 0.9200
vn -0.3915 0.0079 0.9202
vn 0.3930 0.0054 -0.9195
vn 0.3927 0.0027 -0.9197
vn 0.9856 -0.1157 -0.1231
vn 0.9858 -0.1139 -0.1230
vn -0.1158 -0.9920 -0.0498
vn 0.5924 -0.1230 0.7962
vn 0.5920 -0.1256 0.7961
vn 0.5924 -0.1229 0.7962
vn 0.3930 0.0055 -0.9195
vn 0.3934 0.0086 -0.9193
vn -0.9825 0.1390 0.1242
vn 0.9848 -0.1226 -0.1235
vn 0.9847 -0.1226 -0.1235
vn -0.5919 0.1263 -0.7960
vn -0.5902 0.1393 -0.7951
vn -0.5902 0.1394 -0.7951
vn 0.3939 0.0135 -0.9190
vn 0.3944 0.0178 -0.9188
vn 0.9844 -0.1253 -0.1236
vn 0.9844 -0.1252 -0.1236
vn -0.5885 0.1514 -0.7942
vn -0.5885 0.1516 -0.7941
vn -0.3909 0.0126 0.9204
vn 0.3939 0.0133 -0.9191
vn -0.9825 0.1391 0.1242
vn -0.9806 0.1511 0.1248
vn 0.1158 0.9920 0.0498
vn -0.9806 0.1512 0.1248
vn -0.9796 0.1576 0.1251
vn 0.5923 -0.1231 0.7962
vn 0.9847 -0.1228 -0.1235
vn -0.5876 0.1579 -0.7936
vn -0.3909 0.0128 0.9204
vn -0.3903 0.0171 0.9205
vn 0.9819 -0.1134 -0.1516
vn 0.9818 -0.1148 -0.1515
vn 0.6294 0.0016 0.7771
vn 0.6296 0.0038 0.7769
vn -0.3523 0.1168 0.9285
vn -0.3517 0.1229 0.9280
vn -0.9809 0.1232 0.1508
vn -0.9815 0.1172 0.1513
vn 0.6296 0.0039 0.7769
vn 0.6298 0.0064 0.7767
vn -0.6288 0.0045 -0.7776
vn -0.6290 0.0023 -0.7774
vn 0.3526 -0.1145 -0.9288
vn 0.3527 -0.1130 -0.9289
vn -0.0982 -0.9920 0.0790
vn 0.9811 -0.1205 -0.1510
vn 0.9809 -0.1227 -0.1509
vn 0.9812 -0.1205 -0.1510
vn -0.6288 0.0046 -0.7776
vn -0.6285 0.0071 -0.7778
vn -0.3506 0.1337 0.9269
vn 0.3520 -0.1201 -0.9283
vn 0.3520 -0.1202 -0.9282
vn -0.9808 0.1233 0.1508
vn -0.9796 0.1340 0.1499
vn -0.9796 0.1341 0.1499
vn -0.6281 0.0111 -0.7781
vn -0.6277 0.0147 -0.7783
vn 0.3518 -0.1224 -0.9280
vn 0.3518 -0.1224 -0.9281
vn -0.9783 0.1440 0.1491
vn -0.9783 0.1441 0.1491
vn 0.6302 0.0103 0.7764
vn -0.6281 0.0110 -0.7781
vn -0.3495 0.1436 0.9259
vn 0.0982 0.9920 -0.0790
vn -0.3495 0.1437 0.9259
vn -0.3489 0.1489 0.9253
vn 0.9811 -0.1207 -0.1510
vn 0.3520 -0.1203 -0.9282
vn -0.9776 0.1493 0.1486
vn 0.6302 0.0104 0.7764
vn 0.6305 0.0140 0.7760
vn -0.1260 0.9920 -0.0005
vn 0.0000 1.0000 -0.0001
s 1
f 1/1/1 4/2/2 3/3/1
f 3/3/3 6/4/4 5/5/3
f 5/5/5 8/6/6 7/7/5
f 8/6/7 9/8/8 7/7/8
f 4/2/9 15/9/10 6/4/4
f 10/10/11 11/11/12 9/8/12
f 12/12/13 1/13/14 11/11/14
f 3/14/15 7/15/15 11/16/15
f 14/17/16 19/18/17 13/19/18
f 12/12/19 17/20/20 18/21/20
f 2/22/2 13/19/18 4/2/2
f 6/4/6 16/23/21 8/6/6
f 2/24/13 18/21/22 14/25/22
f 10/10/23 16/23/24 17/20/25
f 24/26/26 29/27/27 30/28/27
f 14/25/22 24/26/28 20/29/29
f 17/20/25 22/30/30 23/31/31
f 13/19/10 21/32/32 15/9/10
f 18/21/20 23/31/33 24/26/26
f 15/9/34 22/30/35 16/23/21
f 28/33/36 27/34/36 26/35/36
f 21/32/37 28/36/38 22/30/35
f 20/37/17 25/38/39 19/18/17
f 20/29/29 30/28/40 26/39/40
f 23/31/31 28/36/41 29/27/41
f 19/18/42 27/40/43 21/32/32
f 32/41/44 33/42/45 31/43/45
f 33/42/46 36/44/47 35/45/46
f 35/45/48 38/46/49 37/47/48
f 37/47/50 40/48/51 39/49/50
f 34/50/47 45/51/52 36/44/47
f 40/48/53 41/52/54 39/49/54
f 42/53/55 31/54/56 41/52/56
f 41/55/57 35/56/57 39/57/57
f 43/58/58 50/59/59 49/60/59
f 42/53/53 47/61/60 48/62/60
f 34/50/44 44/63/61 43/58/58
f 36/44/49 46/64/62 38/46/49
f 32/65/55 48/62/63 44/66/64
f 38/46/51 47/61/65 40/48/51
f 54/67/66 59/68/67 60/69/67
f 44/66/64 54/67/68 50/70/68
f 46/64/69 53/71/70 47/61/65
f 43/58/52 51/72/71 45/51/52
f 48/62/60 53/71/72 54/67/66
f 45/51/73 52/73/74 46/64/62
f 59/74/75 58/75/75 57/76/75
f 51/72/76 58/77/77 52/73/74
f 49/60/59 56/78/78 55/79/78
f 50/70/68 60/69/79 56/80/79
f 52/73/80 59/68/81 53/71/70
f 49/60/82 57/81/83 51/72/71
f 62/82/84 63/83/85 61/84/85
f 64/85/86 65/86/87 63/83/87
f 65/86/88 68/87/89 67/88/88
f 67/88/90 70/89/91 69/90/90
f 66/91/86 73/92/92 75/93/93
f 69/90/94 72/94/95 71/95/94
f 72/94/96 61/96/97 71/95/97
f 67/97/98 69/98/98 71/99/98
f 73/92/99 80/100/100 79/101/100
f 70/89/95 78/102/101 72/94/95
f 64/85/84 74/103/102 73/92/99
f 66/91/89 76/104/103 68/87/89
f 62/105/104 78/102/105 74/106/106
f 68/87/107 77/107/108 70/89/91
f 83/108/109 90/109/110 84/110/111
f 74/106/106 84/110/112 80/111/113
f 76/104/114 83/108/115 77/107/108
f 75/93/93 79/101/116 81/112/117
f 77/107/101 84/110/111 78/102/101
f 75/93/118 82/113/119 76/104/103
f 87/114/120 90/115/120 88/116/120
f 81/112/121 88/117/122 82/113/119
f 79/101/100 86/118/123 85/119/123
f 80/111/113 90/109/124 86/120/124
f 82/113/125 89/121/126 83/108/115
f 81/112/117 85/119/127 87/122/127
f 91/123/128 94/124/129 93/125/128
f 93/125/130 96/126/131 95/127/130
f 95/127/132 98/128/133 97/129/132
f 98/128/134 99/130/135 97/129/135
f 94/124/136 105/131/137 96/126/131
f 100/132/138 101/133/139 99/130/139
f 102/134/140 91/135/141 101/133/141
f 97/136/142 99/137/142 101/138/142
f 104/139/143 109/140/144 103/141/145
f 102/134/146 107/142/147 108/143/147
f 92/144/129 103/141/145 94/124/129
f 96/126/133 106/145/148 98/128/133
f 92/146/140 108/143/149 104/147/150
f 100/132/151 106/145/152 107/142/153
f 114/148/154 119/149/155 120/150/155
f 104/147/150 114/148/156 110/151/157
f 107/142/153 112/152/158 113/153/159
f 103/141/137 111/154/160 105/131/137
f 108/143/147 113/153/161 114/148/154
f 105/131/162 112/152/163 106/145/148
f 118/155/164 117/156/164 116/157/164
f 111/154/165 118/158/166 112/152/163
f 110/159/144 115/160/167 109/140/144
f 110/151/157 120/150/168 116/161/168
f 113/153/159 118/158/169 119/149/169
f 109/140/170 117/162/171 111/154/160
f 121/163/172 124/164/173 123/165/172
f 123/165/174 126/166/175 125/167/174
f 125/167/176 128/168/177 127/169/176
f 128/168/178 129/170/179 127/169/179
f 124/164/180 135/171/181 126/166/175
f 130/172/182 131/173/183 129/170/183
f 132/174/184 121/175/185 131/173/185
f 127/176/186 129/177/186 121/178/186
f 134/179/187 139/180/188 133/181/189
f 132/174/190 137/182/191 138/183/191
f 122/184/173 133/181/189 124/164/173
f 126/166/177 136/185/192 128/168/177
f 122/186/184 138/183/193 134/187/194
f 130/172/195 136/185/196 137/182/197
f 144/188/198 149/189/199 150/190/199
f 134/187/194 144/188/200 140/191/201
f 137/182/197 142/192/202 143/193/203
f 133/181/181 141/194/204 135/171/181
f 138/183/191 143/193/205 144/188/198
f 135/171/192 142/192/206 136/185/192
f 149/195/207 148/196/207 146/197/207
f 141/194/208 148/198/209 142/192/206
f 140/199/188 145/200/210 139/180/188
f 140/191/201 150/190/211 146/201/211
f 143/193/203 148/198/212 149/189/212
f 139/180/213 147/202/214 141/194/204
f 1/1/1 2/22/2 4/2/2
f 3/3/3 4/2/9 6/4/4
f 5/5/5 6/4/6 8/6/6
f 8/6/7 10/10/23 9/8/8
f 4/2/9 13/19/10 15/9/10
f 10/10/11 12/12/19 11/11/12
f 12/12/13 2/24/13 1/13/14
f 11/16/15 1/203/15 3/14/15
f 3/14/15 5/204/15 7/15/15
f 7/15/15 9/205/15 11/16/15
f 14/17/16 20/37/17 19/18/17
f 12/12/19 10/10/11 17/20/20
f 2/22/2 14/17/16 13/19/18
f 6/4/6 15/9/34 16/23/21
f 2/24/13 12/12/13 18/21/22
f 10/10/23 8/6/7 16/23/24
f 24/26/26 23/31/33 29/27/27
f 14/25/22 18/21/22 24/26/28
f 17/20/25 16/23/24 22/30/30
f 13/19/10 19/18/42 21/32/32
f 18/21/20 17/20/20 23/31/33
f 15/9/34 21/32/37 22/30/35
f 27/34/36 25/206/215 26/35/36
f 26/35/36 30/207/36 29/208/36
f 29/208/36 28/33/36 26/35/36
f 21/32/37 27/40/38 28/36/38
f 20/37/17 26/209/39 25/38/39
f 20/29/29 24/26/28 30/28/40
f 23/31/31 22/30/30 28/36/41
f 19/18/42 25/38/43 27/40/43
f 32/41/44 34/50/44 33/42/45
f 33/42/46 34/50/47 36/44/47
f 35/45/48 36/44/49 38/46/49
f 37/47/50 38/46/51 40/48/51
f 34/50/47 43/58/52 45/51/52
f 40/48/53 42/53/53 41/52/54
f 42/53/55 32/65/55 31/54/56
f 41/55/57 31/210/57 33/211/57
f 33/211/57 35/56/57 41/55/57
f 35/56/57 37/212/57 39/57/57
f 43/58/58 44/63/61 50/59/59
f 42/53/53 40/48/53 47/61/60
f 34/50/44 32/41/44 44/63/61
f 36/44/49 45/51/73 46/64/62
f 32/65/55 42/53/55 48/62/63
f 38/46/51 46/64/69 47/61/65
f 54/67/66 53/71/72 59/68/67
f 44/66/64 48/62/63 54/67/68
f 46/64/69 52/73/80 53/71/70
f 43/58/52 49/60/82 51/72/71
f 48/62/60 47/61/60 53/71/72
f 45/51/73 51/72/76 52/73/74
f 57/76/75 55/213/75 60/214/75
f 55/213/75 56/215/216 60/214/75
f 60/214/75 59/74/75 57/76/75
f 51/72/76 57/81/77 58/77/77
f 49/60/59 50/59/59 56/78/78
f 50/70/68 54/67/68 60/69/79
f 52/73/80 58/77/81 59/68/81
f 49/60/82 55/79/83 57/81/83
f 62/82/84 64/85/84 63/83/85
f 64/85/86 66/91/86 65/86/87
f 65/86/88 66/91/89 68/87/89
f 67/88/90 68/87/107 70/89/91
f 66/91/86 64/85/86 73/92/92
f 69/90/94 70/89/95 72/94/95
f 72/94/96 62/105/104 61/96/97
f 71/99/98 61/216/98 65/217/98
f 61/216/98 63/218/98 65/217/98
f 65/217/98 67/97/98 71/99/98
f 73/92/99 74/103/102 80/100/100
f 70/89/95 77/107/101 78/102/101
f 64/85/84 62/82/84 74/103/102
f 66/91/89 75/93/118 76/104/103
f 62/105/104 72/94/96 78/102/105
f 68/87/107 76/104/114 77/107/108
f 83/108/109 89/121/110 90/109/110
f 74/106/106 78/102/105 84/110/112
f 76/104/114 82/113/125 83/108/115
f 75/93/93 73/92/92 79/101/116
f 77/107/101 83/108/109 84/110/111
f 75/93/118 81/112/121 82/113/119
f 87/114/120 85/219/120 86/220/120
f 86/220/120 90/115/120 87/114/120
f 90/115/120 89/221/120 88/116/120
f 81/112/121 87/122/122 88/117/122
f 79/101/100 80/100/100 86/118/123
f 80/111/113 84/110/112 90/109/124
f 82/113/125 88/117/126 89/121/126
f 81/112/117 79/101/116 85/119/127
f 91/123/128 92/144/129 94/124/129
f 93/125/130 94/124/136 96/126/131
f 95/127/132 96/126/133 98/128/133
f 98/128/134 100/132/151 99/130/135
f 94/124/136 103/141/137 105/131/137
f 100/132/138 102/134/146 101/133/139
f 102/134/140 92/146/140 91/135/141
f 101/138/142 91/222/142 97/136/142
f 91/222/142 93/223/142 95/224/142
f 97/136/142 91/222/142 95/224/142
f 104/139/143 110/159/144 109/140/144
f 102/134/146 100/132/138 107/142/147
f 92/144/129 104/139/143 103/141/145
f 96/126/133 105/131/162 106/145/148
f 92/146/140 102/134/140 108/143/149
f 100/132/151 98/128/134 106/145/152
f 114/148/154 113/153/161 119/149/155
f 104/147/150 108/143/149 114/148/156
f 107/142/153 106/145/152 112/152/158
f 103/141/137 109/140/170 111/154/160
f 108/143/147 107/142/147 113/153/161
f 105/131/162 111/154/165 112/152/163
f 117/156/164 115/225/164 116/157/164
f 116/157/164 120/226/164 118/155/164
f 120/226/164 119/227/164 118/155/164
f 111/154/165 117/162/166 118/158/166
f 110/159/144 116/228/167 115/160/167
f 110/151/157 114/148/156 120/150/168
f 113/153/159 112/152/158 118/158/169
f 109/140/170 115/160/171 117/162/171
f 121/163/172 122/184/173 124/164/173
f 123/165/174 124/164/180 126/166/175
f 125/167/176 126/166/177 128/168/177
f 128/168/178 130/172/195 129/170/179
f 124/164/180 133/181/181 135/171/181
f 130/172/182 132/174/190 131/173/183
f 132/174/184 122/186/184 121/175/185
f 131/229/186 121/178/186 129/177/186
f 121/178/186 123/230/186 127/176/186
f 123/230/186 125/231/186 127/176/186
f 134/179/187 140/199/188 139/180/188
f 132/174/190 130/172/182 137/182/191
f 122/184/173 134/179/187 133/181/189
f 126/166/177 135/171/192 136/185/192
f 122/186/184 132/174/184 138/183/193
f 130/172/195 128/168/178 136/185/196
f 144/188/198 143/193/205 149/189/199
f 134/187/194 138/183/193 144/188/200
f 137/182/197 136/185/196 142/192/202
f 133/181/181 139/180/213 141/194/204
f 138/183/191 137/182/191 143/193/205
f 135/171/192 141/194/208 142/192/206
f 147/232/207 145/233/207 148/196/207
f 145/233/207 146/197/207 148/196/207
f 146/197/207 150/234/207 149/195/207
f 141/194/208 147/202/209 148/198/209
f 140/199/188 146/235/210 145/200/210
f 140/191/201 144/188/200 150/190/211
f 143/193/203 142/192/202 148/198/212
f 139/180/213 145/200/214 147/202/214
