# Blender v3.4.1 OBJ File: 'astro_player.blend'
# www.blender.org
o Shirt_Plane.010
v -0.068003 0.323645 0.249737
v 0.068003 0.323645 0.249737
v -0.068003 0.675761 0.283111
v 0.068003 0.675761 0.283111
v -0.000000 0.323308 0.255216
v 0.000000 0.675424 0.288590
v -0.128050 0.324648 0.233428
v -0.128050 0.676764 0.266802
v 0.129808 0.324451 0.236643
v 0.129808 0.676566 0.270017
v -0.170969 0.325966 0.212008
v -0.170969 0.678082 0.245381
v -0.208144 0.327141 0.192913
v -0.208144 0.679256 0.226287
v 0.171761 0.326014 0.211227
v 0.171761 0.678130 0.244601
v 0.205958 0.327687 0.184037
v 0.205958 0.679802 0.217411
v -0.072764 0.142085 0.240306
v 0.072758 0.142085 0.240306
v -0.000003 0.141724 0.246168
v -0.137014 0.143158 0.222855
v 0.138889 0.142947 0.226295
v -0.182936 0.144568 0.199936
v -0.222712 0.145825 0.179505
v 0.183777 0.144620 0.199101
v 0.220368 0.146409 0.170008
v -0.081271 -0.033333 0.232619
v 0.081256 -0.033333 0.232619
v -0.000008 -0.033735 0.239166
v -0.153029 -0.032134 0.213129
v 0.155114 -0.032370 0.216971
v -0.204317 -0.030559 0.187532
v -0.248741 0.067432 0.170656
v 0.205247 -0.031148 0.197105
v 0.246114 0.067438 0.170554
v -0.057913 -0.093754 0.229580
v 0.057863 -0.093754 0.229580
v -0.000025 -0.052254 0.238965
v -0.159094 -0.088423 0.209572
v 0.161227 -0.088668 0.213565
v -0.212409 -0.101456 0.182060
v 0.213343 -0.101396 0.181090
v -0.074182 0.770327 0.273862
v 0.074175 0.770327 0.273862
v -0.000004 0.769959 0.279838
v -0.139683 0.771421 0.256072
v 0.141593 0.771206 0.259578
v -0.186500 0.772859 0.232706
v -0.227051 0.774140 0.211877
v 0.187356 0.772911 0.231854
v 0.224659 0.774736 0.202195
v -0.039017 0.799999 0.255061
v 0.039010 0.799999 0.255061
v -0.000004 0.790554 0.266736
v -0.139683 0.801093 0.237270
v 0.141593 0.800877 0.240777
v -0.186500 0.802531 0.213904
v -0.227051 0.803812 0.193076
v 0.187356 0.802583 0.213053
v 0.224659 0.804408 0.183394
v -0.099954 -0.259262 0.204638
v 0.099777 -0.259262 0.204638
v -0.167744 -0.241932 0.204013
v 0.170159 -0.242191 0.208226
v -0.219806 -0.162937 0.181832
v 0.220585 -0.162876 0.180830
v -0.239849 -0.107709 0.173394
v -0.280391 -0.043882 0.156419
v -0.275021 -0.162913 0.146718
v -0.296607 -0.121702 0.111920
v 0.231268 -0.100127 0.178505
v 0.268562 -0.031564 0.163173
v 0.262063 -0.172346 0.132903
v 0.277256 -0.119524 0.097153
v -0.056359 0.831155 0.228981
v 0.056351 0.831155 0.228981
v -0.139683 0.832250 0.211190
v 0.141593 0.832034 0.214697
v -0.186500 0.833687 0.187824
v -0.227051 0.834969 0.166996
v 0.187356 0.833740 0.186973
v 0.224659 0.835564 0.157314
v -0.074182 0.873701 0.172272
v 0.074175 0.873701 0.172272
v -0.139683 0.895593 0.142898
v 0.141593 0.895377 0.146405
v -0.186500 0.910498 0.102441
v -0.211786 0.928989 0.082343
v 0.187356 0.910551 0.101590
v 0.209394 0.929544 0.073315
vt 0.500000 0.000000
vt 1.000000 1.000000
vt 0.500000 1.000000
vt 0.000000 1.000000
vt 0.000000 0.000000
vt 0.000000 1.000000
vt 0.000000 0.000000
vt 1.000000 0.000000
vt 1.000000 1.000000
vt 0.000000 1.000000
vt 0.000000 0.000000
vt 0.000000 1.000000
vt 0.000000 0.000000
vt 1.000000 0.000000
vt 1.000000 1.000000
vt 1.000000 0.000000
vt 1.000000 1.000000
vt 0.500000 0.000000
vt 1.000000 0.000000
vt 1.000000 0.000000
vt 1.000000 0.000000
vt 0.000000 0.000000
vt 0.000000 0.000000
vt 1.000000 0.000000
vt 1.000000 0.000000
vt 0.000000 0.000000
vt 1.000000 0.000000
vt 1.000000 0.000000
vt 0.000000 0.000000
vt 0.000000 0.000000
vt 1.000000 0.000000
vt 1.000000 0.000000
vt 0.500000 0.000000
vt 0.000000 0.000000
vt 0.000000 0.000000
vt 1.000000 0.000000
vt 0.000000 0.000000
vt 0.500000 0.000000
vt 1.000000 0.000000
vt 0.000000 0.000000
vt 1.000000 0.000000
vt 1.000000 1.000000
vt 0.000000 1.000000
vt 0.000000 1.000000
vt 1.000000 1.000000
vt 1.000000 1.000000
vt 0.000000 1.000000
vt 0.000000 1.000000
vt 0.500000 1.000000
vt 1.000000 1.000000
vt 0.000000 1.000000
vt 0.000000 1.000000
vt 0.000000 1.000000
vt 1.000000 1.000000
vt 1.000000 1.000000
vt 0.000000 1.000000
vt 1.000000 1.000000
vt 0.500000 1.000000
vt 0.000000 0.000000
vt 0.000000 0.000000
vt 0.000000 0.000000
vt 1.000000 0.000000
vt 1.000000 0.000000
vt 1.000000 0.000000
vt 0.000000 0.000000
vt 0.000000 0.000000
vt 0.000000 0.000000
vt 0.000000 0.000000
vt 1.000000 0.000000
vt 1.000000 0.000000
vt 1.000000 0.000000
vt 1.000000 1.000000
vt 0.000000 1.000000
vt 0.000000 1.000000
vt 0.000000 1.000000
vt 1.000000 1.000000
vt 1.000000 1.000000
vt 0.000000 1.000000
vt 1.000000 1.000000
vt 1.000000 1.000000
vt 0.000000 1.000000
vt 0.000000 1.000000
vt 0.000000 1.000000
vt 1.000000 1.000000
vt 1.000000 1.000000
vt 0.000000 1.000000
vt 1.000000 1.000000
vt 0.000000 0.000000
vt 0.000000 0.000000
vt 1.000000 0.000000
vt 1.000000 1.000000
vn 0.0000 -0.0721 0.9974
vn 0.1423 -0.0032 0.9898
vn 0.0000 -0.0014 1.0000
vn -0.1692 -0.0041 0.9856
vn -0.1717 -0.0698 0.9827
vn -0.3509 -0.0124 0.9363
vn -0.3557 -0.0626 0.9325
vn 0.1439 -0.0705 0.9871
vn 0.3589 -0.0144 0.9333
vn -0.4517 -0.0193 0.8919
vn -0.4523 -0.0569 0.8900
vn -0.4572 -0.0151 0.8892
vn -0.4576 -0.0557 0.8874
vn 0.3668 -0.0613 0.9283
vn 0.5677 -0.0295 0.8227
vn 0.5715 -0.0473 0.8193
vn 0.6230 -0.0325 0.7816
vn 0.0000 -0.0448 0.9990
vn 0.1439 -0.0420 0.9887
vn 0.3663 -0.0252 0.9301
vn 0.5642 0.0099 0.8256
vn -0.1716 -0.0407 0.9843
vn -0.4520 -0.0188 0.8918
vn 0.6231 -0.0416 0.7811
vn 0.5879 0.0378 0.8081
vn -0.3554 -0.0282 0.9343
vn 0.4371 -0.0087 0.8993
vn 0.3639 0.0986 0.9262
vn -0.4422 -0.0149 0.8968
vn -0.4114 -0.0071 0.9114
vn 0.1420 -0.0607 0.9880
vn 0.2960 -0.0138 0.9551
vn 0.0000 -0.0434 0.9991
vn -0.3558 -0.0201 0.9343
vn -0.1707 -0.0627 0.9833
vn 0.3213 -0.0662 0.9447
vn -0.1616 -0.0970 0.9821
vn -0.0002 -0.0109 0.9999
vn 0.5034 -0.0451 0.8629
vn -0.3296 -0.0439 0.9431
vn 0.1345 -0.0963 0.9862
vn 0.5461 0.2461 0.8008
vn -0.3353 0.2903 0.8963
vn -0.4271 0.2777 0.8605
vn 0.1293 0.3507 0.9275
vn 0.3481 0.2836 0.8935
vn -0.1561 0.3535 0.9223
vn -0.4255 0.3164 0.8479
vn -0.0000 0.3325 0.9431
vn 0.2811 0.5666 0.7745
vn -0.2645 0.5713 0.7769
vn -0.3636 0.5497 0.7520
vn -0.1028 0.5932 0.7985
vn 0.5892 0.2792 0.7582
vn 0.4734 0.5194 0.7114
vn -0.3649 0.5587 0.7448
vn 0.0894 0.5921 0.8009
vn -0.0000 0.5368 0.8437
vn -0.4404 -0.0041 0.8978
vn -0.1306 -0.0224 0.9912
vn -0.0859 -0.0585 0.9946
vn 0.1114 -0.0218 0.9935
vn 0.4205 0.0457 0.9062
vn 0.0336 -0.0643 0.9974
vn -0.3500 0.0043 0.9367
vn -0.4610 -0.0611 0.8853
vn -0.5007 -0.0328 0.8650
vn -0.7449 -0.0875 0.6614
vn 0.5880 -0.0989 0.8028
vn 0.7424 -0.1486 0.6533
vn 0.8583 -0.0865 0.5058
vn 0.2396 0.6735 0.6993
vn -0.2236 0.6767 0.7015
vn -0.3275 0.6541 0.6818
vn -0.1336 0.6668 0.7332
vn 0.5171 0.5171 0.6821
vn 0.4308 0.6240 0.6519
vn -0.3058 0.6644 0.6820
vn 0.1044 0.6774 0.7282
vn 0.2633 0.7121 0.6508
vn -0.2365 0.7173 0.6554
vn -0.1804 0.6916 0.6993
vn -0.0897 0.7534 0.6515
vn 0.4542 0.6271 0.6329
vn 0.3429 0.6699 0.6585
vn -0.0894 0.6744 0.7329
vn 0.0590 0.7575 0.6502
vn -0.3426 0.0378 0.9387
vn -0.8856 -0.0773 0.4579
vn 0.8755 0.0716 0.4779
vn 0.3076 0.6614 0.6841
s 1
f 5/1/1 4/2/2 6/3/3
f 5/1/1 3/4/4 1/5/5
f 1/5/5 8/6/6 7/7/7
f 2/8/8 10/9/9 4/2/2
f 7/7/7 12/10/10 11/11/11
f 11/11/11 14/12/12 13/13/13
f 9/14/14 16/15/15 10/9/9
f 15/16/16 18/17/17 16/15/15
f 2/8/8 21/18/18 20/19/19
f 9/14/14 20/19/19 23/20/20
f 15/16/16 23/20/20 26/21/21
f 7/7/7 19/22/22 1/5/5
f 13/13/13 24/23/23 11/11/11
f 1/5/5 21/18/18 5/1/1
f 17/24/24 26/21/21 27/25/25
f 11/11/11 22/26/26 7/7/7
f 27/25/25 35/27/27 36/28/28
f 25/29/29 33/30/30 24/23/23
f 23/20/20 29/31/31 32/32/32
f 19/22/22 30/33/33 21/18/18
f 26/21/21 32/32/32 35/27/27
f 24/23/23 31/34/34 22/26/26
f 22/26/26 28/35/35 19/22/22
f 20/19/19 30/33/33 29/31/31
f 29/31/31 41/36/36 32/32/32
f 30/33/33 37/37/37 39/38/38
f 35/27/27 41/36/36 43/39/39
f 33/30/30 40/40/40 31/34/34
f 28/35/35 40/40/40 37/37/37
f 30/33/33 38/41/41 29/31/31
f 18/17/17 51/42/42 16/15/15
f 12/10/10 47/43/43 49/44/44
f 10/9/9 45/45/45 4/2/2
f 16/15/15 48/46/46 10/9/9
f 8/6/6 44/47/47 47/43/43
f 14/12/12 49/44/44 50/48/48
f 4/2/2 46/49/49 6/3/3
f 3/4/4 46/49/49 44/47/47
f 51/42/42 57/50/50 48/46/46
f 49/44/44 56/51/51 58/52/52
f 44/47/47 56/51/51 47/43/43
f 46/49/49 53/53/53 44/47/47
f 52/54/54 60/55/55 51/42/42
f 50/48/48 58/52/52 59/56/56
f 45/45/45 57/50/50 54/57/57
f 46/49/49 54/57/57 55/58/58
f 42/59/59 64/60/60 40/40/40
f 40/40/40 62/61/61 37/37/37
f 43/39/39 65/62/62 67/63/63
f 41/36/36 63/64/64 65/62/62
f 34/65/65 68/66/66 33/30/30
f 69/67/67 70/68/68 68/66/66
f 35/27/27 73/69/69 36/28/28
f 72/70/70 75/71/71 73/69/69
f 60/55/55 79/72/72 57/50/50
f 58/52/52 78/73/73 80/74/74
f 56/51/51 76/75/75 78/73/73
f 61/76/76 82/77/77 60/55/55
f 59/56/56 80/74/74 81/78/78
f 57/50/50 77/79/79 54/57/57
f 82/77/77 87/80/80 79/72/72
f 80/74/74 86/81/81 88/82/82
f 78/73/73 84/83/83 86/81/81
f 83/84/84 90/85/85 82/77/77
f 81/78/78 88/82/82 89/86/86
f 79/72/72 85/87/87 77/79/79
f 5/1/1 2/8/8 4/2/2
f 5/1/1 6/3/3 3/4/4
f 1/5/5 3/4/4 8/6/6
f 2/8/8 9/14/14 10/9/9
f 7/7/7 8/6/6 12/10/10
f 11/11/11 12/10/10 14/12/12
f 9/14/14 15/16/16 16/15/15
f 15/16/16 17/24/24 18/17/17
f 2/8/8 5/1/1 21/18/18
f 9/14/14 2/8/8 20/19/19
f 15/16/16 9/14/14 23/20/20
f 7/7/7 22/26/26 19/22/22
f 13/13/13 25/29/29 24/23/23
f 1/5/5 19/22/22 21/18/18
f 17/24/24 15/16/16 26/21/21
f 11/11/11 24/23/23 22/26/26
f 27/25/25 26/21/21 35/27/27
f 25/29/29 34/65/65 33/30/30
f 23/20/20 20/19/19 29/31/31
f 19/22/22 28/35/35 30/33/33
f 26/21/21 23/20/20 32/32/32
f 24/23/23 33/30/30 31/34/34
f 22/26/26 31/34/34 28/35/35
f 20/19/19 21/18/18 30/33/33
f 29/31/31 38/41/41 41/36/36
f 30/33/33 28/35/35 37/37/37
f 35/27/27 32/32/32 41/36/36
f 33/30/30 42/59/59 40/40/40
f 28/35/35 31/34/34 40/40/40
f 30/33/33 39/38/38 38/41/41
f 18/17/17 52/54/54 51/42/42
f 12/10/10 8/6/6 47/43/43
f 10/9/9 48/46/46 45/45/45
f 16/15/15 51/42/42 48/46/46
f 8/6/6 3/4/4 44/47/47
f 14/12/12 12/10/10 49/44/44
f 4/2/2 45/45/45 46/49/49
f 3/4/4 6/3/3 46/49/49
f 51/42/42 60/55/55 57/50/50
f 49/44/44 47/43/43 56/51/51
f 44/47/47 53/53/53 56/51/51
f 46/49/49 55/58/58 53/53/53
f 52/54/54 61/76/76 60/55/55
f 50/48/48 49/44/44 58/52/52
f 45/45/45 48/46/46 57/50/50
f 46/49/49 45/45/45 54/57/57
f 42/59/59 66/88/88 64/60/60
f 40/40/40 64/60/60 62/61/61
f 43/39/39 41/36/36 65/62/62
f 41/36/36 38/41/41 63/64/64
f 34/65/65 69/67/67 68/66/66
f 69/67/67 71/89/89 70/68/68
f 35/27/27 72/70/70 73/69/69
f 72/70/70 74/90/90 75/71/71
f 60/55/55 82/77/77 79/72/72
f 58/52/52 56/51/51 78/73/73
f 56/51/51 53/53/53 76/75/75
f 61/76/76 83/84/84 82/77/77
f 59/56/56 58/52/52 80/74/74
f 57/50/50 79/72/72 77/79/79
f 82/77/77 90/85/85 87/80/80
f 80/74/74 78/73/73 86/81/81
f 78/73/73 76/75/75 84/83/83
f 83/84/84 91/91/91 90/85/85
f 81/78/78 80/74/74 88/82/82
f 79/72/72 87/80/80 85/87/87
