# Blender v3.4.1 OBJ File: 'astro_player.blend'
# www.blender.org
o Player_Head_Cylinder.002
v 0.189014 0.181292 0.150295
v -0.072195 0.181292 0.243184
v -0.233633 0.181293 -0.000000
v -0.072195 0.181292 -0.243184
v 0.189014 0.181292 -0.150295
v 0.091927 0.540637 0.309648
v -0.240672 0.540637 0.191371
v -0.240672 0.540637 -0.191371
v 0.091927 0.540637 -0.309648
v 0.297487 0.540636 -0.000000
v 0.000000 0.765858 -0.000000
v -0.042435 0.052201 0.142939
v 0.111099 0.052201 0.088340
v 0.068664 0.156168 0.231281
v 0.222198 0.156169 -0.000000
v 0.111099 0.052201 -0.088340
v -0.137326 0.052202 -0.000000
v -0.179762 0.156169 0.142939
v -0.042435 0.052201 -0.142939
v -0.179762 0.156169 -0.142939
v 0.068664 0.156168 -0.231281
v 0.248426 0.324393 0.088341
v 0.248426 0.324393 -0.088341
v 0.000000 0.324393 0.285880
v 0.153536 0.324393 0.231282
v -0.248426 0.324393 0.088341
v -0.153535 0.324393 0.231282
v -0.153535 0.324393 -0.231282
v -0.248426 0.324393 -0.088341
v 0.153536 0.324393 -0.231282
v 0.000000 0.324393 -0.285880
v 0.228892 0.572627 0.182006
v -0.087430 0.572628 0.294491
v -0.282926 0.572627 -0.000000
v -0.087430 0.572628 -0.294491
v 0.228892 0.572627 -0.182006
v 0.054033 0.705010 0.182005
v 0.174858 0.705009 -0.000000
v -0.141463 0.705009 0.112484
v -0.141463 0.705009 -0.112484
v 0.054033 0.705010 -0.182005
vt 0.272728 0.157461
vt 0.318182 0.078731
vt 0.363637 0.157461
vt 0.954545 0.078731
vt 0.590909 0.078731
vt 0.409092 0.078731
vt 0.318182 0.236191
vt 0.090910 0.157461
vt 0.181819 0.157461
vt 0.136365 0.236191
vt 0.818182 0.157461
vt 0.909091 0.157461
vt 0.863636 0.236191
vt 0.636364 0.157461
vt 0.727273 0.157461
vt 0.681818 0.236191
vt 0.454546 0.157461
vt 0.545455 0.157461
vt 0.500000 0.236191
vt 0.227273 0.236191
vt 0.045455 0.236191
vt 0.772727 0.236191
vt 0.590909 0.236191
vt 0.409092 0.236191
vt 0.181819 0.314921
vt 0.272728 0.314921
vt 0.227273 0.393651
vt 0.000000 0.314921
vt 0.090910 0.314921
vt 0.045455 0.393651
vt 0.727273 0.314921
vt 0.818182 0.314921
vt 0.772727 0.393651
vt 0.545455 0.314921
vt 0.636364 0.314921
vt 0.590909 0.393651
vt 0.363637 0.314921
vt 0.454546 0.314921
vt 0.409092 0.393651
vt 0.500000 0.393651
vt 0.454546 0.472382
vt 0.681818 0.393651
vt 0.636364 0.472382
vt 0.863636 0.393651
vt 0.818182 0.472382
vt 0.909091 0.314921
vt 0.136365 0.393651
vt 0.090910 0.472382
vt 0.318182 0.393651
vt 0.272728 0.472382
vt 0.954545 0.236191
vt 1.000000 0.157461
vt 0.500000 0.078731
vt 0.681818 0.078731
vt 0.772727 0.078731
vt 0.863636 0.078731
vt 0.136365 0.078731
vt 0.227273 0.078731
vn 0.7602 -0.3978 0.5137
vn 0.5773 -0.7189 0.3872
vn 0.8845 -0.4665 0.0000
vn -0.0000 -1.0000 0.0000
vn 0.9418 -0.1678 0.2911
vn -0.3002 -0.4120 0.8603
vn 0.2872 -0.4903 0.8229
vn -0.0080 -0.1819 0.9833
vn -0.9211 -0.3894 0.0000
vn -0.7290 -0.4753 0.4926
vn -0.9458 -0.1685 0.2774
vn -0.3002 -0.4120 -0.8603
vn -0.7290 -0.4753 -0.4926
vn -0.6007 -0.1757 -0.7799
vn 0.7602 -0.3978 -0.5137
vn 0.2872 -0.4903 -0.8229
vn 0.6126 -0.1770 -0.7703
vn 0.6126 -0.1770 0.7703
vn -0.6007 -0.1757 0.7799
vn -0.9458 -0.1685 -0.2774
vn -0.0080 -0.1819 -0.9833
vn 0.9418 -0.1678 -0.2911
vn 0.2541 0.6291 0.7346
vn 0.6160 0.6643 0.4234
vn 0.1843 0.8263 0.5322
vn -0.6550 0.6096 0.4465
vn -0.2373 0.6808 0.6929
vn -0.4784 0.8155 0.3258
vn -0.6550 0.6096 -0.4465
vn -0.7562 0.6543 0.0000
vn -0.4784 0.8155 -0.3258
vn 0.2541 0.6291 -0.7346
vn -0.2373 0.6808 -0.6929
vn 0.1843 0.8263 -0.5322
vn 0.8015 0.5980 0.0000
vn 0.6160 0.6643 -0.4234
vn 0.5881 0.8088 0.0000
vn -0.0001 1.0000 0.0000
vn 0.8278 -0.0845 -0.5546
vn 0.9945 -0.1046 0.0000
vn 0.3231 -0.1111 -0.9398
vn -0.3308 -0.0882 -0.9396
vn -0.8204 -0.1070 -0.5617
vn -0.9966 -0.0824 0.0000
vn -0.8204 -0.1070 0.5617
vn -0.3308 -0.0882 0.9396
vn 0.3231 -0.1111 0.9398
vn 0.8278 -0.0845 0.5546
vn 0.5773 -0.7189 -0.3872
vn -0.2230 -0.7397 -0.6349
vn -0.7079 -0.7063 0.0000
vn -0.2230 -0.7397 0.6349
s 1
f 1/1/1 13/2/2 15/3/3
f 12/4/4 19/5/4 16/6/4
f 1/1/1 15/3/3 22/7/5
f 2/8/6 14/9/7 24/10/8
f 3/11/9 18/12/10 26/13/11
f 4/14/12 20/15/13 28/16/14
f 5/17/15 21/18/16 30/19/17
f 1/1/1 22/7/5 25/20/18
f 2/8/6 24/10/8 27/21/19
f 3/11/9 26/13/11 29/22/20
f 4/14/12 28/16/14 31/23/21
f 5/17/15 30/19/17 23/24/22
f 6/25/23 32/26/24 37/27/25
f 7/28/26 33/29/27 39/30/28
f 8/31/29 34/32/30 40/33/31
f 9/34/32 35/35/33 41/36/34
f 10/37/35 36/38/36 38/39/37
f 38/39/37 41/40/34 11/41/38
f 38/39/37 36/38/36 41/40/34
f 36/38/36 9/34/32 41/40/34
f 41/36/34 40/42/31 11/43/38
f 41/36/34 35/35/33 40/42/31
f 35/35/33 8/31/29 40/42/31
f 40/33/31 39/44/28 11/45/38
f 40/33/31 34/32/30 39/44/28
f 34/32/30 7/46/26 39/44/28
f 39/30/28 37/47/25 11/48/38
f 39/30/28 33/29/27 37/47/25
f 33/29/27 6/25/23 37/47/25
f 37/27/25 38/49/37 11/50/38
f 37/27/25 32/26/24 38/49/37
f 32/26/24 10/37/35 38/49/37
f 23/24/22 36/38/39 10/37/40
f 23/24/22 30/19/17 36/38/39
f 30/19/17 9/34/41 36/38/39
f 31/23/21 35/35/42 9/34/41
f 31/23/21 28/16/14 35/35/42
f 28/16/14 8/31/43 35/35/42
f 29/22/20 34/32/44 8/31/43
f 29/22/20 26/13/11 34/32/44
f 26/13/11 7/46/45 34/32/44
f 27/21/19 33/29/46 7/28/45
f 27/21/19 24/10/8 33/29/46
f 24/10/8 6/25/47 33/29/46
f 25/20/18 32/26/48 6/25/47
f 25/20/18 22/7/5 32/26/48
f 22/7/5 10/37/40 32/26/48
f 30/19/17 31/23/21 9/34/41
f 30/19/17 21/18/16 31/23/21
f 21/18/16 4/14/12 31/23/21
f 28/16/14 29/22/20 8/31/43
f 28/16/14 20/15/13 29/22/20
f 20/15/13 3/11/9 29/22/20
f 26/13/11 27/51/19 7/46/45
f 26/13/11 18/12/10 27/51/19
f 18/12/10 2/52/6 27/51/19
f 24/10/8 25/20/18 6/25/47
f 24/10/8 14/9/7 25/20/18
f 14/9/7 1/1/1 25/20/18
f 22/7/5 23/24/22 10/37/40
f 22/7/5 15/3/3 23/24/22
f 15/3/3 5/17/15 23/24/22
f 16/53/49 21/18/16 5/17/15
f 16/53/49 19/5/50 21/18/16
f 19/5/50 4/14/12 21/18/16
f 19/54/50 20/15/13 4/14/12
f 19/54/50 17/55/51 20/15/13
f 17/55/51 3/11/9 20/15/13
f 17/56/51 18/12/10 3/11/9
f 17/56/51 12/4/52 18/12/10
f 12/4/52 2/52/6 18/12/10
f 15/3/3 16/6/49 5/17/15
f 15/3/3 13/2/2 16/6/49
f 12/57/52 14/9/7 2/8/6
f 12/57/52 13/58/2 14/9/7
f 13/58/2 1/1/1 14/9/7
f 16/6/4 13/58/4 12/4/4
f 12/4/4 17/55/4 19/5/4
