# Blender v3.4.1 OBJ File: 'astro_player.blend'
# www.blender.org
o Flask_Icosphere.001
v 0.000000 -0.148462 -0.000000
v 0.047991 -0.111801 0.034867
v -0.018330 -0.111801 0.056416
v -0.059319 -0.111801 -0.000000
v -0.018330 -0.111801 -0.056416
v 0.047991 -0.111801 -0.034867
v 0.018331 -0.052481 0.056416
v -0.047990 -0.052481 0.034867
v -0.047990 -0.052481 -0.034867
v 0.018331 -0.052481 -0.056416
v 0.059320 -0.052481 -0.000000
v -0.010774 -0.138557 0.033160
v 0.028208 -0.138557 0.020494
v 0.017434 -0.117009 0.053654
v 0.056416 -0.117008 -0.000000
v 0.028208 -0.138557 -0.020494
v -0.034867 -0.138557 -0.000000
v -0.045641 -0.117008 0.033160
v -0.010774 -0.138557 -0.033160
v -0.045641 -0.117008 -0.033160
v 0.017434 -0.117009 -0.053655
v 0.063075 -0.082141 0.020494
v 0.063075 -0.082141 -0.020494
v 0.000000 -0.082141 0.066321
v 0.038983 -0.082141 0.053655
v -0.063075 -0.082141 0.020494
v -0.038982 -0.082141 0.053655
v -0.038982 -0.082141 -0.053655
v -0.063075 -0.082141 -0.020494
v 0.038983 -0.082141 -0.053655
v 0.000000 -0.082141 -0.066321
v 0.045642 -0.047274 0.033160
v -0.017433 -0.047274 0.053654
v -0.056416 -0.047274 -0.000000
v -0.017433 -0.047274 -0.053655
v 0.045642 -0.047274 -0.033160
v 0.000000 0.028528 -0.000000
v 0.018254 -0.025725 0.022865
v -0.001328 -0.025725 0.029228
v 0.002017 -0.032415 0.039523
v 0.013427 -0.035118 0.041325
v 0.021599 -0.032415 0.033160
v 0.027387 -0.025725 -0.010295
v 0.027387 -0.025725 0.010295
v 0.038212 -0.032415 0.010295
v 0.043452 -0.035119 -0.000000
v 0.038212 -0.032415 -0.010295
v -0.016105 -0.025725 0.024426
v -0.028208 -0.025725 0.007768
v -0.036965 -0.032415 0.014131
v -0.035153 -0.035118 0.025540
v -0.024863 -0.032415 0.030789
v -0.028208 -0.025725 -0.007769
v -0.016105 -0.025725 -0.024426
v -0.024863 -0.032415 -0.030789
v -0.035153 -0.035118 -0.025540
v -0.036965 -0.032415 -0.014131
v -0.001328 -0.025725 -0.029228
v 0.018254 -0.025725 -0.022865
v 0.021599 -0.032415 -0.033160
v 0.013427 -0.035118 -0.041325
v 0.002017 -0.032415 -0.039523
v 0.027387 0.027820 0.010295
v 0.027387 0.027820 -0.010295
v 0.022626 0.028465 -0.000000
v -0.001328 0.027820 0.029228
v 0.018254 0.027820 0.022865
v 0.006992 0.028465 0.021518
v -0.028208 0.027820 0.007768
v -0.016105 0.027820 0.024426
v -0.018304 0.028465 0.013299
v -0.016105 0.027820 -0.024426
v -0.028208 0.027820 -0.007769
v -0.018304 0.028465 -0.013299
v 0.018254 0.027820 -0.022865
v -0.001328 0.027820 -0.029228
v 0.006992 0.028465 -0.021518
vt 0.181819 0.000000
vt 0.227273 0.078731
vt 0.136365 0.078731
vt 0.272728 0.157461
vt 0.318182 0.078731
vt 0.363637 0.157461
vt 0.909091 0.000000
vt 0.954545 0.078731
vt 0.863636 0.078731
vt 0.727273 0.000000
vt 0.772727 0.078731
vt 0.681818 0.078731
vt 0.545455 0.000000
vt 0.590909 0.078731
vt 0.500000 0.078731
vt 0.318182 0.236191
vt 0.090910 0.157461
vt 0.181819 0.157461
vt 0.136365 0.236191
vt 0.818182 0.157461
vt 0.909091 0.157461
vt 0.863636 0.236191
vt 0.636364 0.157461
vt 0.727273 0.157461
vt 0.681818 0.236191
vt 0.454546 0.157461
vt 0.545455 0.157461
vt 0.500000 0.236191
vt 0.227273 0.236191
vt 0.045455 0.236191
vt 0.772727 0.236191
vt 0.590909 0.236191
vt 0.409092 0.236191
vt 0.108140 0.393651
vt 0.073679 0.393651
vt 0.073679 0.393652
vt 0.835412 0.393651
vt 0.800952 0.393651
vt 0.800952 0.393651
vt 0.619134 0.393651
vt 0.653594 0.393651
vt 0.619134 0.393651
vt 0.255498 0.393651
vt 0.289958 0.393651
vt 0.302224 0.421292
vt 0.909091 0.314921
vt 0.849524 0.369208
vt 0.818182 0.314921
vt 0.423204 0.369208
vt 0.454546 0.314921
vt 0.485889 0.369209
vt 0.363637 0.314921
vt 0.304070 0.369208
vt 0.272728 0.314921
vt 0.545455 0.314921
vt 0.605021 0.369208
vt 0.574951 0.366011
vt 0.786839 0.369208
vt 0.727273 0.314921
vt 0.756769 0.366011
vt 0.241385 0.369209
vt 0.289958 0.393651
vt 0.667706 0.369208
vt 0.636364 0.314921
vt 0.000000 0.314921
vt 0.059567 0.369208
vt 0.029497 0.366011
vt 0.471776 0.393651
vt 0.437315 0.393651
vt 0.437316 0.393651
vt 0.255498 0.393651
vt 0.122252 0.369208
vt 0.181819 0.314921
vt 0.211315 0.366011
vt 0.393133 0.366011
vt 0.090910 0.314921
vt 0.954545 0.236191
vt 1.000000 0.157461
vt 0.409092 0.078731
vt 0.363637 0.000000
vt 0.108140 0.393651
vt 0.120406 0.421293
vt 0.665860 0.421292
vt 0.835412 0.393651
vt 0.847678 0.421293
vt 0.471776 0.393651
vt 0.484042 0.421293
vt 0.152323 0.366011
vt 0.145387 0.378023
vt 0.334141 0.366011
vt 0.327205 0.378023
vt 0.879595 0.366011
vt 0.872659 0.378023
vt 0.763704 0.378023
vt 0.581887 0.378023
vt 0.309159 0.409280
vt 0.236297 0.409280
vt 0.243232 0.421293
vt 0.854613 0.409280
vt 0.781751 0.409280
vt 0.788686 0.421293
vt 0.490977 0.409280
vt 0.318182 0.393651
vt 0.318182 0.393651
vt 0.500000 0.393651
vt 0.500000 0.393651
vt 0.772727 0.393651
vt 0.863636 0.393651
vt 0.863636 0.393651
vt 0.227273 0.393651
vt 0.653594 0.393651
vt 0.272728 0.472382
vt 0.515959 0.366011
vt 0.697777 0.366011
vt 0.090910 0.472382
vt 0.061414 0.421293
vt 0.636364 0.472382
vt 0.606868 0.421293
vt 0.818182 0.472382
vt 0.454546 0.472382
vt 0.425050 0.421292
vt 0.136365 0.393651
vt 0.129308 0.381430
vt 0.311127 0.381430
vt 0.856580 0.381430
vt 0.779783 0.381430
vt 0.597965 0.381430
vt 0.590909 0.393651
vt 0.772727 0.393651
vt 0.227273 0.393651
vn -0.0000 -1.0000 0.0000
vn 0.4253 -0.8507 0.3090
vn -0.1625 -0.8507 0.5000
vn 0.7236 -0.4472 0.5257
vn 0.8506 -0.5257 -0.0000
vn -0.5257 -0.8507 0.0000
vn -0.1625 -0.8507 -0.5000
vn 0.4253 -0.8507 -0.3090
vn 0.9511 -0.0000 0.3090
vn -0.2764 -0.4472 0.8506
vn 0.2629 -0.5257 0.8090
vn 0.0000 0.0000 1.0000
vn -0.8944 -0.4472 0.0000
vn -0.6882 -0.5257 0.5000
vn -0.9511 0.0000 0.3090
vn -0.2764 -0.4472 -0.8506
vn -0.6882 -0.5257 -0.5000
vn -0.5878 -0.0000 -0.8090
vn 0.7236 -0.4472 -0.5257
vn 0.2629 -0.5257 -0.8090
vn 0.5878 0.0000 -0.8090
vn 0.5878 0.0000 0.8090
vn -0.5878 -0.0000 0.8090
vn -0.9511 0.0000 -0.3090
vn 0.0000 0.0000 -1.0000
vn 0.9511 -0.0000 -0.3090
vn -0.0237 0.5158 0.8564
vn -0.4842 0.5158 0.7068
vn -0.8218 0.5158 0.2421
vn -0.8218 0.5157 -0.2421
vn -0.0237 0.5158 -0.8564
vn 0.0507 0.9973 0.0538
vn 0.0668 0.9973 0.0316
vn 0.0673 0.9977 0.0000
vn -0.7236 0.4472 0.5257
vn -0.5840 0.7886 0.1924
vn -0.8506 0.5257 0.0000
vn 0.5856 0.7886 -0.1876
vn 0.6882 0.5257 -0.5000
vn 0.3594 0.7886 -0.4989
vn 0.8944 0.4472 0.0000
vn 0.5856 0.7886 0.1876
vn 0.6882 0.5257 0.5000
vn 0.2764 0.4472 -0.8506
vn 0.0025 0.7886 -0.6149
vn 0.2013 0.7586 -0.6196
vn -0.5840 0.7886 -0.1924
vn -0.7236 0.4472 -0.5257
vn -0.5271 0.7586 -0.3830
vn 0.3594 0.7886 0.4989
vn 0.8072 0.5158 0.2872
vn -0.3634 0.7886 -0.4960
vn -0.2629 0.5257 -0.8090
vn -0.3634 0.7886 0.4960
vn -0.5271 0.7586 0.3830
vn 0.5225 0.5158 -0.6789
vn 0.8072 0.5158 -0.2872
vn 0.5225 0.5158 0.6789
vn 0.0025 0.7886 0.6149
vn 0.2764 0.4472 0.8506
vn 0.2013 0.7586 0.6196
vn 0.6515 0.7586 0.0000
vn -0.2629 0.5257 0.8090
vn -0.0355 0.9973 0.0648
vn -0.0094 0.9973 0.0733
vn 0.0208 0.9977 0.0640
vn -0.0094 0.9973 -0.0733
vn -0.0355 0.9973 -0.0648
vn -0.0544 0.9977 -0.0395
vn -0.0726 0.9973 -0.0137
vn -0.0726 0.9973 0.0137
vn -0.0544 0.9977 0.0395
vn 0.0668 0.9973 -0.0316
vn 0.0507 0.9973 -0.0538
vn 0.0208 0.9977 -0.0640
vn -0.4842 0.5158 -0.7068
vn 0.0000 1.0000 0.0000
s 1
f 1/1/1 13/2/2 12/3/3
f 2/4/4 13/5/2 15/6/5
f 1/7/1 12/8/3 17/9/6
f 1/10/1 17/11/6 19/12/7
f 1/13/1 19/14/7 16/15/8
f 2/4/4 15/6/5 22/16/9
f 3/17/10 14/18/11 24/19/12
f 4/20/13 18/21/14 26/22/15
f 5/23/16 20/24/17 28/25/18
f 6/26/19 21/27/20 30/28/21
f 2/4/4 22/16/9 25/29/22
f 3/17/10 24/19/12 27/30/23
f 4/20/13 26/22/15 29/31/24
f 5/23/16 28/25/18 31/32/25
f 6/26/19 30/28/21 23/33/26
f 39/34/27 70/35/23 48/36/28
f 49/37/29 73/38/24 53/39/30
f 58/40/31 72/41/18 76/42/25
f 67/43/32 63/44/33 65/45/34
f 8/46/35 50/47/36 34/48/37
f 47/49/38 36/50/39 60/51/40
f 11/52/41 45/53/42 32/54/43
f 10/55/44 62/56/45 61/57/46
f 57/58/47 50/47/36 49/37/29
f 10/55/44 60/51/40 36/50/39
f 9/59/48 57/58/47 56/60/49
f 42/61/50 45/53/42 44/62/51
f 9/59/48 55/63/52 35/64/53
f 8/65/35 52/66/54 51/67/55
f 62/56/45 35/64/53 55/63/52
f 59/68/56 64/69/26 43/70/57
f 38/71/58 63/44/9 67/43/22
f 52/66/54 40/72/59 39/34/27
f 7/73/60 42/61/50 41/74/61
f 11/52/41 47/49/38 46/75/62
f 23/33/26 36/50/39 11/52/41
f 23/33/26 30/28/21 36/50/39
f 30/28/21 10/55/44 36/50/39
f 31/32/25 35/64/53 10/55/44
f 31/32/25 28/25/18 35/64/53
f 28/25/18 9/59/48 35/64/53
f 29/31/24 34/48/37 9/59/48
f 29/31/24 26/22/15 34/48/37
f 26/22/15 8/46/35 34/48/37
f 27/30/23 33/76/63 8/65/35
f 27/30/23 24/19/12 33/76/63
f 24/19/12 7/73/60 33/76/63
f 25/29/22 32/54/43 7/73/60
f 25/29/22 22/16/9 32/54/43
f 22/16/9 11/52/41 32/54/43
f 30/28/21 31/32/25 10/55/44
f 30/28/21 21/27/20 31/32/25
f 21/27/20 5/23/16 31/32/25
f 28/25/18 29/31/24 9/59/48
f 28/25/18 20/24/17 29/31/24
f 20/24/17 4/20/13 29/31/24
f 26/22/15 27/77/23 8/46/35
f 26/22/15 18/21/14 27/77/23
f 18/21/14 3/78/10 27/77/23
f 24/19/12 25/29/22 7/73/60
f 24/19/12 14/18/11 25/29/22
f 14/18/11 2/4/4 25/29/22
f 22/16/9 23/33/26 11/52/41
f 22/16/9 15/6/5 23/33/26
f 15/6/5 6/26/19 23/33/26
f 16/15/8 21/27/20 6/26/19
f 16/15/8 19/14/7 21/27/20
f 19/14/7 5/23/16 21/27/20
f 19/12/7 20/24/17 5/23/16
f 19/12/7 17/11/6 20/24/17
f 17/11/6 4/20/13 20/24/17
f 17/9/6 18/21/14 4/20/13
f 17/9/6 12/8/3 18/21/14
f 12/8/3 3/78/10 18/21/14
f 15/6/5 16/79/8 6/26/19
f 15/6/5 13/5/2 16/79/8
f 13/5/2 1/80/1 16/79/8
f 12/3/3 14/18/11 3/17/10
f 12/3/3 13/2/2 14/18/11
f 13/2/2 2/4/4 14/18/11
f 70/35/64 66/81/65 68/82/66
f 76/42/67 72/41/68 74/83/69
f 73/38/70 69/84/71 71/85/72
f 64/69/73 75/86/74 77/87/75
f 40/72/59 41/88/61 42/89/50
f 45/53/42 46/90/62 47/91/38
f 50/47/36 51/92/55 52/93/54
f 55/94/52 56/60/49 57/58/47
f 60/95/40 61/57/46 62/56/45
f 63/44/33 64/96/73 65/45/34
f 66/97/65 67/43/32 68/98/66
f 69/84/71 70/99/64 71/85/72
f 72/100/68 73/38/70 74/101/69
f 75/86/74 76/102/67 77/87/75
f 64/103/26 44/62/51 43/104/57
f 75/86/21 58/105/31 76/106/25
f 73/38/24 54/107/76 53/39/30
f 69/84/15 48/108/28 70/109/23
f 67/43/22 39/110/27 38/71/58
f 7/73/60 40/72/59 33/76/63
f 39/34/27 66/81/12 70/35/23
f 49/37/29 69/84/15 73/38/24
f 58/40/31 54/111/76 72/41/18
f 37/112/77 68/98/66 65/45/34
f 68/98/66 67/43/32 65/45/34
f 8/46/35 51/92/55 50/47/36
f 59/68/56 43/70/57 60/51/40
f 43/70/57 47/49/38 60/51/40
f 11/52/41 46/90/62 45/53/42
f 10/55/44 35/64/53 62/56/45
f 49/37/29 53/39/30 57/58/47
f 57/58/47 34/48/37 50/47/36
f 10/55/44 61/113/46 60/51/40
f 9/59/48 34/48/37 57/58/47
f 44/62/51 38/71/58 42/61/50
f 42/61/50 32/54/43 45/53/42
f 9/59/48 56/114/49 55/63/52
f 8/65/35 33/76/63 52/66/54
f 54/111/76 58/40/31 55/63/52
f 58/40/31 62/56/45 55/63/52
f 59/68/56 75/86/21 64/69/26
f 38/71/58 44/62/51 63/44/9
f 39/34/27 48/36/28 52/66/54
f 52/66/54 33/76/63 40/72/59
f 7/73/60 32/54/43 42/61/50
f 11/52/41 36/50/39 47/49/38
f 37/115/77 71/116/72 68/82/66
f 71/116/72 70/35/64 68/82/66
f 37/117/77 77/118/75 74/83/69
f 77/118/75 76/42/67 74/83/69
f 37/119/77 74/101/69 71/85/72
f 74/101/69 73/38/70 71/85/72
f 37/120/77 65/121/34 77/87/75
f 65/121/34 64/69/73 77/87/75
f 42/89/50 38/122/58 39/123/27
f 39/123/27 40/72/59 42/89/50
f 47/91/38 43/104/57 44/124/51
f 44/124/51 45/53/42 47/91/38
f 52/93/54 48/108/28 49/125/29
f 49/125/29 50/47/36 52/93/54
f 57/58/47 53/126/30 54/107/76
f 54/107/76 55/94/52 57/58/47
f 62/56/45 58/127/31 59/128/56
f 59/128/56 60/95/40 62/56/45
f 64/103/26 63/44/9 44/62/51
f 75/86/21 59/68/56 58/105/31
f 73/38/24 72/129/18 54/107/76
f 69/84/15 49/37/29 48/108/28
f 67/43/22 66/130/12 39/110/27
f 7/73/60 41/88/61 40/72/59
