# Blender v3.4.1 OBJ File: 'decoratives_and_entities.blend'
# www.blender.org
o Fence_Post_2_Cube.170
v -0.065057 -0.616211 0.092661
v -0.092661 -0.616211 0.065057
v -0.084576 -0.616211 0.084576
v -0.064887 0.616211 0.092661
v -0.092661 0.616211 0.064887
v -0.084526 0.616211 0.084526
v -0.092661 -0.616211 -0.065057
v -0.065057 -0.616211 -0.092661
v -0.084576 -0.616211 -0.084576
v -0.092661 0.616211 -0.064887
v -0.064887 0.616211 -0.092661
v -0.084526 0.616211 -0.084526
v 0.092661 -0.616211 0.065057
v 0.065057 -0.616211 0.092661
v 0.084576 -0.616211 0.084576
v 0.092661 0.616211 0.064887
v 0.064887 0.616211 0.092661
v 0.084526 0.616211 0.084526
v 0.065057 -0.616211 -0.092661
v 0.092661 -0.616211 -0.065057
v 0.084576 -0.616211 -0.084576
v 0.064887 0.616211 -0.092661
v 0.092661 0.616211 -0.064887
v 0.084526 0.616211 -0.084526
v -0.054345 0.644233 0.082603
v -0.082603 0.644233 0.054345
v -0.074326 0.644233 0.074326
v -0.082603 0.644233 -0.054345
v -0.054345 0.644233 -0.082603
v -0.074326 0.644233 -0.074326
v 0.054345 0.644233 -0.082603
v 0.082603 0.644233 -0.054345
v 0.074326 0.644233 -0.074326
v 0.082603 0.644233 0.054345
v 0.054345 0.644233 0.082603
v 0.074326 0.644233 0.074326
v -0.044023 0.665679 0.015584
v -0.015584 0.665679 0.044023
v -0.035694 0.665679 0.035694
v -0.015584 0.665679 -0.044023
v -0.044023 0.665679 -0.015584
v -0.035694 0.665679 -0.035694
v 0.044023 0.665679 -0.015584
v 0.015584 0.665679 -0.044023
v 0.035694 0.665679 -0.035694
v 0.015584 0.665679 0.044023
v 0.044023 0.665679 0.015584
v 0.035694 0.665679 0.035694
vt 0.625000 0.787468
vt 0.375000 0.962762
vt 0.375000 0.787238
vt 0.625000 0.287468
vt 0.625000 0.457238
vt 0.625000 0.462532
vt 0.625000 0.537468
vt 0.625000 0.707238
vt 0.625000 0.712532
vt 0.625000 0.037468
vt 0.625000 0.207238
vt 0.625000 0.212532
vt 0.375000 0.212762
vt 0.375000 0.037238
vt 0.375000 0.712762
vt 0.375000 0.537238
vt 0.794251 0.500000
vt 0.875000 0.580749
vt 0.625000 0.669251
vt 0.625000 0.042762
vt 0.625000 0.169251
vt 0.625000 0.957238
vt 0.625000 0.962532
vt 0.375000 0.462762
vt 0.375000 0.287238
vt 0.625000 0.792762
vt 0.625000 0.919251
vt 0.625000 0.292762
vt 0.625000 0.419251
vt 0.625000 0.542762
vt 0.625000 1.000000
vt 0.375000 1.000000
vt 0.625000 0.000000
vt 0.375000 0.000000
vt 0.625000 0.250000
vt 0.625000 0.500000
vt 0.625000 0.750000
vt 0.625000 0.250000
vt 0.625000 0.500000
vt 0.625000 0.750000
vt 0.625000 1.000000
vt 0.625000 0.000000
vt 0.625000 0.500000
vt 0.625000 0.750000
vt 0.625000 0.830749
vt 0.625000 1.000000
vt 0.625000 0.000000
vt 0.625000 0.250000
vt 0.625000 0.330749
vt 0.337762 0.750000
vt 0.125000 0.712762
vt 0.337762 0.500000
vt 0.625000 0.580749
vt 0.705749 0.500000
vt 0.648651 0.523651
vt 0.851349 0.523651
vt 0.875000 0.669251
vt 0.851349 0.726349
vt 0.794251 0.750000
vt 0.705749 0.750000
vt 0.648651 0.726349
vt 0.625000 0.080749
vt 0.375000 0.250000
vt 0.375000 0.500000
vt 0.375000 0.750000
vt 0.125000 0.537238
vt 0.162238 0.500000
vt 0.135907 0.510907
vt 0.364093 0.510907
vt 0.364093 0.739093
vt 0.162238 0.750000
vt 0.135907 0.739093
vn 0.2051 0.1987 0.9583
vn -0.1951 0.0000 0.9808
vn 0.1951 0.0000 0.9808
vn -0.2051 0.1987 -0.9583
vn 0.1476 0.3829 -0.9119
vn 0.2051 0.1987 -0.9583
vn 0.9583 0.1987 -0.2051
vn 0.9119 0.3829 0.1476
vn 0.9583 0.1987 0.2051
vn -0.9583 0.1987 0.2051
vn -0.9119 0.3829 -0.1476
vn -0.9583 0.1987 -0.2051
vn -0.9808 0.0000 -0.1951
vn -0.9808 0.0000 0.1951
vn 0.9808 0.0000 0.1951
vn 0.9808 0.0000 -0.1951
vn -0.0297 0.9664 -0.2553
vn -0.2553 0.9664 -0.0297
vn 0.2553 0.9664 0.0297
vn -0.4010 0.9101 0.1044
vn -0.4010 0.9101 -0.1044
vn -0.1476 0.3829 0.9119
vn -0.2051 0.1987 0.9583
vn 0.1951 0.0000 -0.9808
vn -0.1951 0.0000 -0.9808
vn 0.1044 0.9101 0.4010
vn -0.0297 0.9664 0.2553
vn -0.1044 0.9101 0.4010
vn -0.1044 0.9101 -0.4010
vn 0.0297 0.9664 -0.2553
vn 0.1044 0.9101 -0.4010
vn 0.4010 0.9101 -0.1044
vn 0.4010 0.9101 0.1044
vn -0.3744 0.2071 0.9039
vn -0.3827 0.0001 0.9239
vn -0.9039 0.2071 0.3744
vn -0.9239 0.0001 0.3827
vn -0.3744 0.2071 -0.9039
vn -0.9039 0.2071 -0.3744
vn 0.9039 0.2071 -0.3744
vn 0.3744 0.2071 -0.9039
vn 0.3744 0.2071 0.9039
vn 0.9039 0.2071 0.3744
vn -0.8343 0.4295 -0.3456
vn -0.3456 0.4295 -0.8343
vn 0.8343 0.4295 -0.3456
vn 0.9119 0.3829 -0.1476
vn 0.3456 0.4295 -0.8343
vn 0.3456 0.4295 0.8343
vn 0.1476 0.3829 0.9119
vn 0.8343 0.4295 0.3456
vn -0.3456 0.4295 0.8343
vn -0.8343 0.4295 0.3456
vn 0.1626 0.9732 -0.1626
vn 0.2584 0.9309 -0.2584
vn 0.1626 0.9732 0.1626
vn 0.0297 0.9664 0.2553
vn -0.1626 0.9732 0.1626
vn -0.2584 0.9309 0.2584
vn -0.1626 0.9732 -0.1626
vn 0.0000 -1.0000 0.0000
vn -0.1476 0.3829 -0.9119
vn -0.9119 0.3829 0.1476
vn 0.2553 0.9664 -0.0297
vn -0.2553 0.9664 0.0297
vn -0.3827 0.0001 -0.9239
vn -0.9239 0.0001 -0.3827
vn 0.9239 0.0001 -0.3827
vn 0.3827 0.0001 -0.9239
vn 0.3827 0.0001 0.9239
vn 0.9239 0.0001 0.3827
vn 0.2584 0.9309 0.2584
vn -0.2584 0.9309 -0.2584
s 1
f 17/1/1 1/2/2 14/3/3
f 11/4/4 31/5/5 22/6/6
f 23/7/7 34/8/8 16/9/9
f 5/10/10 28/11/11 10/12/12
f 5/10/10 7/13/13 2/14/14
f 23/7/7 13/15/15 20/16/16
f 40/17/17 41/18/18 47/19/19
f 26/20/20 41/21/18 28/11/21
f 17/1/1 25/22/22 4/23/23
f 11/4/4 19/24/24 8/25/25
f 35/26/26 38/27/27 25/22/28
f 29/28/29 44/29/30 31/5/31
f 32/30/32 47/19/19 34/8/33
f 1/2/2 6/31/34 3/32/35
f 6/33/36 2/14/14 3/34/37
f 8/25/25 12/35/38 11/4/4
f 12/35/39 7/13/13 10/12/12
f 20/16/16 24/36/40 23/7/7
f 24/36/41 19/24/24 22/6/6
f 14/3/3 18/37/42 17/1/1
f 18/37/43 13/15/15 16/9/9
f 10/12/12 30/38/44 12/35/39
f 30/38/45 11/4/4 12/35/38
f 23/7/7 33/39/46 32/30/47
f 33/39/48 22/6/6 31/5/5
f 17/1/1 36/40/49 35/26/50
f 36/40/51 16/9/9 34/8/8
f 4/23/23 27/41/52 6/31/34
f 27/42/53 5/10/10 6/33/36
f 31/5/31 45/43/54 33/39/55
f 45/43/54 32/30/32 33/39/55
f 35/26/26 48/44/56 46/45/57
f 48/44/56 34/8/33 47/19/19
f 25/22/28 39/46/58 27/41/59
f 39/47/58 26/20/20 27/42/59
f 29/28/29 42/48/60 40/49/17
f 42/48/60 28/11/21 41/21/18
f 14/50/61 2/51/61 19/52/61
f 17/1/1 4/23/23 1/2/2
f 11/4/4 29/28/62 31/5/5
f 23/7/7 32/30/47 34/8/8
f 5/10/10 26/20/63 28/11/11
f 5/10/10 10/12/12 7/13/13
f 23/7/7 16/9/9 13/15/15
f 47/19/19 43/53/64 44/54/30
f 43/53/64 45/55/54 44/54/30
f 44/54/30 40/17/17 47/19/19
f 40/17/17 42/56/60 41/18/18
f 41/18/18 37/57/65 47/19/19
f 37/57/65 39/58/58 38/59/27
f 47/19/19 37/57/65 46/60/57
f 38/59/27 46/60/57 37/57/65
f 46/60/57 48/61/56 47/19/19
f 26/20/20 37/62/65 41/21/18
f 17/1/1 35/26/50 25/22/22
f 11/4/4 22/6/6 19/24/24
f 35/26/26 46/45/57 38/27/27
f 29/28/29 40/49/17 44/29/30
f 32/30/32 43/53/64 47/19/19
f 1/2/2 4/23/23 6/31/34
f 6/33/36 5/10/10 2/14/14
f 8/25/25 9/63/66 12/35/38
f 12/35/39 9/63/67 7/13/13
f 20/16/16 21/64/68 24/36/40
f 24/36/41 21/64/69 19/24/24
f 14/3/3 15/65/70 18/37/42
f 18/37/43 15/65/71 13/15/15
f 10/12/12 28/11/11 30/38/44
f 30/38/45 29/28/62 11/4/4
f 23/7/7 24/36/40 33/39/46
f 33/39/48 24/36/41 22/6/6
f 17/1/1 18/37/42 36/40/49
f 36/40/51 18/37/43 16/9/9
f 4/23/23 25/22/22 27/41/52
f 27/42/53 26/20/63 5/10/10
f 31/5/31 44/29/30 45/43/54
f 45/43/54 43/53/64 32/30/32
f 35/26/26 36/40/72 48/44/56
f 48/44/56 36/40/72 34/8/33
f 25/22/28 38/27/27 39/46/58
f 39/47/58 37/62/65 26/20/20
f 29/28/29 30/38/73 42/48/60
f 42/48/60 30/38/73 28/11/21
f 2/51/61 7/66/61 8/67/61
f 7/66/61 9/68/61 8/67/61
f 8/67/61 19/52/61 2/51/61
f 19/52/61 21/69/61 20/16/61
f 20/16/61 13/15/61 14/50/61
f 13/15/61 15/70/61 14/50/61
f 14/50/61 1/71/61 2/51/61
f 1/71/61 3/72/61 2/51/61
f 19/52/61 20/16/61 14/50/61
