# Blender v3.4.1 OBJ File: 'decoratives_and_entities.blend'
# www.blender.org
o Mushroom_Cylinder.013
v 0.000000 -0.030477 -0.040112
v 0.000000 0.072710 -0.040112
v 0.015350 -0.030477 -0.037058
v 0.015350 0.072710 -0.037058
v 0.028363 -0.030477 -0.028363
v 0.028363 0.072710 -0.028363
v 0.037058 -0.030477 -0.015350
v 0.037058 0.072710 -0.015350
v 0.040112 -0.030477 0.000000
v 0.040112 0.072710 0.000000
v 0.037058 -0.030477 0.015350
v 0.037058 0.072710 0.015350
v 0.028363 -0.030477 0.028363
v 0.028363 0.072710 0.028363
v 0.015350 -0.030477 0.037058
v 0.015350 0.072710 0.037058
v 0.000000 -0.030477 0.040112
v 0.000000 0.072710 0.040112
v -0.015350 -0.030477 0.037058
v -0.015350 0.072710 0.037058
v -0.028363 -0.030477 0.028363
v -0.028363 0.072710 0.028363
v -0.037058 -0.030477 0.015350
v -0.037058 0.072710 0.015350
v -0.040112 -0.030477 0.000000
v -0.040112 0.072710 0.000000
v -0.037058 -0.030477 -0.015350
v -0.037058 0.072710 -0.015350
v -0.028363 -0.030477 -0.028363
v -0.028363 0.072710 -0.028363
v -0.015350 -0.030477 -0.037058
v -0.015350 0.072710 -0.037058
v 0.008139 0.181880 -0.037058
v -0.006615 0.171289 -0.040112
v 0.020647 0.190858 -0.028363
v 0.029004 0.196857 -0.015350
v 0.031939 0.198964 0.000000
v 0.029004 0.196857 0.015350
v 0.020647 0.190858 0.028363
v 0.008139 0.181880 0.037058
v -0.006615 0.171289 0.040112
v -0.021369 0.160699 0.037058
v -0.033876 0.151720 0.028363
v -0.042234 0.145721 0.015350
v -0.045169 0.143615 0.000000
v -0.042234 0.145721 -0.015350
v -0.033876 0.151720 -0.028363
v -0.021369 0.160699 -0.037058
v -0.011827 0.272450 -0.020918
v -0.022392 0.264866 -0.023105
v -0.002870 0.278880 -0.014692
v 0.003115 0.283176 -0.005373
v 0.005217 0.284685 0.005620
v 0.003115 0.283176 0.016612
v -0.002870 0.278880 0.025931
v -0.011827 0.272450 0.032158
v -0.022392 0.264866 0.034345
v -0.032958 0.257282 0.032158
v -0.041915 0.250852 0.025931
v -0.047900 0.246556 0.016612
v -0.050002 0.245048 0.005620
v -0.047900 0.246556 -0.005373
v -0.041915 0.250852 -0.014692
v -0.032958 0.257282 -0.020918
v -0.016874 0.246397 -0.222507
v -0.025597 0.285682 -0.191564
v 0.066251 0.264854 -0.205570
v 0.045969 0.301572 -0.176982
v 0.136721 0.280501 -0.157336
v 0.106639 0.315043 -0.135456
v 0.183808 0.290956 -0.085150
v 0.147178 0.324044 -0.073308
v 0.200343 0.294628 0.000000
v 0.161413 0.327205 0.000000
v 0.183808 0.290956 0.085150
v 0.147178 0.324044 0.073308
v 0.136721 0.280501 0.157336
v 0.106639 0.315043 0.135456
v 0.066251 0.264854 0.205570
v 0.045969 0.301572 0.176982
v -0.016874 0.246397 0.222507
v -0.025597 0.285682 0.191564
v -0.100000 0.227940 0.205570
v -0.097162 0.269792 0.176982
v -0.170470 0.212293 0.157336
v -0.157833 0.256321 0.135456
v -0.217557 0.201838 0.085150
v -0.198371 0.247320 0.073308
v -0.234091 0.198167 0.000000
v -0.212607 0.244159 0.000000
v -0.217557 0.201838 -0.085150
v -0.198371 0.247320 -0.073308
v -0.170470 0.212293 -0.157336
v -0.157833 0.256321 -0.135456
v -0.100000 0.227940 -0.205570
v -0.097162 0.269792 -0.176982
v -0.011274 0.221176 -0.231265
v 0.075123 0.240359 -0.213661
v 0.148367 0.256622 -0.163529
v 0.197307 0.267489 -0.088501
v 0.214493 0.271305 0.000000
v 0.197307 0.267489 0.088501
v 0.148367 0.256622 0.163529
v 0.075123 0.240359 0.213661
v -0.011274 0.221176 0.231265
v -0.097672 0.201992 0.213661
v -0.170916 0.185730 0.163529
v -0.219856 0.174863 0.088501
v -0.237041 0.171047 0.000000
v -0.219856 0.174863 -0.088501
v -0.170916 0.185730 -0.163529
v -0.097672 0.201992 -0.213661
v -0.025383 0.386111 -0.053059
v -0.046838 0.381347 -0.057431
v -0.007194 0.390149 -0.040610
v 0.004960 0.392848 -0.021978
v 0.009228 0.393796 0.000000
v 0.004960 0.392848 0.021978
v -0.007194 0.390149 0.040610
v -0.025383 0.386111 0.053059
v -0.046838 0.381347 0.057431
v -0.068293 0.376583 0.053059
v -0.086482 0.372544 0.040610
v -0.098636 0.369846 0.021978
v -0.102904 0.368898 0.000000
v -0.098636 0.369846 -0.021978
v -0.086482 0.372544 -0.040610
v -0.068293 0.376583 -0.053059
v -0.043858 0.401045 -0.017330
v -0.050866 0.399489 -0.018758
v -0.037918 0.402364 -0.013264
v -0.033948 0.403246 -0.007179
v -0.032554 0.403555 0.000000
v -0.033948 0.403246 0.007179
v -0.037918 0.402364 0.013264
v -0.043858 0.401045 0.017330
v -0.050866 0.399489 0.018758
v -0.057874 0.397933 0.017330
v -0.063815 0.396614 0.013264
v -0.067785 0.395733 0.007179
v -0.069179 0.395423 0.000000
v -0.067785 0.395733 -0.007179
v -0.063815 0.396614 -0.013264
v -0.057874 0.397933 -0.017330
vt 1.000000 1.000000
vt 0.937500 0.500000
vt 1.000000 0.500000
vt 0.937500 1.000000
vt 0.875000 0.500000
vt 0.875000 1.000000
vt 0.812500 0.500000
vt 0.812500 1.000000
vt 0.750000 0.500000
vt 0.750000 1.000000
vt 0.687500 0.500000
vt 0.687500 1.000000
vt 0.625000 0.500000
vt 0.625000 1.000000
vt 0.562500 0.500000
vt 0.562500 1.000000
vt 0.500000 0.500000
vt 0.500000 1.000000
vt 0.437500 0.500000
vt 0.437500 1.000000
vt 0.375000 0.500000
vt 0.375000 1.000000
vt 0.312500 0.500000
vt 0.312500 1.000000
vt 0.250000 0.500000
vt 0.250000 1.000000
vt 0.187500 0.500000
vt 0.187500 1.000000
vt 0.125000 0.500000
vt 0.875000 1.000000
vt 0.812500 1.000000
vt 0.125000 1.000000
vt 0.062500 0.500000
vt 0.062500 1.000000
vt 0.000000 0.500000
vt 0.375000 1.000000
vt 0.312500 1.000000
vt 0.312500 1.000000
vt 0.500000 1.000000
vt 0.250000 1.000000
vt 0.187500 1.000000
vt 1.000000 1.000000
vt 0.937500 1.000000
vt 0.625000 1.000000
vt 0.000000 1.000000
vt 0.062500 1.000000
vt 0.000000 1.000000
vt 0.750000 1.000000
vt 0.437500 1.000000
vt 0.125000 1.000000
vt 0.562500 1.000000
vt 0.687500 1.000000
vt 0.419706 0.419706
vt 0.471731 0.158156
vt 0.471731 0.341844
vt 0.812500 1.000000
vt 0.750000 1.000000
vt 0.250000 1.000000
vt 0.687500 1.000000
vt 0.187500 1.000000
vt 0.625000 1.000000
vt 0.125000 1.000000
vt 0.562500 1.000000
vt 0.062500 1.000000
vt 0.500000 1.000000
vt 1.000000 1.000000
vt 0.937500 1.000000
vt 0.000000 1.000000
vt 0.437500 1.000000
vt 0.875000 1.000000
vt 0.375000 1.000000
vt 1.000000 1.000000
vt 0.937500 0.500000
vt 1.000000 0.500000
vt 0.937500 1.000000
vt 0.875000 0.500000
vt 0.875000 1.000000
vt 0.812500 0.500000
vt 0.812500 1.000000
vt 0.750000 0.500000
vt 0.687500 1.000000
vt 0.687500 0.500000
vt 0.625000 1.000000
vt 0.625000 0.500000
vt 0.562500 1.000000
vt 0.562500 0.500000
vt 0.500000 1.000000
vt 0.500000 0.500000
vt 0.437500 1.000000
vt 0.437500 0.500000
vt 0.375000 1.000000
vt 0.375000 0.500000
vt 0.312500 1.000000
vt 0.312500 0.500000
vt 0.250000 1.000000
vt 0.250000 0.500000
vt 0.187500 0.500000
vt 0.187500 1.000000
vt 0.125000 0.500000
vt 0.750000 1.000000
vt 0.687500 1.000000
vt 0.125000 1.000000
vt 0.062500 0.500000
vt 0.062500 1.000000
vt 0.000000 0.500000
vt 0.812500 0.500000
vt 0.875000 0.500000
vt 0.562500 0.500000
vt 0.937500 0.500000
vt 1.000000 0.500000
vt 0.187500 0.500000
vt 0.250000 0.500000
vt 0.687500 0.500000
vt 0.375000 0.500000
vt 0.000000 0.500000
vt 0.062500 0.500000
vt 0.750000 0.500000
vt 0.500000 0.500000
vt 0.125000 0.500000
vt 0.625000 0.500000
vt 0.312500 0.500000
vt 0.437500 0.500000
vt 0.062500 1.000000
vt 0.125000 1.000000
vt 0.062500 1.000000
vt 0.375000 1.000000
vt 0.125000 1.000000
vt 0.875000 1.000000
vt 0.812500 1.000000
vt 0.500000 1.000000
vt 1.000000 1.000000
vt 0.937500 1.000000
vt 0.250000 1.000000
vt 0.187500 1.000000
vt 0.625000 1.000000
vt 0.312500 1.000000
vt 0.000000 1.000000
vt 0.000000 1.000000
vt 0.750000 1.000000
vt 0.437500 1.000000
vt 0.562500 1.000000
vt 0.419706 0.419706
vt 0.471731 0.158156
vt 0.471731 0.341844
vt 0.500000 1.000000
vt 1.000000 1.000000
vt 0.937500 1.000000
vt 0.000000 1.000000
vt 0.437500 1.000000
vt 0.875000 1.000000
vt 0.375000 1.000000
vt 0.812500 1.000000
vt 0.312500 1.000000
vt 0.750000 1.000000
vt 0.250000 1.000000
vt 0.687500 1.000000
vt 0.187500 1.000000
vt 0.625000 1.000000
vt 0.562500 1.000000
vt 0.341844 0.471731
vt 0.341844 0.028269
vt 0.250000 0.490000
vt 0.250000 0.010000
vt 0.158156 0.471731
vt 0.158156 0.028269
vt 0.080294 0.419706
vt 0.080294 0.080294
vt 0.028269 0.341844
vt 0.028269 0.158156
vt 0.010000 0.250000
vt 0.419706 0.080294
vt 0.490000 0.250000
vt 0.341844 0.471731
vt 0.341844 0.028269
vt 0.250000 0.490000
vt 0.250000 0.010000
vt 0.158156 0.471731
vt 0.158156 0.028269
vt 0.080294 0.419706
vt 0.080294 0.080294
vt 0.028269 0.341844
vt 0.028269 0.158156
vt 0.010000 0.250000
vt 0.419706 0.080294
vt 0.490000 0.250000
vn 0.0042 0.0002 -1.0000
vn 0.3827 0.0000 -0.9239
vn 0.0000 0.0000 -1.0000
vn 0.3861 0.0129 -0.9224
vn 0.7071 0.0000 -0.7071
vn 0.7089 0.0232 -0.7050
vn 0.9239 0.0000 -0.3827
vn 0.9240 0.0299 -0.3812
vn 1.0000 0.0000 0.0000
vn 0.9995 0.0323 -0.0000
vn 0.9239 0.0000 0.3827
vn 0.9240 0.0299 0.3812
vn 0.7071 0.0000 0.7071
vn 0.7089 0.0232 0.7050
vn 0.3827 0.0000 0.9239
vn 0.3861 0.0129 0.9224
vn -0.0000 0.0000 1.0000
vn 0.0042 0.0002 1.0000
vn -0.3827 0.0000 0.9239
vn -0.3789 -0.0130 0.9253
vn -0.7071 0.0000 0.7071
vn -0.7046 -0.0248 0.7092
vn -0.9239 0.0000 0.3827
vn -0.9227 -0.0329 0.3841
vn -1.0000 0.0000 -0.0000
vn -0.9994 -0.0358 0.0000
vn -0.9239 0.0000 -0.3827
vn -0.9227 -0.0329 -0.3841
vn -0.7071 0.0000 -0.7071
vn 0.6548 0.1649 -0.7376
vn 0.8920 0.1900 -0.4102
vn -0.7046 -0.0248 -0.7092
vn -0.3827 0.0000 -0.9239
vn -0.3789 -0.0130 -0.9253
vn -0.7037 -0.0450 0.7090
vn -0.9104 -0.0563 0.4100
vn -0.9217 -0.0607 0.3831
vn -0.0110 0.0252 0.9996
vn -0.9982 -0.0599 -0.0028
vn -0.9223 -0.0424 -0.3842
vn -0.0463 0.0772 -0.9959
vn 0.3234 0.1241 -0.9381
vn 0.6799 0.1200 0.7234
vn -0.4062 0.0307 -0.9133
vn 0.9818 0.1897 -0.0050
vn -0.3827 -0.0151 0.9238
vn -0.7125 -0.0107 -0.7016
vn 0.3593 0.0718 0.9305
vn 0.9030 0.1631 0.3976
vn -0.5831 0.8124 0.0000
vn 0.8676 0.3056 -0.3924
vn 0.9548 0.2971 0.0081
vn -0.9988 -0.0480 0.0077
vn 0.8795 0.2579 0.4000
vn -0.9221 -0.0135 -0.3868
vn 0.6677 0.1982 0.7175
vn -0.7101 0.0394 -0.7030
vn 0.3646 0.1303 0.9220
vn -0.4103 0.1022 -0.9062
vn 0.0137 0.0638 0.9979
vn -0.0619 0.1684 -0.9838
vn 0.3005 0.2311 -0.9253
vn -0.3472 0.0059 0.9378
vn 0.6313 0.2809 -0.7229
vn -0.6744 -0.0366 0.7374
vn -0.1533 0.6902 -0.7072
vn 0.2306 0.5259 -0.8187
vn -0.1004 0.4524 -0.8862
vn 0.1109 0.7489 -0.6534
vn 0.5113 0.5882 -0.6266
vn 0.3349 0.7986 -0.5001
vn 0.6988 0.6298 -0.3391
vn 0.4846 0.8318 -0.2706
vn 0.7646 0.6445 0.0000
vn 0.4846 0.8318 0.2706
vn 0.6988 0.6298 0.3391
vn 0.3349 0.7986 0.5001
vn 0.5113 0.5882 0.6266
vn 0.1109 0.7489 0.6534
vn 0.2306 0.5259 0.8187
vn -0.1533 0.6902 0.7072
vn -0.1004 0.4524 0.8862
vn -0.4175 0.6315 0.6534
vn -0.4315 0.3789 0.8187
vn -0.6414 0.5818 0.5001
vn -0.7122 0.3166 0.6266
vn -0.7911 0.5486 0.2706
vn -0.8997 0.2749 0.3391
vn -0.8436 0.5369 -0.0000
vn -0.9655 0.2603 -0.0000
vn -0.8997 0.2749 -0.3391
vn -0.7911 0.5486 -0.2706
vn -0.7122 0.3166 -0.6266
vn 0.5371 0.8435 0.0000
vn 0.2859 0.9372 0.1997
vn -0.6414 0.5818 -0.5001
vn -0.4315 0.3789 -0.8187
vn -0.4175 0.6315 -0.6534
vn 0.7846 0.5031 -0.3624
vn 0.5842 0.4586 -0.6697
vn 0.2842 0.3920 0.8750
vn 0.2842 0.3920 -0.8750
vn -0.0696 0.3134 -0.9471
vn -0.9238 0.1238 -0.3624
vn -0.9941 0.1081 0.0000
vn 0.7846 0.5031 0.3624
vn -0.7233 0.1683 0.6697
vn -0.4234 0.2349 -0.8750
vn 0.8550 0.5187 -0.0000
vn -0.0696 0.3134 0.9471
vn -0.7233 0.1683 -0.6697
vn 0.5842 0.4586 0.6697
vn -0.9238 0.1238 0.3624
vn -0.4234 0.2349 0.8750
vn -0.3799 0.7894 -0.4822
vn -0.3813 0.9076 -0.1755
vn -0.3027 0.9251 -0.2293
vn -0.5452 0.7527 0.3691
vn -0.5452 0.7527 -0.3691
vn 0.1754 0.9127 -0.3691
vn 0.2859 0.9372 -0.1997
vn -0.1849 0.8327 0.5220
vn -0.1849 0.8327 -0.5220
vn 0.0101 0.8760 -0.4822
vn -0.6944 0.7195 -0.0000
vn -0.6557 0.7282 -0.1997
vn 0.1754 0.9127 0.3691
vn -0.6557 0.7282 0.1997
vn 0.3247 0.9458 -0.0000
vn -0.3799 0.7894 0.4822
vn 0.0101 0.8760 0.4822
vn -0.0387 0.9837 -0.1755
vn 0.0139 0.9954 0.0950
vn 0.0139 0.9954 -0.0950
vn -0.2100 0.9457 0.2482
vn -0.2100 0.9457 -0.2482
vn -0.1173 0.9663 -0.2293
vn -0.3027 0.9251 0.2293
vn -0.3813 0.9076 0.1755
vn -0.4338 0.8960 0.0950
vn 0.0323 0.9995 0.0000
vn -0.4522 0.8919 -0.0000
vn -0.4338 0.8960 -0.0950
vn -0.0387 0.9837 0.1755
vn -0.1173 0.9663 0.2293
s 1
f 2/1/1 3/2/2 1/3/3
f 4/4/4 5/5/5 3/2/2
f 6/6/6 7/7/7 5/5/5
f 8/8/8 9/9/9 7/7/7
f 10/10/10 11/11/11 9/9/9
f 12/12/12 13/13/13 11/11/11
f 14/14/14 15/15/15 13/13/13
f 16/16/16 17/17/17 15/15/15
f 18/18/18 19/19/19 17/17/17
f 20/20/20 21/21/21 19/19/19
f 22/22/22 23/23/23 21/21/21
f 24/24/24 25/25/25 23/23/23
f 26/26/26 27/27/27 25/25/25
f 28/28/28 29/29/29 27/27/27
f 8/8/8 35/30/30 36/31/31
f 30/32/32 31/33/33 29/29/29
f 32/34/34 1/35/3 31/33/33
f 43/36/35 60/37/36 44/38/37
f 16/16/16 41/39/38 18/18/18
f 28/28/28 45/40/39 46/41/40
f 4/4/4 34/42/41 33/43/42
f 12/12/12 39/44/43 14/14/14
f 22/22/22 44/38/37 24/24/24
f 2/45/1 48/46/44 34/47/41
f 10/10/10 36/31/31 37/48/45
f 18/18/18 42/49/46 20/20/20
f 30/32/32 46/41/40 47/50/47
f 6/6/6 33/43/42 35/30/30
f 14/14/14 40/51/48 16/16/16
f 24/24/24 45/40/39 26/26/26
f 10/10/10 38/52/49 12/12/12
f 20/20/20 43/36/35 22/22/22
f 32/34/34 47/50/47 48/46/44
f 51/53/50 54/54/50 52/55/50
f 37/48/45 52/56/51 53/57/52
f 44/38/37 61/58/53 45/40/39
f 37/48/45 54/59/54 38/52/49
f 46/41/40 61/58/53 62/60/55
f 38/52/49 55/61/56 39/44/43
f 47/50/47 62/60/55 63/62/57
f 39/44/43 56/63/58 40/51/48
f 48/46/44 63/62/57 64/64/59
f 40/51/48 57/65/60 41/39/38
f 33/43/42 50/66/61 49/67/62
f 34/47/41 64/64/59 50/68/61
f 41/39/38 58/69/63 42/49/46
f 35/30/30 49/67/62 51/70/64
f 42/49/46 59/71/65 43/36/35
f 36/31/31 51/70/64 52/56/51
f 66/72/66 67/73/67 65/74/68
f 68/75/69 69/76/70 67/73/67
f 70/77/71 71/78/72 69/76/70
f 72/79/73 73/80/74 71/78/72
f 73/80/74 76/81/75 75/82/76
f 75/82/76 78/83/77 77/84/78
f 77/84/78 80/85/79 79/86/80
f 79/86/80 82/87/81 81/88/82
f 81/88/82 84/89/83 83/90/84
f 83/90/84 86/91/85 85/92/86
f 85/92/86 88/93/87 87/94/88
f 87/94/88 90/95/89 89/96/90
f 90/95/89 91/97/91 89/96/90
f 92/98/92 93/99/93 91/97/91
f 74/100/94 118/101/95 76/81/75
f 94/102/96 95/103/97 93/99/93
f 96/104/98 65/105/68 95/103/97
f 69/76/70 100/106/99 99/107/100
f 81/88/82 104/108/101 79/86/80
f 65/74/68 98/109/102 97/110/103
f 89/96/90 110/111/104 109/112/105
f 77/84/78 102/113/106 75/82/76
f 87/94/88 107/114/107 85/92/86
f 95/103/97 97/115/103 112/116/108
f 71/78/72 101/117/109 100/106/99
f 83/90/84 105/118/110 81/88/82
f 91/97/91 111/119/111 110/111/104
f 67/73/67 99/107/100 98/109/102
f 79/86/80 103/120/112 77/84/78
f 89/96/90 108/121/113 87/94/88
f 75/82/76 101/117/109 73/80/74
f 85/92/86 106/122/114 83/90/84
f 93/99/93 112/116/108 111/119/111
f 128/123/115 143/124/116 144/125/117
f 84/89/83 123/126/118 86/91/85
f 96/104/98 127/127/119 128/123/115
f 72/79/73 115/128/120 116/129/121
f 80/85/79 121/130/122 82/87/81
f 68/75/69 114/131/123 113/132/124
f 92/98/92 125/133/125 126/134/126
f 76/81/75 119/135/127 78/83/77
f 86/91/85 124/136/128 88/93/87
f 66/137/66 128/123/115 114/138/123
f 74/100/94 116/129/121 117/139/129
f 82/87/81 122/140/130 84/89/83
f 94/102/96 126/134/126 127/127/119
f 70/77/71 113/132/124 115/128/120
f 78/83/77 120/141/131 80/85/79
f 88/93/87 125/133/125 90/95/89
f 131/142/132 134/143/133 132/144/134
f 120/141/131 137/145/135 121/130/122
f 113/132/124 130/146/136 129/147/137
f 114/138/123 144/125/117 130/148/136
f 121/130/122 138/149/138 122/140/130
f 115/128/120 129/147/137 131/150/132
f 122/140/130 139/151/139 123/126/118
f 116/129/121 131/150/132 132/152/134
f 123/126/118 140/153/140 124/136/128
f 117/139/129 132/152/134 133/154/141
f 124/136/128 141/155/142 125/133/125
f 117/139/129 134/156/133 118/101/95
f 126/134/126 141/155/142 142/157/143
f 118/101/95 135/158/144 119/135/127
f 127/127/119 142/157/143 143/124/116
f 119/135/127 136/159/145 120/141/131
f 2/1/1 4/4/4 3/2/2
f 4/4/4 6/6/6 5/5/5
f 6/6/6 8/8/8 7/7/7
f 8/8/8 10/10/10 9/9/9
f 10/10/10 12/12/12 11/11/11
f 12/12/12 14/14/14 13/13/13
f 14/14/14 16/16/16 15/15/15
f 16/16/16 18/18/18 17/17/17
f 18/18/18 20/20/20 19/19/19
f 20/20/20 22/22/22 21/21/21
f 22/22/22 24/24/24 23/23/23
f 24/24/24 26/26/26 25/25/25
f 26/26/26 28/28/28 27/27/27
f 28/28/28 30/32/32 29/29/29
f 8/8/8 6/6/6 35/30/30
f 30/32/32 32/34/34 31/33/33
f 32/34/34 2/45/1 1/35/3
f 43/36/35 59/71/65 60/37/36
f 16/16/16 40/51/48 41/39/38
f 28/28/28 26/26/26 45/40/39
f 4/4/4 2/1/1 34/42/41
f 12/12/12 38/52/49 39/44/43
f 22/22/22 43/36/35 44/38/37
f 2/45/1 32/34/34 48/46/44
f 10/10/10 8/8/8 36/31/31
f 18/18/18 41/39/38 42/49/46
f 30/32/32 28/28/28 46/41/40
f 6/6/6 4/4/4 33/43/42
f 14/14/14 39/44/43 40/51/48
f 24/24/24 44/38/37 45/40/39
f 10/10/10 37/48/45 38/52/49
f 20/20/20 42/49/46 43/36/35
f 32/34/34 30/32/32 47/50/47
f 51/53/50 49/160/50 56/161/50
f 49/160/50 50/162/50 57/163/50
f 50/162/50 64/164/50 58/165/50
f 64/164/50 63/166/50 59/167/50
f 63/166/50 62/168/50 60/169/50
f 62/168/50 61/170/50 60/169/50
f 60/169/50 59/167/50 63/166/50
f 59/167/50 58/165/50 64/164/50
f 58/165/50 57/163/50 50/162/50
f 57/163/50 56/161/50 49/160/50
f 56/161/50 55/171/50 51/53/50
f 55/171/50 54/54/50 51/53/50
f 54/54/50 53/172/50 52/55/50
f 37/48/45 36/31/31 52/56/51
f 44/38/37 60/37/36 61/58/53
f 37/48/45 53/57/52 54/59/54
f 46/41/40 45/40/39 61/58/53
f 38/52/49 54/59/54 55/61/56
f 47/50/47 46/41/40 62/60/55
f 39/44/43 55/61/56 56/63/58
f 48/46/44 47/50/47 63/62/57
f 40/51/48 56/63/58 57/65/60
f 33/43/42 34/42/41 50/66/61
f 34/47/41 48/46/44 64/64/59
f 41/39/38 57/65/60 58/69/63
f 35/30/30 33/43/42 49/67/62
f 42/49/46 58/69/63 59/71/65
f 36/31/31 35/30/30 51/70/64
f 66/72/66 68/75/69 67/73/67
f 68/75/69 70/77/71 69/76/70
f 70/77/71 72/79/73 71/78/72
f 72/79/73 74/100/94 73/80/74
f 73/80/74 74/100/94 76/81/75
f 75/82/76 76/81/75 78/83/77
f 77/84/78 78/83/77 80/85/79
f 79/86/80 80/85/79 82/87/81
f 81/88/82 82/87/81 84/89/83
f 83/90/84 84/89/83 86/91/85
f 85/92/86 86/91/85 88/93/87
f 87/94/88 88/93/87 90/95/89
f 90/95/89 92/98/92 91/97/91
f 92/98/92 94/102/96 93/99/93
f 74/100/94 117/139/129 118/101/95
f 94/102/96 96/104/98 95/103/97
f 96/104/98 66/137/66 65/105/68
f 69/76/70 71/78/72 100/106/99
f 81/88/82 105/118/110 104/108/101
f 65/74/68 67/73/67 98/109/102
f 89/96/90 91/97/91 110/111/104
f 77/84/78 103/120/112 102/113/106
f 87/94/88 108/121/113 107/114/107
f 95/103/97 65/105/68 97/115/103
f 71/78/72 73/80/74 101/117/109
f 83/90/84 106/122/114 105/118/110
f 91/97/91 93/99/93 111/119/111
f 67/73/67 69/76/70 99/107/100
f 79/86/80 104/108/101 103/120/112
f 89/96/90 109/112/105 108/121/113
f 75/82/76 102/113/106 101/117/109
f 85/92/86 107/114/107 106/122/114
f 93/99/93 95/103/97 112/116/108
f 128/123/115 127/127/119 143/124/116
f 84/89/83 122/140/130 123/126/118
f 96/104/98 94/102/96 127/127/119
f 72/79/73 70/77/71 115/128/120
f 80/85/79 120/141/131 121/130/122
f 68/75/69 66/72/66 114/131/123
f 92/98/92 90/95/89 125/133/125
f 76/81/75 118/101/95 119/135/127
f 86/91/85 123/126/118 124/136/128
f 66/137/66 96/104/98 128/123/115
f 74/100/94 72/79/73 116/129/121
f 82/87/81 121/130/122 122/140/130
f 94/102/96 92/98/92 126/134/126
f 70/77/71 68/75/69 113/132/124
f 78/83/77 119/135/127 120/141/131
f 88/93/87 124/136/128 125/133/125
f 131/142/132 129/173/137 136/174/145
f 129/173/137 130/175/136 137/176/135
f 130/175/136 144/177/117 138/178/138
f 144/177/117 143/179/116 139/180/139
f 143/179/116 142/181/143 140/182/140
f 142/181/143 141/183/142 140/182/140
f 140/182/140 139/180/139 143/179/116
f 139/180/139 138/178/138 144/177/117
f 138/178/138 137/176/135 130/175/136
f 137/176/135 136/174/145 129/173/137
f 136/174/145 135/184/144 131/142/132
f 135/184/144 134/143/133 131/142/132
f 134/143/133 133/185/141 132/144/134
f 120/141/131 136/159/145 137/145/135
f 113/132/124 114/131/123 130/146/136
f 114/138/123 128/123/115 144/125/117
f 121/130/122 137/145/135 138/149/138
f 115/128/120 113/132/124 129/147/137
f 122/140/130 138/149/138 139/151/139
f 116/129/121 115/128/120 131/150/132
f 123/126/118 139/151/139 140/153/140
f 117/139/129 116/129/121 132/152/134
f 124/136/128 140/153/140 141/155/142
f 117/139/129 133/154/141 134/156/133
f 126/134/126 125/133/125 141/155/142
f 118/101/95 134/156/133 135/158/144
f 127/127/119 126/134/126 142/157/143
f 119/135/127 135/158/144 136/159/145
