# Blender v3.4.1 OBJ File: 'decoratives_and_entities.blend'
# www.blender.org
o Mushroom_Cylinder.013
v 0.000000 -0.030477 -0.040112
v 0.000000 0.072710 -0.040112
v 0.015350 -0.030477 -0.037058
v 0.015350 0.072710 -0.037058
v 0.028363 -0.030477 -0.028363
v 0.028363 0.072710 -0.028363
v 0.037058 -0.030477 -0.015350
v 0.037058 0.072710 -0.015350
v 0.040112 -0.030477 0.000000
v 0.040112 0.072710 0.000000
v 0.037058 -0.030477 0.015350
v 0.037058 0.072710 0.015350
v 0.028363 -0.030477 0.028363
v 0.028363 0.072710 0.028363
v 0.015350 -0.030477 0.037058
v 0.015350 0.072710 0.037058
v 0.000000 -0.030477 0.040112
v 0.000000 0.072710 0.040112
v -0.015350 -0.030477 0.037058
v -0.015350 0.072710 0.037058
v -0.028363 -0.030477 0.028363
v -0.028363 0.072710 0.028363
v -0.037058 -0.030477 0.015350
v -0.037058 0.072710 0.015350
v -0.040112 -0.030477 0.000000
v -0.040112 0.072710 0.000000
v -0.037058 -0.030477 -0.015350
v -0.037058 0.072710 -0.015350
v -0.028363 -0.030477 -0.028363
v -0.028363 0.072710 -0.028363
v -0.015350 -0.030477 -0.037058
v -0.015350 0.072710 -0.037058
v 0.008139 0.181880 -0.037058
v -0.006615 0.171289 -0.040112
v 0.020647 0.190858 -0.028363
v 0.029004 0.196857 -0.015350
v 0.031939 0.198964 0.000000
v 0.029004 0.196857 0.015350
v 0.020647 0.190858 0.028363
v 0.008139 0.181880 0.037058
v -0.006615 0.171289 0.040112
v -0.021369 0.160699 0.037058
v -0.033876 0.151720 0.028363
v -0.042234 0.145721 0.015350
v -0.045169 0.143615 0.000000
v -0.042234 0.145721 -0.015350
v -0.033876 0.151720 -0.028363
v -0.021369 0.160699 -0.037058
v -0.011827 0.272450 -0.020918
v -0.022392 0.264866 -0.023105
v -0.002870 0.278880 -0.014692
v 0.003115 0.283176 -0.005373
v 0.005217 0.284685 0.005620
v 0.003115 0.283176 0.016612
v -0.002870 0.278880 0.025931
v -0.011827 0.272450 0.032158
v -0.022392 0.264866 0.034345
v -0.032958 0.257282 0.032158
v -0.041915 0.250852 0.025931
v -0.047900 0.246556 0.016612
v -0.050002 0.245048 0.005620
v -0.047900 0.246556 -0.005373
v -0.041915 0.250852 -0.014692
v -0.032958 0.257282 -0.020918
v -0.016874 0.246397 -0.222507
v -0.025597 0.285682 -0.191564
v 0.066251 0.264854 -0.205570
v 0.045969 0.301572 -0.176982
v 0.136721 0.280501 -0.157336
v 0.106639 0.315043 -0.135456
v 0.183808 0.290956 -0.085150
v 0.147178 0.324044 -0.073308
v 0.200343 0.294628 0.000000
v 0.161413 0.327205 0.000000
v 0.183808 0.290956 0.085150
v 0.147178 0.324044 0.073308
v 0.136721 0.280501 0.157336
v 0.106639 0.315043 0.135456
v 0.066251 0.264854 0.205570
v 0.045969 0.301572 0.176982
v -0.016874 0.246397 0.222507
v -0.025597 0.285682 0.191564
v -0.100000 0.227940 0.205570
v -0.097162 0.269792 0.176982
v -0.170470 0.212293 0.157336
v -0.157833 0.256321 0.135456
v -0.217557 0.201838 0.085150
v -0.198371 0.247320 0.073308
v -0.234091 0.198167 0.000000
v -0.212607 0.244159 0.000000
v -0.217557 0.201838 -0.085150
v -0.198371 0.247320 -0.073308
v -0.170470 0.212293 -0.157336
v -0.157833 0.256321 -0.135456
v -0.100000 0.227940 -0.205570
v -0.097162 0.269792 -0.176982
v -0.011274 0.221176 -0.231265
v 0.075123 0.240359 -0.213661
v 0.148367 0.256622 -0.163529
v 0.197307 0.267489 -0.088501
v 0.214493 0.271305 0.000000
v 0.197307 0.267489 0.088501
v 0.148367 0.256622 0.163529
v 0.075123 0.240359 0.213661
v -0.011274 0.221176 0.231265
v -0.097672 0.201992 0.213661
v -0.170916 0.185730 0.163529
v -0.219856 0.174863 0.088501
v -0.237041 0.171047 0.000000
v -0.219856 0.174863 -0.088501
v -0.170916 0.185730 -0.163529
v -0.097672 0.201992 -0.213661
v -0.025383 0.386111 -0.053059
v -0.046838 0.381347 -0.057431
v -0.007194 0.390149 -0.040610
v 0.004960 0.392848 -0.021978
v 0.009228 0.393796 0.000000
v 0.004960 0.392848 0.021978
v -0.007194 0.390149 0.040610
v -0.025383 0.386111 0.053059
v -0.046838 0.381347 0.057431
v -0.068293 0.376583 0.053059
v -0.086482 0.372544 0.040610
v -0.098636 0.369846 0.021978
v -0.102904 0.368898 0.000000
v -0.098636 0.369846 -0.021978
v -0.086482 0.372544 -0.040610
v -0.068293 0.376583 -0.053059
v -0.043858 0.401045 -0.017330
v -0.050866 0.399489 -0.018758
v -0.037918 0.402364 -0.013264
v -0.033948 0.403246 -0.007179
v -0.032554 0.403555 0.000000
v -0.033948 0.403246 0.007179
v -0.037918 0.402364 0.013264
v -0.043858 0.401045 0.017330
v -0.050866 0.399489 0.018758
v -0.057874 0.397933 0.017330
v -0.063815 0.396614 0.013264
v -0.067785 0.395733 0.007179
v -0.069179 0.395423 0.000000
v -0.067785 0.395733 -0.007179
v -0.063815 0.396614 -0.013264
v -0.057874 0.397933 -0.017330
vt 1.000000 1.000000
vt 0.937500 0.500000
vt 1.000000 0.500000
vt 0.937500 1.000000
vt 0.875000 0.500000
vt 0.875000 1.000000
vt 0.812500 0.500000
vt 0.812500 1.000000
vt 0.750000 0.500000
vt 0.750000 1.000000
vt 0.687500 0.500000
vt 0.687500 1.000000
vt 0.625000 0.500000
vt 0.625000 1.000000
vt 0.562500 0.500000
vt 0.562500 1.000000
vt 0.500000 0.500000
vt 0.500000 1.000000
vt 0.437500 0.500000
vt 0.437500 1.000000
vt 0.375000 0.500000
vt 0.375000 1.000000
vt 0.312500 0.500000
vt 0.312500 1.000000
vt 0.250000 0.500000
vt 0.250000 1.000000
vt 0.187500 0.500000
vt 0.187500 1.000000
vt 0.125000 0.500000
vt 0.875000 1.000000
vt 0.812500 1.000000
vt 0.125000 1.000000
vt 0.062500 0.500000
vt 0.062500 1.000000
vt 0.000000 0.500000
vt 0.841844 0.028269
vt 0.528269 0.158156
vt 0.658156 0.471731
vt 0.375000 1.000000
vt 0.312500 1.000000
vt 0.312500 1.000000
vt 0.500000 1.000000
vt 0.250000 1.000000
vt 0.187500 1.000000
vt 1.000000 1.000000
vt 0.937500 1.000000
vt 0.625000 1.000000
vt 0.000000 1.000000
vt 0.062500 1.000000
vt 0.000000 1.000000
vt 0.750000 1.000000
vt 0.437500 1.000000
vt 0.125000 1.000000
vt 0.562500 1.000000
vt 0.687500 1.000000
vt 0.419706 0.419706
vt 0.471731 0.158156
vt 0.471731 0.341844
vt 0.812500 1.000000
vt 0.750000 1.000000
vt 0.250000 1.000000
vt 0.687500 1.000000
vt 0.187500 1.000000
vt 0.625000 1.000000
vt 0.125000 1.000000
vt 0.562500 1.000000
vt 0.062500 1.000000
vt 0.500000 1.000000
vt 1.000000 1.000000
vt 0.937500 1.000000
vt 0.000000 1.000000
vt 0.437500 1.000000
vt 0.875000 1.000000
vt 0.375000 1.000000
vt 1.000000 1.000000
vt 0.937500 0.500000
vt 1.000000 0.500000
vt 0.937500 1.000000
vt 0.875000 0.500000
vt 0.875000 1.000000
vt 0.812500 0.500000
vt 0.812500 1.000000
vt 0.750000 0.500000
vt 0.687500 1.000000
vt 0.687500 0.500000
vt 0.625000 1.000000
vt 0.625000 0.500000
vt 0.562500 1.000000
vt 0.562500 0.500000
vt 0.500000 1.000000
vt 0.500000 0.500000
vt 0.437500 1.000000
vt 0.437500 0.500000
vt 0.375000 1.000000
vt 0.375000 0.500000
vt 0.312500 1.000000
vt 0.312500 0.500000
vt 0.250000 1.000000
vt 0.250000 0.500000
vt 0.187500 0.500000
vt 0.187500 1.000000
vt 0.125000 0.500000
vt 0.750000 1.000000
vt 0.687500 1.000000
vt 0.125000 1.000000
vt 0.062500 0.500000
vt 0.062500 1.000000
vt 0.000000 0.500000
vt 0.812500 0.500000
vt 0.875000 0.500000
vt 0.528269 0.341844
vt 0.580294 0.419706
vt 0.528269 0.158156
vt 0.562500 0.500000
vt 0.937500 0.500000
vt 1.000000 0.500000
vt 0.187500 0.500000
vt 0.250000 0.500000
vt 0.687500 0.500000
vt 0.375000 0.500000
vt 0.000000 0.500000
vt 0.062500 0.500000
vt 0.750000 0.500000
vt 0.500000 0.500000
vt 0.125000 0.500000
vt 0.625000 0.500000
vt 0.312500 0.500000
vt 0.437500 0.500000
vt 0.062500 1.000000
vt 0.125000 1.000000
vt 0.062500 1.000000
vt 0.375000 1.000000
vt 0.125000 1.000000
vt 0.875000 1.000000
vt 0.812500 1.000000
vt 0.500000 1.000000
vt 1.000000 1.000000
vt 0.937500 1.000000
vt 0.250000 1.000000
vt 0.187500 1.000000
vt 0.625000 1.000000
vt 0.312500 1.000000
vt 0.000000 1.000000
vt 0.000000 1.000000
vt 0.750000 1.000000
vt 0.437500 1.000000
vt 0.562500 1.000000
vt 0.419706 0.419706
vt 0.471731 0.158156
vt 0.471731 0.341844
vt 0.500000 1.000000
vt 1.000000 1.000000
vt 0.937500 1.000000
vt 0.000000 1.000000
vt 0.437500 1.000000
vt 0.875000 1.000000
vt 0.375000 1.000000
vt 0.812500 1.000000
vt 0.312500 1.000000
vt 0.750000 1.000000
vt 0.250000 1.000000
vt 0.687500 1.000000
vt 0.187500 1.000000
vt 0.625000 1.000000
vt 0.562500 1.000000
vt 0.750000 0.490000
vt 0.841844 0.471731
vt 0.919706 0.419706
vt 0.971731 0.341844
vt 0.990000 0.250000
vt 0.971731 0.158156
vt 0.919706 0.080294
vt 0.750000 0.010000
vt 0.658156 0.028269
vt 0.580294 0.080294
vt 0.510000 0.250000
vt 0.528269 0.341844
vt 0.580294 0.419706
vt 0.341844 0.471731
vt 0.341844 0.028269
vt 0.250000 0.490000
vt 0.250000 0.010000
vt 0.158156 0.471731
vt 0.158156 0.028269
vt 0.080294 0.419706
vt 0.080294 0.080294
vt 0.028269 0.341844
vt 0.028269 0.158156
vt 0.010000 0.250000
vt 0.419706 0.080294
vt 0.490000 0.250000
vt 0.658156 0.471731
vt 0.750000 0.490000
vt 0.750000 0.010000
vt 0.841844 0.471731
vt 0.841844 0.028269
vt 0.919706 0.419706
vt 0.971731 0.341844
vt 0.919706 0.080294
vt 0.990000 0.250000
vt 0.971731 0.158156
vt 0.658156 0.028269
vt 0.580294 0.080294
vt 0.510000 0.250000
vt 0.341844 0.471731
vt 0.341844 0.028269
vt 0.250000 0.490000
vt 0.250000 0.010000
vt 0.158156 0.471731
vt 0.158156 0.028269
vt 0.080294 0.419706
vt 0.080294 0.080294
vt 0.028269 0.341844
vt 0.028269 0.158156
vt 0.010000 0.250000
vt 0.419706 0.080294
vt 0.490000 0.250000
vn 0.0042 0.0002 -1.0000
vn 0.3827 0.0000 -0.9239
vn 0.0000 0.0000 -1.0000
vn 0.3861 0.0129 -0.9224
vn 0.7071 0.0000 -0.7071
vn 0.7089 0.0232 -0.7050
vn 0.9239 0.0000 -0.3827
vn 0.9240 0.0299 -0.3812
vn 1.0000 0.0000 0.0000
vn 0.9995 0.0323 -0.0000
vn 0.9239 0.0000 0.3827
vn 0.9240 0.0299 0.3812
vn 0.7071 0.0000 0.7071
vn 0.7089 0.0232 0.7050
vn 0.3827 0.0000 0.9239
vn 0.3861 0.0129 0.9224
vn -0.0000 0.0000 1.0000
vn 0.0042 0.0002 1.0000
vn -0.3827 0.0000 0.9239
vn -0.3789 -0.0130 0.9253
vn -0.7071 0.0000 0.7071
vn -0.7046 -0.0248 0.7092
vn -0.9239 0.0000 0.3827
vn -0.9227 -0.0329 0.3841
vn -1.0000 0.0000 -0.0000
vn -0.9994 -0.0358 0.0000
vn -0.9239 0.0000 -0.3827
vn -0.9227 -0.0329 -0.3841
vn -0.7071 0.0000 -0.7071
vn 0.6548 0.1649 -0.7376
vn 0.8920 0.1900 -0.4102
vn -0.7046 -0.0248 -0.7092
vn -0.3827 0.0000 -0.9239
vn -0.3789 -0.0130 -0.9253
vn 0.0000 -1.0000 0.0000
vn -0.7037 -0.0450 0.7090
vn -0.9104 -0.0563 0.4100
vn -0.9217 -0.0607 0.3831
vn -0.0110 0.0252 0.9996
vn -0.9982 -0.0599 -0.0028
vn -0.9223 -0.0424 -0.3842
vn -0.0463 0.0772 -0.9959
vn 0.3234 0.1241 -0.9381
vn 0.6799 0.1200 0.7234
vn -0.4062 0.0307 -0.9133
vn 0.9818 0.1897 -0.0050
vn -0.3827 -0.0151 0.9238
vn -0.7125 -0.0107 -0.7016
vn 0.3593 0.0718 0.9305
vn 0.9030 0.1631 0.3976
vn -0.5831 0.8124 0.0000
vn 0.8676 0.3056 -0.3924
vn 0.9548 0.2971 0.0081
vn -0.9988 -0.0480 0.0077
vn 0.8795 0.2579 0.4000
vn -0.9221 -0.0135 -0.3868
vn 0.6677 0.1982 0.7175
vn -0.7101 0.0394 -0.7030
vn 0.3646 0.1303 0.9220
vn -0.4103 0.1022 -0.9062
vn 0.0137 0.0638 0.9979
vn -0.0619 0.1684 -0.9838
vn 0.3005 0.2311 -0.9253
vn -0.3472 0.0059 0.9378
vn 0.6313 0.2809 -0.7229
vn -0.6744 -0.0366 0.7374
vn -0.1533 0.6902 -0.7072
vn 0.2306 0.5259 -0.8187
vn -0.1004 0.4524 -0.8862
vn 0.1109 0.7489 -0.6534
vn 0.5113 0.5882 -0.6266
vn 0.3349 0.7986 -0.5001
vn 0.6988 0.6298 -0.3391
vn 0.4846 0.8318 -0.2706
vn 0.7646 0.6445 0.0000
vn 0.4846 0.8318 0.2706
vn 0.6988 0.6298 0.3391
vn 0.3349 0.7986 0.5001
vn 0.5113 0.5882 0.6266
vn 0.1109 0.7489 0.6534
vn 0.2306 0.5259 0.8187
vn -0.1533 0.6902 0.7072
vn -0.1004 0.4524 0.8862
vn -0.4175 0.6315 0.6534
vn -0.4315 0.3789 0.8187
vn -0.6414 0.5818 0.5001
vn -0.7122 0.3166 0.6266
vn -0.7911 0.5486 0.2706
vn -0.8997 0.2749 0.3391
vn -0.8436 0.5369 -0.0000
vn -0.9655 0.2603 -0.0000
vn -0.8997 0.2749 -0.3391
vn -0.7911 0.5486 -0.2706
vn -0.7122 0.3166 -0.6266
vn 0.5371 0.8435 0.0000
vn 0.2859 0.9372 0.1997
vn -0.6414 0.5818 -0.5001
vn -0.4315 0.3789 -0.8187
vn -0.4175 0.6315 -0.6534
vn 0.7846 0.5031 -0.3624
vn 0.5842 0.4586 -0.6697
vn 0.2168 -0.9762 0.0000
vn 0.2842 0.3920 0.8750
vn 0.2842 0.3920 -0.8750
vn -0.0696 0.3134 -0.9471
vn -0.9238 0.1238 -0.3624
vn -0.9941 0.1081 0.0000
vn 0.7846 0.5031 0.3624
vn -0.7233 0.1683 0.6697
vn -0.4234 0.2349 -0.8750
vn 0.8550 0.5187 -0.0000
vn -0.0696 0.3134 0.9471
vn -0.7233 0.1683 -0.6697
vn 0.5842 0.4586 0.6697
vn -0.9238 0.1238 0.3624
vn -0.4234 0.2349 0.8750
vn -0.3799 0.7894 -0.4822
vn -0.3813 0.9076 -0.1755
vn -0.3027 0.9251 -0.2293
vn -0.5452 0.7527 0.3691
vn -0.5452 0.7527 -0.3691
vn 0.1754 0.9127 -0.3691
vn 0.2859 0.9372 -0.1997
vn -0.1849 0.8327 0.5220
vn -0.1849 0.8327 -0.5220
vn 0.0101 0.8760 -0.4822
vn -0.6944 0.7195 -0.0000
vn -0.6557 0.7282 -0.1997
vn 0.1754 0.9127 0.3691
vn -0.6557 0.7282 0.1997
vn 0.3247 0.9458 -0.0000
vn -0.3799 0.7894 0.4822
vn 0.0101 0.8760 0.4822
vn -0.0387 0.9837 -0.1755
vn 0.0139 0.9954 0.0950
vn 0.0139 0.9954 -0.0950
vn -0.2100 0.9457 0.2482
vn -0.2100 0.9457 -0.2482
vn -0.1173 0.9663 -0.2293
vn -0.3027 0.9251 0.2293
vn -0.3813 0.9076 0.1755
vn -0.4338 0.8960 0.0950
vn 0.0323 0.9995 0.0000
vn -0.4522 0.8919 -0.0000
vn -0.4338 0.8960 -0.0950
vn -0.0387 0.9837 0.1755
vn -0.1173 0.9663 0.2293
s 1
f 2/1/1 3/2/2 1/3/3
f 4/4/4 5/5/5 3/2/2
f 6/6/6 7/7/7 5/5/5
f 8/8/8 9/9/9 7/7/7
f 10/10/10 11/11/11 9/9/9
f 12/12/12 13/13/13 11/11/11
f 14/14/14 15/15/15 13/13/13
f 16/16/16 17/17/17 15/15/15
f 18/18/18 19/19/19 17/17/17
f 20/20/20 21/21/21 19/19/19
f 22/22/22 23/23/23 21/21/21
f 24/24/24 25/25/25 23/23/23
f 26/26/26 27/27/27 25/25/25
f 28/28/28 29/29/29 27/27/27
f 8/8/8 35/30/30 36/31/31
f 30/32/32 31/33/33 29/29/29
f 32/34/34 1/35/3 31/33/33
f 15/36/35 23/37/35 31/38/35
f 43/39/36 60/40/37 44/41/38
f 16/16/16 41/42/39 18/18/18
f 28/28/28 45/43/40 46/44/41
f 4/4/4 34/45/42 33/46/43
f 12/12/12 39/47/44 14/14/14
f 22/22/22 44/41/38 24/24/24
f 2/48/1 48/49/45 34/50/42
f 10/10/10 36/31/31 37/51/46
f 18/18/18 42/52/47 20/20/20
f 30/32/32 46/44/41 47/53/48
f 6/6/6 33/46/43 35/30/30
f 14/14/14 40/54/49 16/16/16
f 24/24/24 45/43/40 26/26/26
f 10/10/10 38/55/50 12/12/12
f 20/20/20 43/39/36 22/22/22
f 32/34/34 47/53/48 48/49/45
f 51/56/51 54/57/51 52/58/51
f 37/51/46 52/59/52 53/60/53
f 44/41/38 61/61/54 45/43/40
f 37/51/46 54/62/55 38/55/50
f 46/44/41 61/61/54 62/63/56
f 38/55/50 55/64/57 39/47/44
f 47/53/48 62/63/56 63/65/58
f 39/47/44 56/66/59 40/54/49
f 48/49/45 63/65/58 64/67/60
f 40/54/49 57/68/61 41/42/39
f 33/46/43 50/69/62 49/70/63
f 34/50/42 64/67/60 50/71/62
f 41/42/39 58/72/64 42/52/47
f 35/30/30 49/70/63 51/73/65
f 42/52/47 59/74/66 43/39/36
f 36/31/31 51/73/65 52/59/52
f 66/75/67 67/76/68 65/77/69
f 68/78/70 69/79/71 67/76/68
f 70/80/72 71/81/73 69/79/71
f 72/82/74 73/83/75 71/81/73
f 73/83/75 76/84/76 75/85/77
f 75/85/77 78/86/78 77/87/79
f 77/87/79 80/88/80 79/89/81
f 79/89/81 82/90/82 81/91/83
f 81/91/83 84/92/84 83/93/85
f 83/93/85 86/94/86 85/95/87
f 85/95/87 88/96/88 87/97/89
f 87/97/89 90/98/90 89/99/91
f 90/98/90 91/100/92 89/99/91
f 92/101/93 93/102/94 91/100/92
f 74/103/95 118/104/96 76/84/76
f 94/105/97 95/106/98 93/102/94
f 96/107/99 65/108/69 95/106/98
f 69/79/71 100/109/100 99/110/101
f 110/111/102 111/112/102 108/113/102
f 81/91/83 104/114/103 79/89/81
f 65/77/69 98/115/104 97/116/105
f 89/99/91 110/117/106 109/118/107
f 77/87/79 102/119/108 75/85/77
f 87/97/89 107/120/109 85/95/87
f 95/106/98 97/121/105 112/122/110
f 71/81/73 101/123/111 100/109/100
f 83/93/85 105/124/112 81/91/83
f 91/100/92 111/125/113 110/117/106
f 67/76/68 99/110/101 98/115/104
f 79/89/81 103/126/114 77/87/79
f 89/99/91 108/127/115 87/97/89
f 75/85/77 101/123/111 73/83/75
f 85/95/87 106/128/116 83/93/85
f 93/102/94 112/122/110 111/125/113
f 128/129/117 143/130/118 144/131/119
f 84/92/84 123/132/120 86/94/86
f 96/107/99 127/133/121 128/129/117
f 72/82/74 115/134/122 116/135/123
f 80/88/80 121/136/124 82/90/82
f 68/78/70 114/137/125 113/138/126
f 92/101/93 125/139/127 126/140/128
f 76/84/76 119/141/129 78/86/78
f 86/94/86 124/142/130 88/96/88
f 66/143/67 128/129/117 114/144/125
f 74/103/95 116/135/123 117/145/131
f 82/90/82 122/146/132 84/92/84
f 94/105/97 126/140/128 127/133/121
f 70/80/72 113/138/126 115/134/122
f 78/86/78 120/147/133 80/88/80
f 88/96/88 125/139/127 90/98/90
f 131/148/134 134/149/135 132/150/136
f 120/147/133 137/151/137 121/136/124
f 113/138/126 130/152/138 129/153/139
f 114/144/125 144/131/119 130/154/138
f 121/136/124 138/155/140 122/146/132
f 115/134/122 129/153/139 131/156/134
f 122/146/132 139/157/141 123/132/120
f 116/135/123 131/156/134 132/158/136
f 123/132/120 140/159/142 124/142/130
f 117/145/131 132/158/136 133/160/143
f 124/142/130 141/161/144 125/139/127
f 117/145/131 134/162/135 118/104/96
f 126/140/128 141/161/144 142/163/145
f 118/104/96 135/164/146 119/141/129
f 127/133/121 142/163/145 143/130/118
f 119/141/129 136/165/147 120/147/133
f 2/1/1 4/4/4 3/2/2
f 4/4/4 6/6/6 5/5/5
f 6/6/6 8/8/8 7/7/7
f 8/8/8 10/10/10 9/9/9
f 10/10/10 12/12/12 11/11/11
f 12/12/12 14/14/14 13/13/13
f 14/14/14 16/16/16 15/15/15
f 16/16/16 18/18/18 17/17/17
f 18/18/18 20/20/20 19/19/19
f 20/20/20 22/22/22 21/21/21
f 22/22/22 24/24/24 23/23/23
f 24/24/24 26/26/26 25/25/25
f 26/26/26 28/28/28 27/27/27
f 28/28/28 30/32/32 29/29/29
f 8/8/8 6/6/6 35/30/30
f 30/32/32 32/34/34 31/33/33
f 32/34/34 2/48/1 1/35/3
f 31/38/35 1/166/35 3/167/35
f 3/167/35 5/168/35 31/38/35
f 5/168/35 7/169/35 31/38/35
f 7/169/35 9/170/35 11/171/35
f 11/171/35 13/172/35 7/169/35
f 13/172/35 15/36/35 7/169/35
f 15/36/35 17/173/35 19/174/35
f 19/174/35 21/175/35 15/36/35
f 21/175/35 23/37/35 15/36/35
f 23/37/35 25/176/35 27/177/35
f 27/177/35 29/178/35 23/37/35
f 29/178/35 31/38/35 23/37/35
f 31/38/35 7/169/35 15/36/35
f 43/39/36 59/74/66 60/40/37
f 16/16/16 40/54/49 41/42/39
f 28/28/28 26/26/26 45/43/40
f 4/4/4 2/1/1 34/45/42
f 12/12/12 38/55/50 39/47/44
f 22/22/22 43/39/36 44/41/38
f 2/48/1 32/34/34 48/49/45
f 10/10/10 8/8/8 36/31/31
f 18/18/18 41/42/39 42/52/47
f 30/32/32 28/28/28 46/44/41
f 6/6/6 4/4/4 33/46/43
f 14/14/14 39/47/44 40/54/49
f 24/24/24 44/41/38 45/43/40
f 10/10/10 37/51/46 38/55/50
f 20/20/20 42/52/47 43/39/36
f 32/34/34 30/32/32 47/53/48
f 51/56/51 49/179/51 56/180/51
f 49/179/51 50/181/51 57/182/51
f 50/181/51 64/183/51 58/184/51
f 64/183/51 63/185/51 59/186/51
f 63/185/51 62/187/51 60/188/51
f 62/187/51 61/189/51 60/188/51
f 60/188/51 59/186/51 63/185/51
f 59/186/51 58/184/51 64/183/51
f 58/184/51 57/182/51 50/181/51
f 57/182/51 56/180/51 49/179/51
f 56/180/51 55/190/51 51/56/51
f 55/190/51 54/57/51 51/56/51
f 54/57/51 53/191/51 52/58/51
f 37/51/46 36/31/31 52/59/52
f 44/41/38 60/40/37 61/61/54
f 37/51/46 53/60/53 54/62/55
f 46/44/41 45/43/40 61/61/54
f 38/55/50 54/62/55 55/64/57
f 47/53/48 46/44/41 62/63/56
f 39/47/44 55/64/57 56/66/59
f 48/49/45 47/53/48 63/65/58
f 40/54/49 56/66/59 57/68/61
f 33/46/43 34/45/42 50/69/62
f 34/50/42 48/49/45 64/67/60
f 41/42/39 57/68/61 58/72/64
f 35/30/30 33/46/43 49/70/63
f 42/52/47 58/72/64 59/74/66
f 36/31/31 35/30/30 51/73/65
f 66/75/67 68/78/70 67/76/68
f 68/78/70 70/80/72 69/79/71
f 70/80/72 72/82/74 71/81/73
f 72/82/74 74/103/95 73/83/75
f 73/83/75 74/103/95 76/84/76
f 75/85/77 76/84/76 78/86/78
f 77/87/79 78/86/78 80/88/80
f 79/89/81 80/88/80 82/90/82
f 81/91/83 82/90/82 84/92/84
f 83/93/85 84/92/84 86/94/86
f 85/95/87 86/94/86 88/96/88
f 87/97/89 88/96/88 90/98/90
f 90/98/90 92/101/93 91/100/92
f 92/101/93 94/105/97 93/102/94
f 74/103/95 117/145/131 118/104/96
f 94/105/97 96/107/99 95/106/98
f 96/107/99 66/143/67 65/108/69
f 69/79/71 71/81/73 100/109/100
f 112/192/102 97/193/102 105/194/102
f 97/193/102 98/195/102 104/196/102
f 98/195/102 99/197/102 104/196/102
f 99/197/102 100/198/102 103/199/102
f 104/196/102 99/197/102 103/199/102
f 100/198/102 101/200/102 102/201/102
f 102/201/102 103/199/102 100/198/102
f 104/196/102 105/194/102 97/193/102
f 105/194/102 106/202/102 112/192/102
f 106/202/102 107/203/102 112/192/102
f 107/203/102 108/113/102 111/112/102
f 112/192/102 107/203/102 111/112/102
f 108/113/102 109/204/102 110/111/102
f 81/91/83 105/124/112 104/114/103
f 65/77/69 67/76/68 98/115/104
f 89/99/91 91/100/92 110/117/106
f 77/87/79 103/126/114 102/119/108
f 87/97/89 108/127/115 107/120/109
f 95/106/98 65/108/69 97/121/105
f 71/81/73 73/83/75 101/123/111
f 83/93/85 106/128/116 105/124/112
f 91/100/92 93/102/94 111/125/113
f 67/76/68 69/79/71 99/110/101
f 79/89/81 104/114/103 103/126/114
f 89/99/91 109/118/107 108/127/115
f 75/85/77 102/119/108 101/123/111
f 85/95/87 107/120/109 106/128/116
f 93/102/94 95/106/98 112/122/110
f 128/129/117 127/133/121 143/130/118
f 84/92/84 122/146/132 123/132/120
f 96/107/99 94/105/97 127/133/121
f 72/82/74 70/80/72 115/134/122
f 80/88/80 120/147/133 121/136/124
f 68/78/70 66/75/67 114/137/125
f 92/101/93 90/98/90 125/139/127
f 76/84/76 118/104/96 119/141/129
f 86/94/86 123/132/120 124/142/130
f 66/143/67 96/107/99 128/129/117
f 74/103/95 72/82/74 116/135/123
f 82/90/82 121/136/124 122/146/132
f 94/105/97 92/101/93 126/140/128
f 70/80/72 68/78/70 113/138/126
f 78/86/78 119/141/129 120/147/133
f 88/96/88 124/142/130 125/139/127
f 131/148/134 129/205/139 136/206/147
f 129/205/139 130/207/138 137/208/137
f 130/207/138 144/209/119 138/210/140
f 144/209/119 143/211/118 139/212/141
f 143/211/118 142/213/145 140/214/142
f 142/213/145 141/215/144 140/214/142
f 140/214/142 139/212/141 143/211/118
f 139/212/141 138/210/140 144/209/119
f 138/210/140 137/208/137 130/207/138
f 137/208/137 136/206/147 129/205/139
f 136/206/147 135/216/146 131/148/134
f 135/216/146 134/149/135 131/148/134
f 134/149/135 133/217/143 132/150/136
f 120/147/133 136/165/147 137/151/137
f 113/138/126 114/137/125 130/152/138
f 114/144/125 128/129/117 144/131/119
f 121/136/124 137/151/137 138/155/140
f 115/134/122 113/138/126 129/153/139
f 122/146/132 138/155/140 139/157/141
f 116/135/123 115/134/122 131/156/134
f 123/132/120 139/157/141 140/159/142
f 117/145/131 116/135/123 132/158/136
f 124/142/130 140/159/142 141/161/144
f 117/145/131 133/160/143 134/162/135
f 126/140/128 125/139/127 141/161/144
f 118/104/96 134/162/135 135/164/146
f 127/133/121 126/140/128 142/163/145
f 119/141/129 135/164/146 136/165/147
