# Blender v3.4.1 OBJ File: 'decoratives_and_entities.blend'
# www.blender.org
o Ladder_Rails_Cube.074
v -0.069235 -1.000000 0.615218
v -0.069235 1.000000 0.615218
v -0.069235 -1.000000 0.491921
v -0.069235 1.000000 0.491921
v -0.069235 -1.000000 -0.615218
v -0.069235 1.000000 -0.615218
v -0.069235 -1.000000 -0.491921
v -0.069235 1.000000 -0.491921
v 0.022347 -1.000000 0.615218
v 0.069235 -1.000000 0.573468
v 0.055502 -1.000000 0.602989
v 0.069235 1.000000 0.573468
v 0.022347 1.000000 0.615218
v 0.055502 1.000000 0.602989
v 0.069235 -1.000000 0.533671
v 0.022347 -1.000000 0.491921
v 0.055502 -1.000000 0.504149
v 0.022347 1.000000 0.491921
v 0.069235 1.000000 0.533671
v 0.055502 1.000000 0.504149
v 0.069235 -1.000000 -0.573468
v 0.022347 -1.000000 -0.615218
v 0.055502 -1.000000 -0.602989
v 0.022347 1.000000 -0.615218
v 0.069235 1.000000 -0.573468
v 0.055502 1.000000 -0.602989
v 0.022347 -1.000000 -0.491921
v 0.069235 -1.000000 -0.533671
v 0.055502 -1.000000 -0.504149
v 0.069235 1.000000 -0.533671
v 0.022347 1.000000 -0.491921
v 0.055502 1.000000 -0.504149
vt 0.375000 0.915346
vt 0.625000 0.750000
vt 0.375000 0.750000
vt 0.209654 0.500000
vt 0.209654 0.750000
vt 0.125000 0.665346
vt 0.625000 0.500000
vt 0.375000 0.500000
vt 0.875000 0.584654
vt 0.850205 0.524795
vt 0.790346 0.500000
vt 0.375000 0.165346
vt 0.625000 0.084654
vt 0.375000 0.084654
vt 0.625000 0.334654
vt 0.375000 0.334654
vt 0.625000 0.750000
vt 0.375000 0.915346
vt 0.375000 0.750000
vt 0.625000 0.500000
vt 0.375000 0.500000
vt 0.875000 0.584654
vt 0.790346 0.750000
vt 0.790346 0.500000
vt 0.625000 0.084654
vt 0.375000 0.165346
vt 0.375000 0.084654
vt 0.625000 0.334654
vt 0.375000 0.334654
vt 0.375000 1.000000
vt 0.625000 0.915346
vt 0.625000 0.000000
vt 0.375000 0.000000
vt 0.625000 0.250000
vt 0.625000 0.165346
vt 0.375000 0.250000
vt 0.375000 0.000000
vt 0.625000 1.000000
vt 0.375000 1.000000
vt 0.625000 0.250000
vt 0.625000 0.165346
vt 0.375000 0.250000
vt 0.209654 0.750000
vt 0.209654 0.500000
vt 0.125000 0.665346
vt 0.149795 0.524795
vt 0.125000 0.584654
vt 0.149795 0.725205
vt 0.790346 0.750000
vt 0.850205 0.725205
vt 0.875000 0.665346
vt 0.625000 0.915346
vt 0.850205 0.524795
vt 0.875000 0.665346
vt 0.850206 0.725206
vt 0.625000 1.000000
vt 0.625000 0.000000
vt 0.149795 0.524795
vt 0.125000 0.584654
vt 0.149795 0.725205
vn 0.1758 0.0000 0.9844
vn 0.0000 0.0000 1.0000
vn 0.0000 -1.0000 0.0000
vn -1.0000 0.0000 0.0000
vn 0.0000 1.0000 0.0000
vn 0.9764 0.0000 -0.2160
vn 0.9764 0.0000 0.2160
vn 0.0000 0.0000 -1.0000
vn 0.1758 0.0000 -0.9844
vn 0.3460 0.0000 0.9382
vn 0.9067 0.0000 0.4218
vn 0.3460 0.0000 -0.9382
vn 0.9067 0.0000 -0.4218
s 1
f 9/1/1 2/2/2 1/3/2
f 27/4/3 22/5/3 21/6/3
f 1/3/4 4/7/4 3/8/4
f 19/9/5 20/10/5 18/11/5
f 15/12/6 12/13/7 10/14/7
f 3/8/8 18/15/9 16/16/9
f 6/17/8 22/18/9 5/19/8
f 8/20/4 5/19/4 7/21/4
f 30/22/5 24/23/5 31/24/5
f 25/25/6 28/26/7 21/27/6
f 31/28/1 7/21/2 27/29/1
f 11/30/10 13/31/1 9/1/1
f 10/14/7 14/32/11 11/33/11
f 20/34/12 16/16/9 18/15/9
f 19/35/6 17/36/13 20/34/13
f 23/37/13 25/25/6 21/27/6
f 22/18/9 26/38/12 23/39/12
f 32/40/11 28/26/7 30/41/7
f 31/28/1 29/42/10 32/40/10
f 9/43/3 16/44/3 10/45/3
f 9/1/1 13/31/1 2/2/2
f 29/46/3 27/4/3 28/47/3
f 27/4/3 7/21/3 22/5/3
f 7/21/3 5/19/3 22/5/3
f 22/5/3 23/48/3 21/6/3
f 21/6/3 28/47/3 27/4/3
f 1/3/4 2/2/4 4/7/4
f 18/11/5 4/7/5 2/2/5
f 2/2/5 13/49/5 18/11/5
f 13/49/5 14/50/5 12/51/5
f 18/11/5 13/49/5 19/9/5
f 12/51/5 19/9/5 13/49/5
f 15/12/6 19/35/6 12/13/7
f 3/8/8 4/7/8 18/15/9
f 6/17/8 24/52/9 22/18/9
f 8/20/4 6/17/4 5/19/4
f 6/17/5 8/20/5 31/24/5
f 31/24/5 32/53/5 30/22/5
f 30/22/5 25/54/5 24/23/5
f 25/54/5 26/55/5 24/23/5
f 24/23/5 6/17/5 31/24/5
f 25/25/6 30/41/7 28/26/7
f 31/28/1 8/20/2 7/21/2
f 11/30/10 14/56/10 13/31/1
f 10/14/7 12/13/7 14/32/11
f 20/34/12 17/36/12 16/16/9
f 19/35/6 15/12/6 17/36/13
f 23/37/13 26/57/13 25/25/6
f 22/18/9 24/52/9 26/38/12
f 32/40/11 29/42/11 28/26/7
f 31/28/1 27/29/1 29/42/10
f 17/58/3 15/59/3 16/44/3
f 15/59/3 10/45/3 16/44/3
f 10/45/3 11/60/3 9/43/3
f 9/43/3 1/3/3 3/8/3
f 3/8/3 16/44/3 9/43/3
