# Blender v3.4.1 OBJ File: 'decoratives_and_entities.blend'
# www.blender.org
o Ladder_Rungs.001_Cube.081
v -0.010419 0.035936 0.548514
v -0.040359 0.009277 0.548514
v -0.025389 0.032365 0.548514
v -0.036348 0.022607 0.548514
v -0.040359 0.009277 -0.548514
v -0.010419 0.035936 -0.548514
v -0.036348 0.022607 -0.548514
v -0.025389 0.032365 -0.548514
v -0.040359 -0.009277 0.548514
v -0.010419 -0.035936 0.548514
v -0.036348 -0.022607 0.548514
v -0.025389 -0.032365 0.548514
v -0.010419 -0.035936 -0.548514
v -0.040359 -0.009277 -0.548514
v -0.025389 -0.032365 -0.548514
v -0.036348 -0.022607 -0.548514
v 0.040359 0.009277 0.548514
v 0.010419 0.035936 0.548514
v 0.036348 0.022607 0.548514
v 0.025389 0.032365 0.548514
v 0.010419 0.035936 -0.548514
v 0.040359 0.009277 -0.548514
v 0.025389 0.032365 -0.548514
v 0.036348 0.022607 -0.548514
v 0.010419 -0.035936 0.548514
v 0.040359 -0.009277 0.548514
v 0.025389 -0.032365 0.548514
v 0.036348 -0.022607 0.548514
v 0.040359 -0.009277 -0.548514
v 0.010419 -0.035936 -0.548514
v 0.036348 -0.022607 -0.548514
v 0.025389 -0.032365 -0.548514
vt 0.625000 0.842731
vt 0.375000 0.907269
vt 0.375000 0.842731
vt 0.625000 0.592731
vt 0.375000 0.657269
vt 0.375000 0.592731
vt 0.875000 0.592731
vt 0.782269 0.750000
vt 0.625000 0.657269
vt 0.625000 0.092731
vt 0.375000 0.157269
vt 0.375000 0.092731
vt 0.625000 0.342731
vt 0.375000 0.407269
vt 0.375000 0.342731
vt 0.625000 0.907269
vt 0.375000 1.000000
vt 0.625000 0.000000
vt 0.375000 0.046365
vt 0.375000 0.000000
vt 0.625000 0.046365
vt 0.625000 0.296365
vt 0.375000 0.296365
vt 0.625000 0.203635
vt 0.375000 0.203635
vt 0.625000 0.157269
vt 0.625000 0.546365
vt 0.375000 0.546365
vt 0.625000 0.453635
vt 0.375000 0.453635
vt 0.625000 0.407269
vt 0.625000 0.796365
vt 0.375000 0.796365
vt 0.625000 0.703635
vt 0.375000 0.703635
vt 0.282269 0.750000
vt 0.125000 0.657269
vt 0.717731 0.500000
vt 0.637424 0.546365
vt 0.671365 0.512424
vt 0.782269 0.500000
vt 0.828635 0.512424
vt 0.862577 0.546365
vt 0.875000 0.657269
vt 0.862576 0.703635
vt 0.828635 0.737576
vt 0.717731 0.750000
vt 0.671365 0.737576
vt 0.637424 0.703635
vt 0.625000 1.000000
vt 0.125000 0.592731
vt 0.217731 0.500000
vt 0.137424 0.546365
vt 0.171365 0.512424
vt 0.282269 0.500000
vt 0.328635 0.512424
vt 0.362576 0.546365
vt 0.362576 0.703635
vt 0.328635 0.737576
vt 0.217731 0.750000
vt 0.171365 0.737576
vt 0.137424 0.703635
vn 0.1168 0.9932 -0.0000
vn -0.1168 0.9932 -0.0000
vn 0.9893 -0.1456 0.0000
vn 0.9893 0.1456 -0.0000
vn -0.0000 0.0000 -1.0000
vn -0.9893 0.1456 -0.0000
vn -0.9893 -0.1456 0.0000
vn -0.1168 -0.9932 0.0000
vn 0.1168 -0.9932 0.0000
vn -0.4625 0.8866 -0.0000
vn -0.8431 0.5378 -0.0000
vn -0.4625 -0.8866 0.0000
vn -0.8431 -0.5378 0.0000
vn 0.8431 -0.5378 0.0000
vn 0.4625 -0.8866 0.0000
vn 0.4625 0.8866 -0.0000
vn 0.8431 0.5378 -0.0000
vn 0.0000 0.0000 1.0000
s 1
f 21/1/1 1/2/2 18/3/1
f 29/4/3 17/5/4 26/6/3
f 14/7/5 6/8/5 22/9/5
f 5/10/6 9/11/7 2/12/6
f 13/13/8 25/14/9 10/15/8
f 6/16/2 3/17/10 1/2/2
f 8/18/10 4/19/11 3/20/10
f 7/21/11 2/12/6 4/19/11
f 10/15/8 15/22/12 13/13/8
f 12/23/12 16/24/13 15/22/12
f 11/25/13 14/26/7 16/24/13
f 26/6/3 31/27/14 29/4/3
f 28/28/14 32/29/15 31/27/14
f 27/30/15 30/31/9 32/29/15
f 18/3/1 23/32/16 21/1/1
f 20/33/16 24/34/17 23/32/16
f 19/35/17 22/9/4 24/34/17
f 26/6/18 18/36/18 2/37/18
f 21/1/1 6/16/2 1/2/2
f 29/4/3 22/9/4 17/5/4
f 22/9/5 29/4/5 30/38/5
f 29/4/5 31/39/5 30/38/5
f 31/39/5 32/40/5 30/38/5
f 30/38/5 13/41/5 14/7/5
f 13/41/5 15/42/5 14/7/5
f 15/42/5 16/43/5 14/7/5
f 14/7/5 5/44/5 6/8/5
f 5/44/5 7/45/5 6/8/5
f 7/45/5 8/46/5 6/8/5
f 6/8/5 21/47/5 22/9/5
f 21/47/5 23/48/5 22/9/5
f 23/48/5 24/49/5 22/9/5
f 22/9/5 30/38/5 14/7/5
f 5/10/6 14/26/7 9/11/7
f 13/13/8 30/31/9 25/14/9
f 6/16/2 8/50/10 3/17/10
f 8/18/10 7/21/11 4/19/11
f 7/21/11 5/10/6 2/12/6
f 10/15/8 12/23/12 15/22/12
f 12/23/12 11/25/13 16/24/13
f 11/25/13 9/11/7 14/26/7
f 26/6/3 28/28/14 31/27/14
f 28/28/14 27/30/15 32/29/15
f 27/30/15 25/14/9 30/31/9
f 18/3/1 20/33/16 23/32/16
f 20/33/16 19/35/17 24/34/17
f 19/35/17 17/5/4 22/9/4
f 2/37/18 9/51/18 10/52/18
f 9/51/18 11/53/18 10/52/18
f 11/53/18 12/54/18 10/52/18
f 10/52/18 25/55/18 26/6/18
f 25/55/18 27/56/18 26/6/18
f 27/56/18 28/57/18 26/6/18
f 26/6/18 17/5/18 18/36/18
f 17/5/18 19/58/18 18/36/18
f 19/58/18 20/59/18 18/36/18
f 18/36/18 1/60/18 2/37/18
f 1/60/18 3/61/18 2/37/18
f 3/61/18 4/62/18 2/37/18
f 2/37/18 10/52/18 26/6/18
