# Blender v3.4.1 OBJ File: 'decoratives_and_entities.blend'
# www.blender.org
o Oak_Trunk_Cylinder
v -0.000000 -1.233469 -0.392434
v 0.000000 -0.640268 -0.296601
v 0.230667 -1.233469 -0.317486
v 0.174338 -0.640268 -0.239955
v 0.373227 -1.233469 -0.121269
v 0.282084 -0.640268 -0.091655
v 0.373227 -1.233469 0.121269
v 0.282084 -0.640268 0.091655
v 0.230667 -1.233469 0.317486
v 0.174338 -0.640268 0.239955
v -0.000000 -1.233469 0.392434
v 0.000000 -0.640268 0.296601
v -0.230667 -1.233469 0.317486
v -0.174338 -0.640268 0.239955
v -0.373227 -1.233469 0.121269
v -0.282084 -0.640268 0.091655
v -0.373227 -1.233469 -0.121269
v -0.282084 -0.640268 -0.091655
v -0.230667 -1.233469 -0.317486
v -0.174338 -0.640268 -0.239955
v 0.138988 -0.155694 -0.239955
v -0.035349 -0.155694 -0.296601
v 0.246735 -0.155694 -0.091655
v 0.246735 -0.155694 0.091655
v 0.138988 -0.155694 0.239955
v -0.035349 -0.155694 0.296601
v -0.209687 -0.155694 0.239955
v -0.317433 -0.155694 0.091655
v -0.317433 -0.155694 -0.091655
v -0.209687 -0.155694 -0.239955
v 0.153152 0.296694 -0.234354
v -0.017116 0.296694 -0.289678
v 0.258384 0.296694 -0.089515
v 0.258384 0.296694 0.089515
v 0.153152 0.296694 0.234354
v -0.017116 0.296694 0.289678
v -0.187385 0.296694 0.234354
v -0.292616 0.296694 0.089515
v -0.292616 0.296694 -0.089515
v -0.187385 0.296694 -0.234354
v 0.128373 0.723555 -0.200248
v -0.017116 0.723555 -0.247520
v 0.218290 0.723555 -0.076488
v 0.218290 0.723555 0.076488
v 0.128373 0.723555 0.200248
v -0.017116 0.723555 0.247520
v -0.162605 0.723555 0.200248
v -0.252522 0.723555 0.076488
v -0.252522 0.723555 -0.076488
v -0.162605 0.723555 -0.200248
v 0.107646 1.146404 -0.212169
v -0.017116 1.146404 -0.252707
v 0.184754 1.146404 -0.106040
v 0.184754 1.146404 0.025143
v 0.107646 1.146404 0.131273
v -0.017116 1.146404 0.171810
v -0.141879 1.146404 0.131273
v -0.218986 1.146404 0.025143
v -0.218986 1.146404 -0.106040
v -0.141879 1.146404 -0.212169
v 0.099736 1.477253 -0.201281
v -0.017116 1.477253 -0.239249
v 0.171954 1.553892 -0.101881
v 0.171954 1.553892 0.020984
v 0.099736 1.553892 0.120385
v -0.017116 1.553892 0.158352
v -0.133968 1.553892 0.120385
v -0.206187 1.553892 0.020984
v -0.206187 1.553892 -0.101881
v -0.133968 1.477253 -0.201281
v 0.063954 1.621535 -0.152032
v -0.017116 1.621535 -0.178373
v 0.114058 1.698173 -0.083069
v 0.114058 1.698173 0.002173
v 0.063954 1.698173 0.071135
v -0.017116 1.698173 0.097476
v -0.098186 1.698173 0.071135
v -0.148290 1.698173 0.002173
v -0.148290 1.698173 -0.083069
v -0.098186 1.621535 -0.152032
vt 1.000000 1.000000
vt 0.900000 0.500000
vt 1.000000 0.500000
vt 0.800000 1.000000
vt 0.800000 0.500000
vt 0.700000 1.000000
vt 0.700000 0.500000
vt 0.600000 1.000000
vt 0.600000 0.500000
vt 0.500000 0.500000
vt 0.500000 1.000000
vt 0.400000 0.500000
vt 0.300000 1.000000
vt 0.300000 0.500000
vt 0.200000 1.000000
vt 0.200000 0.500000
vt 0.900000 1.000000
vt 0.800000 1.000000
vt 0.100000 1.000000
vt 0.100000 0.500000
vt -0.000000 0.500000
vt 0.978254 0.175836
vt 0.750000 0.010000
vt 0.521746 0.175836
vt -0.000000 1.000000
vt 0.100000 1.000000
vt -0.000000 1.000000
vt -0.000000 1.000000
vt 0.100000 1.000000
vt 0.200000 1.000000
vt 0.400000 1.000000
vt 0.300000 1.000000
vt 0.400000 1.000000
vt 0.500000 1.000000
vt 0.600000 1.000000
vt 0.700000 1.000000
vt 0.900000 1.000000
vt 0.400000 1.000000
vt 0.300000 1.000000
vt 0.300000 1.000000
vt 0.600000 1.000000
vt 1.000000 1.000000
vt 0.900000 1.000000
vt 0.200000 1.000000
vt 0.500000 1.000000
vt 0.800000 1.000000
vt 0.700000 1.000000
vt 0.700000 1.000000
vt 0.600000 1.000000
vt 0.600000 1.000000
vt 1.000000 1.000000
vt 0.900000 1.000000
vt 0.200000 1.000000
vt 0.500000 1.000000
vt 0.800000 1.000000
vt 0.100000 1.000000
vt 0.400000 1.000000
vt -0.000000 1.000000
vt 0.400000 1.000000
vt 0.300000 1.000000
vt 0.300000 1.000000
vt 0.900000 1.000000
vt 0.200000 1.000000
vt 0.500000 1.000000
vt 0.800000 1.000000
vt 0.100000 1.000000
vt 0.700000 1.000000
vt -0.000000 1.000000
vt 0.700000 1.000000
vt 0.600000 1.000000
vt 0.600000 1.000000
vt 1.000000 1.000000
vt 0.900000 1.000000
vt 0.200000 1.000000
vt 0.500000 1.000000
vt 0.800000 1.000000
vt 0.100000 1.000000
vt 0.400000 1.000000
vt -0.000000 1.000000
vt 0.478254 0.324164
vt 0.250000 0.490000
vt 0.021746 0.324164
vt 1.000000 1.000000
vt 0.900000 1.000000
vt 0.200000 1.000000
vt 0.500000 1.000000
vt 0.800000 1.000000
vt 0.100000 1.000000
vt 0.400000 1.000000
vt 0.700000 1.000000
vt -0.000000 1.000000
vt 0.300000 1.000000
vt 0.608932 0.444164
vt 0.750000 0.490000
vt 0.891068 0.444164
vt 0.978254 0.324164
vt 0.891068 0.055836
vt 0.608932 0.055836
vt 0.521746 0.324164
vt 1.000000 1.000000
vt 0.391068 0.444164
vt 0.108932 0.444164
vt 0.021746 0.175836
vt 0.108932 0.055836
vt 0.250000 0.010000
vt 0.391068 0.055836
vt 0.478254 0.175836
vt 1.000000 1.000000
vn 0.3054 0.1519 -0.9400
vn 0.7996 0.1519 -0.5810
vn 0.9884 0.1519 0.0000
vn 0.7996 0.1519 0.5810
vn 0.3054 0.1519 0.9400
vn -0.3054 0.1519 0.9400
vn -0.7996 0.1519 0.5810
vn -0.9884 0.1519 0.0000
vn 0.8076 0.0589 -0.5868
vn -0.7996 0.1519 -0.5810
vn -0.3054 0.1519 -0.9400
vn 0.0000 -1.0000 0.0000
vn -0.3089 0.0270 -0.9507
vn -0.3089 -0.0225 -0.9508
vn -0.8076 -0.0589 -0.5868
vn -0.9973 -0.0728 0.0000
vn -0.8076 -0.0589 0.5868
vn -0.3089 -0.0225 0.9508
vn 0.3089 0.0225 0.9508
vn 0.8076 0.0589 0.5868
vn 0.3089 0.0225 -0.9508
vn 0.9973 0.0728 0.0000
vn -0.8055 0.0935 0.5852
vn -0.8081 0.0471 0.5871
vn 0.8089 -0.0180 0.5877
vn 0.3090 0.0021 -0.9511
vn -0.9985 0.0548 0.0000
vn 0.3090 0.0021 0.9511
vn 0.8089 -0.0180 -0.5877
vn -0.8081 0.0471 -0.5871
vn -0.3089 0.0270 0.9507
vn 0.9997 -0.0257 0.0000
vn 0.8017 0.1343 0.5825
vn 0.8055 0.0935 0.5852
vn 0.3077 0.0935 -0.9469
vn -0.9956 0.0935 0.0000
vn 0.3077 0.0935 0.9469
vn 0.8055 0.0935 -0.5852
vn -0.8055 0.0935 -0.5852
vn -0.3077 0.0935 0.9469
vn 0.9956 0.0935 0.0000
vn -0.3077 0.0935 -0.9469
vn -0.8086 0.0314 0.5875
vn 0.3090 -0.0117 -0.9510
vn -0.9969 0.0791 0.0000
vn 0.3046 0.1679 0.9376
vn 0.8088 0.0231 -0.5876
vn -0.8088 0.0231 -0.5876
vn -0.3046 0.1679 0.9376
vn 0.9969 0.0791 0.0000
vn -0.3090 -0.0117 -0.9510
vn -0.8017 0.1343 0.5825
vn 0.7508 0.3724 0.5455
vn 0.8086 0.0314 0.5875
vn 0.3088 0.0387 -0.9503
vn -0.9995 0.0314 0.0000
vn 0.3089 0.0314 0.9506
vn 0.7970 0.0312 -0.6031
vn -0.8084 0.0387 -0.5873
vn -0.3089 0.0314 0.9506
vn 0.9995 0.0314 0.0000
vn -0.3088 0.0387 -0.9503
vn 0.0000 0.7793 -0.6267
vn 0.2868 0.3724 -0.8826
vn -0.9281 0.3724 0.0000
vn 0.2868 0.3724 0.8826
vn 0.5576 0.3234 -0.7645
vn -0.5769 0.3884 -0.7186
vn -0.2868 0.3724 0.8826
vn 0.9281 0.3724 0.0000
vn -0.2868 0.3724 -0.8826
vn -0.7508 0.3724 0.5455
vn 0.8084 0.0387 -0.5873
vn -0.7970 0.0312 -0.6031
vn 0.2586 0.5472 -0.7960
vn -0.2586 0.5472 -0.7960
vn 0.0000 1.0000 0.0000
vn 0.5769 0.3884 -0.7186
vn -0.5576 0.3234 -0.7645
s off
f 2/1/1 3/2/1 1/3/1
f 3/2/2 6/4/2 5/5/2
f 5/5/3 8/6/3 7/7/3
f 7/7/4 10/8/4 9/9/4
f 10/8/5 11/10/5 9/9/5
f 12/11/6 13/12/6 11/10/6
f 13/12/7 16/13/7 15/14/7
f 15/14/8 18/15/8 17/16/8
f 4/17/9 23/18/9 6/4/9
f 17/16/10 20/19/10 19/20/10
f 20/19/11 1/21/11 19/20/11
f 7/22/12 11/23/12 15/24/12
f 22/25/13 40/26/13 32/27/13
f 20/19/14 22/25/14 2/28/14
f 18/15/15 30/29/15 20/19/15
f 16/13/16 29/30/16 18/15/16
f 16/13/17 27/31/17 28/32/17
f 14/33/18 26/34/18 27/31/18
f 12/11/19 25/35/19 26/34/19
f 10/8/20 24/36/20 25/35/20
f 2/1/21 21/37/21 4/17/21
f 6/4/22 24/36/22 8/6/22
f 37/38/23 48/39/23 38/40/23
f 27/31/24 38/40/24 28/32/24
f 24/36/25 35/41/25 25/35/25
f 21/37/26 32/42/26 31/43/26
f 28/32/27 39/44/27 29/30/27
f 25/35/28 36/45/28 26/34/28
f 23/18/29 31/43/29 33/46/29
f 30/29/30 39/44/30 40/26/30
f 26/34/31 37/38/31 27/31/31
f 23/18/32 34/47/32 24/36/32
f 44/48/33 55/49/33 45/50/33
f 34/47/34 45/50/34 35/41/34
f 31/43/35 42/51/35 41/52/35
f 38/40/36 49/53/36 39/44/36
f 35/41/37 46/54/37 36/45/37
f 33/46/38 41/52/38 43/55/38
f 39/44/39 50/56/39 40/26/39
f 36/45/40 47/57/40 37/38/40
f 33/46/41 44/48/41 34/47/41
f 40/26/42 42/58/42 32/27/42
f 57/59/43 68/60/43 58/61/43
f 42/51/44 51/62/44 41/52/44
f 49/53/45 58/61/45 59/63/45
f 45/50/46 56/64/46 46/54/46
f 41/52/47 53/65/47 43/55/47
f 50/56/48 59/63/48 60/66/48
f 47/57/49 56/64/49 57/59/49
f 43/55/50 54/67/50 44/48/50
f 42/58/51 60/66/51 52/68/51
f 48/39/52 57/59/52 58/61/52
f 64/69/53 75/70/53 65/71/53
f 54/67/54 65/71/54 55/49/54
f 52/72/55 61/73/55 51/62/55
f 58/61/56 69/74/56 59/63/56
f 55/49/57 66/75/57 56/64/57
f 53/65/58 61/73/58 63/76/58
f 59/63/59 70/77/59 60/66/59
f 56/64/60 67/78/60 57/59/60
f 53/65/61 64/69/61 54/67/61
f 52/68/62 70/77/62 62/79/62
f 73/80/63 72/81/63 79/82/63
f 62/83/64 71/84/64 61/73/64
f 68/60/65 79/85/65 69/74/65
f 66/75/66 75/70/66 76/86/66
f 63/76/67 71/84/67 73/87/67
f 69/74/68 80/88/68 70/77/68
f 66/75/69 77/89/69 67/78/69
f 63/76/70 74/90/70 64/69/70
f 70/77/71 72/91/71 62/79/71
f 67/78/72 78/92/72 68/60/72
f 2/1/1 4/17/1 3/2/1
f 3/2/2 4/17/2 6/4/2
f 5/5/3 6/4/3 8/6/3
f 7/7/4 8/6/4 10/8/4
f 10/8/5 12/11/5 11/10/5
f 12/11/6 14/33/6 13/12/6
f 13/12/7 14/33/7 16/13/7
f 15/14/8 16/13/8 18/15/8
f 4/17/9 21/37/9 23/18/9
f 17/16/10 18/15/10 20/19/10
f 20/19/11 2/28/11 1/21/11
f 19/93/12 1/94/12 3/95/12
f 3/95/12 5/96/12 19/93/12
f 5/96/12 7/22/12 19/93/12
f 7/22/12 9/97/12 11/23/12
f 11/23/12 13/98/12 15/24/12
f 15/24/12 17/99/12 7/22/12
f 17/99/12 19/93/12 7/22/12
f 22/25/13 30/29/13 40/26/13
f 20/19/14 30/29/14 22/25/14
f 18/15/15 29/30/15 30/29/15
f 16/13/16 28/32/16 29/30/16
f 16/13/17 14/33/17 27/31/17
f 14/33/18 12/11/18 26/34/18
f 12/11/19 10/8/19 25/35/19
f 10/8/20 8/6/20 24/36/20
f 2/1/21 22/100/21 21/37/21
f 6/4/22 23/18/22 24/36/22
f 37/38/23 47/57/23 48/39/23
f 27/31/24 37/38/24 38/40/24
f 24/36/25 34/47/25 35/41/25
f 21/37/26 22/100/26 32/42/26
f 28/32/27 38/40/27 39/44/27
f 25/35/28 35/41/28 36/45/28
f 23/18/29 21/37/29 31/43/29
f 30/29/30 29/30/30 39/44/30
f 26/34/31 36/45/31 37/38/31
f 23/18/32 33/46/32 34/47/32
f 44/48/33 54/67/33 55/49/33
f 34/47/34 44/48/34 45/50/34
f 31/43/35 32/42/35 42/51/35
f 38/40/36 48/39/36 49/53/36
f 35/41/37 45/50/37 46/54/37
f 33/46/38 31/43/38 41/52/38
f 39/44/39 49/53/39 50/56/39
f 36/45/40 46/54/40 47/57/40
f 33/46/41 43/55/41 44/48/41
f 40/26/42 50/56/42 42/58/42
f 57/59/43 67/78/43 68/60/43
f 42/51/44 52/72/44 51/62/44
f 49/53/45 48/39/45 58/61/45
f 45/50/46 55/49/46 56/64/46
f 41/52/47 51/62/47 53/65/47
f 50/56/48 49/53/48 59/63/48
f 47/57/49 46/54/49 56/64/49
f 43/55/50 53/65/50 54/67/50
f 42/58/51 50/56/51 60/66/51
f 48/39/52 47/57/52 57/59/52
f 64/69/53 74/90/53 75/70/53
f 54/67/54 64/69/54 65/71/54
f 52/72/55 62/83/55 61/73/55
f 58/61/56 68/60/56 69/74/56
f 55/49/57 65/71/57 66/75/57
f 53/65/73 51/62/73 61/73/73
f 59/63/74 69/74/74 70/77/74
f 56/64/60 66/75/60 67/78/60
f 53/65/61 63/76/61 64/69/61
f 52/68/62 60/66/62 70/77/62
f 73/80/75 71/101/75 72/81/75
f 72/81/76 80/102/76 79/82/76
f 79/82/77 78/103/77 77/104/77
f 77/104/77 76/105/77 79/82/77
f 76/105/77 75/106/77 73/80/77
f 79/82/77 76/105/77 73/80/77
f 75/106/77 74/107/77 73/80/77
f 62/83/64 72/108/64 71/84/64
f 68/60/65 78/92/65 79/85/65
f 66/75/66 65/71/66 75/70/66
f 63/76/78 61/73/78 71/84/78
f 69/74/79 79/85/79 80/88/79
f 66/75/69 76/86/69 77/89/69
f 63/76/70 73/87/70 74/90/70
f 70/77/71 80/88/71 72/91/71
f 67/78/72 77/89/72 78/92/72
