# Blender v3.4.1 OBJ File: 'station.blend'
# www.blender.org
o Beam_1_lod_3_Cube.270
v -0.103197 -0.103936 1.002442
v -0.103936 0.103662 1.002316
v 0.103427 -0.103312 1.002485
v 0.103936 0.103816 1.002442
v -0.130418 -0.129747 0.312929
v -0.130417 0.130687 0.312929
v -0.130418 -0.129747 0.076483
v -0.130417 0.130687 0.076483
v 0.129294 -0.130417 0.423327
v 0.130418 0.130048 0.425270
v 0.130417 -0.130371 0.076483
v 0.130827 0.130417 0.076483
v 0.130418 -0.129868 0.670210
v 0.130417 0.129486 0.670210
v 0.130418 -0.129869 0.906655
v 0.130417 0.129486 0.906655
v -0.130417 -0.130236 0.557869
v -0.130418 0.130671 0.557869
v -0.130417 -0.130237 0.906655
v -0.130418 0.130671 0.906655
v -0.103197 -0.103936 -1.000714
v -0.103833 0.103936 -1.000714
v 0.103427 -0.103312 -1.000672
v 0.103936 0.103816 -1.000714
v -0.130900 -0.130417 -0.698422
v -0.131510 0.130417 -0.698422
v -0.130900 -0.130417 -0.936811
v -0.130417 0.130808 -0.936811
v 0.130395 -0.130417 -0.589967
v 0.130002 0.130417 -0.589967
v 0.130395 -0.130417 -0.936811
v 0.130002 0.130417 -0.936811
v 0.129910 -0.130417 -0.345027
v 0.129820 0.130418 -0.345027
v 0.129910 -0.130418 -0.106639
v 0.129820 0.130417 -0.106639
v -0.130417 -0.129734 -0.455425
v -0.130156 0.130418 -0.453482
v -0.129552 -0.130418 -0.106639
v -0.130418 0.131281 -0.106639
vt 0.395954 0.750000
vt 0.604046 1.000000
vt 0.375000 0.979046
vt 0.379324 0.750000
vt 0.620676 1.000000
vt 0.375000 0.995676
vt 0.620676 0.500000
vt 0.379324 0.500000
vt 0.370676 0.500000
vt 0.129324 0.750000
vt 0.129324 0.500000
vt 0.629324 0.500000
vt 0.870676 0.750000
vt 0.629324 0.750000
vt 0.620676 0.000000
vt 0.379324 0.250000
vt 0.379324 0.000000
vt 0.375000 0.495676
vt 0.379324 0.750000
vt 0.620676 1.000000
vt 0.375000 0.995676
vt 0.620676 0.500000
vt 0.379324 0.500000
vt 0.629324 0.500000
vt 0.870676 0.750000
vt 0.629324 0.750000
vt 0.620676 0.000000
vt 0.379324 0.250000
vt 0.379324 0.000000
vt 0.625000 0.254324
vt 0.375000 0.495676
vt 0.370676 0.500000
vt 0.129324 0.750000
vt 0.129324 0.500000
vt 0.395954 0.500000
vt 0.604046 0.750000
vt 0.645954 0.500000
vt 0.854046 0.750000
vt 0.645954 0.750000
vt 0.604046 0.000000
vt 0.395954 0.250000
vt 0.395954 0.000000
vt 0.625000 0.270954
vt 0.375000 0.479046
vt 0.354046 0.500000
vt 0.145954 0.750000
vt 0.145954 0.500000
vt 0.625000 0.754324
vt 0.375000 0.995676
vt 0.379324 0.750000
vt 0.620676 0.500000
vt 0.379324 0.500000
vt 0.370676 0.500000
vt 0.129324 0.750000
vt 0.129324 0.500000
vt 0.629324 0.500000
vt 0.870676 0.750000
vt 0.629324 0.750000
vt 0.620676 0.000000
vt 0.379324 0.250000
vt 0.379324 0.000000
vt 0.375000 0.495676
vt 0.625000 0.754324
vt 0.375000 0.995676
vt 0.379324 0.750000
vt 0.379324 0.500000
vt 0.620676 0.750000
vt 0.629324 0.500000
vt 0.870676 0.750000
vt 0.629324 0.750000
vt 0.379324 0.000000
vt 0.620676 0.250000
vt 0.379324 0.250000
vt 0.625000 0.254324
vt 0.375000 0.495676
vt 0.370676 0.500000
vt 0.129324 0.750000
vt 0.129324 0.500000
vt 0.625000 0.770954
vt 0.625000 0.754324
vt 0.620676 0.750000
vt 0.370676 0.750000
vt 0.870676 0.500000
vt 0.620676 0.250000
vt 0.625000 0.254324
vt 0.625000 0.754324
vt 0.620676 0.750000
vt 0.870676 0.500000
vt 0.620676 0.250000
vt 0.370676 0.750000
vt 0.604046 0.500000
vt 0.854046 0.500000
vt 0.604046 0.250000
vt 0.354046 0.750000
vt 0.620676 1.000000
vt 0.620676 0.750000
vt 0.370676 0.750000
vt 0.870676 0.500000
vt 0.620676 0.250000
vt 0.625000 0.254324
vt 0.620676 1.000000
vt 0.620676 0.500000
vt 0.870676 0.500000
vt 0.620676 0.000000
vt 0.370676 0.750000
vn -0.0002 0.0006 1.0000
vn -0.3912 0.0000 0.9203
vn 1.0000 -0.0016 0.0032
vn 0.0014 -1.0000 -0.0000
vn 0.0020 1.0000 0.0011
vn -1.0000 0.0000 0.0000
vn 0.0000 0.0000 -1.0000
vn 0.3956 0.0000 -0.9184
vn 0.0045 1.0000 0.0000
vn 1.0000 0.0000 0.0000
vn 0.0000 -0.0000 1.0000
vn -0.0024 -1.0000 0.0000
vn 1.0000 -0.0025 0.0000
vn -0.0007 1.0000 0.0000
vn -1.0000 -0.0036 0.0000
vn 0.0002 0.0000 -1.0000
vn 0.0030 -1.0000 0.0000
vn -0.3834 -0.0006 0.9236
vn 1.0000 0.0015 0.0000
vn 0.0000 -1.0000 -0.0000
vn 0.0000 1.0000 0.0000
vn -1.0000 -0.0023 0.0000
vn 0.3904 0.0065 -0.9206
vn -1.0000 0.0010 0.0025
vn 0.0010 1.0000 -0.0025
vn 1.0000 0.0003 0.0000
vn -0.0006 0.0002 1.0000
vn -0.3956 -0.0051 0.9184
vn 1.0000 -0.0043 0.0012
vn 0.0010 1.0000 0.0000
vn -0.0025 -1.0000 -0.0001
vn 0.0006 1.0000 0.0001
vn -1.0000 -0.0031 -0.0001
vn 0.0000 -0.0002 -1.0000
vn -0.3831 -0.0009 0.9237
vn -0.0018 -1.0000 -0.0020
vn 0.0015 1.0000 0.0016
vn -1.0000 0.0018 -0.0046
vn 0.3850 0.0001 -0.9229
vn -1.0000 -0.0033 -0.0007
vn 0.0033 1.0000 0.0000
s off
f 3/1/1 2/2/1 1/3/1
f 9/4/2 6/5/2 5/6/2
f 12/7/3 9/4/3 11/8/3
f 19/9/4 13/10/4 15/11/4
f 12/12/5 6/13/5 10/14/5
f 6/15/6 7/16/6 5/17/6
f 7/16/7 12/7/7 11/18/7
f 17/19/8 14/20/8 13/21/8
f 20/22/6 17/19/6 19/23/6
f 20/24/9 14/25/9 18/26/9
f 14/27/10 15/28/10 13/29/10
f 16/30/11 19/31/11 15/28/11
f 11/32/12 5/33/12 7/34/12
f 23/35/13 4/36/13 3/1/13
f 24/37/14 2/38/14 4/39/14
f 2/40/15 21/41/15 1/42/15
f 22/43/16 23/44/16 21/41/16
f 23/45/17 1/46/17 21/47/17
f 30/48/18 25/49/18 29/50/18
f 32/51/19 29/50/19 31/52/19
f 39/53/20 33/54/20 35/55/20
f 32/56/21 26/57/21 30/58/21
f 26/59/22 27/60/22 25/61/22
f 27/60/7 32/51/7 31/62/7
f 38/63/23 33/64/23 37/65/23
f 39/66/24 38/67/24 37/65/24
f 40/68/25 34/69/25 38/70/25
f 33/71/26 36/72/26 35/73/26
f 36/74/11 39/75/11 35/73/11
f 31/76/20 25/77/20 27/78/20
f 3/1/27 4/79/27 2/2/27
f 9/4/28 10/80/28 6/5/28
f 12/7/29 10/81/29 9/4/29
f 19/9/4 17/82/4 13/10/4
f 12/12/30 8/83/30 6/13/30
f 6/15/6 8/84/6 7/16/6
f 7/16/7 8/85/7 12/7/7
f 17/19/8 18/86/8 14/20/8
f 20/22/6 18/87/6 17/19/6
f 20/24/9 16/88/9 14/25/9
f 14/27/10 16/89/10 15/28/10
f 16/30/11 20/22/11 19/31/11
f 11/32/31 9/90/31 5/33/31
f 23/35/13 24/91/13 4/36/13
f 24/37/32 22/92/32 2/38/32
f 2/40/33 22/93/33 21/41/33
f 22/43/34 24/91/34 23/44/34
f 23/45/17 3/94/17 1/46/17
f 30/48/35 26/95/35 25/49/35
f 32/51/19 30/96/19 29/50/19
f 39/53/36 37/97/36 33/54/36
f 32/56/37 28/98/37 26/57/37
f 26/59/38 28/99/38 27/60/38
f 27/60/7 28/100/7 32/51/7
f 38/63/39 34/101/39 33/64/39
f 39/66/40 40/102/40 38/67/40
f 40/68/41 36/103/41 34/69/41
f 33/71/26 34/104/26 36/72/26
f 36/74/11 40/102/11 39/75/11
f 31/76/20 29/105/20 25/77/20
