# Blender v3.4.1 OBJ File: 'station.blend'
# www.blender.org
o Beam_1_lod_2_Cube.015
v -0.103936 -0.086513 1.002442
v -0.086513 -0.103936 1.002442
v -0.086513 0.103936 1.002442
v -0.103936 0.086513 1.002442
v -0.086513 -0.103936 0.012580
v -0.103936 -0.086513 0.012580
v -0.103936 0.086513 0.012580
v -0.086513 0.103936 0.012580
v 0.086513 -0.103936 1.002442
v 0.103936 -0.086513 1.002442
v 0.103936 0.086513 1.002442
v 0.086513 0.103936 1.002442
v 0.103936 -0.086513 0.012580
v 0.086513 -0.103936 0.012580
v 0.086513 0.103936 0.012580
v 0.103936 0.086513 0.012580
v -0.130418 -0.111606 0.312929
v -0.111606 -0.130417 0.314872
v -0.111606 0.130417 0.314872
v -0.130417 0.111606 0.312929
v -0.111606 -0.130417 0.076483
v -0.130418 -0.111606 0.076483
v -0.130417 0.111606 0.076483
v -0.111606 0.130417 0.076483
v 0.111606 -0.130417 0.423327
v 0.130417 -0.111606 0.425270
v 0.130418 0.111606 0.425270
v 0.111606 0.130417 0.423327
v 0.130417 -0.111606 0.076483
v 0.111606 -0.130417 0.076483
v 0.111606 0.130417 0.076483
v 0.130418 0.111606 0.076483
v 0.130418 -0.111606 0.670210
v 0.111606 -0.130417 0.668267
v 0.111606 0.130418 0.668267
v 0.130417 0.111606 0.670210
v 0.111606 -0.130418 0.906655
v 0.130418 -0.111606 0.906655
v 0.130417 0.111606 0.906655
v 0.111606 0.130417 0.906655
v -0.111606 -0.130417 0.559812
v -0.130417 -0.111606 0.557869
v -0.130418 0.111606 0.557869
v -0.111606 0.130418 0.559812
v -0.130417 -0.111606 0.906655
v -0.111606 -0.130418 0.906655
v -0.111606 0.130417 0.906655
v -0.130418 0.111606 0.906655
v -0.103936 -0.086513 -0.010851
v -0.086513 -0.103936 -0.010851
v -0.086513 0.103936 -0.010851
v -0.103936 0.086513 -0.010851
v -0.086513 -0.103936 -1.000714
v -0.103936 -0.086513 -1.000714
v -0.103936 0.086513 -1.000714
v -0.086513 0.103936 -1.000714
v 0.086513 -0.103936 -0.010851
v 0.103936 -0.086513 -0.010851
v 0.103936 0.086513 -0.010851
v 0.086513 0.103936 -0.010851
v 0.103936 -0.086513 -1.000714
v 0.086513 -0.103936 -1.000714
v 0.086513 0.103936 -1.000714
v 0.103936 0.086513 -1.000714
v -0.130418 -0.111606 -0.700365
v -0.111606 -0.130417 -0.698422
v -0.111606 0.130417 -0.698422
v -0.130417 0.111606 -0.700365
v -0.111606 -0.130417 -0.936811
v -0.130418 -0.111606 -0.936811
v -0.130417 0.111606 -0.936811
v -0.111606 0.130417 -0.936811
v 0.111606 -0.130417 -0.589967
v 0.130417 -0.111606 -0.588024
v 0.130418 0.111606 -0.588024
v 0.111606 0.130417 -0.589967
v 0.130417 -0.111606 -0.936811
v 0.111606 -0.130417 -0.936811
v 0.111606 0.130417 -0.936811
v 0.130418 0.111606 -0.936811
v 0.130418 -0.111606 -0.343084
v 0.111606 -0.130417 -0.345027
v 0.111606 0.130418 -0.345027
v 0.130417 0.111606 -0.343084
v 0.111606 -0.130418 -0.106639
v 0.130418 -0.111606 -0.106639
v 0.130417 0.111606 -0.106639
v 0.111606 0.130417 -0.106639
v -0.111606 -0.130417 -0.453482
v -0.130417 -0.111606 -0.455425
v -0.130418 0.111606 -0.455425
v -0.111606 0.130418 -0.453482
v -0.130417 -0.111606 -0.106639
v -0.111606 -0.130418 -0.106639
v -0.111606 0.130417 -0.106639
v -0.130418 0.111606 -0.106639
v -0.121037 -0.119690 0.518821
v -0.121037 0.120051 0.518821
v -0.121032 -0.121037 0.470967
v -0.121037 0.120051 0.470967
v 0.121037 -0.120029 0.518821
v 0.121037 0.120234 0.518821
v 0.121037 -0.120029 0.470967
v 0.120558 0.121037 0.470967
v 0.120558 0.121037 -0.544029
v 0.121037 -0.120029 -0.544029
v 0.121037 0.120234 -0.496175
v 0.121037 -0.120029 -0.496175
v -0.121037 0.120051 -0.544029
v -0.121032 -0.121037 -0.544029
v -0.121037 0.120051 -0.496175
v -0.121037 -0.119690 -0.496175
v -0.121037 -0.119690 0.011641
v -0.121037 0.120051 0.011641
v -0.121032 -0.121037 -0.036214
v -0.121037 0.120051 -0.036214
v 0.121037 -0.120029 0.011641
v 0.121037 0.120234 0.011641
v 0.121037 -0.120029 -0.036214
v 0.120558 0.121037 -0.036214
vt 0.625000 0.770954
vt 0.604046 1.000000
vt 0.375000 0.979046
vt 0.604046 0.500000
vt 0.395954 0.750000
vt 0.395954 0.500000
vt 0.854046 0.500000
vt 0.645954 0.750000
vt 0.645954 0.500000
vt 0.604046 0.000000
vt 0.395954 0.250000
vt 0.395954 0.000000
vt 0.625000 0.270954
vt 0.145954 0.750000
vt 0.125000 0.500000
vt 0.145954 0.500000
vt 0.625000 0.250000
vt 0.625000 0.000000
vt 0.354046 0.500000
vt 0.354046 0.750000
vt 0.620676 1.000000
vt 0.379324 1.000000
vt 0.375000 0.995676
vt 0.620676 0.500000
vt 0.379324 0.750000
vt 0.379324 0.500000
vt 0.370676 0.500000
vt 0.129324 0.750000
vt 0.129324 0.500000
vt 0.629324 0.500000
vt 0.870676 0.750000
vt 0.629324 0.750000
vt 0.620676 0.000000
vt 0.379324 0.250000
vt 0.379324 0.000000
vt 0.625000 0.254324
vt 0.375000 0.495676
vt 0.620676 1.000000
vt 0.379324 1.000000
vt 0.375000 0.995676
vt 0.620676 0.500000
vt 0.379324 0.750000
vt 0.379324 0.500000
vt 0.629324 0.500000
vt 0.870676 0.750000
vt 0.629324 0.750000
vt 0.620676 0.000000
vt 0.379324 0.250000
vt 0.379324 0.000000
vt 0.625000 0.254324
vt 0.375000 0.495676
vt 0.129324 0.500000
vt 0.125000 0.750000
vt 0.125000 0.500000
vt 0.625000 0.250000
vt 0.625000 0.000000
vt 0.370676 0.750000
vt 0.125000 0.750000
vt 0.125000 0.500000
vt 0.625000 0.250000
vt 0.625000 0.000000
vt 0.370676 0.750000
vt 0.370676 0.500000
vt 0.129324 0.750000
vt 0.625000 0.770954
vt 0.604046 1.000000
vt 0.375000 0.979046
vt 0.604046 0.500000
vt 0.395954 0.750000
vt 0.395954 0.500000
vt 0.854046 0.500000
vt 0.645954 0.750000
vt 0.645954 0.500000
vt 0.604046 0.000000
vt 0.395954 0.250000
vt 0.395954 0.000000
vt 0.625000 0.270954
vt 0.145954 0.750000
vt 0.125000 0.500000
vt 0.145954 0.500000
vt 0.625000 0.250000
vt 0.625000 0.000000
vt 0.354046 0.500000
vt 0.354046 0.750000
vt 0.620676 1.000000
vt 0.379324 1.000000
vt 0.375000 0.995676
vt 0.620676 0.500000
vt 0.379324 0.750000
vt 0.379324 0.500000
vt 0.370676 0.500000
vt 0.129324 0.750000
vt 0.129324 0.500000
vt 0.629324 0.500000
vt 0.870676 0.750000
vt 0.629324 0.750000
vt 0.620676 0.000000
vt 0.379324 0.250000
vt 0.379324 0.000000
vt 0.625000 0.254324
vt 0.375000 0.495676
vt 0.620676 1.000000
vt 0.379324 1.000000
vt 0.375000 0.995676
vt 0.620676 0.500000
vt 0.379324 0.750000
vt 0.379324 0.500000
vt 0.629324 0.500000
vt 0.870676 0.750000
vt 0.629324 0.750000
vt 0.620676 0.000000
vt 0.379324 0.250000
vt 0.379324 0.000000
vt 0.375000 0.495676
vt 0.625000 0.254324
vt 0.129324 0.500000
vt 0.125000 0.750000
vt 0.125000 0.500000
vt 0.625000 0.250000
vt 0.625000 0.000000
vt 0.370676 0.750000
vt 0.125000 0.750000
vt 0.125000 0.500000
vt 0.625000 0.250000
vt 0.625000 0.000000
vt 0.370676 0.750000
vt 0.370676 0.500000
vt 0.129324 0.750000
vt 0.625000 0.760797
vt 0.375000 0.989203
vt 0.385797 0.750000
vt 0.385797 0.500000
vt 0.614203 0.750000
vt 0.635797 0.500000
vt 0.864203 0.750000
vt 0.635797 0.750000
vt 0.385797 0.000000
vt 0.614203 0.250000
vt 0.385797 0.250000
vt 0.625000 0.260797
vt 0.375000 0.489203
vt 0.135797 0.500000
vt 0.364203 0.750000
vt 0.135797 0.750000
vt 0.385797 0.500000
vt 0.614203 0.750000
vt 0.385797 0.750000
vt 0.625000 0.260797
vt 0.375000 0.489203
vt 0.385797 0.250000
vt 0.385797 0.000000
vt 0.614203 0.250000
vt 0.135797 0.500000
vt 0.364203 0.750000
vt 0.135797 0.750000
vt 0.635797 0.500000
vt 0.864203 0.750000
vt 0.635797 0.750000
vt 0.625000 0.760797
vt 0.375000 0.989203
vt 0.625000 0.760797
vt 0.375000 0.989203
vt 0.385797 0.750000
vt 0.385797 0.500000
vt 0.614203 0.750000
vt 0.635797 0.500000
vt 0.864203 0.750000
vt 0.635797 0.750000
vt 0.385797 0.000000
vt 0.614203 0.250000
vt 0.385797 0.250000
vt 0.625000 0.260797
vt 0.375000 0.489203
vt 0.135797 0.500000
vt 0.364203 0.750000
vt 0.135797 0.750000
vt 0.375000 0.770954
vt 0.604046 0.750000
vt 0.625000 0.979046
vt 0.395954 1.000000
vt 0.854046 0.750000
vt 0.604046 0.250000
vt 0.375000 0.479046
vt 0.375000 0.270954
vt 0.625000 0.479046
vt 0.125000 0.750000
vt 0.375000 0.754324
vt 0.625000 0.754324
vt 0.620676 0.750000
vt 0.625000 0.995676
vt 0.870676 0.500000
vt 0.620676 0.250000
vt 0.375000 0.254324
vt 0.625000 0.495676
vt 0.375000 0.754324
vt 0.625000 0.754324
vt 0.620676 0.750000
vt 0.625000 0.995676
vt 0.870676 0.500000
vt 0.620676 0.250000
vt 0.375000 0.254324
vt 0.625000 0.495676
vt 0.375000 0.770954
vt 0.604046 0.750000
vt 0.625000 0.979046
vt 0.395954 1.000000
vt 0.854046 0.750000
vt 0.604046 0.250000
vt 0.375000 0.479046
vt 0.375000 0.270954
vt 0.625000 0.479046
vt 0.125000 0.750000
vt 0.375000 0.754324
vt 0.625000 0.754324
vt 0.620676 0.750000
vt 0.625000 0.995676
vt 0.870676 0.500000
vt 0.620676 0.250000
vt 0.375000 0.254324
vt 0.625000 0.495676
vt 0.375000 0.754324
vt 0.625000 0.754324
vt 0.620676 0.750000
vt 0.625000 0.995676
vt 0.870676 0.500000
vt 0.620676 0.250000
vt 0.375000 0.254324
vt 0.625000 0.495676
vt 0.614203 1.000000
vt 0.614203 0.500000
vt 0.864203 0.500000
vt 0.614203 0.000000
vt 0.364203 0.500000
vt 0.614203 0.500000
vt 0.614203 0.000000
vt 0.364203 0.500000
vt 0.864203 0.500000
vt 0.614203 1.000000
vt 0.614203 1.000000
vt 0.614203 0.500000
vt 0.864203 0.500000
vt 0.614203 0.000000
vt 0.364203 0.500000
vn -0.0000 0.0000 1.0000
vn 1.0000 0.0000 0.0000
vn 0.0000 1.0000 0.0000
vn -1.0000 0.0000 0.0000
vn -0.0000 0.0000 -1.0000
vn -0.7071 -0.7071 0.0000
vn -0.7071 0.7071 0.0000
vn 0.7071 -0.7071 0.0000
vn 0.7071 0.7071 0.0000
vn -0.0000 -1.0000 0.0000
vn -0.1027 0.0000 0.9947
vn 0.1027 0.0000 -0.9947
vn -0.1028 0.0000 0.9947
vn -0.0008 0.9999 0.0168
vn -1.0000 -0.0000 -0.0001
vn -0.0014 -0.9996 0.0281
vn -0.4370 0.0000 0.8994
vn 0.4370 0.0000 -0.8994
vn 0.9999 0.0020 -0.0100
vn -0.0041 1.0000 0.0000
vn 0.0042 -1.0000 0.0000
s off
f 12/1/1 4/2/1 2/3/1
f 16/4/2 10/5/2 13/6/2
f 8/7/3 12/8/3 15/9/3
f 4/10/4 6/11/4 1/12/4
f 6/11/5 8/13/5 16/4/5
f 2/14/6 6/15/6 5/16/6
f 8/17/7 4/10/7 3/18/7
f 14/19/8 10/5/8 9/20/8
f 12/8/9 16/4/9 15/9/9
f 14/19/10 2/14/10 5/16/10
f 20/21/11 17/22/11 18/23/11
f 32/24/2 26/25/2 29/26/2
f 46/27/10 34/28/10 37/29/10
f 31/30/3 19/31/3 28/32/3
f 20/33/4 22/34/4 17/35/4
f 24/36/5 32/24/5 30/37/5
f 36/38/12 33/39/12 34/40/12
f 48/41/4 42/42/4 45/43/4
f 47/44/3 35/45/3 44/46/3
f 36/47/2 38/48/2 33/49/2
f 40/50/1 48/41/1 46/51/1
f 21/52/6 17/53/6 22/54/6
f 24/55/7 20/33/7 19/56/7
f 25/57/8 29/26/8 26/25/8
f 28/32/9 32/24/9 31/30/9
f 37/29/8 33/58/8 38/59/8
f 40/60/9 36/47/9 35/61/9
f 41/62/6 45/43/6 42/42/6
f 44/46/7 48/41/7 47/44/7
f 30/63/10 18/64/10 21/52/10
f 60/65/1 52/66/1 50/67/1
f 64/68/2 58/69/2 61/70/2
f 56/71/3 60/72/3 63/73/3
f 52/74/4 54/75/4 49/76/4
f 54/75/5 56/77/5 64/68/5
f 50/78/6 54/79/6 53/80/6
f 56/81/7 52/74/7 51/82/7
f 62/83/8 58/69/8 57/84/8
f 60/72/9 64/68/9 63/73/9
f 62/83/10 50/78/10 53/80/10
f 68/85/13 65/86/13 66/87/13
f 80/88/2 74/89/2 77/90/2
f 94/91/10 82/92/10 85/93/10
f 79/94/3 67/95/3 76/96/3
f 68/97/4 70/98/4 65/99/4
f 72/100/5 80/88/5 78/101/5
f 84/102/12 81/103/12 82/104/12
f 96/105/4 90/106/4 93/107/4
f 95/108/3 83/109/3 92/110/3
f 84/111/2 86/112/2 81/113/2
f 93/107/1 94/114/1 88/115/1
f 69/116/6 65/117/6 70/118/6
f 72/119/7 68/97/7 67/120/7
f 73/121/8 77/90/8 74/89/8
f 76/96/9 80/88/9 79/94/9
f 85/93/8 81/122/8 86/123/8
f 88/124/9 84/111/9 83/125/9
f 89/126/6 93/107/6 90/106/6
f 92/110/7 96/105/7 95/108/7
f 78/127/10 66/128/10 69/116/10
f 102/129/1 97/130/1 101/131/1
f 103/132/2 102/133/2 101/131/2
f 104/134/14 98/135/14 102/136/14
f 97/137/15 100/138/15 99/139/15
f 100/140/5 103/141/5 99/139/5
f 99/142/16 101/143/16 97/144/16
f 106/145/2 107/146/2 108/147/2
f 109/148/5 106/149/5 110/150/5
f 112/151/15 109/152/15 110/150/15
f 110/153/16 108/154/16 112/155/16
f 105/156/14 111/157/14 107/158/14
f 107/159/1 112/160/1 108/147/1
f 118/161/1 113/162/1 117/163/1
f 119/164/2 118/165/2 117/163/2
f 120/166/14 114/167/14 118/168/14
f 113/169/15 116/170/15 115/171/15
f 116/172/5 119/173/5 115/171/5
f 115/174/16 117/175/16 113/176/16
f 2/3/1 9/177/1 10/5/1
f 10/5/1 11/178/1 12/1/1
f 12/1/1 3/179/1 4/2/1
f 4/2/1 1/180/1 2/3/1
f 2/3/1 10/5/1 12/1/1
f 16/4/2 11/178/2 10/5/2
f 8/7/3 3/181/3 12/8/3
f 4/10/4 7/182/4 6/11/4
f 14/183/5 5/184/5 6/11/5
f 6/11/5 7/182/5 8/13/5
f 8/13/5 15/185/5 16/4/5
f 16/4/5 13/6/5 14/183/5
f 14/183/5 6/11/5 16/4/5
f 2/14/6 1/186/6 6/15/6
f 8/17/7 7/182/7 4/10/7
f 14/19/8 13/6/8 10/5/8
f 12/8/9 11/178/9 16/4/9
f 14/19/10 9/20/10 2/14/10
f 18/23/17 25/187/17 28/188/17
f 25/187/11 26/25/11 28/188/11
f 26/25/11 27/189/11 28/188/11
f 28/188/17 19/190/17 18/23/17
f 19/190/11 20/21/11 18/23/11
f 32/24/2 27/189/2 26/25/2
f 46/27/10 41/62/10 34/28/10
f 31/30/3 24/191/3 19/31/3
f 20/33/4 23/192/4 22/34/4
f 30/37/5 21/193/5 22/34/5
f 22/34/5 23/192/5 24/36/5
f 24/36/5 31/194/5 32/24/5
f 32/24/5 29/26/5 30/37/5
f 30/37/5 22/34/5 24/36/5
f 34/40/18 41/195/18 44/196/18
f 41/195/12 42/42/12 44/196/12
f 42/42/12 43/197/12 44/196/12
f 44/196/18 35/198/18 34/40/18
f 35/198/12 36/38/12 34/40/12
f 48/41/4 43/197/4 42/42/4
f 47/44/3 40/199/3 35/45/3
f 36/47/2 39/200/2 38/48/2
f 46/51/1 37/201/1 40/50/1
f 37/201/1 38/48/1 40/50/1
f 38/48/1 39/200/1 40/50/1
f 40/50/1 47/202/1 48/41/1
f 48/41/1 45/43/1 46/51/1
f 21/52/6 18/64/6 17/53/6
f 24/55/7 23/192/7 20/33/7
f 25/57/8 30/63/8 29/26/8
f 28/32/9 27/189/9 32/24/9
f 37/29/8 34/28/8 33/58/8
f 40/60/9 39/200/9 36/47/9
f 41/62/6 46/27/6 45/43/6
f 44/46/7 43/197/7 48/41/7
f 30/63/10 25/57/10 18/64/10
f 50/67/1 57/203/1 58/69/1
f 58/69/1 59/204/1 60/65/1
f 60/65/1 51/205/1 52/66/1
f 52/66/1 49/206/1 50/67/1
f 50/67/1 58/69/1 60/65/1
f 64/68/2 59/204/2 58/69/2
f 56/71/3 51/207/3 60/72/3
f 52/74/4 55/208/4 54/75/4
f 62/209/5 53/210/5 54/75/5
f 54/75/5 55/208/5 56/77/5
f 56/77/5 63/211/5 64/68/5
f 64/68/5 61/70/5 62/209/5
f 62/209/5 54/75/5 64/68/5
f 50/78/6 49/212/6 54/79/6
f 56/81/7 55/208/7 52/74/7
f 62/83/8 61/70/8 58/69/8
f 60/72/9 59/204/9 64/68/9
f 62/83/10 57/84/10 50/78/10
f 66/87/17 73/213/17 76/214/17
f 73/213/11 74/89/11 76/214/11
f 74/89/11 75/215/11 76/214/11
f 76/214/17 67/216/17 66/87/17
f 67/216/11 68/85/11 66/87/11
f 80/88/2 75/215/2 74/89/2
f 94/91/10 89/126/10 82/92/10
f 79/94/3 72/217/3 67/95/3
f 68/97/4 71/218/4 70/98/4
f 78/101/5 69/219/5 70/98/5
f 70/98/5 71/218/5 72/100/5
f 72/100/5 79/220/5 80/88/5
f 80/88/5 77/90/5 78/101/5
f 78/101/5 70/98/5 72/100/5
f 82/104/18 89/221/18 92/222/18
f 89/221/12 90/106/12 92/222/12
f 90/106/12 91/223/12 92/222/12
f 92/222/18 83/224/18 82/104/18
f 83/224/12 84/102/12 82/104/12
f 96/105/4 91/223/4 90/106/4
f 95/108/3 88/225/3 83/109/3
f 84/111/2 87/226/2 86/112/2
f 94/114/1 85/227/1 86/112/1
f 86/112/1 87/226/1 94/114/1
f 87/226/1 88/115/1 94/114/1
f 88/115/1 95/228/1 96/105/1
f 96/105/1 93/107/1 88/115/1
f 69/116/6 66/128/6 65/117/6
f 72/119/7 71/218/7 68/97/7
f 73/121/8 78/127/8 77/90/8
f 76/96/9 75/215/9 80/88/9
f 85/93/8 82/92/8 81/122/8
f 88/124/9 87/226/9 84/111/9
f 89/126/6 94/91/6 93/107/6
f 92/110/7 91/223/7 96/105/7
f 78/127/10 73/121/10 66/128/10
f 102/129/1 98/229/1 97/130/1
f 103/132/19 104/230/19 102/133/19
f 104/134/20 100/231/20 98/135/20
f 97/137/4 98/232/4 100/138/4
f 100/140/5 104/230/5 103/141/5
f 99/142/21 103/233/21 101/143/21
f 106/145/19 105/234/19 107/146/19
f 109/148/5 105/234/5 106/149/5
f 112/151/4 111/235/4 109/152/4
f 110/153/21 106/236/21 108/154/21
f 105/156/20 109/237/20 111/157/20
f 107/159/1 111/238/1 112/160/1
f 118/161/1 114/239/1 113/162/1
f 119/164/19 120/240/19 118/165/19
f 120/166/20 116/241/20 114/167/20
f 113/169/4 114/242/4 116/170/4
f 116/172/5 120/240/5 119/173/5
f 115/174/21 119/243/21 117/175/21
