# Blender v3.4.1 OBJ File: 'station.blend'
# www.blender.org
o Building_1_Cube.194
v -0.286595 -0.571643 -0.873442
v -0.286595 -0.076323 -0.873442
v -0.286595 -0.571643 -0.945189
v -0.286595 -0.076323 -0.945189
v -0.180271 -0.571643 -0.873442
v -0.180271 -0.076323 -0.873442
v -0.180271 -0.571643 -0.945189
v -0.180271 -0.076323 -0.945189
v -0.823576 -0.549956 0.882448
v -0.823576 0.003298 0.882448
v -0.823576 -0.549956 -0.898075
v -0.823576 0.003298 -0.898075
v 0.665786 -0.549956 0.882448
v 0.665786 0.003298 0.882448
v 0.665786 -0.549956 -0.898075
v 0.665786 0.003298 -0.898075
v -0.926740 -0.082075 0.717007
v -0.926740 -0.082075 0.513306
v 0.776323 -0.082075 0.717007
v 0.776323 -0.082075 0.513306
v -0.946792 -0.082075 -0.545154
v -0.946792 -0.082075 -0.748855
v 0.756270 -0.082075 -0.545154
v 0.756270 -0.082075 -0.748855
v -0.926740 -0.456410 0.236953
v -0.926740 -0.456410 -0.259517
v 0.776323 -0.456410 0.236953
v 0.776323 -0.456410 -0.259517
v -0.601306 0.946968 0.699102
v -0.601306 0.946968 -0.714729
v 0.581327 0.946968 -0.714729
v 0.581327 0.946968 0.699102
v -0.623635 0.881264 0.721430
v -0.623635 0.881264 -0.737058
v 0.603656 0.881264 -0.737058
v 0.603656 0.881264 0.721430
v -0.623635 0.946968 0.721430
v -0.623635 0.946968 -0.737058
v 0.603656 0.946968 -0.737058
v 0.603656 0.946968 0.721430
v 0.463415 -0.638280 0.513306
v -0.613832 -0.638280 0.513306
v -0.613832 -0.638280 0.717007
v 0.463415 -0.638280 0.717007
v 0.443362 -0.638280 -0.748855
v -0.633885 -0.638280 -0.748855
v -0.633885 -0.638280 -0.545154
v 0.443362 -0.638280 -0.545154
v 0.463415 -0.595192 -0.259517
v -0.613832 -0.595192 -0.259517
v -0.613832 -0.595192 0.236953
v 0.463415 -0.595192 0.236953
v -0.926740 -0.688034 0.717007
v -0.878603 -0.723153 0.717007
v -0.878603 -0.723153 0.513306
v -0.926740 -0.688034 0.513306
v 0.728187 -0.723153 0.717007
v 0.776323 -0.688034 0.717007
v 0.776323 -0.688034 0.513306
v 0.728187 -0.723153 0.513306
v -0.946792 -0.688034 -0.545154
v -0.898656 -0.723153 -0.545154
v -0.898656 -0.723153 -0.748855
v -0.946792 -0.688034 -0.748855
v 0.708134 -0.723153 -0.545154
v 0.756270 -0.688034 -0.545154
v 0.756270 -0.688034 -0.748855
v 0.708134 -0.723153 -0.748855
v -0.926740 -0.644946 0.236953
v -0.878603 -0.680065 0.236953
v -0.878603 -0.680065 -0.259517
v -0.926740 -0.644946 -0.259517
v 0.728187 -0.680065 0.236953
v 0.776323 -0.644946 0.236953
v 0.776323 -0.644946 -0.259517
v 0.728187 -0.680065 -0.259517
v -0.554532 -0.237786 0.699102
v -0.601306 -0.237786 0.652327
v -0.601306 0.881264 0.652327
v -0.554532 0.881264 0.699102
v -0.623234 0.881264 0.721030
v -0.601306 -0.237786 -0.667955
v -0.554532 -0.237786 -0.714729
v -0.554532 0.881264 -0.714729
v -0.601306 0.881264 -0.667955
v -0.623234 0.881264 -0.736658
v 0.581327 -0.237786 0.652327
v 0.534553 -0.237786 0.699102
v 0.534553 0.881264 0.699102
v 0.581327 0.881264 0.652327
v 0.603256 0.881264 0.721030
v 0.534553 -0.237786 -0.714729
v 0.581327 -0.237786 -0.667955
v 0.581327 0.881264 -0.667955
v 0.534553 0.881264 -0.714729
v 0.603256 0.881264 -0.736658
v -0.049928 -0.623144 -0.856997
v -0.049928 0.099238 -0.856997
v -0.049928 -0.623144 -0.961634
v -0.049928 0.099238 -0.961634
v 0.105136 -0.623144 -0.856997
v 0.105136 0.099238 -0.856997
v 0.105136 -0.623144 -0.961634
v 0.105136 0.099238 -0.961634
v 0.062815 -0.011813 -0.695822
v 0.062815 0.710568 -0.695822
v 0.062815 -0.011813 -0.800458
v 0.167452 -0.011813 -0.695822
v 0.167452 0.710568 -0.695822
v 0.167452 -0.011813 -0.800458
v 0.062815 0.710568 -0.764148
v 0.062815 0.674257 -0.800458
v 0.167452 0.674257 -0.800458
v 0.167452 0.710568 -0.764148
v -0.211679 -0.004575 -0.647464
v -0.211679 0.128825 -0.647464
v -0.211679 -0.004575 -0.859333
v -0.211679 0.128825 -0.859333
v 0.266887 -0.004575 -0.647464
v 0.266887 0.128825 -0.647464
v 0.266887 -0.004575 -0.859333
v 0.266887 0.128825 -0.859333
v -0.079085 -0.064082 -0.675816
v -0.079085 0.069317 -0.675816
v -0.079085 -0.064082 -0.808465
v -0.079085 0.069317 -0.808465
v 0.399481 -0.064082 -0.675816
v 0.399481 0.069317 -0.675816
v 0.399481 -0.064082 -0.808465
v 0.399481 0.069317 -0.808465
v -0.439942 -0.109343 -0.695822
v -0.439942 0.102644 -0.695822
v -0.439942 -0.109343 -0.800458
v -0.439942 0.102644 -0.800458
v -0.167066 -0.109343 -0.695822
v -0.167066 0.102644 -0.695822
v -0.167066 -0.109343 -0.800458
v -0.167066 0.102644 -0.800458
v -0.031880 0.062716 -0.711103
v -0.031880 0.308362 -0.711103
v -0.031880 0.062716 -0.746685
v -0.031880 0.308362 -0.746685
v 0.003702 0.062716 -0.711103
v 0.003702 0.308362 -0.711103
v 0.003702 0.062716 -0.746685
v 0.003702 0.308362 -0.746685
v -0.103761 0.062716 -0.711103
v -0.103761 0.308362 -0.711103
v -0.103761 0.062716 -0.746685
v -0.103761 0.308362 -0.746685
v -0.068179 0.062716 -0.711103
v -0.068179 0.308362 -0.711103
v -0.068179 0.062716 -0.746685
v -0.068179 0.308362 -0.746685
v 0.527454 -0.063732 0.336197
v 0.527454 0.180455 0.336197
v 0.527454 -0.063732 -0.352606
v 0.527454 0.180455 -0.352606
v 0.632091 -0.063732 0.336197
v 0.632091 0.180455 0.336197
v 0.632091 -0.063732 -0.352606
v 0.632091 0.180455 -0.352606
v -0.255420 -0.004575 0.833237
v -0.255420 0.128825 0.833237
v -0.255420 -0.004575 0.621368
v -0.255420 0.128825 0.621368
v 0.438735 -0.004575 0.833237
v 0.438735 0.128825 0.833237
v 0.438735 -0.004575 0.621368
v 0.438735 0.128825 0.621368
v -0.152447 0.089429 0.788566
v -0.152447 0.530950 0.788566
v -0.152447 0.089429 0.666038
v -0.152447 0.530950 0.666038
v -0.019253 0.089429 0.788566
v -0.019253 0.530950 0.788566
v -0.019253 0.089429 0.666038
v -0.019253 0.530950 0.666038
v 0.175293 -0.294937 0.865632
v 0.175293 -0.294937 0.625882
v 0.175293 0.682505 0.625882
v 0.308488 -0.294937 0.865632
v 0.308488 -0.294937 0.625882
v 0.308488 0.682505 0.625882
v 0.175293 0.530116 0.865632
v 0.175293 0.682505 0.713243
v 0.308488 0.682505 0.713243
v 0.308488 0.530116 0.865632
vt 0.625000 0.000000
vt 0.375000 0.250000
vt 0.375000 0.000000
vt 0.625000 0.250000
vt 0.375000 0.500000
vt 0.625000 0.500000
vt 0.375000 0.750000
vt 0.625000 0.750000
vt 0.375000 1.000000
vt 0.125000 0.750000
vt 0.125000 0.500000
vt 0.875000 0.500000
vt 0.625000 0.759888
vt 0.375000 0.990112
vt 0.375000 0.759888
vt 0.625000 0.250000
vt 0.625000 0.500000
vt 0.625000 0.490112
vt 0.625000 0.750000
vt 0.625000 0.741729
vt 0.625000 0.000000
vt 0.625000 0.241729
vt 0.625000 0.008271
vt 0.375000 0.241729
vt 0.375000 0.008271
vt 0.625000 1.000000
vt 0.625000 0.990112
vt 0.625000 0.000000
vt 0.375000 0.250000
vt 0.375000 0.000000
vt 0.625000 0.250000
vt 0.375000 0.500000
vt 0.625000 0.500000
vt 0.375000 0.750000
vt 0.625000 0.750000
vt 0.375000 1.000000
vt 0.125000 0.750000
vt 0.125000 0.500000
vt 0.875000 0.500000
vt 0.625000 1.000000
vt 0.375000 0.916667
vt 0.375000 0.833333
vt 0.362180 0.500000
vt 0.291667 0.750000
vt 0.291667 0.500000
vt 0.208333 0.500000
vt 0.137820 0.750000
vt 0.137820 0.500000
vt 0.625000 0.500000
vt 0.375000 0.416667
vt 0.375000 0.333333
vt 0.394249 0.750000
vt 0.394249 0.500000
vt 0.875000 0.500000
vt 0.625000 0.750000
vt 0.625000 1.000000
vt 0.375000 0.916667
vt 0.375000 0.833333
vt 0.362180 0.500000
vt 0.291667 0.750000
vt 0.291667 0.500000
vt 0.208333 0.500000
vt 0.137820 0.750000
vt 0.137820 0.500000
vt 0.625000 0.500000
vt 0.375000 0.416667
vt 0.375000 0.333333
vt 0.394249 0.750000
vt 0.394249 0.500000
vt 0.875000 0.500000
vt 0.625000 0.750000
vt 0.625000 0.750000
vt 0.625000 1.000000
vt 0.375000 0.833333
vt 0.362180 0.500000
vt 0.291667 0.750000
vt 0.291667 0.500000
vt 0.625000 0.250000
vt 0.625000 0.500000
vt 0.375000 0.333333
vt 0.427856 0.750000
vt 0.427856 0.500000
vt 0.875000 0.500000
vt 0.875000 0.500000
vt 0.625000 0.750000
vt 0.625000 0.500000
vt 0.875000 0.500000
vt 0.875000 0.750000
vt 0.625000 0.750000
vt 0.625000 0.250000
vt 0.625000 1.000000
vt 0.625000 0.500000
vt 0.625000 0.259888
vt 0.375000 0.490112
vt 0.375000 0.259888
vt 0.875000 0.750000
vt 0.625000 0.508271
vt 0.375000 0.741729
vt 0.375000 0.508271
vt 0.625000 0.000000
vt 0.427856 0.250000
vt 0.427856 0.000000
vt 0.208333 0.750000
vt 0.625000 0.000000
vt 0.394249 0.250000
vt 0.394249 0.000000
vt 0.208333 0.750000
vt 0.625000 0.000000
vt 0.394249 0.250000
vt 0.394249 0.000000
vt 0.208333 0.750000
vt 0.208333 0.500000
vt 0.137820 0.750000
vt 0.125000 0.500000
vt 0.137820 0.500000
vt 0.362180 0.750000
vt 0.125000 0.500000
vt 0.362180 0.750000
vt 0.125000 0.500000
vt 0.362180 0.750000
vt 0.625000 1.000000
vt 0.625000 1.000000
vt 0.625000 0.250000
vt 0.625000 0.250000
vt 0.625000 0.750000
vt 0.625000 0.750000
vt 0.625000 0.500000
vt 0.625000 0.500000
vt 0.625000 0.000000
vt 0.375000 0.000000
vt 0.365112 0.750000
vt 0.134888 0.750000
vt 0.125000 0.741729
vt 0.625000 0.000000
vt 0.375000 0.250000
vt 0.375000 0.000000
vt 0.625000 0.250000
vt 0.375000 0.500000
vt 0.625000 0.500000
vt 0.375000 0.750000
vt 0.625000 0.750000
vt 0.375000 1.000000
vt 0.125000 0.750000
vt 0.125000 0.500000
vt 0.875000 0.500000
vt 0.612434 0.250000
vt 0.375000 0.500000
vt 0.375000 0.250000
vt 0.612434 0.500000
vt 0.625000 0.750000
vt 0.375000 0.750000
vt 0.375000 1.000000
vt 0.125000 0.750000
vt 0.125000 0.500000
vt 0.625000 0.000000
vt 0.625000 0.163245
vt 0.625000 0.500000
vt 0.625000 0.250000
vt 0.875000 0.586755
vt 0.625000 0.586755
vt 0.625000 0.000000
vt 0.375000 0.250000
vt 0.375000 0.000000
vt 0.625000 0.250000
vt 0.375000 0.500000
vt 0.625000 0.500000
vt 0.375000 0.750000
vt 0.625000 0.750000
vt 0.375000 1.000000
vt 0.125000 0.750000
vt 0.125000 0.500000
vt 0.875000 0.500000
vt 0.625000 0.000000
vt 0.375000 0.250000
vt 0.375000 0.000000
vt 0.625000 0.250000
vt 0.375000 0.500000
vt 0.625000 0.500000
vt 0.375000 0.750000
vt 0.625000 0.750000
vt 0.375000 1.000000
vt 0.125000 0.750000
vt 0.125000 0.500000
vt 0.875000 0.500000
vt 0.625000 0.000000
vt 0.375000 0.250000
vt 0.375000 0.000000
vt 0.625000 0.250000
vt 0.375000 0.500000
vt 0.625000 0.500000
vt 0.375000 0.750000
vt 0.625000 0.750000
vt 0.375000 1.000000
vt 0.125000 0.750000
vt 0.125000 0.500000
vt 0.875000 0.500000
vt 0.625000 0.000000
vt 0.375000 0.250000
vt 0.375000 0.000000
vt 0.625000 0.250000
vt 0.375000 0.500000
vt 0.625000 0.500000
vt 0.375000 0.750000
vt 0.625000 0.750000
vt 0.375000 1.000000
vt 0.125000 0.750000
vt 0.125000 0.500000
vt 0.875000 0.500000
vt 0.625000 0.000000
vt 0.375000 0.250000
vt 0.375000 0.000000
vt 0.625000 0.250000
vt 0.375000 0.500000
vt 0.625000 0.500000
vt 0.375000 0.750000
vt 0.625000 0.750000
vt 0.375000 1.000000
vt 0.125000 0.750000
vt 0.125000 0.500000
vt 0.875000 0.500000
vt 0.625000 0.000000
vt 0.375000 0.250000
vt 0.375000 0.000000
vt 0.625000 0.250000
vt 0.375000 0.500000
vt 0.625000 0.500000
vt 0.375000 0.750000
vt 0.625000 0.750000
vt 0.375000 1.000000
vt 0.125000 0.750000
vt 0.125000 0.500000
vt 0.875000 0.500000
vt 0.625000 0.000000
vt 0.375000 0.250000
vt 0.375000 0.000000
vt 0.625000 0.250000
vt 0.375000 0.500000
vt 0.625000 0.500000
vt 0.375000 0.750000
vt 0.625000 0.750000
vt 0.375000 1.000000
vt 0.125000 0.750000
vt 0.125000 0.500000
vt 0.875000 0.500000
vt 0.625000 0.000000
vt 0.375000 0.250000
vt 0.375000 0.000000
vt 0.625000 0.250000
vt 0.375000 0.500000
vt 0.625000 0.500000
vt 0.375000 0.750000
vt 0.625000 0.750000
vt 0.375000 1.000000
vt 0.125000 0.750000
vt 0.125000 0.500000
vt 0.875000 0.500000
vt 0.875000 0.500000
vt 0.625000 0.591096
vt 0.625000 0.500000
vt 0.625000 0.250000
vt 0.375000 0.500000
vt 0.375000 0.250000
vt 0.586024 0.000000
vt 0.125000 0.750000
vt 0.125000 0.500000
vt 0.586023 0.750000
vt 0.625000 1.000000
vt 0.625000 0.750000
vt 0.375000 1.000000
vt 0.375000 0.750000
vt 0.625000 1.000000
vt 0.875000 0.750000
vt 0.625000 0.000000
vt 0.625000 1.000000
vt 0.875000 0.750000
vt 0.375000 0.762820
vt 0.394249 1.000000
vt 0.375000 0.987180
vt 0.375000 0.262820
vt 0.625000 0.250000
vt 0.375000 0.487180
vt 0.875000 0.750000
vt 0.375000 0.762820
vt 0.394249 1.000000
vt 0.375000 0.987180
vt 0.375000 0.262820
vt 0.625000 0.250000
vt 0.375000 0.487180
vt 0.875000 0.750000
vt 0.375000 0.762820
vt 0.427856 1.000000
vt 0.375000 0.987180
vt 0.375000 0.916667
vt 0.375000 0.262820
vt 0.375000 0.487180
vt 0.375000 0.416667
vt 0.875000 0.750000
vt 0.625000 0.000000
vt 0.125000 0.750000
vt 0.125000 0.750000
vt 0.125000 0.750000
vt 0.125000 0.508271
vt 0.134888 0.500000
vt 0.365112 0.500000
vt 0.625000 1.000000
vt 0.875000 0.750000
vt 0.625000 1.000000
vt 0.375000 0.000000
vt 0.875000 0.750000
vt 0.625000 1.000000
vt 0.875000 0.750000
vt 0.625000 1.000000
vt 0.875000 0.750000
vt 0.625000 1.000000
vt 0.875000 0.750000
vt 0.625000 1.000000
vt 0.875000 0.750000
vt 0.625000 1.000000
vt 0.875000 0.750000
vt 0.625000 1.000000
vt 0.875000 0.750000
vt 0.625000 1.000000
vt 0.875000 0.750000
vt 0.625000 1.000000
vt 0.875000 0.750000
vt 0.875000 0.591096
vt 0.375000 0.000000
vt 0.625000 0.158904
vt 0.586023 1.000000
vn -1.0000 0.0000 0.0000
vn 0.0000 0.0000 -1.0000
vn 1.0000 0.0000 0.0000
vn 0.0000 0.0000 1.0000
vn 0.0000 -1.0000 0.0000
vn 0.0000 1.0000 0.0000
vn -0.3053 -0.9523 0.0000
vn -0.1545 -0.9880 0.0000
vn 0.1545 -0.9880 0.0000
vn 0.3053 -0.9523 0.0000
vn -0.5894 -0.8079 0.0000
vn 0.5894 -0.8079 0.0000
vn 0.0000 -1.0000 0.0001
vn -0.7071 0.0000 0.7071
vn -0.7071 0.0000 -0.7071
vn 0.7071 0.0000 -0.7071
vn 0.7071 0.0000 0.7071
vn 0.0000 0.7071 -0.7071
vn 0.0000 0.7071 0.7071
s 1
f 2/1/1 3/2/1 1/3/1
f 4/4/2 7/5/2 3/2/2
f 8/6/3 5/7/3 7/5/3
f 6/8/4 1/9/4 5/7/4
f 7/5/5 1/10/5 3/11/5
f 4/12/6 6/8/6 8/6/6
f 89/13/4 77/14/4 88/15/4
f 34/16/5 35/17/5 95/18/5
f 35/17/5 36/19/5 90/20/5
f 33/21/5 34/16/5 85/22/5
f 79/23/1 82/24/1 78/25/1
f 36/19/5 33/26/5 80/27/5
f 10/28/1 11/29/1 9/30/1
f 12/31/2 15/32/2 11/29/2
f 16/33/3 13/34/3 15/32/3
f 14/35/4 9/36/4 13/34/4
f 15/32/5 9/37/5 11/38/5
f 12/39/6 14/35/6 16/33/6
f 17/40/4 43/41/4 44/42/4
f 60/43/7 44/44/8 41/45/8
f 46/46/9 62/47/10 63/48/10
f 20/49/2 41/50/2 42/51/2
f 20/49/3 58/52/3 59/53/3
f 18/54/6 19/55/6 20/49/6
f 21/56/4 47/57/4 48/58/4
f 68/59/7 48/60/8 45/61/8
f 50/62/9 70/63/10 71/64/10
f 24/65/2 45/66/2 46/67/2
f 24/65/3 66/68/3 67/69/3
f 22/70/6 23/71/6 24/65/6
f 27/72/4 25/73/4 52/74/4
f 76/75/7 52/76/8 49/77/8
f 26/78/2 28/79/2 50/80/2
f 28/79/3 74/81/3 75/82/3
f 26/83/6 27/72/6 28/79/6
f 30/84/6 32/85/6 31/86/6
f 31/86/6 38/87/6 30/84/6
f 29/88/6 40/89/6 32/85/6
f 35/17/3 40/89/3 36/19/3
f 33/21/1 38/90/1 34/16/1
f 36/19/4 37/91/4 33/26/4
f 34/16/2 39/92/2 35/17/2
f 84/93/2 92/94/2 83/95/2
f 32/85/6 39/92/6 31/86/6
f 30/84/6 37/96/6 29/88/6
f 94/97/3 87/98/3 93/99/3
f 25/100/1 72/101/1 69/102/1
f 49/77/8 51/103/9 50/62/9
f 21/104/1 64/105/1 61/106/1
f 45/61/8 47/107/9 46/46/9
f 17/108/1 56/109/1 53/110/1
f 41/45/8 43/111/9 42/112/9
f 54/113/11 56/114/11 55/115/11
f 60/43/12 58/52/12 57/116/12
f 62/47/11 64/117/11 63/48/11
f 68/59/12 66/68/12 65/118/12
f 70/63/11 72/119/11 71/64/11
f 76/75/12 74/81/12 73/120/12
f 42/112/9 54/113/10 55/115/10
f 79/121/5 80/27/5 81/122/5
f 84/93/5 85/123/5 86/124/5
f 89/13/5 90/125/5 91/126/13
f 94/97/5 95/127/5 96/128/5
f 80/129/14 78/25/14 77/130/14
f 83/95/15 85/22/15 84/93/15
f 93/99/16 95/18/16 94/97/16
f 88/15/17 90/20/17 89/13/17
f 88/131/5 77/132/5 78/133/5
f 98/134/1 99/135/1 97/136/1
f 100/137/2 103/138/2 99/135/2
f 104/139/3 101/140/3 103/138/3
f 102/141/4 97/142/4 101/140/4
f 103/138/5 97/143/5 99/144/5
f 100/145/6 102/141/6 104/139/6
f 112/146/2 110/147/2 107/148/2
f 113/149/3 109/150/3 108/151/3
f 109/150/4 105/152/4 108/151/4
f 110/147/5 105/153/5 107/154/5
f 106/155/1 111/156/1 112/146/1
f 114/157/18 112/146/18 111/158/18
f 111/159/6 109/150/6 114/160/6
f 116/161/1 117/162/1 115/163/1
f 118/164/2 121/165/2 117/162/2
f 122/166/3 119/167/3 121/165/3
f 120/168/4 115/169/4 119/167/4
f 121/165/5 115/170/5 117/171/5
f 118/172/6 120/168/6 122/166/6
f 124/173/1 125/174/1 123/175/1
f 126/176/2 129/177/2 125/174/2
f 130/178/3 127/179/3 129/177/3
f 128/180/4 123/181/4 127/179/4
f 129/177/5 123/182/5 125/183/5
f 126/184/6 128/180/6 130/178/6
f 132/185/1 133/186/1 131/187/1
f 134/188/2 137/189/2 133/186/2
f 138/190/3 135/191/3 137/189/3
f 136/192/4 131/193/4 135/191/4
f 137/189/5 131/194/5 133/195/5
f 134/196/6 136/192/6 138/190/6
f 140/197/1 141/198/1 139/199/1
f 142/200/2 145/201/2 141/198/2
f 146/202/3 143/203/3 145/201/3
f 144/204/4 139/205/4 143/203/4
f 145/201/5 139/206/5 141/207/5
f 142/208/6 144/204/6 146/202/6
f 148/209/1 149/210/1 147/211/1
f 150/212/2 153/213/2 149/210/2
f 154/214/3 151/215/3 153/213/3
f 152/216/4 147/217/4 151/215/4
f 153/213/5 147/218/5 149/219/5
f 150/220/6 152/216/6 154/214/6
f 156/221/1 157/222/1 155/223/1
f 158/224/2 161/225/2 157/222/2
f 162/226/3 159/227/3 161/225/3
f 160/228/4 155/229/4 159/227/4
f 161/225/5 155/230/5 157/231/5
f 158/232/6 160/228/6 162/226/6
f 164/233/1 165/234/1 163/235/1
f 166/236/2 169/237/2 165/234/2
f 170/238/3 167/239/3 169/237/3
f 168/240/4 163/241/4 167/239/4
f 169/237/5 163/242/5 165/243/5
f 166/244/6 168/240/6 170/238/6
f 172/245/1 173/246/1 171/247/1
f 174/248/2 177/249/2 173/246/2
f 178/250/3 175/251/3 177/249/3
f 176/252/4 171/253/4 175/251/4
f 177/249/5 171/254/5 173/255/5
f 174/256/6 176/252/6 178/250/6
f 181/257/6 187/258/6 184/259/6
f 181/260/2 183/261/2 180/262/2
f 185/263/1 181/260/1 180/262/1
f 183/261/5 179/264/5 180/265/5
f 184/259/3 187/258/3 188/266/3
f 186/267/19 188/266/19 187/268/19
f 188/266/4 179/269/4 182/270/4
f 2/1/1 4/4/1 3/2/1
f 4/4/2 8/6/2 7/5/2
f 8/6/3 6/8/3 5/7/3
f 6/8/4 2/271/4 1/9/4
f 7/5/5 5/7/5 1/10/5
f 4/12/6 2/272/6 6/8/6
f 89/13/4 80/27/4 77/14/4
f 35/17/5 96/128/5 95/18/5
f 95/18/5 84/93/5 34/16/5
f 84/93/5 86/124/5 34/16/5
f 36/19/5 91/126/13 90/20/5
f 90/20/5 94/97/5 35/17/5
f 94/97/5 96/128/5 35/17/5
f 34/16/5 86/124/5 85/22/5
f 85/22/5 79/23/5 33/21/5
f 79/23/5 81/273/5 33/21/5
f 79/23/1 85/22/1 82/24/1
f 33/26/5 81/122/5 80/27/5
f 80/27/5 89/13/5 36/19/5
f 89/13/5 91/126/13 36/19/5
f 10/28/1 12/31/1 11/29/1
f 12/31/2 16/33/2 15/32/2
f 16/33/3 14/35/3 13/34/3
f 14/35/4 10/274/4 9/36/4
f 15/32/5 13/34/5 9/37/5
f 12/39/6 10/275/6 14/35/6
f 44/42/4 57/276/4 58/52/4
f 58/52/4 19/55/4 44/42/4
f 19/55/4 17/40/4 44/42/4
f 17/40/4 53/277/4 43/41/4
f 53/277/4 54/278/4 43/41/4
f 60/43/7 57/116/7 44/44/8
f 46/46/9 47/107/9 62/47/10
f 42/51/2 55/279/2 56/109/2
f 56/109/2 18/280/2 42/51/2
f 18/280/2 20/49/2 42/51/2
f 20/49/2 59/53/2 41/50/2
f 59/53/2 60/281/2 41/50/2
f 20/49/3 19/55/3 58/52/3
f 18/54/6 17/282/6 19/55/6
f 48/58/4 65/283/4 66/68/4
f 66/68/4 23/71/4 48/58/4
f 23/71/4 21/56/4 48/58/4
f 21/56/4 61/284/4 47/57/4
f 61/284/4 62/285/4 47/57/4
f 68/59/7 65/118/7 48/60/8
f 50/62/9 51/103/9 70/63/10
f 46/67/2 63/286/2 64/105/2
f 64/105/2 22/287/2 46/67/2
f 22/287/2 24/65/2 46/67/2
f 24/65/2 67/69/2 45/66/2
f 67/69/2 68/288/2 45/66/2
f 24/65/3 23/71/3 66/68/3
f 22/70/6 21/289/6 23/71/6
f 52/74/4 73/290/4 27/72/4
f 73/290/4 74/81/4 27/72/4
f 25/73/4 69/291/4 70/292/4
f 25/73/4 70/292/4 51/293/4
f 25/73/4 51/293/4 52/74/4
f 76/75/7 73/120/7 52/76/8
f 50/80/2 71/294/2 26/78/2
f 71/294/2 72/101/2 26/78/2
f 28/79/2 75/82/2 76/295/2
f 28/79/2 76/295/2 49/296/2
f 28/79/2 49/296/2 50/80/2
f 28/79/3 27/72/3 74/81/3
f 26/83/6 25/297/6 27/72/6
f 30/84/6 29/88/6 32/85/6
f 31/86/6 39/92/6 38/87/6
f 29/88/6 37/96/6 40/89/6
f 35/17/3 39/92/3 40/89/3
f 33/21/1 37/298/1 38/90/1
f 36/19/4 40/89/4 37/91/4
f 34/16/2 38/90/2 39/92/2
f 84/93/2 95/18/2 92/94/2
f 32/85/6 40/89/6 39/92/6
f 30/84/6 38/87/6 37/96/6
f 94/97/3 90/20/3 87/98/3
f 25/100/1 26/78/1 72/101/1
f 49/77/8 52/76/8 51/103/9
f 21/104/1 22/287/1 64/105/1
f 45/61/8 48/60/8 47/107/9
f 17/108/1 18/280/1 56/109/1
f 41/45/8 44/44/8 43/111/9
f 54/113/11 53/299/11 56/114/11
f 60/43/12 59/53/12 58/52/12
f 62/47/11 61/300/11 64/117/11
f 68/59/12 67/69/12 66/68/12
f 70/63/11 69/301/11 72/119/11
f 76/75/12 75/82/12 74/81/12
f 42/112/9 43/111/9 54/113/10
f 80/129/14 79/23/14 78/25/14
f 83/95/15 82/24/15 85/22/15
f 93/99/16 92/94/16 95/18/16
f 88/15/17 87/98/17 90/20/17
f 78/133/5 82/302/5 93/99/5
f 82/302/5 83/303/5 93/99/5
f 83/303/5 92/304/5 93/99/5
f 93/99/5 87/98/5 78/133/5
f 87/98/5 88/131/5 78/133/5
f 98/134/1 100/137/1 99/135/1
f 100/137/2 104/139/2 103/138/2
f 104/139/3 102/141/3 101/140/3
f 102/141/4 98/305/4 97/142/4
f 103/138/5 101/140/5 97/143/5
f 100/145/6 98/306/6 102/141/6
f 112/146/2 113/149/2 110/147/2
f 108/151/3 110/147/3 113/149/3
f 113/149/3 114/160/3 109/150/3
f 109/150/4 106/307/4 105/152/4
f 110/147/5 108/151/5 105/153/5
f 107/148/1 105/308/1 112/146/1
f 105/308/1 106/155/1 112/146/1
f 114/157/18 113/149/18 112/146/18
f 111/159/6 106/309/6 109/150/6
f 116/161/1 118/164/1 117/162/1
f 118/164/2 122/166/2 121/165/2
f 122/166/3 120/168/3 119/167/3
f 120/168/4 116/310/4 115/169/4
f 121/165/5 119/167/5 115/170/5
f 118/172/6 116/311/6 120/168/6
f 124/173/1 126/176/1 125/174/1
f 126/176/2 130/178/2 129/177/2
f 130/178/3 128/180/3 127/179/3
f 128/180/4 124/312/4 123/181/4
f 129/177/5 127/179/5 123/182/5
f 126/184/6 124/313/6 128/180/6
f 132/185/1 134/188/1 133/186/1
f 134/188/2 138/190/2 137/189/2
f 138/190/3 136/192/3 135/191/3
f 136/192/4 132/314/4 131/193/4
f 137/189/5 135/191/5 131/194/5
f 134/196/6 132/315/6 136/192/6
f 140/197/1 142/200/1 141/198/1
f 142/200/2 146/202/2 145/201/2
f 146/202/3 144/204/3 143/203/3
f 144/204/4 140/316/4 139/205/4
f 145/201/5 143/203/5 139/206/5
f 142/208/6 140/317/6 144/204/6
f 148/209/1 150/212/1 149/210/1
f 150/212/2 154/214/2 153/213/2
f 154/214/3 152/216/3 151/215/3
f 152/216/4 148/318/4 147/217/4
f 153/213/5 151/215/5 147/218/5
f 150/220/6 148/319/6 152/216/6
f 156/221/1 158/224/1 157/222/1
f 158/224/2 162/226/2 161/225/2
f 162/226/3 160/228/3 159/227/3
f 160/228/4 156/320/4 155/229/4
f 161/225/5 159/227/5 155/230/5
f 158/232/6 156/321/6 160/228/6
f 164/233/1 166/236/1 165/234/1
f 166/236/2 170/238/2 169/237/2
f 170/238/3 168/240/3 167/239/3
f 168/240/4 164/322/4 163/241/4
f 169/237/5 167/239/5 163/242/5
f 166/244/6 164/323/6 168/240/6
f 172/245/1 174/248/1 173/246/1
f 174/248/2 178/250/2 177/249/2
f 178/250/3 176/252/3 175/251/3
f 176/252/4 172/324/4 171/253/4
f 177/249/5 175/251/5 171/254/5
f 174/256/6 172/325/6 176/252/6
f 181/257/6 186/326/6 187/258/6
f 181/260/2 184/259/2 183/261/2
f 180/262/1 179/327/1 185/263/1
f 185/263/1 186/328/1 181/260/1
f 183/261/5 182/270/5 179/264/5
f 182/270/3 183/261/3 188/266/3
f 183/261/3 184/259/3 188/266/3
f 186/267/19 185/329/19 188/266/19
f 188/266/4 185/329/4 179/269/4
