# Blender v3.4.1 OBJ File: 'station.blend'
# www.blender.org
o Girder_2_lod_2_Cube.029
v -0.169937 -0.170102 0.016999
v -0.169937 0.170102 0.016999
v -0.169937 -0.170102 -0.016999
v -0.169937 0.170102 -0.016999
v 0.169937 -0.170102 0.016999
v 0.169937 0.170102 0.016999
v 0.169937 -0.170102 -0.016999
v 0.169937 0.170102 -0.016999
v -0.169937 -0.170102 -0.649121
v -0.169937 0.170102 -0.649121
v -0.169937 -0.170102 -0.683119
v -0.169937 0.170102 -0.683119
v 0.169937 -0.170102 -0.649121
v 0.169937 0.170102 -0.649121
v 0.169937 -0.170102 -0.683119
v 0.169937 0.170102 -0.683119
v -0.169937 -0.170102 0.682889
v -0.169937 0.170102 0.682889
v -0.169937 -0.170102 0.648890
v -0.169937 0.170102 0.648890
v 0.169937 -0.170102 0.682889
v 0.169937 0.170102 0.682889
v 0.169937 -0.170102 0.648890
v 0.169937 0.170102 0.648890
v -0.150635 -0.012228 1.000612
v -0.150635 0.012228 1.000612
v -0.150635 -0.012228 -1.000612
v -0.150635 0.012228 -1.000612
v -0.124658 -0.012228 -1.000612
v -0.012228 0.124658 -1.000612
v -0.124658 0.012228 -1.000612
v -0.012228 0.150635 -1.000612
v 0.012228 0.124658 -1.000612
v 0.012228 0.150635 -1.000612
v -0.012228 -0.150635 -1.000612
v 0.012228 -0.150635 -1.000612
v 0.012228 -0.124658 -1.000612
v -0.012228 -0.124658 -1.000612
v 0.124658 -0.012228 -1.000612
v 0.150635 -0.012228 -1.000612
v 0.150635 0.012228 -1.000612
v 0.124658 0.012228 -1.000612
v 0.150635 -0.012228 1.000612
v 0.150635 0.012228 1.000612
v -0.012228 0.150635 1.000612
v 0.012228 0.124658 1.000612
v 0.012228 0.150635 1.000612
v -0.012228 0.124658 1.000612
v 0.124658 0.012228 1.000612
v 0.124658 -0.012228 1.000612
v -0.124658 -0.012228 1.000612
v -0.012228 -0.124658 1.000612
v -0.012228 -0.150635 1.000612
v 0.012228 -0.150635 1.000612
v 0.012228 -0.124658 1.000612
v -0.124658 0.012228 1.000612
v -0.150635 -0.141507 1.000612
v -0.141507 -0.150635 1.000612
v -0.141507 0.150635 1.000612
v -0.150635 0.141507 1.000612
v -0.141507 -0.150635 -1.000612
v -0.150635 -0.141507 -1.000612
v -0.150635 0.141507 -1.000612
v -0.141507 0.150635 -1.000612
v 0.141507 -0.150635 1.000612
v 0.150635 -0.141507 1.000612
v 0.150635 0.141507 1.000612
v 0.141507 0.150635 1.000612
v 0.150635 -0.141507 -1.000612
v 0.141507 -0.150635 -1.000612
v 0.141507 0.150635 -1.000612
v 0.150635 0.141507 -1.000612
vt 0.625000 0.000000
vt 0.375000 0.250000
vt 0.375000 0.000000
vt 0.625000 0.250000
vt 0.375000 0.500000
vt 0.625000 0.500000
vt 0.375000 0.750000
vt 0.625000 0.750000
vt 0.375000 1.000000
vt 0.125000 0.750000
vt 0.125000 0.500000
vt 0.875000 0.500000
vt 0.625000 0.000000
vt 0.375000 0.250000
vt 0.375000 0.000000
vt 0.625000 0.250000
vt 0.375000 0.500000
vt 0.625000 0.500000
vt 0.375000 0.750000
vt 0.625000 0.750000
vt 0.375000 1.000000
vt 0.125000 0.750000
vt 0.125000 0.500000
vt 0.875000 0.500000
vt 0.625000 0.000000
vt 0.375000 0.250000
vt 0.375000 0.000000
vt 0.625000 0.250000
vt 0.375000 0.500000
vt 0.625000 0.500000
vt 0.375000 0.750000
vt 0.625000 0.750000
vt 0.375000 1.000000
vt 0.125000 0.750000
vt 0.125000 0.500000
vt 0.875000 0.500000
vt 0.510147 0.271556
vt 0.510147 0.478444
vt 0.489853 0.478444
vt 0.489853 0.978444
vt 0.396556 0.885147
vt 0.396556 0.864853
vt 0.367426 0.500000
vt 0.260147 0.750000
vt 0.260147 0.500000
vt 0.632574 0.750000
vt 0.739853 0.500000
vt 0.739853 0.750000
vt 0.867426 0.750000
vt 0.760147 0.500000
vt 0.867426 0.500000
vt 0.382574 0.750000
vt 0.489853 0.500000
vt 0.489853 0.750000
vt 0.382574 0.000000
vt 0.489853 0.250000
vt 0.382574 0.250000
vt 0.617426 0.250000
vt 0.510147 0.000000
vt 0.617426 0.000000
vt 0.617426 0.500000
vt 0.510147 0.750000
vt 0.510147 0.500000
vt 0.375000 0.002108
vt 0.375000 0.247892
vt 0.375000 0.247892
vt 0.375000 0.502108
vt 0.375000 0.747892
vt 0.375000 0.502108
vt 0.125000 0.502108
vt 0.125000 0.747892
vt 0.125000 0.747892
vt 0.375000 0.002108
vt 0.375000 0.247892
vt 0.375000 0.002108
vt 0.375000 0.502108
vt 0.375000 0.747892
vt 0.375000 0.502108
vt 0.125000 0.502108
vt 0.125000 0.747892
vt 0.125000 0.502108
vt 0.375000 0.247892
vt 0.375000 0.002108
vt 0.375000 0.247892
vt 0.375000 0.747892
vt 0.375000 0.502108
vt 0.375000 0.502108
vt 0.125000 0.502108
vt 0.125000 0.747892
vt 0.125000 0.747892
vt 0.375000 0.002108
vt 0.375000 0.247892
vt 0.375000 0.002108
vt 0.375000 0.502108
vt 0.375000 0.747892
vt 0.375000 0.502108
vt 0.125000 0.502108
vt 0.125000 0.747892
vt 0.125000 0.747892
vt 0.375000 0.000000
vt 0.625000 0.250000
vt 0.625000 0.000000
vt 0.367426 0.750000
vt 0.617426 0.750000
vt 0.132574 0.500000
vt 0.239853 0.750000
vt 0.132574 0.750000
vt 0.625000 1.000000
vt 0.875000 0.750000
vt 0.625000 1.000000
vt 0.875000 0.750000
vt 0.625000 1.000000
vt 0.875000 0.750000
vt 0.375000 0.364853
vt 0.375000 0.257574
vt 0.396556 0.364853
vt 0.489853 0.271556
vt 0.510147 0.250000
vt 0.625000 0.257574
vt 0.603444 0.364853
vt 0.625000 0.364853
vt 0.396556 0.385147
vt 0.375000 0.492426
vt 0.375000 0.385147
vt 0.382574 0.500000
vt 0.603444 0.385147
vt 0.625000 0.385147
vt 0.625000 0.492426
vt 0.510147 0.771556
vt 0.625000 0.757574
vt 0.603444 0.864853
vt 0.625000 0.864853
vt 0.603444 0.885147
vt 0.625000 0.885147
vt 0.625000 0.992426
vt 0.489853 0.771556
vt 0.617426 1.000000
vt 0.510147 1.000000
vt 0.510147 0.978444
vt 0.489853 1.000000
vt 0.382574 1.000000
vt 0.375000 0.992426
vt 0.375000 0.864853
vt 0.375000 0.757574
vt 0.375000 0.885147
vt 0.632574 0.500000
vt 0.760147 0.750000
vt 0.489853 0.000000
vt 0.375000 0.002108
vt 0.375000 0.747892
vt 0.125000 0.502108
vt 0.375000 0.247892
vt 0.375000 0.747892
vt 0.125000 0.747892
vt 0.375000 0.002108
vt 0.375000 0.747892
vt 0.125000 0.502108
vt 0.375000 0.247892
vt 0.375000 0.747892
vt 0.125000 0.502108
vt 0.375000 0.250000
vt 0.239853 0.500000
vn -1.0000 0.0000 0.0000
vn 0.0000 0.0000 -1.0000
vn 1.0000 0.0000 0.0000
vn 0.0000 0.0000 1.0000
vn 0.0000 -1.0000 0.0000
vn 0.0000 1.0000 0.0000
vn -0.7071 -0.7071 0.0000
vn -0.7071 0.7071 0.0000
vn 0.7071 -0.7071 0.0000
vn 0.7071 0.7071 0.0000
s 1
f 2/1/1 3/2/1 1/3/1
f 4/4/2 7/5/2 3/2/2
f 8/6/3 5/7/3 7/5/3
f 6/8/4 1/9/4 5/7/4
f 7/5/5 1/10/5 3/11/5
f 4/12/6 6/8/6 8/6/6
f 10/13/1 11/14/1 9/15/1
f 12/16/2 15/17/2 11/14/2
f 16/18/3 13/19/3 15/17/3
f 14/20/4 9/21/4 13/19/4
f 15/17/5 9/22/5 11/23/5
f 12/24/6 14/20/6 16/18/6
f 18/25/1 19/26/1 17/27/1
f 20/28/2 23/29/2 19/26/2
f 24/30/3 21/31/3 23/29/3
f 22/32/4 17/33/4 21/31/4
f 23/29/5 17/34/5 19/35/5
f 20/36/6 22/32/6 24/30/6
f 31/37/2 42/38/2 39/39/2
f 51/40/4 52/41/4 55/42/4
f 70/43/5 54/44/5 36/45/5
f 68/46/6 34/47/6 47/48/6
f 59/49/6 32/50/6 64/51/6
f 66/52/3 40/53/3 43/54/3
f 57/55/1 27/56/1 62/57/1
f 63/58/1 26/59/1 60/60/1
f 72/61/3 44/62/3 41/63/3
f 25/64/6 29/65/6 27/66/6
f 31/67/5 26/68/5 28/69/5
f 31/70/1 51/71/1 56/72/1
f 55/73/1 36/74/1 54/75/1
f 38/76/3 53/77/3 35/78/3
f 37/79/5 52/80/5 38/81/5
f 41/82/5 49/83/5 42/84/5
f 50/85/6 40/86/6 39/87/6
f 39/88/3 49/89/3 50/90/3
f 48/91/3 32/92/3 45/93/3
f 33/94/1 47/95/1 34/96/1
f 33/97/6 48/98/6 46/99/6
f 62/57/7 58/100/7 57/55/7
f 64/101/8 60/60/8 59/102/8
f 70/43/9 66/52/9 65/103/9
f 72/61/10 68/46/10 67/104/10
f 61/105/5 53/106/5 58/107/5
f 2/1/1 4/4/1 3/2/1
f 4/4/2 8/6/2 7/5/2
f 8/6/3 6/8/3 5/7/3
f 6/8/4 2/108/4 1/9/4
f 7/5/5 5/7/5 1/10/5
f 4/12/6 2/109/6 6/8/6
f 10/13/1 12/16/1 11/14/1
f 12/16/2 16/18/2 15/17/2
f 16/18/3 14/20/3 13/19/3
f 14/20/4 10/110/4 9/21/4
f 15/17/5 13/19/5 9/22/5
f 12/24/6 10/111/6 14/20/6
f 18/25/1 20/28/1 19/26/1
f 20/28/2 24/30/2 23/29/2
f 24/30/3 22/32/3 21/31/3
f 22/32/4 18/112/4 17/33/4
f 23/29/5 21/31/5 17/34/5
f 20/36/6 18/113/6 22/32/6
f 35/114/2 61/115/2 38/116/2
f 61/115/2 62/57/2 38/116/2
f 62/57/2 27/56/2 29/117/2
f 31/37/2 28/118/2 63/58/2
f 62/57/2 29/117/2 38/116/2
f 31/37/2 63/58/2 64/119/2
f 29/117/2 31/37/2 38/116/2
f 31/37/2 64/119/2 30/120/2
f 64/119/2 32/121/2 30/120/2
f 37/122/2 38/116/2 31/37/2
f 70/123/2 36/124/2 37/122/2
f 40/53/2 69/125/2 39/39/2
f 69/125/2 70/123/2 39/39/2
f 70/123/2 37/122/2 39/39/2
f 37/122/2 31/37/2 39/39/2
f 31/37/2 30/120/2 33/126/2
f 33/126/2 34/127/2 71/128/2
f 71/128/2 72/61/2 42/38/2
f 72/61/2 41/63/2 42/38/2
f 31/37/2 33/126/2 42/38/2
f 33/126/2 71/128/2 42/38/2
f 49/129/4 44/62/4 67/104/4
f 67/104/4 68/130/4 46/131/4
f 68/130/4 47/132/4 46/131/4
f 49/129/4 67/104/4 46/131/4
f 48/133/4 45/134/4 59/135/4
f 49/129/4 46/131/4 50/136/4
f 46/131/4 48/133/4 50/136/4
f 66/52/4 43/54/4 50/136/4
f 48/133/4 59/135/4 60/137/4
f 60/137/4 26/138/4 56/139/4
f 51/40/4 25/140/4 57/141/4
f 48/133/4 60/137/4 56/139/4
f 51/40/4 57/141/4 58/142/4
f 48/133/4 56/139/4 51/40/4
f 66/52/4 50/136/4 55/42/4
f 50/136/4 48/133/4 51/40/4
f 54/143/4 65/144/4 55/42/4
f 65/144/4 66/52/4 55/42/4
f 50/136/4 51/40/4 55/42/4
f 51/40/4 58/142/4 52/41/4
f 58/142/4 53/145/4 52/41/4
f 70/43/5 65/103/5 54/44/5
f 68/46/6 71/146/6 34/47/6
f 59/49/6 45/147/6 32/50/6
f 66/52/3 69/125/3 40/53/3
f 57/55/1 25/148/1 27/56/1
f 63/58/1 28/118/1 26/59/1
f 72/61/3 67/104/3 44/62/3
f 25/64/6 51/149/6 29/65/6
f 31/67/5 56/150/5 26/68/5
f 31/70/1 29/151/1 51/71/1
f 55/73/1 37/152/1 36/74/1
f 38/76/3 52/153/3 53/77/3
f 37/79/5 55/154/5 52/80/5
f 41/82/5 44/155/5 49/83/5
f 50/85/6 43/156/6 40/86/6
f 39/88/3 42/157/3 49/89/3
f 48/91/3 30/158/3 32/92/3
f 33/94/1 46/159/1 47/95/1
f 33/97/6 30/160/6 48/98/6
f 62/57/7 61/161/7 58/100/7
f 64/101/8 63/58/8 60/60/8
f 70/43/9 69/125/9 66/52/9
f 72/61/10 71/146/10 68/46/10
f 61/105/5 35/162/5 53/106/5
