# Blender v3.4.1 OBJ File: 'station.blend'
# www.blender.org
o Girder_1_lod_2_Cube.027
v -0.226290 -0.225000 0.999295
v -0.226290 -0.175000 0.999295
v -0.226290 -0.225000 -1.000705
v -0.226290 -0.175000 -1.000705
v -0.176290 -0.225000 0.999295
v -0.176290 -0.175000 0.999295
v -0.176290 -0.225000 -1.000705
v -0.176290 -0.175000 -1.000705
v 0.173710 -0.225000 0.999295
v 0.173710 -0.175000 0.999295
v 0.173710 -0.225000 -1.000705
v 0.173710 -0.175000 -1.000705
v 0.223710 -0.225000 0.999295
v 0.223710 -0.175000 0.999295
v 0.223710 -0.225000 -1.000705
v 0.223710 -0.175000 -1.000705
v -0.226290 0.175000 0.999295
v -0.226290 0.225000 0.999295
v -0.226290 0.175000 -1.000705
v -0.226290 0.225000 -1.000705
v -0.176290 0.175000 0.999295
v -0.176290 0.225000 0.999295
v -0.176290 0.175000 -1.000705
v -0.176290 0.225000 -1.000705
v 0.173710 0.175000 0.999295
v 0.173710 0.225000 0.999295
v 0.173710 0.175000 -1.000705
v 0.173710 0.225000 -1.000705
v 0.223710 0.175000 0.999295
v 0.223710 0.225000 0.999295
v 0.223710 0.175000 -1.000705
v 0.223710 0.225000 -1.000705
v 0.184582 0.204373 0.988726
v 0.184582 0.204373 -0.577876
v -0.186554 0.204373 -0.977296
v 0.184582 0.204373 -0.187424
v -0.186554 0.200373 -0.586844
v 0.184582 0.200373 0.206131
v -0.200696 0.204373 -0.179147
v 0.197014 0.199106 0.970786
v 0.197014 -0.200894 0.990786
v 0.197014 0.198816 -0.963154
v 0.197014 -0.200604 -0.592018
v 0.197014 0.199106 -0.989214
v 0.197014 0.184674 -0.586844
v 0.197014 0.184674 -0.193289
v 0.197014 -0.200894 0.208190
v 0.197014 0.184674 0.192911
v 0.197014 -0.200894 0.574391
v 0.197014 0.199106 0.594390
v -0.202986 -0.200894 0.990786
v -0.202986 0.199106 0.990786
v -0.202986 0.184674 -0.577876
v -0.202986 -0.200894 -0.595816
v -0.202986 0.199106 -0.989214
v -0.202986 -0.200894 -0.969214
v -0.202986 -0.200604 -0.572702
v -0.202986 0.198816 -0.201566
v -0.202986 -0.200894 -0.185364
v -0.202986 0.184674 0.206131
v -0.202986 0.199106 0.188190
v -0.202986 -0.200604 0.207053
v -0.202986 -0.200894 0.594390
v -0.202986 0.199106 0.594391
v 0.184582 -0.195627 0.589306
v -0.200986 -0.199627 0.970786
v 0.184582 -0.199627 -0.977296
v 0.184582 -0.199627 -0.193289
vt 0.625000 0.000000
vt 0.375000 0.250000
vt 0.375000 0.000000
vt 0.625000 0.250000
vt 0.375000 0.500000
vt 0.625000 0.500000
vt 0.375000 0.750000
vt 0.625000 0.750000
vt 0.375000 1.000000
vt 0.125000 0.750000
vt 0.125000 0.500000
vt 0.875000 0.500000
vt 0.625000 0.000000
vt 0.375000 0.250000
vt 0.375000 0.000000
vt 0.625000 0.250000
vt 0.375000 0.500000
vt 0.625000 0.500000
vt 0.375000 0.750000
vt 0.625000 0.750000
vt 0.375000 1.000000
vt 0.125000 0.750000
vt 0.125000 0.500000
vt 0.875000 0.500000
vt 0.625000 0.000000
vt 0.375000 0.250000
vt 0.375000 0.000000
vt 0.625000 0.250000
vt 0.375000 0.500000
vt 0.625000 0.500000
vt 0.375000 0.750000
vt 0.625000 0.750000
vt 0.375000 1.000000
vt 0.125000 0.750000
vt 0.125000 0.500000
vt 0.875000 0.500000
vt 0.625000 0.000000
vt 0.375000 0.250000
vt 0.375000 0.000000
vt 0.625000 0.250000
vt 0.375000 0.500000
vt 0.625000 0.500000
vt 0.375000 0.750000
vt 0.625000 0.750000
vt 0.375000 1.000000
vt 0.125000 0.750000
vt 0.125000 0.500000
vt 0.875000 0.500000
vt 0.375000 0.500000
vt 0.375000 0.750000
vt 0.125000 0.750000
vt 0.125000 0.500000
vt 0.375000 0.500000
vt 0.125000 0.750000
vt 0.125000 0.500000
vt 0.375000 0.750000
vt 0.125000 0.750000
vt 0.125000 0.500000
vt 0.375000 0.500000
vt 0.125000 0.750000
vt 0.125000 0.500000
vt 0.375000 0.750000
vt 0.125000 0.750000
vt 0.375000 0.500000
vt 0.125000 0.750000
vt 0.125000 0.500000
vt 0.125000 0.500000
vt 0.375000 0.750000
vt 0.125000 0.750000
vt 0.375000 0.500000
vt 0.125000 0.750000
vt 0.125000 0.500000
vt 0.125000 0.500000
vt 0.375000 0.500000
vt 0.125000 0.750000
vt 0.375000 0.500000
vt 0.375000 0.750000
vt 0.125000 0.750000
vt 0.375000 0.500000
vt 0.375000 0.750000
vt 0.125000 0.750000
vt 0.375000 0.500000
vt 0.375000 0.750000
vt 0.125000 0.750000
vt 0.125000 0.500000
vt 0.375000 0.500000
vt 0.125000 0.750000
vt 0.375000 0.500000
vt 0.375000 0.750000
vt 0.125000 0.750000
vt 0.125000 0.500000
vt 0.375000 0.750000
vt 0.125000 0.750000
vt 0.125000 0.500000
vt 0.375000 0.500000
vt 0.375000 0.500000
vt 0.375000 0.750000
vt 0.125000 0.750000
vt 0.375000 0.500000
vt 0.375000 0.750000
vt 0.125000 0.750000
vt 0.625000 0.500000
vt 0.875000 0.500000
vt 0.625000 0.750000
vt 0.125000 0.500000
vt 0.375000 0.500000
vt 0.125000 0.750000
vt 0.375000 0.500000
vt 0.375000 0.750000
vt 0.125000 0.750000
vt 0.125000 0.500000
vt 0.375000 0.500000
vt 0.125000 0.750000
vt 0.375000 0.750000
vt 0.125000 0.750000
vt 0.125000 0.500000
vt 0.375000 0.500000
vt 0.125000 0.750000
vt 0.375000 0.750000
vt 0.125000 0.750000
vt 0.125000 0.500000
vt 0.375000 0.500000
vt 0.125000 0.750000
vt 0.375000 0.500000
vt 0.375000 0.750000
vt 0.125000 0.750000
vt 0.625000 1.000000
vt 0.875000 0.750000
vt 0.625000 1.000000
vt 0.875000 0.750000
vt 0.625000 1.000000
vt 0.875000 0.750000
vt 0.625000 1.000000
vt 0.875000 0.750000
vt 0.375000 0.500000
vt 0.375000 0.500000
vt 0.375000 0.750000
vt 0.375000 0.500000
vt 0.375000 0.750000
vt 0.375000 0.500000
vn -1.0000 0.0000 0.0000
vn 0.0000 0.0000 -1.0000
vn 1.0000 0.0000 0.0000
vn 0.0000 0.0000 1.0000
vn 0.0000 -1.0000 0.0000
vn 0.0000 1.0000 0.0000
vn -0.1625 -0.9715 0.1727
vn 0.0145 -0.9566 0.2910
vn -0.5726 -0.6105 0.5473
vn -0.0000 -0.9999 -0.0111
vn -0.5806 -0.5462 0.6038
vn -0.0304 -0.3028 0.9526
vn -0.4667 -0.7560 0.4589
vn -0.0326 -0.6588 0.7516
vn 0.5370 -0.6573 -0.5288
vn -0.8255 -0.0282 -0.5637
vn -0.9995 0.0312 0.0003
vn -0.4094 0.0132 -0.9122
vn -0.8268 -0.4057 -0.3897
vn -0.7437 -0.0265 -0.6680
vn -0.7565 -0.4548 -0.4700
vn -0.7621 0.0323 -0.6466
vn 0.9950 -0.0000 0.0995
vn 0.9949 -0.0041 -0.1006
vn 0.0578 0.9959 0.0689
vn 0.0000 0.9980 0.0632
vn -0.0156 0.9998 -0.0125
vn -0.0006 0.9999 -0.0125
vn -0.0173 0.9382 -0.3457
vn 0.6092 -0.4904 -0.6232
vn 0.4577 -0.7510 -0.4760
vn 0.0052 -0.9707 0.2401
vn -0.2871 -0.9225 0.2580
vn 0.0315 -0.7788 -0.6265
vn -0.8544 -0.3655 -0.3694
s off
f 2/1/1 3/2/1 1/3/1
f 4/4/2 7/5/2 3/2/2
f 8/6/3 5/7/3 7/5/3
f 6/8/4 1/9/4 5/7/4
f 7/5/5 1/10/5 3/11/5
f 4/12/6 6/8/6 8/6/6
f 10/13/1 11/14/1 9/15/1
f 12/16/2 15/17/2 11/14/2
f 16/18/3 13/19/3 15/17/3
f 14/20/4 9/21/4 13/19/4
f 15/17/5 9/22/5 11/23/5
f 12/24/6 14/20/6 16/18/6
f 18/25/1 19/26/1 17/27/1
f 20/28/2 23/29/2 19/26/2
f 24/30/3 21/31/3 23/29/3
f 22/32/4 17/33/4 21/31/4
f 23/29/5 17/34/5 19/35/5
f 20/36/6 22/32/6 24/30/6
f 26/37/1 27/38/1 25/39/1
f 28/40/2 31/41/2 27/38/2
f 32/42/3 29/43/3 31/41/3
f 30/44/4 25/45/4 29/43/4
f 31/41/5 25/46/5 27/47/5
f 28/48/6 30/44/6 32/42/6
f 64/49/7 40/50/7 33/51/7
f 40/52/8 33/53/8 52/54/8
f 55/55/9 45/56/9 34/57/9
f 44/58/10 42/59/10 55/60/10
f 53/61/11 46/62/11 36/63/11
f 36/64/12 58/65/12 46/66/12
f 39/67/13 48/68/13 38/69/13
f 38/70/14 61/71/14 48/72/14
f 60/73/15 61/74/15 50/75/15
f 41/76/16 33/77/16 40/78/16
f 67/79/17 42/80/17 44/81/17
f 68/82/18 36/83/18 46/84/18
f 36/85/19 46/86/19 47/87/19
f 47/88/20 38/89/20 48/90/20
f 38/91/21 49/92/21 65/93/21
f 49/94/22 65/95/22 50/75/22
f 52/96/23 51/97/23 66/98/23
f 53/99/3 57/100/3 54/101/3
f 54/102/1 57/103/1 58/104/1
f 58/105/24 39/106/24 59/107/24
f 59/108/3 61/109/3 60/110/3
f 61/111/3 60/112/3 62/113/3
f 65/95/25 66/114/25 51/115/25
f 66/116/26 51/117/26 41/118/26
f 67/79/27 54/119/27 57/120/27
f 54/121/28 57/122/28 43/123/28
f 63/124/29 65/125/29 49/126/29
f 2/1/1 4/4/1 3/2/1
f 4/4/2 8/6/2 7/5/2
f 8/6/3 6/8/3 5/7/3
f 6/8/4 2/127/4 1/9/4
f 7/5/5 5/7/5 1/10/5
f 4/12/6 2/128/6 6/8/6
f 10/13/1 12/16/1 11/14/1
f 12/16/2 16/18/2 15/17/2
f 16/18/3 14/20/3 13/19/3
f 14/20/4 10/129/4 9/21/4
f 15/17/5 13/19/5 9/22/5
f 12/24/6 10/130/6 14/20/6
f 18/25/1 20/28/1 19/26/1
f 20/28/2 24/30/2 23/29/2
f 24/30/3 22/32/3 21/31/3
f 22/32/4 18/131/4 17/33/4
f 23/29/5 21/31/5 17/34/5
f 20/36/6 18/132/6 22/32/6
f 26/37/1 28/40/1 27/38/1
f 28/40/2 32/42/2 31/41/2
f 32/42/3 30/44/3 29/43/3
f 30/44/4 26/133/4 25/45/4
f 31/41/5 29/43/5 25/46/5
f 28/48/6 26/134/6 30/44/6
f 55/55/30 35/135/30 45/56/30
f 53/61/31 37/136/31 46/62/31
f 36/64/32 39/137/32 58/65/32
f 39/67/33 58/138/33 48/68/33
f 38/70/34 60/139/34 61/71/34
f 38/91/35 48/140/35 49/92/35
l 64 63
l 64 50
l 56 53
l 47 62
l 41 50
l 42 43
l 45 68
l 63 52
l 56 55
l 64 62
l 45 53
l 43 45
l 56 67
l 43 59
l 59 68
l 68 62
l 47 63
