# Blender v3.4.1 OBJ File: 'station.blend'
# www.blender.org
o Girder_1b_lod_2_Cube.002
v -0.175930 -0.203176 -0.641647
v -0.175930 -0.196969 -0.641647
v -0.175930 -0.203176 -0.678353
v -0.175930 -0.196969 -0.678353
v 0.175930 -0.203176 -0.641647
v 0.175930 -0.196969 -0.641647
v 0.175930 -0.203176 -0.678353
v 0.175930 -0.196969 -0.678353
v -0.175930 -0.203176 0.018353
v -0.175930 -0.196969 0.018353
v -0.175930 -0.203176 -0.018353
v -0.175930 -0.196969 -0.018353
v 0.175930 -0.203176 0.018353
v 0.175930 -0.196969 0.018353
v 0.175930 -0.203176 -0.018353
v 0.175930 -0.196969 -0.018353
v -0.175930 -0.203176 0.678353
v -0.175930 -0.196969 0.678353
v -0.175930 -0.203176 0.641647
v -0.175930 -0.196969 0.641647
v 0.175930 -0.203176 0.678353
v 0.175930 -0.196969 0.678353
v 0.175930 -0.203176 0.641647
v 0.175930 -0.196969 0.641647
v -0.163856 -0.212566 0.999295
v -0.163856 -0.187434 0.999295
v -0.163856 -0.212566 -1.000705
v -0.163856 -0.187434 -1.000705
v -0.138724 -0.212566 0.999295
v -0.138724 -0.187434 0.999295
v -0.138724 -0.212566 -1.000705
v -0.138724 -0.187434 -1.000705
v 0.136144 -0.212566 0.999295
v 0.136144 -0.187434 0.999295
v 0.136144 -0.212566 -1.000705
v 0.136144 -0.187434 -1.000705
v 0.161276 -0.212566 0.999295
v 0.161276 -0.187434 0.999295
v 0.161276 -0.212566 -1.000705
v 0.161276 -0.187434 -1.000705
v -0.163856 0.187434 0.999295
v -0.163856 0.212566 0.999295
v -0.163856 0.187434 -1.000705
v -0.163856 0.212566 -1.000705
v -0.138724 0.187434 0.999295
v -0.138724 0.212566 0.999295
v -0.138724 0.187434 -1.000705
v -0.138724 0.212566 -1.000705
v 0.136144 0.187434 0.999295
v 0.136144 0.212566 0.999295
v 0.136144 0.187434 -1.000705
v 0.136144 0.212566 -1.000705
v 0.161276 0.187434 0.999295
v 0.161276 0.212566 0.999295
v 0.161276 0.187434 -1.000705
v 0.161276 0.212566 -1.000705
v -0.178530 -0.228562 0.635476
v -0.178530 0.228562 0.635476
v -0.178530 -0.228562 0.584524
v -0.178530 0.228562 0.584524
v -0.127579 -0.228562 0.635476
v -0.127579 0.228562 0.635476
v -0.127579 -0.228562 0.584524
v -0.127579 0.228562 0.584524
v -0.178530 -0.228562 0.735475
v -0.178530 0.228562 0.735475
v -0.178530 -0.228562 0.684524
v -0.178530 0.228562 0.684524
v -0.127579 -0.228562 0.735475
v -0.127579 0.228562 0.735475
v -0.127579 -0.228562 0.684524
v -0.127579 0.228562 0.684524
v 0.121470 -0.228562 0.635476
v 0.121470 0.228562 0.635476
v 0.121470 -0.228562 0.584524
v 0.121470 0.228562 0.584524
v 0.172421 -0.228562 0.635476
v 0.172421 0.228562 0.635476
v 0.172421 -0.228562 0.584524
v 0.172421 0.228562 0.584524
v 0.121470 -0.228562 0.735475
v 0.121470 0.228562 0.735475
v 0.121470 -0.228562 0.684524
v 0.121470 0.228562 0.684524
v 0.172421 -0.228562 0.735475
v 0.172421 0.228562 0.735475
v 0.172421 -0.228562 0.684524
v 0.172421 0.228562 0.684524
v -0.178530 -0.228562 -0.024524
v -0.178530 0.228562 -0.024524
v -0.178530 -0.228562 -0.075475
v -0.178530 0.228562 -0.075475
v -0.127579 -0.228562 -0.024524
v -0.127579 0.228562 -0.024524
v -0.127579 -0.228562 -0.075475
v -0.127579 0.228562 -0.075475
v -0.178530 -0.228562 0.075475
v -0.178530 0.228562 0.075475
v -0.178530 -0.228562 0.024524
v -0.178530 0.228562 0.024524
v -0.127579 -0.228562 0.075475
v -0.127579 0.228562 0.075475
v -0.127579 -0.228562 0.024524
v -0.127579 0.228562 0.024524
v 0.121470 -0.228562 -0.024524
v 0.121470 0.228562 -0.024524
v 0.121470 -0.228562 -0.075475
v 0.121470 0.228562 -0.075475
v 0.172421 -0.228562 -0.024524
v 0.172421 0.228562 -0.024524
v 0.172421 -0.228562 -0.075475
v 0.172421 0.228562 -0.075475
v 0.121470 -0.228562 0.075475
v 0.121470 0.228562 0.075475
v 0.121470 -0.228562 0.024524
v 0.121470 0.228562 0.024524
v 0.172421 -0.228562 0.075475
v 0.172421 0.228562 0.075475
v 0.172421 -0.228562 0.024524
v 0.172421 0.228562 0.024524
v -0.178530 -0.228562 -0.684524
v -0.178530 0.228562 -0.684524
v -0.178530 -0.228562 -0.735476
v -0.178530 0.228562 -0.735476
v -0.127579 -0.228562 -0.684524
v -0.127579 0.228562 -0.684524
v -0.127579 -0.228562 -0.735476
v -0.127579 0.228562 -0.735476
v -0.178530 -0.228562 -0.584524
v -0.178530 0.228562 -0.584524
v -0.178530 -0.228562 -0.635475
v -0.178530 0.228562 -0.635475
v -0.127579 -0.228562 -0.584524
v -0.127579 0.228562 -0.584524
v -0.127579 -0.228562 -0.635475
v -0.127579 0.228562 -0.635475
v 0.121470 -0.228562 -0.684524
v 0.121470 0.228562 -0.684524
v 0.121470 -0.228562 -0.735476
v 0.121470 0.228562 -0.735476
v 0.172421 -0.228562 -0.684524
v 0.172421 0.228562 -0.684524
v 0.172421 -0.228562 -0.735476
v 0.172421 0.228562 -0.735476
v 0.121470 -0.228562 -0.584524
v 0.121470 0.228562 -0.584524
v 0.121470 -0.228562 -0.635475
v 0.121470 0.228562 -0.635475
v 0.172421 -0.228562 -0.584524
v 0.172421 0.228562 -0.584524
v 0.172421 -0.228562 -0.635475
v 0.172421 0.228562 -0.635475
v -0.175930 0.196824 -0.641647
v -0.175930 0.203031 -0.641647
v -0.175930 0.196824 -0.678353
v -0.175930 0.203031 -0.678353
v 0.175930 0.196824 -0.641647
v 0.175930 0.203031 -0.641647
v 0.175930 0.196824 -0.678353
v 0.175930 0.203031 -0.678353
v -0.175930 0.196824 0.018353
v -0.175930 0.203031 0.018353
v -0.175930 0.196824 -0.018353
v -0.175930 0.203031 -0.018353
v 0.175930 0.196824 0.018353
v 0.175930 0.203031 0.018353
v 0.175930 0.196824 -0.018353
v 0.175930 0.203031 -0.018353
v -0.175930 0.196824 0.678353
v -0.175930 0.203031 0.678353
v -0.175930 0.196824 0.641647
v -0.175930 0.203031 0.641647
v 0.175930 0.196824 0.678353
v 0.175930 0.203031 0.678353
v 0.175930 0.196824 0.641647
v 0.175930 0.203031 0.641647
vt 0.375000 0.500000
vt 0.125000 0.750000
vt 0.125000 0.500000
vt 0.875000 0.500000
vt 0.625000 0.750000
vt 0.625000 0.500000
vt 0.375000 0.500000
vt 0.125000 0.750000
vt 0.125000 0.500000
vt 0.875000 0.500000
vt 0.625000 0.750000
vt 0.625000 0.500000
vt 0.375000 0.500000
vt 0.125000 0.750000
vt 0.125000 0.500000
vt 0.875000 0.500000
vt 0.625000 0.750000
vt 0.625000 0.500000
vt 0.625000 0.000000
vt 0.375000 0.250000
vt 0.375000 0.000000
vt 0.625000 0.500000
vt 0.375000 0.750000
vt 0.375000 0.500000
vt 0.125000 0.750000
vt 0.125000 0.500000
vt 0.875000 0.500000
vt 0.625000 0.750000
vt 0.625000 0.000000
vt 0.375000 0.250000
vt 0.375000 0.000000
vt 0.625000 0.500000
vt 0.375000 0.750000
vt 0.375000 0.500000
vt 0.125000 0.750000
vt 0.125000 0.500000
vt 0.875000 0.500000
vt 0.625000 0.750000
vt 0.625000 0.000000
vt 0.375000 0.250000
vt 0.375000 0.000000
vt 0.625000 0.500000
vt 0.375000 0.750000
vt 0.375000 0.500000
vt 0.125000 0.750000
vt 0.125000 0.500000
vt 0.875000 0.500000
vt 0.625000 0.750000
vt 0.625000 0.000000
vt 0.375000 0.250000
vt 0.375000 0.000000
vt 0.625000 0.500000
vt 0.375000 0.750000
vt 0.375000 0.500000
vt 0.125000 0.750000
vt 0.125000 0.500000
vt 0.875000 0.500000
vt 0.625000 0.750000
vt 0.625000 0.000000
vt 0.375000 0.250000
vt 0.375000 0.000000
vt 0.625000 0.250000
vt 0.375000 0.500000
vt 0.625000 0.500000
vt 0.375000 0.750000
vt 0.625000 0.750000
vt 0.375000 1.000000
vt 0.625000 0.000000
vt 0.375000 0.250000
vt 0.375000 0.000000
vt 0.625000 0.250000
vt 0.375000 0.500000
vt 0.625000 0.500000
vt 0.375000 0.750000
vt 0.625000 0.750000
vt 0.375000 1.000000
vt 0.625000 0.000000
vt 0.375000 0.250000
vt 0.375000 0.000000
vt 0.625000 0.250000
vt 0.375000 0.500000
vt 0.625000 0.500000
vt 0.375000 0.750000
vt 0.625000 0.750000
vt 0.375000 1.000000
vt 0.625000 0.000000
vt 0.375000 0.250000
vt 0.375000 0.000000
vt 0.625000 0.250000
vt 0.375000 0.500000
vt 0.625000 0.500000
vt 0.375000 0.750000
vt 0.625000 0.750000
vt 0.375000 1.000000
vt 0.625000 0.000000
vt 0.375000 0.250000
vt 0.375000 0.000000
vt 0.625000 0.250000
vt 0.375000 0.500000
vt 0.625000 0.500000
vt 0.375000 0.750000
vt 0.625000 0.750000
vt 0.375000 1.000000
vt 0.625000 0.000000
vt 0.375000 0.250000
vt 0.375000 0.000000
vt 0.625000 0.250000
vt 0.375000 0.500000
vt 0.625000 0.500000
vt 0.375000 0.750000
vt 0.625000 0.750000
vt 0.375000 1.000000
vt 0.625000 0.000000
vt 0.375000 0.250000
vt 0.375000 0.000000
vt 0.625000 0.250000
vt 0.375000 0.500000
vt 0.625000 0.500000
vt 0.375000 0.750000
vt 0.625000 0.750000
vt 0.375000 1.000000
vt 0.625000 0.000000
vt 0.375000 0.250000
vt 0.375000 0.000000
vt 0.625000 0.250000
vt 0.375000 0.500000
vt 0.625000 0.500000
vt 0.375000 0.750000
vt 0.625000 0.750000
vt 0.375000 1.000000
vt 0.625000 0.000000
vt 0.375000 0.250000
vt 0.375000 0.000000
vt 0.625000 0.250000
vt 0.375000 0.500000
vt 0.625000 0.500000
vt 0.375000 0.750000
vt 0.625000 0.750000
vt 0.375000 1.000000
vt 0.625000 0.000000
vt 0.375000 0.250000
vt 0.375000 0.000000
vt 0.625000 0.250000
vt 0.375000 0.500000
vt 0.625000 0.500000
vt 0.375000 0.750000
vt 0.625000 0.750000
vt 0.375000 1.000000
vt 0.625000 0.000000
vt 0.375000 0.250000
vt 0.375000 0.000000
vt 0.625000 0.250000
vt 0.375000 0.500000
vt 0.625000 0.500000
vt 0.375000 0.750000
vt 0.625000 0.750000
vt 0.375000 1.000000
vt 0.625000 0.000000
vt 0.375000 0.250000
vt 0.375000 0.000000
vt 0.625000 0.250000
vt 0.375000 0.500000
vt 0.625000 0.500000
vt 0.375000 0.750000
vt 0.625000 0.750000
vt 0.375000 1.000000
vt 0.375000 0.500000
vt 0.125000 0.750000
vt 0.125000 0.500000
vt 0.875000 0.500000
vt 0.625000 0.750000
vt 0.625000 0.500000
vt 0.375000 0.500000
vt 0.125000 0.750000
vt 0.125000 0.500000
vt 0.875000 0.500000
vt 0.625000 0.750000
vt 0.625000 0.500000
vt 0.375000 0.500000
vt 0.125000 0.750000
vt 0.125000 0.500000
vt 0.875000 0.500000
vt 0.625000 0.750000
vt 0.625000 0.500000
vt 0.375000 0.750000
vt 0.875000 0.750000
vt 0.375000 0.750000
vt 0.875000 0.750000
vt 0.375000 0.750000
vt 0.875000 0.750000
vt 0.625000 0.250000
vt 0.875000 0.750000
vt 0.625000 0.250000
vt 0.875000 0.750000
vt 0.625000 0.250000
vt 0.875000 0.750000
vt 0.625000 0.250000
vt 0.875000 0.750000
vt 0.625000 1.000000
vt 0.625000 1.000000
vt 0.625000 1.000000
vt 0.625000 1.000000
vt 0.625000 1.000000
vt 0.625000 1.000000
vt 0.625000 1.000000
vt 0.625000 1.000000
vt 0.625000 1.000000
vt 0.625000 1.000000
vt 0.625000 1.000000
vt 0.625000 1.000000
vt 0.375000 0.750000
vt 0.875000 0.750000
vt 0.375000 0.750000
vt 0.875000 0.750000
vt 0.375000 0.750000
vt 0.875000 0.750000
vn 0.0000 -1.0000 0.0000
vn 0.0000 1.0000 0.0000
vn -1.0000 0.0000 0.0000
vn 1.0000 0.0000 0.0000
vn 0.0000 0.0000 -1.0000
vn 0.0000 0.0000 1.0000
s off
f 7/1/1 1/2/1 3/3/1
f 4/4/2 6/5/2 8/6/2
f 15/7/1 9/8/1 11/9/1
f 12/10/2 14/11/2 16/12/2
f 23/13/1 17/14/1 19/15/1
f 20/16/2 22/17/2 24/18/2
f 26/19/3 27/20/3 25/21/3
f 32/22/4 29/23/4 31/24/4
f 31/24/1 25/25/1 27/26/1
f 28/27/2 30/28/2 32/22/2
f 34/29/3 35/30/3 33/31/3
f 40/32/4 37/33/4 39/34/4
f 39/34/1 33/35/1 35/36/1
f 36/37/2 38/38/2 40/32/2
f 42/39/3 43/40/3 41/41/3
f 48/42/4 45/43/4 47/44/4
f 47/44/1 41/45/1 43/46/1
f 44/47/2 46/48/2 48/42/2
f 50/49/3 51/50/3 49/51/3
f 56/52/4 53/53/4 55/54/4
f 55/54/1 49/55/1 51/56/1
f 52/57/2 54/58/2 56/52/2
f 58/59/3 59/60/3 57/61/3
f 60/62/5 63/63/5 59/60/5
f 64/64/4 61/65/4 63/63/4
f 62/66/6 57/67/6 61/65/6
f 66/68/3 67/69/3 65/70/3
f 68/71/5 71/72/5 67/69/5
f 72/73/4 69/74/4 71/72/4
f 70/75/6 65/76/6 69/74/6
f 74/77/3 75/78/3 73/79/3
f 76/80/5 79/81/5 75/78/5
f 80/82/4 77/83/4 79/81/4
f 78/84/6 73/85/6 77/83/6
f 82/86/3 83/87/3 81/88/3
f 84/89/5 87/90/5 83/87/5
f 88/91/4 85/92/4 87/90/4
f 86/93/6 81/94/6 85/92/6
f 90/95/3 91/96/3 89/97/3
f 92/98/5 95/99/5 91/96/5
f 96/100/4 93/101/4 95/99/4
f 94/102/6 89/103/6 93/101/6
f 98/104/3 99/105/3 97/106/3
f 100/107/5 103/108/5 99/105/5
f 104/109/4 101/110/4 103/108/4
f 102/111/6 97/112/6 101/110/6
f 106/113/3 107/114/3 105/115/3
f 108/116/5 111/117/5 107/114/5
f 112/118/4 109/119/4 111/117/4
f 110/120/6 105/121/6 109/119/6
f 114/122/3 115/123/3 113/124/3
f 116/125/5 119/126/5 115/123/5
f 120/127/4 117/128/4 119/126/4
f 118/129/6 113/130/6 117/128/6
f 122/131/3 123/132/3 121/133/3
f 124/134/5 127/135/5 123/132/5
f 128/136/4 125/137/4 127/135/4
f 126/138/6 121/139/6 125/137/6
f 130/140/3 131/141/3 129/142/3
f 132/143/5 135/144/5 131/141/5
f 136/145/4 133/146/4 135/144/4
f 134/147/6 129/148/6 133/146/6
f 138/149/3 139/150/3 137/151/3
f 140/152/5 143/153/5 139/150/5
f 144/154/4 141/155/4 143/153/4
f 142/156/6 137/157/6 141/155/6
f 146/158/3 147/159/3 145/160/3
f 148/161/5 151/162/5 147/159/5
f 152/163/4 149/164/4 151/162/4
f 150/165/6 145/166/6 149/164/6
f 159/167/1 153/168/1 155/169/1
f 156/170/2 158/171/2 160/172/2
f 167/173/1 161/174/1 163/175/1
f 164/176/2 166/177/2 168/178/2
f 175/179/1 169/180/1 171/181/1
f 172/182/2 174/183/2 176/184/2
f 7/1/1 5/185/1 1/2/1
f 4/4/2 2/186/2 6/5/2
f 15/7/1 13/187/1 9/8/1
f 12/10/2 10/188/2 14/11/2
f 23/13/1 21/189/1 17/14/1
f 20/16/2 18/190/2 22/17/2
f 26/19/3 28/191/3 27/20/3
f 32/22/4 30/28/4 29/23/4
f 31/24/1 29/23/1 25/25/1
f 28/27/2 26/192/2 30/28/2
f 34/29/3 36/193/3 35/30/3
f 40/32/4 38/38/4 37/33/4
f 39/34/1 37/33/1 33/35/1
f 36/37/2 34/194/2 38/38/2
f 42/39/3 44/195/3 43/40/3
f 48/42/4 46/48/4 45/43/4
f 47/44/1 45/43/1 41/45/1
f 44/47/2 42/196/2 46/48/2
f 50/49/3 52/197/3 51/50/3
f 56/52/4 54/58/4 53/53/4
f 55/54/1 53/53/1 49/55/1
f 52/57/2 50/198/2 54/58/2
f 58/59/3 60/62/3 59/60/3
f 60/62/5 64/64/5 63/63/5
f 64/64/4 62/66/4 61/65/4
f 62/66/6 58/199/6 57/67/6
f 66/68/3 68/71/3 67/69/3
f 68/71/5 72/73/5 71/72/5
f 72/73/4 70/75/4 69/74/4
f 70/75/6 66/200/6 65/76/6
f 74/77/3 76/80/3 75/78/3
f 76/80/5 80/82/5 79/81/5
f 80/82/4 78/84/4 77/83/4
f 78/84/6 74/201/6 73/85/6
f 82/86/3 84/89/3 83/87/3
f 84/89/5 88/91/5 87/90/5
f 88/91/4 86/93/4 85/92/4
f 86/93/6 82/202/6 81/94/6
f 90/95/3 92/98/3 91/96/3
f 92/98/5 96/100/5 95/99/5
f 96/100/4 94/102/4 93/101/4
f 94/102/6 90/203/6 89/103/6
f 98/104/3 100/107/3 99/105/3
f 100/107/5 104/109/5 103/108/5
f 104/109/4 102/111/4 101/110/4
f 102/111/6 98/204/6 97/112/6
f 106/113/3 108/116/3 107/114/3
f 108/116/5 112/118/5 111/117/5
f 112/118/4 110/120/4 109/119/4
f 110/120/6 106/205/6 105/121/6
f 114/122/3 116/125/3 115/123/3
f 116/125/5 120/127/5 119/126/5
f 120/127/4 118/129/4 117/128/4
f 118/129/6 114/206/6 113/130/6
f 122/131/3 124/134/3 123/132/3
f 124/134/5 128/136/5 127/135/5
f 128/136/4 126/138/4 125/137/4
f 126/138/6 122/207/6 121/139/6
f 130/140/3 132/143/3 131/141/3
f 132/143/5 136/145/5 135/144/5
f 136/145/4 134/147/4 133/146/4
f 134/147/6 130/208/6 129/148/6
f 138/149/3 140/152/3 139/150/3
f 140/152/5 144/154/5 143/153/5
f 144/154/4 142/156/4 141/155/4
f 142/156/6 138/209/6 137/157/6
f 146/158/3 148/161/3 147/159/3
f 148/161/5 152/163/5 151/162/5
f 152/163/4 150/165/4 149/164/4
f 150/165/6 146/210/6 145/166/6
f 159/167/1 157/211/1 153/168/1
f 156/170/2 154/212/2 158/171/2
f 167/173/1 165/213/1 161/174/1
f 164/176/2 162/214/2 166/177/2
f 175/179/1 173/215/1 169/180/1
f 172/182/2 170/216/2 174/183/2
l 1 2
l 4 3
l 8 7
l 6 5
l 9 10
l 12 11
l 16 15
l 14 13
l 17 18
l 20 19
l 24 23
l 22 21
l 153 154
l 156 155
l 160 159
l 158 157
l 161 162
l 164 163
l 168 167
l 166 165
l 169 170
l 172 171
l 176 175
l 174 173
