# Blender v3.4.1 OBJ File: 'station.blend'
# www.blender.org
o Grate_1_lod_2_Cube.028
v -0.112500 -0.004529 0.512651
v -0.112500 0.004529 0.512651
v -0.137500 -0.004529 0.512651
v -0.137500 0.004529 0.512651
v -0.112500 -0.004529 -0.511895
v -0.112500 0.004529 -0.511895
v -0.137500 -0.004529 -0.511895
v -0.137500 0.004529 -0.511895
v 0.137500 -0.004529 0.512651
v 0.137500 0.004529 0.512651
v 0.112500 -0.004529 0.512651
v 0.112500 0.004529 0.512651
v 0.137500 -0.004529 -0.512213
v 0.137500 0.004529 -0.512213
v 0.112500 -0.004529 -0.512213
v 0.112500 0.004529 -0.512213
v -0.125000 -0.003145 0.262500
v -0.125000 -0.003145 0.237500
v -0.125000 0.003145 0.237500
v 0.125000 -0.003145 0.262500
v 0.125000 0.003145 0.262500
v 0.125000 -0.003145 0.237500
v 0.125000 0.003145 0.237500
v -0.125000 -0.003145 0.512500
v -0.125000 0.003145 0.512500
v -0.125000 -0.003145 0.487500
v -0.125000 0.003145 0.487500
v 0.125000 -0.003145 0.512500
v 0.125000 0.003145 0.512500
v 0.125000 -0.003145 0.487500
v 0.125000 0.003145 0.487500
v -0.108682 -0.001572 0.501359
v -0.108682 0.001572 0.501359
v -0.126359 -0.001572 0.483682
v -0.126359 0.001572 0.483682
v 0.126359 -0.001572 0.266318
v 0.126359 0.001572 0.266318
v 0.108682 -0.001572 0.248641
v 0.108682 0.001572 0.248641
v -0.125000 -0.003145 0.012500
v -0.125000 0.003145 0.012500
v -0.125000 -0.003145 -0.012500
v -0.125000 0.003145 -0.012500
v 0.125000 -0.003145 0.012500
v 0.125000 -0.003145 -0.012500
v 0.125000 0.003145 -0.012500
v -0.125000 0.003145 0.262500
v -0.108682 -0.001572 0.251359
v -0.108682 0.001572 0.251359
v -0.126359 -0.001572 0.233682
v -0.126359 0.001572 0.233682
v 0.126359 -0.001572 0.016318
v 0.126359 0.001572 0.016318
v 0.108682 -0.001572 -0.001359
v 0.108682 0.001572 -0.001359
v -0.125000 -0.003145 -0.237500
v -0.125000 0.003145 -0.237500
v -0.125000 -0.003145 -0.262500
v -0.125000 0.003145 -0.262500
v 0.125000 0.003145 -0.237500
v 0.125000 -0.003145 -0.262500
v 0.125000 0.003145 -0.262500
v 0.125000 0.003145 0.012500
v -0.108682 -0.001572 0.001359
v -0.108682 0.001572 0.001359
v -0.126359 -0.001572 -0.016318
v -0.126359 0.001572 -0.016318
v 0.126359 -0.001572 -0.233682
v 0.126359 0.001572 -0.233682
v 0.108682 -0.001572 -0.251359
v 0.108682 0.001572 -0.251359
v -0.125000 -0.003145 -0.487500
v -0.125000 0.003145 -0.487500
v -0.125000 -0.003145 -0.512500
v -0.125000 0.003145 -0.512500
v 0.125000 -0.003145 -0.487500
v 0.125000 0.003145 -0.487500
v 0.125000 -0.003145 -0.512500
v 0.125000 0.003145 -0.512500
v 0.125000 -0.003145 -0.237500
v -0.108682 -0.001572 -0.248641
v -0.108682 0.001572 -0.248641
v -0.126359 -0.001572 -0.266318
v -0.126359 0.001572 -0.266318
v 0.126359 -0.001572 -0.483682
v 0.126359 0.001572 -0.483682
v 0.108682 -0.001572 -0.501359
v 0.108682 0.001572 -0.501359
vt 0.375000 0.500000
vt 0.125000 0.750000
vt 0.125000 0.500000
vt 0.625000 0.500000
vt 0.875000 0.750000
vt 0.625000 0.750000
vt 0.375000 0.500000
vt 0.125000 0.750000
vt 0.125000 0.500000
vt 0.625000 0.500000
vt 0.875000 0.750000
vt 0.625000 0.750000
vt 0.375000 0.500000
vt 0.125000 0.750000
vt 0.125000 0.500000
vt 0.875000 0.500000
vt 0.625000 0.750000
vt 0.625000 0.500000
vt 0.375000 0.500000
vt 0.125000 0.750000
vt 0.125000 0.500000
vt 0.875000 0.500000
vt 0.625000 0.750000
vt 0.625000 0.500000
vt 0.375000 0.500000
vt 0.125000 0.750000
vt 0.125000 0.500000
vt 0.625000 0.500000
vt 0.875000 0.750000
vt 0.625000 0.750000
vt 0.375000 0.500000
vt 0.125000 0.750000
vt 0.125000 0.500000
vt 0.875000 0.500000
vt 0.625000 0.750000
vt 0.625000 0.500000
vt 0.375000 0.500000
vt 0.125000 0.750000
vt 0.125000 0.500000
vt 0.625000 0.500000
vt 0.875000 0.750000
vt 0.625000 0.750000
vt 0.375000 0.500000
vt 0.125000 0.750000
vt 0.125000 0.500000
vt 0.875000 0.500000
vt 0.625000 0.750000
vt 0.625000 0.500000
vt 0.375000 0.500000
vt 0.125000 0.750000
vt 0.125000 0.500000
vt 0.625000 0.500000
vt 0.875000 0.750000
vt 0.625000 0.750000
vt 0.375000 0.500000
vt 0.125000 0.750000
vt 0.125000 0.500000
vt 0.875000 0.500000
vt 0.625000 0.750000
vt 0.625000 0.500000
vt 0.375000 0.500000
vt 0.125000 0.750000
vt 0.125000 0.500000
vt 0.625000 0.500000
vt 0.875000 0.750000
vt 0.625000 0.750000
vt 0.375000 0.750000
vt 0.875000 0.500000
vt 0.375000 0.750000
vt 0.875000 0.500000
vt 0.375000 0.750000
vt 0.875000 0.750000
vt 0.375000 0.750000
vt 0.875000 0.750000
vt 0.375000 0.750000
vt 0.875000 0.500000
vt 0.375000 0.750000
vt 0.875000 0.750000
vt 0.375000 0.750000
vt 0.875000 0.500000
vt 0.375000 0.750000
vt 0.875000 0.750000
vt 0.375000 0.750000
vt 0.875000 0.500000
vt 0.375000 0.750000
vt 0.875000 0.750000
vt 0.375000 0.750000
vt 0.875000 0.500000
vn 0.0000 -1.0000 -0.0000
vn 0.0000 1.0000 0.0000
s off
f 7/1/1 1/2/1 3/3/1
f 8/4/2 2/5/2 6/6/2
f 15/7/1 9/8/1 11/9/1
f 16/10/2 10/11/2 14/12/2
f 22/13/1 17/14/1 18/15/1
f 19/16/2 21/17/2 23/18/2
f 30/19/1 24/20/1 26/21/1
f 27/22/2 29/23/2 31/24/2
f 38/25/1 32/26/1 34/27/1
f 39/28/2 33/29/2 37/30/2
f 45/31/1 40/32/1 42/33/1
f 43/34/2 63/35/2 46/36/2
f 54/37/1 48/38/1 50/39/1
f 55/40/2 49/41/2 53/42/2
f 61/43/1 56/44/1 58/45/1
f 59/46/2 60/47/2 62/48/2
f 70/49/1 64/50/1 66/51/1
f 71/52/2 65/53/2 69/54/2
f 78/55/1 72/56/1 74/57/1
f 75/58/2 77/59/2 79/60/2
f 87/61/1 81/62/1 83/63/1
f 88/64/2 82/65/2 86/66/2
f 7/1/1 5/67/1 1/2/1
f 8/4/2 4/68/2 2/5/2
f 15/7/1 13/69/1 9/8/1
f 16/10/2 12/70/2 10/11/2
f 22/13/1 20/71/1 17/14/1
f 19/16/2 47/72/2 21/17/2
f 30/19/1 28/73/1 24/20/1
f 27/22/2 25/74/2 29/23/2
f 38/25/1 36/75/1 32/26/1
f 39/28/2 35/76/2 33/29/2
f 45/31/1 44/77/1 40/32/1
f 43/34/2 41/78/2 63/35/2
f 54/37/1 52/79/1 48/38/1
f 55/40/2 51/80/2 49/41/2
f 61/43/1 80/81/1 56/44/1
f 59/46/2 57/82/2 60/47/2
f 70/49/1 68/83/1 64/50/1
f 71/52/2 67/84/2 65/53/2
f 78/55/1 76/85/1 72/56/1
f 75/58/2 73/86/2 77/59/2
f 87/61/1 85/87/1 81/62/1
f 88/64/2 84/88/2 82/65/2
