# Blender v3.4.1 OBJ File: 'station.blend'
# www.blender.org
o Grate_1_Cube.322
v -0.125000 -0.012500 0.262500
v -0.125000 -0.012500 0.237500
v -0.125000 0.012500 0.237500
v 0.125000 -0.012500 0.262500
v 0.125000 0.012500 0.262500
v 0.125000 -0.012500 0.237500
v 0.125000 0.012500 0.237500
v -0.125000 -0.012500 0.512500
v -0.125000 0.012500 0.512500
v -0.125000 -0.012500 0.487500
v -0.125000 0.012500 0.487500
v 0.125000 -0.012500 0.512500
v 0.125000 0.012500 0.512500
v 0.125000 -0.012500 0.487500
v 0.125000 0.012500 0.487500
v -0.108682 -0.006250 0.501359
v -0.108682 0.006250 0.501359
v -0.126359 -0.006250 0.483682
v -0.126359 0.006250 0.483682
v 0.126359 -0.006250 0.266318
v 0.126359 0.006250 0.266318
v 0.108682 -0.006250 0.248641
v 0.108682 0.006250 0.248641
v -0.125000 -0.012500 0.012500
v -0.125000 0.012500 0.012500
v -0.125000 -0.012500 -0.012500
v -0.125000 0.012500 -0.012500
v 0.125000 -0.012500 0.012500
v 0.125000 -0.012500 -0.012500
v 0.125000 0.012500 -0.012500
v -0.125000 0.012500 0.262500
v -0.108682 -0.006250 0.251359
v -0.108682 0.006250 0.251359
v -0.126359 -0.006250 0.233682
v -0.126359 0.006250 0.233682
v 0.126359 -0.006250 0.016318
v 0.126359 0.006250 0.016318
v 0.108682 -0.006250 -0.001359
v 0.108682 0.006250 -0.001359
v -0.125000 -0.012500 -0.237500
v -0.125000 0.012500 -0.237500
v -0.125000 -0.012500 -0.262500
v -0.125000 0.012500 -0.262500
v 0.125000 0.012500 -0.237500
v 0.125000 -0.012500 -0.262500
v 0.125000 0.012500 -0.262500
v 0.125000 0.012500 0.012500
v -0.108682 -0.006250 0.001359
v -0.108682 0.006250 0.001359
v -0.126359 -0.006250 -0.016318
v -0.126359 0.006250 -0.016318
v 0.126359 -0.006250 -0.233682
v 0.126359 0.006250 -0.233682
v 0.108682 -0.006250 -0.251359
v 0.108682 0.006250 -0.251359
v -0.125000 -0.012500 -0.487500
v -0.125000 0.012500 -0.487500
v -0.125000 -0.012500 -0.512500
v -0.125000 0.012500 -0.512500
v 0.125000 -0.012500 -0.487500
v 0.125000 0.012500 -0.487500
v 0.125000 -0.012500 -0.512500
v 0.125000 0.012500 -0.512500
v 0.125000 -0.012500 -0.237500
v -0.108682 -0.006250 -0.248641
v -0.108682 0.006250 -0.248641
v -0.126359 -0.006250 -0.266318
v -0.126359 0.006250 -0.266318
v 0.126359 -0.006250 -0.483682
v 0.126359 0.006250 -0.483682
v 0.108682 -0.006250 -0.501359
v 0.108682 0.006250 -0.501359
v 0.113565 -0.012761 0.512508
v 0.113565 0.012761 0.512508
v 0.113565 -0.012761 -0.512330
v 0.113565 0.012761 -0.512330
v 0.137157 -0.012761 0.512508
v 0.137157 0.012761 0.512508
v 0.137157 -0.012761 -0.512330
v 0.137157 0.012761 -0.512330
v -0.137642 -0.012761 0.512508
v -0.137642 0.012761 0.512508
v -0.137642 -0.012761 -0.512330
v -0.137642 0.012761 -0.512330
v -0.114049 -0.012761 0.512508
v -0.114049 0.012761 0.512508
v -0.114049 -0.012761 -0.512330
v -0.114049 0.012761 -0.512330
vt 0.625000 0.000000
vt 0.375000 0.250000
vt 0.375000 0.000000
vt 0.625000 0.250000
vt 0.375000 0.500000
vt 0.625000 0.500000
vt 0.375000 0.750000
vt 0.625000 0.750000
vt 0.375000 1.000000
vt 0.125000 0.750000
vt 0.125000 0.500000
vt 0.875000 0.500000
vt 0.625000 0.000000
vt 0.375000 0.250000
vt 0.375000 0.000000
vt 0.625000 0.250000
vt 0.375000 0.500000
vt 0.625000 0.500000
vt 0.375000 0.750000
vt 0.625000 0.750000
vt 0.375000 1.000000
vt 0.125000 0.750000
vt 0.125000 0.500000
vt 0.875000 0.500000
vt 0.625000 0.250000
vt 0.375000 0.500000
vt 0.375000 0.250000
vt 0.625000 0.750000
vt 0.375000 1.000000
vt 0.375000 0.750000
vt 0.125000 0.750000
vt 0.125000 0.500000
vt 0.625000 0.500000
vt 0.875000 0.750000
vt 0.625000 0.000000
vt 0.375000 0.250000
vt 0.375000 0.000000
vt 0.625000 0.250000
vt 0.375000 0.500000
vt 0.625000 0.500000
vt 0.375000 0.750000
vt 0.625000 0.750000
vt 0.375000 1.000000
vt 0.125000 0.750000
vt 0.125000 0.500000
vt 0.875000 0.500000
vt 0.625000 0.250000
vt 0.375000 0.500000
vt 0.375000 0.250000
vt 0.625000 0.750000
vt 0.375000 1.000000
vt 0.375000 0.750000
vt 0.125000 0.750000
vt 0.125000 0.500000
vt 0.625000 0.500000
vt 0.875000 0.750000
vt 0.625000 0.000000
vt 0.375000 0.250000
vt 0.375000 0.000000
vt 0.625000 0.250000
vt 0.375000 0.500000
vt 0.625000 0.500000
vt 0.375000 0.750000
vt 0.625000 0.750000
vt 0.375000 1.000000
vt 0.125000 0.750000
vt 0.125000 0.500000
vt 0.875000 0.500000
vt 0.625000 0.250000
vt 0.375000 0.500000
vt 0.375000 0.250000
vt 0.625000 0.750000
vt 0.375000 1.000000
vt 0.375000 0.750000
vt 0.125000 0.750000
vt 0.125000 0.500000
vt 0.625000 0.500000
vt 0.875000 0.750000
vt 0.625000 0.000000
vt 0.375000 0.250000
vt 0.375000 0.000000
vt 0.625000 0.250000
vt 0.375000 0.500000
vt 0.625000 0.500000
vt 0.375000 0.750000
vt 0.625000 0.750000
vt 0.375000 1.000000
vt 0.125000 0.750000
vt 0.125000 0.500000
vt 0.875000 0.500000
vt 0.625000 0.250000
vt 0.375000 0.500000
vt 0.375000 0.250000
vt 0.625000 0.750000
vt 0.375000 1.000000
vt 0.375000 0.750000
vt 0.125000 0.750000
vt 0.125000 0.500000
vt 0.625000 0.500000
vt 0.875000 0.750000
vt 0.625000 0.000000
vt 0.375000 0.250000
vt 0.375000 0.000000
vt 0.625000 0.250000
vt 0.375000 0.500000
vt 0.625000 0.500000
vt 0.375000 0.750000
vt 0.625000 0.750000
vt 0.375000 1.000000
vt 0.125000 0.750000
vt 0.125000 0.500000
vt 0.875000 0.500000
vt 0.625000 0.000000
vt 0.375000 0.250000
vt 0.375000 0.000000
vt 0.625000 0.250000
vt 0.375000 0.500000
vt 0.625000 0.500000
vt 0.375000 0.750000
vt 0.625000 0.750000
vt 0.375000 1.000000
vt 0.125000 0.750000
vt 0.125000 0.500000
vt 0.875000 0.500000
vt 0.625000 1.000000
vt 0.875000 0.750000
vt 0.625000 1.000000
vt 0.875000 0.750000
vt 0.625000 1.000000
vt 0.875000 0.500000
vt 0.625000 1.000000
vt 0.875000 0.750000
vt 0.625000 1.000000
vt 0.875000 0.500000
vt 0.625000 1.000000
vt 0.875000 0.750000
vt 0.625000 1.000000
vt 0.875000 0.500000
vt 0.625000 1.000000
vt 0.875000 0.750000
vt 0.625000 1.000000
vt 0.875000 0.500000
vt 0.625000 1.000000
vt 0.875000 0.750000
vt 0.625000 1.000000
vt 0.875000 0.750000
vn -1.0000 -0.0000 0.0000
vn 0.0000 0.0000 -1.0000
vn 1.0000 0.0000 0.0000
vn 0.0000 0.0000 1.0000
vn 0.0000 -1.0000 0.0000
vn 0.0000 1.0000 -0.0000
vn -0.7071 0.0000 -0.7071
vn 0.7071 0.0000 0.7071
s off
f 31/1/1 2/2/1 1/3/1
f 3/4/2 6/5/2 2/2/2
f 7/6/3 4/7/3 6/5/3
f 5/8/4 1/9/4 4/7/4
f 6/5/5 1/10/5 2/11/5
f 3/12/6 5/8/6 7/6/6
f 9/13/1 10/14/1 8/15/1
f 11/16/2 14/17/2 10/14/2
f 15/18/3 12/19/3 14/17/3
f 13/20/4 8/21/4 12/19/4
f 14/17/5 8/22/5 10/23/5
f 11/24/6 13/20/6 15/18/6
f 19/25/7 22/26/7 18/27/7
f 21/28/8 16/29/8 20/30/8
f 22/26/5 16/31/5 18/32/5
f 23/33/6 17/34/6 21/28/6
f 25/35/1 26/36/1 24/37/1
f 27/38/2 29/39/2 26/36/2
f 30/40/3 28/41/3 29/39/3
f 47/42/4 24/43/4 28/41/4
f 29/39/5 24/44/5 26/45/5
f 27/46/6 47/42/6 30/40/6
f 35/47/7 38/48/7 34/49/7
f 37/50/8 32/51/8 36/52/8
f 38/48/5 32/53/5 34/54/5
f 39/55/6 33/56/6 37/50/6
f 41/57/1 42/58/1 40/59/1
f 43/60/2 45/61/2 42/58/2
f 46/62/3 64/63/3 45/61/3
f 44/64/4 40/65/4 64/63/4
f 45/61/5 40/66/5 42/67/5
f 43/68/6 44/64/6 46/62/6
f 51/69/7 54/70/7 50/71/7
f 53/72/8 48/73/8 52/74/8
f 54/70/5 48/75/5 50/76/5
f 55/77/6 49/78/6 53/72/6
f 57/79/1 58/80/1 56/81/1
f 59/82/2 62/83/2 58/80/2
f 63/84/3 60/85/3 62/83/3
f 61/86/4 56/87/4 60/85/4
f 62/83/5 56/88/5 58/89/5
f 59/90/6 61/86/6 63/84/6
f 68/91/7 71/92/7 67/93/7
f 70/94/8 65/95/8 69/96/8
f 71/92/5 65/97/5 67/98/5
f 72/99/6 66/100/6 70/94/6
f 74/101/1 75/102/1 73/103/1
f 76/104/2 79/105/2 75/102/2
f 80/106/3 77/107/3 79/105/3
f 78/108/4 73/109/4 77/107/4
f 79/105/5 73/110/5 75/111/5
f 76/112/6 78/108/6 80/106/6
f 82/113/1 83/114/1 81/115/1
f 84/116/2 87/117/2 83/114/2
f 88/118/3 85/119/3 87/117/3
f 86/120/4 81/121/4 85/119/4
f 87/117/5 81/122/5 83/123/5
f 84/124/6 86/120/6 88/118/6
f 31/1/1 3/4/1 2/2/1
f 3/4/2 7/6/2 6/5/2
f 7/6/3 5/8/3 4/7/3
f 5/8/4 31/125/4 1/9/4
f 6/5/5 4/7/5 1/10/5
f 3/12/6 31/126/6 5/8/6
f 9/13/1 11/16/1 10/14/1
f 11/16/2 15/18/2 14/17/2
f 15/18/3 13/20/3 12/19/3
f 13/20/4 9/127/4 8/21/4
f 14/17/5 12/19/5 8/22/5
f 11/24/6 9/128/6 13/20/6
f 19/25/7 23/33/7 22/26/7
f 21/28/8 17/129/8 16/29/8
f 22/26/5 20/30/5 16/31/5
f 23/33/6 19/130/6 17/34/6
f 25/35/1 27/38/1 26/36/1
f 27/38/2 30/40/2 29/39/2
f 30/40/3 47/42/3 28/41/3
f 47/42/4 25/131/4 24/43/4
f 29/39/5 28/41/5 24/44/5
f 27/46/6 25/132/6 47/42/6
f 35/47/7 39/55/7 38/48/7
f 37/50/8 33/133/8 32/51/8
f 38/48/5 36/52/5 32/53/5
f 39/55/6 35/134/6 33/56/6
f 41/57/1 43/60/1 42/58/1
f 43/60/2 46/62/2 45/61/2
f 46/62/3 44/64/3 64/63/3
f 44/64/4 41/135/4 40/65/4
f 45/61/5 64/63/5 40/66/5
f 43/68/6 41/136/6 44/64/6
f 51/69/7 55/77/7 54/70/7
f 53/72/8 49/137/8 48/73/8
f 54/70/5 52/74/5 48/75/5
f 55/77/6 51/138/6 49/78/6
f 57/79/1 59/82/1 58/80/1
f 59/82/2 63/84/2 62/83/2
f 63/84/3 61/86/3 60/85/3
f 61/86/4 57/139/4 56/87/4
f 62/83/5 60/85/5 56/88/5
f 59/90/6 57/140/6 61/86/6
f 68/91/7 72/99/7 71/92/7
f 70/94/8 66/141/8 65/95/8
f 71/92/5 69/96/5 65/97/5
f 72/99/6 68/142/6 66/100/6
f 74/101/1 76/104/1 75/102/1
f 76/104/2 80/106/2 79/105/2
f 80/106/3 78/108/3 77/107/3
f 78/108/4 74/143/4 73/109/4
f 79/105/5 77/107/5 73/110/5
f 76/112/6 74/144/6 78/108/6
f 82/113/1 84/116/1 83/114/1
f 84/116/2 88/118/2 87/117/2
f 88/118/3 86/120/3 85/119/3
f 86/120/4 82/145/4 81/121/4
f 87/117/5 85/119/5 81/122/5
f 84/124/6 82/146/6 86/120/6
