# Blender v3.4.1 OBJ File: 'station.blend'
# www.blender.org
o Grate_1_Cube.322
v -0.112500 -0.012500 0.512651
v -0.112500 0.012500 0.512651
v -0.137500 -0.012500 0.512651
v -0.137500 0.012500 0.512651
v -0.112500 -0.012500 0.237349
v -0.112500 0.012500 0.237349
v -0.137500 -0.012500 0.237349
v -0.137500 0.012500 0.237349
v 0.137500 -0.012500 0.512651
v 0.137500 0.012500 0.512651
v 0.112500 -0.012500 0.512651
v 0.112500 0.012500 0.512651
v 0.137500 -0.012500 0.237349
v 0.137500 0.012500 0.237349
v 0.112500 -0.012500 0.237349
v 0.112500 0.012500 0.237349
v -0.125000 -0.012500 0.262500
v -0.125000 0.012500 0.262500
v -0.125000 -0.012500 0.237500
v -0.125000 0.012500 0.237500
v 0.125000 -0.012500 0.262500
v 0.125000 0.012500 0.262500
v 0.125000 -0.012500 0.237500
v 0.125000 0.012500 0.237500
v -0.125000 -0.012500 0.512500
v -0.125000 0.012500 0.512500
v -0.125000 -0.012500 0.487500
v -0.125000 0.012500 0.487500
v 0.125000 -0.012500 0.512500
v 0.125000 0.012500 0.512500
v 0.125000 -0.012500 0.487500
v 0.125000 0.012500 0.487500
v -0.108682 -0.006250 0.501359
v -0.108682 0.006250 0.501359
v -0.126359 -0.006250 0.483682
v -0.126359 0.006250 0.483682
v 0.126359 -0.006250 0.266318
v 0.126359 0.006250 0.266318
v 0.108682 -0.006250 0.248641
v 0.108682 0.006250 0.248641
v -0.112500 -0.012500 0.262651
v -0.112500 0.012500 0.262651
v -0.137500 -0.012500 0.262651
v -0.137500 0.012500 0.262651
v -0.112500 -0.012500 -0.012651
v -0.112500 0.012500 -0.012651
v -0.137500 -0.012500 -0.012651
v -0.137500 0.012500 -0.012651
v 0.137500 -0.012500 0.262651
v 0.137500 0.012500 0.262651
v 0.112500 -0.012500 0.262651
v 0.112500 0.012500 0.262651
v 0.137500 -0.012500 -0.012651
v 0.137500 0.012500 -0.012651
v 0.112500 -0.012500 -0.012651
v 0.112500 0.012500 -0.012651
v -0.125000 -0.012500 0.012500
v -0.125000 0.012500 0.012500
v -0.125000 -0.012500 -0.012500
v -0.125000 0.012500 -0.012500
v 0.125000 -0.012500 0.012500
v 0.125000 0.012500 0.012500
v 0.125000 -0.012500 -0.012500
v 0.125000 0.012500 -0.012500
v -0.125000 -0.012500 0.262500
v -0.125000 0.012500 0.262500
v -0.125000 -0.012500 0.237500
v -0.125000 0.012500 0.237500
v 0.125000 -0.012500 0.262500
v 0.125000 0.012500 0.262500
v 0.125000 -0.012500 0.237500
v 0.125000 0.012500 0.237500
v -0.108682 -0.006250 0.251359
v -0.108682 0.006250 0.251359
v -0.126359 -0.006250 0.233682
v -0.126359 0.006250 0.233682
v 0.126359 -0.006250 0.016318
v 0.126359 0.006250 0.016318
v 0.108682 -0.006250 -0.001359
v 0.108682 0.006250 -0.001359
v -0.112500 -0.012500 0.012651
v -0.112500 0.012500 0.012651
v -0.137500 -0.012500 0.012651
v -0.137500 0.012500 0.012651
v -0.112500 -0.012500 -0.262651
v -0.112500 0.012500 -0.262651
v -0.137500 -0.012500 -0.262651
v -0.137500 0.012500 -0.262651
v 0.137500 -0.012500 0.012651
v 0.137500 0.012500 0.012651
v 0.112500 -0.012500 0.012651
v 0.112500 0.012500 0.012651
v 0.137500 -0.012500 -0.262651
v 0.137500 0.012500 -0.262651
v 0.112500 -0.012500 -0.262651
v 0.112500 0.012500 -0.262651
v -0.125000 -0.012500 -0.237500
v -0.125000 0.012500 -0.237500
v -0.125000 -0.012500 -0.262500
v -0.125000 0.012500 -0.262500
v 0.125000 -0.012500 -0.237500
v 0.125000 0.012500 -0.237500
v 0.125000 -0.012500 -0.262500
v 0.125000 0.012500 -0.262500
v -0.125000 -0.012500 0.012500
v -0.125000 0.012500 0.012500
v -0.125000 -0.012500 -0.012500
v -0.125000 0.012500 -0.012500
v 0.125000 -0.012500 0.012500
v 0.125000 0.012500 0.012500
v 0.125000 -0.012500 -0.012500
v 0.125000 0.012500 -0.012500
v -0.108682 -0.006250 0.001359
v -0.108682 0.006250 0.001359
v -0.126359 -0.006250 -0.016318
v -0.126359 0.006250 -0.016318
v 0.126359 -0.006250 -0.233682
v 0.126359 0.006250 -0.233682
v 0.108682 -0.006250 -0.251359
v 0.108682 0.006250 -0.251359
v -0.112500 -0.012500 -0.237349
v -0.112500 0.012500 -0.237349
v -0.137500 -0.012500 -0.237349
v -0.137500 0.012500 -0.237349
v -0.112500 -0.012500 -0.512651
v -0.112500 0.012500 -0.512651
v -0.137500 -0.012500 -0.512651
v -0.137500 0.012500 -0.512651
v 0.137500 -0.012500 -0.237349
v 0.137500 0.012500 -0.237349
v 0.112500 -0.012500 -0.237349
v 0.112500 0.012500 -0.237349
v 0.137500 -0.012500 -0.512651
v 0.137500 0.012500 -0.512651
v 0.112500 -0.012500 -0.512651
v 0.112500 0.012500 -0.512651
v -0.125000 -0.012500 -0.487500
v -0.125000 0.012500 -0.487500
v -0.125000 -0.012500 -0.512500
v -0.125000 0.012500 -0.512500
v 0.125000 -0.012500 -0.487500
v 0.125000 0.012500 -0.487500
v 0.125000 -0.012500 -0.512500
v 0.125000 0.012500 -0.512500
v -0.125000 -0.012500 -0.237500
v -0.125000 0.012500 -0.237500
v -0.125000 -0.012500 -0.262500
v -0.125000 0.012500 -0.262500
v 0.125000 -0.012500 -0.237500
v 0.125000 0.012500 -0.237500
v 0.125000 -0.012500 -0.262500
v 0.125000 0.012500 -0.262500
v -0.108682 -0.006250 -0.248641
v -0.108682 0.006250 -0.248641
v -0.126359 -0.006250 -0.266318
v -0.126359 0.006250 -0.266318
v 0.126359 -0.006250 -0.483682
v 0.126359 0.006250 -0.483682
v 0.108682 -0.006250 -0.501359
v 0.108682 0.006250 -0.501359
vt 0.625000 0.000000
vt 0.375000 0.250000
vt 0.375000 0.000000
vt 0.625000 0.250000
vt 0.375000 0.500000
vt 0.625000 0.500000
vt 0.375000 0.750000
vt 0.625000 0.750000
vt 0.375000 1.000000
vt 0.125000 0.750000
vt 0.125000 0.500000
vt 0.875000 0.500000
vt 0.625000 0.000000
vt 0.375000 0.250000
vt 0.375000 0.000000
vt 0.625000 0.250000
vt 0.375000 0.500000
vt 0.625000 0.500000
vt 0.375000 0.750000
vt 0.625000 0.750000
vt 0.375000 1.000000
vt 0.125000 0.750000
vt 0.125000 0.500000
vt 0.875000 0.500000
vt 0.625000 0.000000
vt 0.375000 0.250000
vt 0.375000 0.000000
vt 0.625000 0.250000
vt 0.375000 0.500000
vt 0.625000 0.500000
vt 0.375000 0.750000
vt 0.625000 0.750000
vt 0.375000 1.000000
vt 0.125000 0.750000
vt 0.125000 0.500000
vt 0.875000 0.500000
vt 0.625000 0.000000
vt 0.375000 0.250000
vt 0.375000 0.000000
vt 0.625000 0.250000
vt 0.375000 0.500000
vt 0.625000 0.500000
vt 0.375000 0.750000
vt 0.625000 0.750000
vt 0.375000 1.000000
vt 0.125000 0.750000
vt 0.125000 0.500000
vt 0.875000 0.500000
vt 0.625000 0.250000
vt 0.375000 0.500000
vt 0.375000 0.250000
vt 0.625000 0.750000
vt 0.375000 1.000000
vt 0.375000 0.750000
vt 0.125000 0.750000
vt 0.125000 0.500000
vt 0.625000 0.500000
vt 0.875000 0.750000
vt 0.625000 0.000000
vt 0.375000 0.250000
vt 0.375000 0.000000
vt 0.625000 0.250000
vt 0.375000 0.500000
vt 0.625000 0.500000
vt 0.375000 0.750000
vt 0.625000 0.750000
vt 0.375000 1.000000
vt 0.125000 0.750000
vt 0.125000 0.500000
vt 0.875000 0.500000
vt 0.625000 0.000000
vt 0.375000 0.250000
vt 0.375000 0.000000
vt 0.625000 0.250000
vt 0.375000 0.500000
vt 0.625000 0.500000
vt 0.375000 0.750000
vt 0.625000 0.750000
vt 0.375000 1.000000
vt 0.125000 0.750000
vt 0.125000 0.500000
vt 0.875000 0.500000
vt 0.625000 0.000000
vt 0.375000 0.250000
vt 0.375000 0.000000
vt 0.625000 0.250000
vt 0.375000 0.500000
vt 0.625000 0.500000
vt 0.375000 0.750000
vt 0.625000 0.750000
vt 0.375000 1.000000
vt 0.125000 0.750000
vt 0.125000 0.500000
vt 0.875000 0.500000
vt 0.625000 0.000000
vt 0.375000 0.250000
vt 0.375000 0.000000
vt 0.625000 0.250000
vt 0.375000 0.500000
vt 0.625000 0.500000
vt 0.375000 0.750000
vt 0.625000 0.750000
vt 0.375000 1.000000
vt 0.125000 0.750000
vt 0.125000 0.500000
vt 0.875000 0.500000
vt 0.625000 0.250000
vt 0.375000 0.500000
vt 0.375000 0.250000
vt 0.625000 0.750000
vt 0.375000 1.000000
vt 0.375000 0.750000
vt 0.125000 0.750000
vt 0.125000 0.500000
vt 0.625000 0.500000
vt 0.875000 0.750000
vt 0.625000 0.000000
vt 0.375000 0.250000
vt 0.375000 0.000000
vt 0.625000 0.250000
vt 0.375000 0.500000
vt 0.625000 0.500000
vt 0.375000 0.750000
vt 0.625000 0.750000
vt 0.375000 1.000000
vt 0.125000 0.750000
vt 0.125000 0.500000
vt 0.875000 0.500000
vt 0.625000 0.000000
vt 0.375000 0.250000
vt 0.375000 0.000000
vt 0.625000 0.250000
vt 0.375000 0.500000
vt 0.625000 0.500000
vt 0.375000 0.750000
vt 0.625000 0.750000
vt 0.375000 1.000000
vt 0.125000 0.750000
vt 0.125000 0.500000
vt 0.875000 0.500000
vt 0.625000 0.000000
vt 0.375000 0.250000
vt 0.375000 0.000000
vt 0.625000 0.250000
vt 0.375000 0.500000
vt 0.625000 0.500000
vt 0.375000 0.750000
vt 0.625000 0.750000
vt 0.375000 1.000000
vt 0.125000 0.750000
vt 0.125000 0.500000
vt 0.875000 0.500000
vt 0.625000 0.000000
vt 0.375000 0.250000
vt 0.375000 0.000000
vt 0.625000 0.250000
vt 0.375000 0.500000
vt 0.625000 0.500000
vt 0.375000 0.750000
vt 0.625000 0.750000
vt 0.375000 1.000000
vt 0.125000 0.750000
vt 0.125000 0.500000
vt 0.875000 0.500000
vt 0.625000 0.250000
vt 0.375000 0.500000
vt 0.375000 0.250000
vt 0.625000 0.750000
vt 0.375000 1.000000
vt 0.375000 0.750000
vt 0.125000 0.750000
vt 0.125000 0.500000
vt 0.625000 0.500000
vt 0.875000 0.750000
vt 0.625000 0.000000
vt 0.375000 0.250000
vt 0.375000 0.000000
vt 0.625000 0.250000
vt 0.375000 0.500000
vt 0.625000 0.500000
vt 0.375000 0.750000
vt 0.625000 0.750000
vt 0.375000 1.000000
vt 0.125000 0.750000
vt 0.125000 0.500000
vt 0.875000 0.500000
vt 0.625000 0.000000
vt 0.375000 0.250000
vt 0.375000 0.000000
vt 0.625000 0.250000
vt 0.375000 0.500000
vt 0.625000 0.500000
vt 0.375000 0.750000
vt 0.625000 0.750000
vt 0.375000 1.000000
vt 0.125000 0.750000
vt 0.125000 0.500000
vt 0.875000 0.500000
vt 0.625000 0.000000
vt 0.375000 0.250000
vt 0.375000 0.000000
vt 0.625000 0.250000
vt 0.375000 0.500000
vt 0.625000 0.500000
vt 0.375000 0.750000
vt 0.625000 0.750000
vt 0.375000 1.000000
vt 0.125000 0.750000
vt 0.125000 0.500000
vt 0.875000 0.500000
vt 0.625000 0.000000
vt 0.375000 0.250000
vt 0.375000 0.000000
vt 0.625000 0.250000
vt 0.375000 0.500000
vt 0.625000 0.500000
vt 0.375000 0.750000
vt 0.625000 0.750000
vt 0.375000 1.000000
vt 0.125000 0.750000
vt 0.125000 0.500000
vt 0.875000 0.500000
vt 0.625000 0.250000
vt 0.375000 0.500000
vt 0.375000 0.250000
vt 0.625000 0.750000
vt 0.375000 1.000000
vt 0.375000 0.750000
vt 0.125000 0.750000
vt 0.125000 0.500000
vt 0.625000 0.500000
vt 0.875000 0.750000
vt 0.625000 1.000000
vt 0.875000 0.750000
vt 0.625000 1.000000
vt 0.875000 0.750000
vt 0.625000 1.000000
vt 0.875000 0.750000
vt 0.625000 1.000000
vt 0.875000 0.750000
vt 0.625000 1.000000
vt 0.875000 0.500000
vt 0.625000 1.000000
vt 0.875000 0.750000
vt 0.625000 1.000000
vt 0.875000 0.750000
vt 0.625000 1.000000
vt 0.875000 0.750000
vt 0.625000 1.000000
vt 0.875000 0.750000
vt 0.625000 1.000000
vt 0.875000 0.500000
vt 0.625000 1.000000
vt 0.875000 0.750000
vt 0.625000 1.000000
vt 0.875000 0.750000
vt 0.625000 1.000000
vt 0.875000 0.750000
vt 0.625000 1.000000
vt 0.875000 0.750000
vt 0.625000 1.000000
vt 0.875000 0.500000
vt 0.625000 1.000000
vt 0.875000 0.750000
vt 0.625000 1.000000
vt 0.875000 0.750000
vt 0.625000 1.000000
vt 0.875000 0.750000
vt 0.625000 1.000000
vt 0.875000 0.750000
vt 0.625000 1.000000
vt 0.875000 0.500000
vn 0.0000 0.0000 1.0000
vn -1.0000 0.0000 0.0000
vn 0.0000 0.0000 -1.0000
vn 1.0000 0.0000 -0.0000
vn 0.0000 -1.0000 0.0000
vn 0.0000 1.0000 0.0000
vn -0.7071 0.0000 -0.7071
vn 0.7071 0.0000 0.7071
s off
f 2/1/1 3/2/1 1/3/1
f 4/4/2 7/5/2 3/2/2
f 8/6/3 5/7/3 7/5/3
f 6/8/4 1/9/4 5/7/4
f 7/5/5 1/10/5 3/11/5
f 4/12/6 6/8/6 8/6/6
f 10/13/1 11/14/1 9/15/1
f 12/16/2 15/17/2 11/14/2
f 16/18/3 13/19/3 15/17/3
f 14/20/4 9/21/4 13/19/4
f 15/17/5 9/22/5 11/23/5
f 12/24/6 14/20/6 16/18/6
f 18/25/2 19/26/2 17/27/2
f 20/28/3 23/29/3 19/26/3
f 24/30/4 21/31/4 23/29/4
f 22/32/1 17/33/1 21/31/1
f 23/29/5 17/34/5 19/35/5
f 20/36/6 22/32/6 24/30/6
f 26/37/2 27/38/2 25/39/2
f 28/40/3 31/41/3 27/38/3
f 32/42/4 29/43/4 31/41/4
f 30/44/1 25/45/1 29/43/1
f 31/41/5 25/46/5 27/47/5
f 28/48/6 30/44/6 32/42/6
f 36/49/7 39/50/7 35/51/7
f 38/52/8 33/53/8 37/54/8
f 39/50/5 33/55/5 35/56/5
f 40/57/6 34/58/6 38/52/6
f 42/59/1 43/60/1 41/61/1
f 44/62/2 47/63/2 43/60/2
f 48/64/3 45/65/3 47/63/3
f 46/66/4 41/67/4 45/65/4
f 47/63/5 41/68/5 43/69/5
f 44/70/6 46/66/6 48/64/6
f 50/71/1 51/72/1 49/73/1
f 52/74/2 55/75/2 51/72/2
f 56/76/3 53/77/3 55/75/3
f 54/78/4 49/79/4 53/77/4
f 55/75/5 49/80/5 51/81/5
f 52/82/6 54/78/6 56/76/6
f 58/83/2 59/84/2 57/85/2
f 60/86/3 63/87/3 59/84/3
f 64/88/4 61/89/4 63/87/4
f 62/90/1 57/91/1 61/89/1
f 63/87/5 57/92/5 59/93/5
f 60/94/6 62/90/6 64/88/6
f 66/95/2 67/96/2 65/97/2
f 68/98/3 71/99/3 67/96/3
f 72/100/4 69/101/4 71/99/4
f 70/102/1 65/103/1 69/101/1
f 71/99/5 65/104/5 67/105/5
f 68/106/6 70/102/6 72/100/6
f 76/107/7 79/108/7 75/109/7
f 78/110/8 73/111/8 77/112/8
f 79/108/5 73/113/5 75/114/5
f 80/115/6 74/116/6 78/110/6
f 82/117/1 83/118/1 81/119/1
f 84/120/2 87/121/2 83/118/2
f 88/122/3 85/123/3 87/121/3
f 86/124/4 81/125/4 85/123/4
f 87/121/5 81/126/5 83/127/5
f 84/128/6 86/124/6 88/122/6
f 90/129/1 91/130/1 89/131/1
f 92/132/2 95/133/2 91/130/2
f 96/134/3 93/135/3 95/133/3
f 94/136/4 89/137/4 93/135/4
f 95/133/5 89/138/5 91/139/5
f 92/140/6 94/136/6 96/134/6
f 98/141/2 99/142/2 97/143/2
f 100/144/3 103/145/3 99/142/3
f 104/146/4 101/147/4 103/145/4
f 102/148/1 97/149/1 101/147/1
f 103/145/5 97/150/5 99/151/5
f 100/152/6 102/148/6 104/146/6
f 106/153/2 107/154/2 105/155/2
f 108/156/3 111/157/3 107/154/3
f 112/158/4 109/159/4 111/157/4
f 110/160/1 105/161/1 109/159/1
f 111/157/5 105/162/5 107/163/5
f 108/164/6 110/160/6 112/158/6
f 116/165/7 119/166/7 115/167/7
f 118/168/8 113/169/8 117/170/8
f 119/166/5 113/171/5 115/172/5
f 120/173/6 114/174/6 118/168/6
f 122/175/1 123/176/1 121/177/1
f 124/178/2 127/179/2 123/176/2
f 128/180/3 125/181/3 127/179/3
f 126/182/4 121/183/4 125/181/4
f 127/179/5 121/184/5 123/185/5
f 124/186/6 126/182/6 128/180/6
f 130/187/1 131/188/1 129/189/1
f 132/190/2 135/191/2 131/188/2
f 136/192/3 133/193/3 135/191/3
f 134/194/4 129/195/4 133/193/4
f 135/191/5 129/196/5 131/197/5
f 132/198/6 134/194/6 136/192/6
f 138/199/2 139/200/2 137/201/2
f 140/202/3 143/203/3 139/200/3
f 144/204/4 141/205/4 143/203/4
f 142/206/1 137/207/1 141/205/1
f 143/203/5 137/208/5 139/209/5
f 140/210/6 142/206/6 144/204/6
f 146/211/2 147/212/2 145/213/2
f 148/214/3 151/215/3 147/212/3
f 152/216/4 149/217/4 151/215/4
f 150/218/1 145/219/1 149/217/1
f 151/215/5 145/220/5 147/221/5
f 148/222/6 150/218/6 152/216/6
f 156/223/7 159/224/7 155/225/7
f 158/226/8 153/227/8 157/228/8
f 159/224/5 153/229/5 155/230/5
f 160/231/6 154/232/6 158/226/6
f 2/1/1 4/4/1 3/2/1
f 4/4/2 8/6/2 7/5/2
f 8/6/3 6/8/3 5/7/3
f 6/8/4 2/233/4 1/9/4
f 7/5/5 5/7/5 1/10/5
f 4/12/6 2/234/6 6/8/6
f 10/13/1 12/16/1 11/14/1
f 12/16/2 16/18/2 15/17/2
f 16/18/3 14/20/3 13/19/3
f 14/20/4 10/235/4 9/21/4
f 15/17/5 13/19/5 9/22/5
f 12/24/6 10/236/6 14/20/6
f 18/25/2 20/28/2 19/26/2
f 20/28/3 24/30/3 23/29/3
f 24/30/4 22/32/4 21/31/4
f 22/32/1 18/237/1 17/33/1
f 23/29/5 21/31/5 17/34/5
f 20/36/6 18/238/6 22/32/6
f 26/37/2 28/40/2 27/38/2
f 28/40/3 32/42/3 31/41/3
f 32/42/4 30/44/4 29/43/4
f 30/44/1 26/239/1 25/45/1
f 31/41/5 29/43/5 25/46/5
f 28/48/6 26/240/6 30/44/6
f 36/49/7 40/57/7 39/50/7
f 38/52/8 34/241/8 33/53/8
f 39/50/5 37/54/5 33/55/5
f 40/57/6 36/242/6 34/58/6
f 42/59/1 44/62/1 43/60/1
f 44/62/2 48/64/2 47/63/2
f 48/64/3 46/66/3 45/65/3
f 46/66/4 42/243/4 41/67/4
f 47/63/5 45/65/5 41/68/5
f 44/70/6 42/244/6 46/66/6
f 50/71/1 52/74/1 51/72/1
f 52/74/2 56/76/2 55/75/2
f 56/76/3 54/78/3 53/77/3
f 54/78/4 50/245/4 49/79/4
f 55/75/5 53/77/5 49/80/5
f 52/82/6 50/246/6 54/78/6
f 58/83/2 60/86/2 59/84/2
f 60/86/3 64/88/3 63/87/3
f 64/88/4 62/90/4 61/89/4
f 62/90/1 58/247/1 57/91/1
f 63/87/5 61/89/5 57/92/5
f 60/94/6 58/248/6 62/90/6
f 66/95/2 68/98/2 67/96/2
f 68/98/3 72/100/3 71/99/3
f 72/100/4 70/102/4 69/101/4
f 70/102/1 66/249/1 65/103/1
f 71/99/5 69/101/5 65/104/5
f 68/106/6 66/250/6 70/102/6
f 76/107/7 80/115/7 79/108/7
f 78/110/8 74/251/8 73/111/8
f 79/108/5 77/112/5 73/113/5
f 80/115/6 76/252/6 74/116/6
f 82/117/1 84/120/1 83/118/1
f 84/120/2 88/122/2 87/121/2
f 88/122/3 86/124/3 85/123/3
f 86/124/4 82/253/4 81/125/4
f 87/121/5 85/123/5 81/126/5
f 84/128/6 82/254/6 86/124/6
f 90/129/1 92/132/1 91/130/1
f 92/132/2 96/134/2 95/133/2
f 96/134/3 94/136/3 93/135/3
f 94/136/4 90/255/4 89/137/4
f 95/133/5 93/135/5 89/138/5
f 92/140/6 90/256/6 94/136/6
f 98/141/2 100/144/2 99/142/2
f 100/144/3 104/146/3 103/145/3
f 104/146/4 102/148/4 101/147/4
f 102/148/1 98/257/1 97/149/1
f 103/145/5 101/147/5 97/150/5
f 100/152/6 98/258/6 102/148/6
f 106/153/2 108/156/2 107/154/2
f 108/156/3 112/158/3 111/157/3
f 112/158/4 110/160/4 109/159/4
f 110/160/1 106/259/1 105/161/1
f 111/157/5 109/159/5 105/162/5
f 108/164/6 106/260/6 110/160/6
f 116/165/7 120/173/7 119/166/7
f 118/168/8 114/261/8 113/169/8
f 119/166/5 117/170/5 113/171/5
f 120/173/6 116/262/6 114/174/6
f 122/175/1 124/178/1 123/176/1
f 124/178/2 128/180/2 127/179/2
f 128/180/3 126/182/3 125/181/3
f 126/182/4 122/263/4 121/183/4
f 127/179/5 125/181/5 121/184/5
f 124/186/6 122/264/6 126/182/6
f 130/187/1 132/190/1 131/188/1
f 132/190/2 136/192/2 135/191/2
f 136/192/3 134/194/3 133/193/3
f 134/194/4 130/265/4 129/195/4
f 135/191/5 133/193/5 129/196/5
f 132/198/6 130/266/6 134/194/6
f 138/199/2 140/202/2 139/200/2
f 140/202/3 144/204/3 143/203/3
f 144/204/4 142/206/4 141/205/4
f 142/206/1 138/267/1 137/207/1
f 143/203/5 141/205/5 137/208/5
f 140/210/6 138/268/6 142/206/6
f 146/211/2 148/214/2 147/212/2
f 148/214/3 152/216/3 151/215/3
f 152/216/4 150/218/4 149/217/4
f 150/218/1 146/269/1 145/219/1
f 151/215/5 149/217/5 145/220/5
f 148/222/6 146/270/6 150/218/6
f 156/223/7 160/231/7 159/224/7
f 158/226/8 154/271/8 153/227/8
f 159/224/5 157/228/5 153/229/5
f 160/231/6 156/272/6 154/232/6
