# Blender v3.4.1 OBJ File: 'station.blend'
# www.blender.org
o Machine_3_lod_3_Cube.012
v -0.343088 -0.124426 0.880032
v -0.343088 -0.124426 0.044023
v -0.343088 0.056570 0.044023
v -0.162092 -0.124426 0.880032
v -0.162092 -0.124426 0.044023
v -0.162092 0.056570 0.044023
v -0.343088 0.056157 0.880032
v -0.162092 0.056157 0.880032
v -0.010986 -0.113148 0.283848
v -0.010986 -0.113148 -0.727685
v -0.010986 0.050817 0.283848
v -0.027056 0.058943 0.286534
v -0.027056 0.058943 -0.730371
v -0.010986 0.050817 -0.727685
v -0.542856 -0.128721 0.731782
v -0.542652 -0.128721 -0.844110
v 0.542652 -0.128721 0.729947
v 0.542265 -0.128721 -0.845967
v -0.539606 0.128720 0.731079
v 0.541143 0.128720 0.731230
v 0.541685 0.128720 -0.848053
v 0.733011 -0.113148 0.283848
v 0.738474 -0.113148 -0.727522
v 0.732904 0.057186 0.283848
v 0.731591 0.057186 -0.727416
v 0.248472 0.109269 0.183039
v 0.248472 0.109269 -0.093855
v 0.424239 0.109269 0.183039
v 0.424239 0.109269 -0.093855
v 0.248472 0.197942 0.183039
v 0.248472 0.197942 -0.093855
v 0.424158 0.199329 0.182120
v 0.424158 0.199329 -0.092936
v 0.247492 0.084721 -0.140090
v 0.247492 0.084721 -0.354777
v 0.383772 0.084721 -0.140090
v 0.383772 0.084721 -0.354777
v 0.247492 0.181943 -0.140090
v 0.247109 0.182072 -0.353695
v 0.383772 0.181943 -0.140090
v 0.383772 0.181943 -0.354777
v 0.247492 0.084721 -0.403084
v 0.247492 0.084721 -0.617771
v 0.383772 0.084721 -0.403084
v 0.383772 0.084721 -0.617771
v 0.247492 0.180176 -0.403084
v 0.247492 0.180176 -0.617771
v 0.383772 0.180176 -0.403084
v 0.383772 0.180176 -0.617771
v 0.002767 0.109269 0.513065
v 0.002767 0.109269 0.236172
v 0.178535 0.109269 0.513065
v 0.178535 0.109269 0.236172
v 0.002767 0.197942 0.513065
v 0.004776 0.199329 0.237090
v 0.176967 0.199329 0.512147
v 0.176967 0.199329 0.237090
v 0.002767 0.109269 0.183039
v 0.002767 0.109269 -0.093855
v 0.178535 0.109269 0.183039
v 0.178535 0.109269 -0.093855
v 0.002767 0.197942 0.183039
v 0.002767 0.197942 -0.093855
v 0.178535 0.197942 0.183039
v 0.177401 0.199329 -0.092936
v 0.001787 0.084721 -0.354777
v 0.138067 0.084721 -0.354777
v 0.001787 0.163474 -0.354777
v 0.138098 0.164321 -0.354639
v 0.001787 0.084721 -0.403084
v 0.138067 0.084721 -0.403084
v 0.001787 0.163474 -0.403084
v 0.137856 0.163435 -0.403998
v -0.477783 -0.125633 0.010948
v -0.477783 -0.042047 0.010948
v -0.025635 -0.125633 0.010948
v -0.025635 -0.042047 0.010948
v -0.477783 -0.125633 -0.946756
v -0.477783 -0.042047 -0.946756
v -0.025635 -0.125633 -0.944299
v -0.025635 -0.042047 -0.944299
v 0.030207 -0.125633 0.010948
v 0.030207 0.027095 0.010948
v 0.482355 -0.125633 0.010948
v 0.482355 0.027095 0.010948
v 0.030207 -0.125633 -0.945218
v 0.030207 0.027095 -0.945218
v 0.482355 -0.125633 -0.945038
v 0.482355 0.027095 -0.945038
v 0.180952 -0.125633 0.495346
v 0.633100 -0.125633 0.495346
v 0.198650 0.018877 -0.466241
v 0.178019 0.018877 -0.422561
v 0.633100 -0.125633 -0.418823
v 0.615475 0.018877 -0.466241
v 0.272640 -0.125633 0.662430
v 0.272640 0.027095 0.662430
v 0.272640 -0.125633 -0.103116
v 0.272640 0.027095 -0.103116
v -0.686378 -0.125633 0.662430
v -0.686378 0.027095 0.662430
v -0.684642 -0.125633 -0.098939
v -0.684642 0.027095 -0.098939
v -0.624843 -0.133140 0.495346
v -0.166680 -0.043206 0.512246
v -0.624843 -0.133140 -0.459927
v -0.172695 -0.133140 -0.460342
v -0.166680 -0.043206 -0.461331
v -0.095273 -0.094427 0.431411
v -0.095273 -0.094427 0.103081
v 0.368283 -0.094427 0.431411
v 0.368283 -0.094427 0.103081
v -0.095273 0.241111 0.431411
v -0.095273 0.241111 0.103081
v -0.357407 -0.095745 -0.221214
v -0.357407 -0.095745 -0.534683
v 0.179421 -0.095745 -0.221214
v 0.179421 -0.095745 -0.534683
v -0.324821 -0.113391 0.351106
v -0.324821 -0.113391 -0.260669
v -0.182836 -0.113391 0.351106
v -0.182836 -0.113391 -0.260669
v -0.357407 0.205186 -0.221214
v -0.357407 0.205186 -0.534683
v 0.179421 0.205186 -0.221214
v 0.179421 0.205457 -0.534484
v -0.324821 0.197172 0.351106
v -0.324821 0.197172 -0.260669
v -0.182836 0.197172 0.351106
v -0.182836 0.197172 -0.260669
v -0.541828 0.128721 -0.846092
v 0.368283 0.241518 0.431411
v 0.368283 0.241518 0.103081
v 0.178019 0.018877 0.495116
v 0.633100 0.018706 0.495346
v 0.632717 0.018877 -0.440557
v 0.633100 0.018706 -0.418823
v -0.623954 -0.043206 0.496901
v -0.623251 -0.043206 -0.458573
v 0.170378 -0.124426 0.956969
v 0.170378 -0.124426 0.120960
v 0.170378 0.056570 0.120960
v 0.351374 -0.124426 0.956969
v 0.351374 -0.124426 0.120960
v 0.351374 0.056570 0.120960
v 0.170378 0.056492 0.956969
v 0.351374 0.056492 0.956969
vt 0.875000 0.500000
vt 0.625000 0.738104
vt 0.625000 0.500000
vt 0.625000 0.011896
vt 0.375000 0.250000
vt 0.375000 0.000000
vt 0.375000 0.500000
vt 0.570054 0.750000
vt 0.375000 0.750000
vt 0.375000 1.000000
vt 0.625000 0.250000
vt 0.605576 0.488770
vt 0.605576 0.250000
vt 0.375000 0.250000
vt 0.375000 0.488806
vt 0.611587 0.005765
vt 0.375000 0.244253
vt 0.375000 0.005747
vt 0.605576 0.000000
vt 0.625000 0.246831
vt 0.375000 0.761194
vt 0.605576 1.000000
vt 0.375000 1.000000
vt 0.611587 0.258381
vt 0.375000 0.491646
vt 0.375000 0.258354
vt 0.375000 0.758354
vt 0.611587 0.991619
vt 0.375000 0.991646
vt 0.375000 0.505747
vt 0.611587 0.744235
vt 0.375000 0.744253
vt 0.625000 0.765891
vt 0.625000 1.000000
vt 0.640891 0.503169
vt 0.875000 0.746831
vt 0.629607 0.738454
vt 0.605576 0.508320
vt 0.375000 0.741706
vt 0.375000 0.508294
vt 0.848884 0.516578
vt 0.651116 0.733422
vt 0.651116 0.516578
vt 0.582113 0.500000
vt 0.375000 0.750000
vt 0.375000 0.500000
vt 0.582113 0.000000
vt 0.375000 0.250000
vt 0.375000 0.000000
vt 0.125000 0.750000
vt 0.125000 0.500000
vt 0.582113 0.250000
vt 0.582113 1.000000
vt 0.375000 1.000000
vt 0.848884 0.516578
vt 0.651116 0.733422
vt 0.651116 0.516578
vt 0.582113 0.500000
vt 0.375000 0.750000
vt 0.375000 0.500000
vt 0.375000 0.000000
vt 0.582113 0.250000
vt 0.375000 0.250000
vt 0.125000 0.750000
vt 0.125000 0.500000
vt 0.582113 0.750000
vt 0.375000 1.000000
vt 0.848884 0.516578
vt 0.651116 0.733422
vt 0.651116 0.516578
vt 0.582113 0.500000
vt 0.375000 0.750000
vt 0.375000 0.500000
vt 0.582113 0.000000
vt 0.375000 0.250000
vt 0.375000 0.000000
vt 0.125000 0.750000
vt 0.125000 0.500000
vt 0.582113 0.250000
vt 0.582113 0.750000
vt 0.375000 1.000000
vt 0.848884 0.516578
vt 0.651116 0.733422
vt 0.651116 0.516578
vt 0.582113 0.500000
vt 0.375000 0.750000
vt 0.375000 0.500000
vt 0.375000 0.000000
vt 0.582113 0.250000
vt 0.375000 0.250000
vt 0.125000 0.750000
vt 0.125000 0.500000
vt 0.582113 0.750000
vt 0.375000 1.000000
vt 0.651116 0.516578
vt 0.848884 0.733422
vt 0.651116 0.733422
vt 0.582113 0.500000
vt 0.375000 0.750000
vt 0.375000 0.500000
vt 0.582113 0.000000
vt 0.375000 0.250000
vt 0.375000 0.000000
vt 0.125000 0.750000
vt 0.125000 0.500000
vt 0.582113 0.750000
vt 0.375000 1.000000
vt 0.582113 0.250000
vt 0.375000 0.500000
vt 0.375000 0.250000
vt 0.582113 0.750000
vt 0.375000 1.000000
vt 0.375000 0.750000
vt 0.625000 0.261259
vt 0.375000 0.488741
vt 0.375000 0.261259
vt 0.636259 0.500000
vt 0.875000 0.750000
vt 0.625000 0.750000
vt 0.625000 0.000000
vt 0.375000 0.238741
vt 0.375000 0.000000
vt 0.625000 0.511259
vt 0.375000 0.750000
vt 0.375000 0.511259
vt 0.625000 0.261259
vt 0.375000 0.488741
vt 0.375000 0.261259
vt 0.636259 0.500000
vt 0.875000 0.750000
vt 0.625000 0.750000
vt 0.625000 0.000000
vt 0.375000 0.238741
vt 0.375000 0.000000
vt 0.625000 0.511259
vt 0.375000 0.750000
vt 0.375000 0.511259
vt 0.611268 0.511259
vt 0.375000 0.750000
vt 0.375000 0.511259
vt 0.875000 0.511259
vt 0.875000 0.747809
vt 0.629639 0.747809
vt 0.611268 0.750000
vt 0.375000 1.000000
vt 0.625000 0.261259
vt 0.375000 0.488741
vt 0.375000 0.261259
vt 0.636259 0.500000
vt 0.875000 0.750000
vt 0.625000 0.750000
vt 0.625000 0.000000
vt 0.375000 0.238741
vt 0.375000 0.000000
vt 0.625000 0.511259
vt 0.375000 0.750000
vt 0.375000 0.511259
vt 0.633498 0.502761
vt 0.869154 0.750000
vt 0.625000 0.750000
vt 0.599116 0.261259
vt 0.375000 0.488741
vt 0.375000 0.261259
vt 0.621275 0.260980
vt 0.375000 0.500000
vt 0.375000 0.250000
vt 0.375000 0.750000
vt 0.610295 1.000000
vt 0.375000 1.000000
vt 0.610295 0.000000
vt 0.375000 0.000000
vt 0.860295 0.505259
vt 0.628725 0.744741
vt 0.628725 0.505259
vt 0.625000 0.507105
vt 0.870851 0.742895
vt 0.625000 0.742895
vt 0.375000 0.500000
vt 0.617235 0.750000
vt 0.375000 0.750000
vt 0.617235 0.000000
vt 0.375000 0.250000
vt 0.375000 0.000000
vt 0.617235 0.250000
vt 0.859890 0.500000
vt 0.640110 0.746493
vt 0.640110 0.500000
vt 0.617265 0.500000
vt 0.375000 0.750000
vt 0.375000 0.500000
vt 0.617265 0.000000
vt 0.375000 0.250000
vt 0.375000 0.000000
vt 0.375000 1.000000
vt 0.617265 0.750000
vt 0.375000 1.000000
vt 0.862320 0.510687
vt 0.637680 0.739313
vt 0.640536 0.508722
vt 0.619825 0.500000
vt 0.629639 0.506621
vt 0.375000 0.000000
vt 0.599116 0.238741
vt 0.375000 0.238741
vt 0.875000 0.500000
vt 0.625000 0.738104
vt 0.625000 0.500000
vt 0.625000 0.011896
vt 0.375000 0.250000
vt 0.375000 0.000000
vt 0.375000 0.500000
vt 0.570054 0.750000
vt 0.375000 0.750000
vt 0.375000 1.000000
vt 0.875000 0.738104
vt 0.625000 0.250000
vt 0.570054 1.000000
vt 0.611587 0.244235
vt 0.375000 0.000000
vt 0.625000 0.003169
vt 0.605576 0.761230
vt 0.611587 0.491619
vt 0.611587 0.758381
vt 0.611587 0.505765
vt 0.875000 0.503169
vt 0.605576 0.741680
vt 0.848884 0.733422
vt 0.582113 0.750000
vt 0.848884 0.733422
vt 0.582113 0.000000
vt 0.582113 1.000000
vt 0.848884 0.733422
vt 0.582113 1.000000
vt 0.848884 0.733422
vt 0.582113 0.000000
vt 0.582113 1.000000
vt 0.848884 0.516578
vt 0.582113 0.250000
vt 0.582113 1.000000
vt 0.582113 0.500000
vt 0.582113 1.000000
vt 0.625000 0.488741
vt 0.875000 0.511259
vt 0.625000 0.238741
vt 0.625000 0.488741
vt 0.875000 0.511259
vt 0.625000 0.238741
vt 0.636259 0.500000
vt 0.863741 0.500000
vt 0.611268 1.000000
vt 0.625000 0.488741
vt 0.875000 0.511259
vt 0.625000 0.238741
vt 0.869154 0.511878
vt 0.599116 0.488741
vt 0.619825 0.750000
vt 0.610295 0.250000
vt 0.860295 0.744741
vt 0.870851 0.507105
vt 0.617235 0.500000
vt 0.859890 0.746493
vt 0.617265 0.250000
vt 0.617235 1.000000
vt 0.617265 1.000000
vt 0.859464 0.741278
vt 0.599116 0.000000
vt 0.875000 0.738104
vt 0.625000 0.250000
vt 0.570054 1.000000
vn -0.0000 1.0000 0.0005
vn -1.0000 0.0000 0.0000
vn 1.0000 0.0000 0.0000
vn 0.0000 0.0000 1.0000
vn 0.0030 -0.3086 -0.9512
vn 0.0003 -0.0016 -1.0000
vn 0.0020 -0.1954 -0.9807
vn 0.0003 0.0001 -1.0000
vn 0.0002 0.0006 -1.0000
vn -0.9999 0.0117 0.0000
vn -1.0000 0.0042 0.0013
vn -0.9999 0.0126 -0.0001
vn -0.4513 -0.8924 0.0000
vn 0.0017 -0.1958 0.9806
vn -0.0017 -0.0078 -1.0000
vn -0.0018 -0.0080 -1.0000
vn -0.0017 -0.0077 -1.0000
vn 0.0001 -0.0038 1.0000
vn 0.0014 0.0016 1.0000
vn 0.0017 0.0027 1.0000
vn 1.0000 0.0026 0.0003
vn 1.0000 0.0055 -0.0002
vn 1.0000 0.0059 -0.0002
vn 0.0000 -0.0022 1.0000
vn 0.0026 -0.3092 0.9510
vn 0.0023 1.0000 -0.0000
vn 0.9993 0.0362 0.0047
vn 1.0000 0.0049 -0.0006
vn 0.9992 0.0404 0.0054
vn -0.0079 1.0000 0.0000
vn 1.0000 0.0009 0.0000
vn 0.0000 -1.0000 0.0000
vn 0.0015 0.0031 -1.0000
vn 0.0036 0.0072 -1.0000
vn 0.0000 0.0000 -1.0000
vn 0.0036 0.0072 1.0000
vn 0.0015 0.0031 1.0000
vn 0.0006 1.0000 0.0002
vn 0.0003 1.0000 0.0004
vn 0.0009 1.0000 0.0000
vn -1.0000 -0.0011 0.0013
vn -1.0000 -0.0029 0.0005
vn -1.0000 -0.0039 0.0000
vn -0.0048 0.0067 -1.0000
vn -0.0031 0.0044 -1.0000
vn 0.0000 1.0000 0.0000
vn -0.0028 1.0000 0.0018
vn -0.0051 1.0000 0.0032
vn 0.9998 0.0174 0.0000
vn -1.0000 0.0045 -0.0058
vn -0.9998 0.0179 -0.0014
vn -0.9998 0.0223 0.0000
vn 0.0000 0.0102 -0.9999
vn 0.0016 0.0072 1.0000
vn 0.0037 0.0031 1.0000
vn 0.0000 0.0102 0.9999
vn -0.0051 1.0000 0.0018
vn -0.0029 1.0000 0.0032
vn 0.0000 1.0000 0.0050
vn 0.9999 0.0101 -0.0008
vn 1.0000 0.0025 -0.0033
vn 0.9999 0.0126 0.0000
vn 0.0037 0.0031 -1.0000
vn 0.0016 0.0072 -1.0000
vn 0.0003 0.0006 -1.0000
vn 0.0007 0.0012 -1.0000
vn 0.0022 0.0077 1.0000
vn 0.0045 0.0039 1.0000
vn 0.0000 0.0116 0.9999
vn 0.0054 0.0000 -1.0000
vn 0.0004 0.0000 -1.0000
vn 0.0001 1.0000 0.0001
vn 0.0004 1.0000 0.0000
vn 0.0004 1.0000 0.0001
vn -0.0001 0.0003 1.0000
vn -0.0004 0.0013 1.0000
vn -1.0000 0.0000 -0.0023
vn -0.0044 0.0000 -1.0000
vn -0.0016 0.0119 -0.9999
vn -0.0054 -0.0075 -1.0000
vn -0.0009 0.0151 -0.9999
vn -0.0009 1.0000 0.0000
vn -0.0002 1.0000 0.0006
vn -0.0003 1.0000 0.0003
vn 0.0000 1.0000 0.0009
vn 0.0001 0.0002 -1.0000
vn 0.0002 0.0004 -1.0000
vn 0.4093 0.9124 0.0000
vn 0.0030 1.0000 0.0001
vn -0.9999 0.0104 -0.0007
vn -0.9999 0.0172 -0.0000
vn -0.9998 0.0177 0.0000
vn -0.0000 1.0000 0.0001
vn -1.0000 0.0032 0.0014
vn -0.0018 -0.0081 -1.0000
vn -0.0001 -0.0050 1.0000
vn 1.0000 0.0023 0.0003
vn 1.0000 0.0006 -0.0013
vn 0.0051 0.0102 -0.9999
vn 0.0051 0.0102 0.9999
vn 0.0000 1.0000 0.0006
vn -1.0000 0.0000 0.0018
vn -0.0079 0.0111 -0.9999
vn -0.0079 1.0000 0.0050
vn -1.0000 0.0000 -0.0073
vn 0.0053 0.0000 1.0000
vn 1.0000 0.0000 -0.0041
vn 0.0053 0.0000 -1.0000
vn 0.0010 0.0017 -1.0000
vn 0.0067 0.0000 1.0000
vn -0.0005 0.0016 1.0000
vn -0.0060 -0.0106 -0.9999
vn -0.0005 1.0000 0.0000
vn 0.0004 0.0007 -1.0000
vn -1.0000 0.0099 -0.0007
s 1
f 3/1/1 8/2/1 6/3/1
f 7/4/2 2/5/2 1/6/2
f 5/7/3 8/8/3 4/9/3
f 8/8/4 1/10/4 4/9/4
f 13/11/5 25/12/6 14/13/7
f 10/14/8 25/12/6 23/15/9
f 19/16/10 16/17/11 15/18/12
f 11/19/13 13/20/13 14/13/13
f 22/21/4 11/22/14 9/23/4
f 131/24/15 18/25/16 16/26/17
f 17/27/18 19/28/19 15/29/20
f 18/30/21 20/31/22 17/32/23
f 24/33/24 12/34/25 11/22/14
f 25/35/26 12/36/26 24/37/26
f 25/38/27 22/39/28 23/40/29
f 31/41/30 32/42/30 33/43/30
f 33/44/31 28/45/31 29/46/31
f 30/47/2 27/48/2 26/49/2
f 29/46/32 26/50/32 27/51/32
f 31/52/33 29/46/34 27/48/35
f 28/45/36 30/53/37 26/54/4
f 39/55/38 40/56/39 41/57/40
f 41/58/3 36/59/3 37/60/3
f 34/61/41 39/62/42 35/63/43
f 37/60/32 34/64/32 35/65/32
f 35/63/44 41/58/45 37/60/35
f 40/66/4 34/67/4 36/59/4
f 47/68/46 48/69/46 49/70/46
f 49/71/3 44/72/3 45/73/3
f 46/74/2 43/75/2 42/76/2
f 45/73/32 42/77/32 43/78/32
f 47/79/35 45/73/35 43/75/35
f 48/80/4 42/81/4 44/72/4
f 55/82/47 56/83/48 57/84/46
f 57/85/49 52/86/49 53/87/49
f 50/88/50 55/89/51 51/90/52
f 53/87/32 50/91/32 51/92/32
f 55/89/53 53/87/53 51/90/53
f 56/93/54 50/94/55 52/86/56
f 65/95/57 62/96/58 64/97/59
f 65/98/60 60/99/61 61/100/62
f 62/101/2 59/102/2 58/103/2
f 61/100/32 58/104/32 59/105/32
f 59/102/63 65/98/64 61/100/53
f 64/106/4 58/107/4 60/99/4
f 68/108/65 67/109/66 66/110/35
f 73/111/67 70/112/68 71/113/69
f 79/114/70 80/115/70 78/116/70
f 81/117/46 75/118/46 77/119/46
f 75/120/2 78/121/2 74/122/2
f 81/123/3 76/124/3 80/125/3
f 87/126/71 88/127/71 86/128/71
f 89/129/46 83/130/46 85/131/46
f 83/132/2 86/133/2 82/134/2
f 89/135/3 84/136/3 88/137/3
f 137/138/3 91/139/3 94/140/3
f 93/141/72 134/142/73 135/143/74
f 135/144/75 90/145/76 91/139/4
f 101/146/77 102/147/77 100/148/77
f 103/149/46 97/150/46 99/151/46
f 97/152/4 100/153/4 96/154/4
f 103/155/78 98/156/78 102/157/78
f 108/158/46 138/159/46 105/160/46
f 139/161/79 107/162/80 106/163/81
f 114/164/35 112/165/35 110/166/35
f 111/167/4 113/168/4 109/169/4
f 113/170/2 110/166/2 109/171/2
f 114/172/82 132/173/82 133/174/82
f 126/175/83 123/176/84 125/177/85
f 118/178/3 125/179/3 117/180/3
f 123/181/2 116/182/2 115/183/2
f 124/184/86 118/178/87 116/182/35
f 128/185/46 129/186/46 130/187/46
f 130/188/3 121/189/3 122/190/3
f 127/191/2 120/192/2 119/193/2
f 125/179/4 115/194/4 117/180/4
f 129/195/4 119/196/4 121/189/4
f 131/197/46 20/198/46 21/199/46
f 133/200/3 111/167/3 112/165/3
f 135/144/74 137/138/88 136/201/89
f 104/202/90 139/203/91 106/204/92
f 142/205/93 147/206/93 145/207/93
f 146/208/2 141/209/2 140/210/2
f 144/211/3 147/212/3 143/213/3
f 147/212/4 140/214/4 143/213/4
f 3/1/1 7/215/1 8/2/1
f 7/4/2 3/216/2 2/5/2
f 5/7/3 6/3/3 8/8/3
f 8/8/4 7/217/4 1/10/4
f 10/14/8 14/13/7 25/12/6
f 19/16/10 131/218/94 16/17/11
f 10/14/2 9/219/2 11/19/2
f 11/19/13 12/220/13 13/20/13
f 14/13/2 10/14/2 11/19/2
f 22/21/4 24/221/24 11/22/14
f 131/24/15 21/222/95 18/25/16
f 17/27/18 20/223/96 19/28/19
f 18/30/21 21/224/97 20/31/22
f 25/35/26 13/225/26 12/36/26
f 25/38/27 24/226/98 22/39/28
f 31/41/30 30/227/30 32/42/30
f 33/44/31 32/228/31 28/45/31
f 30/47/2 31/52/2 27/48/2
f 29/46/32 28/45/32 26/50/32
f 31/52/33 33/44/99 29/46/34
f 28/45/36 32/228/100 30/53/37
f 39/55/38 38/229/101 40/56/39
f 41/58/3 40/66/3 36/59/3
f 34/61/41 38/230/102 39/62/42
f 37/60/32 36/59/32 34/64/32
f 35/63/44 39/62/103 41/58/45
f 40/66/4 38/231/4 34/67/4
f 47/68/46 46/232/46 48/69/46
f 49/71/3 48/80/3 44/72/3
f 46/74/2 47/79/2 43/75/2
f 45/73/32 44/72/32 42/77/32
f 47/79/35 49/71/35 45/73/35
f 48/80/4 46/233/4 42/81/4
f 55/82/47 54/234/104 56/83/48
f 57/85/49 56/93/49 52/86/49
f 50/88/50 54/235/105 55/89/51
f 53/87/32 52/86/32 50/91/32
f 55/89/53 57/85/53 53/87/53
f 56/93/54 54/236/106 50/94/55
f 65/95/57 63/237/30 62/96/58
f 65/98/60 64/106/107 60/99/61
f 62/101/2 63/238/2 59/102/2
f 61/100/32 60/99/32 58/104/32
f 59/102/63 63/238/108 65/98/64
f 64/106/4 62/239/4 58/107/4
f 68/108/65 69/240/109 67/109/66
f 73/111/67 72/241/110 70/112/68
f 79/114/70 81/242/70 80/115/70
f 81/117/46 79/243/46 75/118/46
f 75/120/2 79/244/2 78/121/2
f 81/123/3 77/119/3 76/124/3
f 87/126/71 89/245/71 88/127/71
f 89/129/46 87/246/46 83/130/46
f 83/132/2 87/247/2 86/133/2
f 89/135/3 85/131/3 84/136/3
f 137/138/3 135/144/3 91/139/3
f 135/143/74 136/201/89 93/141/72
f 136/201/89 95/248/46 93/141/72
f 95/248/46 92/249/46 93/141/72
f 135/144/75 134/250/111 90/145/76
f 101/146/77 103/251/77 102/147/77
f 103/149/46 101/252/46 97/150/46
f 97/152/4 101/253/4 100/153/4
f 103/155/78 99/151/78 98/156/78
f 108/158/46 139/254/46 138/159/46
f 139/161/79 108/255/112 107/162/80
f 114/164/35 133/200/35 112/165/35
f 111/167/4 132/256/4 113/168/4
f 113/170/2 114/257/2 110/166/2
f 114/172/82 113/258/82 132/173/82
f 126/175/83 124/259/113 123/176/84
f 118/178/3 126/175/3 125/179/3
f 123/181/2 124/184/2 116/182/2
f 124/184/86 126/260/114 118/178/87
f 128/185/46 127/261/46 129/186/46
f 130/188/3 129/195/3 121/189/3
f 127/191/2 128/262/2 120/192/2
f 125/179/4 123/263/4 115/194/4
f 129/195/4 127/264/4 119/196/4
f 131/197/46 19/265/46 20/198/46
f 133/200/3 132/256/3 111/167/3
f 104/202/90 138/266/115 139/203/91
f 142/205/93 146/267/93 147/206/93
f 146/208/2 142/268/2 141/209/2
f 144/211/3 145/207/3 147/212/3
f 147/212/4 146/269/4 140/214/4
