# Blender v3.4.1 OBJ File: 'station.blend'
# www.blender.org
o Module_1_Cylinder
v 0.000000 -1.360003 -0.507883
v 0.000000 1.360003 -0.507883
v 0.253942 -1.360003 -0.439840
v 0.253942 1.360003 -0.439840
v 0.439840 -1.360003 -0.253942
v 0.439840 1.360003 -0.253942
v 0.507883 -1.360003 0.000000
v 0.507883 1.360003 0.000000
v 0.439840 -1.360003 0.253942
v 0.439840 1.360003 0.253942
v 0.253942 -1.360003 0.439840
v 0.253942 1.360003 0.439840
v 0.000000 -1.360003 0.507883
v 0.000000 1.360003 0.507883
v -0.253942 -1.360003 0.439840
v -0.253942 1.360003 0.439840
v -0.439840 -1.360003 0.253942
v -0.439840 1.360003 0.253942
v -0.507883 -1.360003 0.000000
v -0.507883 1.360003 0.000000
v -0.439840 -1.360003 -0.253942
v -0.439840 1.360003 -0.253942
v -0.253942 -1.360003 -0.439840
v -0.253942 1.360003 -0.439840
v -0.000000 -1.696562 -0.425952
v 0.212976 -1.696562 -0.368885
v 0.368885 -1.696562 -0.212976
v 0.425952 -1.696562 -0.000000
v 0.368885 -1.696562 0.212976
v 0.212976 -1.696562 0.368885
v -0.000000 -1.696562 0.425952
v -0.212976 -1.696562 0.368885
v -0.368885 -1.696562 0.212976
v -0.425952 -1.696562 -0.000000
v -0.368885 -1.696562 -0.212976
v -0.212976 -1.696562 -0.368885
v 0.198492 1.705736 -0.343798
v 0.000000 1.705736 -0.396984
v 0.343798 1.705736 -0.198492
v 0.396984 1.705736 0.000000
v 0.343798 1.705736 0.198492
v 0.198492 1.705736 0.343798
v 0.000000 1.705736 0.396984
v -0.198492 1.705736 0.343798
v -0.343798 1.705736 0.198492
v -0.396984 1.705736 0.000000
v -0.343798 1.705736 -0.198492
v -0.198492 1.705736 -0.343798
vt 1.000000 1.000000
vt 0.916667 0.500000
vt 1.000000 0.500000
vt 0.916667 1.000000
vt 0.833333 0.500000
vt 0.833333 1.000000
vt 0.750000 0.500000
vt 0.750000 1.000000
vt 0.666667 0.500000
vt 0.666667 1.000000
vt 0.583333 0.500000
vt 0.583333 1.000000
vt 0.500000 0.500000
vt 0.500000 1.000000
vt 0.416667 0.500000
vt 0.416667 1.000000
vt 0.333333 0.500000
vt 0.333333 1.000000
vt 0.250000 0.500000
vt 0.250000 1.000000
vt 0.166667 0.500000
vt 0.583333 1.000000
vt 0.500000 1.000000
vt 0.166667 1.000000
vt 0.083333 0.500000
vt 0.083333 1.000000
vt 0.000000 0.500000
vt 0.583333 0.500000
vt 0.870000 0.457846
vt 0.990000 0.250000
vt 0.630000 0.042154
vt 0.666667 0.500000
vt 0.750000 0.500000
vt 0.000000 0.500000
vt 0.083333 0.500000
vt 0.916667 0.500000
vt 1.000000 0.500000
vt 0.833333 0.500000
vt 0.166667 0.500000
vt 0.250000 0.500000
vt 0.333333 0.500000
vt 0.416667 0.500000
vt 0.500000 0.500000
vt 0.042154 0.370000
vt 0.250000 0.010000
vt 0.457846 0.370000
vt 0.666667 1.000000
vt 0.000000 1.000000
vt 0.083333 1.000000
vt 0.000000 1.000000
vt 0.916667 1.000000
vt 0.833333 1.000000
vt 0.750000 1.000000
vt 0.166667 1.000000
vt 0.333333 1.000000
vt 0.250000 1.000000
vt 0.416667 1.000000
vt 0.630000 0.457846
vt 0.750000 0.490000
vt 0.957846 0.370000
vt 0.957846 0.130000
vt 0.870000 0.042154
vt 0.750000 0.010000
vt 0.542154 0.130000
vt 0.510000 0.250000
vt 0.542154 0.370000
vt 0.370000 0.457846
vt 0.250000 0.490000
vt 0.130000 0.457846
vt 0.010000 0.250000
vt 0.042154 0.130000
vt 0.130000 0.042154
vt 0.370000 0.042154
vt 0.457846 0.130000
vt 0.490000 0.250000
vt 1.000000 1.000000
vn 0.0000 0.1508 -0.9886
vn 0.4966 -0.1169 -0.8601
vn -0.0000 -0.1169 -0.9931
vn 0.4943 0.1508 -0.8561
vn 0.8601 -0.1169 -0.4966
vn 0.8561 0.1508 -0.4943
vn 0.9931 -0.1169 -0.0000
vn 0.9886 0.1508 0.0000
vn 0.8601 -0.1169 0.4966
vn 0.8561 0.1508 0.4943
vn 0.4966 -0.1169 0.8601
vn 0.4943 0.1508 0.8561
vn 0.0000 -0.1169 0.9931
vn -0.0000 0.1508 0.9886
vn -0.4966 -0.1169 0.8601
vn -0.4943 0.1508 0.8561
vn -0.8601 -0.1169 0.4966
vn -0.8561 0.1508 0.4943
vn -0.9931 -0.1169 0.0000
vn -0.9886 0.1508 -0.0000
vn -0.8601 -0.1169 -0.4966
vn 0.4761 0.3054 0.8246
vn 0.0000 0.3054 0.9522
vn -0.8561 0.1508 -0.4943
vn -0.4966 -0.1169 -0.8601
vn -0.4943 0.1508 -0.8561
vn 0.4858 -0.2365 0.8415
vn 0.0000 -1.0000 0.0000
vn 0.8415 -0.2365 0.4858
vn 0.9716 -0.2365 0.0000
vn 0.0000 -0.2365 -0.9716
vn -0.4858 -0.2365 -0.8415
vn 0.4858 -0.2365 -0.8415
vn 0.8415 -0.2365 -0.4858
vn -0.8415 -0.2365 -0.4858
vn -0.9716 -0.2365 0.0000
vn -0.8415 -0.2365 0.4858
vn -0.4858 -0.2365 0.8415
vn 0.0000 -0.2365 0.9716
vn 0.0000 1.0000 0.0000
vn 0.8246 0.3054 0.4761
vn -0.4761 0.3054 -0.8246
vn 0.0000 0.3054 -0.9522
vn 0.4761 0.3054 -0.8246
vn 0.8246 0.3054 -0.4761
vn 0.9522 0.3054 0.0000
vn -0.8246 0.3054 -0.4761
vn -0.8246 0.3054 0.4761
vn -0.9522 0.3054 0.0000
vn -0.4761 0.3054 0.8246
s 1
f 2/1/1 3/2/2 1/3/3
f 4/4/4 5/5/5 3/2/2
f 6/6/6 7/7/7 5/5/5
f 8/8/8 9/9/9 7/7/7
f 10/10/10 11/11/11 9/9/9
f 12/12/12 13/13/13 11/11/11
f 14/14/14 15/15/15 13/13/13
f 16/16/16 17/17/17 15/15/15
f 18/18/18 19/19/19 17/17/17
f 20/20/20 21/21/21 19/19/19
f 14/14/14 42/22/22 43/23/23
f 22/24/24 23/25/25 21/21/21
f 24/26/26 1/27/3 23/25/25
f 13/13/13 30/28/27 11/11/11
f 26/29/28 28/30/28 32/31/28
f 11/11/11 29/32/29 9/9/9
f 9/9/9 28/33/30 7/7/7
f 23/25/25 25/34/31 36/35/32
f 1/3/3 26/36/33 25/37/31
f 5/5/5 28/33/30 27/38/34
f 23/25/25 35/39/35 21/21/21
f 3/2/2 27/38/34 26/36/33
f 21/21/21 34/40/36 19/19/19
f 17/17/17 34/40/36 33/41/37
f 17/17/17 32/42/38 15/15/15
f 15/15/15 31/43/39 13/13/13
f 47/44/40 43/45/40 39/46/40
f 10/10/10 42/22/22 12/12/12
f 8/8/8 41/47/41 10/10/10
f 2/48/1 48/49/42 38/50/43
f 2/1/1 37/51/44 4/4/4
f 8/8/8 39/52/45 40/53/46
f 22/24/24 48/49/42 24/26/26
f 4/4/4 39/52/45 6/6/6
f 20/20/20 47/54/47 22/24/24
f 20/20/20 45/55/48 46/56/49
f 16/16/16 45/55/48 18/18/18
f 14/14/14 44/57/50 16/16/16
f 2/1/1 4/4/4 3/2/2
f 4/4/4 6/6/6 5/5/5
f 6/6/6 8/8/8 7/7/7
f 8/8/8 10/10/10 9/9/9
f 10/10/10 12/12/12 11/11/11
f 12/12/12 14/14/14 13/13/13
f 14/14/14 16/16/16 15/15/15
f 16/16/16 18/18/18 17/17/17
f 18/18/18 20/20/20 19/19/19
f 20/20/20 22/24/24 21/21/21
f 14/14/14 12/12/12 42/22/22
f 22/24/24 24/26/26 23/25/25
f 24/26/26 2/48/1 1/27/3
f 13/13/13 31/43/39 30/28/27
f 36/58/28 25/59/28 26/29/28
f 26/29/28 27/60/28 28/30/28
f 28/30/28 29/61/28 32/31/28
f 29/61/28 30/62/28 32/31/28
f 30/62/28 31/63/28 32/31/28
f 32/31/28 33/64/28 34/65/28
f 34/65/28 35/66/28 32/31/28
f 35/66/28 36/58/28 32/31/28
f 36/58/28 26/29/28 32/31/28
f 11/11/11 30/28/27 29/32/29
f 9/9/9 29/32/29 28/33/30
f 23/25/25 1/27/3 25/34/31
f 1/3/3 3/2/2 26/36/33
f 5/5/5 7/7/7 28/33/30
f 23/25/25 36/35/32 35/39/35
f 3/2/2 5/5/5 27/38/34
f 21/21/21 35/39/35 34/40/36
f 17/17/17 19/19/19 34/40/36
f 17/17/17 33/41/37 32/42/38
f 15/15/15 32/42/38 31/43/39
f 39/46/40 37/67/40 38/68/40
f 38/68/40 48/69/40 47/44/40
f 47/44/40 46/70/40 45/71/40
f 45/71/40 44/72/40 47/44/40
f 44/72/40 43/45/40 47/44/40
f 43/45/40 42/73/40 41/74/40
f 41/74/40 40/75/40 39/46/40
f 39/46/40 38/68/40 47/44/40
f 43/45/40 41/74/40 39/46/40
f 10/10/10 41/47/41 42/22/22
f 8/8/8 40/53/46 41/47/41
f 2/48/1 24/26/26 48/49/42
f 2/1/1 38/76/43 37/51/44
f 8/8/8 6/6/6 39/52/45
f 22/24/24 47/54/47 48/49/42
f 4/4/4 37/51/44 39/52/45
f 20/20/20 46/56/49 47/54/47
f 20/20/20 18/18/18 45/55/48
f 16/16/16 44/57/50 45/55/48
f 14/14/14 43/23/23 44/57/50
