# Blender v3.4.1 OBJ File: 'station.blend'
# www.blender.org
o Silo_2_lod_2_Cylinder.121
v 0.000000 -0.846124 -0.679589
v 0.000000 -0.755301 -0.679589
v 0.480542 -0.846124 -0.480542
v 0.480542 -0.755301 -0.480542
v 0.679589 -0.846124 0.000000
v 0.679589 -0.755301 0.000000
v 0.480542 -0.846124 0.480542
v 0.480542 -0.755301 0.480542
v 0.000000 -0.846124 0.679589
v 0.000000 -0.755301 0.679589
v -0.480542 -0.846124 0.480542
v -0.480542 -0.755301 0.480542
v -0.679589 -0.846124 0.000000
v -0.679589 -0.755301 0.000000
v -0.480542 -0.846124 -0.480542
v -0.480542 -0.755301 -0.480542
v 0.000000 -0.979524 -0.594821
v 0.000000 0.979524 -0.594821
v 0.297410 -0.979524 -0.515130
v 0.297410 0.979524 -0.515130
v 0.515130 -0.979524 -0.297410
v 0.515130 0.979524 -0.297410
v 0.594821 -0.979524 0.000000
v 0.594821 0.979524 0.000000
v 0.515130 -0.979524 0.297410
v 0.515130 0.979524 0.297410
v 0.297410 -0.979524 0.515130
v 0.297410 0.979524 0.515130
v 0.000000 -0.979524 0.594821
v 0.000000 0.979524 0.594821
v -0.297410 -0.979524 0.515130
v -0.297410 0.979524 0.515130
v -0.515130 -0.979524 0.297410
v -0.515130 0.979524 0.297410
v -0.594821 -0.979524 0.000000
v -0.594821 0.979524 0.000000
v -0.515130 -0.979524 -0.297410
v -0.515130 0.979524 -0.297410
v -0.297410 -0.979524 -0.515130
v -0.297410 0.979524 -0.515130
v 0.257206 1.365330 -0.445494
v -0.000000 1.365330 -0.514412
v 0.445494 1.365330 -0.257206
v 0.514412 1.365330 -0.000000
v 0.445494 1.365330 0.257206
v 0.257206 1.365330 0.445494
v -0.000000 1.365330 0.514412
v -0.257206 1.365330 0.445494
v -0.445494 1.365330 0.257206
v -0.514412 1.365330 -0.000000
v -0.445494 1.365330 -0.257206
v -0.257206 1.365330 -0.445494
v 0.186821 1.520727 -0.323583
v -0.000000 1.520727 -0.373641
v 0.323583 1.520727 -0.186821
v 0.373641 1.520727 -0.000000
v 0.323583 1.520727 0.186821
v 0.186821 1.520727 0.323583
v -0.000000 1.520727 0.373641
v -0.186821 1.520727 0.323583
v -0.323583 1.520727 0.186821
v -0.373641 1.520727 -0.000000
v -0.323583 1.520727 -0.186821
v -0.186821 1.520727 -0.323583
v 0.109562 1.559097 -0.189766
v -0.000000 1.559097 -0.219123
v 0.189766 1.559097 -0.109562
v 0.219123 1.559097 0.000000
v 0.189766 1.559097 0.109562
v 0.109562 1.559097 0.189766
v -0.000000 1.559097 0.219123
v -0.109562 1.559097 0.189766
v -0.189766 1.559097 0.109562
v -0.219123 1.559097 0.000000
v -0.189766 1.559097 -0.109562
v -0.109562 1.559097 -0.189766
v -0.000000 -1.283346 -0.542018
v 0.271009 -1.283346 -0.469401
v 0.469401 -1.283346 -0.271009
v 0.542018 -1.283346 0.000000
v 0.469401 -1.283346 0.271009
v 0.271009 -1.283346 0.469401
v -0.000000 -1.283346 0.542018
v -0.271009 -1.283346 0.469401
v -0.469401 -1.283346 0.271009
v -0.542018 -1.283346 0.000000
v -0.469401 -1.283346 -0.271009
v -0.271009 -1.283346 -0.469401
v -0.000000 -1.456203 -0.441461
v 0.220731 -1.456203 -0.382317
v 0.382317 -1.456203 -0.220731
v 0.441461 -1.456203 0.000000
v 0.382317 -1.456203 0.220731
v 0.220731 -1.456203 0.382317
v -0.000000 -1.456203 0.441461
v -0.220731 -1.456203 0.382317
v -0.382317 -1.456203 0.220731
v -0.441461 -1.456203 0.000000
v -0.382317 -1.456203 -0.220731
v -0.220731 -1.456203 -0.382317
v 0.000000 -1.547024 -0.289494
v 0.144747 -1.547024 -0.250709
v 0.250709 -1.547024 -0.144747
v 0.289494 -1.547024 0.000000
v 0.250709 -1.547024 0.144747
v 0.144747 -1.547024 0.250709
v 0.000000 -1.547024 0.289494
v -0.144747 -1.547024 0.250709
v -0.250709 -1.547024 0.144747
v -0.289494 -1.547024 0.000000
v -0.250709 -1.547024 -0.144747
v -0.144747 -1.547024 -0.250709
v 0.000000 -0.048409 -0.679589
v 0.000000 0.042413 -0.679589
v 0.480542 -0.048409 -0.480542
v 0.480542 0.042413 -0.480542
v 0.679589 -0.048409 0.000000
v 0.679589 0.042413 0.000000
v 0.480542 -0.048409 0.480542
v 0.480542 0.042413 0.480542
v 0.000000 -0.048409 0.679589
v 0.000000 0.042413 0.679589
v -0.480542 -0.048409 0.480542
v -0.480542 0.042413 0.480542
v -0.679589 -0.048409 0.000000
v -0.679589 0.042413 0.000000
v -0.480542 -0.048409 -0.480542
v -0.480542 0.042413 -0.480542
v 0.000000 0.754252 -0.679589
v 0.000000 0.845074 -0.679589
v 0.480542 0.754252 -0.480542
v 0.480542 0.845074 -0.480542
v 0.679589 0.754252 0.000000
v 0.679589 0.845074 0.000000
v 0.480542 0.754252 0.480542
v 0.480542 0.845074 0.480542
v 0.000000 0.754252 0.679589
v 0.000000 0.845074 0.679589
v -0.480542 0.754252 0.480542
v -0.480542 0.845074 0.480542
v -0.679589 0.754252 0.000000
v -0.679589 0.845074 0.000000
v -0.480542 0.754252 -0.480542
v -0.480542 0.845074 -0.480542
vt 1.000000 1.000000
vt 0.875000 0.500000
vt 1.000000 0.500000
vt 0.875000 1.000000
vt 0.750000 0.500000
vt 0.750000 1.000000
vt 0.625000 0.500000
vt 0.625000 1.000000
vt 0.500000 0.500000
vt 0.500000 1.000000
vt 0.375000 0.500000
vt 0.375000 1.000000
vt 0.250000 0.500000
vt 0.419706 0.080294
vt 0.490000 0.250000
vt 0.010000 0.250000
vt 0.250000 1.000000
vt 0.125000 0.500000
vt 0.125000 1.000000
vt 0.000000 0.500000
vt 0.510000 0.250000
vt 0.580294 0.419706
vt 0.919706 0.080294
vt 1.000000 1.000000
vt 0.916667 0.500000
vt 1.000000 0.500000
vt 0.916667 1.000000
vt 0.833333 0.500000
vt 0.833333 1.000000
vt 0.750000 0.500000
vt 0.750000 1.000000
vt 0.666667 0.500000
vt 0.666667 1.000000
vt 0.583333 0.500000
vt 0.583333 1.000000
vt 0.500000 0.500000
vt 0.500000 1.000000
vt 0.416667 0.500000
vt 0.416667 1.000000
vt 0.333333 0.500000
vt 0.333333 1.000000
vt 0.250000 0.500000
vt 0.250000 1.000000
vt 0.166667 0.500000
vt 0.416667 1.000000
vt 0.166667 1.000000
vt 0.083333 0.500000
vt 0.083333 1.000000
vt 0.000000 0.500000
vt 0.416667 0.500000
vt 0.750000 1.000000
vt 0.666667 1.000000
vt 0.666667 1.000000
vt 0.500000 1.000000
vt 0.583333 1.000000
vt 0.000000 1.000000
vt 0.000000 1.000000
vt 0.916667 1.000000
vt 0.083333 1.000000
vt 0.833333 1.000000
vt 0.166667 1.000000
vt 0.250000 1.000000
vt 0.333333 1.000000
vt 0.750000 1.000000
vt 0.666667 1.000000
vt 0.083333 1.000000
vt 1.000000 1.000000
vt 0.916667 1.000000
vt 0.333333 1.000000
vt 0.583333 1.000000
vt 0.000000 1.000000
vt 0.833333 1.000000
vt 0.250000 1.000000
vt 0.500000 1.000000
vt 0.166667 1.000000
vt 0.416667 1.000000
vt 0.042154 0.370000
vt 0.250000 0.010000
vt 0.457846 0.370000
vt 0.083333 1.000000
vt 1.000000 1.000000
vt 0.916667 1.000000
vt 0.333333 1.000000
vt 0.583333 1.000000
vt 0.000000 1.000000
vt 0.833333 1.000000
vt 0.250000 1.000000
vt 0.500000 1.000000
vt 0.750000 1.000000
vt 0.166667 1.000000
vt 0.416667 1.000000
vt 0.500000 0.500000
vt 0.416667 0.500000
vt 0.500000 0.500000
vt 0.583333 0.500000
vt 0.666667 0.500000
vt 0.750000 0.500000
vt 0.083333 0.500000
vt 1.000000 0.500000
vt 0.833333 0.500000
vt 0.166667 0.500000
vt 0.916667 0.500000
vt 0.250000 0.500000
vt 0.333333 0.500000
vt 0.250000 0.500000
vt 0.166667 0.500000
vt 0.250000 0.500000
vt 0.666667 0.500000
vt 0.750000 0.500000
vt 0.166667 0.500000
vt 0.916667 0.500000
vt 1.000000 0.500000
vt 0.000000 0.500000
vt 0.083333 0.500000
vt 0.333333 0.500000
vt 0.583333 0.500000
vt 0.833333 0.500000
vt 0.630000 0.042154
vt 0.510000 0.250000
vt 0.630000 0.457846
vt 0.416667 0.500000
vt 0.500000 0.500000
vt 0.666667 0.500000
vt 0.750000 0.500000
vt 0.916667 0.500000
vt 1.000000 0.500000
vt 0.583333 0.500000
vt 0.000000 0.500000
vt 0.083333 0.500000
vt 0.333333 0.500000
vt 0.833333 0.500000
vt 1.000000 1.000000
vt 0.875000 0.500000
vt 1.000000 0.500000
vt 0.875000 1.000000
vt 0.750000 0.500000
vt 0.750000 1.000000
vt 0.625000 0.500000
vt 0.625000 1.000000
vt 0.500000 0.500000
vt 0.500000 1.000000
vt 0.375000 0.500000
vt 0.375000 1.000000
vt 0.250000 0.500000
vt 0.419706 0.080294
vt 0.490000 0.250000
vt 0.010000 0.250000
vt 0.250000 1.000000
vt 0.125000 0.500000
vt 0.125000 1.000000
vt 0.000000 0.500000
vt 0.510000 0.250000
vt 0.580294 0.419706
vt 0.919706 0.080294
vt 1.000000 1.000000
vt 0.875000 0.500000
vt 1.000000 0.500000
vt 0.875000 1.000000
vt 0.750000 0.500000
vt 0.750000 1.000000
vt 0.625000 0.500000
vt 0.625000 1.000000
vt 0.500000 0.500000
vt 0.500000 1.000000
vt 0.375000 0.500000
vt 0.375000 1.000000
vt 0.250000 0.500000
vt 0.419706 0.080294
vt 0.490000 0.250000
vt 0.010000 0.250000
vt 0.250000 1.000000
vt 0.125000 0.500000
vt 0.125000 1.000000
vt 0.000000 0.500000
vt 0.510000 0.250000
vt 0.580294 0.419706
vt 0.919706 0.080294
vt 0.419706 0.419706
vt 0.250000 0.490000
vt 0.080294 0.419706
vt 0.080294 0.080294
vt 0.250000 0.010000
vt 0.000000 1.000000
vt 0.750000 0.490000
vt 0.919706 0.419706
vt 0.990000 0.250000
vt 0.750000 0.010000
vt 0.580294 0.080294
vt 0.370000 0.457846
vt 0.250000 0.490000
vt 0.130000 0.457846
vt 0.010000 0.250000
vt 0.042154 0.130000
vt 0.130000 0.042154
vt 0.370000 0.042154
vt 0.457846 0.130000
vt 0.490000 0.250000
vt 1.000000 1.000000
vt 0.750000 0.490000
vt 0.870000 0.457846
vt 0.957846 0.370000
vt 0.990000 0.250000
vt 0.957846 0.130000
vt 0.870000 0.042154
vt 0.750000 0.010000
vt 0.542154 0.130000
vt 0.542154 0.370000
vt 0.000000 0.500000
vt 0.419706 0.419706
vt 0.250000 0.490000
vt 0.080294 0.419706
vt 0.080294 0.080294
vt 0.250000 0.010000
vt 0.000000 1.000000
vt 0.750000 0.490000
vt 0.919706 0.419706
vt 0.990000 0.250000
vt 0.750000 0.010000
vt 0.580294 0.080294
vt 0.419706 0.419706
vt 0.250000 0.490000
vt 0.080294 0.419706
vt 0.080294 0.080294
vt 0.250000 0.010000
vt 0.000000 1.000000
vt 0.750000 0.490000
vt 0.919706 0.419706
vt 0.990000 0.250000
vt 0.750000 0.010000
vt 0.580294 0.080294
vn -0.0000 0.0000 -1.0000
vn 0.7071 0.0000 -0.7071
vn 1.0000 0.0000 0.0000
vn 0.7071 0.0000 0.7071
vn -0.0000 0.0000 1.0000
vn -0.7071 0.0000 0.7071
vn -1.0000 0.0000 -0.0000
vn 0.0000 1.0000 -0.0000
vn -0.7071 0.0000 -0.7071
vn 0.0000 -1.0000 -0.0000
vn 0.0000 0.1009 -0.9949
vn 0.4982 -0.0847 -0.8629
vn -0.0000 -0.0847 -0.9964
vn 0.4974 0.1009 -0.8616
vn 0.8629 -0.0847 -0.4982
vn 0.8616 0.1009 -0.4974
vn 0.9964 -0.0847 0.0000
vn 0.9949 0.1009 0.0000
vn 0.8629 -0.0847 0.4982
vn 0.8616 0.1009 0.4974
vn 0.4982 -0.0847 0.8629
vn 0.4974 0.1009 0.8616
vn 0.0000 -0.0847 0.9964
vn -0.0000 0.1009 0.9949
vn -0.4982 -0.0847 0.8629
vn -0.4974 0.1009 0.8616
vn -0.8629 -0.0847 0.4982
vn -0.8616 0.1009 0.4974
vn -0.9964 -0.0847 0.0000
vn -0.9949 0.1009 -0.0000
vn -0.8629 -0.0847 -0.4982
vn -0.4497 0.4369 0.7790
vn -0.8616 0.1009 -0.4974
vn -0.4982 -0.0847 -0.8629
vn -0.4974 0.1009 -0.8616
vn -0.4714 -0.3334 0.8165
vn 0.8995 0.4369 -0.0000
vn 0.4739 0.8370 0.2736
vn 0.7790 0.4369 0.4497
vn 0.0000 0.4369 0.8995
vn 0.4497 0.4369 0.7790
vn -0.0000 0.4369 -0.8995
vn 0.4497 0.4369 -0.7790
vn -0.4497 0.4369 -0.7790
vn 0.7790 0.4369 -0.4497
vn -0.7790 0.4369 -0.4497
vn -0.8995 0.4369 0.0000
vn -0.7790 0.4369 0.4497
vn 0.5473 0.8370 -0.0000
vn 0.1223 0.9900 0.0706
vn -0.2736 0.8370 -0.4739
vn 0.2736 0.8370 -0.4739
vn -0.4739 0.8370 0.2736
vn 0.2736 0.8370 0.4739
vn -0.0000 0.8370 -0.5473
vn 0.4739 0.8370 -0.2736
vn -0.5473 0.8370 0.0000
vn 0.0000 0.8370 0.5473
vn -0.4739 0.8370 -0.2736
vn -0.2736 0.8370 0.4739
vn -0.1223 0.9900 -0.0706
vn 0.0000 0.9900 0.1412
vn 0.1223 0.9900 -0.0706
vn -0.0706 0.9900 -0.1223
vn 0.0706 0.9900 -0.1223
vn -0.1223 0.9900 0.0706
vn 0.0706 0.9900 0.1223
vn 0.0000 0.9900 -0.1412
vn -0.1412 0.9900 0.0000
vn 0.1412 0.9900 0.0000
vn -0.0706 0.9900 0.1223
vn -0.0000 -0.3334 0.9428
vn -0.3653 -0.6828 0.6327
vn -0.0000 -0.6828 0.7306
vn 0.4714 -0.3334 0.8165
vn 0.8165 -0.3334 0.4714
vn 0.9428 -0.3334 0.0000
vn -0.4714 -0.3334 -0.8165
vn 0.0000 -0.3334 -0.9428
vn 0.8165 -0.3334 -0.4714
vn -0.8165 -0.3334 -0.4714
vn 0.4714 -0.3334 -0.8165
vn -0.9428 -0.3334 -0.0000
vn -0.8165 -0.3334 0.4714
vn -0.7306 -0.6828 -0.0000
vn -0.2652 -0.9519 -0.1531
vn -0.3063 -0.9519 0.0000
vn 0.6327 -0.6828 0.3653
vn 0.7306 -0.6828 0.0000
vn -0.6327 -0.6828 -0.3653
vn 0.3653 -0.6828 -0.6327
vn -0.0000 -0.6828 -0.7306
vn -0.3653 -0.6828 -0.6327
vn -0.6327 -0.6828 0.3653
vn 0.3653 -0.6828 0.6327
vn 0.6327 -0.6828 -0.3653
vn -0.1531 -0.9519 0.2652
vn -0.1531 -0.9519 -0.2652
vn -0.0000 -0.9519 0.3063
vn 0.2652 -0.9519 0.1531
vn 0.3063 -0.9519 0.0000
vn 0.1531 -0.9519 -0.2652
vn -0.0000 -0.9519 -0.3063
vn 0.1531 -0.9519 0.2652
vn -0.2652 -0.9519 0.1531
vn 0.2652 -0.9519 -0.1531
s 1
f 2/1/1 3/2/2 1/3/1
f 4/4/2 5/5/3 3/2/2
f 6/6/3 7/7/4 5/5/3
f 8/8/4 9/9/5 7/7/4
f 10/10/5 11/11/6 9/9/5
f 12/12/6 13/13/7 11/11/6
f 8/14/8 6/15/8 14/16/8
f 14/17/7 15/18/9 13/13/7
f 16/19/9 1/20/1 15/18/9
f 13/21/10 15/22/10 7/23/10
f 18/24/11 19/25/12 17/26/13
f 20/27/14 21/28/15 19/25/12
f 22/29/16 23/30/17 21/28/15
f 24/31/18 25/32/19 23/30/17
f 26/33/20 27/34/21 25/32/19
f 28/35/22 29/36/23 27/34/21
f 30/37/24 31/38/25 29/36/23
f 32/39/26 33/40/27 31/38/25
f 34/41/28 35/42/29 33/40/27
f 36/43/30 37/44/31 35/42/29
f 30/37/24 48/45/32 32/39/26
f 38/46/33 39/47/34 37/44/31
f 40/48/35 17/49/13 39/47/34
f 33/40/27 84/50/36 31/38/25
f 44/51/37 57/52/38 45/53/39
f 28/35/22 47/54/40 30/37/24
f 26/33/20 46/55/41 28/35/22
f 24/31/18 45/53/39 26/33/20
f 40/48/35 42/56/42 18/57/11
f 18/24/11 41/58/43 20/27/14
f 22/29/16 44/51/37 24/31/18
f 38/46/33 52/59/44 40/48/35
f 20/27/14 43/60/45 22/29/16
f 36/43/30 51/61/46 38/46/33
f 34/41/28 50/62/47 36/43/30
f 32/39/26 49/63/48 34/41/28
f 56/64/49 69/65/50 57/52/38
f 51/61/46 64/66/51 52/59/44
f 42/67/42 53/68/52 41/58/43
f 48/45/32 61/69/53 49/63/48
f 45/53/39 58/70/54 46/55/41
f 52/59/44 54/71/55 42/56/42
f 41/58/43 55/72/56 43/60/45
f 49/63/48 62/73/57 50/62/47
f 46/55/41 59/74/58 47/54/40
f 43/60/45 56/64/49 44/51/37
f 50/62/47 63/75/59 51/61/46
f 47/54/40 60/76/60 48/45/32
f 75/77/61 71/78/62 67/79/63
f 63/75/59 76/80/64 64/66/51
f 54/81/55 65/82/65 53/68/52
f 60/76/60 73/83/66 61/69/53
f 57/52/38 70/84/67 58/70/54
f 54/71/55 76/80/64 66/85/68
f 53/68/52 67/86/63 55/72/56
f 62/73/57 73/83/66 74/87/69
f 59/74/58 70/84/67 71/88/62
f 56/64/49 67/86/63 68/89/70
f 62/73/57 75/90/61 63/75/59
f 59/74/58 72/91/71 60/76/60
f 83/92/72 96/93/73 95/94/74
f 31/38/25 83/92/72 29/36/23
f 29/36/23 82/95/75 27/34/21
f 27/34/21 81/96/76 25/32/19
f 25/32/19 80/97/77 23/30/17
f 17/49/13 88/98/78 39/47/34
f 19/25/12 77/99/79 17/26/13
f 23/30/17 79/100/80 21/28/15
f 39/47/34 87/101/81 37/44/31
f 21/28/15 78/102/82 19/25/12
f 37/44/31 86/103/83 35/42/29
f 35/42/29 85/104/84 33/40/27
f 98/105/85 111/106/86 110/107/87
f 80/97/77 93/108/88 92/109/89
f 88/98/78 99/110/90 87/101/81
f 77/99/79 90/111/91 89/112/92
f 85/104/84 96/93/73 84/50/36
f 82/95/75 93/108/88 81/96/76
f 77/113/79 100/114/93 88/98/78
f 79/100/80 90/111/91 78/102/82
f 86/103/83 97/115/94 85/104/84
f 83/92/72 94/116/95 82/95/75
f 80/97/77 91/117/96 79/100/80
f 86/103/83 99/110/90 98/105/85
f 108/118/97 110/119/87 112/120/98
f 95/94/74 108/121/97 107/122/99
f 92/109/89 105/123/100 104/124/101
f 100/114/93 111/106/86 99/110/90
f 89/112/92 102/125/102 101/126/103
f 97/115/94 108/121/97 96/93/73
f 93/108/88 106/127/104 105/123/100
f 89/128/92 112/129/98 100/114/93
f 91/117/96 102/125/102 90/111/91
f 98/105/85 109/130/105 97/115/94
f 95/94/74 106/127/104 94/116/95
f 92/109/89 103/131/106 91/117/96
f 114/132/1 115/133/2 113/134/1
f 116/135/2 117/136/3 115/133/2
f 118/137/3 119/138/4 117/136/3
f 120/139/4 121/140/5 119/138/4
f 122/141/5 123/142/6 121/140/5
f 124/143/6 125/144/7 123/142/6
f 120/145/8 118/146/8 126/147/8
f 126/148/7 127/149/9 125/144/7
f 128/150/9 113/151/1 127/149/9
f 125/152/10 127/153/10 119/154/10
f 130/155/1 131/156/2 129/157/1
f 132/158/2 133/159/3 131/156/2
f 134/160/3 135/161/4 133/159/3
f 136/162/4 137/163/5 135/161/4
f 138/164/5 139/165/6 137/163/5
f 140/166/6 141/167/7 139/165/6
f 136/168/8 134/169/8 142/170/8
f 142/171/7 143/172/9 141/167/7
f 144/173/9 129/174/1 143/172/9
f 141/175/10 143/176/10 135/177/10
f 2/1/1 4/4/2 3/2/2
f 4/4/2 6/6/3 5/5/3
f 6/6/3 8/8/4 7/7/4
f 8/8/4 10/10/5 9/9/5
f 10/10/5 12/12/6 11/11/6
f 12/12/6 14/17/7 13/13/7
f 6/15/8 4/178/8 2/179/8
f 2/179/8 16/180/8 6/15/8
f 16/180/8 14/16/8 6/15/8
f 14/16/8 12/181/8 10/182/8
f 10/182/8 8/14/8 14/16/8
f 14/17/7 16/19/9 15/18/9
f 16/19/9 2/183/1 1/20/1
f 15/22/10 1/184/10 3/185/10
f 3/185/10 5/186/10 15/22/10
f 5/186/10 7/23/10 15/22/10
f 7/23/10 9/187/10 11/188/10
f 11/188/10 13/21/10 7/23/10
f 18/24/11 20/27/14 19/25/12
f 20/27/14 22/29/16 21/28/15
f 22/29/16 24/31/18 23/30/17
f 24/31/18 26/33/20 25/32/19
f 26/33/20 28/35/22 27/34/21
f 28/35/22 30/37/24 29/36/23
f 30/37/24 32/39/26 31/38/25
f 32/39/26 34/41/28 33/40/27
f 34/41/28 36/43/30 35/42/29
f 36/43/30 38/46/33 37/44/31
f 30/37/24 47/54/40 48/45/32
f 38/46/33 40/48/35 39/47/34
f 40/48/35 18/57/11 17/49/13
f 33/40/27 85/104/84 84/50/36
f 44/51/37 56/64/49 57/52/38
f 28/35/22 46/55/41 47/54/40
f 26/33/20 45/53/39 46/55/41
f 24/31/18 44/51/37 45/53/39
f 40/48/35 52/59/44 42/56/42
f 18/24/11 42/67/42 41/58/43
f 22/29/16 43/60/45 44/51/37
f 38/46/33 51/61/46 52/59/44
f 20/27/14 41/58/43 43/60/45
f 36/43/30 50/62/47 51/61/46
f 34/41/28 49/63/48 50/62/47
f 32/39/26 48/45/32 49/63/48
f 56/64/49 68/89/70 69/65/50
f 51/61/46 63/75/59 64/66/51
f 42/67/42 54/81/55 53/68/52
f 48/45/32 60/76/60 61/69/53
f 45/53/39 57/52/38 58/70/54
f 52/59/44 64/66/51 54/71/55
f 41/58/43 53/68/52 55/72/56
f 49/63/48 61/69/53 62/73/57
f 46/55/41 58/70/54 59/74/58
f 43/60/45 55/72/56 56/64/49
f 50/62/47 62/73/57 63/75/59
f 47/54/40 59/74/58 60/76/60
f 67/79/63 65/189/65 66/190/68
f 66/190/68 76/191/64 75/77/61
f 75/77/61 74/192/69 71/78/62
f 74/192/69 73/193/66 71/78/62
f 73/193/66 72/194/71 71/78/62
f 71/78/62 70/195/67 69/196/50
f 69/196/50 68/197/70 71/78/62
f 68/197/70 67/79/63 71/78/62
f 67/79/63 66/190/68 75/77/61
f 63/75/59 75/90/61 76/80/64
f 54/81/55 66/198/68 65/82/65
f 60/76/60 72/91/71 73/83/66
f 57/52/38 69/65/50 70/84/67
f 54/71/55 64/66/51 76/80/64
f 53/68/52 65/82/65 67/86/63
f 62/73/57 61/69/53 73/83/66
f 59/74/58 58/70/54 70/84/67
f 56/64/49 55/72/56 67/86/63
f 62/73/57 74/87/69 75/90/61
f 59/74/58 71/88/62 72/91/71
f 83/92/72 84/50/36 96/93/73
f 31/38/25 84/50/36 83/92/72
f 29/36/23 83/92/72 82/95/75
f 27/34/21 82/95/75 81/96/76
f 25/32/19 81/96/76 80/97/77
f 17/49/13 77/113/79 88/98/78
f 19/25/12 78/102/82 77/99/79
f 23/30/17 80/97/77 79/100/80
f 39/47/34 88/98/78 87/101/81
f 21/28/15 79/100/80 78/102/82
f 37/44/31 87/101/81 86/103/83
f 35/42/29 86/103/83 85/104/84
f 98/105/85 99/110/90 111/106/86
f 80/97/77 81/96/76 93/108/88
f 88/98/78 100/114/93 99/110/90
f 77/99/79 78/102/82 90/111/91
f 85/104/84 97/115/94 96/93/73
f 82/95/75 94/116/95 93/108/88
f 77/113/79 89/128/92 100/114/93
f 79/100/80 91/117/96 90/111/91
f 86/103/83 98/105/85 97/115/94
f 83/92/72 95/94/74 94/116/95
f 80/97/77 92/109/89 91/117/96
f 86/103/83 87/101/81 99/110/90
f 112/120/98 101/199/103 102/200/102
f 102/200/102 103/201/106 104/202/101
f 104/202/101 105/203/100 108/118/97
f 105/203/100 106/204/104 108/118/97
f 106/204/104 107/205/99 108/118/97
f 108/118/97 109/206/105 110/119/87
f 110/119/87 111/207/86 112/120/98
f 112/120/98 102/200/102 108/118/97
f 102/200/102 104/202/101 108/118/97
f 95/94/74 96/93/73 108/121/97
f 92/109/89 93/108/88 105/123/100
f 100/114/93 112/129/98 111/106/86
f 89/112/92 90/111/91 102/125/102
f 97/115/94 109/130/105 108/121/97
f 93/108/88 94/116/95 106/127/104
f 89/128/92 101/208/103 112/129/98
f 91/117/96 103/131/106 102/125/102
f 98/105/85 110/107/87 109/130/105
f 95/94/74 107/122/99 106/127/104
f 92/109/89 104/124/101 103/131/106
f 114/132/1 116/135/2 115/133/2
f 116/135/2 118/137/3 117/136/3
f 118/137/3 120/139/4 119/138/4
f 120/139/4 122/141/5 121/140/5
f 122/141/5 124/143/6 123/142/6
f 124/143/6 126/148/7 125/144/7
f 118/146/8 116/209/8 114/210/8
f 114/210/8 128/211/8 118/146/8
f 128/211/8 126/147/8 118/146/8
f 126/147/8 124/212/8 122/213/8
f 122/213/8 120/145/8 126/147/8
f 126/148/7 128/150/9 127/149/9
f 128/150/9 114/214/1 113/151/1
f 127/153/10 113/215/10 115/216/10
f 115/216/10 117/217/10 127/153/10
f 117/217/10 119/154/10 127/153/10
f 119/154/10 121/218/10 123/219/10
f 123/219/10 125/152/10 119/154/10
f 130/155/1 132/158/2 131/156/2
f 132/158/2 134/160/3 133/159/3
f 134/160/3 136/162/4 135/161/4
f 136/162/4 138/164/5 137/163/5
f 138/164/5 140/166/6 139/165/6
f 140/166/6 142/171/7 141/167/7
f 134/169/8 132/220/8 130/221/8
f 130/221/8 144/222/8 134/169/8
f 144/222/8 142/170/8 134/169/8
f 142/170/8 140/223/8 138/224/8
f 138/224/8 136/168/8 142/170/8
f 142/171/7 144/173/9 143/172/9
f 144/173/9 130/225/1 129/174/1
f 143/176/10 129/226/10 131/227/10
f 131/227/10 133/228/10 143/176/10
f 133/228/10 135/177/10 143/176/10
f 135/177/10 137/229/10 139/230/10
f 139/230/10 141/175/10 135/177/10
