# Blender v3.4.1 OBJ File: 'station.blend'
# www.blender.org
o Solar_Panel_2_Plane.002
v -0.200000 -0.002642 1.000000
v 0.200000 -0.002642 1.000000
v -0.200000 -0.002642 -1.000000
v 0.200000 -0.002642 -1.000000
v -0.200000 0.047358 -0.666667
v -0.200000 -0.002642 -0.333333
v -0.200000 0.047358 0.000000
v -0.200000 -0.002642 0.333333
v -0.200000 0.047358 0.666667
v 0.200000 0.047358 0.666667
v 0.200000 -0.002642 0.333333
v 0.200000 0.047358 -0.000000
v 0.200000 -0.002642 -0.333333
v 0.200000 0.047358 -0.666667
v -0.200000 -0.002642 1.000000
v 0.200000 -0.002642 1.000000
v -0.200000 -0.002642 -1.000000
v 0.200000 -0.002642 -1.000000
v -0.200000 0.047358 -0.666667
v -0.200000 -0.002642 -0.333333
v -0.200000 0.047358 0.000000
v -0.200000 -0.002642 0.333333
v -0.200000 0.047358 0.666667
v 0.200000 0.047358 0.666667
v 0.200000 -0.002642 0.333333
v 0.200000 0.047358 -0.000000
v 0.200000 -0.002642 -0.333333
v 0.200000 0.047358 -0.666667
v 0.210970 -0.014900 1.002689
v 0.210970 -0.004286 1.002689
v -0.210970 -0.014900 1.002689
v -0.210970 -0.004286 1.002689
v 0.210970 -0.014900 0.986809
v 0.210970 -0.004286 0.986809
v -0.210970 -0.014900 0.986809
v -0.210970 -0.004286 0.986809
v -0.018613 -0.007029 1.438293
v -0.018613 0.003584 1.438293
v -0.018613 -0.007029 0.992040
v -0.018613 0.003584 0.992040
v 0.018613 -0.007029 1.438293
v 0.018613 0.003584 1.438293
v 0.018613 -0.007029 0.992040
v 0.018613 0.003584 0.992040
v 0.210970 0.001617 1.002689
v 0.210970 0.012231 1.002689
v -0.210970 0.001617 1.002689
v -0.210970 0.012231 1.002689
v 0.210970 0.001617 0.986809
v 0.210970 0.012231 0.986809
v -0.210970 0.001617 0.986809
v -0.210970 0.012231 0.986809
vt 0.000000 1.000000
vt 1.000000 0.833333
vt 0.000000 0.833333
vt 0.000000 0.166667
vt 1.000000 0.000000
vt 0.000000 0.000000
vt 0.000000 0.333333
vt 1.000000 0.166667
vt 0.000000 0.500000
vt 1.000000 0.333333
vt 0.000000 0.666667
vt 1.000000 0.500000
vt 1.000000 0.666667
vt 1.000000 0.833333
vt 0.000000 1.000000
vt 0.000000 0.833333
vt 1.000000 0.000000
vt 0.000000 0.166667
vt 0.000000 0.000000
vt 1.000000 0.166667
vt 0.000000 0.333333
vt 1.000000 0.333333
vt 0.000000 0.500000
vt 1.000000 0.500000
vt 0.000000 0.666667
vt 1.000000 0.666667
vt 0.625000 0.000000
vt 0.375000 0.250000
vt 0.375000 0.000000
vt 0.625000 0.250000
vt 0.375000 0.500000
vt 0.625000 0.500000
vt 0.375000 0.750000
vt 0.625000 0.750000
vt 0.375000 1.000000
vt 0.125000 0.750000
vt 0.125000 0.500000
vt 0.875000 0.500000
vt 0.625000 0.000000
vt 0.375000 0.250000
vt 0.375000 0.000000
vt 0.625000 0.250000
vt 0.375000 0.500000
vt 0.625000 0.500000
vt 0.375000 0.750000
vt 0.625000 0.750000
vt 0.375000 1.000000
vt 0.125000 0.750000
vt 0.125000 0.500000
vt 0.875000 0.500000
vt 0.625000 0.000000
vt 0.375000 0.250000
vt 0.375000 0.000000
vt 0.625000 0.250000
vt 0.375000 0.500000
vt 0.625000 0.500000
vt 0.375000 0.750000
vt 0.625000 0.750000
vt 0.375000 1.000000
vt 0.125000 0.750000
vt 0.125000 0.500000
vt 0.875000 0.500000
vt 1.000000 1.000000
vt 1.000000 1.000000
vt 0.625000 1.000000
vt 0.875000 0.750000
vt 0.625000 1.000000
vt 0.875000 0.750000
vt 0.625000 1.000000
vt 0.875000 0.750000
vn 0.0000 -0.9889 0.1483
vn 0.0000 -0.9889 -0.1483
vn -0.0000 0.9889 -0.1483
vn 0.0000 0.9889 0.1483
vn 0.0000 0.0000 1.0000
vn -1.0000 0.0000 0.0000
vn 0.0000 0.0000 -1.0000
vn 1.0000 0.0000 0.0000
vn 0.0000 -1.0000 0.0000
vn 0.0000 1.0000 0.0000
s off
f 3/1/1 14/2/1 5/3/1
f 9/4/2 2/5/2 1/6/2
f 8/7/1 10/8/1 9/4/1
f 7/9/2 11/10/2 8/7/2
f 6/11/1 12/12/1 7/9/1
f 5/3/2 13/13/2 6/11/2
f 28/14/3 17/15/3 19/16/3
f 16/17/4 23/18/4 15/19/4
f 24/20/3 22/21/3 23/18/3
f 25/22/4 21/23/4 22/21/4
f 26/24/3 20/25/3 21/23/3
f 27/26/4 19/16/4 20/25/4
f 30/27/5 31/28/5 29/29/5
f 32/30/6 35/31/6 31/28/6
f 36/32/7 33/33/7 35/31/7
f 34/34/8 29/35/8 33/33/8
f 35/31/9 29/36/9 31/37/9
f 32/38/10 34/34/10 36/32/10
f 38/39/6 39/40/6 37/41/6
f 40/42/7 43/43/7 39/40/7
f 44/44/8 41/45/8 43/43/8
f 42/46/5 37/47/5 41/45/5
f 43/43/9 37/48/9 39/49/9
f 40/50/10 42/46/10 44/44/10
f 46/51/5 47/52/5 45/53/5
f 48/54/6 51/55/6 47/52/6
f 52/56/7 49/57/7 51/55/7
f 50/58/8 45/59/8 49/57/8
f 51/55/9 45/60/9 47/61/9
f 48/62/10 50/58/10 52/56/10
f 3/1/1 4/63/1 14/2/1
f 9/4/2 10/8/2 2/5/2
f 8/7/1 11/10/1 10/8/1
f 7/9/2 12/12/2 11/10/2
f 6/11/1 13/13/1 12/12/1
f 5/3/2 14/2/2 13/13/2
f 28/14/3 18/64/3 17/15/3
f 16/17/4 24/20/4 23/18/4
f 24/20/3 25/22/3 22/21/3
f 25/22/4 26/24/4 21/23/4
f 26/24/3 27/26/3 20/25/3
f 27/26/4 28/14/4 19/16/4
f 30/27/5 32/30/5 31/28/5
f 32/30/6 36/32/6 35/31/6
f 36/32/7 34/34/7 33/33/7
f 34/34/8 30/65/8 29/35/8
f 35/31/9 33/33/9 29/36/9
f 32/38/10 30/66/10 34/34/10
f 38/39/6 40/42/6 39/40/6
f 40/42/7 44/44/7 43/43/7
f 44/44/8 42/46/8 41/45/8
f 42/46/5 38/67/5 37/47/5
f 43/43/9 41/45/9 37/48/9
f 40/50/10 38/68/10 42/46/10
f 46/51/5 48/54/5 47/52/5
f 48/54/6 52/56/6 51/55/6
f 52/56/7 50/58/7 49/57/7
f 50/58/8 46/69/8 45/59/8
f 51/55/9 49/57/9 45/60/9
f 48/62/10 46/70/10 50/58/10
