# Blender v3.4.1 OBJ File: 'station.blend'
# www.blender.org
o Solar_Panel_1_Plane
v -0.395730 0.000000 2.179449
v 0.395730 0.000000 2.179449
v -0.395730 0.000000 -2.178051
v 0.395730 0.000000 -2.178051
v -0.056957 -0.056957 3.150165
v -0.056957 0.056957 3.150165
v -0.056957 -0.056957 1.940876
v -0.056957 0.056957 1.940876
v 0.056957 -0.056957 3.150165
v 0.056957 0.056957 3.150165
v 0.056957 -0.056957 1.940876
v 0.056957 0.056957 1.940876
v 0.395730 -0.000000 2.179449
v -0.395730 0.000000 2.179449
v 0.395730 -0.000000 -2.178051
v -0.395730 0.000000 -2.178051
vt 1.000000 0.000000
vt 0.000000 1.000000
vt 0.000000 0.000000
vt 0.625000 0.000000
vt 0.375000 0.250000
vt 0.375000 0.000000
vt 0.625000 0.250000
vt 0.375000 0.500000
vt 0.625000 0.500000
vt 0.375000 0.750000
vt 0.625000 0.750000
vt 0.375000 1.000000
vt 0.125000 0.750000
vt 0.125000 0.500000
vt 0.875000 0.500000
vt 1.000000 0.000000
vt 0.000000 1.000000
vt 0.000000 0.000000
vt 1.000000 1.000000
vt 0.625000 1.000000
vt 0.875000 0.750000
vt 1.000000 1.000000
vn 0.0000 1.0000 0.0000
vn -1.0000 0.0000 0.0000
vn 0.0000 0.0000 -1.0000
vn 1.0000 0.0000 0.0000
vn 0.0000 0.0000 1.0000
vn 0.0000 -1.0000 0.0000
s off
f 2/1/1 3/2/1 1/3/1
f 6/4/2 7/5/2 5/6/2
f 8/7/3 11/8/3 7/5/3
f 12/9/4 9/10/4 11/8/4
f 10/11/5 5/12/5 9/10/5
f 11/8/6 5/13/6 7/14/6
f 8/15/1 10/11/1 12/9/1
f 14/16/6 15/17/6 13/18/6
f 2/1/1 4/19/1 3/2/1
f 6/4/2 8/7/2 7/5/2
f 8/7/3 12/9/3 11/8/3
f 12/9/4 10/11/4 9/10/4
f 10/11/5 6/20/5 5/12/5
f 11/8/6 9/10/6 5/13/6
f 8/15/1 6/21/1 10/11/1
f 14/16/6 16/22/6 15/17/6
