# Blender v3.4.1 OBJ File: 'station.blend'
# www.blender.org
o Track_1_lod_2_Cylinder.014
v 0.000000 0.253500 -1.000000
v 0.000000 0.253500 1.000000
v 0.097010 0.234204 -1.000000
v 0.097010 0.234203 1.000000
v 0.179252 0.179252 -1.000000
v 0.179252 0.179251 1.000000
v 0.234204 0.097010 -1.000000
v 0.234204 0.097010 1.000000
v 0.253500 0.000000 -1.000000
v 0.253500 -0.000000 1.000000
v 0.234204 -0.097010 -1.000000
v 0.234204 -0.097010 1.000000
v 0.179252 -0.179251 -1.000000
v 0.179252 -0.179252 1.000000
v 0.097010 -0.234203 -1.000000
v 0.097010 -0.234204 1.000000
v 0.000000 -0.253500 -1.000000
v 0.000000 -0.253500 1.000000
v -0.097010 -0.234203 -1.000000
v -0.097010 -0.234204 1.000000
v -0.179252 -0.179251 -1.000000
v -0.179252 -0.179252 1.000000
v -0.234204 -0.097010 -1.000000
v -0.234204 -0.097010 1.000000
v -0.253500 0.000000 -1.000000
v -0.253500 -0.000000 1.000000
v -0.234204 0.097010 -1.000000
v -0.234204 0.097010 1.000000
v -0.179252 0.179252 -1.000000
v -0.179252 0.179251 1.000000
v -0.097010 0.234204 -1.000000
v -0.097010 0.234203 1.000000
v -0.029532 -0.287171 1.000000
v -0.048296 -0.272066 1.000000
v -0.049854 0.266849 1.000000
v -0.034750 0.285612 1.000000
v -0.049854 -0.266849 -1.000000
v -0.034750 -0.285612 -1.000000
v -0.029532 0.287171 -1.000000
v -0.048296 0.272066 -1.000000
v 0.049854 -0.266849 1.000000
v 0.034750 -0.285612 1.000000
v 0.029532 0.287171 1.000000
v 0.048296 0.272066 1.000000
v 0.029532 -0.287171 -1.000000
v 0.048296 -0.272066 -1.000000
v 0.049854 0.266849 -1.000000
v 0.034750 0.285612 -1.000000
v -0.287171 0.029532 1.000000
v -0.272066 0.048296 1.000000
v 0.266849 0.049854 1.000000
v 0.285612 0.034750 1.000000
v -0.266849 0.049854 -1.000000
v -0.285612 0.034750 -1.000000
v 0.287171 0.029532 -1.000000
v 0.272066 0.048296 -1.000000
v -0.266849 -0.049854 1.000000
v -0.285612 -0.034750 1.000000
v 0.287171 -0.029532 1.000000
v 0.272066 -0.048296 1.000000
v -0.287171 -0.029532 -1.000000
v -0.272066 -0.048296 -1.000000
v 0.266849 -0.049854 -1.000000
v 0.285612 -0.034750 -1.000000
vt 0.381013 0.000000
vt 0.384256 0.250000
vt 0.375000 0.250000
vt 0.618987 0.250000
vt 0.615744 0.000000
vt 0.625000 0.000000
vt 0.381013 0.500000
vt 0.384256 0.750000
vt 0.340842 0.750000
vt 0.618987 0.750000
vt 0.615744 0.500000
vt 0.659158 0.500000
vt 0.381013 0.000000
vt 0.384256 0.250000
vt 0.375000 0.250000
vt 0.618987 0.250000
vt 0.615744 0.000000
vt 0.625000 0.000000
vt 0.381013 0.500000
vt 0.384256 0.750000
vt 0.340842 0.750000
vt 0.618987 0.750000
vt 0.615744 0.500000
vt 0.659158 0.500000
vt 0.937500 0.500000
vt 0.875000 1.000000
vt 0.875000 0.500000
vt 0.812500 1.000000
vt 0.812500 0.500000
vt 0.750000 1.000000
vt 0.750000 0.500000
vt 0.687500 1.000000
vt 0.687500 0.500000
vt 0.625000 1.000000
vt 0.625000 0.500000
vt 0.562500 1.000000
vt 0.562500 0.500000
vt 0.500000 1.000000
vt 0.500000 0.500000
vt 0.437500 1.000000
vt 0.437500 0.500000
vt 0.375000 1.000000
vt 0.375000 0.500000
vt 0.312500 1.000000
vt 0.312500 0.500000
vt 0.250000 1.000000
vt 0.250000 0.500000
vt 0.187500 1.000000
vt 0.187500 0.500000
vt 0.125000 1.000000
vt 0.125000 0.500000
vt 0.062500 1.000000
vt 0.062500 0.500000
vt 0.000000 1.000000
vt 0.000000 0.500000
vt 0.937500 1.000000
vt 1.000000 0.500000
vt 1.000000 1.000000
vt 0.617694 0.757345
vt 0.677582 0.750000
vt 0.822417 0.500000
vt 0.840842 0.750000
vt 0.617694 0.257345
vt 0.177582 0.750000
vt 0.322418 0.500000
vt 0.125000 0.750000
vt 0.159158 0.500000
vt 0.875000 0.500000
vt 0.617694 0.757345
vt 0.677582 0.750000
vt 0.822418 0.500000
vt 0.840842 0.750000
vt 0.617694 0.257345
vt 0.177582 0.750000
vt 0.322418 0.500000
vt 0.125000 0.750000
vt 0.159158 0.500000
vt 0.875000 0.500000
vn -0.6283 -0.7779 0.0010
vn -0.7790 -0.6271 -0.0010
vn -0.7779 -0.6283 -0.0010
vn -0.6283 0.7779 -0.0010
vn -0.7790 0.6271 0.0010
vn -0.7779 0.6283 0.0010
vn 0.6283 -0.7779 -0.0010
vn 0.7790 -0.6271 0.0010
vn 0.7779 -0.6283 0.0010
vn 0.6283 0.7779 0.0010
vn 0.7790 0.6271 -0.0010
vn 0.7779 0.6283 -0.0010
vn -0.6271 0.7790 -0.0010
vn 0.6271 0.7790 0.0010
vn -0.6271 -0.7790 0.0010
vn 0.6271 -0.7790 -0.0010
vn 0.3827 0.9239 0.0000
vn 0.7071 0.7071 0.0000
vn 0.9239 0.3827 0.0000
vn 1.0000 0.0000 -0.0000
vn 0.9239 -0.3827 -0.0000
vn 0.7071 -0.7071 -0.0000
vn 0.3827 -0.9239 -0.0000
vn -0.0000 -1.0000 -0.0000
vn -0.3827 -0.9239 -0.0000
vn -0.7071 -0.7071 -0.0000
vn -0.9239 -0.3827 -0.0000
vn -1.0000 -0.0000 0.0000
vn -0.9239 0.3827 0.0000
vn -0.7071 0.7071 0.0000
vn -0.3827 0.9239 0.0000
vn 0.0000 1.0000 0.0000
vn 1.0000 0.0019 0.0005
vn 1.0000 -0.0019 -0.0005
vn 1.0000 0.0029 0.0008
vn -0.0232 0.9997 0.0007
vn 0.0232 0.9997 -0.0007
vn -0.0242 0.9997 0.0007
vn -1.0000 0.0019 -0.0005
vn -1.0000 -0.0019 0.0005
vn -1.0000 0.0029 -0.0008
vn 0.0232 -0.9997 0.0007
vn -0.0232 -0.9997 -0.0007
vn 0.0242 -0.9997 0.0007
vn 0.0019 -1.0000 0.0005
vn -0.0019 -1.0000 -0.0005
vn 0.0029 -1.0000 0.0008
vn 0.9997 0.0232 0.0007
vn 0.9997 -0.0232 -0.0007
vn 0.9997 0.0242 0.0007
vn 0.0019 1.0000 -0.0005
vn -0.0019 1.0000 0.0005
vn 0.0029 1.0000 -0.0008
vn -0.9997 -0.0232 0.0007
vn -0.9997 0.0232 -0.0007
vn -0.9997 -0.0242 0.0007
vn 1.0000 -0.0029 -0.0008
vn 0.0242 0.9997 -0.0007
vn -1.0000 -0.0029 0.0008
vn -0.0242 -0.9997 -0.0007
vn -0.0029 -1.0000 -0.0008
vn 0.9997 -0.0242 -0.0007
vn -0.0029 1.0000 0.0008
vn -0.9997 0.0242 -0.0007
s 1
f 34/1/1 37/2/2 38/3/3
f 40/4/4 35/5/5 36/6/6
f 46/7/7 41/8/8 42/9/9
f 44/10/10 47/11/11 48/12/12
f 50/13/6 53/14/13 54/15/4
f 56/16/12 51/17/14 52/18/10
f 62/19/3 57/20/15 58/21/1
f 60/22/9 63/23/16 64/24/7
f 3/25/17 6/26/18 5/27/18
f 5/27/18 8/28/19 7/29/19
f 7/29/19 10/30/20 9/31/20
f 9/31/20 12/32/21 11/33/21
f 11/33/21 14/34/22 13/35/22
f 13/35/22 16/36/23 15/37/23
f 18/38/24 15/37/23 16/36/23
f 17/39/24 20/40/25 19/41/25
f 19/41/25 22/42/26 21/43/26
f 21/43/26 24/44/27 23/45/27
f 23/45/27 26/46/28 25/47/28
f 25/47/28 28/48/29 27/49/29
f 27/49/29 30/50/30 29/51/30
f 29/51/30 32/52/31 31/53/31
f 31/53/31 2/54/32 1/55/32
f 4/56/17 1/57/32 2/58/32
f 41/8/33 47/11/34 44/59/35
f 43/60/36 39/61/37 36/62/38
f 37/2/39 35/5/40 40/63/41
f 33/64/42 45/65/43 42/9/44
f 33/64/15 34/66/1 38/67/3
f 39/61/13 40/68/4 36/62/6
f 45/65/16 46/7/7 42/9/9
f 43/60/14 44/10/10 48/12/12
f 57/20/45 63/23/46 60/69/47
f 59/70/48 55/71/49 52/72/50
f 53/14/51 51/17/52 56/73/53
f 49/74/54 61/75/55 58/21/56
f 49/74/5 50/76/6 54/77/4
f 55/71/11 56/78/12 52/72/10
f 61/75/2 62/19/3 58/21/1
f 59/70/8 60/22/9 64/24/7
f 3/25/17 4/56/17 6/26/18
f 5/27/18 6/26/18 8/28/19
f 7/29/19 8/28/19 10/30/20
f 9/31/20 10/30/20 12/32/21
f 11/33/21 12/32/21 14/34/22
f 13/35/22 14/34/22 16/36/23
f 18/38/24 17/39/24 15/37/23
f 17/39/24 18/38/24 20/40/25
f 19/41/25 20/40/25 22/42/26
f 21/43/26 22/42/26 24/44/27
f 23/45/27 24/44/27 26/46/28
f 25/47/28 26/46/28 28/48/29
f 27/49/29 28/48/29 30/50/30
f 29/51/30 30/50/30 32/52/31
f 31/53/31 32/52/31 2/54/32
f 4/56/17 3/25/17 1/57/32
f 41/8/33 46/7/57 47/11/34
f 43/60/36 48/12/58 39/61/37
f 37/2/39 34/1/59 35/5/40
f 33/64/42 38/67/60 45/65/43
f 57/20/45 62/19/61 63/23/46
f 59/70/48 64/24/62 55/71/49
f 53/14/51 50/13/63 51/17/52
f 49/74/54 54/77/64 61/75/55
