# Blender v3.4.1 OBJ File: 'bike.blend'
# www.blender.org
o Cone
v 0.000000 0.500000 0.000000
v 0.191342 0.461940 0.000000
v 0.353553 0.353553 0.000000
v 0.461940 0.191342 0.000000
v 0.500000 0.000000 0.000000
v 0.461940 -0.191342 -0.000000
v 0.353553 -0.353553 -0.000000
v 0.191342 -0.461940 -0.000000
v 0.000000 -0.500000 -0.000000
v -0.191342 -0.461940 -0.000000
v -0.353553 -0.353553 -0.000000
v -0.461940 -0.191342 -0.000000
v -0.500000 0.000000 0.000000
v -0.461940 0.191342 0.000000
v -0.353553 0.353553 0.000000
v -0.191342 0.461940 0.000000
v 0.000000 -0.000000 1.000000
vt 0.250000 0.490000
vt 0.250000 0.250000
vt 0.341844 0.471731
vt 0.419706 0.419706
vt 0.471731 0.341844
vt 0.490000 0.250000
vt 0.471731 0.158156
vt 0.419706 0.080294
vt 0.341844 0.028269
vt 0.250000 0.010000
vt 0.158156 0.028269
vt 0.080294 0.080294
vt 0.028269 0.158156
vt 0.010000 0.250000
vt 0.028269 0.341844
vt 0.080294 0.419706
vt 0.841844 0.028269
vt 0.528269 0.158156
vt 0.658156 0.471731
vt 0.158156 0.471731
vt 0.750000 0.490000
vt 0.841844 0.471731
vt 0.919706 0.419706
vt 0.971731 0.341844
vt 0.990000 0.250000
vt 0.971731 0.158156
vt 0.919706 0.080294
vt 0.750000 0.010000
vt 0.658156 0.028269
vt 0.580294 0.080294
vt 0.510000 0.250000
vt 0.528269 0.341844
vt 0.580294 0.419706
vn 0.0000 0.8944 0.4472
vn -0.0000 -0.0000 1.0000
vn 0.3423 0.8263 0.4472
vn 0.6325 0.6325 0.4472
vn 0.8263 0.3423 0.4472
vn 0.8944 0.0000 0.4472
vn 0.8263 -0.3423 0.4472
vn 0.6325 -0.6325 0.4472
vn 0.3423 -0.8263 0.4472
vn 0.0000 -0.8944 0.4472
vn -0.3423 -0.8263 0.4472
vn -0.6325 -0.6325 0.4472
vn -0.8263 -0.3423 0.4472
vn -0.8944 -0.0000 0.4472
vn -0.8263 0.3423 0.4472
vn -0.6325 0.6325 0.4472
vn -0.0000 0.0000 -1.0000
vn -0.3423 0.8263 0.4472
s 1
f 1/1/1 17/2/2 2/3/3
f 2/3/3 17/2/2 3/4/4
f 3/4/4 17/2/2 4/5/5
f 4/5/5 17/2/2 5/6/6
f 5/6/6 17/2/2 6/7/7
f 6/7/7 17/2/2 7/8/8
f 7/8/8 17/2/2 8/9/9
f 8/9/9 17/2/2 9/10/10
f 9/10/10 17/2/2 10/11/11
f 10/11/11 17/2/2 11/12/12
f 11/12/12 17/2/2 12/13/13
f 12/13/13 17/2/2 13/14/14
f 13/14/14 17/2/2 14/15/15
f 14/15/15 17/2/2 15/16/16
f 8/17/17 12/18/17 16/19/17
f 15/16/16 17/2/2 16/20/18
f 16/20/18 17/2/2 1/1/1
f 16/19/17 1/21/17 2/22/17
f 2/22/17 3/23/17 16/19/17
f 3/23/17 4/24/17 16/19/17
f 4/24/17 5/25/17 6/26/17
f 6/26/17 7/27/17 4/24/17
f 7/27/17 8/17/17 4/24/17
f 8/17/17 9/28/17 10/29/17
f 10/29/17 11/30/17 8/17/17
f 11/30/17 12/18/17 8/17/17
f 12/18/17 13/31/17 14/32/17
f 14/32/17 15/33/17 12/18/17
f 15/33/17 16/19/17 12/18/17
f 16/19/17 4/24/17 8/17/17
