# Blender v3.4.1 OBJ File: 'bike.blend'
# www.blender.org
o Ring_Cylinder.001
v 0.000000 -1.000000 0.010216
v 0.098017 -0.995185 0.010216
v 0.195090 -0.980785 0.010216
v 0.290285 -0.956940 0.010216
v 0.382683 -0.923880 0.010216
v 0.471397 -0.881921 0.010216
v 0.555570 -0.831470 0.010216
v 0.634393 -0.773010 0.010216
v 0.707107 -0.707107 0.010216
v 0.773010 -0.634393 0.010216
v 0.831470 -0.555570 0.010216
v 0.881921 -0.471397 0.010216
v 0.923880 -0.382683 0.010216
v 0.956940 -0.290285 0.010216
v 0.980785 -0.195090 0.010216
v 0.995185 -0.098017 0.010216
v 1.000000 0.000000 0.009784
v 0.995185 0.098017 0.010216
v 0.980785 0.195090 0.010216
v 0.956940 0.290285 0.010216
v 0.923880 0.382683 0.010216
v 0.881921 0.471397 0.010216
v 0.831470 0.555570 0.010216
v 0.773010 0.634393 0.010216
v 0.707107 0.707107 0.010216
v 0.634393 0.773010 0.010216
v 0.555570 0.831470 0.010216
v 0.471397 0.881921 0.010216
v 0.382683 0.923880 0.010216
v 0.290285 0.956940 0.010216
v 0.195090 0.980785 0.010216
v 0.098017 0.995185 0.010216
v 0.000000 1.000000 0.010216
v -0.098017 0.995185 0.010216
v -0.195090 0.980785 0.010216
v -0.290285 0.956940 0.010216
v -0.382683 0.923880 0.010216
v -0.471397 0.881921 0.010216
v -0.555570 0.831470 0.010216
v -0.634393 0.773010 0.010216
v -0.707107 0.707107 0.010216
v -0.773010 0.634393 0.010216
v -0.831470 0.555570 0.010216
v -0.881921 0.471397 0.010216
v -0.923880 0.382683 0.010216
v -0.956940 0.290285 0.010216
v -0.980785 0.195090 0.010216
v -0.995185 0.098017 0.010216
v -1.000000 0.000000 0.009784
v -0.995185 -0.098017 0.010216
v -0.980785 -0.195090 0.010216
v -0.956940 -0.290285 0.010216
v -0.923880 -0.382683 0.010216
v -0.881921 -0.471397 0.010216
v -0.831470 -0.555570 0.010216
v -0.773010 -0.634393 0.010216
v -0.707107 -0.707107 0.010216
v -0.634393 -0.773010 0.010216
v -0.555570 -0.831470 0.010216
v -0.471397 -0.881921 0.010216
v -0.382683 -0.923880 0.010216
v -0.290285 -0.956940 0.010216
v -0.195090 -0.980785 0.010216
v -0.098017 -0.995185 0.010216
v -0.368365 -0.889312 0.010216
v -0.279424 -0.921136 0.010216
v -0.094350 -0.957949 0.010216
v 0.000000 -0.962584 0.010216
v -0.187791 -0.944089 0.010216
v -0.889312 -0.368365 0.010216
v -0.848924 -0.453759 0.010216
v -0.744088 -0.610657 0.010216
v -0.680650 -0.680650 0.010216
v -0.800360 -0.534783 0.010216
v -0.962584 -0.000000 0.010216
v -0.957949 0.094350 0.010216
v -0.921136 0.279424 0.010216
v -0.889312 0.368365 0.010216
v -0.944089 0.187791 0.010216
v -0.680650 0.680650 0.010216
v -0.610657 0.744088 0.010216
v -0.453759 0.848924 0.010216
v -0.368365 0.889312 0.010216
v -0.534783 0.800360 0.010216
v 0.000000 0.962584 0.010216
v 0.094350 0.957949 0.010216
v 0.279424 0.921136 0.010216
v 0.368365 0.889312 0.010216
v 0.187791 0.944089 0.010216
v 0.680650 0.680650 0.010216
v 0.744088 0.610657 0.010216
v 0.848924 0.453759 0.010216
v 0.889312 0.368365 0.010216
v 0.800360 0.534783 0.010216
v 0.889312 -0.368365 0.010216
v 0.921136 -0.279424 0.010216
v 0.957949 -0.094350 0.010216
v 0.962584 -0.000000 0.010216
v 0.944089 -0.187791 0.010216
v 0.368365 -0.889312 0.010216
v 0.453759 -0.848924 0.010216
v 0.610657 -0.744088 0.010216
v 0.680650 -0.680650 0.010216
v 0.534783 -0.800360 0.010216
v -0.921136 -0.279424 0.010216
v -0.610657 -0.744088 0.010216
v -0.453759 -0.848924 0.010216
v 0.094350 -0.957949 0.010216
v -0.534783 -0.800360 0.010216
v -0.957949 -0.094350 0.010216
v -0.848924 0.453759 0.010216
v -0.744088 0.610657 0.010216
v -0.279424 0.921136 0.010216
v -0.800360 0.534783 0.010216
v -0.094350 0.957949 0.010216
v 0.453759 0.848924 0.010216
v 0.610657 0.744088 0.010216
v 0.921136 0.279424 0.010216
v 0.534783 0.800360 0.010216
v 0.279424 -0.921136 0.010216
v 0.744088 -0.610657 0.010216
v 0.848924 -0.453759 0.010216
v 0.957949 0.094350 0.010216
v 0.800360 -0.534783 0.010216
v -0.944089 -0.187791 0.010216
v -0.187791 0.944089 0.010216
v 0.944089 0.187791 0.010216
v 0.187791 -0.944089 0.010216
v 0.000000 -1.000000 -0.009784
v 0.098017 -0.995185 -0.009784
v 0.195090 -0.980785 -0.009784
v 0.290285 -0.956940 -0.009784
v 0.382683 -0.923880 -0.009784
v 0.471397 -0.881921 -0.009784
v 0.555570 -0.831470 -0.009784
v 0.634393 -0.773010 -0.009784
v 0.707107 -0.707107 -0.009784
v 0.773010 -0.634393 -0.009784
v 0.831470 -0.555570 -0.009784
v 0.881921 -0.471397 -0.009784
v 0.923880 -0.382683 -0.009784
v 0.956940 -0.290285 -0.009784
v 0.980785 -0.195090 -0.009784
v 0.995185 -0.098017 -0.009784
v 1.000000 0.000000 -0.010216
v 0.995185 0.098017 -0.009784
v 0.980785 0.195090 -0.009784
v 0.956940 0.290285 -0.009784
v 0.923880 0.382683 -0.009784
v 0.881921 0.471397 -0.009784
v 0.831470 0.555570 -0.009784
v 0.773010 0.634393 -0.009784
v 0.707107 0.707107 -0.009784
v 0.634393 0.773010 -0.009784
v 0.555570 0.831470 -0.009784
v 0.471397 0.881921 -0.009784
v 0.382683 0.923880 -0.009784
v 0.290285 0.956940 -0.009784
v 0.195090 0.980785 -0.009784
v 0.098017 0.995185 -0.009784
v 0.000000 1.000000 -0.009784
v -0.098017 0.995185 -0.009784
v -0.195090 0.980785 -0.009784
v -0.290285 0.956940 -0.009784
v -0.382683 0.923880 -0.009784
v -0.471397 0.881921 -0.009784
v -0.555570 0.831470 -0.009784
v -0.634393 0.773010 -0.009784
v -0.707107 0.707107 -0.009784
v -0.773010 0.634393 -0.009784
v -0.831470 0.555570 -0.009784
v -0.881921 0.471397 -0.009784
v -0.923880 0.382683 -0.009784
v -0.956940 0.290285 -0.009784
v -0.980785 0.195090 -0.009784
v -0.995185 0.098017 -0.009784
v -1.000000 0.000000 -0.010216
v -0.995185 -0.098017 -0.009784
v -0.980785 -0.195090 -0.009784
v -0.956940 -0.290285 -0.009784
v -0.923880 -0.382683 -0.009784
v -0.881921 -0.471397 -0.009784
v -0.831470 -0.555570 -0.009784
v -0.773010 -0.634393 -0.009784
v -0.707107 -0.707107 -0.009784
v -0.634393 -0.773010 -0.009784
v -0.555570 -0.831470 -0.009784
v -0.471397 -0.881921 -0.009784
v -0.382683 -0.923880 -0.009784
v -0.290285 -0.956940 -0.009784
v -0.098017 -0.995185 -0.009784
v -0.368365 -0.889312 -0.009784
v -0.279424 -0.921136 -0.009784
v -0.094350 -0.957949 -0.009784
v 0.000000 -0.962584 -0.009784
v -0.187791 -0.944089 -0.009784
v -0.848924 -0.453759 -0.009784
v -0.800360 -0.534783 -0.009784
v -0.962584 0.000000 -0.009784
v -0.957949 0.094350 -0.009784
v -0.921136 0.279424 -0.009784
v -0.889312 0.368365 -0.009784
v -0.944089 0.187791 -0.009784
v -0.610657 0.744088 -0.009784
v -0.534783 0.800360 -0.009784
v 0.000000 0.962584 -0.009784
v 0.094350 0.957949 -0.009784
v 0.279424 0.921136 -0.009784
v 0.368365 0.889312 -0.009784
v 0.187791 0.944089 -0.009784
v 0.744088 0.610657 -0.009784
v 0.800360 0.534783 -0.009784
v 0.889312 -0.368365 -0.009784
v 0.921136 -0.279424 -0.009784
v 0.957949 -0.094350 -0.009784
v 0.962584 0.000000 -0.009784
v 0.944089 -0.187791 -0.009784
v 0.453759 -0.848924 -0.009784
v 0.534783 -0.800360 -0.009784
v -0.680650 -0.680650 -0.009784
v -0.610657 -0.744088 -0.009784
v -0.453759 -0.848924 -0.009784
v -0.534783 -0.800360 -0.009784
v -0.957949 -0.094350 -0.009784
v -0.368365 0.889312 -0.009784
v -0.279424 0.921136 -0.009784
v -0.848924 0.453759 -0.009784
v -0.800360 0.534783 -0.009784
v -0.094350 0.957949 -0.009784
v 0.889312 0.368365 -0.009784
v 0.921136 0.279424 -0.009784
v 0.610657 0.744088 -0.009784
v 0.534783 0.800360 -0.009784
v 0.680650 -0.680650 -0.009784
v 0.744088 -0.610657 -0.009784
v 0.848924 -0.453759 -0.009784
v 0.800360 -0.534783 -0.009784
v -0.921136 -0.279424 -0.009784
v -0.944089 -0.187791 -0.009784
v -0.187791 0.944089 -0.009784
v 0.957949 0.094350 -0.009784
v 0.944089 0.187791 -0.009784
v 0.279424 -0.921136 -0.009784
v 0.187791 -0.944089 -0.009784
v -0.195090 -0.980785 -0.009784
v -0.889312 -0.368365 -0.009784
v -0.744088 -0.610657 -0.009784
v -0.680650 0.680650 -0.009784
v -0.453759 0.848924 -0.009784
v 0.680650 0.680650 -0.009784
v 0.848924 0.453759 -0.009784
v 0.368365 -0.889312 -0.009784
v 0.610657 -0.744088 -0.009784
v 0.094350 -0.957949 -0.009784
v -0.744088 0.610657 -0.009784
v 0.453759 0.848924 -0.009784
vt 0.378348 0.057914
vt 0.396558 0.071419
vt 0.383337 0.050447
vt 0.121652 0.442086
vt 0.103442 0.428581
vt 0.116663 0.449553
vt 0.383337 0.050447
vt 0.396558 0.071419
vt 0.378348 0.057914
vt 0.116663 0.449553
vt 0.103442 0.428581
vt 0.121652 0.442086
vt 0.014612 0.203178
vt 0.011156 0.226476
vt 0.014612 0.203178
vt 0.471073 0.182938
vt 0.476581 0.204930
vt 0.471073 0.182938
vt 0.435522 0.097746
vt 0.419706 0.080294
vt 0.435522 0.097746
vt 0.010000 0.250000
vt 0.011156 0.273524
vt 0.011156 0.273524
vt 0.295070 0.476581
vt 0.272644 0.479908
vt 0.295070 0.476581
vt 0.402254 0.064478
vt 0.402254 0.064478
vt 0.014612 0.296822
vt 0.020334 0.319668
vt 0.014612 0.296822
vt 0.363135 0.038339
vt 0.341844 0.028269
vt 0.363135 0.038339
vt 0.028269 0.341844
vt 0.038339 0.363135
vt 0.028269 0.341844
vt 0.182938 0.028927
vt 0.204930 0.023419
vt 0.182938 0.028927
vt 0.319668 0.020334
vt 0.296822 0.014612
vt 0.319668 0.020334
vt 0.050447 0.383337
vt 0.064478 0.402254
vt 0.050447 0.383337
vt 0.273524 0.011156
vt 0.250000 0.010000
vt 0.273524 0.011156
vt 0.080294 0.419706
vt 0.097746 0.435522
vt 0.097746 0.435522
vt 0.226476 0.011156
vt 0.203178 0.014612
vt 0.226476 0.011156
vt 0.136865 0.461661
vt 0.180332 0.020334
vt 0.158156 0.028269
vt 0.180332 0.020334
vt 0.158156 0.471731
vt 0.180332 0.479666
vt 0.158156 0.471731
vt 0.136865 0.038339
vt 0.116663 0.050447
vt 0.136865 0.038339
vt 0.226476 0.488844
vt 0.250000 0.490000
vt 0.226476 0.488844
vt 0.097746 0.064478
vt 0.080294 0.080294
vt 0.080294 0.080294
vt 0.182938 0.471073
vt 0.161592 0.463435
vt 0.182938 0.471073
vt 0.064478 0.097746
vt 0.050447 0.116663
vt 0.064478 0.097746
vt 0.250000 0.481020
vt 0.227356 0.479908
vt 0.250000 0.481020
vt 0.038339 0.136865
vt 0.028269 0.158156
vt 0.038339 0.136865
vt 0.227356 0.479908
vt 0.204930 0.476581
vt 0.203178 0.485388
vt 0.203178 0.485388
vt 0.057914 0.378348
vt 0.046258 0.358902
vt 0.057914 0.378348
vt 0.020334 0.180332
vt 0.020334 0.180332
vt 0.018980 0.250000
vt 0.020092 0.227356
vt 0.018980 0.250000
vt 0.011156 0.226476
vt 0.028927 0.182938
vt 0.036565 0.161592
vt 0.028927 0.182938
vt 0.023419 0.204930
vt 0.023419 0.204930
vt 0.020334 0.319668
vt 0.103442 0.071419
vt 0.121652 0.057914
vt 0.103442 0.071419
vt 0.038339 0.363135
vt 0.250000 0.018980
vt 0.272644 0.020092
vt 0.250000 0.018980
vt 0.317062 0.028927
vt 0.338408 0.036565
vt 0.317062 0.028927
vt 0.080294 0.419706
vt 0.295070 0.023419
vt 0.295070 0.023419
vt 0.428581 0.103442
vt 0.442086 0.121652
vt 0.428581 0.103442
vt 0.136865 0.461661
vt 0.471073 0.317062
vt 0.463435 0.338408
vt 0.471073 0.317062
vt 0.180332 0.479666
vt 0.481020 0.250000
vt 0.479908 0.272644
vt 0.481020 0.250000
vt 0.204930 0.476581
vt 0.479908 0.272644
vt 0.476581 0.295070
vt 0.046258 0.358902
vt 0.036565 0.338408
vt 0.378348 0.442086
vt 0.358902 0.453742
vt 0.378348 0.442086
vt 0.086644 0.413356
vt 0.071419 0.396558
vt 0.086644 0.413356
vt 0.071419 0.396558
vt 0.161592 0.463435
vt 0.141098 0.453742
vt 0.020092 0.227356
vt 0.141098 0.453742
vt 0.086644 0.086644
vt 0.086644 0.086644
vt 0.020092 0.272644
vt 0.020092 0.272644
vt 0.250000 0.490000
vt 0.273524 0.488844
vt 0.141098 0.046258
vt 0.161592 0.036565
vt 0.141098 0.046258
vt 0.161592 0.036565
vt 0.296822 0.485388
vt 0.319668 0.479666
vt 0.296822 0.485388
vt 0.121652 0.057914
vt 0.046258 0.141098
vt 0.057914 0.121652
vt 0.046258 0.141098
vt 0.341844 0.471731
vt 0.363135 0.461661
vt 0.341844 0.471731
vt 0.272644 0.020092
vt 0.227356 0.020092
vt 0.227356 0.020092
vt 0.383337 0.449553
vt 0.402254 0.435522
vt 0.383337 0.449553
vt 0.413356 0.086644
vt 0.463435 0.161592
vt 0.463435 0.161592
vt 0.419706 0.419706
vt 0.435522 0.402254
vt 0.419706 0.419706
vt 0.453742 0.141098
vt 0.449553 0.383337
vt 0.461661 0.363135
vt 0.461661 0.363135
vt 0.442086 0.121652
vt 0.428581 0.396558
vt 0.413356 0.413356
vt 0.413356 0.413356
vt 0.471731 0.341844
vt 0.479666 0.319668
vt 0.471731 0.341844
vt 0.476581 0.295070
vt 0.463435 0.338408
vt 0.453742 0.358902
vt 0.485388 0.296822
vt 0.488844 0.273524
vt 0.485388 0.296822
vt 0.338408 0.463435
vt 0.338408 0.463435
vt 0.442086 0.378348
vt 0.442086 0.378348
vt 0.490000 0.250000
vt 0.488844 0.226476
vt 0.488844 0.226476
vt 0.396558 0.428581
vt 0.028927 0.317062
vt 0.023419 0.295070
vt 0.028927 0.317062
vt 0.485388 0.203178
vt 0.479666 0.180332
vt 0.485388 0.203178
vt 0.396558 0.428581
vt 0.204930 0.023419
vt 0.471731 0.158156
vt 0.461661 0.136865
vt 0.471731 0.158156
vt 0.036565 0.338408
vt 0.476581 0.204930
vt 0.479908 0.227356
vt 0.449553 0.116663
vt 0.449553 0.116663
vt 0.317062 0.471073
vt 0.317062 0.471073
vt 0.419706 0.080294
vt 0.273524 0.488844
vt 0.036565 0.161592
vt 0.319668 0.479666
vt 0.341844 0.028269
vt 0.071419 0.103442
vt 0.071419 0.103442
vt 0.363135 0.461661
vt 0.296822 0.014612
vt 0.057914 0.121652
vt 0.402254 0.435522
vt 0.250000 0.010000
vt 0.338408 0.036565
vt 0.358902 0.046258
vt 0.435522 0.402254
vt 0.203178 0.014612
vt 0.158156 0.028269
vt 0.358902 0.046258
vt 0.479666 0.319668
vt 0.116663 0.050447
vt 0.488844 0.273524
vt 0.479908 0.227356
vt 0.050447 0.116663
vt 0.453742 0.358902
vt 0.479666 0.180332
vt 0.028269 0.158156
vt 0.023419 0.295070
vt 0.413356 0.086644
vt 0.461661 0.136865
vt 0.453742 0.141098
vt 0.490000 0.250000
vt 0.449553 0.383337
vt 0.428581 0.396558
vt 0.358902 0.453742
vt 0.272644 0.479908
vt 0.064478 0.402254
vt 0.010000 0.250000
vt 0.097746 0.064478
vn 0.0000 -0.0000 1.0000
vn -0.0000 0.0000 -1.0000
vn -0.9808 0.1951 0.0000
vn -0.9952 0.0981 0.0000
vn -0.9569 -0.2903 0.0000
vn -0.9808 -0.1951 0.0000
vn 0.7730 0.6344 0.0000
vn 0.7071 0.7071 0.0000
vn -1.0000 -0.0000 0.0000
vn -0.9952 -0.0979 0.0000
vn -0.9952 -0.0981 0.0000
vn -0.1951 0.9808 0.0000
vn -0.0980 0.9952 -0.0000
vn 0.6344 0.7730 0.0000
vn 0.5556 0.8315 0.0000
vn 0.4714 0.8819 0.0000
vn 0.3827 0.9239 0.0000
vn -0.9239 -0.3827 0.0000
vn -0.8819 -0.4714 0.0000
vn 0.2903 -0.9569 0.0000
vn 0.1951 -0.9808 0.0000
vn 0.2903 0.9569 0.0000
vn 0.1951 0.9808 0.0000
vn -0.8315 -0.5556 0.0000
vn -0.7730 -0.6344 0.0000
vn 0.0980 0.9952 0.0000
vn 0.0000 1.0000 0.0000
vn -0.7071 -0.7071 0.0000
vn -0.6344 -0.7730 0.0000
vn -0.5556 -0.8315 0.0000
vn -0.4714 -0.8819 0.0000
vn -0.2903 0.9569 0.0000
vn -0.3827 0.9239 0.0000
vn -0.3827 -0.9239 0.0000
vn -0.2903 -0.9569 0.0000
vn -0.4714 0.8819 0.0000
vn -0.5556 0.8315 0.0000
vn -0.0980 -0.9952 -0.0000
vn 0.0000 -1.0000 -0.0000
vn -0.6344 0.7730 0.0000
vn -0.7071 0.7071 0.0000
vn -0.7730 0.6344 0.0000
vn -0.8315 0.5556 0.0000
vn -0.8819 0.4714 0.0000
vn -0.9239 0.3827 0.0000
vn -0.1951 -0.9808 0.0000
vn 0.8315 0.5556 0.0000
vn 0.8819 0.4714 0.0000
vn -0.9569 0.2903 0.0000
vn 1.0000 -0.0000 0.0000
vn 0.9952 -0.0980 0.0000
vn -0.9952 0.0979 0.0000
vn 0.9569 -0.2903 0.0000
vn 0.9239 -0.3827 0.0000
vn 0.9808 -0.1951 0.0000
vn 0.6344 -0.7730 0.0000
vn 0.5556 -0.8315 0.0000
vn -0.9952 0.0980 0.0000
vn 0.9239 0.3827 0.0000
vn 0.7071 -0.7071 0.0000
vn 0.9952 0.0980 0.0000
vn 0.0980 -0.9952 0.0000
vn 0.4714 -0.8819 0.0000
vn 0.3827 -0.9239 0.0000
vn 0.8819 -0.4714 0.0000
vn 0.8315 -0.5556 0.0000
vn 0.7730 -0.6344 0.0000
vn 0.9952 -0.0981 0.0000
vn 0.9952 0.0979 0.0000
vn 0.9952 0.0981 0.0000
vn 0.9569 0.2903 0.0000
vn 0.9808 0.1951 0.0000
vn -0.9952 -0.0980 0.0000
vn 0.9952 -0.0979 0.0000
vn 0.0014 -0.0005 1.0000
vn 0.0102 -0.0018 0.9999
vn 0.0102 -0.0016 0.9999
vn 0.0002 0.0022 1.0000
vn 0.0015 0.0016 1.0000
vn -0.0102 0.0016 0.9999
vn -0.0014 0.0005 1.0000
vn -0.0102 0.0018 0.9999
vn -0.0002 -0.0022 1.0000
vn -0.0015 -0.0016 1.0000
vn -0.0014 0.0005 -1.0000
vn -0.0102 0.0016 -0.9999
vn -0.0102 0.0018 -0.9999
vn -0.0002 -0.0022 -1.0000
vn -0.0015 -0.0016 -1.0000
vn 0.0014 -0.0005 -1.0000
vn 0.0102 -0.0016 -0.9999
vn 0.0102 -0.0018 -0.9999
vn 0.0002 0.0022 -1.0000
vn 0.0015 0.0016 -1.0000
s 1
f 119/1/1 117/2/1 27/3/1
f 109/4/1 106/5/1 59/6/1
f 155/7/2 232/8/2 233/9/2
f 187/10/2 221/11/2 223/12/2
f 175/13/3 48/14/4 47/15/3
f 231/16/5 127/17/6 118/18/5
f 152/19/7 25/20/8 24/21/7
f 49/22/9 178/23/10 50/24/11
f 244/25/12 108/26/13 128/27/12
f 154/28/14 27/3/15 26/29/14
f 179/30/6 52/31/5 51/32/6
f 156/33/16 29/34/17 28/35/16
f 181/36/18 54/37/19 53/38/18
f 226/39/20 126/40/21 113/41/20
f 158/42/22 31/43/23 30/44/22
f 183/45/24 56/46/25 55/47/24
f 160/48/26 33/49/27 32/50/26
f 57/51/28 186/52/29 58/53/29
f 162/54/13 35/55/12 34/56/13
f 187/10/30 60/57/31 59/6/30
f 164/58/32 37/59/33 36/60/32
f 189/61/34 62/62/35 61/63/34
f 166/64/36 39/65/37 38/66/36
f 191/67/38 1/68/39 64/69/38
f 40/70/40 169/71/41 41/72/41
f 193/73/22 65/74/17 66/75/22
f 170/76/42 43/77/43 42/78/42
f 195/79/27 67/80/26 68/81/27
f 172/82/44 45/83/45 44/84/44
f 194/85/26 69/86/23 67/80/26
f 245/87/46 64/69/38 63/88/46
f 198/89/47 71/90/48 74/91/47
f 174/92/49 47/15/3 46/93/49
f 199/94/50 76/95/51 75/96/50
f 176/97/52 49/22/9 48/14/4
f 201/98/53 78/99/54 77/100/53
f 178/23/10 51/32/6 50/24/11
f 203/101/55 77/100/53 79/102/55
f 180/103/5 53/38/18 52/31/5
f 204/104/56 84/105/57 81/106/56
f 182/107/19 55/47/24 54/37/19
f 206/108/39 86/109/38 85/110/39
f 208/111/35 88/112/34 87/113/35
f 56/46/25 185/114/28 57/51/28
f 210/115/46 87/113/35 89/116/46
f 186/52/29 59/6/30 58/53/29
f 211/117/25 94/118/24 91/119/25
f 188/120/31 61/63/34 60/57/31
f 214/121/49 95/122/45 96/123/49
f 190/124/35 63/88/46 62/62/35
f 216/125/9 97/126/58 98/127/9
f 196/128/23 66/75/22 69/86/23
f 215/129/58 99/130/3 97/126/58
f 197/131/48 70/132/59 71/90/48
f 219/133/37 101/134/36 104/135/37
f 220/136/8 72/137/7 73/138/8
f 221/11/14 73/138/8 106/5/14
f 247/139/7 74/91/47 72/137/7
f 192/140/17 107/141/16 65/74/17
f 200/142/51 79/102/55 76/95/51
f 222/143/16 109/4/15 107/141/16
f 248/144/60 81/106/56 80/145/60
f 224/146/61 75/96/50 110/147/61
f 129/148/39 2/149/62 1/68/39
f 249/150/63 83/151/64 82/152/63
f 225/153/64 113/41/20 83/151/64
f 131/154/21 4/155/20 3/156/21
f 205/157/57 82/152/63 84/105/57
f 227/158/65 114/159/66 111/160/65
f 133/161/64 6/162/63 5/163/64
f 207/164/38 89/116/46 86/109/38
f 229/165/62 85/110/39 115/166/62
f 135/167/57 8/168/56 7/169/57
f 90/170/28 211/117/25 91/119/25
f 230/171/18 118/18/5 93/172/18
f 137/173/60 10/174/67 9/175/60
f 92/176/19 230/171/18 93/172/18
f 233/9/30 117/2/29 119/1/30
f 11/177/66 140/178/65 12/179/65
f 212/180/24 92/176/19 94/118/24
f 121/181/42 234/182/41 103/183/41
f 141/184/54 14/185/53 13/186/54
f 217/187/3 96/123/49 99/130/3
f 213/188/45 122/189/44 95/122/45
f 143/190/55 16/191/68 15/192/55
f 101/134/36 252/193/33 100/194/33
f 237/195/43 121/181/42 124/196/43
f 17/197/50 146/198/69 18/199/70
f 234/182/41 102/200/40 103/183/41
f 238/201/71 125/202/72 105/203/71
f 147/204/72 20/205/71 19/206/72
f 253/207/40 104/135/37 102/200/40
f 240/208/21 115/166/62 126/40/21
f 149/209/59 22/210/48 21/211/59
f 246/212/59 105/203/71 70/132/59
f 242/213/6 123/214/73 127/17/6
f 151/215/47 24/21/7 23/216/47
f 108/26/13 195/79/27 68/81/27
f 243/217/32 128/27/12 120/218/32
f 153/219/8 26/29/14 25/20/8
f 223/12/15 106/5/14 109/4/15
f 130/220/62 3/156/21 2/149/62
f 155/7/15 28/35/16 27/3/15
f 202/221/54 111/160/65 78/99/54
f 132/222/20 5/163/64 4/155/20
f 157/223/17 30/44/22 29/34/17
f 255/224/67 80/145/60 112/225/67
f 134/226/63 7/169/57 6/162/63
f 159/227/23 32/50/26 31/43/23
f 228/228/66 112/225/67 114/159/66
f 136/229/56 9/175/60 8/168/56
f 161/230/27 34/56/13 33/49/27
f 209/231/34 116/232/31 88/112/34
f 138/233/67 11/177/66 10/174/67
f 163/234/12 36/60/32 35/55/12
f 232/8/29 90/170/28 117/2/29
f 140/178/65 13/186/54 12/179/65
f 165/235/33 38/66/36 37/59/33
f 256/236/31 119/1/30 116/232/31
f 142/237/53 15/192/55 14/185/53
f 167/238/37 40/70/40 39/65/37
f 252/193/33 120/218/32 100/194/33
f 144/239/74 17/197/50 16/191/68
f 41/72/41 170/76/42 42/78/42
f 241/240/73 98/127/9 123/214/73
f 146/198/69 19/206/72 18/199/70
f 171/241/43 44/84/44 43/77/43
f 236/242/44 124/196/43 122/189/44
f 148/243/71 21/211/59 20/205/71
f 173/244/45 46/93/49 45/83/45
f 239/245/72 110/147/61 125/202/72
f 22/210/48 151/215/47 23/216/47
f 35/55/1 126/40/1 115/166/1
f 35/55/1 115/166/1 34/56/1
f 115/166/1 85/110/1 34/56/1
f 33/49/1 34/56/1 85/110/1
f 31/43/1 32/50/1 86/109/1
f 32/50/1 33/49/1 86/109/1
f 29/34/1 30/44/1 87/113/1
f 30/44/1 31/43/1 87/113/1
f 27/3/1 28/35/1 116/232/1
f 28/35/1 29/34/1 88/112/1
f 25/20/1 26/29/1 90/170/1
f 26/29/1 27/3/1 117/2/1
f 90/170/1 26/29/1 117/2/1
f 23/216/1 24/21/1 91/119/1
f 24/21/1 25/20/1 91/119/1
f 21/211/1 22/210/1 93/172/1
f 22/210/1 23/216/1 92/176/1
f 93/172/1 22/210/1 92/176/1
f 19/206/1 20/205/1 118/18/1
f 20/205/1 21/211/1 93/172/1
f 118/18/1 127/17/1 19/206/1
f 93/172/1 118/18/1 20/205/1
f 91/119/1 25/20/1 90/170/1
f 28/35/1 88/112/1 116/232/1
f 86/109/1 33/49/1 85/110/1
f 31/43/1 86/109/1 89/116/1
f 31/43/1 89/116/1 87/113/1
f 94/118/1 92/176/1 23/216/1
f 91/119/1 94/118/1 23/216/1
f 29/34/1 87/113/1 88/112/1
f 27/3/1 116/232/1 119/1/1
f 19/206/1 127/17/1 123/214/1
f 19/206/1 123/214/1 18/199/75
f 123/214/1 98/127/76 18/199/75
f 17/197/77 18/199/75 98/127/76
f 15/192/1 16/191/78 97/126/79
f 16/191/78 17/197/77 97/126/79
f 13/186/1 14/185/1 96/123/1
f 14/185/1 15/192/1 96/123/1
f 11/177/1 12/179/1 122/189/1
f 12/179/1 13/186/1 95/122/1
f 9/175/1 10/174/1 103/183/1
f 10/174/1 11/177/1 121/181/1
f 103/183/1 10/174/1 121/181/1
f 7/169/1 8/168/1 102/200/1
f 8/168/1 9/175/1 103/183/1
f 5/163/1 6/162/1 101/134/1
f 6/162/1 7/169/1 101/134/1
f 3/156/1 4/155/1 120/218/1
f 4/155/1 5/163/1 100/194/1
f 1/68/1 2/149/1 68/81/1
f 2/149/1 3/156/1 108/26/1
f 68/81/1 2/149/1 108/26/1
f 63/88/1 64/69/1 67/80/1
f 64/69/1 1/68/1 68/81/1
f 61/63/1 62/62/1 66/75/1
f 62/62/1 63/88/1 66/75/1
f 59/6/1 60/57/1 107/141/1
f 60/57/1 61/63/1 65/74/1
f 57/51/1 58/53/1 73/138/1
f 58/53/1 59/6/1 106/5/1
f 73/138/1 58/53/1 106/5/1
f 55/47/1 56/46/1 72/137/1
f 56/46/1 57/51/1 72/137/1
f 53/38/1 54/37/1 70/132/1
f 54/37/1 55/47/1 71/90/1
f 70/132/1 54/37/1 71/90/1
f 51/32/1 52/31/1 105/203/1
f 52/31/1 53/38/1 70/132/1
f 49/22/80 50/24/81 75/96/82
f 50/24/81 51/32/1 110/147/1
f 75/96/82 50/24/81 110/147/1
f 47/15/1 48/14/83 76/95/84
f 48/14/83 49/22/80 76/95/84
f 45/83/1 46/93/1 78/99/1
f 46/93/1 47/15/1 77/100/1
f 78/99/1 46/93/1 77/100/1
f 43/77/1 44/84/1 111/160/1
f 44/84/1 45/83/1 78/99/1
f 41/72/1 42/78/1 80/145/1
f 42/78/1 43/77/1 112/225/1
f 80/145/1 42/78/1 112/225/1
f 39/65/1 40/70/1 81/106/1
f 40/70/1 41/72/1 81/106/1
f 37/59/1 38/66/1 83/151/1
f 38/66/1 39/65/1 82/152/1
f 83/151/1 38/66/1 82/152/1
f 35/55/1 36/60/1 113/41/1
f 36/60/1 37/59/1 83/151/1
f 113/41/1 126/40/1 35/55/1
f 83/151/1 113/41/1 36/60/1
f 81/106/1 41/72/1 80/145/1
f 44/84/1 78/99/1 111/160/1
f 76/95/84 49/22/80 75/96/82
f 52/31/1 70/132/1 105/203/1
f 72/137/1 57/51/1 73/138/1
f 60/57/1 65/74/1 107/141/1
f 64/69/1 68/81/1 67/80/1
f 4/155/1 100/194/1 120/218/1
f 8/168/1 103/183/1 102/200/1
f 12/179/1 95/122/1 122/189/1
f 97/126/79 17/197/77 98/127/76
f 15/192/1 97/126/79 99/130/1
f 15/192/1 99/130/1 96/123/1
f 84/105/1 82/152/1 39/65/1
f 81/106/1 84/105/1 39/65/1
f 13/186/1 96/123/1 95/122/1
f 11/177/1 122/189/1 124/196/1
f 114/159/1 112/225/1 43/77/1
f 11/177/1 124/196/1 121/181/1
f 111/160/1 114/159/1 43/77/1
f 7/169/1 102/200/1 104/135/1
f 7/169/1 104/135/1 101/134/1
f 79/102/1 77/100/1 47/15/1
f 76/95/84 79/102/1 47/15/1
f 5/163/1 101/134/1 100/194/1
f 3/156/1 120/218/1 128/27/1
f 125/202/1 110/147/1 51/32/1
f 3/156/1 128/27/1 108/26/1
f 105/203/1 125/202/1 51/32/1
f 63/88/1 67/80/1 69/86/1
f 63/88/1 69/86/1 66/75/1
f 74/91/1 71/90/1 55/47/1
f 72/137/1 74/91/1 55/47/1
f 61/63/1 66/75/1 65/74/1
f 59/6/1 107/141/1 109/4/1
f 229/165/2 240/208/2 163/234/2
f 163/234/2 162/54/2 229/165/2
f 162/54/2 161/230/2 206/108/2
f 161/230/2 160/48/2 207/164/2
f 160/48/2 159/227/2 207/164/2
f 159/227/2 158/42/2 208/111/2
f 158/42/2 157/223/2 209/231/2
f 157/223/2 156/33/2 209/231/2
f 156/33/2 155/7/2 256/236/2
f 209/231/2 156/33/2 256/236/2
f 155/7/2 154/28/2 232/8/2
f 154/28/2 153/219/2 250/246/2
f 153/219/2 152/19/2 211/117/2
f 152/19/2 151/215/2 211/117/2
f 151/215/2 150/247/2 251/248/2
f 150/247/2 149/209/2 230/171/2
f 149/209/2 148/243/2 230/171/2
f 148/243/2 147/204/2 231/16/2
f 230/171/2 148/243/2 231/16/2
f 147/204/2 242/213/2 231/16/2
f 150/247/2 230/171/2 251/248/2
f 154/28/2 250/246/2 232/8/2
f 158/42/2 209/231/2 208/111/2
f 162/54/2 206/108/2 229/165/2
f 207/164/2 206/108/2 161/230/2
f 210/115/2 207/164/2 159/227/2
f 151/215/2 251/248/2 212/180/2
f 151/215/2 212/180/2 211/117/2
f 208/111/2 210/115/2 159/227/2
f 153/219/2 211/117/2 250/246/2
f 233/9/2 256/236/2 155/7/2
f 241/240/2 242/213/2 147/204/2
f 147/204/2 146/198/85 241/240/2
f 146/198/85 145/249/86 216/125/87
f 145/249/86 144/239/88 215/129/89
f 144/239/88 143/190/2 215/129/89
f 143/190/2 142/237/2 214/121/2
f 142/237/2 141/184/2 213/188/2
f 141/184/2 140/178/2 213/188/2
f 140/178/2 139/250/2 236/242/2
f 213/188/2 140/178/2 236/242/2
f 139/250/2 138/233/2 235/251/2
f 138/233/2 137/173/2 235/251/2
f 137/173/2 136/229/2 234/182/2
f 136/229/2 135/167/2 253/207/2
f 234/182/2 136/229/2 253/207/2
f 135/167/2 134/226/2 218/252/2
f 134/226/2 133/161/2 252/193/2
f 133/161/2 132/222/2 252/193/2
f 132/222/2 131/154/2 243/217/2
f 252/193/2 132/222/2 243/217/2
f 131/154/2 130/220/2 254/253/2
f 130/220/2 129/148/2 254/253/2
f 129/148/2 191/67/2 195/79/2
f 191/67/2 245/87/2 194/85/2
f 195/79/2 191/67/2 194/85/2
f 245/87/2 190/124/2 193/73/2
f 190/124/2 189/61/2 192/140/2
f 189/61/2 188/120/2 192/140/2
f 188/120/2 187/10/2 222/143/2
f 192/140/2 188/120/2 222/143/2
f 187/10/2 186/52/2 221/11/2
f 186/52/2 185/114/2 220/136/2
f 185/114/2 184/254/2 247/139/2
f 184/254/2 183/45/2 247/139/2
f 183/45/2 182/107/2 197/131/2
f 182/107/2 181/36/2 246/212/2
f 181/36/2 180/103/2 246/212/2
f 180/103/2 179/30/2 238/201/2
f 246/212/2 180/103/2 238/201/2
f 179/30/2 178/23/90 224/146/2
f 178/23/90 177/255/91 199/94/92
f 177/255/91 176/97/93 200/142/94
f 176/97/93 175/13/2 200/142/94
f 175/13/2 174/92/2 201/98/2
f 174/92/2 173/244/2 202/221/2
f 173/244/2 172/82/2 202/221/2
f 172/82/2 171/241/2 227/158/2
f 202/221/2 172/82/2 227/158/2
f 171/241/2 170/76/2 255/224/2
f 170/76/2 169/71/2 248/144/2
f 169/71/2 168/256/2 204/104/2
f 168/256/2 167/238/2 204/104/2
f 167/238/2 166/64/2 249/150/2
f 166/64/2 165/235/2 225/153/2
f 165/235/2 164/58/2 225/153/2
f 164/58/2 163/234/2 226/39/2
f 225/153/2 164/58/2 226/39/2
f 163/234/2 240/208/2 226/39/2
f 166/64/2 225/153/2 249/150/2
f 170/76/2 248/144/2 255/224/2
f 174/92/2 202/221/2 201/98/2
f 178/23/90 199/94/92 224/146/2
f 182/107/2 246/212/2 197/131/2
f 186/52/2 220/136/2 221/11/2
f 190/124/2 192/140/2 193/73/2
f 254/253/2 129/148/2 195/79/2
f 134/226/2 252/193/2 218/252/2
f 235/251/2 137/173/2 234/182/2
f 142/237/2 213/188/2 214/121/2
f 146/198/85 216/125/87 241/240/2
f 215/129/89 216/125/87 145/249/86
f 217/187/2 215/129/89 143/190/2
f 167/238/2 249/150/2 205/157/2
f 167/238/2 205/157/2 204/104/2
f 214/121/2 217/187/2 143/190/2
f 169/71/2 204/104/2 248/144/2
f 171/241/2 255/224/2 228/228/2
f 237/195/2 236/242/2 139/250/2
f 235/251/2 237/195/2 139/250/2
f 171/241/2 228/228/2 227/158/2
f 219/133/2 253/207/2 135/167/2
f 175/13/2 201/98/2 203/101/2
f 175/13/2 203/101/2 200/142/94
f 218/252/2 219/133/2 135/167/2
f 177/255/91 200/142/94 199/94/92
f 179/30/2 224/146/2 239/245/2
f 244/25/2 243/217/2 131/154/2
f 254/253/2 244/25/2 131/154/2
f 179/30/2 239/245/2 238/201/2
f 196/128/2 194/85/2 245/87/2
f 183/45/2 197/131/2 198/89/2
f 183/45/2 198/89/2 247/139/2
f 193/73/2 196/128/2 245/87/2
f 185/114/2 247/139/2 220/136/2
f 223/12/2 222/143/2 187/10/2
f 175/13/3 176/97/52 48/14/4
f 231/16/5 242/213/6 127/17/6
f 152/19/7 153/219/8 25/20/8
f 49/22/9 177/255/9 178/23/10
f 244/25/12 254/253/13 108/26/13
f 154/28/14 155/7/15 27/3/15
f 179/30/6 180/103/5 52/31/5
f 156/33/16 157/223/17 29/34/17
f 181/36/18 182/107/19 54/37/19
f 226/39/20 240/208/21 126/40/21
f 158/42/22 159/227/23 31/43/23
f 183/45/24 184/254/25 56/46/25
f 160/48/26 161/230/27 33/49/27
f 57/51/28 185/114/28 186/52/29
f 162/54/13 163/234/12 35/55/12
f 187/10/30 188/120/31 60/57/31
f 164/58/32 165/235/33 37/59/33
f 189/61/34 190/124/35 62/62/35
f 166/64/36 167/238/37 39/65/37
f 191/67/38 129/148/39 1/68/39
f 40/70/40 168/256/40 169/71/41
f 193/73/22 192/140/17 65/74/17
f 170/76/42 171/241/43 43/77/43
f 195/79/27 194/85/26 67/80/26
f 172/82/44 173/244/45 45/83/45
f 194/85/26 196/128/23 69/86/23
f 245/87/46 191/67/38 64/69/38
f 198/89/47 197/131/48 71/90/48
f 174/92/49 175/13/3 47/15/3
f 199/94/50 200/142/51 76/95/51
f 176/97/52 177/255/9 49/22/9
f 201/98/53 202/221/54 78/99/54
f 178/23/10 179/30/6 51/32/6
f 203/101/55 201/98/53 77/100/53
f 180/103/5 181/36/18 53/38/18
f 204/104/56 205/157/57 84/105/57
f 182/107/19 183/45/24 55/47/24
f 206/108/39 207/164/38 86/109/38
f 208/111/35 209/231/34 88/112/34
f 56/46/25 184/254/25 185/114/28
f 210/115/46 208/111/35 87/113/35
f 186/52/29 187/10/30 59/6/30
f 211/117/25 212/180/24 94/118/24
f 188/120/31 189/61/34 61/63/34
f 214/121/49 213/188/45 95/122/45
f 190/124/35 245/87/46 63/88/46
f 216/125/9 215/129/58 97/126/58
f 196/128/23 193/73/22 66/75/22
f 215/129/58 217/187/3 99/130/3
f 197/131/48 246/212/59 70/132/59
f 219/133/37 218/252/36 101/134/36
f 220/136/8 247/139/7 72/137/7
f 221/11/14 220/136/8 73/138/8
f 247/139/7 198/89/47 74/91/47
f 192/140/17 222/143/16 107/141/16
f 200/142/51 203/101/55 79/102/55
f 222/143/16 223/12/15 109/4/15
f 248/144/60 204/104/56 81/106/56
f 224/146/61 199/94/50 75/96/50
f 129/148/39 130/220/62 2/149/62
f 249/150/63 225/153/64 83/151/64
f 225/153/64 226/39/20 113/41/20
f 131/154/21 132/222/20 4/155/20
f 205/157/57 249/150/63 82/152/63
f 227/158/65 228/228/66 114/159/66
f 133/161/64 134/226/63 6/162/63
f 207/164/38 210/115/46 89/116/46
f 229/165/62 206/108/39 85/110/39
f 135/167/57 136/229/56 8/168/56
f 90/170/28 250/246/28 211/117/25
f 230/171/18 231/16/5 118/18/5
f 137/173/60 138/233/67 10/174/67
f 92/176/19 251/248/19 230/171/18
f 233/9/30 232/8/29 117/2/29
f 11/177/66 139/250/66 140/178/65
f 212/180/24 251/248/19 92/176/19
f 121/181/42 235/251/42 234/182/41
f 141/184/54 142/237/53 14/185/53
f 217/187/3 214/121/49 96/123/49
f 213/188/45 236/242/44 122/189/44
f 143/190/55 144/239/74 16/191/68
f 101/134/36 218/252/36 252/193/33
f 237/195/43 235/251/42 121/181/42
f 17/197/50 145/249/50 146/198/69
f 234/182/41 253/207/40 102/200/40
f 238/201/71 239/245/72 125/202/72
f 147/204/72 148/243/71 20/205/71
f 253/207/40 219/133/37 104/135/37
f 240/208/21 229/165/62 115/166/62
f 149/209/59 150/247/48 22/210/48
f 246/212/59 238/201/71 105/203/71
f 242/213/6 241/240/73 123/214/73
f 151/215/47 152/19/7 24/21/7
f 108/26/13 254/253/13 195/79/27
f 243/217/32 244/25/12 128/27/12
f 153/219/8 154/28/14 26/29/14
f 223/12/15 221/11/14 106/5/14
f 130/220/62 131/154/21 3/156/21
f 155/7/15 156/33/16 28/35/16
f 202/221/54 227/158/65 111/160/65
f 132/222/20 133/161/64 5/163/64
f 157/223/17 158/42/22 30/44/22
f 255/224/67 248/144/60 80/145/60
f 134/226/63 135/167/57 7/169/57
f 159/227/23 160/48/26 32/50/26
f 228/228/66 255/224/67 112/225/67
f 136/229/56 137/173/60 9/175/60
f 161/230/27 162/54/13 34/56/13
f 209/231/34 256/236/31 116/232/31
f 138/233/67 139/250/66 11/177/66
f 163/234/12 164/58/32 36/60/32
f 232/8/29 250/246/28 90/170/28
f 140/178/65 141/184/54 13/186/54
f 165/235/33 166/64/36 38/66/36
f 256/236/31 233/9/30 119/1/30
f 142/237/53 143/190/55 15/192/55
f 167/238/37 168/256/40 40/70/40
f 252/193/33 243/217/32 120/218/32
f 144/239/74 145/249/50 17/197/50
f 41/72/41 169/71/41 170/76/42
f 241/240/73 216/125/9 98/127/9
f 146/198/69 147/204/72 19/206/72
f 171/241/43 172/82/44 44/84/44
f 236/242/44 237/195/43 124/196/43
f 148/243/71 149/209/59 21/211/59
f 173/244/45 174/92/49 46/93/49
f 239/245/72 224/146/61 110/147/61
f 22/210/48 150/247/48 151/215/47
