# Blender v3.4.1 OBJ File: 'bike.blend'
# www.blender.org
o Ring_Cylinder.001
v 0.000000 -1.000000 0.000216
v 0.098017 -0.995185 0.000216
v 0.195090 -0.980785 0.000216
v 0.290285 -0.956940 0.000216
v 0.382683 -0.923880 0.000216
v 0.471397 -0.881921 0.000216
v 0.555570 -0.831470 0.000216
v 0.634393 -0.773010 0.000216
v 0.707107 -0.707107 0.000216
v 0.773010 -0.634393 0.000216
v 0.831470 -0.555570 0.000216
v 0.881921 -0.471397 0.000216
v 0.923880 -0.382683 0.000216
v 0.956940 -0.290285 0.000216
v 0.980785 -0.195090 0.000216
v 0.995185 -0.098017 0.000216
v 1.000000 0.000000 -0.000216
v 0.995185 0.098017 0.000216
v 0.980785 0.195090 0.000216
v 0.956940 0.290285 0.000216
v 0.923880 0.382683 0.000216
v 0.881921 0.471397 0.000216
v 0.831470 0.555570 0.000216
v 0.773010 0.634393 0.000216
v 0.707107 0.707107 0.000216
v 0.634393 0.773010 0.000216
v 0.555570 0.831470 0.000216
v 0.471397 0.881921 0.000216
v 0.382683 0.923880 0.000216
v 0.290285 0.956940 0.000216
v 0.195090 0.980785 0.000216
v 0.098017 0.995185 0.000216
v 0.000000 1.000000 0.000216
v -0.098017 0.995185 0.000216
v -0.195090 0.980785 0.000216
v -0.290285 0.956940 0.000216
v -0.382683 0.923880 0.000216
v -0.471397 0.881921 0.000216
v -0.555570 0.831470 0.000216
v -0.634393 0.773010 0.000216
v -0.707107 0.707107 0.000216
v -0.773010 0.634393 0.000216
v -0.831470 0.555570 0.000216
v -0.881921 0.471397 0.000216
v -0.923880 0.382683 0.000216
v -0.956940 0.290285 0.000216
v -0.980785 0.195090 0.000216
v -0.995185 0.098017 0.000216
v -1.000000 0.000000 -0.000216
v -0.995185 -0.098017 0.000216
v -0.980785 -0.195090 0.000216
v -0.956940 -0.290285 0.000216
v -0.923880 -0.382683 0.000216
v -0.881921 -0.471397 0.000216
v -0.831470 -0.555570 0.000216
v -0.773010 -0.634393 0.000216
v -0.707107 -0.707107 0.000216
v -0.634393 -0.773010 0.000216
v -0.555570 -0.831470 0.000216
v -0.471397 -0.881921 0.000216
v -0.382683 -0.923880 0.000216
v -0.290285 -0.956940 0.000216
v -0.195090 -0.980785 0.000216
v -0.098017 -0.995185 0.000216
v -0.368365 -0.889312 0.000216
v -0.279424 -0.921136 0.000216
v -0.094350 -0.957949 0.000216
v 0.000000 -0.962584 0.000216
v -0.187791 -0.944089 0.000216
v -0.889312 -0.368365 0.000216
v -0.848924 -0.453759 0.000216
v -0.744088 -0.610657 0.000216
v -0.680650 -0.680650 0.000216
v -0.800360 -0.534783 0.000216
v -0.962584 -0.000000 0.000216
v -0.957949 0.094350 0.000216
v -0.921136 0.279424 0.000216
v -0.889312 0.368365 0.000216
v -0.944089 0.187791 0.000216
v -0.680650 0.680650 0.000216
v -0.610657 0.744088 0.000216
v -0.453759 0.848924 0.000216
v -0.368365 0.889312 0.000216
v -0.534783 0.800360 0.000216
v 0.000000 0.962584 0.000216
v 0.094350 0.957949 0.000216
v 0.279424 0.921136 0.000216
v 0.368365 0.889312 0.000216
v 0.187791 0.944089 0.000216
v 0.680650 0.680650 0.000216
v 0.744088 0.610657 0.000216
v 0.848924 0.453759 0.000216
v 0.889312 0.368365 0.000216
v 0.800360 0.534783 0.000216
v 0.889312 -0.368365 0.000216
v 0.921136 -0.279424 0.000216
v 0.957949 -0.094350 0.000216
v 0.962584 -0.000000 0.000216
v 0.944089 -0.187791 0.000216
v 0.368365 -0.889312 0.000216
v 0.453759 -0.848924 0.000216
v 0.610657 -0.744088 0.000216
v 0.680650 -0.680650 0.000216
v 0.534783 -0.800360 0.000216
v -0.921136 -0.279424 0.000216
v -0.610657 -0.744088 0.000216
v -0.453759 -0.848924 0.000216
v 0.094350 -0.957949 0.000216
v -0.534783 -0.800360 0.000216
v -0.957949 -0.094350 0.000216
v -0.848924 0.453759 0.000216
v -0.744088 0.610657 0.000216
v -0.279424 0.921136 0.000216
v -0.800360 0.534783 0.000216
v -0.094350 0.957949 0.000216
v 0.453759 0.848924 0.000216
v 0.610657 0.744088 0.000216
v 0.921136 0.279424 0.000216
v 0.534783 0.800360 0.000216
v 0.279424 -0.921136 0.000216
v 0.744088 -0.610657 0.000216
v 0.848924 -0.453759 0.000216
v 0.957949 0.094350 0.000216
v 0.800360 -0.534783 0.000216
v -0.944089 -0.187791 0.000216
v -0.187791 0.944089 0.000216
v 0.944089 0.187791 0.000216
v 0.187791 -0.944089 0.000216
v 0.000000 1.000000 -0.000216
v 0.098017 0.995185 -0.000216
v 0.195090 0.980785 -0.000216
v 0.290285 0.956940 -0.000216
v 0.382683 0.923880 -0.000216
v 0.471397 0.881921 -0.000216
v 0.555570 0.831470 -0.000216
v 0.634393 0.773010 -0.000216
v 0.707107 0.707107 -0.000216
v 0.773010 0.634393 -0.000216
v 0.831470 0.555570 -0.000216
v 0.881921 0.471397 -0.000216
v 0.923880 0.382683 -0.000216
v 0.956940 0.290285 -0.000216
v 0.980785 0.195090 -0.000216
v 0.995185 0.098017 -0.000216
v 1.000000 -0.000000 0.000216
v 0.995185 -0.098017 -0.000216
v 0.980785 -0.195090 -0.000216
v 0.956940 -0.290285 -0.000216
v 0.923880 -0.382683 -0.000216
v 0.881921 -0.471397 -0.000216
v 0.831470 -0.555570 -0.000216
v 0.773010 -0.634393 -0.000216
v 0.707107 -0.707107 -0.000216
v 0.634393 -0.773010 -0.000216
v 0.555570 -0.831470 -0.000216
v 0.471397 -0.881921 -0.000216
v 0.382683 -0.923880 -0.000216
v 0.290285 -0.956940 -0.000216
v 0.195090 -0.980785 -0.000216
v 0.098017 -0.995185 -0.000216
v 0.000000 -1.000000 -0.000216
v -0.098017 -0.995185 -0.000216
v -0.195090 -0.980785 -0.000216
v -0.290285 -0.956940 -0.000216
v -0.382683 -0.923880 -0.000216
v -0.471397 -0.881921 -0.000216
v -0.555570 -0.831470 -0.000216
v -0.634393 -0.773010 -0.000216
v -0.707107 -0.707107 -0.000216
v -0.773010 -0.634393 -0.000216
v -0.831470 -0.555570 -0.000216
v -0.881921 -0.471397 -0.000216
v -0.923880 -0.382683 -0.000216
v -0.956940 -0.290285 -0.000216
v -0.980785 -0.195090 -0.000216
v -0.995185 -0.098017 -0.000216
v -1.000000 -0.000000 0.000216
v -0.995185 0.098017 -0.000216
v -0.980785 0.195090 -0.000216
v -0.956940 0.290285 -0.000216
v -0.923880 0.382683 -0.000216
v -0.881921 0.471397 -0.000216
v -0.831470 0.555570 -0.000216
v -0.773010 0.634393 -0.000216
v -0.707107 0.707107 -0.000216
v -0.634393 0.773010 -0.000216
v -0.555570 0.831470 -0.000216
v -0.471397 0.881921 -0.000216
v -0.382683 0.923880 -0.000216
v -0.290285 0.956940 -0.000216
v -0.195090 0.980785 -0.000216
v -0.098017 0.995185 -0.000216
v -0.368365 0.889312 -0.000216
v -0.279424 0.921136 -0.000216
v -0.094350 0.957949 -0.000216
v 0.000000 0.962584 -0.000216
v -0.187791 0.944089 -0.000216
v -0.889312 0.368365 -0.000216
v -0.848924 0.453759 -0.000216
v -0.744088 0.610657 -0.000216
v -0.680650 0.680650 -0.000216
v -0.800360 0.534783 -0.000216
v -0.962584 0.000000 -0.000216
v -0.957949 -0.094350 -0.000216
v -0.921136 -0.279424 -0.000216
v -0.889312 -0.368365 -0.000216
v -0.944089 -0.187791 -0.000216
v -0.680650 -0.680650 -0.000216
v -0.610657 -0.744088 -0.000216
v -0.453759 -0.848924 -0.000216
v -0.368365 -0.889312 -0.000216
v -0.534783 -0.800360 -0.000216
v 0.000000 -0.962584 -0.000216
v 0.094350 -0.957949 -0.000216
v 0.279424 -0.921136 -0.000216
v 0.368365 -0.889312 -0.000216
v 0.187791 -0.944089 -0.000216
v 0.680650 -0.680650 -0.000216
v 0.744088 -0.610657 -0.000216
v 0.848924 -0.453759 -0.000216
v 0.889312 -0.368365 -0.000216
v 0.800360 -0.534783 -0.000216
v 0.889312 0.368365 -0.000216
v 0.921136 0.279424 -0.000216
v 0.957949 0.094350 -0.000216
v 0.962584 0.000000 -0.000216
v 0.944089 0.187791 -0.000216
v 0.368365 0.889312 -0.000216
v 0.453759 0.848924 -0.000216
v 0.610657 0.744088 -0.000216
v 0.680650 0.680650 -0.000216
v 0.534783 0.800360 -0.000216
v -0.921136 0.279424 -0.000216
v -0.610657 0.744088 -0.000216
v -0.453759 0.848924 -0.000216
v 0.094350 0.957949 -0.000216
v -0.534783 0.800360 -0.000216
v -0.957949 0.094350 -0.000216
v -0.848924 -0.453759 -0.000216
v -0.744088 -0.610657 -0.000216
v -0.279424 -0.921136 -0.000216
v -0.800360 -0.534783 -0.000216
v -0.094350 -0.957949 -0.000216
v 0.453759 -0.848924 -0.000216
v 0.610657 -0.744088 -0.000216
v 0.921136 -0.279424 -0.000216
v 0.534783 -0.800360 -0.000216
v 0.279424 0.921136 -0.000216
v 0.744088 0.610657 -0.000216
v 0.848924 0.453759 -0.000216
v 0.957949 -0.094350 -0.000216
v 0.800360 0.534783 -0.000216
v -0.944089 0.187791 -0.000216
v -0.187791 -0.944089 -0.000216
v 0.944089 -0.187791 -0.000216
v 0.187791 0.944089 -0.000216
vt 0.378348 0.057914
vt 0.396558 0.071419
vt 0.383337 0.050447
vt 0.121652 0.442086
vt 0.103442 0.428581
vt 0.116663 0.449553
vt 0.378348 0.057914
vt 0.396558 0.071419
vt 0.383337 0.050447
vt 0.121652 0.442086
vt 0.103442 0.428581
vt 0.116663 0.449553
vt 0.203178 0.014612
vt 0.204930 0.023419
vt 0.227356 0.020092
vt 0.226476 0.011156
vt 0.250000 0.018980
vt 0.250000 0.010000
vt 0.296822 0.014612
vt 0.273524 0.011156
vt 0.272644 0.020092
vt 0.341844 0.028269
vt 0.319668 0.020334
vt 0.317062 0.028927
vt 0.363135 0.038339
vt 0.358902 0.046258
vt 0.338408 0.036565
vt 0.419706 0.080294
vt 0.402254 0.064478
vt 0.413356 0.086644
vt 0.449553 0.116663
vt 0.435522 0.097746
vt 0.428581 0.103442
vt 0.471731 0.158156
vt 0.461661 0.136865
vt 0.463435 0.161592
vt 0.453742 0.141098
vt 0.485388 0.203178
vt 0.479666 0.180332
vt 0.471073 0.182938
vt 0.476581 0.204930
vt 0.295070 0.023419
vt 0.442086 0.121652
vt 0.479908 0.227356
vt 0.488844 0.226476
vt 0.481020 0.250000
vt 0.490000 0.250000
vt 0.485388 0.296822
vt 0.488844 0.273524
vt 0.479908 0.272644
vt 0.471731 0.341844
vt 0.479666 0.319668
vt 0.471073 0.317062
vt 0.449553 0.383337
vt 0.461661 0.363135
vt 0.453742 0.358902
vt 0.463435 0.338408
vt 0.419706 0.419706
vt 0.435522 0.402254
vt 0.413356 0.413356
vt 0.428581 0.396558
vt 0.383337 0.449553
vt 0.402254 0.435522
vt 0.396558 0.428581
vt 0.341844 0.471731
vt 0.363135 0.461661
vt 0.358902 0.453742
vt 0.296822 0.485388
vt 0.319668 0.479666
vt 0.317062 0.471073
vt 0.338408 0.463435
vt 0.250000 0.490000
vt 0.273524 0.488844
vt 0.250000 0.481020
vt 0.272644 0.479908
vt 0.203178 0.485388
vt 0.226476 0.488844
vt 0.227356 0.479908
vt 0.158156 0.471731
vt 0.180332 0.479666
vt 0.182938 0.471073
vt 0.136865 0.461661
vt 0.141098 0.453742
vt 0.161592 0.463435
vt 0.080294 0.419706
vt 0.097746 0.435522
vt 0.086644 0.413356
vt 0.050447 0.383337
vt 0.064478 0.402254
vt 0.071419 0.396558
vt 0.028269 0.341844
vt 0.038339 0.363135
vt 0.036565 0.338408
vt 0.046258 0.358902
vt 0.014612 0.296822
vt 0.020334 0.319668
vt 0.028927 0.317062
vt 0.010000 0.250000
vt 0.011156 0.273524
vt 0.018980 0.250000
vt 0.020092 0.272644
vt 0.014612 0.203178
vt 0.011156 0.226476
vt 0.020092 0.227356
vt 0.028269 0.158156
vt 0.020334 0.180332
vt 0.036565 0.161592
vt 0.028927 0.182938
vt 0.050447 0.116663
vt 0.038339 0.136865
vt 0.046258 0.141098
vt 0.080294 0.080294
vt 0.064478 0.097746
vt 0.086644 0.086644
vt 0.071419 0.103442
vt 0.116663 0.050447
vt 0.097746 0.064478
vt 0.103442 0.071419
vt 0.158156 0.028269
vt 0.136865 0.038339
vt 0.161592 0.036565
vt 0.141098 0.046258
vt 0.180332 0.020334
vt 0.182938 0.028927
vt 0.476581 0.295070
vt 0.121652 0.057914
vt 0.442086 0.378348
vt 0.057914 0.121652
vt 0.378348 0.442086
vt 0.023419 0.204930
vt 0.295070 0.476581
vt 0.023419 0.295070
vt 0.204930 0.476581
vt 0.057914 0.378348
vt 0.203178 0.014612
vt 0.204930 0.023419
vt 0.227356 0.020092
vt 0.226476 0.011156
vt 0.250000 0.018980
vt 0.250000 0.010000
vt 0.296822 0.014612
vt 0.273524 0.011156
vt 0.272644 0.020092
vt 0.341844 0.028269
vt 0.319668 0.020334
vt 0.317062 0.028927
vt 0.363135 0.038339
vt 0.358902 0.046258
vt 0.338408 0.036565
vt 0.419706 0.080294
vt 0.402254 0.064478
vt 0.413356 0.086644
vt 0.449553 0.116663
vt 0.435522 0.097746
vt 0.428581 0.103442
vt 0.471731 0.158156
vt 0.461661 0.136865
vt 0.463435 0.161592
vt 0.453742 0.141098
vt 0.485388 0.203178
vt 0.479666 0.180332
vt 0.471073 0.182938
vt 0.476581 0.204930
vt 0.295070 0.023419
vt 0.442086 0.121652
vt 0.479908 0.227356
vt 0.488844 0.226476
vt 0.481020 0.250000
vt 0.490000 0.250000
vt 0.485388 0.296822
vt 0.488844 0.273524
vt 0.479908 0.272644
vt 0.471731 0.341844
vt 0.479666 0.319668
vt 0.471073 0.317062
vt 0.449553 0.383337
vt 0.461661 0.363135
vt 0.453742 0.358902
vt 0.463435 0.338408
vt 0.419706 0.419706
vt 0.435522 0.402254
vt 0.413356 0.413356
vt 0.428581 0.396558
vt 0.383337 0.449553
vt 0.402254 0.435522
vt 0.396558 0.428581
vt 0.341844 0.471731
vt 0.363135 0.461661
vt 0.358902 0.453742
vt 0.296822 0.485388
vt 0.319668 0.479666
vt 0.317062 0.471073
vt 0.338408 0.463435
vt 0.250000 0.490000
vt 0.273524 0.488844
vt 0.250000 0.481020
vt 0.272644 0.479908
vt 0.203178 0.485388
vt 0.226476 0.488844
vt 0.227356 0.479908
vt 0.158156 0.471731
vt 0.180332 0.479666
vt 0.182938 0.471073
vt 0.136865 0.461661
vt 0.141098 0.453742
vt 0.161592 0.463435
vt 0.080294 0.419706
vt 0.097746 0.435522
vt 0.086644 0.413356
vt 0.050447 0.383337
vt 0.064478 0.402254
vt 0.071419 0.396558
vt 0.028269 0.341844
vt 0.038339 0.363135
vt 0.036565 0.338408
vt 0.046258 0.358902
vt 0.014612 0.296822
vt 0.020334 0.319668
vt 0.028927 0.317062
vt 0.010000 0.250000
vt 0.011156 0.273524
vt 0.018980 0.250000
vt 0.020092 0.272644
vt 0.014612 0.203178
vt 0.011156 0.226476
vt 0.020092 0.227356
vt 0.028269 0.158156
vt 0.020334 0.180332
vt 0.036565 0.161592
vt 0.028927 0.182938
vt 0.050447 0.116663
vt 0.038339 0.136865
vt 0.046258 0.141098
vt 0.080294 0.080294
vt 0.064478 0.097746
vt 0.086644 0.086644
vt 0.071419 0.103442
vt 0.116663 0.050447
vt 0.097746 0.064478
vt 0.103442 0.071419
vt 0.158156 0.028269
vt 0.136865 0.038339
vt 0.161592 0.036565
vt 0.141098 0.046258
vt 0.180332 0.020334
vt 0.182938 0.028927
vt 0.476581 0.295070
vt 0.121652 0.057914
vt 0.442086 0.378348
vt 0.057914 0.121652
vt 0.378348 0.442086
vt 0.023419 0.204930
vt 0.295070 0.476581
vt 0.023419 0.295070
vt 0.204930 0.476581
vt 0.057914 0.378348
vn -0.0000 -0.0000 1.0000
vn 0.0000 0.0000 -1.0000
vn 0.0115 -0.0038 0.9999
vn 0.0004 0.0044 1.0000
vn -0.0115 0.0038 0.9999
vn -0.0004 -0.0044 1.0000
vn -0.0115 0.0006 0.9999
vn 0.0115 -0.0006 0.9999
vn 0.0115 0.0038 -0.9999
vn 0.0004 -0.0044 -1.0000
vn -0.0115 -0.0038 -0.9999
vn -0.0004 0.0044 -1.0000
vn -0.0115 -0.0006 -0.9999
vn 0.0115 0.0006 -0.9999
s off
f 119/1/1 117/2/1 27/3/1
f 109/4/1 106/5/1 59/6/1
f 247/7/2 245/8/2 155/9/2
f 237/10/2 234/11/2 187/12/2
f 35/13/1 126/14/1 115/15/1
f 35/13/1 115/15/1 34/16/1
f 115/15/1 85/17/1 34/16/1
f 33/18/1 34/16/1 85/17/1
f 31/19/1 32/20/1 86/21/1
f 32/20/1 33/18/1 86/21/1
f 29/22/1 30/23/1 87/24/1
f 30/23/1 31/19/1 87/24/1
f 27/3/1 28/25/1 116/26/1
f 28/25/1 29/22/1 88/27/1
f 25/28/1 26/29/1 90/30/1
f 26/29/1 27/3/1 117/2/1
f 90/30/1 26/29/1 117/2/1
f 23/31/1 24/32/1 91/33/1
f 24/32/1 25/28/1 91/33/1
f 21/34/1 22/35/1 93/36/1
f 22/35/1 23/31/1 92/37/1
f 93/36/1 22/35/1 92/37/1
f 19/38/1 20/39/1 118/40/1
f 20/39/1 21/34/1 93/36/1
f 118/40/1 127/41/1 19/38/1
f 93/36/1 118/40/1 20/39/1
f 91/33/1 25/28/1 90/30/1
f 28/25/1 88/27/1 116/26/1
f 86/21/1 33/18/1 85/17/1
f 31/19/1 86/21/1 89/42/1
f 31/19/1 89/42/1 87/24/1
f 94/43/1 92/37/1 23/31/1
f 91/33/1 94/43/1 23/31/1
f 29/22/1 87/24/1 88/27/1
f 27/3/1 116/26/1 119/1/1
f 19/38/1 127/41/1 123/44/1
f 19/38/1 123/44/1 18/45/1
f 123/44/1 98/46/1 18/45/1
f 17/47/3 18/45/3 98/46/3
f 15/48/1 16/49/1 97/50/1
f 16/49/4 17/47/4 97/50/4
f 13/51/1 14/52/1 96/53/1
f 14/52/1 15/48/1 96/53/1
f 11/54/1 12/55/1 122/56/1
f 12/55/1 13/51/1 95/57/1
f 9/58/1 10/59/1 103/60/1
f 10/59/1 11/54/1 121/61/1
f 103/60/1 10/59/1 121/61/1
f 7/62/1 8/63/1 102/64/1
f 8/63/1 9/58/1 103/60/1
f 5/65/1 6/66/1 101/67/1
f 6/66/1 7/62/1 101/67/1
f 3/68/1 4/69/1 120/70/1
f 4/69/1 5/65/1 100/71/1
f 1/72/1 2/73/1 68/74/1
f 2/73/1 3/68/1 108/75/1
f 68/74/1 2/73/1 108/75/1
f 63/76/1 64/77/1 67/78/1
f 64/77/1 1/72/1 68/74/1
f 61/79/1 62/80/1 66/81/1
f 62/80/1 63/76/1 66/81/1
f 59/6/1 60/82/1 107/83/1
f 60/82/1 61/79/1 65/84/1
f 57/85/1 58/86/1 73/87/1
f 58/86/1 59/6/1 106/5/1
f 73/87/1 58/86/1 106/5/1
f 55/88/1 56/89/1 72/90/1
f 56/89/1 57/85/1 72/90/1
f 53/91/1 54/92/1 70/93/1
f 54/92/1 55/88/1 71/94/1
f 70/93/1 54/92/1 71/94/1
f 51/95/1 52/96/1 105/97/1
f 52/96/1 53/91/1 70/93/1
f 49/98/5 50/99/5 75/100/5
f 50/99/1 51/95/1 110/101/1
f 75/100/1 50/99/1 110/101/1
f 47/102/1 48/103/1 76/104/1
f 48/103/6 49/98/6 76/104/6
f 45/105/1 46/106/1 78/107/1
f 46/106/1 47/102/1 77/108/1
f 78/107/1 46/106/1 77/108/1
f 43/109/1 44/110/1 111/111/1
f 44/110/1 45/105/1 78/107/1
f 41/112/1 42/113/1 80/114/1
f 42/113/1 43/109/1 112/115/1
f 80/114/1 42/113/1 112/115/1
f 39/116/1 40/117/1 81/118/1
f 40/117/1 41/112/1 81/118/1
f 37/119/1 38/120/1 83/121/1
f 38/120/1 39/116/1 82/122/1
f 83/121/1 38/120/1 82/122/1
f 35/13/1 36/123/1 113/124/1
f 36/123/1 37/119/1 83/121/1
f 113/124/1 126/14/1 35/13/1
f 83/121/1 113/124/1 36/123/1
f 81/118/1 41/112/1 80/114/1
f 44/110/1 78/107/1 111/111/1
f 76/104/7 49/98/7 75/100/7
f 52/96/1 70/93/1 105/97/1
f 72/90/1 57/85/1 73/87/1
f 60/82/1 65/84/1 107/83/1
f 64/77/1 68/74/1 67/78/1
f 4/69/1 100/71/1 120/70/1
f 8/63/1 103/60/1 102/64/1
f 12/55/1 95/57/1 122/56/1
f 97/50/8 17/47/8 98/46/8
f 15/48/1 97/50/1 99/125/1
f 15/48/1 99/125/1 96/53/1
f 84/126/1 82/122/1 39/116/1
f 81/118/1 84/126/1 39/116/1
f 13/51/1 96/53/1 95/57/1
f 11/54/1 122/56/1 124/127/1
f 114/128/1 112/115/1 43/109/1
f 11/54/1 124/127/1 121/61/1
f 111/111/1 114/128/1 43/109/1
f 7/62/1 102/64/1 104/129/1
f 7/62/1 104/129/1 101/67/1
f 79/130/1 77/108/1 47/102/1
f 76/104/1 79/130/1 47/102/1
f 5/65/1 101/67/1 100/71/1
f 3/68/1 120/70/1 128/131/1
f 125/132/1 110/101/1 51/95/1
f 3/68/1 128/131/1 108/75/1
f 105/97/1 125/132/1 51/95/1
f 63/76/1 67/78/1 69/133/1
f 63/76/1 69/133/1 66/81/1
f 74/134/1 71/94/1 55/88/1
f 72/90/1 74/134/1 55/88/1
f 61/79/1 66/81/1 65/84/1
f 59/6/1 107/83/1 109/4/1
f 163/135/2 254/136/2 243/137/2
f 163/135/2 243/137/2 162/138/2
f 243/137/2 213/139/2 162/138/2
f 161/140/2 162/138/2 213/139/2
f 159/141/2 160/142/2 214/143/2
f 160/142/2 161/140/2 214/143/2
f 157/144/2 158/145/2 215/146/2
f 158/145/2 159/141/2 215/146/2
f 155/9/2 156/147/2 244/148/2
f 156/147/2 157/144/2 216/149/2
f 153/150/2 154/151/2 218/152/2
f 154/151/2 155/9/2 245/8/2
f 218/152/2 154/151/2 245/8/2
f 151/153/2 152/154/2 219/155/2
f 152/154/2 153/150/2 219/155/2
f 149/156/2 150/157/2 221/158/2
f 150/157/2 151/153/2 220/159/2
f 221/158/2 150/157/2 220/159/2
f 147/160/2 148/161/2 246/162/2
f 148/161/2 149/156/2 221/158/2
f 246/162/2 255/163/2 147/160/2
f 221/158/2 246/162/2 148/161/2
f 219/155/2 153/150/2 218/152/2
f 156/147/2 216/149/2 244/148/2
f 214/143/2 161/140/2 213/139/2
f 159/141/2 214/143/2 217/164/2
f 159/141/2 217/164/2 215/146/2
f 222/165/2 220/159/2 151/153/2
f 219/155/2 222/165/2 151/153/2
f 157/144/2 215/146/2 216/149/2
f 155/9/2 244/148/2 247/7/2
f 147/160/2 255/163/2 251/166/2
f 147/160/2 251/166/2 146/167/2
f 251/166/2 226/168/2 146/167/2
f 145/169/9 146/167/9 226/168/9
f 143/170/2 144/171/2 225/172/2
f 144/171/10 145/169/10 225/172/10
f 141/173/2 142/174/2 224/175/2
f 142/174/2 143/170/2 224/175/2
f 139/176/2 140/177/2 250/178/2
f 140/177/2 141/173/2 223/179/2
f 137/180/2 138/181/2 231/182/2
f 138/181/2 139/176/2 249/183/2
f 231/182/2 138/181/2 249/183/2
f 135/184/2 136/185/2 230/186/2
f 136/185/2 137/180/2 231/182/2
f 133/187/2 134/188/2 229/189/2
f 134/188/2 135/184/2 229/189/2
f 131/190/2 132/191/2 248/192/2
f 132/191/2 133/187/2 228/193/2
f 129/194/2 130/195/2 196/196/2
f 130/195/2 131/190/2 236/197/2
f 196/196/2 130/195/2 236/197/2
f 191/198/2 192/199/2 195/200/2
f 192/199/2 129/194/2 196/196/2
f 189/201/2 190/202/2 194/203/2
f 190/202/2 191/198/2 194/203/2
f 187/12/2 188/204/2 235/205/2
f 188/204/2 189/201/2 193/206/2
f 185/207/2 186/208/2 201/209/2
f 186/208/2 187/12/2 234/11/2
f 201/209/2 186/208/2 234/11/2
f 183/210/2 184/211/2 200/212/2
f 184/211/2 185/207/2 200/212/2
f 181/213/2 182/214/2 198/215/2
f 182/214/2 183/210/2 199/216/2
f 198/215/2 182/214/2 199/216/2
f 179/217/2 180/218/2 233/219/2
f 180/218/2 181/213/2 198/215/2
f 177/220/11 178/221/11 203/222/11
f 178/221/2 179/217/2 238/223/2
f 203/222/2 178/221/2 238/223/2
f 175/224/2 176/225/2 204/226/2
f 176/225/12 177/220/12 204/226/12
f 173/227/2 174/228/2 206/229/2
f 174/228/2 175/224/2 205/230/2
f 206/229/2 174/228/2 205/230/2
f 171/231/2 172/232/2 239/233/2
f 172/232/2 173/227/2 206/229/2
f 169/234/2 170/235/2 208/236/2
f 170/235/2 171/231/2 240/237/2
f 208/236/2 170/235/2 240/237/2
f 167/238/2 168/239/2 209/240/2
f 168/239/2 169/234/2 209/240/2
f 165/241/2 166/242/2 211/243/2
f 166/242/2 167/238/2 210/244/2
f 211/243/2 166/242/2 210/244/2
f 163/135/2 164/245/2 241/246/2
f 164/245/2 165/241/2 211/243/2
f 241/246/2 254/136/2 163/135/2
f 211/243/2 241/246/2 164/245/2
f 209/240/2 169/234/2 208/236/2
f 172/232/2 206/229/2 239/233/2
f 204/226/13 177/220/13 203/222/13
f 180/218/2 198/215/2 233/219/2
f 200/212/2 185/207/2 201/209/2
f 188/204/2 193/206/2 235/205/2
f 192/199/2 196/196/2 195/200/2
f 132/191/2 228/193/2 248/192/2
f 136/185/2 231/182/2 230/186/2
f 140/177/2 223/179/2 250/178/2
f 225/172/14 145/169/14 226/168/14
f 143/170/2 225/172/2 227/247/2
f 143/170/2 227/247/2 224/175/2
f 212/248/2 210/244/2 167/238/2
f 209/240/2 212/248/2 167/238/2
f 141/173/2 224/175/2 223/179/2
f 139/176/2 250/178/2 252/249/2
f 242/250/2 240/237/2 171/231/2
f 139/176/2 252/249/2 249/183/2
f 239/233/2 242/250/2 171/231/2
f 135/184/2 230/186/2 232/251/2
f 135/184/2 232/251/2 229/189/2
f 207/252/2 205/230/2 175/224/2
f 204/226/2 207/252/2 175/224/2
f 133/187/2 229/189/2 228/193/2
f 131/190/2 248/192/2 256/253/2
f 253/254/2 238/223/2 179/217/2
f 131/190/2 256/253/2 236/197/2
f 233/219/2 253/254/2 179/217/2
f 191/198/2 195/200/2 197/255/2
f 191/198/2 197/255/2 194/203/2
f 202/256/2 199/216/2 183/210/2
f 200/212/2 202/256/2 183/210/2
f 189/201/2 194/203/2 193/206/2
f 187/12/2 235/205/2 237/10/2
