# Blender v3.4.1 OBJ File: 'decoratives_and_entities.blend'
# www.blender.org
o Plane.002_Plane.085
v 0.667416 0.027528 0.268029
v 0.454117 0.007888 0.087960
v 0.156975 0.027528 0.701885
v 0.013632 0.007888 0.462357
v 0.884733 0.057440 0.502390
v 0.353254 0.057440 0.954127
v 1.086401 0.100694 0.825804
v 0.639944 0.100694 1.205277
v 1.237748 0.172880 1.246720
v 1.030970 0.172880 1.422474
v 1.259003 0.214937 1.453427
v 1.231550 0.214937 1.476761
v 0.342613 0.000000 0.047877
v -0.007959 0.000000 0.345851
v -0.590073 0.025522 0.310540
v 0.215446 0.009208 0.406929
v -0.590073 0.025522 -0.310540
v 0.215446 0.009208 -0.406928
v -0.886111 0.053253 0.323339
v -0.886111 0.053253 -0.323339
v -1.235662 0.093355 0.271614
v -1.235662 0.093355 -0.271614
v -1.623875 0.160279 0.125799
v -1.623875 0.160279 -0.125799
v -1.782658 0.199270 0.016702
v -1.782658 0.199270 -0.016702
v 0.360106 -0.001896 0.323865
v 0.360106 -0.001896 -0.323865
v 0.017975 0.028188 0.736248
v 0.101034 0.008077 0.462746
v -0.596681 0.028188 0.431690
v -0.429384 0.008077 0.199927
v -0.114526 0.058817 1.035500
v -0.754515 0.058817 0.718389
v -0.337125 0.103108 1.356071
v -0.874734 0.103108 1.089689
v -0.671800 0.177025 1.668765
v -0.920795 0.177025 1.545390
v -0.857630 0.220090 1.772408
v -0.890688 0.220090 1.756028
v 0.093614 0.000000 0.341643
v -0.328534 0.000000 0.132471
v 0.376519 0.028188 -0.632944
v 0.160670 0.008077 -0.445563
v 0.734900 0.028188 -0.048032
v 0.469935 0.008077 0.059187
v 0.647932 0.058817 -0.815819
v 1.021083 0.058817 -0.206800
v 1.006974 0.103108 -0.968807
v 1.320431 0.103108 -0.457213
v 1.456719 0.177025 -1.055492
v 1.601897 0.177025 -0.818546
v 1.669206 0.220090 -1.044370
v 1.688481 0.220090 -1.012912
v 0.102517 0.000000 -0.339078
v 0.348654 0.000000 0.062642
v -0.500617 0.028188 -0.540155
v -0.381932 0.008077 -0.280124
v 0.161771 0.028188 -0.718480
v 0.189676 0.008077 -0.434010
v -0.599266 0.058817 -0.852207
v 0.090423 0.058817 -1.037882
v -0.644464 0.103108 -1.239858
v -0.065107 0.103108 -1.395831
v -0.600415 0.177025 -1.695757
v -0.332085 0.177025 -1.767997
v -0.529653 0.220090 -1.896425
v -0.494027 0.220090 -1.906016
v -0.296241 0.000000 -0.194228
v 0.158690 0.000000 -0.316703
v -0.210840 0.244852 0.701137
v -0.052467 0.134727 0.513556
v -0.731295 0.244852 -0.035417
v -0.501593 0.134727 -0.122053
v -0.390233 0.433996 0.850654
v -0.932138 0.433996 0.083743
v -0.653909 0.662790 0.945000
v -1.109124 0.662790 0.300773
v -0.997848 0.953077 0.928763
v -1.208682 0.953077 0.630388
v -1.134964 1.098793 0.882791
v -1.211142 1.098793 0.774985
v -0.036936 0.075716 0.405321
v -0.394386 0.075716 -0.100546
v 0.542441 0.236156 0.498922
v 0.440582 0.134727 0.269035
v -0.346626 0.236156 0.650397
v -0.326638 0.134727 0.399750
v 0.599970 0.425809 0.725926
v -0.325740 0.425809 0.883644
v 0.571282 0.654827 1.004752
v -0.206340 0.654827 1.137239
v 0.406287 0.957059 1.297027
v 0.046129 0.957059 1.358389
v 0.265150 1.098793 1.411875
v 0.217334 1.098793 1.420022
v 0.349658 0.075716 0.208300
v -0.260956 0.075716 0.312333
v 0.575126 0.253515 -0.445019
v 0.343214 0.134727 -0.385612
v 0.565806 0.253515 0.456811
v 0.335171 0.134727 0.392623
v 0.807555 0.442251 -0.461204
v 0.797851 0.442251 0.477795
v 1.076288 0.670821 -0.383312
v 1.068136 0.670821 0.405474
v 1.347631 0.958198 -0.168756
v 1.343855 0.958198 0.196572
v 1.436958 1.098793 -0.051155
v 1.435594 1.098793 0.080842
v 0.267254 0.075716 -0.306961
v 0.260853 0.075716 0.312419
v -0.234389 0.252950 -0.688696
v -0.253505 0.134727 -0.449697
v 0.615705 0.252950 -0.387489
v 0.480083 0.134727 -0.189771
v -0.174323 0.441733 -0.913868
v 0.710807 0.441733 -0.600247
v -0.013504 0.670317 -1.142847
v 0.730030 0.670317 -0.879396
v 0.276218 0.961337 -1.326531
v 0.620587 0.961337 -1.204513
v 0.456849 1.098793 -1.361979
v 0.502569 1.098793 -1.345779
v -0.203731 0.075716 -0.352340
v 0.380116 0.075716 -0.145470
v -0.743327 0.220690 0.056017
v -0.496214 0.134727 0.142352
v -0.253259 0.220690 -0.701094
v -0.073310 0.134727 -0.510997
v -0.950544 0.411342 -0.055973
v -0.440278 0.411342 -0.844288
v -1.136816 0.640754 -0.266017
v -0.708178 0.640754 -0.928224
v -1.238182 0.947245 -0.583856
v -1.039657 0.947245 -0.890559
v -1.241658 1.098793 -0.725086
v -1.169928 1.098793 -0.835902
v -0.389970 0.075716 0.116503
v -0.053390 0.075716 -0.403484
v 0.592398 0.384938 -0.074101
v 0.455395 0.183271 -0.106793
v 0.094371 0.382068 0.588937
v 0.025622 0.180795 0.465376
v 0.716453 0.619568 -0.001313
v 0.197899 0.616580 0.689051
v 0.805237 0.900870 0.152909
v 0.369637 0.898360 0.732835
v 0.801622 1.235514 0.395118
v 0.599873 1.234351 0.663712
v 0.758197 1.350828 0.499419
v 0.685091 1.350407 0.596746
v 0.335011 0.147883 -0.103877
v -0.007036 0.145912 0.351500
v 0.185514 0.377164 0.574120
v 0.217617 0.222397 0.379248
v -0.566693 0.374295 0.225070
v -0.431500 0.219921 0.078035
v 0.139411 0.614270 0.712022
v -0.643798 0.611282 0.348585
v 0.006927 0.895922 0.830984
v -0.650990 0.893412 0.525688
v -0.228498 1.233910 0.872942
v -0.533213 1.232748 0.731543
v -0.330596 1.350828 0.845570
v -0.441013 1.350407 0.794332
v 0.171358 0.147883 0.306038
v -0.345260 0.145912 0.066309
v -0.401770 0.393680 0.424543
v -0.241409 0.222397 0.364565
v -0.427056 0.390810 -0.404319
v -0.263230 0.219921 -0.350702
v -0.543371 0.627258 0.445151
v -0.569699 0.624270 -0.417872
v -0.707867 0.906792 0.380107
v -0.729983 0.904282 -0.344857
v -0.842318 1.256277 0.189389
v -0.852561 1.255114 -0.146379
v -0.875892 1.368983 0.083643
v -0.879603 1.368562 -0.038025
v -0.196714 0.147883 0.290390
v -0.214080 0.145912 -0.278875
v -0.544192 0.391096 -0.238634
v -0.426035 0.222397 -0.098391
v 0.223282 0.388227 -0.552695
v 0.236258 0.219921 -0.369410
v -0.613318 0.625628 -0.364580
v 0.185787 0.622640 -0.691585
v -0.610361 0.906735 -0.542275
v 0.060910 0.904225 -0.816969
v -0.472479 1.256277 -0.722586
v -0.161579 1.255114 -0.849811
v -0.379024 1.376770 -0.778496
v -0.266366 1.376348 -0.824597
v -0.340902 0.147883 -0.082514
v 0.186202 0.145912 -0.298212
v 0.027055 0.396509 -0.587362
v -0.028228 0.197675 -0.459939
v 0.589500 0.393639 0.021987
v 0.457134 0.195199 0.065899
v 0.120828 0.630868 -0.696069
v 0.706454 0.627880 -0.061606
v 0.288234 0.911688 -0.755281
v 0.780176 0.909178 -0.222314
v 0.511935 1.256277 -0.695191
v 0.739779 1.255114 -0.448346
v 0.602286 1.372311 -0.632085
v 0.684847 1.371890 -0.542638
v -0.041811 0.147883 -0.348245
v 0.344479 0.145912 0.070258
vt 1.000000 0.000000
vt 0.000000 1.000000
vt 0.000000 0.000000
vt 0.000000 0.000000
vt 0.000000 1.000000
vt 0.000000 0.000000
vt 0.000000 1.000000
vt 0.000000 0.000000
vt 0.000000 1.000000
vt 0.000000 0.000000
vt 1.000000 1.000000
vt 1.000000 1.000000
vt 1.000000 0.000000
vt 0.000000 1.000000
vt 0.000000 0.000000
vt 0.000000 1.000000
vt 0.000000 0.000000
vt 0.000000 0.000000
vt 0.000000 1.000000
vt 0.000000 0.000000
vt 0.000000 1.000000
vt 0.000000 0.000000
vt 1.000000 1.000000
vt 1.000000 1.000000
vt 0.000000 0.000000
vt 1.000000 1.000000
vt 0.000000 1.000000
vt 0.000000 0.000000
vt 0.000000 1.000000
vt 0.000000 0.000000
vt 0.000000 1.000000
vt 0.000000 0.000000
vt 0.000000 0.000000
vt 1.000000 0.000000
vt 1.000000 1.000000
vt 1.000000 0.000000
vt 0.000000 1.000000
vt 0.000000 0.000000
vt 0.000000 0.000000
vt 0.000000 1.000000
vt 0.000000 0.000000
vt 0.000000 1.000000
vt 0.000000 0.000000
vt 0.000000 1.000000
vt 0.000000 0.000000
vt 1.000000 1.000000
vt 1.000000 0.000000
vt 1.000000 1.000000
vt 1.000000 0.000000
vt 0.000000 1.000000
vt 0.000000 0.000000
vt 0.000000 0.000000
vt 0.000000 1.000000
vt 0.000000 0.000000
vt 0.000000 1.000000
vt 0.000000 0.000000
vt 0.000000 1.000000
vt 0.000000 0.000000
vt 1.000000 1.000000
vt 1.000000 1.000000
vt 1.000000 0.000000
vt 0.000000 1.000000
vt 0.000000 0.000000
vt 0.000000 1.000000
vt 0.000000 0.000000
vt 0.000000 0.000000
vt 0.000000 1.000000
vt 0.000000 0.000000
vt 0.000000 0.000000
vt 1.000000 1.000000
vt 1.000000 0.000000
vt 1.000000 1.000000
vt 1.000000 0.000000
vt 0.000000 1.000000
vt 0.000000 0.000000
vt 0.000000 1.000000
vt 0.000000 0.000000
vt 0.000000 0.000000
vt 0.000000 1.000000
vt 0.000000 0.000000
vt 0.000000 1.000000
vt 0.000000 0.000000
vt 1.000000 1.000000
vt 1.000000 1.000000
vt 0.000000 0.000000
vt 1.000000 1.000000
vt 0.000000 1.000000
vt 0.000000 0.000000
vt 0.000000 1.000000
vt 0.000000 0.000000
vt 0.000000 1.000000
vt 0.000000 0.000000
vt 0.000000 0.000000
vt 1.000000 0.000000
vt 1.000000 1.000000
vt 1.000000 0.000000
vt 0.000000 1.000000
vt 0.000000 0.000000
vt 0.000000 0.000000
vt 0.000000 1.000000
vt 0.000000 0.000000
vt 0.000000 0.000000
vt 0.000000 1.000000
vt 0.000000 0.000000
vt 1.000000 1.000000
vt 1.000000 1.000000
vt 1.000000 0.000000
vt 0.000000 1.000000
vt 0.000000 0.000000
vt 0.000000 0.000000
vt 0.000000 1.000000
vt 0.000000 0.000000
vt 0.000000 0.000000
vt 0.000000 1.000000
vt 0.000000 0.000000
vt 1.000000 1.000000
vt 1.000000 1.000000
vt 1.000000 0.000000
vt 0.000000 1.000000
vt 0.000000 0.000000
vt 0.000000 1.000000
vt 0.000000 0.000000
vt 0.000000 1.000000
vt 0.000000 0.000000
vt 0.000000 1.000000
vt 0.000000 0.000000
vt 0.000000 0.000000
vt 1.000000 1.000000
vt 1.000000 0.000000
vt 1.000000 1.000000
vt 0.000000 0.000000
vt 1.000000 1.000000
vt 0.000000 1.000000
vt 0.000000 0.000000
vt 0.000000 1.000000
vt 0.000000 0.000000
vt 0.000000 1.000000
vt 0.000000 0.000000
vt 0.000000 1.000000
vt 0.000000 0.000000
vt 1.000000 0.000000
vt 1.000000 1.000000
vt 0.000000 0.000000
vt 1.000000 1.000000
vt 0.000000 1.000000
vt 0.000000 0.000000
vt 0.000000 1.000000
vt 0.000000 0.000000
vt 0.000000 1.000000
vt 0.000000 0.000000
vt 0.000000 1.000000
vt 0.000000 0.000000
vt 1.000000 0.000000
vt 1.000000 1.000000
vt 1.000000 0.000000
vt 0.000000 1.000000
vt 0.000000 0.000000
vt 0.000000 0.000000
vt 0.000000 1.000000
vt 0.000000 0.000000
vt 0.000000 1.000000
vt 0.000000 0.000000
vt 0.000000 0.000000
vt 1.000000 1.000000
vt 1.000000 1.000000
vt 1.000000 0.000000
vt 0.000000 1.000000
vt 0.000000 0.000000
vt 0.000000 0.000000
vt 0.000000 1.000000
vt 0.000000 0.000000
vt 0.000000 1.000000
vt 0.000000 0.000000
vt 0.000000 0.000000
vt 1.000000 1.000000
vt 1.000000 1.000000
vt 0.000000 1.000000
vt 1.000000 0.000000
vt 0.000000 1.000000
vt 1.000000 0.000000
vt 0.000000 1.000000
vt 0.000000 1.000000
vt 1.000000 0.000000
vt 0.000000 1.000000
vt 0.000000 1.000000
vt 1.000000 0.000000
vt 0.000000 1.000000
vt 0.000000 1.000000
vt 0.000000 1.000000
vt 1.000000 0.000000
vt 0.000000 1.000000
vt 0.000000 1.000000
vt 1.000000 0.000000
vt 0.000000 1.000000
vt 0.000000 1.000000
vt 1.000000 0.000000
vt 0.000000 1.000000
vt 0.000000 1.000000
vt 1.000000 0.000000
vt 0.000000 1.000000
vt 0.000000 1.000000
vt 1.000000 0.000000
vt 1.000000 0.000000
vt 0.000000 1.000000
vt 0.000000 1.000000
vt 0.000000 1.000000
vt 1.000000 0.000000
vt 0.000000 1.000000
vt 0.000000 1.000000
vt 1.000000 0.000000
vn -0.0474 0.9973 -0.0558
vn -0.0537 0.9966 -0.0632
vn -0.0669 0.9947 -0.0787
vn -0.0889 0.9905 -0.1045
vn -0.1251 0.9812 -0.1472
vn -0.1544 0.9711 -0.1817
vn -0.0496 0.9971 -0.0583
vn 0.0439 0.9990 0.0000
vn 0.0560 0.9984 0.0000
vn 0.1033 0.9947 -0.0000
vn 0.1372 0.9905 -0.0000
vn 0.1932 0.9812 -0.0000
vn 0.2385 0.9711 -0.0000
vn 0.0765 0.9971 0.0000
vn 0.0368 0.9966 -0.0743
vn 0.0325 0.9973 -0.0656
vn 0.0458 0.9947 -0.0925
vn 0.0609 0.9905 -0.1229
vn 0.0858 0.9812 -0.1731
vn 0.1059 0.9711 -0.2137
vn 0.0340 0.9971 -0.0686
vn -0.0624 0.9973 0.0382
vn -0.0708 0.9966 0.0433
vn -0.0881 0.9947 0.0540
vn -0.1170 0.9905 0.0717
vn -0.1647 0.9812 0.1009
vn -0.2033 0.9711 0.1246
vn -0.0653 0.9971 0.0400
vn 0.0190 0.9973 0.0707
vn 0.0216 0.9966 0.0801
vn 0.0268 0.9947 0.0997
vn 0.0357 0.9905 0.1325
vn 0.0502 0.9812 0.1865
vn 0.0620 0.9711 0.2303
vn 0.0199 0.9971 0.0739
vn 0.3985 0.8729 -0.2816
vn 0.4411 0.8416 -0.3117
vn 0.5213 0.7698 -0.3684
vn 0.5549 0.7338 -0.3921
vn 0.6343 0.6299 -0.4482
vn 0.7045 0.5059 -0.4978
vn 0.5044 0.7865 -0.3564
vn -0.0780 0.8856 -0.4578
vn -0.0881 0.8512 -0.5174
vn -0.1072 0.7698 -0.6292
vn -0.1160 0.7232 -0.6809
vn -0.1317 0.6205 -0.7731
vn -0.1420 0.5340 -0.8335
vn -0.1037 0.7865 -0.6089
vn -0.5553 0.8316 -0.0057
vn -0.5115 0.8593 -0.0053
vn -0.6383 0.7698 -0.0066
vn -0.6769 0.7360 -0.0070
vn -0.7643 0.6448 -0.0079
vn -0.8407 0.5414 -0.0087
vn -0.6176 0.7865 -0.0064
vn -0.1703 0.8602 0.4807
vn -0.1852 0.8322 0.5226
vn -0.2132 0.7697 0.6017
vn -0.2273 0.7327 0.6415
vn -0.2542 0.6486 0.7175
vn -0.2759 0.5634 0.7787
vn -0.2063 0.7865 0.5822
vn 0.3552 0.9061 0.2299
vn 0.4181 0.8672 0.2706
vn 0.5357 0.7699 0.3468
vn 0.5826 0.7200 0.3771
vn 0.6782 0.5894 0.4390
vn 0.7431 0.4653 0.4810
vn 0.5185 0.7865 0.3356
vn -0.5662 0.7079 -0.4222
vn -0.6796 0.5291 -0.5082
vn -0.6880 0.5118 -0.5145
vn -0.7104 0.4613 -0.5316
vn -0.7507 0.3466 -0.5624
vn -0.7505 0.3473 -0.5622
vn -0.7777 0.2346 -0.5832
vn -0.5642 0.7104 -0.4207
vn -0.2805 0.9373 -0.2067
vn 0.3193 0.6458 -0.6935
vn 0.2961 0.7054 -0.6440
vn 0.3198 0.6445 -0.6945
vn 0.3600 0.5118 -0.7800
vn 0.3733 0.4553 -0.8083
vn 0.3989 0.3120 -0.8623
vn 0.4155 0.1529 -0.8967
vn 0.2965 0.7047 -0.6447
vn 0.3541 0.5343 -0.7676
vn 0.8004 0.5989 -0.0265
vn 0.7676 0.6404 -0.0256
vn 0.8006 0.5986 -0.0265
vn 0.8588 0.5115 -0.0280
vn 0.8956 0.4438 -0.0289
vn 0.9468 0.3204 -0.0300
vn 0.9469 0.3202 -0.0300
vn 0.9654 0.2591 -0.0303
vn 0.8449 0.5343 -0.0276
vn 0.2857 0.6630 0.6920
vn 0.3006 0.6149 0.7290
vn 0.3271 0.5115 0.7946
vn 0.3429 0.4320 0.8341
vn 0.3665 0.2602 0.8933
vn 0.3665 0.2603 0.8933
vn 0.3757 0.1341 0.9170
vn 0.3219 0.5343 0.7816
vn -0.5457 0.6674 0.5068
vn -0.6226 0.5285 0.5771
vn -0.6302 0.5115 0.5841
vn -0.6583 0.4414 0.6097
vn -0.7008 0.2977 0.6483
vn -0.7197 0.1986 0.6653
vn -0.3656 0.8659 0.3415
vn 0.3987 0.3137 -0.8618
vn 0.7678 0.6402 -0.0256
vn 0.8956 0.4440 -0.0289
s 1
f 2/1/1 3/2/2 1/3/2
f 3/2/2 5/4/3 1/3/2
f 6/5/3 7/6/4 5/4/3
f 7/6/4 10/7/5 9/8/5
f 9/8/5 12/9/6 11/10/6
f 2/1/1 14/11/7 4/12/1
f 16/13/8 17/14/9 15/15/9
f 15/15/9 20/16/10 19/17/10
f 20/16/10 21/18/11 19/17/10
f 22/19/11 23/20/12 21/18/11
f 24/21/12 25/22/13 23/20/12
f 16/13/8 28/23/14 18/24/8
f 29/25/15 32/26/16 31/27/15
f 31/27/15 33/28/17 29/25/15
f 34/29/17 35/30/18 33/28/17
f 35/30/18 38/31/19 37/32/19
f 38/31/19 39/33/20 37/32/19
f 30/34/16 42/35/21 32/26/16
f 44/36/22 45/37/23 43/38/23
f 45/37/23 47/39/24 43/38/23
f 48/40/24 49/41/25 47/39/24
f 50/42/25 51/43/26 49/41/25
f 52/44/26 53/45/27 51/43/26
f 46/46/22 55/47/28 56/48/28
f 58/49/29 59/50/30 57/51/30
f 59/50/30 61/52/31 57/51/30
f 62/53/31 63/54/32 61/52/31
f 64/55/32 65/56/33 63/54/32
f 65/56/33 68/57/34 67/58/34
f 58/49/29 70/59/35 60/60/29
f 72/61/36 73/62/37 71/63/37
f 71/63/37 76/64/38 75/65/38
f 76/64/38 77/66/39 75/65/38
f 77/66/39 80/67/40 79/68/40
f 80/67/40 81/69/41 79/68/40
f 74/70/36 83/71/42 84/72/42
f 86/73/43 87/74/44 85/75/44
f 85/75/44 90/76/45 89/77/45
f 90/76/45 91/78/46 89/77/45
f 92/79/46 93/80/47 91/78/46
f 93/80/47 96/81/48 95/82/48
f 86/73/43 98/83/49 88/84/43
f 99/85/50 102/86/51 101/87/50
f 101/87/50 103/88/52 99/85/50
f 104/89/52 105/90/53 103/88/52
f 105/90/53 108/91/54 107/92/54
f 108/91/54 109/93/55 107/92/54
f 100/94/51 112/95/56 102/86/51
f 114/96/57 115/97/58 113/98/58
f 115/97/58 117/99/59 113/98/58
f 117/99/59 120/100/60 119/101/60
f 120/100/60 121/102/61 119/101/60
f 122/103/61 123/104/62 121/102/61
f 114/96/57 126/105/63 116/106/57
f 128/107/64 129/108/65 127/109/65
f 129/108/65 131/110/66 127/109/65
f 131/110/66 134/111/67 133/112/67
f 134/111/67 135/113/68 133/112/67
f 136/114/68 137/115/69 135/113/68
f 128/107/64 140/116/70 130/117/64
f 142/118/71 143/119/72 141/120/72
f 141/120/72 146/121/73 145/122/73
f 145/122/73 148/123/74 147/124/74
f 147/124/74 150/125/75 149/126/76
f 150/125/75 151/127/77 149/126/76
f 144/128/78 153/129/79 154/130/79
f 155/131/80 158/132/81 157/133/82
f 157/133/82 159/134/83 155/131/80
f 160/135/83 161/136/84 159/134/83
f 162/137/84 163/138/85 161/136/84
f 163/138/85 166/139/86 165/140/86
f 156/141/87 168/142/88 158/132/81
f 169/143/89 172/144/90 171/145/91
f 171/145/91 173/146/92 169/143/89
f 174/147/92 175/148/93 173/146/92
f 175/148/93 178/149/94 177/150/95
f 177/150/95 180/151/96 179/152/96
f 172/144/90 181/153/97 182/154/97
f 184/155/98 185/156/99 183/157/99
f 185/156/99 187/158/100 183/157/99
f 188/159/100 189/160/101 187/158/100
f 189/160/101 192/161/102 191/162/103
f 192/161/102 193/163/104 191/162/103
f 184/155/98 196/164/105 186/165/98
f 198/166/106 199/167/107 197/168/107
f 199/167/107 201/169/108 197/168/107
f 202/170/108 203/171/109 201/169/108
f 203/171/109 206/172/110 205/173/110
f 206/172/110 207/174/111 205/173/110
f 198/166/106 210/175/112 200/176/106
f 2/1/1 4/12/1 3/2/2
f 3/2/2 6/5/3 5/4/3
f 6/5/3 8/177/4 7/6/4
f 7/6/4 8/177/4 10/7/5
f 9/8/5 10/7/5 12/9/6
f 2/1/1 13/178/7 14/11/7
f 16/13/8 18/24/8 17/14/9
f 15/15/9 17/14/9 20/16/10
f 20/16/10 22/19/11 21/18/11
f 22/19/11 24/21/12 23/20/12
f 24/21/12 26/179/13 25/22/13
f 16/13/8 27/180/14 28/23/14
f 29/25/15 30/34/16 32/26/16
f 31/27/15 34/29/17 33/28/17
f 34/29/17 36/181/18 35/30/18
f 35/30/18 36/181/18 38/31/19
f 38/31/19 40/182/20 39/33/20
f 30/34/16 41/183/21 42/35/21
f 44/36/22 46/46/22 45/37/23
f 45/37/23 48/40/24 47/39/24
f 48/40/24 50/42/25 49/41/25
f 50/42/25 52/44/26 51/43/26
f 52/44/26 54/184/27 53/45/27
f 46/46/22 44/36/22 55/47/28
f 58/49/29 60/60/29 59/50/30
f 59/50/30 62/53/31 61/52/31
f 62/53/31 64/55/32 63/54/32
f 64/55/32 66/185/33 65/56/33
f 65/56/33 66/185/33 68/57/34
f 58/49/29 69/186/35 70/59/35
f 72/61/36 74/70/36 73/62/37
f 71/63/37 73/62/37 76/64/38
f 76/64/38 78/187/39 77/66/39
f 77/66/39 78/187/39 80/67/40
f 80/67/40 82/188/41 81/69/41
f 74/70/36 72/61/36 83/71/42
f 86/73/43 88/84/43 87/74/44
f 85/75/44 87/74/44 90/76/45
f 90/76/45 92/79/46 91/78/46
f 92/79/46 94/189/47 93/80/47
f 93/80/47 94/189/47 96/81/48
f 86/73/43 97/190/49 98/83/49
f 99/85/50 100/94/51 102/86/51
f 101/87/50 104/89/52 103/88/52
f 104/89/52 106/191/53 105/90/53
f 105/90/53 106/191/53 108/91/54
f 108/91/54 110/192/55 109/93/55
f 100/94/51 111/193/56 112/95/56
f 114/96/57 116/106/57 115/97/58
f 115/97/58 118/194/59 117/99/59
f 117/99/59 118/194/59 120/100/60
f 120/100/60 122/103/61 121/102/61
f 122/103/61 124/195/62 123/104/62
f 114/96/57 125/196/63 126/105/63
f 128/107/64 130/117/64 129/108/65
f 129/108/65 132/197/66 131/110/66
f 131/110/66 132/197/66 134/111/67
f 134/111/67 136/114/68 135/113/68
f 136/114/68 138/198/69 137/115/69
f 128/107/64 139/199/70 140/116/70
f 142/118/71 144/128/78 143/119/72
f 141/120/72 143/119/72 146/121/73
f 145/122/73 146/121/73 148/123/74
f 147/124/74 148/123/74 150/125/75
f 150/125/75 152/200/77 151/127/77
f 144/128/78 142/118/71 153/129/79
f 155/131/80 156/141/87 158/132/81
f 157/133/82 160/135/83 159/134/83
f 160/135/83 162/137/84 161/136/84
f 162/137/84 164/201/113 163/138/85
f 163/138/85 164/201/113 166/139/86
f 156/141/87 167/202/88 168/142/88
f 169/143/89 170/203/114 172/144/90
f 171/145/91 174/147/92 173/146/92
f 174/147/92 176/204/115 175/148/93
f 175/148/93 176/204/115 178/149/94
f 177/150/95 178/149/94 180/151/96
f 172/144/90 170/203/114 181/153/97
f 184/155/98 186/165/98 185/156/99
f 185/156/99 188/159/100 187/158/100
f 188/159/100 190/205/101 189/160/101
f 189/160/101 190/205/101 192/161/102
f 192/161/102 194/206/104 193/163/104
f 184/155/98 195/207/105 196/164/105
f 198/166/106 200/176/106 199/167/107
f 199/167/107 202/170/108 201/169/108
f 202/170/108 204/208/109 203/171/109
f 203/171/109 204/208/109 206/172/110
f 206/172/110 208/209/111 207/174/111
f 198/166/106 209/210/112 210/175/112
