# Blender v3.4.1 OBJ File: 'ship.blend'
# www.blender.org
o Cylinder_Cylinder.048
v 0.000000 0.209777 0.637856
v 0.407739 0.122241 0.129304
v 0.434720 0.133647 0.637856
v 0.470454 -0.050145 0.129304
v 0.501584 -0.050145 0.637856
v 0.407739 -0.222530 0.129304
v 0.434720 -0.233937 0.637856
v 0.000000 -0.293935 0.129304
v 0.000000 -0.310067 0.637856
v -0.407739 -0.222530 0.129304
v -0.434720 -0.233937 0.637856
v -0.470454 -0.050145 0.129304
v -0.501584 -0.050145 0.637856
v -0.407739 0.122241 0.129304
v -0.434720 0.133647 0.637856
v 0.451033 0.140544 0.637856
v 0.520406 -0.050145 0.637856
v 0.451033 -0.240834 0.637856
v 0.000000 -0.319820 0.637856
v -0.451033 -0.240834 0.637856
v -0.520406 -0.050145 0.637856
v -0.451033 0.140544 0.637856
v 0.434720 0.133647 0.609272
v 0.000000 0.209777 0.609272
v 0.501584 -0.050145 0.609272
v 0.434720 -0.233937 0.609272
v 0.000000 -0.310067 0.609272
v -0.434720 -0.233937 0.609272
v -0.501584 -0.050145 0.609272
v -0.434720 0.133647 0.609272
v 0.419187 0.127080 0.609272
v 0.000000 0.200490 0.609272
v 0.483663 -0.050145 0.609272
v 0.419187 -0.227370 0.609272
v 0.000000 -0.300780 0.609272
v -0.419187 -0.227370 0.609272
v -0.483663 -0.050145 0.609272
v -0.419187 0.127080 0.609272
v 0.419187 0.127080 0.573308
v 0.000000 0.200490 0.573308
v 0.483663 -0.050145 0.573308
v 0.419187 -0.227370 0.573308
v 0.000000 -0.300780 0.573308
v -0.419187 -0.227370 0.573308
v -0.483663 -0.050145 0.573308
v -0.419187 0.127080 0.573308
v 0.401542 0.119620 0.573308
v -0.000000 0.189939 0.573308
v 0.463303 -0.050145 0.573308
v 0.401542 -0.219910 0.573308
v -0.000000 -0.290229 0.573308
v -0.401542 -0.219910 0.573308
v -0.463303 -0.050145 0.573308
v -0.401542 0.119620 0.573308
v 0.401542 0.119620 0.533955
v -0.000000 0.189939 0.533955
v 0.463303 -0.050145 0.533955
v 0.401542 -0.219910 0.533955
v -0.000000 -0.290229 0.533955
v -0.401542 -0.219910 0.533955
v -0.463303 -0.050145 0.533955
v -0.401542 0.119620 0.533955
v 0.000000 0.173390 0.117662
v 0.373862 0.107918 0.117662
v 0.431366 -0.050145 0.117662
v 0.373862 -0.208208 0.117662
v 0.000000 -0.273679 0.117662
v -0.373862 -0.208208 0.117662
v -0.431366 -0.050145 0.117662
v -0.373862 0.107918 0.117662
v 0.000000 0.191964 0.109089
v 0.404928 0.121052 0.109089
v 0.467210 -0.050145 0.109089
v 0.404928 -0.221342 0.109089
v 0.000000 -0.292254 0.109089
v -0.404928 -0.221342 0.109089
v -0.467210 -0.050145 0.109089
v -0.404928 0.121052 0.109089
v 0.000000 0.177697 -0.172893
v 0.381066 0.110963 -0.172893
v 0.439678 -0.050145 -0.172893
v 0.381066 -0.211253 -0.172893
v 0.000000 -0.277986 -0.172893
v -0.381066 -0.211253 -0.172893
v -0.439678 -0.050145 -0.172893
v -0.381066 0.110963 -0.172893
v 0.000000 0.164906 -0.183047
v 0.359672 0.101919 -0.183047
v 0.414994 -0.050145 -0.183047
v 0.359672 -0.202209 -0.183047
v 0.000000 -0.265195 -0.183047
v -0.359672 -0.202209 -0.183047
v -0.414994 -0.050145 -0.183047
v -0.359672 0.101919 -0.183047
v 0.000000 0.176661 -0.190935
v 0.379333 0.110231 -0.190935
v 0.437678 -0.050145 -0.190935
v 0.379333 -0.210521 -0.190935
v 0.000000 -0.276950 -0.190935
v -0.379333 -0.210521 -0.190935
v -0.437678 -0.050145 -0.190935
v -0.379333 0.110231 -0.190935
v 0.000000 0.146922 -0.353464
v 0.329594 0.089202 -0.353464
v 0.380289 -0.050145 -0.353464
v 0.329594 -0.189492 -0.353464
v 0.000000 -0.247211 -0.353464
v -0.329594 -0.189492 -0.353464
v -0.380289 -0.050145 -0.353464
v -0.329594 0.089202 -0.353464
v 0.000000 0.127607 -0.362756
v 0.297290 0.075545 -0.362756
v 0.343016 -0.050145 -0.362756
v 0.297290 -0.175834 -0.362756
v 0.000000 -0.227897 -0.362756
v -0.297290 -0.175834 -0.362756
v -0.343016 -0.050145 -0.362756
v -0.297290 0.075545 -0.362756
v 0.000000 0.142157 -0.372544
v 0.321625 0.085833 -0.372544
v 0.371094 -0.050145 -0.372544
v 0.321625 -0.186123 -0.372544
v 0.000000 -0.242447 -0.372544
v -0.321625 -0.186123 -0.372544
v -0.371094 -0.050145 -0.372544
v -0.321625 0.085833 -0.372544
v 0.000000 0.093067 -0.507294
v 0.239521 0.051121 -0.507294
v 0.276362 -0.050145 -0.507294
v 0.239521 -0.151411 -0.507294
v 0.000000 -0.193356 -0.507294
v -0.239521 -0.151411 -0.507294
v -0.276362 -0.050145 -0.507294
v -0.239521 0.051121 -0.507294
v -0.025356 0.189205 0.129304
v 0.025356 0.189205 0.129304
v 0.000000 0.182382 0.122831
v 0.025356 0.215090 0.637856
v -0.025356 0.215090 0.637856
v 0.000000 0.209790 0.637856
v 0.000000 0.079609 -0.507294
v 0.217013 0.041605 -0.507294
v 0.250392 -0.050145 -0.507294
v 0.217013 -0.141895 -0.507294
v 0.000000 -0.179899 -0.507294
v -0.217013 -0.141895 -0.507294
v -0.250392 -0.050145 -0.507294
v -0.217013 0.041605 -0.507294
v 0.000000 0.071227 -0.521381
v 0.202995 0.035678 -0.521381
v 0.234218 -0.050145 -0.521381
v 0.202995 -0.135968 -0.521381
v 0.000000 -0.171517 -0.521381
v -0.202995 -0.135968 -0.521381
v -0.234218 -0.050145 -0.521381
v -0.202995 0.035678 -0.521381
vt 0.125000 1.000000
vt 0.007773 0.500000
vt 0.125000 0.500000
vt 0.875000 0.500000
vt 0.750000 1.000000
vt 0.750000 0.500000
vt 0.625000 0.500000
vt 0.500000 1.000000
vt 0.500000 0.500000
vt 0.375000 1.000000
vt 0.375000 0.500000
vt 0.250000 1.000000
vt 0.250000 0.500000
vt 0.250000 0.481320
vt 0.413568 0.413568
vt 0.413568 0.413568
vt 0.000000 0.500000
vt 0.125000 0.500000
vt 0.875000 0.500000
vt 0.250000 0.481332
vt 0.240460 0.486048
vt 0.490000 0.250000
vt 0.419706 0.419706
vt 0.413568 0.086432
vt 0.481320 0.250000
vt 0.250000 0.018680
vt 0.419706 0.080294
vt 0.086432 0.086432
vt 0.250000 0.010000
vt 0.010000 0.250000
vt 0.080294 0.080294
vt 0.086432 0.413568
vt 0.018680 0.250000
vt 0.018680 0.250000
vt 0.086432 0.413568
vt 0.086432 0.413568
vt 0.250000 0.481320
vt 0.250000 0.018680
vt 0.481320 0.250000
vt 0.086432 0.086432
vt 0.413568 0.086432
vt 0.413568 0.086432
vt 0.250000 0.018680
vt 0.250000 0.018680
vt 0.086432 0.086432
vt 0.250000 0.481320
vt 0.413568 0.413568
vt 0.018680 0.250000
vt 0.481320 0.250000
vt 0.086432 0.086432
vt 0.086432 0.086432
vt 0.413568 0.413568
vt 0.481320 0.250000
vt 0.086432 0.413568
vt 0.413568 0.086432
vt 0.250000 0.481320
vt 0.018680 0.250000
vt 0.018680 0.250000
vt 0.086432 0.413568
vt 0.086432 0.413568
vt 0.413568 0.086432
vt 0.413568 0.413568
vt 0.250000 0.481320
vt 0.250000 0.018680
vt 0.481320 0.250000
vt 0.018680 0.250000
vt 0.250000 0.018680
vt 0.481320 0.250000
vt 0.086432 0.086432
vt 0.413568 0.086432
vt 0.413568 0.413568
vt 0.250000 0.481320
vt 0.125000 0.500000
vt 0.500000 0.500000
vt 0.259540 0.486048
vt 0.992973 1.000000
vt 0.992227 0.500000
vt 0.625000 0.500000
vt 0.750000 0.500000
vt 0.375000 0.500000
vt 0.250000 0.500000
vt 0.750000 0.500000
vt 0.625000 0.500000
vt 0.750000 0.500000
vt 0.250000 0.500000
vt 0.375000 0.500000
vt 0.625000 0.500000
vt 0.875000 0.500000
vt 0.500000 0.500000
vt 1.000000 0.500000
vt 1.000000 0.500000
vt 0.250000 0.500000
vt 0.125000 0.500000
vt 0.250000 0.500000
vt 1.000000 0.500000
vt 0.000000 0.500000
vt 0.125000 0.500000
vt 0.375000 0.500000
vt 0.875000 0.500000
vt 0.500000 0.500000
vt 0.500000 0.500000
vt 0.625000 0.500000
vt 0.625000 0.500000
vt 0.750000 0.500000
vt 0.875000 0.500000
vt 1.000000 0.500000
vt 0.375000 0.500000
vt 0.125000 0.500000
vt 0.000000 0.500000
vt 0.125000 0.500000
vt 0.750000 0.500000
vt 0.875000 0.500000
vt 0.250000 0.500000
vt 0.375000 0.500000
vt 0.500000 0.500000
vt 1.000000 0.500000
vt 0.000000 0.500000
vt 0.375000 0.500000
vt 0.500000 0.500000
vt 0.500000 0.500000
vt 0.625000 0.500000
vt 0.875000 0.500000
vt 0.250000 0.500000
vt 0.750000 0.500000
vt 1.000000 0.500000
vt 0.125000 0.500000
vt 0.250000 0.500000
vt 0.250000 0.500000
vt 0.625000 0.500000
vt 0.750000 0.500000
vt 1.000000 0.500000
vt 0.375000 0.500000
vt 0.875000 0.500000
vt 0.375000 0.500000
vt 0.375000 0.500000
vt 0.500000 0.500000
vt 0.750000 0.500000
vt 1.000000 0.500000
vt 0.000000 0.500000
vt 0.125000 0.500000
vt 0.625000 0.500000
vt 0.875000 0.500000
vt 0.250000 0.500000
vt 0.125000 0.500000
vt 0.250000 0.500000
vt 0.625000 0.500000
vt 0.875000 0.500000
vt 0.125000 0.500000
vt 0.500000 0.500000
vt 0.750000 0.500000
vt 1.000000 0.500000
vt 0.000000 0.500000
vt 0.000000 0.500000
vt 0.000000 0.500000
vt 0.250000 0.486048
vt 0.007027 1.000000
vt 0.000000 0.500000
vt 0.125000 0.500000
vt 0.500000 0.500000
vt 0.625000 0.500000
vt 0.750000 0.500000
vt 0.875000 0.500000
vt 1.000000 0.500000
vt 0.375000 0.500000
vt 0.250000 0.500000
vt 0.750000 0.500000
vt 0.500000 0.500000
vt 0.375000 0.500000
vt 0.625000 0.500000
vt 0.875000 0.500000
vt 1.000000 0.500000
vt 0.875000 1.000000
vt 0.625000 1.000000
vt 0.080294 0.419706
vt 0.000000 0.500000
vt 0.000000 0.500000
vt 0.000000 0.500000
vt 0.000000 0.998775
vt 1.000000 0.500000
vt 0.000000 0.500000
vn -0.1723 0.9838 -0.0501
vn 0.9358 0.3404 -0.0919
vn 0.9358 -0.3404 -0.0919
vn 0.1723 -0.9838 -0.0501
vn -0.1723 -0.9838 -0.0501
vn -0.9358 -0.3404 -0.0919
vn -0.1725 -0.9850 0.0000
vn -0.9358 0.3404 -0.0919
vn -0.0869 0.4964 -0.8637
vn 0.2839 0.1033 -0.9533
vn 0.0000 0.0000 1.0000
vn 0.1725 -0.9850 0.0000
vn 0.9397 0.3419 0.0000
vn -0.1725 0.9850 0.0000
vn -0.9397 -0.3419 0.0000
vn 0.9397 -0.3419 0.0000
vn 0.1725 0.9850 0.0000
vn -0.9397 0.3419 0.0000
vn -0.0732 0.4179 0.9055
vn -0.0869 -0.4964 -0.8637
vn 0.1723 0.9838 -0.0501
vn 0.2839 -0.1033 -0.9533
vn -0.2839 -0.1033 -0.9533
vn 0.0869 -0.4964 -0.8637
vn -0.2839 0.1033 -0.9533
vn 0.9358 -0.3405 -0.0914
vn -0.2318 -0.0843 0.9691
vn 0.0732 -0.4179 0.9055
vn 0.2318 0.0843 0.9691
vn -0.2318 0.0843 0.9691
vn -0.0732 -0.4179 0.9055
vn 0.2318 -0.0843 0.9691
vn 0.0732 0.4179 0.9055
vn -0.3768 0.1371 -0.9161
vn 0.1723 0.9838 -0.0498
vn -0.1723 0.9838 -0.0498
vn -0.9358 -0.3405 -0.0914
vn 0.1723 -0.9838 -0.0498
vn 0.9358 0.3405 -0.0914
vn -0.9358 0.3405 -0.0914
vn -0.1723 -0.9838 -0.0498
vn 0.0971 -0.5546 0.8264
vn -0.1082 -0.6181 -0.7786
vn 0.3768 -0.1371 -0.9161
vn 0.1082 0.6181 -0.7786
vn -0.1082 0.6181 -0.7786
vn -0.3768 -0.1371 -0.9161
vn 0.1082 -0.6181 -0.7786
vn 0.3768 0.1371 -0.9161
vn -0.1698 0.9694 -0.1774
vn 0.3261 0.1186 0.9378
vn -0.3261 0.1186 0.9378
vn -0.0971 -0.5546 0.8264
vn 0.3261 -0.1186 0.9378
vn 0.0971 0.5546 0.8264
vn -0.0971 0.5546 0.8264
vn -0.3261 -0.1186 0.9378
vn -0.0757 -0.4323 -0.8986
vn -0.8919 -0.3245 -0.3149
vn 0.1698 -0.9694 -0.1774
vn 0.8919 0.3245 -0.3149
vn -0.8919 0.3245 -0.3149
vn -0.1698 -0.9694 -0.1774
vn 0.8919 -0.3245 -0.3149
vn 0.1698 0.9694 -0.1774
vn -0.3268 0.1189 0.9376
vn 0.2410 -0.0877 -0.9666
vn 0.0757 0.4323 -0.8986
vn -0.0757 0.4323 -0.8986
vn -0.2410 -0.0877 -0.9666
vn 0.0757 -0.4323 -0.8986
vn 0.2410 0.0877 -0.9666
vn -0.2410 0.0877 -0.9666
vn -0.7841 -0.2853 -0.5512
vn -0.0973 -0.5555 0.8258
vn 0.3268 -0.1189 0.9376
vn 0.0973 0.5555 0.8258
vn -0.0973 0.5555 0.8258
vn -0.3268 -0.1189 0.9376
vn 0.0973 -0.5555 0.8258
vn 0.3268 0.1189 0.9376
vn 0.0000 0.0000 -1.0000
vn 0.1624 -0.9271 -0.3378
vn 0.7841 0.2853 -0.5512
vn -0.7841 0.2853 -0.5512
vn -0.1624 -0.9271 -0.3378
vn 0.7841 -0.2853 -0.5512
vn 0.1624 0.9271 -0.3378
vn -0.1624 0.9271 -0.3378
vn 0.0000 0.6883 -0.7254
vn 0.0000 0.9987 -0.0508
vn 0.0869 0.4964 -0.8637
vn -0.1488 0.8498 -0.5056
vn -0.6388 -0.2324 -0.7334
vn 0.1488 -0.8498 -0.5056
vn 0.6388 0.2324 -0.7334
vn -0.6388 0.2324 -0.7334
vn -0.1488 -0.8498 -0.5056
vn 0.6388 -0.2324 -0.7334
vn 0.1488 0.8498 -0.5056
s off
f 22/1/1 135/2/1 14/3/1
f 2/4/2 17/5/2 4/6/2
f 17/5/3 6/7/3 4/6/3
f 6/7/4 19/8/4 8/9/4
f 8/9/5 20/10/5 10/11/5
f 10/11/6 21/12/6 12/13/6
f 1/14/7 23/15/7 3/16/7
f 21/12/8 14/3/8 12/13/8
f 135/2/9 63/17/9 70/18/9
f 4/6/10 64/19/10 2/4/10
f 1/14/11 140/20/11 139/21/11
f 3/16/11 17/22/11 16/23/11
f 7/24/11 17/22/11 5/25/11
f 9/26/11 18/27/11 7/24/11
f 11/28/11 19/29/11 9/26/11
f 11/28/11 21/30/11 20/31/11
f 15/32/11 21/30/11 13/33/11
f 29/34/11 38/35/11 30/36/11
f 15/32/12 24/37/12 1/14/12
f 11/28/13 29/34/13 13/33/13
f 7/24/14 27/38/14 9/26/14
f 3/16/15 25/39/15 5/25/15
f 13/33/16 30/36/16 15/32/16
f 9/26/17 28/40/17 11/28/17
f 5/25/18 26/41/18 7/24/18
f 34/42/14 43/43/14 35/44/14
f 27/38/11 36/45/11 28/40/11
f 25/39/11 34/42/11 26/41/11
f 23/15/11 32/46/11 31/47/11
f 24/37/11 38/35/11 32/46/11
f 29/34/11 36/45/11 37/48/11
f 27/38/11 34/42/11 35/44/11
f 25/39/11 31/47/11 33/49/11
f 43/43/11 52/50/11 44/51/11
f 33/49/15 39/52/15 41/53/15
f 37/48/16 46/54/16 38/35/16
f 35/44/17 44/51/17 36/45/17
f 33/49/18 42/55/18 34/42/18
f 32/46/7 39/52/7 31/47/7
f 38/35/12 40/56/12 32/46/12
f 37/48/13 44/51/13 45/57/13
f 53/58/16 62/59/16 54/60/16
f 41/53/11 50/61/11 42/55/11
f 40/56/11 47/62/11 39/52/11
f 40/56/11 54/60/11 48/63/11
f 45/57/11 52/50/11 53/58/11
f 42/55/11 51/64/11 43/43/11
f 41/53/11 47/62/11 49/65/11
f 45/57/11 54/60/11 46/54/11
f 61/66/11 59/67/11 57/68/11
f 51/64/17 60/69/17 52/50/17
f 49/65/18 58/70/18 50/61/18
f 48/63/7 55/71/7 47/62/7
f 54/60/12 56/72/12 48/63/12
f 52/50/13 61/66/13 53/58/13
f 50/61/14 59/67/14 51/64/14
f 47/62/15 57/68/15 49/65/15
f 63/17/19 78/73/19 70/18/19
f 10/11/20 67/74/20 8/9/20
f 3/16/11 16/23/11 138/75/11
f 138/76/21 2/4/21 136/77/21
f 4/6/22 66/78/22 65/79/22
f 12/13/23 68/80/23 10/11/23
f 6/7/24 67/74/24 66/78/24
f 12/13/25 70/18/25 69/81/25
f 73/82/26 82/83/26 81/84/26
f 68/80/27 77/85/27 76/86/27
f 67/74/28 74/87/28 66/78/28
f 64/19/29 73/82/29 72/88/29
f 70/18/30 77/85/30 69/81/30
f 68/80/31 75/89/31 67/74/31
f 66/78/32 73/82/32 65/79/32
f 64/19/33 71/90/33 63/91/33
f 85/92/34 94/93/34 93/94/34
f 72/88/35 79/95/35 71/90/35
f 78/73/36 79/96/36 86/97/36
f 77/85/37 84/98/37 76/86/37
f 75/89/38 82/83/38 74/87/38
f 73/82/39 80/99/39 72/88/39
f 77/85/40 86/97/40 85/92/40
f 76/86/41 83/100/41 75/89/41
f 91/101/42 98/102/42 90/103/42
f 84/98/43 91/101/43 83/100/43
f 81/84/44 90/103/44 89/104/44
f 79/95/45 88/105/45 87/106/45
f 79/96/46 94/93/46 86/97/46
f 85/92/47 92/107/47 84/98/47
f 83/100/48 90/103/48 82/83/48
f 81/84/49 88/105/49 80/99/49
f 102/108/50 103/109/50 110/110/50
f 88/105/51 97/111/51 96/112/51
f 94/93/52 101/113/52 93/94/52
f 91/101/53 100/114/53 99/115/53
f 90/103/54 97/111/54 89/104/54
f 88/105/55 95/116/55 87/106/55
f 87/117/56 102/108/56 94/93/56
f 92/107/57 101/113/57 100/114/57
f 108/118/58 115/119/58 107/120/58
f 101/113/59 108/118/59 100/114/59
f 99/115/60 106/121/60 98/102/60
f 97/111/61 104/122/61 96/112/61
f 101/113/62 110/110/62 109/123/62
f 99/115/63 108/118/63 107/120/63
f 97/111/64 106/121/64 105/124/64
f 96/112/65 103/125/65 95/116/65
f 118/126/66 125/127/66 117/128/66
f 105/124/67 114/129/67 113/130/67
f 104/122/68 111/131/68 103/125/68
f 103/109/69 118/126/69 110/110/69
f 109/123/70 116/132/70 108/118/70
f 107/120/71 114/129/71 106/121/71
f 105/124/72 112/133/72 104/122/72
f 109/123/73 118/126/73 117/128/73
f 125/127/74 132/134/74 124/135/74
f 116/132/75 123/136/75 115/119/75
f 114/129/76 121/137/76 113/130/76
f 112/133/77 119/138/77 111/131/77
f 118/126/78 119/139/78 126/140/78
f 116/132/79 125/127/79 124/135/79
f 115/119/80 122/141/80 114/129/80
f 112/133/81 121/137/81 120/142/81
f 133/143/82 148/144/82 147/145/82
f 123/136/83 130/146/83 122/141/83
f 121/137/84 128/147/84 120/142/84
f 125/127/85 134/148/85 133/143/85
f 124/135/86 131/149/86 123/136/86
f 121/137/87 130/146/87 129/150/87
f 120/142/88 127/151/88 119/138/88
f 126/140/89 127/152/89 134/148/89
f 135/2/90 136/153/90 137/154/90
f 138/155/11 139/21/11 140/20/11
f 139/156/91 136/153/91 135/2/91
f 136/77/92 64/19/92 63/91/92
f 141/157/93 156/158/93 148/144/93
f 132/134/82 145/159/82 131/149/82
f 129/150/82 144/160/82 143/161/82
f 127/151/82 142/162/82 141/163/82
f 127/152/82 148/144/82 134/148/82
f 133/143/82 146/164/82 132/134/82
f 131/149/82 144/160/82 130/146/82
f 129/150/82 142/162/82 128/147/82
f 155/165/82 151/166/82 153/167/82
f 147/145/94 154/168/94 146/164/94
f 145/159/95 152/169/95 144/160/95
f 143/161/96 150/170/96 142/162/96
f 147/145/97 156/158/97 155/165/97
f 146/164/98 153/167/98 145/159/98
f 143/161/99 152/169/99 151/166/99
f 142/162/100 149/171/100 141/163/100
f 22/1/1 139/156/1 135/2/1
f 2/4/2 16/172/2 17/5/2
f 17/5/3 18/173/3 6/7/3
f 6/7/4 18/173/4 19/8/4
f 8/9/5 19/8/5 20/10/5
f 10/11/6 20/10/6 21/12/6
f 1/14/7 24/37/7 23/15/7
f 21/12/8 22/1/8 14/3/8
f 70/18/9 14/3/9 135/2/9
f 135/2/9 137/154/9 63/17/9
f 4/6/10 65/79/10 64/19/10
f 22/174/11 15/32/11 139/21/11
f 15/32/11 1/14/11 139/21/11
f 3/16/11 5/25/11 17/22/11
f 7/24/11 18/27/11 17/22/11
f 9/26/11 19/29/11 18/27/11
f 11/28/11 20/31/11 19/29/11
f 11/28/11 13/33/11 21/30/11
f 15/32/11 22/174/11 21/30/11
f 29/34/11 37/48/11 38/35/11
f 15/32/12 30/36/12 24/37/12
f 11/28/13 28/40/13 29/34/13
f 7/24/14 26/41/14 27/38/14
f 3/16/15 23/15/15 25/39/15
f 13/33/16 29/34/16 30/36/16
f 9/26/17 27/38/17 28/40/17
f 5/25/18 25/39/18 26/41/18
f 34/42/14 42/55/14 43/43/14
f 27/38/11 35/44/11 36/45/11
f 25/39/11 33/49/11 34/42/11
f 23/15/11 24/37/11 32/46/11
f 24/37/11 30/36/11 38/35/11
f 29/34/11 28/40/11 36/45/11
f 27/38/11 26/41/11 34/42/11
f 25/39/11 23/15/11 31/47/11
f 43/43/11 51/64/11 52/50/11
f 33/49/15 31/47/15 39/52/15
f 37/48/16 45/57/16 46/54/16
f 35/44/17 43/43/17 44/51/17
f 33/49/18 41/53/18 42/55/18
f 32/46/7 40/56/7 39/52/7
f 38/35/12 46/54/12 40/56/12
f 37/48/13 36/45/13 44/51/13
f 53/58/16 61/66/16 62/59/16
f 41/53/11 49/65/11 50/61/11
f 40/56/11 48/63/11 47/62/11
f 40/56/11 46/54/11 54/60/11
f 45/57/11 44/51/11 52/50/11
f 42/55/11 50/61/11 51/64/11
f 41/53/11 39/52/11 47/62/11
f 45/57/11 53/58/11 54/60/11
f 57/68/11 55/71/11 56/72/11
f 56/72/11 62/59/11 61/66/11
f 61/66/11 60/69/11 59/67/11
f 59/67/11 58/70/11 57/68/11
f 57/68/11 56/72/11 61/66/11
f 51/64/17 59/67/17 60/69/17
f 49/65/18 57/68/18 58/70/18
f 48/63/7 56/72/7 55/71/7
f 54/60/12 62/59/12 56/72/12
f 52/50/13 60/69/13 61/66/13
f 50/61/14 58/70/14 59/67/14
f 47/62/15 55/71/15 57/68/15
f 63/17/19 71/175/19 78/73/19
f 10/11/20 68/80/20 67/74/20
f 140/20/11 1/14/11 138/75/11
f 1/14/11 3/16/11 138/75/11
f 138/76/21 16/172/21 2/4/21
f 4/6/22 6/7/22 66/78/22
f 12/13/23 69/81/23 68/80/23
f 6/7/24 8/9/24 67/74/24
f 12/13/25 14/3/25 70/18/25
f 73/82/26 74/87/26 82/83/26
f 68/80/27 69/81/27 77/85/27
f 67/74/28 75/89/28 74/87/28
f 64/19/29 65/79/29 73/82/29
f 70/18/30 78/73/30 77/85/30
f 68/80/31 76/86/31 75/89/31
f 66/78/32 74/87/32 73/82/32
f 64/19/33 72/88/33 71/90/33
f 85/92/34 86/97/34 94/93/34
f 72/88/35 80/99/35 79/95/35
f 78/73/36 71/175/36 79/96/36
f 77/85/37 85/92/37 84/98/37
f 75/89/38 83/100/38 82/83/38
f 73/82/39 81/84/39 80/99/39
f 77/85/40 78/73/40 86/97/40
f 76/86/41 84/98/41 83/100/41
f 91/101/42 99/115/42 98/102/42
f 84/98/43 92/107/43 91/101/43
f 81/84/44 82/83/44 90/103/44
f 79/95/45 80/99/45 88/105/45
f 79/96/46 87/117/46 94/93/46
f 85/92/47 93/94/47 92/107/47
f 83/100/48 91/101/48 90/103/48
f 81/84/49 89/104/49 88/105/49
f 102/108/50 95/176/50 103/109/50
f 88/105/51 89/104/51 97/111/51
f 94/93/52 102/108/52 101/113/52
f 91/101/53 92/107/53 100/114/53
f 90/103/54 98/102/54 97/111/54
f 88/105/55 96/112/55 95/116/55
f 87/117/56 95/176/56 102/108/56
f 92/107/57 93/94/57 101/113/57
f 108/118/58 116/132/58 115/119/58
f 101/113/59 109/123/59 108/118/59
f 99/115/60 107/120/60 106/121/60
f 97/111/61 105/124/61 104/122/61
f 101/113/62 102/108/62 110/110/62
f 99/115/63 100/114/63 108/118/63
f 97/111/64 98/102/64 106/121/64
f 96/112/65 104/122/65 103/125/65
f 118/126/66 126/140/66 125/127/66
f 105/124/67 106/121/67 114/129/67
f 104/122/68 112/133/68 111/131/68
f 103/109/69 111/177/69 118/126/69
f 109/123/70 117/128/70 116/132/70
f 107/120/71 115/119/71 114/129/71
f 105/124/72 113/130/72 112/133/72
f 109/123/73 110/110/73 118/126/73
f 125/127/74 133/143/74 132/134/74
f 116/132/75 124/135/75 123/136/75
f 114/129/76 122/141/76 121/137/76
f 112/133/77 120/142/77 119/138/77
f 118/126/78 111/177/78 119/139/78
f 116/132/79 117/128/79 125/127/79
f 115/119/80 123/136/80 122/141/80
f 112/133/81 113/130/81 121/137/81
f 133/143/82 134/148/82 148/144/82
f 123/136/83 131/149/83 130/146/83
f 121/137/84 129/150/84 128/147/84
f 125/127/85 126/140/85 134/148/85
f 124/135/86 132/134/86 131/149/86
f 121/137/87 122/141/87 130/146/87
f 120/142/88 128/147/88 127/151/88
f 126/140/89 119/139/89 127/152/89
f 139/156/91 138/178/91 136/153/91
f 63/91/92 137/179/92 136/77/92
f 136/77/92 2/4/92 64/19/92
f 141/157/93 149/180/93 156/158/93
f 132/134/82 146/164/82 145/159/82
f 129/150/82 130/146/82 144/160/82
f 127/151/82 128/147/82 142/162/82
f 127/152/82 141/157/82 148/144/82
f 133/143/82 147/145/82 146/164/82
f 131/149/82 145/159/82 144/160/82
f 129/150/82 143/161/82 142/162/82
f 156/158/82 149/171/82 155/165/82
f 149/171/82 150/170/82 151/166/82
f 151/166/82 152/169/82 153/167/82
f 153/167/82 154/168/82 155/165/82
f 149/171/82 151/166/82 155/165/82
f 147/145/94 155/165/94 154/168/94
f 145/159/95 153/167/95 152/169/95
f 143/161/96 151/166/96 150/170/96
f 147/145/97 148/144/97 156/158/97
f 146/164/98 154/168/98 153/167/98
f 143/161/99 144/160/99 152/169/99
f 142/162/100 150/170/100 149/171/100
