# Blender v3.4.1 OBJ File: 'ship.blend'
# www.blender.org
o Cube.003_Cube.015
v 0.619081 0.219481 -0.795785
v 0.621844 0.239269 -0.796173
v 0.868210 0.244217 0.981261
v 0.878370 0.316980 0.979834
v 0.746014 0.197051 -0.831322
v 0.748777 0.204061 -0.831710
v 1.248561 0.207064 0.857762
v 1.258721 0.239188 0.856336
v 1.153473 0.223024 0.888637
v 1.058385 0.231816 0.919511
v 0.963298 0.039409 0.950386
v 0.650814 0.025319 -0.804669
v 0.682548 0.209613 -0.813553
v 0.714281 0.204679 -0.822437
v 1.068545 0.305268 0.918085
v 0.685311 0.248848 -0.813941
v -0.619081 0.219481 -0.795785
v -0.621844 0.239269 -0.796173
v -0.868210 0.244217 0.981260
v -0.878370 0.316980 0.979834
v -0.746014 0.197051 -0.831322
v -0.748777 0.204061 -0.831710
v -1.248561 0.207064 0.857762
v -1.258721 0.239188 0.856335
v -1.153474 0.223024 0.888637
v -1.058386 0.231816 0.919511
v -0.963298 0.039409 0.950386
v -0.650814 0.025319 -0.804669
v -0.682548 0.209613 -0.813553
v -0.714281 0.204679 -0.822438
v -1.068546 0.305268 0.918084
v -0.685311 0.248848 -0.813941
v 0.127251 0.254515 -1.032032
v 0.127251 0.274346 -1.032032
v 0.213662 0.287277 -0.099223
v 0.213662 0.307108 -0.099223
v 0.038862 0.254515 -1.032032
v 0.038862 0.274346 -1.032032
v 0.038862 0.287277 -0.099223
v 0.038862 0.307108 -0.099223
v 0.213998 0.282646 -0.160212
v 0.213998 0.307313 -0.160212
v 0.409773 0.332246 1.085167
v 0.409773 0.375909 1.085167
v -0.213998 0.282646 -0.160212
v -0.213998 0.307313 -0.160212
v -0.409773 0.332246 1.085167
v -0.409773 0.375909 1.085167
v 0.214385 0.349658 1.018536
v -0.214385 0.349658 1.018536
v -0.214385 0.438475 1.018536
v 0.214385 0.438475 1.018536
v -0.127251 0.254515 -1.032032
v -0.127251 0.274346 -1.032032
v -0.213662 0.287277 -0.099223
v -0.213662 0.307108 -0.099223
v -0.038862 0.254515 -1.032032
v -0.038862 0.274346 -1.032032
v -0.038862 0.287277 -0.099223
v -0.038862 0.307108 -0.099223
vt 0.625000 0.000000
vt 0.375000 0.000000
vt 0.375000 0.250000
vt 0.625000 0.500000
vt 0.375000 0.437500
vt 0.375000 0.500000
vt 0.375000 0.750000
vt 0.625000 0.750000
vt 0.375000 0.875000
vt 0.625000 1.000000
vt 0.312500 0.500000
vt 0.312500 0.750000
vt 0.875000 0.500000
vt 0.750000 0.500000
vt 0.750000 0.750000
vt 0.187500 0.500000
vt 0.125000 0.500000
vt 0.125000 0.750000
vt 0.187500 0.750000
vt 0.250000 0.750000
vt 0.250000 0.500000
vt 0.375000 0.000000
vt 0.625000 0.000000
vt 0.625000 0.250000
vt 0.375000 0.437500
vt 0.625000 0.500000
vt 0.375000 0.500000
vt 0.375000 0.750000
vt 0.375000 0.875000
vt 0.625000 0.875000
vt 0.375000 1.000000
vt 0.312500 0.500000
vt 0.750000 0.750000
vt 0.750000 0.500000
vt 0.875000 0.500000
vt 0.125000 0.500000
vt 0.187500 0.500000
vt 0.187500 0.750000
vt 0.250000 0.500000
vt 0.312500 0.750000
vt 0.625000 0.750000
vt 0.375000 0.250000
vt 0.375000 0.000000
vt 0.625000 0.000000
vt 0.625000 0.250000
vt 0.625000 0.500000
vt 0.375000 0.500000
vt 0.625000 0.750000
vt 0.375000 1.000000
vt 0.375000 0.750000
vt 0.125000 0.500000
vt 0.875000 0.500000
vt 0.625000 0.000000
vt 0.375000 0.250000
vt 0.375000 0.000000
vt 0.815398 0.500000
vt 0.875000 0.750000
vt 0.625000 0.750000
vt 0.625000 0.500000
vt 0.375000 0.750000
vt 0.375000 0.500000
vt 0.375000 1.000000
vt 0.625000 0.440398
vt 0.375000 0.440398
vt 0.315398 0.500000
vt 0.125000 0.750000
vt 0.625000 0.309602
vt 0.625000 0.250000
vt 0.375000 0.309602
vt 0.684602 0.500000
vt 0.875000 0.500000
vt 0.625000 1.000000
vt 0.125000 0.500000
vt 0.184602 0.500000
vt 0.625000 0.000000
vt 0.375000 0.000000
vt 0.375000 0.250000
vt 0.625000 0.250000
vt 0.375000 0.500000
vt 0.375000 0.750000
vt 0.625000 0.750000
vt 0.375000 1.000000
vt 0.625000 1.000000
vt 0.125000 0.500000
vt 0.125000 0.750000
vt 0.625000 0.500000
vt 0.875000 0.750000
vt 0.625000 0.250000
vt 0.375000 0.312500
vt 0.375000 0.375000
vt 0.625000 0.375000
vt 0.375000 0.812500
vt 0.625000 0.875000
vt 0.375000 1.000000
vt 0.375000 0.937500
vt 0.875000 0.750000
vt 0.375000 0.250000
vt 0.625000 0.375000
vt 0.375000 0.375000
vt 0.375000 0.312500
vt 0.375000 0.812500
vt 0.375000 0.937500
vt 0.625000 1.000000
vt 0.875000 0.750000
vt 0.125000 0.750000
vt 0.250000 0.750000
vt 0.625000 1.000000
vt 0.125000 0.750000
vt 0.875000 0.750000
vt 0.875000 0.500000
vn -0.9809 0.1396 0.1356
vn 0.3004 -0.0527 0.9524
vn 0.8924 -0.3664 -0.2633
vn -0.2620 0.0290 -0.9646
vn -0.1498 -0.9875 0.0490
vn 0.0475 0.9979 -0.0430
vn -0.8915 -0.4337 0.1310
vn 0.9695 -0.1752 -0.1712
vn -0.0822 -0.9961 0.0306
vn 0.5335 0.8268 -0.1784
vn 0.9809 0.1396 0.1356
vn -0.3004 -0.0527 0.9524
vn -0.9144 -0.3012 -0.2703
vn 0.2682 0.0094 -0.9633
vn 0.1494 -0.9875 0.0503
vn -0.0475 0.9979 -0.0430
vn 0.8856 -0.4355 0.1612
vn -0.8761 -0.4574 -0.1523
vn 0.0818 -0.9961 0.0317
vn -0.2946 0.9494 -0.1087
vn 0.9957 0.0000 -0.0922
vn -0.0000 -0.0000 1.0000
vn -1.0000 -0.0000 -0.0000
vn 0.0000 0.0000 -1.0000
vn 0.0000 -0.9994 0.0351
vn 0.0000 0.9994 -0.0351
vn 0.9879 0.0000 -0.1553
vn 0.0000 0.9939 -0.1106
vn -0.9879 0.0000 -0.1553
vn 0.3228 0.0000 0.9465
vn 0.0000 -0.9984 0.0568
vn -0.3228 0.0000 0.9465
vn -0.3354 0.9363 -0.1043
vn 0.3354 0.9363 -0.1043
vn -0.1077 -0.9926 0.0565
vn 0.1077 -0.9926 0.0565
vn -0.9957 0.0000 -0.0922
vn 1.0000 -0.0000 0.0000
vn 0.3088 0.0000 0.9511
vn 0.3073 -0.0243 0.9513
vn 0.3074 -0.0240 0.9513
vn 0.2980 -0.0339 0.9540
vn 0.3067 -0.0239 0.9515
vn 0.9145 -0.3012 -0.2700
vn -0.2585 0.0485 -0.9648
vn -0.2696 -0.0000 -0.9630
vn -0.2669 0.0184 -0.9635
vn -0.2575 0.0783 -0.9631
vn -0.2147 -0.9742 0.0696
vn -0.1549 0.9877 -0.0208
vn -0.9705 -0.1666 0.1741
vn 0.8695 -0.4590 -0.1827
vn -0.1407 -0.9890 0.0467
vn 0.2984 0.9495 -0.0970
vn -0.3074 -0.0243 0.9513
vn -0.3088 0.0000 0.9511
vn -0.3073 -0.0240 0.9513
vn -0.3014 -0.0232 0.9532
vn -0.3023 -0.0687 0.9507
vn -0.8928 -0.3665 -0.2621
vn 0.2585 0.0484 -0.9648
vn 0.2696 0.0000 -0.9630
vn 0.2575 0.0783 -0.9631
vn 0.2722 0.0191 -0.9620
vn 0.2637 0.0090 -0.9646
vn 0.2157 -0.9742 0.0658
vn 0.1549 0.9877 -0.0208
vn 0.9763 -0.1659 0.1392
vn -0.9625 -0.1757 -0.2065
vn 0.1416 -0.9890 0.0434
vn -0.5425 0.8271 -0.1470
s off
f 2/1/1 1/2/1 3/3/1
f 8/4/2 9/5/2 7/6/2
f 7/6/3 5/7/3 6/8/3
f 6/8/4 13/9/4 2/10/4
f 7/6/5 9/11/5 14/12/5
f 4/13/6 15/14/6 16/15/6
f 11/16/7 3/17/7 1/18/7
f 11/16/8 12/19/8 13/20/8
f 9/11/9 10/21/9 13/20/9
f 8/4/10 6/8/10 16/15/10
f 17/22/11 18/23/11 20/24/11
f 25/25/12 24/26/12 23/27/12
f 21/28/13 23/27/13 24/26/13
f 29/29/14 32/30/14 17/31/14
f 25/32/15 23/27/15 21/28/15
f 32/33/16 31/34/16 20/35/16
f 19/36/17 27/37/17 28/38/17
f 28/38/18 27/37/18 26/39/18
f 26/39/19 25/32/19 30/40/19
f 22/41/20 24/26/20 31/34/20
f 35/42/21 33/43/21 34/44/21
f 35/42/22 36/45/22 40/46/22
f 39/47/23 40/46/23 38/48/23
f 33/49/24 37/50/24 38/48/24
f 35/51/25 39/47/25 37/50/25
f 38/48/26 40/46/26 36/52/26
f 42/53/27 43/54/27 41/55/27
f 52/56/28 42/57/28 46/58/28
f 48/59/29 45/60/29 47/61/29
f 46/58/24 41/62/24 45/60/24
f 51/63/30 47/61/30 50/64/30
f 50/65/31 45/60/31 41/66/31
f 50/64/22 52/67/22 51/63/22
f 44/68/32 49/69/32 43/54/32
f 42/53/27 44/68/27 43/54/27
f 46/58/33 48/59/33 51/70/33
f 52/56/34 44/71/34 42/57/34
f 46/58/28 51/70/28 52/56/28
f 48/59/29 46/58/29 45/60/29
f 46/58/24 42/72/24 41/62/24
f 51/63/30 48/59/30 47/61/30
f 41/66/35 43/73/35 49/74/35
f 50/65/36 47/61/36 45/60/36
f 41/66/31 49/74/31 50/65/31
f 50/64/22 49/69/22 52/67/22
f 44/68/32 52/67/32 49/69/32
f 54/75/37 53/76/37 55/77/37
f 56/78/22 55/77/22 59/79/22
f 59/79/38 57/80/38 58/81/38
f 57/80/24 53/82/24 54/83/24
f 59/79/25 55/84/25 53/85/25
f 60/86/26 58/81/26 54/87/26
f 2/1/1 3/3/1 4/88/1
f 11/89/39 10/90/39 3/3/39
f 3/3/40 10/90/40 4/88/40
f 4/88/41 10/90/41 15/91/41
f 15/91/42 9/5/42 8/4/42
f 10/90/43 9/5/43 15/91/43
f 7/6/44 6/8/44 8/4/44
f 14/92/45 6/8/45 5/7/45
f 6/8/46 2/10/46 16/93/46
f 2/10/47 13/9/47 1/94/47
f 1/94/46 13/9/46 12/95/46
f 13/9/48 6/8/48 14/92/48
f 7/6/49 14/12/49 5/7/49
f 4/13/50 16/15/50 2/96/50
f 11/16/51 1/18/51 12/19/51
f 11/16/52 13/20/52 10/21/52
f 9/11/53 13/20/53 14/12/53
f 8/4/54 16/15/54 15/14/54
f 17/22/11 20/24/11 19/97/11
f 20/24/55 31/98/55 19/97/55
f 19/97/56 26/99/56 27/100/56
f 19/97/57 31/98/57 26/99/57
f 24/26/58 26/99/58 31/98/58
f 24/26/59 25/25/59 26/99/59
f 21/28/60 24/26/60 22/41/60
f 22/41/61 30/101/61 21/28/61
f 29/29/62 17/31/62 28/102/62
f 22/41/63 29/29/63 30/101/63
f 18/103/64 17/31/64 32/30/64
f 32/30/65 29/29/65 22/41/65
f 25/32/66 21/28/66 30/40/66
f 32/33/67 20/35/67 18/104/67
f 19/36/68 28/38/68 17/105/68
f 28/38/69 26/39/69 29/106/69
f 26/39/70 30/40/70 29/106/70
f 22/41/71 31/34/71 32/33/71
f 35/42/21 34/44/21 36/45/21
f 35/42/22 40/46/22 39/47/22
f 39/47/23 38/48/23 37/50/23
f 33/49/24 38/48/24 34/107/24
f 35/51/25 37/50/25 33/108/25
f 38/48/26 36/52/26 34/109/26
f 54/75/37 55/77/37 56/78/37
f 56/78/22 59/79/22 60/86/22
f 59/79/38 58/81/38 60/86/38
f 57/80/24 54/83/24 58/81/24
f 59/79/25 53/85/25 57/80/25
f 60/86/26 54/87/26 56/110/26
