# Blender v3.4.1 OBJ File: 'ship.blend'
# www.blender.org
o Drone_Turbine_Cube.026
v 0.041399 0.055778 -0.003324
v 0.054223 0.076146 0.010193
v 0.041399 0.055778 -0.035860
v 0.054223 0.076146 -0.022344
v 0.047741 0.050456 -0.003324
v 0.065573 0.066622 0.010193
v 0.047741 0.050456 -0.035860
v 0.065573 0.066622 -0.022344
v -0.004140 0.069339 -0.003324
v -0.007408 0.093185 0.010193
v -0.004140 0.069339 -0.035860
v -0.007408 0.093185 -0.022344
v 0.004139 0.069339 -0.003324
v 0.007408 0.093185 0.010193
v 0.004139 0.069339 -0.035860
v 0.007408 0.093185 -0.022344
v 0.019826 0.066573 -0.003324
v 0.024910 0.090099 0.010193
v 0.019826 0.066573 -0.035860
v 0.024910 0.090099 -0.022344
v 0.027605 0.063742 -0.003324
v 0.038832 0.085032 0.010193
v 0.027605 0.063742 -0.035860
v 0.038832 0.085032 -0.022344
v 0.069005 -0.007964 -0.003324
v 0.093056 -0.008886 0.010193
v 0.069005 -0.007964 -0.035860
v 0.093056 -0.008886 -0.022344
v 0.067567 -0.016117 -0.003324
v 0.090483 -0.023477 0.010193
v 0.067567 -0.016117 -0.035860
v 0.090483 -0.023477 -0.022344
v 0.057980 0.038255 -0.003324
v 0.076997 0.053008 0.010193
v 0.057980 0.038255 -0.035860
v 0.076997 0.053008 -0.022344
v 0.062119 0.031085 -0.003324
v 0.084405 0.040177 0.010193
v 0.062119 0.031085 -0.035860
v 0.084405 0.040177 -0.022344
v 0.067567 0.016117 -0.003324
v 0.090483 0.023477 0.010193
v 0.067567 0.016117 -0.035860
v 0.090483 0.023477 -0.022344
v 0.069005 0.007964 -0.003324
v 0.093056 0.008886 0.010193
v 0.069005 0.007964 -0.035860
v 0.093056 0.008886 -0.022344
v 0.027605 -0.063742 -0.003324
v 0.038832 -0.085032 0.010193
v 0.027605 -0.063742 -0.035860
v 0.038832 -0.085032 -0.022344
v 0.019826 -0.066573 -0.003324
v 0.024910 -0.090099 0.010193
v 0.019826 -0.066573 -0.035860
v 0.024910 -0.090099 -0.022344
v 0.062119 -0.031085 -0.003324
v 0.084405 -0.040177 0.010193
v 0.062119 -0.031085 -0.035860
v 0.084405 -0.040177 -0.022344
v 0.057980 -0.038255 -0.003324
v 0.076997 -0.053008 0.010193
v 0.057980 -0.038255 -0.035860
v 0.076997 -0.053008 -0.022344
v 0.047741 -0.050456 -0.003324
v 0.065573 -0.066622 0.010193
v 0.047741 -0.050456 -0.035860
v 0.065573 -0.066622 -0.022344
v 0.041399 -0.055778 -0.003324
v 0.054223 -0.076146 0.010193
v 0.041399 -0.055778 -0.035860
v 0.054223 -0.076146 -0.022344
v -0.041399 -0.055778 -0.003324
v -0.054223 -0.076146 0.010193
v -0.041399 -0.055778 -0.035860
v -0.054223 -0.076146 -0.022344
v -0.047742 -0.050456 -0.003324
v -0.065573 -0.066622 0.010193
v -0.047742 -0.050456 -0.035860
v -0.065573 -0.066622 -0.022344
v 0.004139 -0.069339 -0.003324
v 0.007408 -0.093185 0.010193
v 0.004139 -0.069339 -0.035860
v 0.007408 -0.093185 -0.022344
v -0.004140 -0.069339 -0.003324
v -0.007408 -0.093185 0.010193
v -0.004140 -0.069339 -0.035860
v -0.007408 -0.093185 -0.022344
v -0.019826 -0.066573 -0.003324
v -0.024910 -0.090099 0.010193
v -0.019826 -0.066573 -0.035860
v -0.024910 -0.090099 -0.022344
v -0.027605 -0.063742 -0.003324
v -0.038833 -0.085032 0.010193
v -0.027605 -0.063742 -0.035860
v -0.038833 -0.085032 -0.022344
v -0.069005 0.007964 -0.003324
v -0.093056 0.008886 0.010193
v -0.069005 0.007964 -0.035860
v -0.093056 0.008886 -0.022344
v -0.067567 0.016117 -0.003324
v -0.090483 0.023477 0.010193
v -0.067567 0.016117 -0.035860
v -0.090483 0.023477 -0.022344
v -0.057980 -0.038255 -0.003324
v -0.076997 -0.053008 0.010193
v -0.057980 -0.038255 -0.035860
v -0.076997 -0.053008 -0.022344
v -0.062119 -0.031085 -0.003324
v -0.084405 -0.040177 0.010193
v -0.062119 -0.031085 -0.035860
v -0.084405 -0.040177 -0.022344
v -0.067567 -0.016117 -0.003324
v -0.090483 -0.023477 0.010193
v -0.067567 -0.016117 -0.035860
v -0.090483 -0.023477 -0.022344
v -0.069005 -0.007964 -0.003324
v -0.093056 -0.008886 0.010193
v -0.069005 -0.007964 -0.035860
v -0.093056 -0.008886 -0.022344
v -0.027605 0.063742 -0.003324
v -0.038833 0.085032 0.010193
v -0.027605 0.063742 -0.035860
v -0.038833 0.085032 -0.022344
v -0.019826 0.066573 -0.003324
v -0.024910 0.090099 0.010193
v -0.019826 0.066573 -0.035860
v -0.024910 0.090099 -0.022344
v -0.062119 0.031085 -0.003324
v -0.084405 0.040177 0.010193
v -0.062119 0.031085 -0.035860
v -0.084405 0.040177 -0.022344
v -0.057980 0.038255 -0.003324
v -0.076997 0.053008 0.010193
v -0.057980 0.038255 -0.035860
v -0.076997 0.053008 -0.022344
v -0.047741 0.050456 -0.003324
v -0.065573 0.066622 0.010193
v -0.047741 0.050456 -0.035860
v -0.065573 0.066622 -0.022344
v -0.041399 0.055778 -0.003324
v -0.054223 0.076146 0.010193
v -0.041399 0.055778 -0.035860
v -0.054223 0.076146 -0.022344
vt 0.375000 0.000000
vt 0.625000 0.250000
vt 0.375000 0.250000
vt 0.625000 0.500000
vt 0.375000 0.500000
vt 0.375000 0.750000
vt 0.625000 0.750000
vt 0.375000 1.000000
vt 0.125000 0.750000
vt 0.125000 0.500000
vt 0.875000 0.500000
vt 0.375000 0.000000
vt 0.625000 0.250000
vt 0.375000 0.250000
vt 0.625000 0.500000
vt 0.375000 0.500000
vt 0.375000 0.750000
vt 0.625000 0.750000
vt 0.375000 1.000000
vt 0.125000 0.750000
vt 0.125000 0.500000
vt 0.875000 0.500000
vt 0.375000 0.000000
vt 0.625000 0.250000
vt 0.375000 0.250000
vt 0.625000 0.500000
vt 0.375000 0.500000
vt 0.375000 0.750000
vt 0.625000 0.750000
vt 0.375000 1.000000
vt 0.125000 0.500000
vt 0.125000 0.750000
vt 0.875000 0.500000
vt 0.375000 0.000000
vt 0.625000 0.250000
vt 0.375000 0.250000
vt 0.375000 0.500000
vt 0.625000 0.500000
vt 0.375000 0.750000
vt 0.625000 1.000000
vt 0.375000 1.000000
vt 0.125000 0.750000
vt 0.125000 0.500000
vt 0.875000 0.500000
vt 0.625000 0.750000
vt 0.375000 0.000000
vt 0.625000 0.250000
vt 0.375000 0.250000
vt 0.375000 0.500000
vt 0.625000 0.500000
vt 0.375000 0.750000
vt 0.625000 1.000000
vt 0.375000 1.000000
vt 0.125000 0.750000
vt 0.125000 0.500000
vt 0.875000 0.500000
vt 0.625000 0.750000
vt 0.375000 0.000000
vt 0.625000 0.250000
vt 0.375000 0.250000
vt 0.625000 0.500000
vt 0.375000 0.500000
vt 0.375000 0.750000
vt 0.625000 0.750000
vt 0.375000 1.000000
vt 0.125000 0.750000
vt 0.125000 0.500000
vt 0.875000 0.500000
vt 0.375000 0.000000
vt 0.625000 0.250000
vt 0.375000 0.250000
vt 0.375000 0.500000
vt 0.625000 0.500000
vt 0.375000 0.750000
vt 0.625000 1.000000
vt 0.375000 1.000000
vt 0.125000 0.750000
vt 0.125000 0.500000
vt 0.875000 0.500000
vt 0.625000 0.750000
vt 0.375000 0.000000
vt 0.625000 0.250000
vt 0.375000 0.250000
vt 0.375000 0.500000
vt 0.625000 0.500000
vt 0.375000 0.750000
vt 0.625000 1.000000
vt 0.375000 1.000000
vt 0.125000 0.750000
vt 0.125000 0.500000
vt 0.875000 0.500000
vt 0.625000 0.750000
vt 0.375000 0.000000
vt 0.625000 0.250000
vt 0.375000 0.250000
vt 0.625000 0.500000
vt 0.375000 0.500000
vt 0.375000 0.750000
vt 0.625000 0.750000
vt 0.375000 1.000000
vt 0.125000 0.750000
vt 0.125000 0.500000
vt 0.875000 0.500000
vt 0.375000 0.000000
vt 0.625000 0.250000
vt 0.375000 0.250000
vt 0.625000 0.500000
vt 0.375000 0.500000
vt 0.375000 0.750000
vt 0.625000 0.750000
vt 0.375000 1.000000
vt 0.125000 0.750000
vt 0.125000 0.500000
vt 0.875000 0.500000
vt 0.375000 0.000000
vt 0.625000 0.250000
vt 0.375000 0.250000
vt 0.375000 0.500000
vt 0.625000 0.500000
vt 0.375000 0.750000
vt 0.625000 0.750000
vt 0.375000 1.000000
vt 0.125000 0.750000
vt 0.125000 0.500000
vt 0.875000 0.500000
vt 0.375000 0.000000
vt 0.625000 0.250000
vt 0.375000 0.250000
vt 0.625000 0.500000
vt 0.375000 0.500000
vt 0.375000 0.750000
vt 0.625000 0.750000
vt 0.375000 1.000000
vt 0.125000 0.750000
vt 0.125000 0.500000
vt 0.875000 0.500000
vt 0.375000 0.000000
vt 0.625000 0.250000
vt 0.375000 0.250000
vt 0.375000 0.500000
vt 0.625000 0.500000
vt 0.375000 0.750000
vt 0.625000 1.000000
vt 0.375000 1.000000
vt 0.125000 0.750000
vt 0.125000 0.500000
vt 0.875000 0.500000
vt 0.625000 0.750000
vt 0.375000 0.000000
vt 0.625000 0.250000
vt 0.375000 0.250000
vt 0.375000 0.500000
vt 0.625000 0.500000
vt 0.375000 0.750000
vt 0.625000 1.000000
vt 0.375000 1.000000
vt 0.125000 0.750000
vt 0.125000 0.500000
vt 0.875000 0.500000
vt 0.625000 0.750000
vt 0.375000 0.000000
vt 0.625000 0.250000
vt 0.375000 0.250000
vt 0.625000 0.500000
vt 0.375000 0.500000
vt 0.375000 0.750000
vt 0.625000 0.750000
vt 0.375000 1.000000
vt 0.125000 0.750000
vt 0.125000 0.500000
vt 0.875000 0.500000
vt 0.375000 0.000000
vt 0.625000 0.250000
vt 0.375000 0.250000
vt 0.375000 0.500000
vt 0.625000 0.500000
vt 0.375000 0.750000
vt 0.625000 1.000000
vt 0.375000 1.000000
vt 0.125000 0.750000
vt 0.125000 0.500000
vt 0.875000 0.500000
vt 0.625000 0.750000
vt 0.375000 0.000000
vt 0.625000 0.250000
vt 0.375000 0.250000
vt 0.625000 0.500000
vt 0.375000 0.500000
vt 0.375000 0.750000
vt 0.625000 0.750000
vt 0.375000 1.000000
vt 0.125000 0.750000
vt 0.125000 0.500000
vt 0.875000 0.500000
vt 0.375000 0.000000
vt 0.625000 0.250000
vt 0.375000 0.250000
vt 0.625000 0.500000
vt 0.375000 0.500000
vt 0.375000 0.750000
vt 0.625000 0.750000
vt 0.375000 1.000000
vt 0.125000 0.750000
vt 0.125000 0.500000
vt 0.875000 0.500000
vt 0.625000 0.000000
vt 0.625000 1.000000
vt 0.875000 0.750000
vt 0.625000 0.000000
vt 0.625000 1.000000
vt 0.875000 0.750000
vt 0.625000 0.000000
vt 0.625000 1.000000
vt 0.875000 0.750000
vt 0.625000 0.000000
vt 0.875000 0.750000
vt 0.625000 0.000000
vt 0.875000 0.750000
vt 0.625000 0.000000
vt 0.625000 1.000000
vt 0.875000 0.750000
vt 0.625000 0.000000
vt 0.875000 0.750000
vt 0.625000 0.000000
vt 0.875000 0.750000
vt 0.625000 0.000000
vt 0.625000 1.000000
vt 0.875000 0.750000
vt 0.625000 0.000000
vt 0.625000 1.000000
vt 0.875000 0.750000
vt 0.625000 0.000000
vt 0.625000 1.000000
vt 0.875000 0.750000
vt 0.625000 0.000000
vt 0.625000 1.000000
vt 0.875000 0.750000
vt 0.625000 0.000000
vt 0.875000 0.750000
vt 0.625000 0.000000
vt 0.875000 0.750000
vt 0.625000 0.000000
vt 0.625000 1.000000
vt 0.875000 0.750000
vt 0.625000 0.000000
vt 0.875000 0.750000
vt 0.625000 0.000000
vt 0.625000 1.000000
vt 0.875000 0.750000
vt 0.625000 0.000000
vt 0.625000 1.000000
vt 0.875000 0.750000
vn -0.8462 0.5328 0.0000
vn 0.3170 0.3777 -0.8700
vn 0.6717 -0.7409 0.0000
vn -0.3170 -0.3777 0.8700
vn -0.6428 -0.7660 0.0000
vn 0.6428 0.7660 0.0000
vn -0.9907 -0.1358 0.0000
vn 0.0000 0.4931 -0.8700
vn 0.9907 -0.1358 0.0000
vn -0.0000 -0.4931 0.8700
vn -0.0000 -1.0000 0.0000
vn 0.0000 1.0000 -0.0000
vn -0.9774 0.2112 0.0000
vn 0.1687 0.4634 -0.8700
vn 0.8845 -0.4665 -0.0000
vn -0.1687 -0.4634 0.8700
vn -0.3420 -0.9397 0.0000
vn 0.3420 0.9397 0.0000
vn 0.0383 0.9993 0.0000
vn 0.4856 -0.0856 -0.8700
vn -0.3058 -0.9521 0.0000
vn -0.4856 0.0856 0.8700
vn -0.9848 0.1736 0.0000
vn 0.9848 -0.1736 0.0000
vn -0.6130 0.7901 0.0000
vn 0.4270 0.2466 -0.8700
vn 0.3778 -0.9259 0.0000
vn -0.4270 -0.2466 0.8700
vn -0.8660 -0.5000 0.0000
vn 0.8660 0.5000 -0.0000
vn -0.3058 0.9521 0.0000
vn 0.4856 0.0856 -0.8700
vn 0.0383 -0.9993 0.0000
vn -0.4856 -0.0856 0.8700
vn -0.9848 -0.1736 -0.0000
vn 0.9848 0.1736 0.0000
vn 0.8845 0.4665 0.0000
vn 0.1687 -0.4634 -0.8700
vn -0.9774 -0.2112 0.0000
vn -0.1687 0.4634 0.8700
vn -0.3420 0.9397 0.0000
vn 0.3420 -0.9397 0.0000
vn 0.3778 0.9259 0.0000
vn 0.4270 -0.2466 -0.8700
vn -0.6130 -0.7901 0.0000
vn -0.4270 0.2466 0.8700
vn -0.8660 0.5000 0.0000
vn 0.8660 -0.5000 0.0000
vn 0.6717 0.7409 0.0000
vn 0.3170 -0.3777 -0.8700
vn -0.8462 -0.5328 0.0000
vn -0.3170 0.3777 0.8700
vn -0.6428 0.7660 0.0000
vn 0.6428 -0.7660 0.0000
vn 0.8462 -0.5328 0.0000
vn -0.3170 -0.3777 -0.8700
vn -0.6717 0.7409 0.0000
vn 0.3170 0.3777 0.8700
vn 0.9907 0.1358 0.0000
vn 0.0000 -0.4931 -0.8700
vn -0.9907 0.1358 0.0000
vn 0.0000 0.4931 0.8700
vn 0.9774 -0.2112 0.0000
vn -0.1687 -0.4634 -0.8700
vn -0.8845 0.4665 0.0000
vn 0.1687 0.4634 0.8700
vn -0.0383 -0.9993 0.0000
vn -0.4856 0.0856 -0.8700
vn 0.3058 0.9521 0.0000
vn 0.4856 -0.0856 0.8700
vn 0.6130 -0.7901 0.0000
vn -0.4270 -0.2466 -0.8700
vn -0.3778 0.9259 -0.0000
vn 0.4270 0.2466 0.8700
vn 0.3058 -0.9521 0.0000
vn -0.4856 -0.0856 -0.8700
vn -0.0383 0.9993 0.0000
vn 0.4856 0.0856 0.8700
vn -0.8845 -0.4665 0.0000
vn -0.1687 0.4634 -0.8700
vn 0.9774 0.2112 0.0000
vn 0.1687 -0.4634 0.8700
vn -0.3778 -0.9259 0.0000
vn -0.4270 0.2466 -0.8700
vn 0.6130 0.7901 0.0000
vn 0.4270 -0.2466 0.8700
vn -0.6717 -0.7409 0.0000
vn -0.3170 0.3777 -0.8700
vn 0.8462 0.5328 0.0000
vn 0.3170 -0.3777 0.8700
s off
f 1/1/1 4/2/1 3/3/1
f 3/3/2 8/4/2 7/5/2
f 8/4/3 5/6/3 7/5/3
f 6/7/4 1/8/4 5/6/4
f 7/5/5 1/9/5 3/10/5
f 4/11/6 6/7/6 8/4/6
f 9/12/7 12/13/7 11/14/7
f 11/14/8 16/15/8 15/16/8
f 16/15/9 13/17/9 15/16/9
f 14/18/10 9/19/10 13/17/10
f 15/16/11 9/20/11 11/21/11
f 12/22/12 14/18/12 16/15/12
f 17/23/13 20/24/13 19/25/13
f 19/25/14 24/26/14 23/27/14
f 24/26/15 21/28/15 23/27/15
f 22/29/16 17/30/16 21/28/16
f 19/31/17 21/28/17 17/32/17
f 20/33/18 22/29/18 24/26/18
f 25/34/19 28/35/19 27/36/19
f 28/35/20 31/37/20 27/36/20
f 32/38/21 29/39/21 31/37/21
f 29/39/22 26/40/22 25/41/22
f 31/37/23 25/42/23 27/43/23
f 28/44/24 30/45/24 32/38/24
f 33/46/25 36/47/25 35/48/25
f 36/47/26 39/49/26 35/48/26
f 40/50/27 37/51/27 39/49/27
f 37/51/28 34/52/28 33/53/28
f 39/49/29 33/54/29 35/55/29
f 36/56/30 38/57/30 40/50/30
f 41/58/31 44/59/31 43/60/31
f 43/60/32 48/61/32 47/62/32
f 48/61/33 45/63/33 47/62/33
f 46/64/34 41/65/34 45/63/34
f 47/62/35 41/66/35 43/67/35
f 44/68/36 46/64/36 48/61/36
f 49/69/37 52/70/37 51/71/37
f 52/70/38 55/72/38 51/71/38
f 56/73/39 53/74/39 55/72/39
f 53/74/40 50/75/40 49/76/40
f 55/72/41 49/77/41 51/78/41
f 52/79/42 54/80/42 56/73/42
f 57/81/43 60/82/43 59/83/43
f 60/82/44 63/84/44 59/83/44
f 64/85/45 61/86/45 63/84/45
f 61/86/46 58/87/46 57/88/46
f 63/84/47 57/89/47 59/90/47
f 60/91/48 62/92/48 64/85/48
f 65/93/49 68/94/49 67/95/49
f 67/95/50 72/96/50 71/97/50
f 72/96/51 69/98/51 71/97/51
f 70/99/52 65/100/52 69/98/52
f 71/97/53 65/101/53 67/102/53
f 68/103/54 70/99/54 72/96/54
f 73/104/55 76/105/55 75/106/55
f 75/106/56 80/107/56 79/108/56
f 80/107/57 77/109/57 79/108/57
f 78/110/58 73/111/58 77/109/58
f 79/108/6 73/112/6 75/113/6
f 76/114/5 78/110/5 80/107/5
f 81/115/59 84/116/59 83/117/59
f 84/116/60 87/118/60 83/117/60
f 88/119/61 85/120/61 87/118/61
f 86/121/62 81/122/62 85/120/62
f 87/118/12 81/123/12 83/124/12
f 84/125/11 86/121/11 88/119/11
f 89/126/63 92/127/63 91/128/63
f 91/128/64 96/129/64 95/130/64
f 96/129/65 93/131/65 95/130/65
f 94/132/66 89/133/66 93/131/66
f 95/130/18 89/134/18 91/135/18
f 92/136/17 94/132/17 96/129/17
f 97/137/67 100/138/67 99/139/67
f 100/138/68 103/140/68 99/139/68
f 104/141/69 101/142/69 103/140/69
f 101/142/70 98/143/70 97/144/70
f 103/140/24 97/145/24 99/146/24
f 100/147/23 102/148/23 104/141/23
f 105/149/71 108/150/71 107/151/71
f 108/150/72 111/152/72 107/151/72
f 112/153/73 109/154/73 111/152/73
f 109/154/74 106/155/74 105/156/74
f 111/152/30 105/157/30 107/158/30
f 108/159/29 110/160/29 112/153/29
f 113/161/75 116/162/75 115/163/75
f 115/163/76 120/164/76 119/165/76
f 120/164/77 117/166/77 119/165/77
f 118/167/78 113/168/78 117/166/78
f 119/165/36 113/169/36 115/170/36
f 116/171/35 118/167/35 120/164/35
f 121/172/79 124/173/79 123/174/79
f 124/173/80 127/175/80 123/174/80
f 128/176/81 125/177/81 127/175/81
f 125/177/82 122/178/82 121/179/82
f 127/175/42 121/180/42 123/181/42
f 124/182/41 126/183/41 128/176/41
f 129/184/83 132/185/83 131/186/83
f 131/186/84 136/187/84 135/188/84
f 136/187/85 133/189/85 135/188/85
f 134/190/86 129/191/86 133/189/86
f 135/188/48 129/192/48 131/193/48
f 132/194/47 134/190/47 136/187/47
f 137/195/87 140/196/87 139/197/87
f 139/197/88 144/198/88 143/199/88
f 144/198/89 141/200/89 143/199/89
f 142/201/90 137/202/90 141/200/90
f 143/199/54 137/203/54 139/204/54
f 140/205/53 142/201/53 144/198/53
f 1/1/1 2/206/1 4/2/1
f 3/3/2 4/2/2 8/4/2
f 8/4/3 6/7/3 5/6/3
f 6/7/4 2/207/4 1/8/4
f 7/5/5 5/6/5 1/9/5
f 4/11/6 2/208/6 6/7/6
f 9/12/7 10/209/7 12/13/7
f 11/14/8 12/13/8 16/15/8
f 16/15/9 14/18/9 13/17/9
f 14/18/10 10/210/10 9/19/10
f 15/16/11 13/17/11 9/20/11
f 12/22/12 10/211/12 14/18/12
f 17/23/13 18/212/13 20/24/13
f 19/25/14 20/24/14 24/26/14
f 24/26/15 22/29/15 21/28/15
f 22/29/16 18/213/16 17/30/16
f 19/31/17 23/27/17 21/28/17
f 20/33/18 18/214/18 22/29/18
f 25/34/19 26/215/19 28/35/19
f 28/35/20 32/38/20 31/37/20
f 32/38/21 30/45/21 29/39/21
f 29/39/22 30/45/22 26/40/22
f 31/37/23 29/39/23 25/42/23
f 28/44/24 26/216/24 30/45/24
f 33/46/25 34/217/25 36/47/25
f 36/47/26 40/50/26 39/49/26
f 40/50/27 38/57/27 37/51/27
f 37/51/28 38/57/28 34/52/28
f 39/49/29 37/51/29 33/54/29
f 36/56/30 34/218/30 38/57/30
f 41/58/31 42/219/31 44/59/31
f 43/60/32 44/59/32 48/61/32
f 48/61/33 46/64/33 45/63/33
f 46/64/34 42/220/34 41/65/34
f 47/62/35 45/63/35 41/66/35
f 44/68/36 42/221/36 46/64/36
f 49/69/37 50/222/37 52/70/37
f 52/70/38 56/73/38 55/72/38
f 56/73/39 54/80/39 53/74/39
f 53/74/40 54/80/40 50/75/40
f 55/72/41 53/74/41 49/77/41
f 52/79/42 50/223/42 54/80/42
f 57/81/43 58/224/43 60/82/43
f 60/82/44 64/85/44 63/84/44
f 64/85/45 62/92/45 61/86/45
f 61/86/46 62/92/46 58/87/46
f 63/84/47 61/86/47 57/89/47
f 60/91/48 58/225/48 62/92/48
f 65/93/49 66/226/49 68/94/49
f 67/95/50 68/94/50 72/96/50
f 72/96/51 70/99/51 69/98/51
f 70/99/52 66/227/52 65/100/52
f 71/97/53 69/98/53 65/101/53
f 68/103/54 66/228/54 70/99/54
f 73/104/55 74/229/55 76/105/55
f 75/106/56 76/105/56 80/107/56
f 80/107/57 78/110/57 77/109/57
f 78/110/58 74/230/58 73/111/58
f 79/108/6 77/109/6 73/112/6
f 76/114/5 74/231/5 78/110/5
f 81/115/59 82/232/59 84/116/59
f 84/116/60 88/119/60 87/118/60
f 88/119/61 86/121/61 85/120/61
f 86/121/62 82/233/62 81/122/62
f 87/118/12 85/120/12 81/123/12
f 84/125/11 82/234/11 86/121/11
f 89/126/63 90/235/63 92/127/63
f 91/128/64 92/127/64 96/129/64
f 96/129/65 94/132/65 93/131/65
f 94/132/66 90/236/66 89/133/66
f 95/130/18 93/131/18 89/134/18
f 92/136/17 90/237/17 94/132/17
f 97/137/67 98/238/67 100/138/67
f 100/138/68 104/141/68 103/140/68
f 104/141/69 102/148/69 101/142/69
f 101/142/70 102/148/70 98/143/70
f 103/140/24 101/142/24 97/145/24
f 100/147/23 98/239/23 102/148/23
f 105/149/71 106/240/71 108/150/71
f 108/150/72 112/153/72 111/152/72
f 112/153/73 110/160/73 109/154/73
f 109/154/74 110/160/74 106/155/74
f 111/152/30 109/154/30 105/157/30
f 108/159/29 106/241/29 110/160/29
f 113/161/75 114/242/75 116/162/75
f 115/163/76 116/162/76 120/164/76
f 120/164/77 118/167/77 117/166/77
f 118/167/78 114/243/78 113/168/78
f 119/165/36 117/166/36 113/169/36
f 116/171/35 114/244/35 118/167/35
f 121/172/79 122/245/79 124/173/79
f 124/173/80 128/176/80 127/175/80
f 128/176/81 126/183/81 125/177/81
f 125/177/82 126/183/82 122/178/82
f 127/175/42 125/177/42 121/180/42
f 124/182/41 122/246/41 126/183/41
f 129/184/83 130/247/83 132/185/83
f 131/186/84 132/185/84 136/187/84
f 136/187/85 134/190/85 133/189/85
f 134/190/86 130/248/86 129/191/86
f 135/188/48 133/189/48 129/192/48
f 132/194/47 130/249/47 134/190/47
f 137/195/87 138/250/87 140/196/87
f 139/197/88 140/196/88 144/198/88
f 144/198/89 142/201/89 141/200/89
f 142/201/90 138/251/90 137/202/90
f 143/199/54 141/200/54 137/203/54
f 140/205/53 138/252/53 142/201/53
