# Blender v3.4.1 OBJ File: 'decoratives_and_entities.blend'
# www.blender.org
o Cylinder.001_Cylinder.017
v -0.000000 1.000000 -0.270105
v -0.000000 1.000000 1.312365
v 0.098017 0.995185 -0.270105
v 0.098017 0.995185 1.312365
v 0.195090 0.980785 -0.270105
v 0.195090 0.980785 1.312365
v 0.290285 0.956940 -0.270105
v 0.290285 0.956940 1.312365
v 0.382683 0.923880 -0.270105
v 0.382683 0.923880 1.312365
v 0.471397 0.881921 -0.270105
v 0.471397 0.881921 1.312365
v 0.555570 0.831470 -0.270105
v 0.555570 0.831470 1.312365
v 0.634393 0.773010 -0.270105
v 0.634393 0.773010 1.312365
v 0.707107 0.707107 -0.270105
v 0.707107 0.707107 1.312365
v 0.773010 0.634393 -0.270105
v 0.773010 0.634393 1.312365
v 0.831470 0.555570 -0.270105
v 0.831470 0.555570 1.312365
v 0.881921 0.471397 -0.270105
v 0.881921 0.471397 1.312365
v 0.923880 0.382683 -0.270105
v 0.923880 0.382683 1.312365
v 0.956940 0.290285 -0.270105
v 0.956940 0.290285 1.312365
v 0.980785 0.195090 -0.270105
v 0.980785 0.195090 1.312365
v 0.995185 0.098017 -0.270105
v 0.995185 0.098017 1.312365
v 1.000000 0.000000 -0.270105
v 1.000000 -0.000000 1.312365
v 0.995185 -0.098017 -0.270105
v 0.995185 -0.098017 1.312365
v 0.980785 -0.195090 -0.270105
v 0.980785 -0.195090 1.312365
v 0.956940 -0.290285 -0.270105
v 0.956940 -0.290285 1.312365
v 0.923880 -0.382683 -0.270105
v 0.923880 -0.382683 1.312365
v 0.881921 -0.471397 -0.270105
v 0.881921 -0.471397 1.312365
v 0.831470 -0.555570 -0.270105
v 0.831470 -0.555570 1.312365
v 0.773010 -0.634393 -0.270105
v 0.773010 -0.634393 1.312365
v 0.707107 -0.707107 -0.270105
v 0.707107 -0.707107 1.312365
v 0.634393 -0.773010 -0.270105
v 0.634393 -0.773010 1.312365
v 0.555570 -0.831470 -0.270105
v 0.555570 -0.831470 1.312365
v 0.471397 -0.881921 -0.270105
v 0.471397 -0.881921 1.312365
v 0.382683 -0.923880 -0.270105
v 0.382683 -0.923880 1.312365
v 0.290285 -0.956940 -0.270105
v 0.290285 -0.956940 1.312365
v 0.195090 -0.980785 -0.270105
v 0.195090 -0.980785 1.312365
v 0.098017 -0.995185 -0.270105
v 0.098017 -0.995185 1.312365
v -0.000000 -1.000000 -0.270105
v -0.000000 -1.000000 1.312365
v -0.098017 -0.995185 -0.270105
v -0.098017 -0.995185 1.312365
v -0.195090 -0.980785 -0.270105
v -0.195090 -0.980785 1.312365
v -0.290285 -0.956940 -0.270105
v -0.290285 -0.956940 1.312365
v -0.382683 -0.923880 -0.270105
v -0.382683 -0.923880 1.312365
v -0.471397 -0.881921 -0.270105
v -0.471397 -0.881921 1.312365
v -0.555570 -0.831470 -0.270105
v -0.555570 -0.831470 1.312365
v -0.634393 -0.773010 -0.270105
v -0.634393 -0.773010 1.312365
v -0.707107 -0.707107 -0.270105
v -0.707107 -0.707107 1.312365
v -0.773010 -0.634393 -0.270105
v -0.773010 -0.634393 1.312365
v -0.831470 -0.555570 -0.270105
v -0.831470 -0.555570 1.312365
v -0.881921 -0.471397 -0.270105
v -0.881921 -0.471397 1.312365
v -0.923880 -0.382683 -0.270105
v -0.923880 -0.382683 1.312365
v -0.956940 -0.290285 -0.270105
v -0.956940 -0.290285 1.312365
v -0.980785 -0.195090 -0.270105
v -0.980785 -0.195090 1.312365
v -0.995185 -0.098017 -0.270105
v -0.995185 -0.098017 1.312365
v -1.000000 0.000000 -0.270105
v -1.000000 -0.000000 1.312365
v -0.995185 0.098017 -0.270105
v -0.995185 0.098017 1.312365
v -0.980785 0.195090 -0.270105
v -0.980785 0.195090 1.312365
v -0.956940 0.290285 -0.270105
v -0.956940 0.290285 1.312365
v -0.923880 0.382683 -0.270105
v -0.923880 0.382683 1.312365
v -0.881921 0.471397 -0.270105
v -0.881921 0.471397 1.312365
v -0.831470 0.555570 -0.270105
v -0.831470 0.555570 1.312365
v -0.773010 0.634393 -0.270105
v -0.773010 0.634393 1.312365
v -0.707107 0.707107 -0.270105
v -0.707107 0.707107 1.312365
v -0.634393 0.773010 -0.270105
v -0.634393 0.773010 1.312365
v -0.555570 0.831470 -0.270105
v -0.555570 0.831470 1.312365
v -0.471397 0.881921 -0.270105
v -0.471397 0.881921 1.312365
v -0.382683 0.923880 -0.270105
v -0.382683 0.923880 1.312365
v -0.290285 0.956940 -0.270105
v -0.290285 0.956940 1.312365
v -0.195090 0.980785 -0.270105
v -0.195090 0.980785 1.312365
v -0.098017 0.995185 -0.270105
v -0.098017 0.995185 1.312365
v -0.000000 1.000000 -0.270105
v -0.000000 1.000000 1.312365
v 0.098017 0.995185 -0.270105
v 0.098017 0.995185 1.312365
v 0.195090 0.980785 -0.270105
v 0.195090 0.980785 1.312365
v 0.290285 0.956940 -0.270105
v 0.290285 0.956940 1.312365
v 0.382683 0.923879 -0.270105
v 0.382683 0.923879 1.312365
v 0.471397 0.881921 -0.270105
v 0.471397 0.881921 1.312365
v 0.555570 0.831470 -0.270105
v 0.555570 0.831470 1.312365
v 0.634393 0.773010 -0.270105
v 0.634393 0.773010 1.312365
v 0.707107 0.707107 -0.270105
v 0.707107 0.707107 1.312365
v 0.773010 0.634393 -0.270105
v 0.773010 0.634393 1.312365
v 0.831470 0.555570 -0.270105
v 0.831470 0.555570 1.312365
v 0.881921 0.471397 -0.270105
v 0.881921 0.471397 1.312365
v 0.923879 0.382683 -0.270105
v 0.923879 0.382683 1.312365
v 0.956940 0.290285 -0.270105
v 0.956940 0.290285 1.312365
v 0.980785 0.195090 -0.270105
v 0.980785 0.195090 1.312365
v 0.995185 0.098017 -0.270105
v 0.995185 0.098017 1.312365
v 1.000000 0.000000 -0.270105
v 1.000000 -0.000000 1.312365
v 0.995185 -0.098017 -0.270105
v 0.995185 -0.098017 1.312365
v 0.980785 -0.195090 -0.270105
v 0.980785 -0.195090 1.312365
v 0.956940 -0.290285 -0.270105
v 0.956940 -0.290285 1.312365
v 0.923879 -0.382683 -0.270105
v 0.923879 -0.382683 1.312365
v 0.881921 -0.471397 -0.270105
v 0.881921 -0.471397 1.312365
v 0.831470 -0.555570 -0.270105
v 0.831470 -0.555570 1.312365
v 0.773010 -0.634393 -0.270105
v 0.773010 -0.634393 1.312365
v 0.707107 -0.707107 -0.270105
v 0.707107 -0.707107 1.312365
v 0.634393 -0.773010 -0.270105
v 0.634393 -0.773010 1.312365
v 0.555570 -0.831470 -0.270105
v 0.555570 -0.831470 1.312365
v 0.471397 -0.881921 -0.270105
v 0.471397 -0.881921 1.312365
v 0.382683 -0.923879 -0.270105
v 0.382683 -0.923879 1.312365
v 0.290285 -0.956940 -0.270105
v 0.290285 -0.956940 1.312365
v 0.195090 -0.980785 -0.270105
v 0.195090 -0.980785 1.312365
v 0.098017 -0.995185 -0.270105
v 0.098017 -0.995185 1.312365
v -0.000000 -1.000000 -0.270105
v -0.000000 -1.000000 1.312365
v -0.098017 -0.995185 -0.270105
v -0.098017 -0.995185 1.312365
v -0.195090 -0.980785 -0.270105
v -0.195090 -0.980785 1.312365
v -0.290285 -0.956940 -0.270105
v -0.290285 -0.956940 1.312365
v -0.382683 -0.923879 -0.270105
v -0.382683 -0.923879 1.312365
v -0.471397 -0.881921 -0.270105
v -0.471397 -0.881921 1.312365
v -0.555570 -0.831470 -0.270105
v -0.555570 -0.831470 1.312365
v -0.634393 -0.773010 -0.270105
v -0.634393 -0.773010 1.312365
v -0.707107 -0.707107 -0.270105
v -0.707107 -0.707107 1.312365
v -0.773010 -0.634393 -0.270105
v -0.773010 -0.634393 1.312365
v -0.831470 -0.555570 -0.270105
v -0.831470 -0.555570 1.312365
v -0.881921 -0.471397 -0.270105
v -0.881921 -0.471397 1.312365
v -0.923879 -0.382683 -0.270105
v -0.923879 -0.382683 1.312365
v -0.956940 -0.290285 -0.270105
v -0.956940 -0.290285 1.312365
v -0.980785 -0.195090 -0.270105
v -0.980785 -0.195090 1.312365
v -0.995185 -0.098017 -0.270105
v -0.995185 -0.098017 1.312365
v -1.000000 0.000000 -0.270105
v -1.000000 -0.000000 1.312365
v -0.995185 0.098017 -0.270105
v -0.995185 0.098017 1.312365
v -0.980785 0.195090 -0.270105
v -0.980785 0.195090 1.312365
v -0.956940 0.290285 -0.270105
v -0.956940 0.290285 1.312365
v -0.923879 0.382683 -0.270105
v -0.923879 0.382683 1.312365
v -0.881921 0.471397 -0.270105
v -0.881921 0.471397 1.312365
v -0.831470 0.555570 -0.270105
v -0.831470 0.555570 1.312365
v -0.773010 0.634393 -0.270105
v -0.773010 0.634393 1.312365
v -0.707107 0.707107 -0.270105
v -0.707107 0.707107 1.312365
v -0.634393 0.773010 -0.270105
v -0.634393 0.773010 1.312365
v -0.555570 0.831470 -0.270105
v -0.555570 0.831470 1.312365
v -0.471397 0.881921 -0.270105
v -0.471397 0.881921 1.312365
v -0.382683 0.923879 -0.270105
v -0.382683 0.923879 1.312365
v -0.290285 0.956940 -0.270105
v -0.290285 0.956940 1.312365
v -0.195090 0.980785 -0.270105
v -0.195090 0.980785 1.312365
v -0.098017 0.995185 -0.270105
v -0.098017 0.995185 1.312365
vt 0.984375 0.500000
vt 1.000000 1.000000
vt 1.000000 0.500000
vt 0.968750 0.500000
vt 0.984375 1.000000
vt 0.953125 0.500000
vt 0.968750 1.000000
vt 0.937500 0.500000
vt 0.953125 1.000000
vt 0.921875 0.500000
vt 0.937500 1.000000
vt 0.906250 0.500000
vt 0.921875 1.000000
vt 0.890625 0.500000
vt 0.906250 1.000000
vt 0.875000 0.500000
vt 0.890625 1.000000
vt 0.859375 0.500000
vt 0.875000 1.000000
vt 0.843750 0.500000
vt 0.859375 1.000000
vt 0.828125 1.000000
vt 0.843750 1.000000
vt 0.812500 0.500000
vt 0.828125 0.500000
vt 0.796875 1.000000
vt 0.812500 1.000000
vt 0.781250 0.500000
vt 0.796875 0.500000
vt 0.765625 0.500000
vt 0.781250 1.000000
vt 0.750000 0.500000
vt 0.765625 1.000000
vt 0.734375 1.000000
vt 0.750000 1.000000
vt 0.718750 0.500000
vt 0.734375 0.500000
vt 0.703125 0.500000
vt 0.718750 1.000000
vt 0.687500 1.000000
vt 0.703125 1.000000
vt 0.671875 0.500000
vt 0.687500 0.500000
vt 0.656250 1.000000
vt 0.671875 1.000000
vt 0.640625 0.500000
vt 0.656250 0.500000
vt 0.625000 0.500000
vt 0.640625 1.000000
vt 0.609375 0.500000
vt 0.625000 1.000000
vt 0.593750 0.500000
vt 0.609375 1.000000
vt 0.578125 0.500000
vt 0.593750 1.000000
vt 0.562500 0.500000
vt 0.578125 1.000000
vt 0.546875 0.500000
vt 0.562500 1.000000
vt 0.531250 0.500000
vt 0.546875 1.000000
vt 0.515625 0.500000
vt 0.531250 1.000000
vt 0.500000 0.500000
vt 0.515625 1.000000
vt 0.484375 0.500000
vt 0.500000 1.000000
vt 0.468750 0.500000
vt 0.484375 1.000000
vt 0.453125 0.500000
vt 0.468750 1.000000
vt 0.437500 0.500000
vt 0.453125 1.000000
vt 0.421875 0.500000
vt 0.437500 1.000000
vt 0.406250 0.500000
vt 0.421875 1.000000
vt 0.390625 0.500000
vt 0.406250 1.000000
vt 0.375000 0.500000
vt 0.390625 1.000000
vt 0.359375 0.500000
vt 0.375000 1.000000
vt 0.343750 0.500000
vt 0.359375 1.000000
vt 0.328125 0.500000
vt 0.343750 1.000000
vt 0.312500 0.500000
vt 0.328125 1.000000
vt 0.296875 1.000000
vt 0.312500 1.000000
vt 0.281250 0.500000
vt 0.296875 0.500000
vt 0.265625 0.500000
vt 0.281250 1.000000
vt 0.250000 0.500000
vt 0.265625 1.000000
vt 0.234375 0.500000
vt 0.250000 1.000000
vt 0.218750 0.500000
vt 0.234375 1.000000
vt 0.203125 0.500000
vt 0.218750 1.000000
vt 0.187500 0.500000
vt 0.203125 1.000000
vt 0.171875 0.500000
vt 0.187500 1.000000
vt 0.156250 0.500000
vt 0.171875 1.000000
vt 0.140625 0.500000
vt 0.156250 1.000000
vt 0.125000 0.500000
vt 0.140625 1.000000
vt 0.109375 0.500000
vt 0.125000 1.000000
vt 0.093750 0.500000
vt 0.109375 1.000000
vt 0.078125 0.500000
vt 0.093750 1.000000
vt 0.062500 0.500000
vt 0.078125 1.000000
vt 0.046875 0.500000
vt 0.062500 1.000000
vt 0.031250 0.500000
vt 0.046875 1.000000
vt 0.015625 0.500000
vt 0.031250 1.000000
vt 0.000000 0.500000
vt 0.015625 1.000000
vt 1.000000 1.000000
vt 0.984375 0.500000
vt 1.000000 0.500000
vt 0.984375 1.000000
vt 0.968750 0.500000
vt 0.968750 1.000000
vt 0.953125 0.500000
vt 0.953125 1.000000
vt 0.937500 0.500000
vt 0.937500 1.000000
vt 0.921875 0.500000
vt 0.921875 1.000000
vt 0.906250 0.500000
vt 0.906250 1.000000
vt 0.890625 0.500000
vt 0.890625 1.000000
vt 0.875000 0.500000
vt 0.875000 1.000000
vt 0.859375 0.500000
vt 0.859375 1.000000
vt 0.843750 0.500000
vt 0.843750 1.000000
vt 0.828125 0.500000
vt 0.828125 1.000000
vt 0.812500 0.500000
vt 0.812500 1.000000
vt 0.796875 0.500000
vt 0.781250 1.000000
vt 0.781250 0.500000
vt 0.765625 0.500000
vt 0.765625 1.000000
vt 0.750000 0.500000
vt 0.750000 1.000000
vt 0.734375 0.500000
vt 0.734375 1.000000
vt 0.718750 0.500000
vt 0.718750 1.000000
vt 0.703125 0.500000
vt 0.703125 1.000000
vt 0.687500 0.500000
vt 0.687500 1.000000
vt 0.671875 0.500000
vt 0.671875 1.000000
vt 0.656250 0.500000
vt 0.656250 1.000000
vt 0.640625 0.500000
vt 0.640625 1.000000
vt 0.625000 0.500000
vt 0.625000 1.000000
vt 0.609375 0.500000
vt 0.609375 1.000000
vt 0.593750 0.500000
vt 0.593750 1.000000
vt 0.578125 0.500000
vt 0.578125 1.000000
vt 0.562500 0.500000
vt 0.562500 1.000000
vt 0.546875 0.500000
vt 0.546875 1.000000
vt 0.531250 0.500000
vt 0.531250 1.000000
vt 0.515625 0.500000
vt 0.515625 1.000000
vt 0.500000 0.500000
vt 0.500000 1.000000
vt 0.484375 0.500000
vt 0.484375 1.000000
vt 0.468750 0.500000
vt 0.468750 1.000000
vt 0.453125 0.500000
vt 0.453125 1.000000
vt 0.437500 0.500000
vt 0.437500 1.000000
vt 0.421875 0.500000
vt 0.421875 1.000000
vt 0.406250 0.500000
vt 0.406250 1.000000
vt 0.390625 0.500000
vt 0.390625 1.000000
vt 0.375000 0.500000
vt 0.375000 1.000000
vt 0.359375 0.500000
vt 0.359375 1.000000
vt 0.343750 0.500000
vt 0.343750 1.000000
vt 0.328125 0.500000
vt 0.328125 1.000000
vt 0.312500 0.500000
vt 0.312500 1.000000
vt 0.296875 0.500000
vt 0.296875 1.000000
vt 0.281250 0.500000
vt 0.281250 1.000000
vt 0.265625 0.500000
vt 0.265625 1.000000
vt 0.250000 0.500000
vt 0.250000 1.000000
vt 0.234375 0.500000
vt 0.218750 1.000000
vt 0.218750 0.500000
vt 0.203125 1.000000
vt 0.203125 0.500000
vt 0.187500 0.500000
vt 0.187500 1.000000
vt 0.171875 0.500000
vt 0.156250 1.000000
vt 0.156250 0.500000
vt 0.140625 0.500000
vt 0.140625 1.000000
vt 0.125000 0.500000
vt 0.125000 1.000000
vt 0.109375 0.500000
vt 0.109375 1.000000
vt 0.093750 0.500000
vt 0.093750 1.000000
vt 0.078125 0.500000
vt 0.078125 1.000000
vt 0.062500 0.500000
vt 0.062500 1.000000
vt 0.046875 0.500000
vt 0.046875 1.000000
vt 0.031250 0.500000
vt 0.031250 1.000000
vt 0.015625 0.500000
vt 0.015625 1.000000
vt 0.000000 0.500000
vt 0.000000 1.000000
vt 0.796875 1.000000
vt 0.234375 1.000000
vt 0.171875 1.000000
vt 0.000000 1.000000
vn -0.0980 -0.9952 0.0000
vn 0.0000 -1.0000 0.0000
vn -0.1951 -0.9808 0.0000
vn -0.2903 -0.9569 0.0000
vn -0.3827 -0.9239 0.0000
vn -0.4714 -0.8819 0.0000
vn -0.5556 -0.8315 0.0000
vn -0.6344 -0.7730 0.0000
vn -0.7071 -0.7071 0.0000
vn -0.7730 -0.6344 0.0000
vn -0.8315 -0.5556 -0.0000
vn -0.8819 -0.4714 -0.0000
vn -0.9239 -0.3827 -0.0000
vn -0.9569 -0.2903 -0.0000
vn -0.9808 -0.1951 -0.0000
vn -0.9952 -0.0980 -0.0000
vn -1.0000 0.0000 0.0000
vn -0.9952 0.0980 0.0000
vn -0.9808 0.1951 0.0000
vn -0.9569 0.2903 0.0000
vn -0.9239 0.3827 0.0000
vn -0.8819 0.4714 0.0000
vn -0.8315 0.5556 0.0000
vn -0.7730 0.6344 0.0000
vn -0.7071 0.7071 0.0000
vn -0.6344 0.7730 0.0000
vn -0.5556 0.8315 0.0000
vn -0.4714 0.8819 0.0000
vn -0.3827 0.9239 0.0000
vn -0.2903 0.9569 0.0000
vn -0.1951 0.9808 0.0000
vn -0.0980 0.9952 0.0000
vn 0.0000 1.0000 0.0000
vn 0.0980 0.9952 0.0000
vn 0.1951 0.9808 0.0000
vn 0.2903 0.9569 0.0000
vn 0.3827 0.9239 0.0000
vn 0.4714 0.8819 0.0000
vn 0.5556 0.8315 0.0000
vn 0.6344 0.7730 0.0000
vn 0.7071 0.7071 0.0000
vn 0.7730 0.6344 0.0000
vn 0.8315 0.5556 0.0000
vn 0.8819 0.4714 0.0000
vn 0.9239 0.3827 0.0000
vn 0.9569 0.2903 0.0000
vn 0.9808 0.1951 0.0000
vn 0.9952 0.0980 0.0000
vn 1.0000 0.0000 0.0000
vn 0.9952 -0.0980 -0.0000
vn 0.9808 -0.1951 -0.0000
vn 0.9569 -0.2903 -0.0000
vn 0.9239 -0.3827 -0.0000
vn 0.8819 -0.4714 -0.0000
vn 0.8315 -0.5556 -0.0000
vn 0.7730 -0.6344 0.0000
vn 0.7071 -0.7071 0.0000
vn 0.6344 -0.7730 0.0000
vn 0.5556 -0.8315 0.0000
vn 0.4714 -0.8819 0.0000
vn 0.3827 -0.9239 0.0000
vn 0.2903 -0.9569 0.0000
vn 0.1951 -0.9808 0.0000
vn 0.0980 -0.9952 0.0000
s 1
f 3/1/1 2/2/2 1/3/2
f 5/4/3 4/5/1 3/1/1
f 7/6/4 6/7/3 5/4/3
f 9/8/5 8/9/4 7/6/4
f 11/10/6 10/11/5 9/8/5
f 13/12/7 12/13/6 11/10/6
f 15/14/8 14/15/7 13/12/7
f 17/16/9 16/17/8 15/14/8
f 19/18/10 18/19/9 17/16/9
f 21/20/11 20/21/10 19/18/10
f 21/20/11 24/22/12 22/23/11
f 25/24/13 24/22/12 23/25/12
f 25/24/13 28/26/14 26/27/13
f 29/28/15 28/26/14 27/29/14
f 31/30/16 30/31/15 29/28/15
f 33/32/17 32/33/16 31/30/16
f 33/32/17 36/34/18 34/35/17
f 37/36/19 36/34/18 35/37/18
f 39/38/20 38/39/19 37/36/19
f 39/38/20 42/40/21 40/41/20
f 43/42/22 42/40/21 41/43/21
f 43/42/22 46/44/23 44/45/22
f 47/46/24 46/44/23 45/47/23
f 49/48/25 48/49/24 47/46/24
f 51/50/26 50/51/25 49/48/25
f 53/52/27 52/53/26 51/50/26
f 55/54/28 54/55/27 53/52/27
f 57/56/29 56/57/28 55/54/28
f 59/58/30 58/59/29 57/56/29
f 61/60/31 60/61/30 59/58/30
f 63/62/32 62/63/31 61/60/31
f 65/64/33 64/65/32 63/62/32
f 67/66/34 66/67/33 65/64/33
f 69/68/35 68/69/34 67/66/34
f 71/70/36 70/71/35 69/68/35
f 73/72/37 72/73/36 71/70/36
f 75/74/38 74/75/37 73/72/37
f 77/76/39 76/77/38 75/74/38
f 79/78/40 78/79/39 77/76/39
f 81/80/41 80/81/40 79/78/40
f 83/82/42 82/83/41 81/80/41
f 85/84/43 84/85/42 83/82/42
f 87/86/44 86/87/43 85/84/43
f 89/88/45 88/89/44 87/86/44
f 89/88/45 92/90/46 90/91/45
f 93/92/47 92/90/46 91/93/46
f 95/94/48 94/95/47 93/92/47
f 97/96/49 96/97/48 95/94/48
f 99/98/50 98/99/49 97/96/49
f 101/100/51 100/101/50 99/98/50
f 103/102/52 102/103/51 101/100/51
f 105/104/53 104/105/52 103/102/52
f 107/106/54 106/107/53 105/104/53
f 109/108/55 108/109/54 107/106/54
f 111/110/56 110/111/55 109/108/55
f 113/112/57 112/113/56 111/110/56
f 115/114/58 114/115/57 113/112/57
f 117/116/59 116/117/58 115/114/58
f 119/118/60 118/119/59 117/116/59
f 121/120/61 120/121/60 119/118/60
f 123/122/62 122/123/61 121/120/61
f 125/124/63 124/125/62 123/122/62
f 127/126/64 126/127/63 125/124/63
f 1/128/2 128/129/64 127/126/64
f 130/130/33 131/131/34 129/132/33
f 132/133/34 133/134/35 131/131/34
f 134/135/35 135/136/36 133/134/35
f 136/137/36 137/138/37 135/136/36
f 138/139/37 139/140/38 137/138/37
f 140/141/38 141/142/39 139/140/38
f 142/143/39 143/144/40 141/142/39
f 144/145/40 145/146/41 143/144/40
f 146/147/41 147/148/42 145/146/41
f 148/149/42 149/150/43 147/148/42
f 150/151/43 151/152/44 149/150/43
f 152/153/44 153/154/45 151/152/44
f 154/155/45 155/156/46 153/154/45
f 155/156/46 158/157/47 157/158/47
f 158/157/47 159/159/48 157/158/47
f 160/160/48 161/161/49 159/159/48
f 162/162/49 163/163/50 161/161/49
f 164/164/50 165/165/51 163/163/50
f 166/166/51 167/167/52 165/165/51
f 168/168/52 169/169/53 167/167/52
f 170/170/53 171/171/54 169/169/53
f 172/172/54 173/173/55 171/171/54
f 174/174/55 175/175/56 173/173/55
f 176/176/56 177/177/57 175/175/56
f 178/178/57 179/179/58 177/177/57
f 180/180/58 181/181/59 179/179/58
f 182/182/59 183/183/60 181/181/59
f 184/184/60 185/185/61 183/183/60
f 186/186/61 187/187/62 185/185/61
f 188/188/62 189/189/63 187/187/62
f 190/190/63 191/191/64 189/189/63
f 192/192/64 193/193/2 191/191/64
f 194/194/2 195/195/1 193/193/2
f 196/196/1 197/197/3 195/195/1
f 198/198/3 199/199/4 197/197/3
f 200/200/4 201/201/5 199/199/4
f 202/202/5 203/203/6 201/201/5
f 204/204/6 205/205/7 203/203/6
f 206/206/7 207/207/8 205/205/7
f 208/208/8 209/209/9 207/207/8
f 210/210/9 211/211/10 209/209/9
f 212/212/10 213/213/11 211/211/10
f 214/214/11 215/215/12 213/213/11
f 216/216/12 217/217/13 215/215/12
f 218/218/13 219/219/14 217/217/13
f 220/220/14 221/221/15 219/219/14
f 222/222/15 223/223/16 221/221/15
f 224/224/16 225/225/17 223/223/16
f 226/226/17 227/227/18 225/225/17
f 227/227/18 230/228/19 229/229/19
f 229/229/19 232/230/20 231/231/20
f 232/230/20 233/232/21 231/231/20
f 234/233/21 235/234/22 233/232/21
f 235/234/22 238/235/23 237/236/23
f 238/235/23 239/237/24 237/236/23
f 240/238/24 241/239/25 239/237/24
f 242/240/25 243/241/26 241/239/25
f 244/242/26 245/243/27 243/241/26
f 246/244/27 247/245/28 245/243/27
f 248/246/28 249/247/29 247/245/28
f 250/248/29 251/249/30 249/247/29
f 252/250/30 253/251/31 251/249/30
f 254/252/31 255/253/32 253/251/31
f 256/254/32 129/255/33 255/253/32
f 3/1/1 4/5/1 2/2/2
f 5/4/3 6/7/3 4/5/1
f 7/6/4 8/9/4 6/7/3
f 9/8/5 10/11/5 8/9/4
f 11/10/6 12/13/6 10/11/5
f 13/12/7 14/15/7 12/13/6
f 15/14/8 16/17/8 14/15/7
f 17/16/9 18/19/9 16/17/8
f 19/18/10 20/21/10 18/19/9
f 21/20/11 22/23/11 20/21/10
f 21/20/11 23/25/12 24/22/12
f 25/24/13 26/27/13 24/22/12
f 25/24/13 27/29/14 28/26/14
f 29/28/15 30/31/15 28/26/14
f 31/30/16 32/33/16 30/31/15
f 33/32/17 34/35/17 32/33/16
f 33/32/17 35/37/18 36/34/18
f 37/36/19 38/39/19 36/34/18
f 39/38/20 40/41/20 38/39/19
f 39/38/20 41/43/21 42/40/21
f 43/42/22 44/45/22 42/40/21
f 43/42/22 45/47/23 46/44/23
f 47/46/24 48/49/24 46/44/23
f 49/48/25 50/51/25 48/49/24
f 51/50/26 52/53/26 50/51/25
f 53/52/27 54/55/27 52/53/26
f 55/54/28 56/57/28 54/55/27
f 57/56/29 58/59/29 56/57/28
f 59/58/30 60/61/30 58/59/29
f 61/60/31 62/63/31 60/61/30
f 63/62/32 64/65/32 62/63/31
f 65/64/33 66/67/33 64/65/32
f 67/66/34 68/69/34 66/67/33
f 69/68/35 70/71/35 68/69/34
f 71/70/36 72/73/36 70/71/35
f 73/72/37 74/75/37 72/73/36
f 75/74/38 76/77/38 74/75/37
f 77/76/39 78/79/39 76/77/38
f 79/78/40 80/81/40 78/79/39
f 81/80/41 82/83/41 80/81/40
f 83/82/42 84/85/42 82/83/41
f 85/84/43 86/87/43 84/85/42
f 87/86/44 88/89/44 86/87/43
f 89/88/45 90/91/45 88/89/44
f 89/88/45 91/93/46 92/90/46
f 93/92/47 94/95/47 92/90/46
f 95/94/48 96/97/48 94/95/47
f 97/96/49 98/99/49 96/97/48
f 99/98/50 100/101/50 98/99/49
f 101/100/51 102/103/51 100/101/50
f 103/102/52 104/105/52 102/103/51
f 105/104/53 106/107/53 104/105/52
f 107/106/54 108/109/54 106/107/53
f 109/108/55 110/111/55 108/109/54
f 111/110/56 112/113/56 110/111/55
f 113/112/57 114/115/57 112/113/56
f 115/114/58 116/117/58 114/115/57
f 117/116/59 118/119/59 116/117/58
f 119/118/60 120/121/60 118/119/59
f 121/120/61 122/123/61 120/121/60
f 123/122/62 124/125/62 122/123/61
f 125/124/63 126/127/63 124/125/62
f 127/126/64 128/129/64 126/127/63
f 1/128/2 2/256/2 128/129/64
f 130/130/33 132/133/34 131/131/34
f 132/133/34 134/135/35 133/134/35
f 134/135/35 136/137/36 135/136/36
f 136/137/36 138/139/37 137/138/37
f 138/139/37 140/141/38 139/140/38
f 140/141/38 142/143/39 141/142/39
f 142/143/39 144/145/40 143/144/40
f 144/145/40 146/147/41 145/146/41
f 146/147/41 148/149/42 147/148/42
f 148/149/42 150/151/43 149/150/43
f 150/151/43 152/153/44 151/152/44
f 152/153/44 154/155/45 153/154/45
f 154/155/45 156/257/46 155/156/46
f 155/156/46 156/257/46 158/157/47
f 158/157/47 160/160/48 159/159/48
f 160/160/48 162/162/49 161/161/49
f 162/162/49 164/164/50 163/163/50
f 164/164/50 166/166/51 165/165/51
f 166/166/51 168/168/52 167/167/52
f 168/168/52 170/170/53 169/169/53
f 170/170/53 172/172/54 171/171/54
f 172/172/54 174/174/55 173/173/55
f 174/174/55 176/176/56 175/175/56
f 176/176/56 178/178/57 177/177/57
f 178/178/57 180/180/58 179/179/58
f 180/180/58 182/182/59 181/181/59
f 182/182/59 184/184/60 183/183/60
f 184/184/60 186/186/61 185/185/61
f 186/186/61 188/188/62 187/187/62
f 188/188/62 190/190/63 189/189/63
f 190/190/63 192/192/64 191/191/64
f 192/192/64 194/194/2 193/193/2
f 194/194/2 196/196/1 195/195/1
f 196/196/1 198/198/3 197/197/3
f 198/198/3 200/200/4 199/199/4
f 200/200/4 202/202/5 201/201/5
f 202/202/5 204/204/6 203/203/6
f 204/204/6 206/206/7 205/205/7
f 206/206/7 208/208/8 207/207/8
f 208/208/8 210/210/9 209/209/9
f 210/210/9 212/212/10 211/211/10
f 212/212/10 214/214/11 213/213/11
f 214/214/11 216/216/12 215/215/12
f 216/216/12 218/218/13 217/217/13
f 218/218/13 220/220/14 219/219/14
f 220/220/14 222/222/15 221/221/15
f 222/222/15 224/224/16 223/223/16
f 224/224/16 226/226/17 225/225/17
f 226/226/17 228/258/18 227/227/18
f 227/227/18 228/258/18 230/228/19
f 229/229/19 230/228/19 232/230/20
f 232/230/20 234/233/21 233/232/21
f 234/233/21 236/259/22 235/234/22
f 235/234/22 236/259/22 238/235/23
f 238/235/23 240/238/24 239/237/24
f 240/238/24 242/240/25 241/239/25
f 242/240/25 244/242/26 243/241/26
f 244/242/26 246/244/27 245/243/27
f 246/244/27 248/246/28 247/245/28
f 248/246/28 250/248/29 249/247/29
f 250/248/29 252/250/30 251/249/30
f 252/250/30 254/252/31 253/251/31
f 254/252/31 256/254/32 255/253/32
f 256/254/32 130/260/33 129/255/33
