# Blender v3.4.1 OBJ File: 'decoratives_and_entities.blend'
# www.blender.org
o Bandit_Cube.013
v -0.385408 -0.914210 -0.219916
v -0.385408 -0.672764 -0.219916
v -0.061481 -0.914210 -0.219916
v -0.061481 -0.672764 -0.219916
v -0.385408 -0.914210 0.457388
v -0.385408 -0.672764 0.457388
v -0.061481 -0.914210 0.457388
v -0.061481 -0.672764 0.457388
v 0.000000 -0.667920 -0.461879
v 0.000000 0.667920 -0.461879
v 0.439273 -0.667920 -0.142728
v 0.439273 0.667920 -0.142728
v 0.271485 -0.667920 0.373668
v 0.271485 0.667920 0.373668
v -0.271485 -0.667920 0.373668
v -0.271485 0.667920 0.373668
v -0.439273 -0.667920 -0.142728
v -0.439273 0.667920 -0.142728
v 0.000000 0.646117 -0.000000
v 0.374980 0.932573 0.272436
v -0.143227 0.932573 0.440815
v -0.463500 0.932575 -0.000000
v -0.143227 0.932573 -0.440815
v 0.374980 0.932573 -0.272436
v 0.143227 1.396080 0.440815
v -0.374980 1.396080 0.272436
v -0.374980 1.396080 -0.272436
v 0.143227 1.396080 -0.440815
v 0.463500 1.396078 -0.000000
v 0.000000 1.682536 -0.000000
v -0.084186 0.723509 0.259102
v 0.220406 0.723509 0.160133
v 0.136221 0.891884 0.419238
v 0.440814 0.891885 -0.000000
v 0.220406 0.723509 -0.160133
v -0.272438 0.723511 -0.000000
v -0.356626 0.891885 0.259103
v -0.084186 0.723509 -0.259102
v -0.356626 0.891885 -0.259103
v 0.136221 0.891884 -0.419238
v 0.492847 1.164326 0.160133
v 0.492847 1.164326 -0.160133
v -0.000000 1.164326 0.518210
v 0.304596 1.164326 0.419240
v -0.492847 1.164326 0.160133
v -0.304596 1.164326 0.419240
v -0.304596 1.164326 -0.419240
v -0.492847 1.164326 -0.160133
v 0.304596 1.164326 -0.419240
v 0.000000 1.164326 -0.518210
v 0.356626 1.436768 0.259103
v -0.136221 1.436769 0.419238
v -0.440814 1.436768 -0.000000
v -0.136221 1.436769 -0.419238
v 0.356626 1.436768 -0.259103
v 0.084186 1.605144 0.259102
v 0.272438 1.605142 -0.000000
v -0.220406 1.605144 0.160133
v -0.220406 1.605144 -0.160133
v 0.084186 1.605144 -0.259102
v 0.052826 -0.914210 -0.219916
v 0.052826 -0.672764 -0.219916
v 0.376754 -0.914210 -0.219916
v 0.376754 -0.672764 -0.219916
v 0.052826 -0.914210 0.457388
v 0.052826 -0.672764 0.457388
v 0.376754 -0.914210 0.457388
v 0.376754 -0.672764 0.457388
vt 0.625000 0.000000
vt 0.375000 0.250000
vt 0.375000 0.000000
vt 0.625000 0.250000
vt 0.375000 0.500000
vt 0.625000 0.500000
vt 0.375000 0.750000
vt 0.625000 0.750000
vt 0.375000 1.000000
vt 0.125000 0.750000
vt 0.125000 0.500000
vt 0.875000 0.500000
vt 1.000000 1.000000
vt 0.800000 0.500000
vt 1.000000 0.500000
vt 0.800000 1.000000
vt 0.600000 0.500000
vt 0.600000 1.000000
vt 0.400000 0.500000
vt 0.250000 0.490000
vt 0.108932 0.055836
vt 0.391068 0.055836
vt 0.400000 1.000000
vt 0.200000 0.500000
vt 0.200000 1.000000
vt 0.000000 0.500000
vt 0.608932 0.055836
vt 0.750000 0.490000
vt 0.891068 0.055836
vt 0.625000 0.000000
vt 0.375000 0.250000
vt 0.375000 0.000000
vt 0.625000 0.250000
vt 0.375000 0.500000
vt 0.625000 0.500000
vt 0.375000 0.750000
vt 0.625000 0.750000
vt 0.375000 1.000000
vt 0.125000 0.750000
vt 0.125000 0.500000
vt 0.875000 0.500000
vt 0.625000 1.000000
vt 0.875000 0.750000
vt 0.478254 0.324164
vt 0.021746 0.324164
vt 0.000000 1.000000
vt 0.521746 0.324164
vt 0.978254 0.324164
vt 0.625000 1.000000
vt 0.875000 0.750000
vt 0.181819 0.000000
vt 0.227273 0.078731
vt 0.136365 0.078731
vt 0.272728 0.157461
vt 0.318182 0.078731
vt 0.363637 0.157461
vt 0.909091 0.000000
vt 0.954545 0.078731
vt 0.863636 0.078731
vt 0.727273 0.000000
vt 0.772727 0.078731
vt 0.681818 0.078731
vt 0.545455 0.000000
vt 0.590909 0.078731
vt 0.500000 0.078731
vt 0.318182 0.236191
vt 0.090910 0.157461
vt 0.181819 0.157461
vt 0.136365 0.236191
vt 0.818182 0.157461
vt 0.909091 0.157461
vt 0.863636 0.236191
vt 0.636364 0.157461
vt 0.727273 0.157461
vt 0.681818 0.236191
vt 0.454546 0.157461
vt 0.545455 0.157461
vt 0.500000 0.236191
vt 0.227273 0.236191
vt 0.045455 0.236191
vt 0.772727 0.236191
vt 0.590909 0.236191
vt 0.409092 0.236191
vt 0.181819 0.314921
vt 0.272728 0.314921
vt 0.227273 0.393651
vt 0.000000 0.314921
vt 0.090910 0.314921
vt 0.045455 0.393651
vt 0.727273 0.314921
vt 0.818182 0.314921
vt 0.772727 0.393651
vt 0.545455 0.314921
vt 0.636364 0.314921
vt 0.590909 0.393651
vt 0.363637 0.314921
vt 0.454546 0.314921
vt 0.409092 0.393651
vt 0.500000 0.393651
vt 0.454546 0.472382
vt 0.681818 0.393651
vt 0.636364 0.472382
vt 0.863636 0.393651
vt 0.818182 0.472382
vt 0.909091 0.314921
vt 0.136365 0.393651
vt 0.090910 0.472382
vt 0.318182 0.393651
vt 0.272728 0.472382
vt 0.954545 0.236191
vt 1.000000 0.157461
vt 0.409092 0.078731
vt 0.363637 0.000000
vn 0.0000 0.0000 -1.0000
vn 1.0000 0.0000 0.0000
vn 0.0000 0.0000 1.0000
vn -1.0000 0.0000 -0.0000
vn 0.0000 -1.0000 0.0000
vn 0.0000 1.0000 -0.0000
vn 0.5878 0.0000 -0.8090
vn 0.9511 0.0000 0.3090
vn -0.9511 0.0000 0.3090
vn -0.5878 0.0000 -0.8090
vn 0.4253 -0.8507 0.3090
vn -0.1625 -0.8507 0.5000
vn 0.7236 -0.4472 0.5257
vn 0.8506 -0.5257 -0.0000
vn -0.5257 -0.8507 0.0000
vn -0.1625 -0.8507 -0.5000
vn 0.4253 -0.8507 -0.3090
vn -0.2764 -0.4472 0.8506
vn 0.2629 -0.5257 0.8090
vn -0.8944 -0.4472 0.0000
vn -0.6882 -0.5257 0.5000
vn -0.2764 -0.4472 -0.8506
vn -0.6882 -0.5257 -0.5000
vn 0.7236 -0.4472 -0.5257
vn 0.2629 -0.5257 -0.8090
vn 0.5878 0.0000 0.8090
vn -0.5878 -0.0000 0.8090
vn -0.9511 0.0000 -0.3090
vn 0.9511 -0.0000 -0.3090
vn 0.2764 0.4472 0.8506
vn 0.6882 0.5257 0.5000
vn 0.1625 0.8507 0.5000
vn -0.7236 0.4472 0.5257
vn -0.2629 0.5257 0.8090
vn -0.4253 0.8507 0.3090
vn -0.7236 0.4472 -0.5257
vn -0.8506 0.5257 0.0000
vn -0.4253 0.8507 -0.3090
vn 0.2764 0.4472 -0.8506
vn -0.2629 0.5257 -0.8090
vn 0.1625 0.8507 -0.5000
vn 0.8944 0.4472 0.0000
vn 0.6882 0.5257 -0.5000
vn 0.5257 0.8507 -0.0000
s off
f 2/1/1 3/2/1 1/3/1
f 4/4/2 7/5/2 3/2/2
f 8/6/3 5/7/3 7/5/3
f 6/8/4 1/9/4 5/7/4
f 7/5/5 1/10/5 3/11/5
f 4/12/6 6/8/6 8/6/6
f 10/13/7 11/14/7 9/15/7
f 12/16/8 13/17/8 11/14/8
f 14/18/3 15/19/3 13/17/3
f 10/20/6 16/21/6 14/22/6
f 16/23/9 17/24/9 15/19/9
f 18/25/10 9/26/10 17/24/10
f 15/27/5 9/28/5 13/29/5
f 62/30/1 63/31/1 61/32/1
f 64/33/2 67/34/2 63/31/2
f 68/35/3 65/36/3 67/34/3
f 66/37/4 61/38/4 65/36/4
f 67/34/5 61/39/5 63/40/5
f 64/41/6 66/37/6 68/35/6
f 2/1/1 4/4/1 3/2/1
f 4/4/2 8/6/2 7/5/2
f 8/6/3 6/8/3 5/7/3
f 6/8/4 2/42/4 1/9/4
f 7/5/5 5/7/5 1/10/5
f 4/12/6 2/43/6 6/8/6
f 10/13/7 12/16/7 11/14/7
f 12/16/8 14/18/8 13/17/8
f 14/18/3 16/23/3 15/19/3
f 14/22/6 12/44/6 10/20/6
f 10/20/6 18/45/6 16/21/6
f 16/23/9 18/25/9 17/24/9
f 18/25/10 10/46/10 9/26/10
f 17/47/5 9/28/5 15/27/5
f 9/28/5 11/48/5 13/29/5
f 62/30/1 64/33/1 63/31/1
f 64/33/2 68/35/2 67/34/2
f 68/35/3 66/37/3 65/36/3
f 66/37/4 62/49/4 61/38/4
f 67/34/5 65/36/5 61/39/5
f 64/41/6 62/50/6 66/37/6
s 1
f 19/51/5 32/52/11 31/53/12
f 20/54/13 32/55/11 34/56/14
f 19/57/5 31/58/12 36/59/15
f 19/60/5 36/61/15 38/62/16
f 19/63/5 38/64/16 35/65/17
f 20/54/13 34/56/14 41/66/8
f 21/67/18 33/68/19 43/69/3
f 22/70/20 37/71/21 45/72/9
f 23/73/22 39/74/23 47/75/10
f 24/76/24 40/77/25 49/78/7
f 20/54/13 41/66/8 44/79/26
f 21/67/18 43/69/3 46/80/27
f 22/70/20 45/72/9 48/81/28
f 23/73/22 47/75/10 50/82/1
f 24/76/24 49/78/7 42/83/29
f 25/84/30 51/85/31 56/86/32
f 26/87/33 52/88/34 58/89/35
f 27/90/36 53/91/37 59/92/38
f 28/93/39 54/94/40 60/95/41
f 29/96/42 55/97/43 57/98/44
f 57/98/44 60/99/41 30/100/6
f 57/98/44 55/97/43 60/99/41
f 55/97/43 28/93/39 60/99/41
f 60/95/41 59/101/38 30/102/6
f 60/95/41 54/94/40 59/101/38
f 54/94/40 27/90/36 59/101/38
f 59/92/38 58/103/35 30/104/6
f 59/92/38 53/91/37 58/103/35
f 53/91/37 26/105/33 58/103/35
f 58/89/35 56/106/32 30/107/6
f 58/89/35 52/88/34 56/106/32
f 52/88/34 25/84/30 56/106/32
f 56/86/32 57/108/44 30/109/6
f 56/86/32 51/85/31 57/108/44
f 51/85/31 29/96/42 57/108/44
f 42/83/29 55/97/43 29/96/42
f 42/83/29 49/78/7 55/97/43
f 49/78/7 28/93/39 55/97/43
f 50/82/1 54/94/40 28/93/39
f 50/82/1 47/75/10 54/94/40
f 47/75/10 27/90/36 54/94/40
f 48/81/28 53/91/37 27/90/36
f 48/81/28 45/72/9 53/91/37
f 45/72/9 26/105/33 53/91/37
f 46/80/27 52/88/34 26/87/33
f 46/80/27 43/69/3 52/88/34
f 43/69/3 25/84/30 52/88/34
f 44/79/26 51/85/31 25/84/30
f 44/79/26 41/66/8 51/85/31
f 41/66/8 29/96/42 51/85/31
f 49/78/7 50/82/1 28/93/39
f 49/78/7 40/77/25 50/82/1
f 40/77/25 23/73/22 50/82/1
f 47/75/10 48/81/28 27/90/36
f 47/75/10 39/74/23 48/81/28
f 39/74/23 22/70/20 48/81/28
f 45/72/9 46/110/27 26/105/33
f 45/72/9 37/71/21 46/110/27
f 37/71/21 21/111/18 46/110/27
f 43/69/3 44/79/26 25/84/30
f 43/69/3 33/68/19 44/79/26
f 33/68/19 20/54/13 44/79/26
f 41/66/8 42/83/29 29/96/42
f 41/66/8 34/56/14 42/83/29
f 34/56/14 24/76/24 42/83/29
f 35/65/17 40/77/25 24/76/24
f 35/65/17 38/64/16 40/77/25
f 38/64/16 23/73/22 40/77/25
f 38/62/16 39/74/23 23/73/22
f 38/62/16 36/61/15 39/74/23
f 36/61/15 22/70/20 39/74/23
f 36/59/15 37/71/21 22/70/20
f 36/59/15 31/58/12 37/71/21
f 31/58/12 21/111/18 37/71/21
f 34/56/14 35/112/17 24/76/24
f 34/56/14 32/55/11 35/112/17
f 32/55/11 19/113/5 35/112/17
f 31/53/12 33/68/19 21/67/18
f 31/53/12 32/52/11 33/68/19
f 32/52/11 20/54/13 33/68/19
