# Blender v3.4.1 OBJ File: 'decoratives_and_entities.blend'
# www.blender.org
o Duck_Body_Cube.044
v -0.675516 -0.238116 -0.166263
v -0.158322 -0.655416 -0.166263
v -0.429811 -0.533192 -0.166263
v -0.326056 0.655416 -0.166263
v -0.897472 0.238116 -0.166263
v -0.730108 0.533192 -0.166263
v -0.135528 -0.561054 -0.811467
v -0.578260 -0.203834 -0.811467
v -0.367930 -0.456427 -0.811467
v -0.768260 0.203834 -0.811467
v -0.279113 0.561054 -0.811467
v -0.624992 0.456427 -0.811467
v 0.158322 -0.655416 -0.166263
v 0.675516 -0.238116 -0.166263
v 0.429811 -0.533192 -0.166263
v 0.897472 0.238116 -0.166263
v 0.326056 0.655416 -0.166263
v 0.730108 0.533192 -0.166263
v 0.578260 -0.203834 -0.811467
v 0.135528 -0.561054 -0.811467
v 0.367930 -0.456427 -0.811467
v 0.279113 0.561054 -0.811467
v 0.768260 0.203834 -0.811467
v 0.624992 0.456427 -0.811467
v -0.167655 -0.694055 0.295963
v -0.455150 -0.564625 0.295963
v -0.715340 -0.252154 0.295963
v -0.773150 0.564625 0.295963
v -0.345278 0.694055 0.295963
v -0.950380 0.252154 0.295963
v 0.455150 -0.564625 0.295963
v 0.167655 -0.694055 0.295963
v 0.715340 -0.252154 0.295963
v 0.345278 0.694055 0.295963
v 0.773150 0.564625 0.295963
v 0.950380 0.252154 0.295963
v -0.157730 -0.652967 0.758213
v -0.428205 -0.531199 0.758213
v -0.672992 -0.237226 0.758213
v -0.727379 0.531199 0.758213
v -0.324838 0.652967 0.758213
v -0.894118 0.237226 0.758213
v 0.428205 -0.531199 0.758213
v 0.157730 -0.652967 0.758213
v 0.672992 -0.237226 0.758213
v 0.324838 0.652967 0.758213
v 0.727379 0.531199 0.758213
v 0.894118 0.237226 0.758213
v 0.733021 0.223739 1.364271
v 0.596325 0.513702 1.364271
v 0.266311 0.613530 1.364271
v 0.551737 -0.165230 1.364271
v 0.129311 -0.506065 1.364271
v 0.351054 -0.406237 1.364271
v -0.733021 0.223739 1.364271
v -0.266311 0.613530 1.364271
v -0.596325 0.513702 1.364271
v -0.551737 -0.165230 1.364271
v -0.351054 -0.406237 1.364271
v -0.129311 -0.506065 1.364271
v -0.259919 -0.322436 -1.239042
v -0.095741 -0.396348 -1.239042
v -0.408503 -0.143995 -1.239042
v -0.197175 0.396348 -1.239042
v -0.441516 0.322436 -1.239042
v -0.542726 0.143995 -1.239042
v 0.095741 -0.396348 -1.239042
v 0.259919 -0.322436 -1.239042
v 0.408503 -0.143995 -1.239042
v 0.441516 0.322436 -1.239042
v 0.197175 0.396348 -1.239042
v 0.542726 0.143995 -1.239042
v -0.220239 -0.197270 1.778518
v -0.374114 0.398110 1.778518
v 0.220239 -0.197270 1.778518
v 0.374114 0.398110 1.778518
v -0.081125 -0.259899 1.778518
v 0.081125 -0.259899 1.778518
v -0.459872 0.197955 1.778518
v -0.346140 -0.046071 1.778518
v 0.459872 0.197955 1.778518
v 0.346140 -0.046071 1.778518
v -0.167074 0.460739 1.778518
v 0.167074 0.460739 1.778518
v -0.151201 -0.187569 -1.480657
v -0.055695 -0.230565 -1.480657
v -0.237636 -0.083766 -1.480657
v -0.114701 0.230565 -1.480657
v -0.256840 0.187569 -1.480657
v -0.315716 0.083766 -1.480657
v 0.055695 -0.230565 -1.480657
v 0.151201 -0.187569 -1.480657
v 0.237636 -0.083766 -1.480657
v 0.256840 0.187569 -1.480657
v 0.114701 0.230565 -1.480657
v 0.315716 0.083766 -1.480657
v -0.050864 -0.096134 1.899035
v -0.138086 -0.056867 1.899035
v -0.217024 0.037933 1.899035
v -0.234563 0.334689 1.899035
v -0.104753 0.373956 1.899035
v -0.288332 0.190933 1.899035
v 0.138086 -0.056867 1.899035
v 0.050864 -0.096134 1.899035
v 0.217024 0.037933 1.899035
v 0.104753 0.373956 1.899035
v 0.234563 0.334689 1.899035
v 0.288332 0.190933 1.899035
v -0.021653 0.024796 1.972764
v -0.058782 0.041512 1.972764
v -0.092386 0.081867 1.972764
v -0.099852 0.187354 1.972764
v -0.044593 0.204070 1.972764
v -0.122741 0.146998 1.972764
v 0.058782 0.041512 1.972764
v 0.021653 0.024796 1.972764
v 0.092386 0.081867 1.972764
v 0.044593 0.204070 1.972764
v 0.099852 0.187354 1.972764
v 0.122741 0.146998 1.972764
vt 0.204587 0.750000
vt 0.125000 0.750000
vt 0.125000 0.750000
vt 0.545413 0.500000
vt 0.454587 0.750000
vt 0.454587 0.500000
vt 0.795413 0.500000
vt 0.704587 0.750000
vt 0.704587 0.500000
vt 0.454587 0.000000
vt 0.545413 0.250000
vt 0.454587 0.250000
vt 0.375000 0.500000
vt 0.454587 0.500000
vt 0.204587 0.500000
vt 0.125000 0.500000
vt 0.375000 0.250000
vt 0.795413 0.750000
vt 0.875000 0.500000
vt 0.875000 0.750000
vt 0.625000 0.250000
vt 0.545413 0.000000
vt 0.625000 0.000000
vt 0.295413 0.500000
vt 0.375000 0.750000
vt 0.295413 0.750000
vt 0.375000 0.500000
vt 0.625000 0.500000
vt 0.545413 0.750000
vt 0.204587 0.750000
vt 0.125000 0.750000
vt 0.625000 0.750000
vt 0.545413 0.750000
vt 0.704587 0.750000
vt 0.625000 0.750000
vt 0.454587 0.000000
vt 0.545413 0.000000
vt 0.795413 0.750000
vt 0.375000 0.750000
vt 0.295413 0.750000
vt 0.625000 0.000000
vt 0.454587 0.750000
vt 0.375000 0.000000
vt 0.204587 0.750000
vt 0.204587 0.750000
vt 0.125000 0.750000
vt 0.625000 0.750000
vt 0.545413 0.750000
vt 0.295413 0.750000
vt 0.795413 0.750000
vt 0.704587 0.750000
vt 0.375000 0.000000
vt 0.454587 0.000000
vt 0.375000 0.750000
vt 0.875000 0.750000
vt 0.545413 0.000000
vt 0.625000 0.000000
vt 0.454587 0.750000
vt 0.545413 0.000000
vt 0.625000 0.000000
vt 0.625000 0.750000
vt 0.625000 0.000000
vt 0.295413 0.750000
vt 0.704587 0.750000
vt 0.875000 0.750000
vt 0.795413 0.750000
vt 0.545413 0.750000
vt 0.375000 0.750000
vt 0.454587 0.750000
vt 0.375000 0.000000
vt 0.454587 0.000000
vt 0.125000 0.500000
vt 0.204587 0.500000
vt 0.204587 0.500000
vt 0.875000 0.500000
vt 0.295413 0.500000
vt 0.795413 0.500000
vt 0.545413 0.250000
vt 0.454587 0.250000
vt 0.375000 0.250000
vt 0.625000 0.500000
vt 0.704587 0.500000
vt 0.545413 0.500000
vt 0.625000 0.250000
vt 0.875000 0.750000
vt 0.795413 0.750000
vt 0.625000 0.750000
vt 0.545413 0.750000
vt 0.204587 0.750000
vt 0.125000 0.750000
vt 0.545413 0.000000
vt 0.704587 0.750000
vt 0.295413 0.750000
vt 0.454587 0.750000
vt 0.454587 0.750000
vt 0.375000 0.000000
vt 0.454587 0.000000
vt 0.398310 0.476690
vt 0.375000 0.420413
vt 0.398310 0.273310
vt 0.625000 0.500000
vt 0.295413 0.500000
vt 0.375000 0.500000
vt 0.545413 0.500000
vt 0.375000 0.250000
vt 0.454587 0.500000
vt 0.875000 0.500000
vt 0.545413 0.250000
vt 0.454587 0.250000
vt 0.704587 0.500000
vt 0.625000 0.250000
vt 0.795413 0.500000
vt 0.375000 0.750000
vt 0.375000 0.750000
vt 0.375000 0.750000
vt 0.204587 0.750000
vt 0.125000 0.750000
vt 0.625000 0.750000
vt 0.545413 0.750000
vt 0.295413 0.750000
vt 0.704587 0.750000
vt 0.375000 0.000000
vt 0.454587 0.000000
vt 0.875000 0.750000
vt 0.795413 0.750000
vt 0.545413 0.000000
vt 0.625000 0.000000
vt 0.454587 0.750000
vt 0.704587 0.750000
vt 0.454587 0.000000
vt 0.875000 0.750000
vt 0.795413 0.750000
vt 0.545413 0.000000
vt 0.625000 0.750000
vt 0.625000 0.000000
vt 0.545413 0.750000
vt 0.204587 0.750000
vt 0.125000 0.750000
vt 0.295413 0.750000
vt 0.375000 0.000000
vt 0.875000 0.750000
vt 0.375000 0.000000
vt 0.125000 0.500000
vt 0.375000 0.329587
vt 0.625000 0.329587
vt 0.601690 0.273310
vt 0.625000 0.420413
vt 0.601690 0.476690
vn -0.2086 -0.9710 -0.1168
vn -0.6053 -0.7960 0.0027
vn -0.6008 -0.7906 -0.1185
vn 0.8761 -0.4083 -0.2564
vn 0.8385 -0.5312 -0.1211
vn 0.8148 -0.5149 -0.2663
vn -0.1436 0.9533 -0.2656
vn 0.1461 0.9819 -0.1207
vn 0.1436 0.9533 -0.2656
vn -0.8385 -0.5312 -0.1211
vn -0.8761 -0.4083 -0.2564
vn -0.8148 -0.5149 -0.2663
vn 0.5326 -0.7010 -0.4743
vn 0.7390 -0.4683 -0.4844
vn -0.2032 -0.9450 -0.2565
vn -0.5844 -0.7687 -0.2598
vn -0.1461 0.9819 -0.1207
vn -0.2795 0.9240 -0.2608
vn -0.2873 0.9499 -0.1234
vn -0.8206 0.4654 -0.3318
vn -0.8594 0.4875 -0.1542
vn -0.8593 0.4874 -0.1548
vn 0.2032 -0.9450 -0.2565
vn 0.6008 -0.7906 -0.1185
vn 0.2086 -0.9710 -0.1168
vn 0.5844 -0.7687 -0.2598
vn 0.2795 0.9240 -0.2608
vn 0.8206 0.4654 -0.3318
vn 0.8594 0.4875 -0.1542
vn 0.8219 0.4662 -0.3274
vn -0.2066 -0.9645 0.1642
vn -0.5956 -0.7867 0.1623
vn 0.8593 0.4874 -0.1548
vn 0.8698 0.4934 0.0035
vn 0.1490 0.9888 0.0028
vn 0.2873 0.9499 -0.1234
vn 0.2895 0.9572 0.0028
vn -0.8997 -0.4193 -0.1217
vn -0.8454 -0.5342 0.0028
vn -0.9064 -0.4224 0.0027
vn -0.1490 0.9888 0.0028
vn 0.6053 -0.7960 0.0027
vn 0.2102 -0.9776 0.0027
vn -0.8698 0.4934 0.0035
vn 0.8454 -0.5342 0.0028
vn 0.8997 -0.4193 -0.1217
vn -0.2102 -0.9776 0.0027
vn -0.1944 -0.9059 0.3762
vn -0.5617 -0.7404 0.3692
vn 0.8619 0.4760 0.1748
vn 0.8563 0.4857 0.1758
vn 0.2066 -0.9645 0.1642
vn -0.1482 0.9852 0.0865
vn 0.1482 0.9852 0.0865
vn -0.8332 -0.5293 0.1599
vn 0.5956 -0.7867 0.1623
vn -0.2883 0.9529 0.0940
vn -0.8952 -0.4172 0.1569
vn 0.2883 0.9529 0.0940
vn -0.8619 0.4760 0.1748
vn 0.8952 -0.4172 0.1569
vn 0.8332 -0.5293 0.1599
vn -0.8406 0.4060 0.3585
vn -0.8411 0.3965 0.3679
vn 0.2829 0.9352 0.2129
vn -0.5128 0.5988 0.6152
vn 0.1944 -0.9059 0.3762
vn 0.1453 0.9634 0.2251
vn -0.2829 0.9352 0.2129
vn -0.1453 0.9634 0.2251
vn -0.8505 -0.3964 0.3458
vn 0.8406 0.4060 0.3585
vn 0.5617 -0.7404 0.3692
vn 0.8505 -0.3964 0.3458
vn 0.7874 -0.4990 0.3618
vn -0.7874 -0.4990 0.3618
vn -0.5326 -0.7010 -0.4743
vn -0.1698 -0.7992 -0.5765
vn -0.1854 -0.8634 -0.4693
vn -0.5140 0.6533 -0.5559
vn 0.1854 -0.8634 -0.4693
vn -0.1286 0.8661 -0.4830
vn -0.8010 -0.3733 -0.4681
vn -0.7390 -0.4683 -0.4844
vn 0.5140 0.6533 -0.5559
vn 0.1286 0.8661 -0.4830
vn 0.8010 -0.3733 -0.4681
vn -0.8219 0.4662 -0.3274
vn -0.7144 0.4052 -0.5704
vn -0.1289 0.8586 0.4961
vn 0.5128 0.5988 0.6152
vn 0.7419 -0.0211 0.6701
vn -0.1568 -0.7307 0.6645
vn -0.4573 -0.6015 0.6551
vn -0.7419 -0.0211 0.6701
vn 0.1289 0.8586 0.4961
vn 0.1568 -0.7307 0.6645
vn 0.4761 -0.2976 0.8275
vn 0.6434 -0.4093 0.6469
vn -0.6434 -0.4093 0.6469
vn 0.0000 0.0000 -1.0000
vn 0.7144 0.4052 -0.5704
vn 0.4313 0.6063 -0.6681
vn 0.1698 -0.7992 -0.5765
vn 0.4900 -0.6486 -0.5825
vn 0.7264 -0.3386 -0.5981
vn -0.4900 -0.6486 -0.5825
vn 0.6773 -0.4410 -0.5889
vn -0.4313 0.6063 -0.6681
vn -0.7264 -0.3386 -0.5981
vn -0.6773 -0.4410 -0.5889
vn 0.1031 0.8034 -0.5865
vn -0.6337 0.3594 -0.6850
vn -0.1031 0.8034 -0.5865
vn 0.4573 -0.6015 0.6551
vn 0.1778 -0.2361 0.9553
vn 0.3425 -0.4405 0.8298
vn -0.1178 -0.5403 0.8332
vn -0.3425 -0.4405 0.8298
vn 0.3344 0.4413 0.8327
vn 0.5082 -0.0186 0.8611
vn 0.1178 -0.5403 0.8332
vn 0.0801 0.6168 0.7830
vn -0.4761 -0.2976 0.8275
vn -0.3344 0.4413 0.8327
vn -0.0801 0.6168 0.7830
vn -0.5082 -0.0186 0.8611
vn 0.2316 -0.1529 0.9607
vn 0.0273 0.2127 0.9767
vn -0.2316 -0.1529 0.9607
vn -0.1449 0.1717 0.9744
vn -0.0273 0.2127 0.9767
vn -0.2698 -0.0154 0.9628
vn 0.1449 0.1717 0.9744
vn 0.2698 -0.0154 0.9628
vn -0.0613 -0.2905 0.9549
vn -0.1778 -0.2361 0.9553
vn 0.0613 -0.2905 0.9549
vn -0.2895 0.9572 0.0028
vn 0.9064 -0.4224 0.0027
vn -0.8563 0.4857 0.1758
vn 0.8411 0.3965 0.3679
vn 0.6337 0.3594 -0.6850
s 1
f 2/1/1 26/2/2 3/3/3
f 23/4/4 14/5/5 19/6/6
f 11/7/7 17/8/8 22/9/9
f 1/10/10 10/11/11 8/12/12
f 19/6/6 68/13/13 69/14/14
f 7/15/15 3/3/3 9/16/16
f 9/17/16 1/10/10 8/12/12
f 4/18/17 12/19/18 6/20/19
f 12/21/20 5/22/21 6/23/22
f 20/24/23 15/25/24 13/26/25
f 21/27/26 14/5/5 15/25/24
f 17/8/8 24/28/27 22/9/9
f 24/28/28 16/29/29 23/4/30
f 20/24/23 2/1/1 7/15/15
f 26/2/2 37/30/31 38/31/32
f 18/32/33 36/33/34 16/29/29
f 4/18/17 34/34/35 17/8/8
f 18/32/36 34/34/35 35/35/37
f 5/22/38 27/36/39 30/37/40
f 6/20/19 29/38/41 4/18/17
f 13/26/25 31/39/42 32/40/43
f 6/23/22 30/37/44 28/41/44
f 15/25/24 33/42/45 31/39/42
f 16/29/46 33/42/45 14/5/5
f 3/43/3 27/36/39 1/10/10
f 13/26/25 25/44/47 2/1/1
f 38/31/32 60/45/48 59/46/49
f 36/33/34 47/47/50 48/48/51
f 31/39/42 44/49/52 32/40/43
f 34/34/35 41/50/53 46/51/54
f 27/36/39 38/52/32 39/53/55
f 32/40/43 37/30/31 25/44/47
f 33/42/45 43/54/56 31/39/42
f 29/38/41 40/55/57 41/50/53
f 27/36/39 42/56/58 30/37/40
f 34/34/35 47/47/59 35/35/37
f 30/37/44 40/57/60 28/41/44
f 33/42/45 48/48/61 45/58/62
f 40/57/60 55/59/63 57/60/64
f 46/51/54 50/61/65 47/47/59
f 55/59/63 74/62/66 57/60/64
f 43/54/56 53/63/67 44/49/52
f 41/50/53 51/64/68 46/51/54
f 41/50/53 57/65/69 56/66/70
f 39/53/55 55/59/71 42/56/58
f 47/47/50 49/67/72 48/48/51
f 44/49/52 60/45/48 37/30/31
f 45/58/62 54/68/73 43/54/56
f 45/58/62 49/67/74 52/69/75
f 39/53/55 59/70/49 58/71/76
f 61/72/77 86/73/78 62/74/79
f 11/7/7 65/75/80 12/19/18
f 21/27/26 67/76/81 68/13/13
f 22/9/9 64/77/82 11/7/7
f 9/16/16 62/74/79 7/15/15
f 8/12/12 66/78/83 63/79/84
f 8/12/12 61/80/77 9/17/16
f 22/9/9 70/81/85 71/82/86
f 7/15/15 67/76/81 20/24/23
f 19/6/6 72/83/87 23/4/4
f 23/4/30 70/81/85 24/28/28
f 10/11/88 65/84/80 66/78/89
f 56/66/70 74/85/66 83/86/90
f 49/67/72 76/87/91 81/88/92
f 59/46/49 77/89/93 73/90/94
f 58/71/76 79/91/95 55/59/71
f 56/66/70 84/92/96 51/64/68
f 54/68/73 78/93/97 53/63/67
f 81/88/92 105/94/98 82/95/99
f 58/71/76 73/96/94 80/97/100
f 51/64/68 76/87/91 50/61/65
f 52/69/75 81/88/92 82/95/99
f 92/98/101 91/99/101 85/100/101
f 72/83/102 94/101/103 70/81/85
f 68/13/13 91/102/104 92/103/105
f 69/14/14 96/104/106 72/83/87
f 63/79/84 85/105/107 61/80/77
f 62/74/79 91/102/104 67/76/81
f 69/14/14 92/103/105 93/106/108
f 64/77/82 89/107/109 65/75/80
f 63/79/84 90/108/110 87/109/111
f 71/82/86 94/101/103 95/110/112
f 66/78/89 89/111/109 90/108/113
f 71/82/86 88/112/114 64/77/82
f 52/69/75 75/113/115 54/68/73
f 53/63/67 77/89/93 60/45/48
f 105/94/98 115/114/116 103/115/117
f 73/90/94 97/116/118 98/117/119
f 81/88/92 107/118/120 108/119/121
f 75/113/115 104/120/122 78/93/97
f 83/86/90 106/121/123 84/92/96
f 80/97/100 98/122/119 99/123/124
f 78/93/97 97/116/118 77/89/93
f 82/95/99 103/115/117 75/113/115
f 83/86/90 100/124/125 101/125/126
f 79/91/95 99/123/124 102/126/127
f 84/92/96 107/118/120 76/87/91
f 79/91/95 100/127/125 74/62/66
f 117/128/128 118/129/129 111/130/130
f 101/125/126 112/131/131 113/132/132
f 99/123/124 114/133/133 102/126/127
f 106/121/123 119/134/134 107/118/120
f 102/126/127 112/135/131 100/127/125
f 105/94/98 120/136/135 117/128/128
f 98/117/119 109/137/136 110/138/137
f 108/119/121 119/134/134 120/136/135
f 103/115/117 116/139/138 104/120/122
f 101/125/126 118/129/129 106/121/123
f 99/123/124 110/140/137 111/130/130
f 104/120/122 109/137/136 97/116/118
f 2/1/1 25/44/47 26/2/2
f 23/4/4 16/29/46 14/5/5
f 11/7/7 4/18/17 17/8/8
f 1/10/10 5/22/38 10/11/11
f 19/6/6 21/27/26 68/13/13
f 7/15/15 2/1/1 3/3/3
f 9/17/16 3/43/3 1/10/10
f 4/18/17 11/7/7 12/19/18
f 12/21/20 10/11/88 5/22/21
f 20/24/23 21/27/26 15/25/24
f 21/27/26 19/6/6 14/5/5
f 17/8/8 18/32/36 24/28/27
f 24/28/28 18/32/33 16/29/29
f 20/24/23 13/26/25 2/1/1
f 26/2/2 25/44/47 37/30/31
f 18/32/33 35/35/34 36/33/34
f 4/18/17 29/38/41 34/34/35
f 18/32/36 17/8/8 34/34/35
f 5/22/38 1/10/10 27/36/39
f 6/20/19 28/141/139 29/38/41
f 13/26/25 15/25/24 31/39/42
f 6/23/22 5/22/21 30/37/44
f 15/25/24 14/5/5 33/42/45
f 16/29/46 36/33/140 33/42/45
f 3/43/3 26/142/2 27/36/39
f 13/26/25 32/40/43 25/44/47
f 38/31/32 37/30/31 60/45/48
f 36/33/34 35/35/34 47/47/50
f 31/39/42 43/54/56 44/49/52
f 34/34/35 29/38/41 41/50/53
f 27/36/39 26/142/2 38/52/32
f 32/40/43 44/49/52 37/30/31
f 33/42/45 45/58/62 43/54/56
f 29/38/41 28/141/139 40/55/57
f 27/36/39 39/53/55 42/56/58
f 34/34/35 46/51/54 47/47/59
f 30/37/44 42/56/141 40/57/60
f 33/42/45 36/33/140 48/48/61
f 40/57/60 42/56/141 55/59/63
f 46/51/54 51/64/68 50/61/65
f 55/59/63 79/91/95 74/62/66
f 43/54/56 54/68/73 53/63/67
f 41/50/53 56/66/70 51/64/68
f 41/50/53 40/55/57 57/65/69
f 39/53/55 58/71/76 55/59/71
f 47/47/50 50/61/142 49/67/72
f 44/49/52 53/63/67 60/45/48
f 45/58/62 52/69/75 54/68/73
f 45/58/62 48/48/61 49/67/74
f 39/53/55 38/52/32 59/70/49
f 61/72/77 85/143/107 86/73/78
f 11/7/7 64/77/82 65/75/80
f 21/27/26 20/24/23 67/76/81
f 22/9/9 71/82/86 64/77/82
f 9/16/16 61/72/77 62/74/79
f 8/12/12 10/11/11 66/78/83
f 8/12/12 63/79/84 61/80/77
f 22/9/9 24/28/27 70/81/85
f 7/15/15 62/74/79 67/76/81
f 19/6/6 69/14/14 72/83/87
f 23/4/30 72/83/102 70/81/85
f 10/11/88 12/21/20 65/84/80
f 56/66/70 57/65/69 74/85/66
f 49/67/72 50/61/142 76/87/91
f 59/46/49 60/45/48 77/89/93
f 58/71/76 80/97/100 79/91/95
f 56/66/70 83/86/90 84/92/96
f 54/68/73 75/113/115 78/93/97
f 81/88/92 108/119/121 105/94/98
f 58/71/76 59/70/49 73/96/94
f 51/64/68 84/92/96 76/87/91
f 52/69/75 49/67/74 81/88/92
f 91/99/101 86/144/101 85/100/101
f 85/100/101 87/109/101 93/106/101
f 87/109/101 90/108/101 88/145/101
f 93/106/101 87/109/101 88/145/101
f 90/108/101 89/146/101 88/145/101
f 88/145/101 95/147/101 93/106/101
f 95/147/101 94/148/101 96/104/101
f 93/106/101 95/147/101 96/104/101
f 93/106/101 92/98/101 85/100/101
f 72/83/102 96/104/143 94/101/103
f 68/13/13 67/76/81 91/102/104
f 69/14/14 93/106/108 96/104/106
f 63/79/84 87/109/111 85/105/107
f 62/74/79 86/73/78 91/102/104
f 69/14/14 68/13/13 92/103/105
f 64/77/82 88/112/114 89/107/109
f 63/79/84 66/78/83 90/108/110
f 71/82/86 70/81/85 94/101/103
f 66/78/89 65/84/80 89/111/109
f 71/82/86 95/110/112 88/112/114
f 52/69/75 82/95/99 75/113/115
f 53/63/67 78/93/97 77/89/93
f 105/94/98 117/128/128 115/114/116
f 73/90/94 77/89/93 97/116/118
f 81/88/92 76/87/91 107/118/120
f 75/113/115 103/115/117 104/120/122
f 83/86/90 101/125/126 106/121/123
f 80/97/100 73/96/94 98/122/119
f 78/93/97 104/120/122 97/116/118
f 82/95/99 105/94/98 103/115/117
f 83/86/90 74/85/66 100/124/125
f 79/91/95 80/97/100 99/123/124
f 84/92/96 106/121/123 107/118/120
f 79/91/95 102/126/127 100/127/125
f 118/129/129 113/132/132 111/130/130
f 113/132/132 112/135/131 114/133/133
f 111/130/130 113/132/132 114/133/133
f 111/130/130 110/138/137 115/114/116
f 110/138/137 109/137/136 115/114/116
f 109/137/136 116/139/138 115/114/116
f 115/114/116 117/128/128 111/130/130
f 117/128/128 120/136/135 118/129/129
f 120/136/135 119/134/134 118/129/129
f 101/125/126 100/124/125 112/131/131
f 99/123/124 111/130/130 114/133/133
f 106/121/123 118/129/129 119/134/134
f 102/126/127 114/133/133 112/135/131
f 105/94/98 108/119/121 120/136/135
f 98/117/119 97/116/118 109/137/136
f 108/119/121 107/118/120 119/134/134
f 103/115/117 115/114/116 116/139/138
f 101/125/126 113/132/132 118/129/129
f 99/123/124 98/122/119 110/140/137
f 104/120/122 116/139/138 109/137/136
