# Blender v3.4.1 OBJ File: 'decoratives_and_entities.blend'
# www.blender.org
o Duck_Body_Cube.044
v -0.675516 -0.238116 -0.166263
v -0.158322 -0.655416 -0.166263
v -0.429811 -0.533192 -0.166263
v -0.326056 0.655416 -0.166263
v -0.730108 0.533192 -0.166263
v -0.135528 -0.561054 -0.811467
v -0.578260 -0.203834 -0.811467
v -0.367930 -0.456427 -0.811467
v -0.279113 0.561054 -0.811467
v -0.624992 0.456427 -0.811467
v 0.158322 -0.655416 -0.166263
v 0.675516 -0.238116 -0.166263
v 0.429811 -0.533192 -0.166263
v 0.326056 0.655416 -0.166263
v 0.730108 0.533192 -0.166263
v 0.578260 -0.203834 -0.811467
v 0.135528 -0.561054 -0.811467
v 0.367930 -0.456427 -0.811467
v 0.279113 0.561054 -0.811467
v 0.624992 0.456427 -0.811467
v -0.167655 -0.694055 0.295963
v -0.455150 -0.564625 0.295963
v -0.715340 -0.252154 0.295963
v -0.773150 0.564625 0.295963
v -0.345278 0.694055 0.295963
v 0.455150 -0.564625 0.295963
v 0.167655 -0.694055 0.295963
v 0.715340 -0.252154 0.295963
v 0.345278 0.694055 0.295963
v 0.773150 0.564625 0.295963
v -0.157730 -0.652967 0.758213
v -0.428205 -0.531199 0.758213
v -0.672992 -0.237226 0.758213
v -0.324838 0.652967 0.758213
v 0.428205 -0.531199 0.758213
v 0.157730 -0.652967 0.758213
v 0.672992 -0.237226 0.758213
v 0.324838 0.652967 0.758213
v 0.266311 0.613530 1.364271
v 0.551737 -0.165230 1.364271
v 0.129311 -0.506065 1.364271
v 0.351054 -0.406237 1.364271
v -0.266311 0.613530 1.364271
v -0.551737 -0.165230 1.364271
v -0.351054 -0.406237 1.364271
v -0.129311 -0.506065 1.364271
v -0.259919 -0.322436 -1.239042
v -0.095741 -0.396348 -1.239042
v -0.408503 -0.143995 -1.239042
v -0.197175 0.396348 -1.239042
v -0.441516 0.322436 -1.239042
v 0.095741 -0.396348 -1.239042
v 0.259919 -0.322436 -1.239042
v 0.408503 -0.143995 -1.239042
v 0.441516 0.322436 -1.239042
v 0.197175 0.396348 -1.239042
v -0.220239 -0.197270 1.778518
v 0.220239 -0.197270 1.778518
v -0.081125 -0.259899 1.778518
v 0.081125 -0.259899 1.778518
v -0.459872 0.197955 1.778518
v -0.346140 -0.046071 1.778518
v 0.459872 0.197955 1.778518
v 0.346140 -0.046071 1.778518
v -0.167074 0.460739 1.778518
v 0.167074 0.460739 1.778518
v -0.151201 -0.187569 -1.480657
v -0.055695 -0.230565 -1.480657
v -0.237636 -0.083766 -1.480657
v -0.114701 0.230565 -1.480657
v -0.256840 0.187569 -1.480657
v -0.315716 0.083766 -1.480657
v 0.055695 -0.230565 -1.480657
v 0.151201 -0.187569 -1.480657
v 0.237636 -0.083766 -1.480657
v 0.256840 0.187569 -1.480657
v 0.114701 0.230565 -1.480657
v 0.315716 0.083766 -1.480657
v -0.050864 -0.096134 1.899035
v -0.138086 -0.056867 1.899035
v -0.217024 0.037933 1.899035
v -0.234563 0.334689 1.899035
v -0.104753 0.373956 1.899035
v -0.288332 0.190933 1.899035
v 0.138086 -0.056867 1.899035
v 0.050864 -0.096134 1.899035
v 0.217024 0.037933 1.899035
v 0.104753 0.373956 1.899035
v 0.234563 0.334689 1.899035
v 0.288332 0.190933 1.899035
v -0.021653 0.024796 1.972764
v -0.058782 0.041512 1.972764
v -0.092386 0.081867 1.972764
v -0.099852 0.187354 1.972764
v -0.044593 0.204070 1.972764
v -0.122741 0.146998 1.972764
v 0.058782 0.041512 1.972764
v 0.021653 0.024796 1.972764
v 0.092386 0.081867 1.972764
v 0.044593 0.204070 1.972764
v 0.099852 0.187354 1.972764
v 0.122741 0.146998 1.972764
v -0.858509 0.154516 -0.166263
v -0.851554 0.319072 -0.166263
v -0.722344 0.284789 -0.811467
v -0.729246 0.120125 -0.811467
v 0.851554 0.319072 -0.166263
v 0.858509 0.154516 -0.166263
v 0.729246 0.120125 -0.811467
v 0.722344 0.284789 -0.811467
v -0.911452 0.168628 0.295963
v -0.904461 0.333113 0.295963
v 0.904461 0.333113 0.295963
v 0.911452 0.168628 0.295963
v -0.855207 0.153739 0.758213
v -0.848195 0.318191 0.758213
v 0.848195 0.318191 0.758213
v 0.855207 0.153739 0.758213
v 0.694116 0.140262 1.364271
v 0.693977 0.306560 1.364271
v 0.681059 0.218834 1.443075
v -0.693977 0.306560 1.364271
v -0.694116 0.140262 1.364271
v -0.681059 0.218834 1.443075
v -0.503682 0.060222 -1.239042
v -0.496809 0.224950 -1.239042
v -0.476248 0.126358 -1.309796
v 0.496809 0.224950 -1.239042
v 0.503682 0.060222 -1.239042
v 0.476248 0.126358 -1.309796
v -0.757620 0.477883 0.758213
v -0.653378 0.553585 0.758213
v -0.733041 0.535334 0.701035
v 0.653378 0.553585 0.758213
v 0.757620 0.477883 0.758213
v 0.733041 0.535334 0.701035
v 0.522298 0.536095 1.364271
v 0.622046 0.459143 1.364271
v -0.622046 0.459143 1.364271
v -0.522298 0.536095 1.364271
v -0.300060 0.420511 1.778518
v -0.397748 0.342949 1.778518
v -0.326959 0.376680 1.819241
v 0.397748 0.342949 1.778518
v 0.300060 0.420511 1.778518
v 0.326959 0.376680 1.819241
vt 0.204587 0.750000
vt 0.125000 0.750000
vt 0.125000 0.750000
vt 0.529469 0.750000
vt 0.454587 0.750000
vt 0.454587 0.750000
vt 0.795413 0.500000
vt 0.704587 0.750000
vt 0.704587 0.500000
vt 0.529469 0.000000
vt 0.454587 0.000000
vt 0.530370 0.000000
vt 0.454587 0.500000
vt 0.375000 0.500000
vt 0.454587 0.500000
vt 0.204587 0.500000
vt 0.125000 0.500000
vt 0.375000 0.250000
vt 0.454587 0.000000
vt 0.454587 0.250000
vt 0.795413 0.750000
vt 0.875000 0.500000
vt 0.875000 0.750000
vt 0.526763 0.250000
vt 0.295413 0.500000
vt 0.375000 0.750000
vt 0.295413 0.750000
vt 0.375000 0.500000
vt 0.625000 0.500000
vt 0.526763 0.500000
vt 0.204587 0.750000
vt 0.125000 0.750000
vt 0.567248 0.750000
vt 0.570920 0.500000
vt 0.704587 0.750000
vt 0.625000 0.750000
vt 0.625000 0.750000
vt 0.570920 0.250000
vt 0.625000 0.250000
vt 0.581520 0.250000
vt 0.795413 0.750000
vt 0.375000 0.750000
vt 0.295413 0.750000
vt 0.625000 0.250000
vt 0.567248 0.000000
vt 0.625000 0.000000
vt 0.625000 0.500000
vt 0.375000 0.000000
vt 0.204587 0.750000
vt 0.204587 0.750000
vt 0.125000 0.750000
vt 0.529431 0.750000
vt 0.454587 0.750000
vt 0.295413 0.750000
vt 0.795413 0.750000
vt 0.704587 0.750000
vt 0.375000 0.000000
vt 0.454587 0.000000
vt 0.375000 0.750000
vt 0.567333 0.000000
vt 0.610566 0.000000
vt 0.625000 0.000000
vt 0.704587 0.750000
vt 0.653466 0.750000
vt 0.642853 0.750000
vt 0.610566 0.750000
vt 0.568145 0.750000
vt 0.567333 0.750000
vt 0.529431 0.000000
vt 0.875000 0.750000
vt 0.860369 0.750000
vt 0.525921 0.000000
vt 0.639631 0.750000
vt 0.625000 0.750000
vt 0.625000 0.250000
vt 0.545413 0.250000
vt 0.295413 0.750000
vt 0.568145 0.000000
vt 0.610025 0.000000
vt 0.525921 0.750000
vt 0.454587 0.750000
vt 0.375000 0.750000
vt 0.545413 0.750000
vt 0.545413 0.750000
vt 0.454587 0.750000
vt 0.375000 0.000000
vt 0.454587 0.000000
vt 0.125000 0.500000
vt 0.204587 0.500000
vt 0.204587 0.500000
vt 0.875000 0.500000
vt 0.295413 0.500000
vt 0.795413 0.500000
vt 0.566034 0.750000
vt 0.375000 0.250000
vt 0.704587 0.500000
vt 0.518993 0.500000
vt 0.518993 0.250000
vt 0.454587 0.250000
vt 0.545413 0.000000
vt 0.545413 0.000000
vt 0.603066 0.000000
vt 0.454587 0.000000
vt 0.204587 0.750000
vt 0.125000 0.750000
vt 0.875000 0.750000
vt 0.795413 0.750000
vt 0.875000 0.750000
vt 0.795413 0.750000
vt 0.704587 0.750000
vt 0.295413 0.750000
vt 0.454587 0.750000
vt 0.375000 0.000000
vt 0.603066 0.750000
vt 0.610025 0.750000
vt 0.846534 0.750000
vt 0.398310 0.476690
vt 0.375000 0.420413
vt 0.398310 0.273310
vt 0.454587 0.500000
vt 0.545413 0.500000
vt 0.295413 0.500000
vt 0.375000 0.500000
vt 0.375000 0.250000
vt 0.875000 0.500000
vt 0.545413 0.500000
vt 0.625000 0.500000
vt 0.704587 0.500000
vt 0.545413 0.250000
vt 0.795413 0.500000
vt 0.375000 0.750000
vt 0.375000 0.750000
vt 0.375000 0.750000
vt 0.204587 0.750000
vt 0.125000 0.750000
vt 0.295413 0.750000
vt 0.704587 0.750000
vt 0.375000 0.000000
vt 0.454587 0.000000
vt 0.545413 0.000000
vt 0.625000 0.750000
vt 0.625000 0.750000
vt 0.545413 0.750000
vt 0.454587 0.750000
vt 0.704587 0.750000
vt 0.454587 0.000000
vt 0.795413 0.750000
vt 0.875000 0.750000
vt 0.795413 0.750000
vt 0.545413 0.000000
vt 0.625000 0.750000
vt 0.625000 0.000000
vt 0.625000 0.000000
vt 0.545413 0.750000
vt 0.204587 0.750000
vt 0.125000 0.750000
vt 0.295413 0.750000
vt 0.375000 0.000000
vt 0.559236 0.750000
vt 0.527944 0.000000
vt 0.562116 0.250000
vt 0.581520 0.500000
vt 0.522392 0.500000
vt 0.530370 0.750000
vt 0.566034 0.000000
vt 0.625000 0.000000
vt 0.625000 0.000000
vt 0.613906 0.750000
vt 0.625000 0.000000
vt 0.625000 0.000000
vt 0.637441 0.750000
vt 0.625000 0.000000
vt 0.857147 0.750000
vt 0.875000 0.750000
vt 0.375000 0.000000
vt 0.125000 0.500000
vt 0.375000 0.329587
vt 0.454587 0.250000
vt 0.625000 0.329587
vt 0.601690 0.273310
vt 0.625000 0.420413
vt 0.601690 0.476690
vn -0.2086 -0.9710 -0.1168
vn -0.6053 -0.7960 0.0027
vn -0.6008 -0.7906 -0.1185
vn 0.9709 -0.1915 -0.1439
vn 0.8454 -0.5342 0.0028
vn 0.8385 -0.5312 -0.1211
vn -0.1436 0.9533 -0.2656
vn 0.1461 0.9819 -0.1207
vn 0.1436 0.9533 -0.2656
vn -0.9709 -0.1915 -0.1439
vn -0.8454 -0.5342 0.0028
vn -0.9822 -0.1878 0.0033
vn 0.8148 -0.5149 -0.2663
vn 0.5326 -0.7010 -0.4743
vn 0.7390 -0.4683 -0.4844
vn -0.2032 -0.9450 -0.2565
vn -0.5844 -0.7687 -0.2598
vn -0.8385 -0.5312 -0.1211
vn -0.8148 -0.5149 -0.2663
vn -0.1461 0.9819 -0.1207
vn -0.5947 0.7384 -0.3179
vn -0.6186 0.7713 -0.1497
vn -0.9333 -0.1810 -0.3103
vn 0.2032 -0.9450 -0.2565
vn 0.6008 -0.7906 -0.1185
vn 0.2086 -0.9710 -0.1168
vn 0.5844 -0.7687 -0.2598
vn 0.5947 0.7384 -0.3179
vn 0.9333 -0.1810 -0.3103
vn -0.2066 -0.9645 0.1642
vn -0.5956 -0.7867 0.1623
vn 0.9490 0.2719 -0.1594
vn 0.9049 0.2589 -0.3378
vn 0.1490 0.9888 0.0028
vn 0.6186 0.7713 -0.1497
vn 0.6298 0.7767 0.0034
vn -0.9049 0.2589 -0.3378
vn -0.5140 0.6533 -0.5559
vn -0.7927 0.2683 -0.5474
vn -0.1490 0.9888 0.0028
vn 0.6053 -0.7960 0.0027
vn 0.2102 -0.9776 0.0027
vn -0.9490 0.2719 -0.1594
vn 0.5140 0.6533 -0.5559
vn -0.2102 -0.9776 0.0027
vn -0.1944 -0.9059 0.3762
vn -0.5617 -0.7404 0.3692
vn 0.9651 -0.1935 0.1766
vn 0.8332 -0.5293 0.1599
vn 0.2066 -0.9645 0.1642
vn -0.1482 0.9852 0.0865
vn 0.1482 0.9852 0.0865
vn -0.8332 -0.5293 0.1599
vn 0.5956 -0.7867 0.1623
vn -0.9460 0.2680 0.1826
vn -0.7708 0.6007 0.2122
vn -0.6041 0.7661 0.2195
vn 0.1453 0.9634 0.2251
vn 0.3547 0.7836 0.5101
vn 0.4422 0.8503 0.2853
vn 0.7708 0.6007 0.2122
vn 0.9041 0.2549 0.3430
vn 0.9460 0.2680 0.1826
vn -0.9651 -0.1935 0.1766
vn -0.4023 0.9016 0.1589
vn -0.9105 -0.2484 0.3306
vn 0.4023 0.9016 0.1589
vn 0.6041 0.7661 0.2195
vn -0.2799 0.3935 -0.8757
vn -0.8018 0.0271 -0.5970
vn 0.1944 -0.9059 0.3762
vn -0.9041 0.2549 0.3430
vn -0.7284 0.5906 0.3474
vn 0.9105 -0.2484 0.3306
vn 0.7874 -0.4990 0.3618
vn 0.5617 -0.7404 0.3692
vn 0.8937 -0.0006 0.4487
vn 0.7402 -0.0193 0.6721
vn 0.6434 -0.4093 0.6469
vn -0.7874 -0.4990 0.3618
vn -0.5326 -0.7010 -0.4743
vn -0.1052 -0.4951 -0.8624
vn -0.1854 -0.8634 -0.4693
vn 0.1854 -0.8634 -0.4693
vn -0.1286 0.8661 -0.4830
vn 0.9614 0.2753 0.0036
vn 0.1286 0.8661 -0.4830
vn 0.8480 -0.2213 -0.4816
vn -0.8480 -0.2213 -0.4816
vn -0.7390 -0.4683 -0.4844
vn -0.8937 -0.0006 0.4487
vn -0.7402 -0.0193 0.6721
vn -0.6357 0.4489 0.6280
vn -0.6434 -0.4093 0.6469
vn -0.1568 -0.7307 0.6645
vn -0.4573 -0.6015 0.6551
vn -0.3398 0.4394 0.8316
vn -0.1289 0.8586 0.4961
vn -0.4921 0.5624 0.6645
vn -0.1453 0.9634 0.2251
vn 0.1289 0.8586 0.4961
vn 0.1568 -0.7307 0.6645
vn 0.4761 -0.2976 0.8275
vn 0.6357 0.4489 0.6280
vn 0.7284 0.5906 0.3474
vn -0.3547 0.7836 0.5101
vn 0.3050 -0.4037 -0.8626
vn 0.1052 -0.4951 -0.8624
vn -0.3050 -0.4037 -0.8626
vn 0.4039 -0.2630 -0.8762
vn 0.4896 -0.0114 -0.8719
vn 0.8018 0.0271 -0.5970
vn 0.2799 0.3935 -0.8757
vn 0.0620 0.4832 -0.8733
vn -0.4896 -0.0114 -0.8719
vn -0.0620 0.4832 -0.8733
vn 0.4573 -0.6015 0.6551
vn 0.1778 -0.2361 0.9553
vn 0.3425 -0.4405 0.8298
vn -0.1178 -0.5403 0.8332
vn -0.3425 -0.4405 0.8298
vn 0.1178 -0.5403 0.8332
vn 0.0801 0.6168 0.7830
vn -0.4761 -0.2976 0.8275
vn -0.5116 -0.0131 0.8591
vn 0.4921 0.5624 0.6645
vn 0.3398 0.4394 0.8316
vn 0.5116 -0.0131 0.8591
vn 0.2316 -0.1529 0.9607
vn 0.0273 0.2127 0.9767
vn -0.2316 -0.1529 0.9607
vn -0.0801 0.6168 0.7830
vn -0.1449 0.1717 0.9744
vn -0.0273 0.2127 0.9767
vn -0.2698 -0.0154 0.9628
vn 0.1449 0.1717 0.9744
vn 0.2698 -0.0154 0.9628
vn -0.0613 -0.2905 0.9549
vn -0.1778 -0.2361 0.9553
vn 0.0613 -0.2905 0.9549
vn 0.7927 0.2683 -0.5474
vn 0.9822 -0.1878 0.0033
vn -0.9614 0.2753 0.0036
vn -0.6298 0.7767 0.0034
vn -0.4422 0.8503 0.2853
vn -0.4039 -0.2630 -0.8762
s 1
f 2/1/1 22/2/2 3/3/3
f 108/4/4 28/5/5 12/6/6
f 9/7/7 14/8/8 19/9/9
f 103/10/10 23/11/11 111/12/12
f 16/13/13 53/14/14 54/15/15
f 6/16/16 3/3/3 8/17/17
f 8/18/17 1/19/18 7/20/19
f 4/21/20 10/22/21 5/23/22
f 1/19/18 106/24/23 7/20/19
f 17/25/24 13/26/25 11/27/26
f 18/28/27 12/6/6 13/26/25
f 14/8/8 20/29/28 19/9/9
f 109/30/29 12/6/6 16/13/13
f 17/25/24 2/1/1 6/16/16
f 22/2/2 31/31/30 32/32/31
f 20/29/28 107/33/32 110/34/33
f 4/21/20 29/35/34 14/8/8
f 15/36/35 29/35/34 30/37/36
f 105/38/37 51/39/38 126/40/39
f 5/23/22 25/41/40 4/21/20
f 11/27/26 26/42/41 27/43/42
f 10/44/21 104/45/43 5/46/22
f 13/26/25 28/5/5 26/42/41
f 110/34/33 55/47/44 20/29/28
f 3/48/3 23/11/11 1/19/18
f 11/27/26 21/49/45 2/1/1
f 32/32/31 46/50/46 45/51/47
f 28/5/5 118/52/48 37/53/49
f 26/42/41 36/54/50 27/43/42
f 29/35/34 34/55/51 38/56/52
f 23/11/11 32/57/31 33/58/53
f 27/43/42 31/31/30 21/49/45
f 28/5/5 35/59/54 26/42/41
f 116/60/55 131/61/56 133/62/57
f 39/63/58 145/64/59 137/65/60
f 135/66/61 120/67/62 117/68/63
f 23/11/11 115/69/64 111/12/12
f 34/55/51 133/70/57 132/71/65
f 33/58/53 123/72/66 115/69/64
f 38/56/52 134/73/67 136/74/68
f 71/75/69 127/76/70 51/39/38
f 35/59/54 41/77/71 36/54/50
f 34/55/51 39/63/58 38/56/52
f 131/61/56 122/78/72 139/79/73
f 136/74/68 135/66/61 117/68/63
f 37/53/49 119/80/74 40/81/75
f 36/54/50 46/50/46 31/31/30
f 37/53/49 42/82/76 35/59/54
f 121/83/77 63/84/78 64/85/79
f 33/58/53 45/86/47 44/87/80
f 47/88/81 68/89/82 48/90/83
f 9/7/7 51/91/38 10/22/21
f 18/28/27 52/92/84 53/14/14
f 19/9/9 50/93/85 9/7/7
f 8/17/17 48/90/83 6/16/16
f 15/36/35 113/94/86 107/33/32
f 7/20/19 47/95/81 8/18/17
f 19/9/9 55/47/44 56/96/87
f 6/16/16 52/92/84 17/25/24
f 38/56/52 137/65/60 134/73/67
f 16/13/13 129/97/88 109/30/29
f 7/20/19 125/98/89 49/99/90
f 124/100/91 61/101/92 142/102/93
f 62/103/94 124/100/91 44/87/80
f 45/51/47 59/104/95 57/105/96
f 82/106/97 65/107/98 143/108/99
f 43/109/100 66/110/101 39/63/58
f 42/82/76 60/111/102 41/77/71
f 63/84/78 87/112/103 64/85/79
f 44/87/80 57/113/96 62/103/94
f 144/114/104 121/83/77 138/115/105
f 43/109/100 141/116/106 65/107/98
f 74/117/107 73/118/108 67/119/109
f 54/15/15 75/120/110 78/121/111
f 53/14/14 73/122/108 74/123/107
f 49/99/90 67/124/109 47/95/81
f 48/90/83 73/122/108 52/92/84
f 54/15/15 74/123/107 75/120/110
f 50/93/85 71/125/69 51/91/38
f 130/126/112 78/121/111 76/127/113
f 56/96/87 76/127/113 77/128/114
f 125/98/89 127/76/70 72/129/115
f 56/96/87 70/130/116 50/93/85
f 40/81/75 58/131/117 42/82/76
f 41/77/71 59/104/95 46/50/46
f 87/112/103 97/132/118 85/133/119
f 57/105/96 79/134/120 80/135/121
f 58/131/117 86/136/122 60/111/102
f 65/107/98 88/137/123 66/110/101
f 62/103/94 80/138/121 81/139/124
f 60/111/102 79/134/120 59/104/95
f 64/85/79 85/133/119 58/131/117
f 142/102/93 61/101/92 84/140/125
f 61/101/92 81/139/124 84/140/125
f 146/141/126 89/142/127 90/143/128
f 66/110/101 88/137/123 89/142/127
f 99/144/129 100/145/130 93/146/131
f 83/147/132 94/148/133 95/149/134
f 81/139/124 96/150/135 84/140/125
f 88/137/123 101/151/136 89/142/127
f 84/140/125 94/152/133 82/153/97
f 87/112/103 102/154/137 99/144/129
f 80/135/121 91/155/138 92/156/139
f 90/143/128 101/151/136 102/154/137
f 85/133/119 98/157/140 86/136/122
f 83/147/132 100/145/130 88/137/123
f 81/139/124 92/158/139 93/146/131
f 86/136/122 91/155/138 79/134/120
f 119/80/74 120/159/62 121/83/77
f 122/78/72 123/160/66 124/100/91
f 125/98/89 126/161/39 127/76/70
f 128/162/141 129/163/88 130/126/112
f 103/10/10 105/38/37 106/24/23
f 108/4/4 110/34/33 107/33/32
f 114/164/142 107/33/32 113/94/86
f 104/45/43 111/12/12 112/165/143
f 114/164/142 117/68/63 118/52/48
f 116/60/55 111/12/12 115/69/64
f 122/78/72 115/69/64 123/72/66
f 120/67/62 118/52/48 117/68/63
f 126/40/39 106/24/23 105/38/37
f 128/162/141 109/30/29 129/97/88
f 5/46/22 112/165/143 24/166/144
f 131/61/56 132/167/65 133/62/57
f 134/73/67 135/168/61 136/74/68
f 141/169/106 142/102/93 143/170/99
f 144/114/104 145/171/59 146/141/126
f 139/79/73 132/167/65 131/61/56
f 134/73/67 138/115/105 135/66/61
f 144/114/104 137/65/60 145/64/59
f 140/172/145 142/102/93 141/169/106
f 34/55/51 140/173/145 43/109/100
f 2/1/1 21/49/45 22/2/2
f 108/4/4 114/164/142 28/5/5
f 9/7/7 4/21/20 14/8/8
f 103/10/10 1/19/18 23/11/11
f 16/13/13 18/28/27 53/14/14
f 6/16/16 2/1/1 3/3/3
f 8/18/17 3/48/3 1/19/18
f 4/21/20 9/7/7 10/22/21
f 1/19/18 103/10/10 106/24/23
f 17/25/24 18/28/27 13/26/25
f 18/28/27 16/13/13 12/6/6
f 14/8/8 15/36/35 20/29/28
f 109/30/29 108/4/4 12/6/6
f 17/25/24 11/27/26 2/1/1
f 22/2/2 21/49/45 31/31/30
f 20/29/28 15/36/35 107/33/32
f 4/21/20 25/41/40 29/35/34
f 15/36/35 14/8/8 29/35/34
f 105/38/37 10/44/21 51/39/38
f 5/23/22 24/174/144 25/41/40
f 11/27/26 13/26/25 26/42/41
f 10/44/21 105/38/37 104/45/43
f 13/26/25 12/6/6 28/5/5
f 110/34/33 128/162/141 55/47/44
f 3/48/3 22/175/2 23/11/11
f 11/27/26 27/43/42 21/49/45
f 32/32/31 31/31/30 46/50/46
f 28/5/5 114/164/142 118/52/48
f 26/42/41 35/59/54 36/54/50
f 29/35/34 25/41/40 34/55/51
f 23/11/11 22/175/2 32/57/31
f 27/43/42 36/54/50 31/31/30
f 28/5/5 37/53/49 35/59/54
f 133/62/57 24/166/144 112/165/143
f 112/165/143 116/60/55 133/62/57
f 39/63/58 66/110/101 145/64/59
f 135/66/61 138/115/105 120/67/62
f 23/11/11 33/58/53 115/69/64
f 34/55/51 25/41/40 133/70/57
f 25/41/40 24/174/144 133/70/57
f 33/58/53 44/87/80 123/72/66
f 136/74/68 30/37/36 29/35/34
f 29/35/34 38/56/52 136/74/68
f 72/129/115 127/76/70 71/75/69
f 127/76/70 126/40/39 51/39/38
f 35/59/54 42/82/76 41/77/71
f 34/55/51 43/109/100 39/63/58
f 131/61/56 116/60/55 122/78/72
f 117/68/63 113/94/86 136/74/68
f 113/94/86 30/37/36 136/74/68
f 37/53/49 118/52/48 119/80/74
f 36/54/50 41/77/71 46/50/46
f 37/53/49 40/81/75 42/82/76
f 64/85/79 40/81/75 121/83/77
f 40/81/75 119/80/74 121/83/77
f 33/58/53 32/57/31 45/86/47
f 47/88/81 67/176/109 68/89/82
f 9/7/7 50/93/85 51/91/38
f 18/28/27 17/25/24 52/92/84
f 19/9/9 56/96/87 50/93/85
f 8/17/17 47/88/81 48/90/83
f 15/36/35 30/37/36 113/94/86
f 7/20/19 49/99/90 47/95/81
f 19/9/9 20/29/28 55/47/44
f 6/16/16 48/90/83 52/92/84
f 38/56/52 39/63/58 137/65/60
f 16/13/13 54/15/15 129/97/88
f 7/20/19 106/24/23 125/98/89
f 142/102/93 139/79/73 124/100/91
f 139/79/73 122/78/72 124/100/91
f 61/101/92 124/100/91 62/103/94
f 124/100/91 123/72/66 44/87/80
f 45/51/47 46/50/46 59/104/95
f 83/147/132 65/107/98 82/106/97
f 65/107/98 141/116/106 143/108/99
f 43/109/100 65/107/98 66/110/101
f 42/82/76 58/131/117 60/111/102
f 63/84/78 90/143/128 87/112/103
f 44/87/80 45/86/47 57/113/96
f 63/84/78 121/83/77 144/114/104
f 121/83/77 120/67/62 138/115/105
f 43/109/100 140/173/145 141/116/106
f 73/118/108 68/177/82 67/119/109
f 67/119/109 69/178/146 75/120/110
f 69/178/146 72/129/115 70/179/116
f 75/120/110 69/178/146 70/179/116
f 72/129/115 71/180/69 70/179/116
f 70/179/116 77/181/114 75/120/110
f 77/181/114 76/182/113 78/121/111
f 75/120/110 77/181/114 78/121/111
f 75/120/110 74/117/107 67/119/109
f 78/121/111 130/126/112 129/97/88
f 129/97/88 54/15/15 78/121/111
f 53/14/14 52/92/84 73/122/108
f 49/99/90 69/178/146 67/124/109
f 48/90/83 68/89/82 73/122/108
f 54/15/15 53/14/14 74/123/107
f 50/93/85 70/130/116 71/125/69
f 76/127/113 55/47/44 130/126/112
f 55/47/44 128/162/141 130/126/112
f 56/96/87 55/47/44 76/127/113
f 69/178/146 49/99/90 72/129/115
f 49/99/90 125/98/89 72/129/115
f 56/96/87 77/128/114 70/130/116
f 40/81/75 64/85/79 58/131/117
f 41/77/71 60/111/102 59/104/95
f 87/112/103 99/144/129 97/132/118
f 57/105/96 59/104/95 79/134/120
f 58/131/117 85/133/119 86/136/122
f 65/107/98 83/147/132 88/137/123
f 62/103/94 57/113/96 80/138/121
f 60/111/102 86/136/122 79/134/120
f 64/85/79 87/112/103 85/133/119
f 82/153/97 143/170/99 84/140/125
f 143/170/99 142/102/93 84/140/125
f 61/101/92 62/103/94 81/139/124
f 90/143/128 63/84/78 144/114/104
f 144/114/104 146/141/126 90/143/128
f 89/142/127 146/141/126 66/110/101
f 146/141/126 145/64/59 66/110/101
f 100/145/130 95/149/134 93/146/131
f 95/149/134 94/152/133 96/150/135
f 93/146/131 95/149/134 96/150/135
f 93/146/131 92/156/139 97/132/118
f 92/156/139 91/155/138 97/132/118
f 91/155/138 98/157/140 97/132/118
f 97/132/118 99/144/129 93/146/131
f 99/144/129 102/154/137 100/145/130
f 102/154/137 101/151/136 100/145/130
f 83/147/132 82/106/97 94/148/133
f 81/139/124 93/146/131 96/150/135
f 88/137/123 100/145/130 101/151/136
f 84/140/125 96/150/135 94/152/133
f 87/112/103 90/143/128 102/154/137
f 80/135/121 79/134/120 91/155/138
f 90/143/128 89/142/127 101/151/136
f 85/133/119 97/132/118 98/157/140
f 83/147/132 95/149/134 100/145/130
f 81/139/124 80/138/121 92/158/139
f 86/136/122 98/157/140 91/155/138
f 103/10/10 104/45/43 105/38/37
f 108/4/4 109/30/29 110/34/33
f 114/164/142 108/4/4 107/33/32
f 104/45/43 103/10/10 111/12/12
f 114/164/142 113/94/86 117/68/63
f 116/60/55 112/165/143 111/12/12
f 122/78/72 116/60/55 115/69/64
f 120/67/62 119/80/74 118/52/48
f 126/40/39 125/98/89 106/24/23
f 128/162/141 110/34/33 109/30/29
f 5/46/22 104/45/43 112/165/143
f 139/79/73 140/172/145 132/167/65
f 134/73/67 137/65/60 138/115/105
f 144/114/104 138/115/105 137/65/60
f 140/172/145 139/79/73 142/102/93
f 34/55/51 132/71/65 140/173/145
