# Blender v3.4.1 OBJ File: 'decoratives_and_entities.blend'
# www.blender.org
o Duck_Beak_Cylinder.047
v -0.044748 1.195402 0.367249
v 0.108663 1.195402 0.326143
v -0.198158 1.195402 0.326143
v -0.044748 1.469709 0.470455
v 0.091970 1.469709 0.433822
v -0.181465 1.469709 0.433822
v -0.044748 1.174822 0.684749
v 0.108663 1.182275 0.644324
v -0.198158 1.182275 0.644324
v -0.044748 1.352843 0.666792
v 0.091970 1.359486 0.630767
v -0.181465 1.359486 0.630767
v -0.044748 1.193845 0.927244
v 0.085392 1.202735 0.893935
v -0.174887 1.202735 0.893935
v -0.044748 1.279662 0.925497
v 0.071231 1.287585 0.895814
v -0.160726 1.287585 0.895814
v -0.044748 1.214917 1.152467
v 0.052972 1.220949 1.119158
v -0.142467 1.220949 1.119158
v -0.044748 1.273148 1.150720
v 0.042339 1.278524 1.121036
v -0.131834 1.278524 1.121036
vt 0.416667 1.000000
vt 0.500000 1.000000
vt 0.416667 1.000000
vt 0.583333 1.000000
vt 0.583333 1.000000
vt 0.500000 1.000000
vt 0.416667 1.000000
vt 0.500000 1.000000
vt 0.416667 1.000000
vt 0.416667 1.000000
vt 0.500000 1.000000
vt 0.583333 1.000000
vt 0.583333 1.000000
vt 0.500000 1.000000
vt 0.416667 1.000000
vt 0.500000 1.000000
vt 0.416667 1.000000
vt 0.416667 1.000000
vt 0.583333 1.000000
vt 0.583333 1.000000
vt 0.500000 1.000000
vt 0.500000 1.000000
vt 0.583333 1.000000
vt 0.583333 1.000000
vn 0.2433 0.3416 -0.9078
vn -0.0000 0.3521 -0.9359
vn -0.2433 0.3416 -0.9078
vn -0.0000 0.9283 0.3719
vn 0.0176 0.9835 0.1798
vn 0.0000 0.9911 0.1334
vn -0.9931 0.1043 0.0534
vn -0.9828 0.1508 0.1071
vn -0.9953 0.0837 0.0479
vn 0.0000 0.8681 0.4964
vn -0.0725 0.9099 0.4085
vn -0.0000 -0.9989 -0.0477
vn -0.0406 -0.9992 0.0005
vn 0.0110 -0.9991 -0.0412
vn 0.9975 0.0690 0.0175
vn 0.9953 0.0837 0.0479
vn 0.9931 0.1043 0.0534
vn 0.0725 0.9099 0.4085
vn 0.1298 0.8653 0.4843
vn 0.0406 -0.9992 0.0005
vn 0.0000 -0.9997 0.0225
vn -0.9975 0.0690 0.0175
vn -0.9984 0.0498 0.0279
vn 0.0540 0.9981 0.0298
vn 0.0000 0.9996 0.0289
vn -0.9762 0.1725 0.1313
vn -0.9755 0.1758 0.1322
vn -0.0858 -0.9926 0.0860
vn 0.9828 0.1508 0.1071
vn 0.9816 0.1616 0.1013
vn -0.0176 0.9835 0.1798
vn 0.0858 -0.9926 0.0860
vn 0.0000 -0.9962 0.0871
vn -0.3209 0.0284 0.9467
vn 0.3209 0.0284 0.9467
vn -0.0925 -0.9914 0.0929
vn 0.9762 0.1725 0.1313
vn -0.0540 0.9981 0.0298
vn 0.0925 -0.9914 0.0929
vn 0.0000 -0.9957 0.0932
vn -0.9816 0.1616 0.1013
vn -0.1298 0.8653 0.4843
vn 0.9984 0.0498 0.0279
vn -0.0110 -0.9991 -0.0412
vn 0.9755 0.1758 0.1322
s 1
f 6/1/1 1/2/2 3/3/1
f 1/2/2 5/4/3 2/5/3
f 10/6/4 18/7/5 16/8/6
f 9/9/7 18/7/8 12/10/9
f 4/11/10 12/10/11 10/6/4
f 1/2/12 9/9/13 3/3/14
f 2/5/15 11/12/16 8/13/17
f 4/11/10 11/12/18 5/4/19
f 1/2/12 8/13/20 7/14/21
f 3/3/22 12/10/9 6/1/23
f 16/8/6 24/15/24 22/16/25
f 18/7/8 21/17/26 24/15/27
f 7/14/21 15/18/28 9/9/13
f 8/13/17 17/19/29 14/20/30
f 10/6/4 17/19/31 11/12/18
f 7/14/21 14/20/32 13/21/33
f 19/22/34 24/15/34 21/17/34
f 19/22/35 23/23/35 22/16/35
f 13/21/33 21/17/36 15/18/28
f 17/19/29 20/24/37 14/20/30
f 16/8/6 23/23/38 17/19/31
f 13/21/33 20/24/39 19/22/40
f 6/1/1 4/11/2 1/2/2
f 1/2/2 4/11/2 5/4/3
f 10/6/4 12/10/11 18/7/5
f 9/9/7 15/18/41 18/7/8
f 4/11/10 6/1/42 12/10/11
f 1/2/12 7/14/21 9/9/13
f 2/5/15 5/4/43 11/12/16
f 4/11/10 10/6/4 11/12/18
f 1/2/12 2/5/44 8/13/20
f 3/3/22 9/9/7 12/10/9
f 16/8/6 18/7/5 24/15/24
f 18/7/8 15/18/41 21/17/26
f 7/14/21 13/21/33 15/18/28
f 8/13/17 11/12/16 17/19/29
f 10/6/4 16/8/6 17/19/31
f 7/14/21 8/13/20 14/20/32
f 19/22/34 22/16/34 24/15/34
f 19/22/35 20/24/35 23/23/35
f 13/21/33 19/22/40 21/17/36
f 17/19/29 23/23/45 20/24/37
f 16/8/6 22/16/25 23/23/38
f 13/21/33 14/20/32 20/24/39
