# Blender v3.4.1 OBJ File: 'decoratives_and_entities.blend'
# www.blender.org
o House_Door_Cube.024
v 1.006793 -0.995740 0.631768
v 1.006793 -0.928484 0.631768
v 1.006793 -0.995740 0.005052
v 1.006793 -0.928484 0.005052
v 1.054334 -0.995740 0.631768
v 1.054334 -0.928484 0.631768
v 1.054334 -0.995740 0.005052
v 1.054334 -0.928484 0.005052
v 1.006793 0.168407 0.631768
v 1.006793 0.235664 0.631768
v 1.006793 0.168407 0.005052
v 1.006793 0.235664 0.005052
v 1.054334 0.168407 0.631768
v 1.054334 0.235664 0.631768
v 1.054334 0.168407 0.005052
v 1.054334 0.235664 0.005052
v 1.006793 -0.383910 0.631768
v 1.006793 -0.316653 0.631768
v 1.006793 -0.383910 0.005052
v 1.006793 -0.316653 0.005052
v 1.057998 -0.387372 0.630817
v 1.057998 -0.320116 0.630817
v 1.057998 -0.387372 0.004101
v 1.057998 -0.320116 0.004101
v 0.995416 -0.342778 0.605097
v 0.995416 -0.342778 0.537840
v 0.995416 -0.969493 0.605097
v 0.995416 -0.969493 0.537841
v 1.042957 0.210837 0.594040
v 1.042957 0.210837 0.526783
v 1.042957 -0.945026 0.594040
v 1.042957 -0.945026 0.526783
v 0.995416 -0.343072 0.527301
v 0.995416 -0.342574 0.460047
v 0.995416 -0.969771 0.522661
v 0.995416 -0.969273 0.455406
v 1.041857 0.210609 0.520343
v 1.041857 0.211107 0.453088
v 1.041857 -0.945222 0.511785
v 1.041857 -0.944724 0.444530
v 0.995416 -0.342778 0.445561
v 0.995416 -0.342778 0.378305
v 0.995416 -0.969493 0.445561
v 0.995416 -0.969493 0.378305
v 1.042957 0.210837 0.434504
v 1.042957 0.210837 0.367247
v 1.042957 -0.945026 0.434504
v 1.042957 -0.945026 0.367247
v 0.995416 -0.342437 0.368279
v 0.995416 -0.343033 0.301025
v 0.995416 -0.969128 0.373836
v 0.995416 -0.969725 0.306582
v 1.043917 0.210740 0.351174
v 1.043917 0.210144 0.283920
v 1.043917 -0.945078 0.361423
v 1.043917 -0.945674 0.294169
v 0.995416 -0.342778 0.287473
v 0.995416 -0.342778 0.220216
v 0.995416 -0.969493 0.287473
v 0.995416 -0.969493 0.220216
v 1.042957 0.210837 0.276415
v 1.042957 0.210837 0.209159
v 1.042957 -0.945026 0.276415
v 1.042957 -0.945026 0.209159
v 0.995416 -0.342778 0.205393
v 0.995416 -0.342778 0.138136
v 0.995416 -0.969493 0.205393
v 0.995416 -0.969493 0.138136
v 1.040098 0.210449 0.200442
v 1.040098 0.211160 0.133189
v 1.040098 -0.945349 0.188225
v 1.040098 -0.944638 0.120972
v 0.995416 0.210837 0.112776
v 0.995416 0.210837 0.045520
v 0.995416 -0.945026 0.112776
v 0.995416 -0.945026 0.045520
v 1.042957 0.210837 0.112776
v 1.042957 0.210837 0.045520
v 1.042957 -0.945026 0.112776
v 1.042957 -0.945026 0.045520
v 1.006793 -0.396329 0.650742
v 1.006793 -0.346926 0.605105
v 1.006793 -0.968955 0.030866
v 1.006793 -0.919552 -0.014772
v 1.052803 -0.396329 0.650742
v 1.052803 -0.346926 0.605105
v 1.052803 -0.968955 0.030866
v 1.052803 -0.919552 -0.014772
v 1.006793 -0.966627 0.608448
v 1.006793 -0.916857 0.653686
v 1.006793 -0.399017 -0.016024
v 1.006793 -0.349248 0.029213
v 1.052803 -0.966627 0.608448
v 1.052803 -0.916857 0.653686
v 1.052803 -0.399017 -0.016024
v 1.052803 -0.349248 0.029213
v 1.003454 -1.000402 0.631768
v 1.003454 0.199880 0.631768
v 1.003454 -1.000402 0.005052
v 1.003454 0.199880 0.005052
v 1.026815 -1.000402 0.631768
v 1.026815 0.199880 0.631768
v 1.026815 -1.000402 0.005052
v 1.026815 0.199880 0.005052
vt 0.625000 0.000000
vt 0.375000 0.250000
vt 0.375000 0.000000
vt 0.625000 0.250000
vt 0.375000 0.500000
vt 0.625000 0.500000
vt 0.375000 0.750000
vt 0.625000 0.750000
vt 0.375000 1.000000
vt 0.125000 0.750000
vt 0.125000 0.500000
vt 0.875000 0.500000
vt 0.625000 0.000000
vt 0.375000 0.250000
vt 0.375000 0.000000
vt 0.625000 0.250000
vt 0.375000 0.500000
vt 0.625000 0.500000
vt 0.375000 0.750000
vt 0.625000 0.750000
vt 0.375000 1.000000
vt 0.125000 0.750000
vt 0.125000 0.500000
vt 0.875000 0.500000
vt 0.625000 0.000000
vt 0.375000 0.250000
vt 0.375000 0.000000
vt 0.625000 0.500000
vt 0.375000 0.500000
vt 0.375000 0.750000
vt 0.625000 0.750000
vt 0.375000 1.000000
vt 0.125000 0.500000
vt 0.125000 0.750000
vt 0.875000 0.500000
vt 0.625000 0.000000
vt 0.375000 0.250000
vt 0.375000 0.000000
vt 0.625000 0.250000
vt 0.375000 0.500000
vt 0.625000 0.500000
vt 0.375000 0.750000
vt 0.625000 1.000000
vt 0.375000 1.000000
vt 0.125000 0.750000
vt 0.125000 0.500000
vt 0.875000 0.750000
vt 0.625000 0.750000
vt 0.375000 0.000000
vt 0.625000 0.250000
vt 0.375000 0.250000
vt 0.375000 0.500000
vt 0.625000 0.500000
vt 0.375000 0.750000
vt 0.625000 1.000000
vt 0.375000 1.000000
vt 0.125000 0.750000
vt 0.125000 0.500000
vt 0.875000 0.750000
vt 0.625000 0.750000
vt 0.625000 0.000000
vt 0.375000 0.250000
vt 0.375000 0.000000
vt 0.625000 0.250000
vt 0.375000 0.500000
vt 0.625000 0.500000
vt 0.375000 0.750000
vt 0.625000 1.000000
vt 0.375000 1.000000
vt 0.125000 0.750000
vt 0.125000 0.500000
vt 0.875000 0.750000
vt 0.625000 0.750000
vt 0.625000 0.000000
vt 0.375000 0.250000
vt 0.375000 0.000000
vt 0.625000 0.250000
vt 0.375000 0.500000
vt 0.625000 0.500000
vt 0.375000 0.750000
vt 0.625000 1.000000
vt 0.375000 1.000000
vt 0.125000 0.750000
vt 0.125000 0.500000
vt 0.875000 0.750000
vt 0.625000 0.750000
vt 0.625000 0.000000
vt 0.375000 0.250000
vt 0.375000 0.000000
vt 0.625000 0.250000
vt 0.375000 0.500000
vt 0.625000 0.500000
vt 0.375000 0.750000
vt 0.625000 1.000000
vt 0.375000 1.000000
vt 0.125000 0.750000
vt 0.125000 0.500000
vt 0.875000 0.750000
vt 0.625000 0.750000
vt 0.625000 0.000000
vt 0.375000 0.250000
vt 0.375000 0.000000
vt 0.625000 0.250000
vt 0.375000 0.500000
vt 0.625000 0.500000
vt 0.375000 0.750000
vt 0.625000 1.000000
vt 0.375000 1.000000
vt 0.125000 0.750000
vt 0.125000 0.500000
vt 0.875000 0.750000
vt 0.625000 0.750000
vt 0.625000 0.000000
vt 0.375000 0.250000
vt 0.375000 0.000000
vt 0.625000 0.250000
vt 0.375000 0.500000
vt 0.625000 0.500000
vt 0.375000 0.750000
vt 0.625000 0.750000
vt 0.375000 1.000000
vt 0.125000 0.750000
vt 0.125000 0.500000
vt 0.875000 0.500000
vt 0.625000 0.000000
vt 0.375000 0.250000
vt 0.375000 0.000000
vt 0.625000 0.250000
vt 0.375000 0.500000
vt 0.625000 0.500000
vt 0.375000 0.750000
vt 0.625000 0.750000
vt 0.375000 1.000000
vt 0.125000 0.750000
vt 0.125000 0.500000
vt 0.875000 0.500000
vt 0.625000 0.000000
vt 0.375000 0.250000
vt 0.375000 0.000000
vt 0.625000 0.250000
vt 0.375000 0.500000
vt 0.625000 0.500000
vt 0.375000 0.750000
vt 0.625000 0.750000
vt 0.375000 1.000000
vt 0.125000 0.750000
vt 0.125000 0.500000
vt 0.875000 0.500000
vt 0.625000 0.000000
vt 0.375000 0.250000
vt 0.375000 0.000000
vt 0.625000 0.250000
vt 0.375000 0.500000
vt 0.625000 0.500000
vt 0.375000 0.750000
vt 0.625000 0.750000
vt 0.375000 1.000000
vt 0.125000 0.750000
vt 0.125000 0.500000
vt 0.875000 0.500000
vt 0.625000 1.000000
vt 0.875000 0.750000
vt 0.625000 1.000000
vt 0.875000 0.750000
vt 0.625000 0.250000
vt 0.625000 1.000000
vt 0.875000 0.750000
vt 0.875000 0.500000
vt 0.625000 0.000000
vt 0.875000 0.500000
vt 0.875000 0.500000
vt 0.875000 0.500000
vt 0.875000 0.500000
vt 0.875000 0.500000
vt 0.625000 1.000000
vt 0.875000 0.750000
vt 0.625000 1.000000
vt 0.875000 0.750000
vt 0.625000 1.000000
vt 0.875000 0.750000
vt 0.625000 1.000000
vt 0.875000 0.750000
vn -1.0000 0.0000 0.0000
vn 0.0000 0.0000 -1.0000
vn 1.0000 0.0000 0.0000
vn 0.0000 0.0000 1.0000
vn 0.0000 -1.0000 0.0000
vn 0.0000 1.0000 0.0000
vn -0.0186 0.0000 -0.9998
vn 0.0186 0.0000 0.9998
vn -0.0675 -0.9977 0.0000
vn 0.0675 0.9977 0.0000
vn -0.9991 0.0431 0.0000
vn -0.9991 0.0425 0.0000
vn 0.4576 -0.8892 0.0000
vn -0.9963 0.0856 0.0000
vn 0.2265 0.0000 0.9740
vn -0.2265 -0.0000 -0.9740
vn -0.9991 0.0416 0.0003
vn 0.4661 -0.8847 -0.0066
vn -0.9965 0.0836 0.0006
vn -0.9991 0.0421 0.0003
vn 0.2316 -0.0072 0.9728
vn -0.2316 0.0072 -0.9728
vn -0.9990 0.0440 -0.0004
vn -0.9991 0.0434 -0.0004
vn 0.4459 -0.8951 0.0079
vn -0.9962 0.0873 -0.0008
vn 0.2439 0.0086 0.9698
vn -0.2439 -0.0086 -0.9698
vn -0.9992 0.0404 0.0000
vn -0.9992 0.0402 0.0000
vn 0.4800 -0.8772 -0.0054
vn 0.4787 -0.8779 -0.0039
vn 0.4754 -0.8798 0.0000
vn -0.9968 0.0804 0.0008
vn 0.3541 -0.0004 0.9352
vn 0.2382 -0.0100 0.9712
vn 0.3587 0.0000 0.9335
vn -0.3541 0.0004 -0.9352
vn -0.2382 0.0100 -0.9712
vn -0.2350 0.0103 -0.9719
vn 0.0000 -0.6786 -0.7345
vn 0.0000 0.6786 0.7345
vn 0.0000 -0.7345 0.6786
vn 0.0000 0.7345 -0.6786
vn 0.0000 0.6726 -0.7400
vn 0.0000 -0.6726 0.7400
vn 0.0000 -0.7400 -0.6726
vn 0.0000 0.7400 0.6726
vn 0.4834 -0.8754 -0.0093
vn 0.2349 -0.0103 0.9720
vn -0.3586 -0.0000 -0.9335
vn 0.0000 -0.6786 -0.7346
s 1
f 2/1/1 3/2/1 1/3/1
f 4/4/2 7/5/2 3/2/2
f 8/6/3 5/7/3 7/5/3
f 6/8/4 1/9/4 5/7/4
f 7/5/5 1/10/5 3/11/5
f 4/12/6 6/8/6 8/6/6
f 10/13/1 11/14/1 9/15/1
f 12/16/2 15/17/2 11/14/2
f 16/18/3 13/19/3 15/17/3
f 14/20/4 9/21/4 13/19/4
f 15/17/5 9/22/5 11/23/5
f 12/24/6 14/20/6 16/18/6
f 18/25/1 19/26/1 17/27/1
f 19/26/7 24/28/7 23/29/7
f 24/28/3 21/30/3 23/29/3
f 22/31/8 17/32/8 21/30/8
f 19/33/9 21/30/9 17/34/9
f 20/35/10 22/31/10 24/28/10
f 26/36/11 27/37/1 25/38/12
f 28/39/13 31/40/13 27/37/13
f 32/41/3 29/42/3 31/40/3
f 29/42/14 26/43/11 25/44/12
f 31/40/15 25/45/15 27/46/15
f 32/41/16 26/47/16 30/48/16
f 33/49/17 36/50/1 35/51/1
f 36/50/18 39/52/18 35/51/18
f 40/53/3 37/54/3 39/52/3
f 37/54/19 34/55/20 33/56/17
f 39/52/21 33/57/21 35/58/21
f 40/53/22 34/59/22 38/60/22
f 42/61/11 43/62/1 41/63/12
f 44/64/13 47/65/13 43/62/13
f 48/66/3 45/67/3 47/65/3
f 45/67/14 42/68/11 41/69/12
f 47/65/15 41/70/15 43/71/15
f 48/66/16 42/72/16 46/73/16
f 50/74/23 51/75/1 49/76/24
f 52/77/25 55/78/25 51/75/25
f 56/79/3 53/80/3 55/78/3
f 53/80/26 50/81/23 49/82/24
f 55/78/27 49/83/27 51/84/27
f 56/79/28 50/85/28 54/86/28
f 58/87/11 59/88/1 57/89/12
f 60/90/13 63/91/13 59/88/13
f 64/92/3 61/93/3 63/91/3
f 61/93/14 58/94/11 57/95/12
f 63/91/15 57/96/15 59/97/15
f 64/92/16 58/98/16 62/99/16
f 66/100/29 67/101/1 65/102/30
f 68/103/31 71/104/32 67/101/33
f 72/105/3 69/106/3 71/104/3
f 69/106/34 66/107/29 65/108/30
f 71/104/35 65/109/36 67/110/37
f 72/105/38 66/111/39 70/112/40
f 74/113/1 75/114/1 73/115/1
f 76/116/5 79/117/5 75/114/5
f 80/118/3 77/119/3 79/117/3
f 78/120/6 73/121/6 77/119/6
f 79/117/4 73/122/4 75/123/4
f 76/124/2 78/120/2 80/118/2
f 82/125/1 83/126/1 81/127/1
f 84/128/41 87/129/41 83/126/41
f 88/130/3 85/131/3 87/129/3
f 86/132/42 81/133/42 85/131/42
f 87/129/43 81/134/43 83/135/43
f 84/136/44 86/132/44 88/130/44
f 90/137/1 91/138/1 89/139/1
f 92/140/45 95/141/45 91/138/45
f 96/142/3 93/143/3 95/141/3
f 94/144/46 89/145/46 93/143/46
f 95/141/47 89/146/47 91/147/47
f 92/148/48 94/144/48 96/142/48
f 98/149/1 99/150/1 97/151/1
f 100/152/2 103/153/2 99/150/2
f 104/154/3 101/155/3 103/153/3
f 102/156/4 97/157/4 101/155/4
f 103/153/5 97/158/5 99/159/5
f 100/160/6 102/156/6 104/154/6
f 2/1/1 4/4/1 3/2/1
f 4/4/2 8/6/2 7/5/2
f 8/6/3 6/8/3 5/7/3
f 6/8/4 2/161/4 1/9/4
f 7/5/5 5/7/5 1/10/5
f 4/12/6 2/162/6 6/8/6
f 10/13/1 12/16/1 11/14/1
f 12/16/2 16/18/2 15/17/2
f 16/18/3 14/20/3 13/19/3
f 14/20/4 10/163/4 9/21/4
f 15/17/5 13/19/5 9/22/5
f 12/24/6 10/164/6 14/20/6
f 18/25/1 20/165/1 19/26/1
f 19/26/7 20/165/7 24/28/7
f 24/28/3 22/31/3 21/30/3
f 22/31/8 18/166/8 17/32/8
f 19/33/9 23/29/9 21/30/9
f 20/35/10 18/167/10 22/31/10
f 26/36/11 28/39/1 27/37/1
f 28/39/13 32/41/13 31/40/13
f 32/41/3 30/48/3 29/42/3
f 29/42/14 30/48/14 26/43/11
f 31/40/15 29/42/15 25/45/15
f 32/41/16 28/168/16 26/47/16
f 33/49/17 34/169/20 36/50/1
f 36/50/18 40/53/18 39/52/18
f 40/53/3 38/60/3 37/54/3
f 37/54/19 38/60/19 34/55/20
f 39/52/21 37/54/21 33/57/21
f 40/53/22 36/170/22 34/59/22
f 42/61/11 44/64/1 43/62/1
f 44/64/13 48/66/13 47/65/13
f 48/66/3 46/73/3 45/67/3
f 45/67/14 46/73/14 42/68/11
f 47/65/15 45/67/15 41/70/15
f 48/66/16 44/171/16 42/72/16
f 50/74/23 52/77/1 51/75/1
f 52/77/25 56/79/25 55/78/25
f 56/79/3 54/86/3 53/80/3
f 53/80/26 54/86/26 50/81/23
f 55/78/27 53/80/27 49/83/27
f 56/79/28 52/172/28 50/85/28
f 58/87/11 60/90/1 59/88/1
f 60/90/13 64/92/13 63/91/13
f 64/92/3 62/99/3 61/93/3
f 61/93/14 62/99/14 58/94/11
f 63/91/15 61/93/15 57/96/15
f 64/92/16 60/173/16 58/98/16
f 66/100/29 68/103/1 67/101/1
f 68/103/31 72/105/49 71/104/32
f 72/105/3 70/112/3 69/106/3
f 69/106/34 70/112/34 66/107/29
f 71/104/35 69/106/50 65/109/36
f 72/105/38 68/174/51 66/111/39
f 74/113/1 76/116/1 75/114/1
f 76/116/5 80/118/5 79/117/5
f 80/118/3 78/120/3 77/119/3
f 78/120/6 74/175/6 73/121/6
f 79/117/4 77/119/4 73/122/4
f 76/124/2 74/176/2 78/120/2
f 82/125/1 84/128/1 83/126/1
f 84/128/41 88/130/52 87/129/41
f 88/130/3 86/132/3 85/131/3
f 86/132/42 82/177/42 81/133/42
f 87/129/43 85/131/43 81/134/43
f 84/136/44 82/178/44 86/132/44
f 90/137/1 92/140/1 91/138/1
f 92/140/45 96/142/45 95/141/45
f 96/142/3 94/144/3 93/143/3
f 94/144/46 90/179/46 89/145/46
f 95/141/47 93/143/47 89/146/47
f 92/148/48 90/180/48 94/144/48
f 98/149/1 100/152/1 99/150/1
f 100/152/2 104/154/2 103/153/2
f 104/154/3 102/156/3 101/155/3
f 102/156/4 98/181/4 97/157/4
f 103/153/5 101/155/5 97/158/5
f 100/160/6 98/182/6 102/156/6
