# Blender v3.4.1 OBJ File: 'decoratives_and_entities.blend'
# www.blender.org
o House_Frame_Cube.016
v 0.954064 -0.995855 0.613642
v 0.954064 0.174341 0.613642
v 0.954064 -0.995855 0.009382
v 0.954064 0.174341 0.009382
v 1.098832 -0.995855 0.613642
v 1.098832 0.174341 0.613642
v 1.098832 -0.995855 0.009382
v 1.098832 0.174341 0.009382
v -1.039515 -1.006550 1.041844
v -1.039515 0.562533 1.041844
v -1.039515 -1.006550 0.960368
v -1.039515 0.562533 0.960368
v -0.958039 -1.006550 1.041844
v -0.958039 0.562533 1.041844
v -0.958039 -1.006550 0.960368
v -0.958039 0.562533 0.960368
v 0.960485 -1.006550 1.041844
v 0.960485 0.562533 1.041844
v 0.960485 -1.006550 0.960368
v 0.960485 0.562533 0.960368
v 1.014950 -1.006550 1.041844
v 1.014950 0.562533 1.041844
v 1.014950 -1.006550 0.960368
v 1.014950 0.562533 0.960368
v -1.039515 -1.006550 -0.958156
v -1.039515 0.562533 -0.958156
v -1.039515 -1.006550 -1.039632
v -1.039515 0.562533 -1.039632
v -0.958039 -1.006550 -0.958156
v -0.958039 0.562533 -0.958156
v -0.958039 -1.006550 -1.039632
v -0.958039 0.562533 -1.039632
v 0.960485 -1.006550 -0.958156
v 0.960485 0.562533 -0.958156
v 0.960485 -1.006550 -1.039632
v 0.960485 0.562533 -1.039632
v 1.041961 -1.006550 -0.958156
v 1.041961 0.562533 -0.958156
v 1.041961 -1.006550 -1.039632
v 1.041961 0.562533 -1.039632
v 1.003891 0.545644 1.000000
v 1.003891 0.608107 1.000000
v 1.003891 0.545644 -1.000000
v 1.003891 0.608107 -1.000000
v 1.034587 0.545644 1.000000
v 1.034587 0.608107 1.000000
v 1.034587 0.545644 -1.000000
v 1.034587 0.608107 -1.000000
v 1.003891 -1.001989 0.024337
v 1.003891 0.546969 0.024337
v 1.003891 -1.001989 -0.043597
v 1.003891 0.546969 -0.043597
v 1.029691 -1.001989 0.024337
v 1.029691 0.546969 0.024337
v 1.029691 -1.001989 -0.043597
v 1.029691 0.546969 -0.043597
v 1.003891 -1.001989 0.681824
v 1.003891 0.546969 0.681824
v 1.003891 -1.001989 0.613890
v 1.003891 0.546969 0.613890
v 1.029691 -1.001989 0.681824
v 1.029691 0.546969 0.681824
v 1.029691 -1.001989 0.613890
v 1.029691 0.546969 0.613890
v 0.954675 -0.364629 -0.210118
v 0.954675 0.093659 -0.210118
v 0.954675 -0.364629 -0.259671
v 0.954675 0.093659 -0.259671
v 1.025976 -0.364629 -0.210118
v 1.025976 0.093659 -0.210118
v 1.025976 -0.364629 -0.259671
v 1.025976 0.093659 -0.259671
v 0.954675 -0.364629 -0.739659
v 0.954675 0.093659 -0.739659
v 0.954675 -0.364629 -0.791964
v 0.954675 0.093659 -0.791964
v 1.025976 -0.364629 -0.739659
v 1.025976 0.093659 -0.739659
v 1.025976 -0.364629 -0.791964
v 1.025976 0.093659 -0.791964
v 0.954675 -0.323605 -0.248954
v 0.954675 -0.323605 -0.750935
v 0.954675 -0.361667 -0.248954
v 0.954675 -0.361667 -0.750935
v 1.025976 -0.323605 -0.248954
v 1.025976 -0.323605 -0.750935
v 1.025976 -0.361667 -0.248954
v 1.025976 -0.361667 -0.750935
v 0.954675 0.090615 -0.248954
v 0.954675 0.090615 -0.750935
v 0.954675 0.052552 -0.248954
v 0.954675 0.052552 -0.750935
v 1.025976 0.090615 -0.248954
v 1.025976 0.090615 -0.750935
v 1.025976 0.052552 -0.248954
v 1.025976 0.052552 -0.750935
v 0.960204 0.970439 0.584333
v 0.960204 1.073719 0.519803
v 0.960204 0.970439 -0.582593
v 0.960204 1.073719 -0.518063
v 1.024533 0.970439 0.584333
v 1.024533 1.073719 0.519803
v 1.024533 0.970439 -0.582593
v 1.024533 1.073719 -0.518063
v 0.954675 -0.364629 -0.210118
v 0.954675 0.093659 -0.210118
v 1.025976 -0.364629 -0.210118
v 1.025976 0.093659 -0.210118
v 0.990481 0.578823 0.330624
v 0.990481 0.994377 0.330624
v 0.990481 0.578823 0.241119
v 0.990481 0.994377 0.241119
v 1.021396 0.578823 0.330624
v 1.021396 0.994377 0.330624
v 1.021396 0.578823 0.241119
v 1.021396 0.994377 0.241119
v 0.990481 0.578823 -0.232642
v 0.990481 0.994377 -0.232642
v 0.990481 0.578823 -0.322147
v 0.990481 0.994377 -0.322147
v 1.021396 0.578823 -0.232642
v 1.021396 0.994377 -0.232642
v 1.021396 0.578823 -0.322147
v 1.021396 0.994377 -0.322147
v 0.976681 -0.259132 0.992213
v 0.976681 -0.159245 0.992213
v 0.976681 -0.259132 0.647013
v 0.976681 -0.159245 0.647013
v 1.009908 -0.259132 0.992213
v 1.009908 -0.159245 0.992213
v 1.009908 -0.259132 0.647013
v 1.009908 -0.159245 0.647013
v 0.969512 0.529441 0.999623
v 0.969512 0.555859 0.928967
v 0.969512 -0.244483 0.710259
v 0.969512 -0.218066 0.639603
v 1.019341 0.529441 0.999623
v 1.019341 0.555859 0.928967
v 1.019341 -0.244483 0.710259
v 1.019341 -0.218066 0.639603
v 0.969512 -0.240357 0.713439
v 0.969512 -0.266213 0.642576
v 0.969512 -1.016553 0.996650
v 0.969512 -1.042409 0.925787
v 1.019341 -0.240357 0.713439
v 1.019341 -0.266213 0.642576
v 1.019341 -1.016553 0.996650
v 1.019341 -1.042409 0.925787
v 1.003891 -1.001989 -0.165845
v 1.003891 0.546969 -0.165845
v 1.003891 -1.001989 -0.233778
v 1.003891 0.546969 -0.233778
v 1.029691 -1.001989 -0.165845
v 1.029691 0.546969 -0.165845
v 1.029691 -1.001989 -0.233778
v 1.029691 0.546969 -0.233778
v 1.003891 -1.001989 -0.764951
v 1.003891 0.546969 -0.764951
v 1.003891 -1.001989 -0.832885
v 1.003891 0.546969 -0.832885
v 1.029691 -1.001989 -0.764951
v 1.029691 0.546969 -0.764951
v 1.029691 -1.001989 -0.832885
v 1.029691 0.546969 -0.832885
vt 0.625000 0.000000
vt 0.375000 0.250000
vt 0.375000 0.000000
vt 0.625000 0.250000
vt 0.375000 0.500000
vt 0.625000 0.500000
vt 0.375000 0.750000
vt 0.625000 0.750000
vt 0.375000 1.000000
vt 0.125000 0.750000
vt 0.125000 0.500000
vt 0.875000 0.500000
vt 0.625000 0.000000
vt 0.375000 0.250000
vt 0.375000 0.000000
vt 0.625000 0.250000
vt 0.375000 0.500000
vt 0.625000 0.500000
vt 0.375000 0.750000
vt 0.625000 0.750000
vt 0.375000 1.000000
vt 0.125000 0.750000
vt 0.125000 0.500000
vt 0.875000 0.500000
vt 0.625000 0.000000
vt 0.375000 0.250000
vt 0.375000 0.000000
vt 0.625000 0.250000
vt 0.375000 0.500000
vt 0.625000 0.500000
vt 0.375000 0.750000
vt 0.625000 0.750000
vt 0.375000 1.000000
vt 0.125000 0.750000
vt 0.125000 0.500000
vt 0.875000 0.500000
vt 0.625000 0.000000
vt 0.375000 0.250000
vt 0.375000 0.000000
vt 0.625000 0.250000
vt 0.375000 0.500000
vt 0.625000 0.500000
vt 0.375000 0.750000
vt 0.625000 0.750000
vt 0.375000 1.000000
vt 0.125000 0.750000
vt 0.125000 0.500000
vt 0.875000 0.500000
vt 0.625000 0.000000
vt 0.375000 0.250000
vt 0.375000 0.000000
vt 0.625000 0.250000
vt 0.375000 0.500000
vt 0.625000 0.500000
vt 0.375000 0.750000
vt 0.625000 0.750000
vt 0.375000 1.000000
vt 0.125000 0.750000
vt 0.125000 0.500000
vt 0.875000 0.500000
vt 0.625000 0.000000
vt 0.375000 0.250000
vt 0.375000 0.000000
vt 0.625000 0.250000
vt 0.375000 0.500000
vt 0.625000 0.500000
vt 0.375000 0.750000
vt 0.625000 0.750000
vt 0.375000 1.000000
vt 0.125000 0.750000
vt 0.125000 0.500000
vt 0.875000 0.500000
vt 0.625000 0.000000
vt 0.375000 0.250000
vt 0.375000 0.000000
vt 0.625000 0.250000
vt 0.375000 0.500000
vt 0.625000 0.500000
vt 0.375000 0.750000
vt 0.625000 0.750000
vt 0.375000 1.000000
vt 0.125000 0.750000
vt 0.125000 0.500000
vt 0.875000 0.500000
vt 0.625000 0.000000
vt 0.375000 0.250000
vt 0.375000 0.000000
vt 0.625000 0.250000
vt 0.375000 0.500000
vt 0.625000 0.500000
vt 0.375000 0.750000
vt 0.625000 0.750000
vt 0.375000 1.000000
vt 0.125000 0.750000
vt 0.125000 0.500000
vt 0.875000 0.500000
vt 0.625000 0.000000
vt 0.375000 0.250000
vt 0.375000 0.000000
vt 0.625000 0.250000
vt 0.375000 0.500000
vt 0.625000 0.500000
vt 0.375000 0.750000
vt 0.625000 0.750000
vt 0.375000 1.000000
vt 0.125000 0.750000
vt 0.125000 0.500000
vt 0.875000 0.500000
vt 0.625000 0.000000
vt 0.375000 0.250000
vt 0.375000 0.000000
vt 0.625000 0.250000
vt 0.375000 0.500000
vt 0.625000 0.500000
vt 0.375000 0.750000
vt 0.625000 0.750000
vt 0.375000 1.000000
vt 0.125000 0.750000
vt 0.125000 0.500000
vt 0.875000 0.500000
vt 0.625000 0.250000
vt 0.375000 0.500000
vt 0.375000 0.250000
vt 0.625000 0.500000
vt 0.375000 0.750000
vt 0.625000 0.750000
vt 0.375000 1.000000
vt 0.625000 0.250000
vt 0.375000 0.500000
vt 0.375000 0.250000
vt 0.625000 0.500000
vt 0.375000 0.750000
vt 0.625000 0.750000
vt 0.375000 1.000000
vt 0.625000 0.000000
vt 0.375000 0.250000
vt 0.375000 0.000000
vt 0.625000 0.250000
vt 0.375000 0.500000
vt 0.625000 0.750000
vt 0.375000 0.750000
vt 0.375000 1.000000
vt 0.125000 0.750000
vt 0.125000 0.500000
vt 0.875000 0.500000
vt 0.625000 0.500000
vt 0.625000 0.750000
vt 0.375000 1.000000
vt 0.375000 0.750000
vt 0.625000 0.000000
vt 0.375000 0.250000
vt 0.375000 0.000000
vt 0.625000 0.250000
vt 0.375000 0.500000
vt 0.625000 0.500000
vt 0.375000 0.750000
vt 0.625000 0.750000
vt 0.375000 1.000000
vt 0.125000 0.750000
vt 0.125000 0.500000
vt 0.875000 0.500000
vt 0.625000 0.000000
vt 0.375000 0.250000
vt 0.375000 0.000000
vt 0.625000 0.250000
vt 0.375000 0.500000
vt 0.625000 0.500000
vt 0.375000 0.750000
vt 0.625000 0.750000
vt 0.375000 1.000000
vt 0.125000 0.750000
vt 0.125000 0.500000
vt 0.875000 0.500000
vt 0.625000 0.000000
vt 0.375000 0.250000
vt 0.375000 0.000000
vt 0.625000 0.250000
vt 0.375000 0.500000
vt 0.625000 0.500000
vt 0.375000 0.750000
vt 0.625000 0.750000
vt 0.375000 1.000000
vt 0.125000 0.750000
vt 0.125000 0.500000
vt 0.875000 0.500000
vt 0.625000 0.000000
vt 0.375000 0.250000
vt 0.375000 0.000000
vt 0.625000 0.250000
vt 0.375000 0.500000
vt 0.625000 0.750000
vt 0.375000 0.750000
vt 0.375000 1.000000
vt 0.125000 0.750000
vt 0.125000 0.500000
vt 0.875000 0.500000
vt 0.625000 0.500000
vt 0.375000 0.000000
vt 0.625000 0.250000
vt 0.375000 0.250000
vt 0.375000 0.500000
vt 0.625000 0.500000
vt 0.375000 0.750000
vt 0.625000 0.750000
vt 0.375000 1.000000
vt 0.125000 0.750000
vt 0.125000 0.500000
vt 0.875000 0.500000
vt 0.625000 0.250000
vt 0.375000 0.500000
vt 0.375000 0.250000
vt 0.625000 0.500000
vt 0.375000 0.750000
vt 0.625000 0.750000
vt 0.375000 1.000000
vt 0.625000 0.250000
vt 0.375000 0.500000
vt 0.375000 0.250000
vt 0.625000 0.500000
vt 0.375000 0.750000
vt 0.625000 0.750000
vt 0.375000 1.000000
vt 0.625000 1.000000
vt 0.875000 0.750000
vt 0.625000 1.000000
vt 0.875000 0.750000
vt 0.625000 1.000000
vt 0.875000 0.750000
vt 0.625000 1.000000
vt 0.875000 0.750000
vt 0.625000 1.000000
vt 0.875000 0.750000
vt 0.625000 1.000000
vt 0.875000 0.750000
vt 0.625000 1.000000
vt 0.875000 0.750000
vt 0.625000 1.000000
vt 0.875000 0.750000
vt 0.625000 1.000000
vt 0.875000 0.750000
vt 0.625000 1.000000
vt 0.875000 0.750000
vt 0.625000 1.000000
vt 0.625000 1.000000
vt 0.625000 1.000000
vt 0.875000 0.750000
vt 0.625000 1.000000
vt 0.625000 1.000000
vt 0.875000 0.750000
vt 0.625000 1.000000
vt 0.875000 0.750000
vt 0.625000 1.000000
vt 0.875000 0.750000
vt 0.625000 1.000000
vt 0.875000 0.750000
vt 0.625000 0.000000
vt 0.625000 1.000000
vt 0.875000 0.750000
vt 0.625000 1.000000
vt 0.625000 1.000000
vn -1.0000 0.0000 0.0000
vn 0.0000 0.0000 -1.0000
vn 1.0000 0.0000 0.0000
vn 0.0000 0.0000 1.0000
vn 0.0000 -1.0000 0.0000
vn 0.0000 1.0000 0.0000
vn 0.0000 0.5299 -0.8481
vn 0.0000 0.5299 0.8481
vn 0.0000 -0.9367 -0.3502
vn 0.0000 0.9367 0.3502
vn 0.0000 -0.3502 0.9367
vn 0.0000 0.3502 -0.9367
vn 0.0000 -0.9394 0.3428
vn 0.0000 0.9394 -0.3428
vn 0.0000 0.3428 0.9394
vn 0.0000 -0.3428 -0.9394
s off
f 2/1/1 3/2/1 1/3/1
f 4/4/2 7/5/2 3/2/2
f 8/6/3 5/7/3 7/5/3
f 6/8/4 1/9/4 5/7/4
f 7/5/5 1/10/5 3/11/5
f 4/12/6 6/8/6 8/6/6
f 10/13/1 11/14/1 9/15/1
f 12/16/2 15/17/2 11/14/2
f 16/18/3 13/19/3 15/17/3
f 14/20/4 9/21/4 13/19/4
f 15/17/5 9/22/5 11/23/5
f 12/24/6 14/20/6 16/18/6
f 18/25/1 19/26/1 17/27/1
f 20/28/2 23/29/2 19/26/2
f 24/30/3 21/31/3 23/29/3
f 22/32/4 17/33/4 21/31/4
f 23/29/5 17/34/5 19/35/5
f 20/36/6 22/32/6 24/30/6
f 26/37/1 27/38/1 25/39/1
f 28/40/2 31/41/2 27/38/2
f 32/42/3 29/43/3 31/41/3
f 30/44/4 25/45/4 29/43/4
f 31/41/5 25/46/5 27/47/5
f 28/48/6 30/44/6 32/42/6
f 34/49/1 35/50/1 33/51/1
f 36/52/2 39/53/2 35/50/2
f 40/54/3 37/55/3 39/53/3
f 38/56/4 33/57/4 37/55/4
f 39/53/5 33/58/5 35/59/5
f 36/60/6 38/56/6 40/54/6
f 42/61/1 43/62/1 41/63/1
f 44/64/2 47/65/2 43/62/2
f 48/66/3 45/67/3 47/65/3
f 46/68/4 41/69/4 45/67/4
f 47/65/5 41/70/5 43/71/5
f 44/72/6 46/68/6 48/66/6
f 50/73/1 51/74/1 49/75/1
f 52/76/2 55/77/2 51/74/2
f 56/78/3 53/79/3 55/77/3
f 54/80/4 49/81/4 53/79/4
f 55/77/5 49/82/5 51/83/5
f 52/84/6 54/80/6 56/78/6
f 58/85/1 59/86/1 57/87/1
f 60/88/2 63/89/2 59/86/2
f 64/90/3 61/91/3 63/89/3
f 62/92/4 57/93/4 61/91/4
f 63/89/5 57/94/5 59/95/5
f 60/96/6 62/92/6 64/90/6
f 66/97/1 67/98/1 65/99/1
f 68/100/2 71/101/2 67/98/2
f 72/102/3 69/103/3 71/101/3
f 70/104/4 65/105/4 69/103/4
f 71/101/5 65/106/5 67/107/5
f 68/108/6 70/104/6 72/102/6
f 74/109/1 75/110/1 73/111/1
f 76/112/2 79/113/2 75/110/2
f 80/114/3 77/115/3 79/113/3
f 78/116/4 73/117/4 77/115/4
f 79/113/5 73/118/5 75/119/5
f 76/120/6 78/116/6 80/114/6
f 84/121/5 87/122/5 83/123/5
f 88/124/3 85/125/3 87/122/3
f 86/126/6 81/127/6 85/125/6
f 92/128/5 95/129/5 91/130/5
f 96/131/3 93/132/3 95/129/3
f 94/133/6 89/134/6 93/132/6
f 98/135/1 99/136/1 97/137/1
f 100/138/7 103/139/7 99/136/7
f 103/139/3 102/140/3 101/141/3
f 102/140/8 97/142/8 101/141/8
f 103/139/5 97/143/5 99/144/5
f 100/145/6 102/140/6 104/146/6
f 108/147/4 105/148/4 107/149/4
f 110/150/1 111/151/1 109/152/1
f 112/153/2 115/154/2 111/151/2
f 116/155/3 113/156/3 115/154/3
f 114/157/4 109/158/4 113/156/4
f 115/154/5 109/159/5 111/160/5
f 112/161/6 114/157/6 116/155/6
f 118/162/1 119/163/1 117/164/1
f 120/165/2 123/166/2 119/163/2
f 124/167/3 121/168/3 123/166/3
f 122/169/4 117/170/4 121/168/4
f 123/166/5 117/171/5 119/172/5
f 120/173/6 122/169/6 124/167/6
f 126/174/1 127/175/1 125/176/1
f 128/177/2 131/178/2 127/175/2
f 132/179/3 129/180/3 131/178/3
f 130/181/4 125/182/4 129/180/4
f 131/178/5 125/183/5 127/184/5
f 128/185/6 130/181/6 132/179/6
f 134/186/1 135/187/1 133/188/1
f 136/189/9 139/190/9 135/187/9
f 139/190/3 138/191/3 137/192/3
f 138/191/10 133/193/10 137/192/10
f 139/190/11 133/194/11 135/195/11
f 136/196/12 138/191/12 140/197/12
f 141/198/1 144/199/1 143/200/1
f 144/199/13 147/201/13 143/200/13
f 148/202/3 145/203/3 147/201/3
f 146/204/14 141/205/14 145/203/14
f 147/201/15 141/206/15 143/207/15
f 144/208/16 146/204/16 148/202/16
f 152/209/2 155/210/2 151/211/2
f 156/212/3 153/213/3 155/210/3
f 154/214/4 149/215/4 153/213/4
f 160/216/2 163/217/2 159/218/2
f 164/219/3 161/220/3 163/217/3
f 162/221/4 157/222/4 161/220/4
f 2/1/1 4/4/1 3/2/1
f 4/4/2 8/6/2 7/5/2
f 8/6/3 6/8/3 5/7/3
f 6/8/4 2/223/4 1/9/4
f 7/5/5 5/7/5 1/10/5
f 4/12/6 2/224/6 6/8/6
f 10/13/1 12/16/1 11/14/1
f 12/16/2 16/18/2 15/17/2
f 16/18/3 14/20/3 13/19/3
f 14/20/4 10/225/4 9/21/4
f 15/17/5 13/19/5 9/22/5
f 12/24/6 10/226/6 14/20/6
f 18/25/1 20/28/1 19/26/1
f 20/28/2 24/30/2 23/29/2
f 24/30/3 22/32/3 21/31/3
f 22/32/4 18/227/4 17/33/4
f 23/29/5 21/31/5 17/34/5
f 20/36/6 18/228/6 22/32/6
f 26/37/1 28/40/1 27/38/1
f 28/40/2 32/42/2 31/41/2
f 32/42/3 30/44/3 29/43/3
f 30/44/4 26/229/4 25/45/4
f 31/41/5 29/43/5 25/46/5
f 28/48/6 26/230/6 30/44/6
f 34/49/1 36/52/1 35/50/1
f 36/52/2 40/54/2 39/53/2
f 40/54/3 38/56/3 37/55/3
f 38/56/4 34/231/4 33/57/4
f 39/53/5 37/55/5 33/58/5
f 36/60/6 34/232/6 38/56/6
f 42/61/1 44/64/1 43/62/1
f 44/64/2 48/66/2 47/65/2
f 48/66/3 46/68/3 45/67/3
f 46/68/4 42/233/4 41/69/4
f 47/65/5 45/67/5 41/70/5
f 44/72/6 42/234/6 46/68/6
f 50/73/1 52/76/1 51/74/1
f 52/76/2 56/78/2 55/77/2
f 56/78/3 54/80/3 53/79/3
f 54/80/4 50/235/4 49/81/4
f 55/77/5 53/79/5 49/82/5
f 52/84/6 50/236/6 54/80/6
f 58/85/1 60/88/1 59/86/1
f 60/88/2 64/90/2 63/89/2
f 64/90/3 62/92/3 61/91/3
f 62/92/4 58/237/4 57/93/4
f 63/89/5 61/91/5 57/94/5
f 60/96/6 58/238/6 62/92/6
f 66/97/1 68/100/1 67/98/1
f 68/100/2 72/102/2 71/101/2
f 72/102/3 70/104/3 69/103/3
f 70/104/4 66/239/4 65/105/4
f 71/101/5 69/103/5 65/106/5
f 68/108/6 66/240/6 70/104/6
f 74/109/1 76/112/1 75/110/1
f 76/112/2 80/114/2 79/113/2
f 80/114/3 78/116/3 77/115/3
f 78/116/4 74/241/4 73/117/4
f 79/113/5 77/115/5 73/118/5
f 76/120/6 74/242/6 78/116/6
f 84/121/5 88/124/5 87/122/5
f 88/124/3 86/126/3 85/125/3
f 86/126/6 82/243/6 81/127/6
f 92/128/5 96/131/5 95/129/5
f 96/131/3 94/133/3 93/132/3
f 94/133/6 90/244/6 89/134/6
f 98/135/1 100/138/1 99/136/1
f 100/138/7 104/146/7 103/139/7
f 103/139/3 104/146/3 102/140/3
f 102/140/8 98/245/8 97/142/8
f 103/139/5 101/141/5 97/143/5
f 100/145/6 98/246/6 102/140/6
f 108/147/4 106/247/4 105/148/4
f 110/150/1 112/153/1 111/151/1
f 112/153/2 116/155/2 115/154/2
f 116/155/3 114/157/3 113/156/3
f 114/157/4 110/248/4 109/158/4
f 115/154/5 113/156/5 109/159/5
f 112/161/6 110/249/6 114/157/6
f 118/162/1 120/165/1 119/163/1
f 120/165/2 124/167/2 123/166/2
f 124/167/3 122/169/3 121/168/3
f 122/169/4 118/250/4 117/170/4
f 123/166/5 121/168/5 117/171/5
f 120/173/6 118/251/6 122/169/6
f 126/174/1 128/177/1 127/175/1
f 128/177/2 132/179/2 131/178/2
f 132/179/3 130/181/3 129/180/3
f 130/181/4 126/252/4 125/182/4
f 131/178/5 129/180/5 125/183/5
f 128/185/6 126/253/6 130/181/6
f 134/186/1 136/189/1 135/187/1
f 136/189/9 140/197/9 139/190/9
f 139/190/3 140/197/3 138/191/3
f 138/191/10 134/254/10 133/193/10
f 139/190/11 137/192/11 133/194/11
f 136/196/12 134/255/12 138/191/12
f 141/198/1 142/256/1 144/199/1
f 144/199/13 148/202/13 147/201/13
f 148/202/3 146/204/3 145/203/3
f 146/204/14 142/257/14 141/205/14
f 147/201/15 145/203/15 141/206/15
f 144/208/16 142/258/16 146/204/16
f 152/209/2 156/212/2 155/210/2
f 156/212/3 154/214/3 153/213/3
f 154/214/4 150/259/4 149/215/4
f 160/216/2 164/219/2 163/217/2
f 164/219/3 162/221/3 161/220/3
f 162/221/4 158/260/4 157/222/4
