# Blender v3.4.1 OBJ File: 'decoratives_and_entities.blend'
# www.blender.org
o House_Roof_Cube.009
v -1.129815 0.548475 1.012274
v -1.118621 1.648967 0.057902
v -1.129815 0.548475 -1.012274
v -1.118621 1.648967 -0.057902
v 1.129815 0.548475 1.012274
v 1.118621 1.648967 0.057902
v 1.129815 0.548475 -1.012274
v 1.118621 1.648967 -0.057902
v -1.122793 1.005819 0.512564
v -1.122793 1.005819 -0.512564
v 1.122793 1.005819 -0.512564
v 1.122793 1.005819 0.512564
v -1.141094 0.498700 -1.141094
v -1.141094 0.498700 1.141094
v -1.118621 1.039194 0.551472
v -1.118621 1.700005 0.084324
v -1.118621 1.700005 -0.084324
v -1.118621 1.039194 -0.551472
v 1.118621 1.039194 -0.551472
v 1.141094 0.498700 -1.141094
v 1.141094 0.498700 1.141094
v 1.118621 1.700005 -0.084324
v 1.118621 1.700005 0.084324
v 1.118621 1.039194 0.551472
v 0.916122 0.995289 -0.512564
v 0.916122 0.995289 0.512564
v -0.915082 0.995289 0.512564
v -0.915082 0.995289 -0.512564
v -0.945994 0.533971 -1.012274
v -0.945994 0.533971 1.012274
v -0.910033 1.648554 0.057902
v -0.910033 1.648554 -0.057902
v 0.961795 0.533971 -1.012274
v 0.961795 0.533971 1.012274
v 0.911073 1.648554 -0.057902
v 0.911073 1.648554 0.057902
v 0.874640 0.238086 -0.168253
v 0.895077 0.273484 -0.168253
v 0.874640 0.238086 -0.831310
v 0.895077 0.273484 -0.831310
v 1.090988 0.113178 -0.168253
v 1.111425 0.148576 -0.168253
v 1.090988 0.113178 -0.831310
v 1.111425 0.148576 -0.831310
vt 0.615346 0.196385
vt 0.615346 0.053615
vt 0.615346 0.053615
vt 0.625000 0.250000
vt 0.500000 0.500000
vt 0.500000 0.250000
vt 0.625000 0.750000
vt 0.500000 1.000000
vt 0.500000 0.750000
vt 0.875000 0.500000
vt 0.625000 0.500000
vt 0.375000 1.000000
vt 0.375000 0.750000
vt 0.386512 0.008611
vt 0.492450 0.012685
vt 0.386512 0.008611
vt 0.375000 0.500000
vt 0.375000 0.250000
vt 0.492450 0.012685
vt 0.500000 0.000000
vt 0.625000 0.000000
vt 0.386512 0.241389
vt 0.386512 0.508611
vt 0.493687 0.510625
vt 0.615346 0.553615
vt 0.615346 0.696385
vt 0.386512 0.741389
vt 0.493687 0.239375
vt 0.493687 0.739375
vt 0.615346 0.196385
vt 0.615346 0.553615
vt 0.493687 0.239375
vt 0.493687 0.510625
vt 0.493687 0.739375
vt 0.386512 0.508611
vt 0.615346 0.696385
vt 0.000000 0.000000
vt 0.000000 0.000000
vt 0.000000 0.000000
vt 0.625000 0.000000
vt 0.375000 0.250000
vt 0.375000 0.000000
vt 0.625000 0.250000
vt 0.375000 0.500000
vt 0.375000 0.750000
vt 0.625000 1.000000
vt 0.375000 1.000000
vt 0.125000 0.750000
vt 0.125000 0.500000
vt 0.875000 0.500000
vt 0.625000 0.750000
vt 0.625000 0.500000
vt 0.625000 1.000000
vt 0.875000 0.750000
vt 0.375000 0.000000
vt 0.386512 0.241389
vt 0.386512 0.741389
vt 0.000000 0.000000
vt 0.000000 0.000000
vt 0.000000 0.000000
vt 0.000000 0.000000
vt 0.000000 0.000000
vt 0.000000 0.000000
vt 0.000000 0.000000
vt 0.000000 0.000000
vt 0.000000 0.000000
vt 0.875000 0.750000
vn -0.0020 -1.0000 0.0000
vn 0.0000 0.5773 -0.8166
vn -0.0000 0.5773 0.8166
vn 0.0000 1.0000 0.0000
vn 0.0000 0.7371 0.6757
vn -0.0577 -0.7318 -0.6791
vn 0.0000 0.7371 -0.6757
vn -0.0289 -0.5709 -0.8205
vn -1.0000 0.0000 0.0000
vn -0.9882 -0.0921 0.1221
vn 0.9965 0.0682 -0.0484
vn 1.0000 -0.0000 0.0000
vn 0.9882 -0.0921 -0.1221
vn -0.9965 0.0682 0.0484
vn -0.9967 0.0511 -0.0631
vn 0.9967 0.0511 0.0631
vn -0.0011 -0.5772 0.8166
vn 0.0020 -1.0000 0.0000
vn -0.0374 -0.7369 0.6750
vn 0.0291 -0.5709 0.8205
vn 0.0375 -0.7369 -0.6750
vn 0.0631 -0.7304 0.6801
vn 0.0011 -0.5772 -0.8166
vn 0.0000 -0.9645 -0.2641
vn -0.8660 0.5000 0.0000
vn 0.0000 0.0000 -1.0000
vn -0.0000 0.0000 1.0000
vn -0.5000 -0.8660 0.0000
vn 0.5000 0.8660 0.0000
vn 0.8660 -0.5000 0.0000
vn -0.0374 -0.7369 -0.6750
vn -0.0011 -0.5772 -0.8166
vn -0.9967 0.0511 0.0631
vn -0.9965 0.0682 -0.0484
vn 0.9882 -0.0921 0.1221
vn 0.9965 0.0682 0.0484
vn -0.9882 -0.0921 -0.1221
vn 0.9967 0.0511 -0.0631
vn -0.0289 -0.5709 0.8205
vn -0.0577 -0.7318 0.6791
vn 0.0011 -0.5772 0.8166
vn 0.0631 -0.7304 -0.6801
vn 0.0375 -0.7369 0.6750
vn 0.0291 -0.5709 -0.8205
vn 0.0000 -0.9645 0.2641
vn 0.0801 -0.9274 0.3654
vn -0.0732 -0.9281 0.3650
vn -0.0732 -0.9281 -0.3650
vn 0.0000 -1.0000 0.0000
vn 0.0801 -0.9274 -0.3654
s off
f 4/1/1 31/2/1 2/3/1
f 17/4/2 19/5/2 18/6/2
f 23/7/3 15/8/3 24/9/3
f 17/10/4 23/7/4 22/11/4
f 24/9/5 14/12/5 21/13/5
f 1/14/6 27/15/6 30/16/6
f 18/6/7 20/17/7 13/18/7
f 9/19/8 31/2/8 27/15/8
f 2/3/9 15/20/9 16/21/9
f 2/3/9 17/4/9 4/1/9
f 3/22/10 18/6/10 13/18/10
f 7/23/11 19/5/11 11/24/11
f 8/25/12 23/7/12 6/26/12
f 5/27/13 24/9/13 21/13/13
f 1/14/14 15/20/14 9/19/14
f 4/1/15 18/6/15 10/28/15
f 8/25/12 19/5/12 22/11/12
f 6/26/16 24/9/16 12/29/16
f 10/28/17 32/30/17 4/1/17
f 6/26/18 35/31/18 8/25/18
f 3/22/19 28/32/19 10/28/19
f 11/24/20 35/31/20 25/33/20
f 5/27/21 26/34/21 12/29/21
f 7/23/22 25/33/22 33/35/22
f 12/29/23 36/36/23 6/26/23
f 34/37/24 21/38/24 30/39/24
f 38/40/25 39/41/25 37/42/25
f 40/43/26 43/44/26 39/41/26
f 41/45/27 38/46/27 37/47/27
f 43/44/28 37/48/28 39/49/28
f 40/50/29 42/51/29 44/52/29
f 44/52/30 41/45/30 43/44/30
f 4/1/1 32/30/1 31/2/1
f 17/4/2 22/11/2 19/5/2
f 23/7/3 16/53/3 15/8/3
f 17/10/4 16/54/4 23/7/4
f 24/9/5 15/8/5 14/12/5
f 1/14/31 9/19/31 27/15/31
f 18/6/7 19/5/7 20/17/7
f 9/19/32 2/3/32 31/2/32
f 2/3/33 9/19/33 15/20/33
f 2/3/9 16/21/9 17/4/9
f 3/22/34 10/28/34 18/6/34
f 7/23/35 20/17/35 19/5/35
f 8/25/12 22/11/12 23/7/12
f 5/27/36 12/29/36 24/9/36
f 1/14/37 14/55/37 15/20/37
f 4/1/9 17/4/9 18/6/9
f 8/25/38 11/24/38 19/5/38
f 6/26/12 23/7/12 24/9/12
f 10/28/39 28/32/39 32/30/39
f 6/26/18 36/36/18 35/31/18
f 3/22/40 29/56/40 28/32/40
f 11/24/41 8/25/41 35/31/41
f 5/27/42 34/57/42 26/34/42
f 7/23/43 11/24/43 25/33/43
f 12/29/44 26/34/44 36/36/44
f 13/58/45 20/59/45 29/60/45
f 20/59/46 7/61/46 33/62/46
f 20/59/45 33/62/45 29/60/45
f 29/60/47 3/63/47 13/58/47
f 14/64/48 1/65/48 30/39/48
f 21/38/24 14/64/24 30/39/24
f 30/39/49 29/60/49 33/62/49
f 34/37/50 5/66/50 21/38/50
f 30/39/49 33/62/49 34/37/49
f 38/40/25 40/43/25 39/41/25
f 40/43/26 44/52/26 43/44/26
f 41/45/27 42/51/27 38/46/27
f 43/44/28 41/45/28 37/48/28
f 40/50/29 38/67/29 42/51/29
f 44/52/30 42/51/30 41/45/30
