# Blender v3.4.1 OBJ File: 'decoratives_and_entities.blend'
# www.blender.org
o Shrub_Middle_Plane.209
v 0.038161 0.103364 -0.405960
v 0.414742 0.103364 -0.097517
v 0.315590 0.266025 -0.678864
v 0.627649 0.266025 -0.423268
v -0.049725 -0.058598 -0.212720
v 0.242600 -0.058598 0.026713
v -0.037651 -0.166505 -0.106595
v 0.136175 -0.166505 0.035780
v 0.622422 0.330488 -0.933708
v 0.817059 0.330488 -0.774289
v 0.853407 0.294997 -1.044703
v 0.880378 0.294997 -1.022612
v 0.226452 0.022285 -0.251739
v 0.471619 0.184947 -0.551066
v 0.096437 -0.139677 -0.093003
v 0.049262 -0.247583 -0.035407
v 0.719740 0.249409 -0.853998
v 0.866892 0.259769 -1.033657
v -0.347433 -0.121399 -0.143709
v 0.071757 -0.121399 -0.391156
v -0.508206 0.041262 -0.498103
v -0.160839 0.041262 -0.703153
v -0.196236 -0.283361 0.005305
v 0.129165 -0.283361 -0.186778
v -0.092437 -0.391268 0.030486
v 0.101058 -0.391268 -0.083733
v -0.641906 0.105725 -0.873890
v -0.425247 0.105725 -1.001783
v -0.666640 0.070234 -1.128963
v -0.636617 0.070234 -1.146685
v -0.137838 -0.202478 -0.267432
v -0.334523 -0.039816 -0.600628
v -0.033535 -0.364440 -0.090737
v 0.004311 -0.472346 -0.026623
v -0.533577 0.024647 -0.937837
v -0.651628 0.035006 -1.137824
v -0.276897 0.096031 0.447376
v -0.507960 0.096031 -0.099308
v -0.731226 0.294359 0.584204
v -0.922700 0.294359 0.131188
v -0.072309 -0.101444 0.288822
v -0.251674 -0.101444 -0.135548
v -0.025051 -0.233010 0.167469
v -0.131707 -0.233010 -0.084875
v -1.207018 0.372956 0.684847
v -1.326444 0.372956 0.402293
v -1.519268 0.329683 0.673382
v -1.535817 0.329683 0.634228
v -0.392428 -0.002825 0.174034
v -0.826963 0.195503 0.357696
v -0.161992 -0.200300 0.076637
v -0.078379 -0.331867 0.041297
v -1.266731 0.274100 0.543570
v -1.527543 0.286731 0.653805
v 0.477446 0.223984 0.205043
v 0.020632 0.223984 0.583955
v 0.739492 0.422312 0.600605
v 0.360947 0.422312 0.914595
v 0.266625 0.026510 0.054877
v -0.087982 0.026510 0.349011
v 0.136799 -0.105057 0.044625
v -0.074062 -0.105057 0.219527
v 0.973080 0.500910 1.027154
v 0.736975 0.500910 1.222995
v 1.052157 0.457636 1.329442
v 1.019440 0.457636 1.356580
v 0.249039 0.125128 0.394499
v 0.550220 0.323456 0.757600
v 0.089322 -0.072347 0.201944
v 0.031369 -0.203913 0.132076
v 0.855027 0.402053 1.125074
v 1.035798 0.414684 1.343011
v -0.065032 0.492113 0.469137
v -0.457326 0.492113 0.125749
v -0.371583 0.666329 0.751536
v -0.696662 0.666329 0.466984
v 0.035826 0.318646 0.265364
v -0.268697 0.318646 -0.001195
v 0.026624 0.203075 0.151337
v -0.154455 0.203075 -0.007168
v -0.708975 0.735371 1.013572
v -0.911732 0.735371 0.836092
v -0.960128 0.697359 1.124284
v -0.988225 0.697359 1.099690
v -0.261179 0.405275 0.297443
v -0.534123 0.579491 0.609260
v -0.116435 0.231808 0.132084
v -0.063916 0.116237 0.072085
v -0.810354 0.648533 0.924832
v -0.974177 0.659629 1.111987
v 0.154637 0.499197 -0.389750
v 0.504701 0.499197 0.031922
v 0.519795 0.682332 -0.631876
v 0.809879 0.682332 -0.282452
v 0.016057 0.316850 -0.195020
v 0.287797 0.316850 0.132307
v 0.006641 0.195362 -0.075136
v 0.168227 0.195362 0.119504
v 0.913576 0.754908 -0.847736
v 1.094507 0.754908 -0.629794
v 1.192677 0.714950 -0.920873
v 1.217749 0.714950 -0.890673
v 0.329669 0.407914 -0.178914
v 0.664837 0.591049 -0.457164
v 0.151927 0.225567 -0.031356
v 0.087434 0.104079 0.022184
v 1.004042 0.663625 -0.738765
v 1.205213 0.675288 -0.905773
v -0.424090 0.505347 0.004440
v -0.114332 0.505347 -0.414915
v -0.730880 0.679564 -0.277698
v -0.474196 0.679564 -0.625202
v -0.212672 0.331881 0.088096
v 0.027781 0.331881 -0.237434
v -0.099797 0.216309 0.069492
v 0.043184 0.216309 -0.124078
v -1.019930 0.748605 -0.592256
v -0.859830 0.748605 -0.809001
v -1.151038 0.710593 -0.833391
v -1.128854 0.710593 -0.863425
v -0.269211 0.418509 -0.205237
v -0.602538 0.592726 -0.451450
v -0.092445 0.245043 -0.074669
v -0.028306 0.129471 -0.027293
v -0.939880 0.661767 -0.700629
v -1.139946 0.672863 -0.848408
v 0.262602 0.315599 0.433683
v -0.186920 0.344287 0.354522
v 0.160943 0.386100 0.810155
v -0.211558 0.409872 0.744558
v 0.244261 0.213518 0.205257
v -0.104686 0.235787 0.143808
v 0.184126 0.134904 0.102533
v -0.023369 0.148146 0.065993
v 0.024912 0.367869 1.164081
v -0.207424 0.382696 1.123167
v -0.115771 0.293394 1.347778
v -0.147966 0.295449 1.342109
v 0.036190 0.255820 0.376615
v -0.026959 0.323863 0.759869
v 0.068137 0.150530 0.157044
v 0.078728 0.067402 0.066776
v -0.092907 0.301160 1.126136
v -0.132586 0.262216 1.337345
v 0.491418 0.373518 0.160376
v 0.159503 0.402205 0.473695
v 0.732706 0.444018 0.466719
v 0.457661 0.467790 0.726354
v 0.297233 0.271436 0.038692
v 0.039581 0.293706 0.281909
v 0.178926 0.192822 0.025591
v 0.025717 0.206064 0.170216
v 0.935384 0.425788 0.787172
v 0.763833 0.440615 0.949111
v 0.998733 0.351313 1.009710
v 0.974962 0.353367 1.032150
v 0.310447 0.313739 0.307917
v 0.580170 0.381782 0.587419
v 0.153393 0.208448 0.151182
v 0.087308 0.125321 0.088786
v 0.834594 0.359079 0.859023
v 0.980324 0.320134 1.016968
v 0.495540 0.505969 -0.024731
v 0.336044 0.537307 0.402748
v 0.839132 0.619082 0.137091
v 0.706964 0.645050 0.491326
v 0.279005 0.380414 -0.041582
v 0.155194 0.404740 0.290253
v 0.175820 0.292752 0.003327
v 0.102198 0.307217 0.200647
v 1.163604 0.642448 0.332723
v 1.081168 0.658645 0.553667
v 1.326283 0.591729 0.506061
v 1.314860 0.593973 0.536677
v 0.405899 0.446130 0.190852
v 0.763155 0.556558 0.316053
v 0.207207 0.317069 0.126180
v 0.129117 0.224477 0.103831
v 1.112493 0.575039 0.445039
v 1.316273 0.560043 0.522170
vt 1.000000 0.000000
vt 0.500000 1.000000
vt 0.500000 0.000000
vt 0.000000 0.000000
vt 0.500000 0.000000
vt 0.000000 0.000000
vt 0.500000 0.000000
vt 1.000000 1.000000
vt 0.500000 1.000000
vt 1.000000 1.000000
vt 0.500000 1.000000
vt 0.000000 1.000000
vt 0.000000 1.000000
vt 0.000000 1.000000
vt 1.000000 0.000000
vt 1.000000 0.000000
vt 0.000000 0.000000
vt 1.000000 0.000000
vt 0.500000 1.000000
vt 0.500000 0.000000
vt 0.000000 0.000000
vt 0.500000 0.000000
vt 0.000000 0.000000
vt 0.500000 0.000000
vt 1.000000 1.000000
vt 0.500000 1.000000
vt 1.000000 1.000000
vt 0.500000 1.000000
vt 0.000000 1.000000
vt 0.000000 1.000000
vt 0.000000 1.000000
vt 1.000000 0.000000
vt 1.000000 0.000000
vt 0.000000 0.000000
vt 1.000000 0.000000
vt 0.500000 1.000000
vt 0.500000 0.000000
vt 0.000000 0.000000
vt 0.500000 0.000000
vt 0.000000 0.000000
vt 0.500000 0.000000
vt 1.000000 1.000000
vt 0.500000 1.000000
vt 1.000000 1.000000
vt 0.500000 1.000000
vt 0.000000 1.000000
vt 0.000000 1.000000
vt 0.000000 1.000000
vt 1.000000 0.000000
vt 1.000000 0.000000
vt 0.000000 0.000000
vt 1.000000 0.000000
vt 0.500000 1.000000
vt 0.500000 0.000000
vt 0.000000 0.000000
vt 0.500000 0.000000
vt 0.000000 0.000000
vt 0.500000 0.000000
vt 1.000000 1.000000
vt 0.500000 1.000000
vt 1.000000 1.000000
vt 0.500000 1.000000
vt 0.000000 1.000000
vt 0.000000 1.000000
vt 0.000000 1.000000
vt 1.000000 0.000000
vt 1.000000 0.000000
vt 0.000000 0.000000
vt 1.000000 0.000000
vt 0.500000 1.000000
vt 0.500000 0.000000
vt 0.000000 0.000000
vt 0.500000 0.000000
vt 0.000000 0.000000
vt 0.500000 0.000000
vt 1.000000 1.000000
vt 0.500000 1.000000
vt 1.000000 1.000000
vt 0.500000 1.000000
vt 0.000000 1.000000
vt 0.000000 1.000000
vt 0.000000 1.000000
vt 1.000000 0.000000
vt 1.000000 0.000000
vt 0.000000 0.000000
vt 1.000000 0.000000
vt 0.500000 1.000000
vt 0.500000 0.000000
vt 0.000000 0.000000
vt 0.500000 0.000000
vt 0.000000 0.000000
vt 0.500000 0.000000
vt 1.000000 1.000000
vt 0.500000 1.000000
vt 1.000000 1.000000
vt 0.500000 1.000000
vt 0.000000 1.000000
vt 0.000000 1.000000
vt 0.000000 1.000000
vt 1.000000 0.000000
vt 1.000000 0.000000
vt 0.000000 0.000000
vt 1.000000 0.000000
vt 0.500000 1.000000
vt 0.500000 0.000000
vt 0.000000 0.000000
vt 0.500000 0.000000
vt 0.000000 0.000000
vt 0.500000 0.000000
vt 1.000000 1.000000
vt 0.500000 1.000000
vt 1.000000 1.000000
vt 0.500000 1.000000
vt 0.000000 1.000000
vt 0.000000 1.000000
vt 0.000000 1.000000
vt 1.000000 0.000000
vt 1.000000 0.000000
vt 0.000000 0.000000
vt 1.000000 0.000000
vt 0.500000 1.000000
vt 0.500000 0.000000
vt 0.000000 0.000000
vt 0.500000 0.000000
vt 0.000000 0.000000
vt 0.500000 0.000000
vt 1.000000 1.000000
vt 0.500000 1.000000
vt 1.000000 1.000000
vt 0.500000 1.000000
vt 0.000000 1.000000
vt 0.000000 1.000000
vt 0.000000 1.000000
vt 1.000000 0.000000
vt 1.000000 0.000000
vt 0.000000 0.000000
vt 1.000000 0.000000
vt 0.500000 1.000000
vt 0.500000 0.000000
vt 0.000000 0.000000
vt 0.500000 0.000000
vt 0.000000 0.000000
vt 0.500000 0.000000
vt 1.000000 1.000000
vt 0.500000 1.000000
vt 1.000000 1.000000
vt 0.500000 1.000000
vt 0.000000 1.000000
vt 0.000000 1.000000
vt 0.000000 1.000000
vt 1.000000 0.000000
vt 1.000000 0.000000
vt 0.000000 0.000000
vt 1.000000 0.000000
vt 0.500000 1.000000
vt 0.500000 0.000000
vt 0.000000 0.000000
vt 0.500000 0.000000
vt 0.000000 0.000000
vt 0.500000 0.000000
vt 1.000000 1.000000
vt 0.500000 1.000000
vt 1.000000 1.000000
vt 0.500000 1.000000
vt 0.000000 1.000000
vt 0.000000 1.000000
vt 0.000000 1.000000
vt 1.000000 0.000000
vt 1.000000 0.000000
vt 0.000000 0.000000
vt 1.000000 1.000000
vt 1.000000 1.000000
vt 1.000000 1.000000
vt 1.000000 1.000000
vt 1.000000 1.000000
vt 1.000000 1.000000
vt 1.000000 1.000000
vt 1.000000 1.000000
vt 1.000000 1.000000
vt 1.000000 1.000000
vn -0.5131 0.8418 0.1676
vn -0.4735 0.8808 0.0021
vn -0.5316 0.8258 0.1882
vn -0.0798 0.8258 0.5582
vn -0.1550 0.7432 0.6509
vn -0.1688 0.6582 0.7337
vn -0.2009 0.6196 0.7588
vn -0.1892 0.5255 0.8295
vn -0.4852 0.8495 -0.2070
vn -0.4984 0.8333 -0.2391
vn -0.7058 0.4434 -0.5525
vn 0.3326 0.8333 0.4415
vn 0.3377 0.8341 0.4361
vn 0.2985 0.8495 0.4350
vn 0.0913 0.8808 0.4647
vn 0.0775 0.8820 0.4649
vn -0.6861 0.6582 0.3101
vn -0.7043 0.6196 0.3464
vn -0.6076 0.7432 0.2801
vn -0.0632 0.8418 0.5361
vn -0.0192 0.8418 0.5394
vn -0.1610 0.8808 0.4453
vn -0.0062 0.8258 0.5639
vn 0.4967 0.8258 0.2670
vn 0.5578 0.7432 0.3695
vn 0.6308 0.6582 0.4110
vn 0.6433 0.6196 0.4497
vn 0.7137 0.5255 0.4631
vn -0.3613 0.8495 0.3844
vn -0.3960 0.8333 0.3857
vn -0.7616 0.4434 0.4726
vn 0.5290 0.8333 -0.1604
vn 0.5257 0.8341 -0.1670
vn 0.5111 0.8495 -0.1306
vn 0.4677 0.8808 0.0742
vn 0.4632 0.8820 0.0872
vn 0.0550 0.6582 0.7509
vn 0.0829 0.6196 0.7805
vn 0.0540 0.7432 0.6669
vn 0.4816 0.8418 0.2438
vn 0.5321 0.8418 0.0908
vn 0.4200 0.8808 0.2188
vn 0.5580 0.8258 0.0812
vn 0.3307 0.8258 -0.4568
vn 0.4404 0.7432 -0.5037
vn 0.4912 0.6582 -0.5705
vn 0.5313 0.6196 -0.5778
vn 0.5539 0.5255 -0.6458
vn 0.3329 0.8495 0.4092
vn 0.3296 0.8333 0.4438
vn 0.3671 0.4434 0.8177
vn -0.0886 0.8333 -0.5456
vn -0.0956 0.8341 -0.5432
vn -0.0615 0.8495 -0.5239
vn 0.1357 0.8808 -0.4537
vn 0.1480 0.8820 -0.4475
vn 0.7515 0.6582 0.0453
vn 0.7846 0.6196 0.0216
vn 0.6681 0.7432 0.0352
vn 0.3057 0.8418 -0.4449
vn -0.0665 0.8418 -0.5357
vn 0.0884 0.8808 -0.4652
vn -0.0832 0.8258 -0.5577
vn -0.5327 0.8258 -0.1849
vn -0.6093 0.7432 -0.2764
vn -0.6880 0.6582 -0.3058
vn -0.7065 0.6196 -0.3420
vn -0.7781 0.5255 -0.3441
vn 0.2958 0.8495 -0.4368
vn 0.3299 0.8333 -0.4436
vn 0.6771 0.4434 -0.5873
vn -0.4969 0.8333 0.2422
vn -0.4926 0.8341 0.2483
vn -0.4840 0.8495 0.2100
vn -0.4735 0.8808 0.0009
vn -0.4712 0.8820 -0.0127
vn -0.1734 0.6582 -0.7326
vn -0.2056 0.6196 -0.7575
vn -0.1590 0.7432 -0.6499
vn -0.5141 0.8418 -0.1644
vn 0.5183 0.8418 -0.1507
vn 0.4733 0.8808 0.0135
vn 0.5375 0.8258 -0.1707
vn 0.0980 0.8258 -0.5553
vn 0.1762 0.7432 -0.6455
vn 0.1928 0.6582 -0.7278
vn 0.2256 0.6196 -0.7518
vn 0.2163 0.5255 -0.8229
vn 0.4782 0.8495 0.2228
vn 0.4903 0.8333 0.2553
vn 0.6873 0.4434 0.5753
vn -0.3180 0.8333 -0.4522
vn -0.3233 0.8341 -0.4469
vn -0.2841 0.8495 -0.4445
vn -0.0760 0.8808 -0.4674
vn -0.0622 0.8820 -0.4672
vn 0.6959 0.6582 -0.2874
vn 0.7153 0.6196 -0.3232
vn 0.6164 0.7432 -0.2601
vn 0.0807 0.8418 -0.5337
vn -0.5356 0.8418 0.0668
vn -0.4653 0.8808 -0.0882
vn -0.5577 0.8258 0.0835
vn -0.1847 0.8258 0.5328
vn -0.2761 0.7432 0.6094
vn -0.3055 0.6582 0.6881
vn -0.3417 0.6196 0.7066
vn -0.3438 0.5255 0.7783
vn -0.4369 0.8495 -0.2956
vn -0.4437 0.8333 -0.3297
vn -0.5876 0.4434 -0.6768
vn 0.2424 0.8333 0.4968
vn 0.2485 0.8341 0.4925
vn 0.2102 0.8495 0.4839
vn 0.0011 0.8808 0.4735
vn -0.0125 0.8820 0.4712
vn -0.7326 0.6582 0.1737
vn -0.7574 0.6196 0.2059
vn -0.6498 0.7432 0.1593
vn -0.1642 0.8418 0.5142
vn 0.1930 0.8418 0.5041
vn 0.0257 0.8808 0.4728
vn 0.2145 0.8258 0.5215
vn 0.5615 0.8258 0.0517
vn 0.6578 0.7432 0.1222
vn 0.7412 0.6582 0.1319
vn 0.7679 0.6196 0.1627
vn 0.8379 0.5255 0.1475
vn -0.1824 0.8495 0.4950
vn -0.2139 0.8333 0.5097
vn -0.5165 0.4434 0.7325
vn 0.4243 0.8333 -0.3543
vn 0.4187 0.8341 -0.3591
vn 0.4195 0.8495 -0.3199
vn 0.4595 0.8808 -0.1144
vn 0.4605 0.8820 -0.1007
vn 0.3440 0.6582 0.6697
vn 0.3812 0.6196 0.6861
vn 0.3102 0.7432 0.5928
vn 0.5385 0.8418 0.0363
vn 0.3872 0.9018 -0.1920
vn 0.4330 0.9011 -0.0235
vn 0.3931 0.8923 -0.2219
vn -0.1809 0.9289 -0.3230
vn -0.1614 0.8750 -0.4563
vn -0.1910 0.8111 -0.5529
vn -0.1758 0.7818 -0.5982
vn -0.2221 0.7041 -0.6745
vn 0.5432 0.8276 0.1416
vn 0.5699 0.8062 0.1590
vn 0.8940 0.3796 0.2380
vn -0.4859 0.8736 -0.0269
vn -0.4878 0.8727 -0.0197
vn -0.4525 0.8911 -0.0338
vn -0.2846 0.9469 -0.1499
vn -0.2726 0.9493 -0.1564
vn 0.4662 0.7691 -0.4372
vn 0.4639 0.7410 -0.4856
vn 0.4137 0.8383 -0.3551
vn -0.1844 0.9383 -0.2926
vn 0.0772 0.9018 -0.4252
vn 0.2397 0.9011 -0.3614
vn 0.0567 0.8923 -0.4479
vn -0.3671 0.9289 -0.0477
vn -0.4624 0.8750 -0.1430
vn -0.5575 0.8111 -0.1769
vn -0.5848 0.7818 -0.2162
vn -0.6737 0.7041 -0.2246
vn 0.4379 0.8276 -0.3512
vn 0.4678 0.8062 -0.3622
vn 0.7247 0.3796 -0.5750
vn -0.3118 0.8736 0.3737
vn -0.3071 0.8727 0.3795
vn -0.2973 0.8911 0.3428
vn -0.2901 0.9469 0.1388
vn -0.2882 0.9493 0.1253
vn -0.0723 0.7691 -0.6350
vn -0.1125 0.7410 -0.6620
vn -0.0378 0.8383 -0.5438
vn -0.3449 0.9383 -0.0268
vn -0.2114 0.8659 -0.4534
vn -0.0383 0.8821 -0.4695
vn -0.2387 0.8531 -0.4640
vn -0.4424 0.8931 0.0819
vn -0.5640 0.8247 0.0421
vn -0.6573 0.7515 0.0573
vn -0.6960 0.7171 0.0359
vn -0.7709 0.6329 0.0717
vn 0.1502 0.8240 -0.5463
vn 0.1741 0.8040 -0.5686
vn 0.3517 0.3804 -0.8553
vn -0.2005 0.8776 0.4355
vn -0.1937 0.8776 0.4386
vn -0.2031 0.8934 0.4007
vn -0.2929 0.9321 0.2129
vn -0.2974 0.9336 0.1999
vn -0.4241 0.7057 -0.5676
vn -0.4690 0.6725 -0.5724
vn -0.3600 0.7846 -0.5048
vn -0.4142 0.9057 0.0902
vn -0.4711 0.8820 0.0156
vn -0.4941 0.8341 -0.2452
vn 0.6807 0.4434 0.5831
vn -0.7760 0.5255 0.3489
vn -0.1474 0.8820 0.4477
vn -0.4002 0.8341 0.3795
vn 0.7817 0.4434 -0.4385
vn 0.0606 0.5255 0.8486
vn 0.4241 0.8820 0.2057
vn 0.3230 0.8341 0.4472
vn -0.3306 0.4434 -0.8331
vn 0.8492 0.5255 0.0528
vn 0.0746 0.8820 -0.4654
vn 0.3350 0.8341 -0.4382
vn -0.7023 0.4434 0.5569
vn -0.1943 0.5255 -0.8283
vn 0.4713 0.8820 -0.0002
vn 0.4858 0.8341 0.2613
vn -0.6612 0.4434 -0.6051
vn 0.7870 0.5255 -0.3233
vn -0.4654 0.8820 -0.0744
vn -0.4383 0.8341 -0.3348
vn 0.5572 0.4434 0.7021
vn -0.8282 0.5255 0.1947
vn 0.0392 0.8820 0.4697
vn -0.2202 0.8341 0.5057
vn 0.5483 0.4434 -0.7090
vn 0.3873 0.5255 0.7575
vn 0.4244 0.9049 -0.0336
vn 0.5691 0.8053 0.1664
vn -0.8676 0.4921 -0.0723
vn 0.5234 0.6565 -0.5432
vn 0.2264 0.9049 -0.3605
vn 0.4732 0.8053 -0.3571
vn -0.5760 0.4921 0.6528
vn -0.1232 0.6565 -0.7442
vn -0.0501 0.8850 -0.4629
vn 0.1813 0.8039 -0.5665
vn -0.2733 0.5032 0.8198
vn -0.5064 0.5809 -0.6373
s 1
f 2/1/1 14/2/2 13/3/3
f 13/3/4 5/4/5 15/5/6
f 15/5/6 7/6/7 16/7/8
f 14/2/2 10/8/9 17/9/10
f 17/9/11 12/10/11 18/11/11
f 17/9/12 11/12/13 9/13/14
f 14/2/15 9/13/14 3/14/16
f 15/5/17 8/15/18 6/16/19
f 13/3/3 6/16/19 2/1/1
f 1/17/20 14/2/15 3/14/16
f 20/18/21 32/19/22 31/20/23
f 31/20/24 23/21/25 33/22/26
f 33/22/26 25/23/27 34/24/28
f 32/19/22 28/25/29 35/26/30
f 35/26/31 30/27/31 36/28/31
f 35/26/32 29/29/33 27/30/34
f 32/19/35 27/30/34 21/31/36
f 33/22/37 26/32/38 24/33/39
f 31/20/23 24/33/39 20/18/21
f 19/34/40 32/19/35 21/31/36
f 38/35/41 50/36/42 49/37/43
f 49/37/44 41/38/45 51/39/46
f 51/39/46 43/40/47 52/41/48
f 50/36/42 46/42/49 53/43/50
f 53/43/51 48/44/51 54/45/51
f 53/43/52 47/46/53 45/47/54
f 50/36/55 45/47/54 39/48/56
f 51/39/57 44/49/58 42/50/59
f 49/37/43 42/50/59 38/35/41
f 37/51/60 50/36/55 39/48/56
f 56/52/61 68/53/62 67/54/63
f 67/54/64 59/55/65 69/56/66
f 69/56/66 61/57/67 70/58/68
f 68/53/62 64/59/69 71/60/70
f 71/60/71 66/61/71 72/62/71
f 71/60/72 65/63/73 63/64/74
f 68/53/75 63/64/74 57/65/76
f 69/56/77 62/66/78 60/67/79
f 67/54/63 60/67/79 56/52/61
f 55/68/80 68/53/75 57/65/76
f 74/69/81 86/70/82 85/71/83
f 85/71/84 77/72/85 87/73/86
f 87/73/86 79/74/87 88/75/88
f 86/70/82 82/76/89 89/77/90
f 89/77/91 84/78/91 90/79/91
f 89/77/92 83/80/93 81/81/94
f 86/70/95 81/81/94 75/82/96
f 87/73/97 80/83/98 78/84/99
f 85/71/83 78/84/99 74/69/81
f 73/85/100 86/70/95 75/82/96
f 92/86/101 104/87/102 103/88/103
f 103/88/104 95/89/105 105/90/106
f 105/90/106 97/91/107 106/92/108
f 104/87/102 100/93/109 107/94/110
f 107/94/111 102/95/111 108/96/111
f 107/94/112 101/97/113 99/98/114
f 104/87/115 99/98/114 93/99/116
f 105/90/117 98/100/118 96/101/119
f 103/88/103 96/101/119 92/86/101
f 91/102/120 104/87/115 93/99/116
f 110/103/121 122/104/122 121/105/123
f 121/105/124 113/106/125 123/107/126
f 123/107/126 115/108/127 124/109/128
f 122/104/122 118/110/129 125/111/130
f 125/111/131 120/112/131 126/113/131
f 125/111/132 119/114/133 117/115/134
f 122/104/135 117/115/134 111/116/136
f 123/107/137 116/117/138 114/118/139
f 121/105/123 114/118/139 110/103/121
f 109/119/140 122/104/135 111/116/136
f 128/120/141 140/121/142 139/122/143
f 139/122/144 131/123/145 141/124/146
f 141/124/146 133/125/147 142/126/148
f 140/121/142 136/127/149 143/128/150
f 143/128/151 138/129/151 144/130/151
f 143/128/152 137/131/153 135/132/154
f 140/121/155 135/132/154 129/133/156
f 141/124/157 134/134/158 132/135/159
f 139/122/143 132/135/159 128/120/141
f 127/136/160 140/121/155 129/133/156
f 146/137/161 158/138/162 157/139/163
f 157/139/164 149/140/165 159/141/166
f 159/141/166 151/142/167 160/143/168
f 158/138/162 154/144/169 161/145/170
f 161/145/171 156/146/171 162/147/171
f 161/145/172 155/148/173 153/149/174
f 158/138/175 153/149/174 147/150/176
f 159/141/177 152/151/178 150/152/179
f 157/139/163 150/152/179 146/137/161
f 145/153/180 158/138/175 147/150/176
f 164/154/181 176/155/182 175/156/183
f 175/156/184 167/157/185 177/158/186
f 177/158/186 169/159/187 178/160/188
f 176/155/182 172/161/189 179/162/190
f 179/162/191 174/163/191 180/164/191
f 179/162/192 173/165/193 171/166/194
f 176/155/195 171/166/194 165/167/196
f 177/158/197 170/168/198 168/169/199
f 175/156/183 168/169/199 164/154/181
f 163/170/200 176/155/195 165/167/196
f 2/1/1 4/171/201 14/2/2
f 13/3/4 1/17/20 5/4/5
f 15/5/6 5/4/5 7/6/7
f 14/2/2 4/171/201 10/8/9
f 17/9/10 10/8/9 12/10/202
f 17/9/203 18/11/203 11/12/203
f 14/2/15 17/9/12 9/13/14
f 15/5/17 16/7/204 8/15/18
f 13/3/3 15/5/17 6/16/19
f 1/17/20 13/3/4 14/2/15
f 20/18/21 22/172/205 32/19/22
f 31/20/24 19/34/40 23/21/25
f 33/22/26 23/21/25 25/23/27
f 32/19/22 22/172/205 28/25/29
f 35/26/30 28/25/29 30/27/206
f 35/26/207 36/28/207 29/29/207
f 32/19/35 35/26/32 27/30/34
f 33/22/37 34/24/208 26/32/38
f 31/20/23 33/22/37 24/33/39
f 19/34/40 31/20/24 32/19/35
f 38/35/41 40/173/209 50/36/42
f 49/37/44 37/51/60 41/38/45
f 51/39/46 41/38/45 43/40/47
f 50/36/42 40/173/209 46/42/49
f 53/43/50 46/42/49 48/44/210
f 53/43/211 54/45/211 47/46/211
f 50/36/55 53/43/52 45/47/54
f 51/39/57 52/41/212 44/49/58
f 49/37/43 51/39/57 42/50/59
f 37/51/60 49/37/44 50/36/55
f 56/52/61 58/174/213 68/53/62
f 67/54/64 55/68/80 59/55/65
f 69/56/66 59/55/65 61/57/67
f 68/53/62 58/174/213 64/59/69
f 71/60/70 64/59/69 66/61/214
f 71/60/215 72/62/215 65/63/215
f 68/53/75 71/60/72 63/64/74
f 69/56/77 70/58/216 62/66/78
f 67/54/63 69/56/77 60/67/79
f 55/68/80 67/54/64 68/53/75
f 74/69/81 76/175/217 86/70/82
f 85/71/84 73/85/100 77/72/85
f 87/73/86 77/72/85 79/74/87
f 86/70/82 76/175/217 82/76/89
f 89/77/90 82/76/89 84/78/218
f 89/77/219 90/79/219 83/80/219
f 86/70/95 89/77/92 81/81/94
f 87/73/97 88/75/220 80/83/98
f 85/71/83 87/73/97 78/84/99
f 73/85/100 85/71/84 86/70/95
f 92/86/101 94/176/221 104/87/102
f 103/88/104 91/102/120 95/89/105
f 105/90/106 95/89/105 97/91/107
f 104/87/102 94/176/221 100/93/109
f 107/94/110 100/93/109 102/95/222
f 107/94/223 108/96/223 101/97/223
f 104/87/115 107/94/112 99/98/114
f 105/90/117 106/92/224 98/100/118
f 103/88/103 105/90/117 96/101/119
f 91/102/120 103/88/104 104/87/115
f 110/103/121 112/177/225 122/104/122
f 121/105/124 109/119/140 113/106/125
f 123/107/126 113/106/125 115/108/127
f 122/104/122 112/177/225 118/110/129
f 125/111/130 118/110/129 120/112/226
f 125/111/227 126/113/227 119/114/227
f 122/104/135 125/111/132 117/115/134
f 123/107/137 124/109/228 116/117/138
f 121/105/123 123/107/137 114/118/139
f 109/119/140 121/105/124 122/104/135
f 128/120/141 130/178/229 140/121/142
f 139/122/144 127/136/160 131/123/145
f 141/124/146 131/123/145 133/125/147
f 140/121/142 130/178/229 136/127/149
f 143/128/150 136/127/149 138/129/230
f 143/128/231 144/130/231 137/131/231
f 140/121/155 143/128/152 135/132/154
f 141/124/157 142/126/232 134/134/158
f 139/122/143 141/124/157 132/135/159
f 127/136/160 139/122/144 140/121/155
f 146/137/161 148/179/233 158/138/162
f 157/139/164 145/153/180 149/140/165
f 159/141/166 149/140/165 151/142/167
f 158/138/162 148/179/233 154/144/169
f 161/145/170 154/144/169 156/146/234
f 161/145/235 162/147/235 155/148/235
f 158/138/175 161/145/172 153/149/174
f 159/141/177 160/143/236 152/151/178
f 157/139/163 159/141/177 150/152/179
f 145/153/180 157/139/164 158/138/175
f 164/154/181 166/180/237 176/155/182
f 175/156/184 163/170/200 167/157/185
f 177/158/186 167/157/185 169/159/187
f 176/155/182 166/180/237 172/161/189
f 179/162/190 172/161/189 174/163/238
f 179/162/239 180/164/239 173/165/239
f 176/155/195 179/162/192 171/166/194
f 177/158/197 178/160/240 170/168/198
f 175/156/183 177/158/197 168/169/199
f 163/170/200 175/156/184 176/155/195
