# Blender v3.4.1 OBJ File: 'decoratives_and_entities.blend'
# www.blender.org
o Castle_Rampart_Cube.040
v -0.038139 -0.243538 0.600000
v -0.038139 0.243538 0.600000
v -0.038139 -0.243538 -0.600000
v -0.038139 0.243538 -0.600000
v 0.060899 -0.126306 0.532910
v 0.060899 0.199507 0.532910
v 0.060899 -0.126306 -0.532910
v 0.060899 0.199507 -0.532910
v 0.060899 0.243538 -0.600000
v 0.060899 -0.170337 -0.600000
v 0.060899 -0.170337 0.600000
v 0.060899 0.243538 0.600000
v 0.024859 0.199507 -0.532910
v 0.024859 -0.126306 -0.532910
v 0.024859 -0.126306 0.532910
v 0.024859 0.199507 0.532910
v -0.038139 0.187276 0.600000
v -0.038139 0.187276 -0.600000
v -0.060899 0.187276 0.600000
v -0.060899 0.243538 0.600000
v -0.060899 0.243538 -0.600000
v -0.060899 0.187276 -0.600000
vt 0.625000 1.000000
vt 0.500000 1.000000
vt 0.500000 1.000000
vt 0.500000 0.250000
vt 0.625000 0.500000
vt 0.375000 0.500000
vt 0.401597 0.740827
vt 0.598403 0.740827
vt 0.598403 0.740827
vt 0.625000 0.750000
vt 0.125000 0.750000
vt 0.125000 0.500000
vt 0.875000 0.500000
vt 0.401597 0.509173
vt 0.598403 0.509173
vt 0.375000 0.750000
vt 0.598403 0.509173
vt 0.401597 0.740827
vt 0.401597 0.509173
vt 0.500000 0.000000
vt 0.375000 0.250000
vt 0.375000 0.000000
vt 0.625000 0.000000
vt 0.500000 0.250000
vt 0.500000 0.000000
vt 0.875000 0.750000
vt 0.875000 0.750000
vt 0.625000 0.250000
vt 0.625000 0.250000
vt 0.625000 1.000000
vt 0.375000 1.000000
vt 0.875000 0.500000
vn 0.0000 0.0000 1.0000
vn 0.0000 0.0000 -1.0000
vn 0.5944 -0.8042 0.0000
vn 0.0000 1.0000 0.0000
vn 1.0000 0.0000 0.0000
vn 0.0000 -1.0000 0.0000
vn -1.0000 0.0000 0.0000
s off
f 2/1/1 19/2/1 17/3/1
f 18/4/2 9/5/2 10/6/2
f 5/7/2 16/8/2 6/9/2
f 12/10/1 2/1/1 17/3/1
f 10/6/3 1/11/3 3/12/3
f 4/13/4 12/10/4 9/5/4
f 7/14/5 9/5/5 8/15/5
f 5/7/5 10/6/5 7/14/5
f 8/15/5 12/10/5 6/9/5
f 6/9/5 11/16/5 5/7/5
f 13/17/5 15/18/5 14/19/5
f 7/14/4 15/18/4 5/7/4
f 6/9/6 13/17/6 8/15/6
f 8/15/1 14/19/1 7/14/1
f 17/20/7 3/21/7 1/22/7
f 20/23/7 22/24/7 19/25/7
f 17/20/6 22/24/6 18/4/6
f 4/13/4 20/26/4 2/27/4
f 18/4/2 21/28/2 4/29/2
f 2/1/1 20/30/1 19/2/1
f 10/6/2 3/21/2 18/4/2
f 18/4/2 4/29/2 9/5/2
f 5/7/2 15/18/2 16/8/2
f 1/31/1 11/16/1 17/3/1
f 11/16/1 12/10/1 17/3/1
f 10/6/3 11/16/3 1/11/3
f 4/13/4 2/27/4 12/10/4
f 7/14/5 10/6/5 9/5/5
f 5/7/5 11/16/5 10/6/5
f 8/15/5 9/5/5 12/10/5
f 6/9/5 12/10/5 11/16/5
f 13/17/5 16/8/5 15/18/5
f 7/14/4 14/19/4 15/18/4
f 6/9/6 16/8/6 13/17/6
f 8/15/1 13/17/1 14/19/1
f 17/20/7 18/4/7 3/21/7
f 20/23/7 21/28/7 22/24/7
f 17/20/6 19/25/6 22/24/6
f 4/13/4 21/32/4 20/26/4
f 18/4/2 22/24/2 21/28/2
