# Blender v3.4.1 OBJ File: 'decoratives_and_entities.blend'
# www.blender.org
o Bird_Body_Bird_Still_Cube.006
v -0.006949 -0.330212 0.254860
v -0.076866 -0.342137 0.128122
v -0.006971 -0.337651 0.254833
v -0.001253 -0.337651 0.250075
v -0.063104 -0.342137 0.116669
v -0.001231 -0.330212 0.250102
v -0.076813 -0.324233 0.128186
v -0.063051 -0.324233 0.116733
v -0.073080 -0.324504 0.129035
v -0.077993 -0.137044 -0.080202
v -0.073080 -0.335961 0.117070
v -0.056515 -0.335961 0.117070
v -0.051601 -0.137044 -0.080202
v -0.056515 -0.324504 0.129035
v -0.051601 -0.118791 -0.061140
v -0.077993 -0.118791 -0.061140
v -0.069215 -0.329270 0.288430
v -0.073508 -0.342500 0.082830
v -0.069215 -0.339314 0.288383
v -0.054878 -0.342500 0.082830
v -0.059171 -0.339314 0.288383
v -0.059171 -0.329270 0.288430
v -0.054878 -0.323870 0.082916
v -0.058981 -0.338066 0.020817
v -0.058981 -0.327643 0.020865
v -0.122147 -0.330212 0.252742
v -0.065911 -0.342137 0.116730
v -0.122126 -0.337651 0.252715
v -0.051662 -0.342137 0.127571
v -0.116206 -0.337651 0.257219
v -0.116227 -0.330212 0.257246
v -0.051712 -0.324233 0.127638
v -0.069405 -0.327643 0.020865
v -0.073508 -0.323870 0.082916
v -0.069405 -0.338066 0.020817
v 0.007884 -0.330212 0.254860
v 0.077802 -0.342137 0.128122
v 0.007906 -0.337651 0.254833
v 0.002188 -0.337651 0.250075
v 0.064039 -0.342137 0.116669
v 0.002166 -0.330212 0.250102
v 0.077749 -0.324233 0.128186
v 0.063986 -0.324233 0.116733
v 0.078928 -0.118791 -0.061140
v 0.074015 -0.335961 0.117070
v 0.074015 -0.324504 0.129035
v 0.078928 -0.137044 -0.080202
v 0.057450 -0.335961 0.117070
v 0.052537 -0.118791 -0.061140
v 0.057450 -0.324504 0.129035
v 0.052537 -0.137044 -0.080202
v 0.070150 -0.329270 0.288430
v 0.074443 -0.342500 0.082830
v 0.070150 -0.339314 0.288383
v 0.055813 -0.342500 0.082830
v 0.060106 -0.339314 0.288383
v 0.060106 -0.329270 0.288430
v 0.074443 -0.323870 0.082916
v 0.055813 -0.323870 0.082916
v 0.059917 -0.338066 0.020817
v 0.059917 -0.327643 0.020865
v 0.123082 -0.330212 0.252742
v 0.066846 -0.342137 0.116730
v 0.123062 -0.337651 0.252715
v 0.052597 -0.342137 0.127571
v 0.117141 -0.337651 0.257219
v 0.117162 -0.330212 0.257246
v 0.052647 -0.324233 0.127637
v 0.070340 -0.327643 0.020865
v 0.070340 -0.338066 0.020817
v 0.000000 0.135113 -0.187927
v 0.118781 0.003712 -0.289510
v 0.000000 0.058714 -0.305222
v 0.204185 -0.088630 -0.063445
v 0.148118 -0.179103 -0.254204
v 0.090871 -0.212797 0.005637
v 0.065918 -0.249685 -0.225891
v -0.090871 -0.212797 0.005637
v -0.065919 -0.249685 -0.225891
v -0.148118 -0.179103 -0.254204
v 0.090871 -0.116174 0.179306
v -0.204185 -0.088630 -0.063445
v -0.118781 0.003712 -0.289510
v -0.030152 -0.177809 -0.449743
v -0.163744 0.162828 0.024080
v -0.121222 0.148178 0.224145
v -0.097213 0.232680 0.161495
v -0.163744 0.066205 -0.149589
v -0.204185 0.007993 0.110224
v -0.090871 -0.116174 0.179306
v 0.000000 0.231736 -0.014258
v 0.163744 0.066205 -0.149589
v 0.204185 0.007993 0.110224
v 0.163744 0.162828 0.024080
v -0.053949 0.017574 0.303595
v 0.121223 0.148178 0.224145
v 0.000000 0.270286 0.133613
v 0.053949 0.017574 0.303595
v 0.097213 0.232680 0.161495
v -0.054332 -0.071876 -0.450856
v -0.029716 -0.113967 -0.511737
v -0.067750 -0.130664 -0.450239
v 0.000000 -0.045713 -0.451131
v 0.030152 -0.177809 -0.449743
v 0.067750 -0.130664 -0.450239
v 0.054331 -0.071876 -0.450856
v 0.023831 -0.088182 -0.512008
v 0.013225 -0.134646 -0.511520
v -0.013225 -0.134646 -0.511520
v 0.029716 -0.113967 -0.511737
v -0.023831 -0.088182 -0.512008
v 0.000000 -0.076706 -0.512128
v -0.065961 -0.324233 0.116796
v 0.066897 -0.324233 0.116796
v -0.064055 0.191833 0.288891
v -0.051368 0.236485 0.255786
v -0.028507 0.122819 0.330873
v 0.064056 0.191833 0.288891
v 0.000000 0.256356 0.241053
v 0.028508 0.122819 0.330873
v 0.051369 0.236485 0.255786
v 0.014601 0.201624 0.311962
v -0.040033 0.003741 -0.339070
v 0.040033 0.003741 -0.339070
v -0.121092 -0.022420 -0.496155
v 0.121092 -0.022420 -0.496155
v -0.152738 -0.023308 -0.627323
v 0.151806 -0.023308 -0.627323
v -0.161171 0.001394 -0.713669
v 0.158232 0.001394 -0.705613
v 0.101049 -0.023308 -0.627323
v 0.050292 -0.023308 -0.627323
v -0.000466 -0.023308 -0.627323
v -0.051223 -0.023308 -0.627323
v -0.101981 -0.023308 -0.627323
v 0.109177 0.001394 -0.726350
v 0.058029 0.001394 -0.737439
v -0.000466 0.001394 -0.692993
v -0.058961 0.001394 -0.753147
v -0.117455 0.001394 -0.737439
v 0.000000 0.029660 -0.339070
v 0.000000 -0.022420 -0.496155
vt 0.172217 0.839818
vt 0.161370 0.910040
vt 0.167710 0.840063
vt 0.315666 0.793035
vt 0.326244 0.880177
vt 0.321849 0.881339
vt 0.910873 0.376570
vt 0.906351 0.294295
vt 0.910873 0.294245
vt 0.172217 0.742610
vt 0.161636 0.829791
vt 0.167821 0.741441
vt 0.636364 0.734424
vt 0.639863 0.729411
vt 0.639863 0.733881
vt 0.723843 0.843829
vt 0.715424 0.854810
vt 0.715424 0.843857
vt 0.296278 0.861093
vt 0.308454 0.694049
vt 0.306407 0.861093
vt 0.154424 0.819602
vt 0.141285 0.697874
vt 0.151418 0.697874
vt 0.261752 0.864394
vt 0.247488 0.694049
vt 0.257602 0.694049
vt 0.355615 0.705236
vt 0.368711 0.826687
vt 0.358578 0.826686
vt 0.739327 0.843830
vt 0.731055 0.853962
vt 0.731055 0.843830
vt 0.355615 0.694049
vt 0.371759 0.705239
vt 0.107712 0.697874
vt 0.096413 0.821531
vt 0.101620 0.697889
vt 0.006231 0.861079
vt 0.015002 0.735519
vt 0.012375 0.861079
vt 0.059363 0.735862
vt 0.068541 0.861515
vt 0.062433 0.861515
vt 0.402327 0.731878
vt 0.411098 0.857622
vt 0.404954 0.857622
vt 0.639987 0.691365
vt 0.633949 0.697509
vt 0.633949 0.691365
vt 0.070691 0.735862
vt 0.062075 0.697874
vt 0.068414 0.697874
vt 0.904891 0.199378
vt 0.899990 0.287033
vt 0.900382 0.199378
vt 0.190011 0.742597
vt 0.179428 0.829812
vt 0.185614 0.741441
vt 0.355615 0.833899
vt 0.366504 0.912570
vt 0.361980 0.912506
vt 0.204516 0.700671
vt 0.215101 0.787930
vt 0.210703 0.789092
vt 0.639987 0.717728
vt 0.636364 0.721685
vt 0.636364 0.717215
vt 0.708212 0.843857
vt 0.699496 0.854782
vt 0.699496 0.843830
vt 0.633949 0.657209
vt 0.640326 0.650832
vt 0.640326 0.657209
vt 0.107712 0.821503
vt 0.098541 0.859375
vt 0.411212 0.694049
vt 0.413723 0.731878
vt 0.003606 0.735519
vt 0.012493 0.697874
vt 0.144624 0.910301
vt 0.149133 0.826924
vt 0.149133 0.910347
vt 0.204515 0.799104
vt 0.215100 0.886088
vt 0.210703 0.887251
vt 0.114924 0.830970
vt 0.125814 0.911942
vt 0.121289 0.911890
vt 0.910573 0.102666
vt 0.899990 0.189390
vt 0.906176 0.101513
vt 0.639861 0.753421
vt 0.636364 0.757960
vt 0.636364 0.753410
vt 0.692284 0.845137
vt 0.683861 0.854589
vt 0.683861 0.843829
vt 0.268964 0.694049
vt 0.282909 0.862332
vt 0.272779 0.862332
vt 0.378971 0.694049
vt 0.392089 0.819663
vt 0.381956 0.819663
vt 0.234644 0.694049
vt 0.222313 0.864946
vt 0.224530 0.694049
vt 0.114924 0.697874
vt 0.128062 0.823758
vt 0.117929 0.823758
vt 0.381958 0.826685
vt 0.660718 0.859974
vt 0.647537 0.843829
vt 0.660718 0.843829
vt 0.088841 0.697874
vt 0.077903 0.822356
vt 0.082749 0.697874
vt 0.423563 0.857613
vt 0.432331 0.732062
vt 0.429707 0.857613
vt 0.052151 0.823630
vt 0.043543 0.697874
vt 0.049650 0.697874
vt 0.024838 0.861062
vt 0.033610 0.735899
vt 0.030982 0.861062
vt 0.633949 0.678009
vt 0.640093 0.684153
vt 0.633949 0.684153
vt 0.040822 0.823630
vt 0.049983 0.861520
vt 0.043645 0.861520
vt 0.190283 0.839806
vt 0.179428 0.916748
vt 0.185773 0.839974
vt 0.344044 0.791394
vt 0.333456 0.878448
vt 0.339645 0.790237
vt 0.395115 0.913958
vt 0.390593 0.833959
vt 0.395115 0.833897
vt 0.899990 0.006369
vt 0.910577 0.093153
vt 0.906179 0.094301
vt 0.639985 0.746186
vt 0.636364 0.741647
vt 0.639985 0.741636
vt 0.667929 0.855826
vt 0.676650 0.843830
vt 0.676650 0.854590
vt 0.640215 0.664421
vt 0.633949 0.670797
vt 0.633949 0.664421
vt 0.089202 0.822356
vt 0.079287 0.859389
vt 0.022214 0.735899
vt 0.031100 0.697874
vt 0.420935 0.732062
vt 0.429821 0.694049
vt 0.540171 0.196382
vt 0.467503 0.137621
vt 0.540170 0.126630
vt 0.199276 0.160719
vt 0.082585 0.258515
vt 0.088132 0.130491
vt 0.892778 0.184751
vt 0.799848 0.316150
vt 0.840899 0.178451
vt 0.697285 0.273248
vt 0.766500 0.147330
vt 0.725603 0.114822
vt 0.009641 0.386611
vt 0.003606 0.265270
vt 0.294418 0.420335
vt 0.413334 0.522519
vt 0.301844 0.551912
vt 0.612823 0.137636
vt 0.838197 0.032651
vt 0.412205 0.305846
vt 0.356897 0.203213
vt 0.421751 0.215390
vt 0.405352 0.426868
vt 0.301271 0.299313
vt 0.654782 0.374885
vt 0.640326 0.221571
vt 0.540171 0.300076
vt 0.192847 0.253512
vt 0.088620 0.379856
vt 0.222313 0.422743
vt 0.439997 0.221551
vt 0.439997 0.325244
vt 0.625991 0.661396
vt 0.528798 0.747337
vt 0.515320 0.650832
vt 0.198883 0.374853
vt 0.139863 0.481628
vt 0.599627 0.407476
vt 0.540166 0.389475
vt 0.439997 0.710472
vt 0.481258 0.812299
vt 0.051602 0.491485
vt 0.480694 0.407464
vt 0.422090 0.634446
vt 0.418089 0.680417
vt 0.388583 0.649532
vt 0.540167 0.040101
vt 0.872228 0.046887
vt 0.892778 0.057376
vt 0.573400 0.040935
vt 0.172469 0.037313
vt 0.205583 0.053006
vt 0.184429 0.734229
vt 0.161636 0.716052
vt 0.184429 0.697874
vt 0.861577 0.003606
vt 0.876504 0.009850
vt 0.200577 0.008727
vt 0.215101 0.015610
vt 0.554744 0.003972
vt 0.408756 0.686837
vt 0.367306 0.664167
vt 0.190304 0.003606
vt 0.525589 0.003969
vt 0.540168 0.003606
vt 0.172217 0.909449
vt 0.326244 0.790237
vt 0.899990 0.376691
vt 0.172217 0.832606
vt 0.636364 0.729954
vt 0.723843 0.854782
vt 0.292315 0.694049
vt 0.138280 0.819602
vt 0.245639 0.864394
vt 0.739327 0.853962
vt 0.371759 0.694051
vt 0.639987 0.697509
vt 0.910844 0.287033
vt 0.190011 0.832594
vt 0.366504 0.834052
vt 0.215101 0.697874
vt 0.639987 0.722199
vt 0.708212 0.854809
vt 0.633949 0.650832
vt 0.104863 0.859359
vt 0.404836 0.694049
vt 0.006117 0.697874
vt 0.138280 0.826814
vt 0.215100 0.796304
vt 0.125814 0.831095
vt 0.910573 0.192166
vt 0.639861 0.757971
vt 0.692284 0.855897
vt 0.285103 0.694049
vt 0.395115 0.694049
vt 0.238427 0.864946
vt 0.131068 0.697874
vt 0.392091 0.826685
vt 0.647537 0.859974
vt 0.640093 0.678009
vt 0.190283 0.916343
vt 0.344044 0.881233
vt 0.384232 0.914106
vt 0.910577 0.003606
vt 0.636364 0.746198
vt 0.667929 0.845066
vt 0.640215 0.670797
vt 0.085608 0.859389
vt 0.024724 0.697874
vt 0.423445 0.694049
vt 0.877993 0.308996
vt 0.647537 0.212597
vt 0.816311 0.025390
vt 0.757344 0.417786
vt 0.640326 0.325265
vt 0.229166 0.301722
vt 0.594502 0.753608
vt 0.204368 0.470345
vt 0.432785 0.673800
vt 0.506929 0.040929
vt 0.197079 0.707961
vt 0.197079 0.724141
vt 0.168656 0.730629
vt 0.168656 0.701475
vt 0.149049 0.025639
vt 0.540166 0.389475
vt 0.480694 0.407464
vt 0.528798 0.747337
vt 0.421751 0.215390
vt 0.481258 0.812299
vt 0.051602 0.491485
vt 0.204368 0.470345
vt 0.139863 0.481628
vt 0.594502 0.753608
vt 0.528798 0.747337
vt 0.481258 0.812299
vt 0.051602 0.491485
vt 0.139863 0.481628
vt 0.599627 0.407476
vt 0.540166 0.389475
vt 0.356897 0.203213
vt 0.421751 0.215390
vt 0.480694 0.407464
vt 1.000000 0.000000
vt 0.500000 1.000000
vt 0.500000 0.000000
vt 0.500000 1.000000
vt 0.333333 1.000000
vt 0.833333 1.000000
vt 1.000000 1.000000
vt 0.833333 1.000000
vt 0.166667 1.000000
vt 0.000000 1.000000
vt 0.000000 1.000000
vt 0.166667 1.000000
vt 0.500000 1.000000
vt 0.333333 1.000000
vt 0.666667 1.000000
vt 0.666667 1.000000
vt 0.000000 0.000000
vt 0.000000 1.000000
vt 1.000000 1.000000
vt 1.000000 1.000000
vn -0.1477 0.5546 0.8189
vn -0.7890 -0.5972 -0.1443
vn -0.1511 -0.5599 0.8146
vn 0.7918 -0.5828 0.1827
vn 0.1821 -0.5726 -0.7993
vn 0.7955 0.5763 0.1871
vn -0.7852 0.6033 -0.1398
vn 0.1856 0.5775 -0.7950
vn -0.5727 -0.0276 0.8193
vn -0.5819 0.0079 -0.8132
vn -0.5727 -0.8197 -0.0080
vn 0.5727 -0.8197 -0.0080
vn 0.5819 0.0079 -0.8132
vn 0.5727 -0.0276 0.8193
vn 0.5819 0.8128 0.0274
vn -0.5819 0.8128 0.0274
vn -0.5718 0.5688 0.5912
vn -0.7068 -0.7066 -0.0348
vn -0.5718 -0.5748 0.5854
vn 0.7068 -0.7066 -0.0348
vn 0.5718 -0.5748 0.5854
vn 0.5718 0.5688 0.5912
vn 0.7068 0.7069 -0.0273
vn 0.5593 -0.5562 -0.6147
vn 0.5592 0.5623 -0.6091
vn -0.7868 0.5762 0.2210
vn -0.2162 -0.5727 -0.7907
vn -0.7833 -0.5827 0.2165
vn 0.7821 -0.5971 -0.1781
vn 0.1859 -0.5600 0.8074
vn 0.1826 0.5547 0.8117
vn 0.7785 0.6032 -0.1733
vn -0.5592 0.5623 -0.6091
vn -0.7068 0.7069 -0.0273
vn -0.5593 -0.5562 -0.6147
vn -0.1477 -0.5546 -0.8189
vn -0.7890 0.5972 0.1443
vn -0.1511 0.5599 -0.8146
vn 0.7918 0.5828 -0.1827
vn 0.1821 0.5726 0.7993
vn 0.7955 -0.5763 -0.1871
vn -0.7852 -0.6033 0.1398
vn 0.1856 -0.5775 0.7950
vn -0.5819 -0.8128 -0.0274
vn -0.5727 0.8197 0.0080
vn -0.5727 0.0276 -0.8193
vn -0.5819 -0.0079 0.8132
vn 0.5727 0.8197 0.0080
vn 0.5819 -0.8128 -0.0274
vn 0.5727 0.0276 -0.8193
vn 0.5819 -0.0079 0.8132
vn -0.5718 -0.5688 -0.5912
vn -0.7068 0.7066 0.0348
vn -0.5718 0.5748 -0.5854
vn 0.7068 0.7066 0.0348
vn 0.5718 0.5748 -0.5854
vn 0.5718 -0.5688 -0.5912
vn -0.7068 -0.7069 0.0273
vn 0.7068 -0.7069 0.0273
vn 0.5593 0.5562 0.6147
vn 0.5592 -0.5623 0.6091
vn -0.7868 -0.5763 -0.2210
vn -0.2162 0.5727 0.7907
vn -0.7834 0.5826 -0.2165
vn 0.7821 0.5971 0.1781
vn 0.1859 0.5600 -0.8074
vn 0.1826 -0.5547 -0.8117
vn 0.7785 -0.6032 0.1734
vn -0.5592 -0.5623 0.6091
vn -0.5593 0.5562 0.6147
vn -0.0000 0.8587 -0.5124
vn 0.7497 0.4649 -0.4709
vn 0.0000 0.8268 -0.5625
vn 0.9669 -0.2550 -0.0080
vn 0.8640 -0.4374 -0.2493
vn 0.4162 -0.8607 0.2933
vn 0.3201 -0.9429 -0.0921
vn -0.4162 -0.8607 0.2933
vn -0.3201 -0.9429 -0.0921
vn -0.8640 -0.4374 -0.2493
vn 0.4319 -0.6884 0.5827
vn -0.9669 -0.2550 -0.0080
vn -0.7497 0.4649 -0.4709
vn -0.3521 -0.8032 -0.4805
vn -0.7841 0.6027 -0.1485
vn -0.8521 0.2414 0.4643
vn -0.6480 0.7560 0.0920
vn -0.7970 0.4770 -0.3706
vn -0.9534 -0.0878 0.2885
vn -0.4319 -0.6884 0.5827
vn -0.0000 0.9253 -0.3792
vn 0.7970 0.4770 -0.3706
vn 0.9534 -0.0878 0.2885
vn 0.7841 0.6027 -0.1485
vn -0.4096 -0.3579 0.8391
vn 0.8521 0.2414 0.4643
vn -0.0000 0.9959 -0.0900
vn 0.4096 -0.3579 0.8391
vn 0.6480 0.7560 0.0920
vn -0.6931 0.5164 -0.5029
vn -0.5553 -0.1118 -0.8241
vn -0.8448 -0.2052 -0.4942
vn 0.0000 0.8560 -0.5169
vn 0.3521 -0.8032 -0.4805
vn 0.8448 -0.2052 -0.4942
vn 0.6931 0.5164 -0.5029
vn 0.4587 0.3829 -0.8019
vn 0.2401 -0.4855 -0.8406
vn -0.2401 -0.4855 -0.8406
vn 0.5553 -0.1118 -0.8241
vn -0.4586 0.3829 -0.8019
vn -0.0000 0.6111 -0.7916
vn -0.2195 0.5776 -0.7862
vn -0.2196 -0.5776 0.7862
vn -0.0043 0.9487 0.3160
vn 0.4916 0.7711 0.4045
vn -0.3581 0.0227 0.9334
vn -0.4757 0.7634 0.4369
vn -0.6126 0.3783 0.6940
vn 0.3646 0.0271 0.9308
vn 0.6616 0.3918 0.6394
vn -0.0767 0.8059 0.5870
vn 0.3635 0.8995 -0.2424
vn 0.0000 0.9952 -0.0979
vn 0.0000 0.9492 -0.3147
vn 0.0000 0.9845 0.1756
vn -0.0195 0.9921 0.1236
vn -0.0084 0.9918 0.1272
vn -0.0708 0.9649 0.2527
vn -0.0619 0.9719 0.2272
vn 0.0079 0.9934 0.1147
vn 0.0829 0.9717 0.2212
vn 0.0000 0.9885 0.1512
vn 0.0689 0.9775 0.1992
vn -0.0185 0.9666 0.2556
vn -0.0388 0.9801 0.1948
vn 0.0162 0.9911 0.1324
vn 0.0365 0.9745 0.2212
vn -0.3635 0.8995 -0.2424
vn 0.0000 0.9978 -0.0666
vn 0.0000 0.9978 -0.0667
vn 0.0000 0.9863 0.1649
s 1
f 1/1/1 2/2/2 3/3/3
f 2/4/2 4/5/4 3/6/3
f 5/7/5 6/8/6 4/9/4
f 6/10/6 7/11/7 1/12/1
f 4/13/4 1/14/1 3/15/3
f 2/16/2 8/17/8 5/18/5
f 9/19/9 10/20/10 11/21/11
f 10/22/10 12/23/12 11/24/11
f 13/25/13 14/26/14 12/27/12
f 15/28/15 9/29/9 14/30/14
f 11/31/11 14/32/14 9/33/9
f 13/34/13 16/35/16 15/28/15
f 17/36/17 18/37/18 19/38/19
f 19/39/19 20/40/20 21/41/21
f 20/42/20 22/43/22 21/44/21
f 23/45/23 17/46/17 22/47/22
f 19/48/19 22/49/22 17/50/17
f 23/51/23 24/52/24 25/53/25
f 26/54/26 27/55/27 28/56/28
f 28/57/28 29/58/29 30/59/30
f 29/60/29 31/61/31 30/62/30
f 32/63/32 26/64/26 31/65/31
f 30/66/30 26/67/26 28/68/28
f 27/69/27 32/70/32 29/71/29
f 24/72/24 33/73/33 25/74/25
f 34/75/34 35/76/35 18/37/18
f 23/45/23 33/77/33 34/78/34
f 18/79/18 24/80/24 20/40/20
f 36/81/36 37/82/37 38/83/38
f 37/84/37 39/85/39 38/86/38
f 40/87/40 41/88/41 39/89/39
f 41/90/41 42/91/42 36/92/36
f 39/93/39 36/94/36 38/95/38
f 37/96/37 43/97/43 40/98/40
f 44/99/44 45/100/45 46/101/46
f 47/102/47 48/103/48 45/104/45
f 48/105/48 49/106/49 50/107/50
f 49/108/49 46/109/46 50/110/50
f 48/103/48 46/111/46 45/104/45
f 47/112/47 49/113/49 51/114/51
f 52/115/52 53/116/53 54/117/54
f 54/118/54 55/119/55 56/120/56
f 55/121/55 57/122/57 56/123/56
f 57/124/57 58/125/58 52/126/52
f 56/127/56 52/128/52 54/129/54
f 59/130/59 60/131/60 61/132/61
f 62/133/62 63/134/63 64/135/64
f 64/136/64 65/137/65 66/138/66
f 65/139/65 67/140/67 66/141/66
f 68/142/68 62/143/62 67/144/67
f 64/145/64 67/146/67 62/147/62
f 63/148/63 68/149/68 65/150/65
f 60/151/60 69/152/69 61/153/61
f 58/154/58 70/155/70 53/116/53
f 59/156/59 69/157/69 58/125/58
f 53/158/53 60/159/60 55/119/55
f 71/160/71 72/161/72 73/162/73
f 72/163/72 74/164/74 75/165/75
f 75/166/75 76/167/76 77/168/77
f 77/168/77 78/169/78 79/170/79
f 78/169/78 80/171/80 79/170/79
f 74/164/74 81/172/81 76/173/76
f 82/174/82 83/175/83 80/176/80
f 83/177/83 71/160/71 73/162/73
f 80/171/80 84/178/84 79/170/79
f 85/179/85 86/180/86 87/181/87
f 88/182/88 89/183/89 85/179/85
f 76/167/76 90/184/90 78/169/78
f 88/185/88 91/186/91 71/160/71
f 92/187/92 93/188/93 74/164/74
f 78/189/78 89/183/89 82/174/82
f 92/190/92 91/186/91 94/191/94
f 81/192/81 95/193/95 90/194/90
f 94/195/94 96/196/96 93/188/93
f 91/186/91 87/197/87 97/198/97
f 89/199/89 95/193/95 86/200/86
f 93/188/93 98/201/98 81/172/81
f 91/186/91 99/202/99 94/191/94
f 100/203/100 101/204/101 102/205/102
f 72/161/72 103/206/103 73/162/73
f 75/166/75 104/207/104 105/208/105
f 83/175/83 102/205/102 80/176/80
f 79/170/79 104/207/104 77/168/77
f 83/177/83 103/206/103 100/209/100
f 72/163/72 105/210/105 106/211/106
f 107/212/107 108/213/108 101/214/101
f 104/207/104 109/215/109 108/216/108
f 106/211/106 110/217/110 107/218/107
f 103/206/103 111/219/111 100/209/100
f 102/205/102 109/220/109 84/221/84
f 105/210/105 108/222/108 110/217/110
f 103/206/103 107/223/107 112/224/112
f 1/1/1 7/225/7 2/2/2
f 2/4/2 5/226/5 4/5/4
f 5/7/5 8/227/8 6/8/6
f 6/10/6 8/228/8 7/11/7
f 4/13/4 6/229/6 1/14/1
f 2/16/2 7/230/7 8/17/8
f 9/19/9 16/231/16 10/20/10
f 10/22/10 13/232/13 12/23/12
f 13/25/13 15/233/15 14/26/14
f 15/28/15 16/35/16 9/29/9
f 11/31/11 12/234/12 14/32/14
f 13/34/13 10/235/10 16/35/16
f 17/36/17 34/75/34 18/37/18
f 19/39/19 18/79/18 20/40/20
f 20/42/20 23/51/23 22/43/22
f 23/45/23 34/78/34 17/46/17
f 19/48/19 21/236/21 22/49/22
f 23/51/23 20/42/20 24/52/24
f 26/54/26 113/237/113 27/55/27
f 28/57/28 27/238/27 29/58/29
f 29/60/29 32/239/32 31/61/31
f 32/63/32 113/240/113 26/64/26
f 30/66/30 31/241/31 26/67/26
f 27/69/27 113/242/113 32/70/32
f 24/72/24 35/243/35 33/73/33
f 34/75/34 33/244/33 35/76/35
f 23/45/23 25/245/25 33/77/33
f 18/79/18 35/246/35 24/80/24
f 36/81/36 42/247/42 37/82/37
f 37/84/37 40/248/40 39/85/39
f 40/87/40 43/249/43 41/88/41
f 41/90/41 43/250/43 42/91/42
f 39/93/39 41/251/41 36/94/36
f 37/96/37 42/252/42 43/97/43
f 44/99/44 47/253/47 45/100/45
f 47/102/47 51/254/51 48/103/48
f 48/105/48 51/255/51 49/106/49
f 49/108/49 44/256/44 46/109/46
f 48/103/48 50/257/50 46/111/46
f 47/112/47 44/258/44 49/113/49
f 52/115/52 58/154/58 53/116/53
f 54/118/54 53/158/53 55/119/55
f 55/121/55 59/130/59 57/122/57
f 57/124/57 59/156/59 58/125/58
f 56/127/56 57/259/57 52/128/52
f 59/130/59 55/121/55 60/131/60
f 62/133/62 114/260/114 63/134/63
f 64/136/64 63/261/63 65/137/65
f 65/139/65 68/262/68 67/140/67
f 68/142/68 114/263/114 62/143/62
f 64/145/64 66/264/66 67/146/67
f 63/148/63 114/265/114 68/149/68
f 60/151/60 70/266/70 69/152/69
f 58/154/58 69/267/69 70/155/70
f 59/156/59 61/268/61 69/157/69
f 53/158/53 70/269/70 60/159/60
f 71/160/71 92/190/92 72/161/72
f 72/163/72 92/187/92 74/164/74
f 75/166/75 74/270/74 76/167/76
f 77/168/77 76/167/76 78/169/78
f 78/169/78 82/271/82 80/171/80
f 74/164/74 93/188/93 81/172/81
f 82/174/82 88/182/88 83/175/83
f 83/177/83 88/185/88 71/160/71
f 80/171/80 102/272/102 84/178/84
f 85/179/85 89/183/89 86/180/86
f 88/182/88 82/174/82 89/183/89
f 76/167/76 81/273/81 90/184/90
f 88/185/88 85/274/85 91/186/91
f 92/187/92 94/195/94 93/188/93
f 78/189/78 90/275/90 89/183/89
f 92/190/92 71/160/71 91/186/91
f 81/192/81 98/276/98 95/193/95
f 94/195/94 99/277/99 96/196/96
f 91/186/91 85/274/85 87/197/87
f 89/199/89 90/194/90 95/193/95
f 93/188/93 96/196/96 98/201/98
f 91/186/91 97/198/97 99/202/99
f 100/203/100 111/278/111 101/204/101
f 72/161/72 106/279/106 103/206/103
f 75/166/75 77/168/77 104/207/104
f 83/175/83 100/203/100 102/205/102
f 79/170/79 84/178/84 104/207/104
f 83/177/83 73/162/73 103/206/103
f 72/163/72 75/165/75 105/210/105
f 111/280/111 112/281/112 101/214/101
f 112/281/112 107/212/107 101/214/101
f 107/212/107 110/282/110 108/213/108
f 108/213/108 109/283/109 101/214/101
f 104/207/104 84/178/84 109/215/109
f 106/211/106 105/210/105 110/217/110
f 103/206/103 112/224/112 111/219/111
f 102/205/102 101/204/101 109/220/109
f 105/210/105 104/284/104 108/222/108
f 103/206/103 106/279/106 107/223/107
f 99/202/99 119/285/115 121/286/116
f 98/276/98 117/287/117 95/193/95
f 86/180/86 116/288/118 87/181/87
f 87/197/87 119/285/115 97/198/97
f 86/200/86 117/287/117 115/289/119
f 96/196/96 120/290/120 98/201/98
f 96/196/96 121/291/116 118/292/121
f 117/287/117 120/293/120 122/294/122
f 115/289/119 117/287/117 122/295/122
f 120/290/120 118/292/121 122/296/122
f 118/292/121 121/291/116 122/297/122
f 119/285/115 116/298/118 122/299/122
f 116/288/118 115/300/119 122/301/122
f 121/286/116 119/285/115 122/302/122
f 124/303/123 142/304/124 141/305/125
f 133/306/126 134/307/127 142/304/124
f 131/308/128 130/309/129 136/310/130
f 135/311/131 129/312/132 127/313/133
f 134/307/127 140/314/134 135/311/131
f 134/307/127 138/315/135 139/316/136
f 132/317/137 138/315/135 133/306/126
f 132/317/137 136/310/130 137/318/138
f 123/319/139 142/304/124 125/320/140
f 99/202/99 97/198/97 119/285/115
f 98/276/98 120/293/120 117/287/117
f 86/180/86 115/300/119 116/288/118
f 87/197/87 116/298/118 119/285/115
f 86/200/86 95/193/95 117/287/117
f 96/196/96 118/292/121 120/290/120
f 96/196/96 99/277/99 121/291/116
f 124/303/123 126/321/141 142/304/124
f 127/313/133 125/320/140 135/311/131
f 125/320/140 142/304/124 134/307/127
f 135/311/131 125/320/140 134/307/127
f 142/304/124 126/321/141 132/317/137
f 126/321/141 128/322/142 131/308/128
f 131/308/128 132/317/137 126/321/141
f 132/317/137 133/306/126 142/304/124
f 131/308/128 128/322/142 130/309/129
f 135/311/131 140/314/134 129/312/132
f 134/307/127 139/316/136 140/314/134
f 134/307/127 133/306/126 138/315/135
f 132/317/137 137/318/138 138/315/135
f 132/317/137 131/308/128 136/310/130
f 123/319/139 141/305/125 142/304/124
