# Blender v3.4.1 OBJ File: 'decoratives_and_entities.blend'
# www.blender.org
o Bird_Feet_Bird_Still_Cube.004
v -0.006949 -0.330212 0.254860
v -0.076866 -0.342137 0.128122
v -0.006971 -0.337651 0.254833
v -0.001253 -0.337651 0.250075
v -0.063104 -0.342137 0.116669
v -0.001231 -0.330212 0.250102
v -0.076813 -0.324233 0.128186
v -0.063051 -0.324233 0.116733
v -0.073080 -0.324504 0.129035
v -0.077993 -0.137044 -0.080202
v -0.073080 -0.335961 0.117070
v -0.056515 -0.335961 0.117070
v -0.051601 -0.137044 -0.080202
v -0.056515 -0.324504 0.129035
v -0.051601 -0.118791 -0.061140
v -0.077993 -0.118791 -0.061140
v -0.069215 -0.329270 0.288430
v -0.073508 -0.342500 0.082830
v -0.069215 -0.339314 0.288383
v -0.054878 -0.342500 0.082830
v -0.059171 -0.339314 0.288383
v -0.059171 -0.329270 0.288430
v -0.054878 -0.323870 0.082916
v -0.058981 -0.338066 0.020817
v -0.058981 -0.327643 0.020865
v -0.122147 -0.330212 0.252742
v -0.065911 -0.342137 0.116730
v -0.122126 -0.337651 0.252715
v -0.051662 -0.342137 0.127571
v -0.116206 -0.337651 0.257219
v -0.116227 -0.330212 0.257246
v -0.051712 -0.324233 0.127638
v -0.069405 -0.327643 0.020865
v -0.073508 -0.323870 0.082916
v -0.069405 -0.338066 0.020817
v 0.007884 -0.330212 0.254860
v 0.077802 -0.342137 0.128122
v 0.007906 -0.337651 0.254833
v 0.002188 -0.337651 0.250075
v 0.064039 -0.342137 0.116669
v 0.002166 -0.330212 0.250102
v 0.077749 -0.324233 0.128186
v 0.063986 -0.324233 0.116733
v 0.078928 -0.118791 -0.061140
v 0.074015 -0.335961 0.117070
v 0.074015 -0.324504 0.129035
v 0.078928 -0.137044 -0.080202
v 0.057450 -0.335961 0.117070
v 0.052537 -0.118791 -0.061140
v 0.057450 -0.324504 0.129035
v 0.052537 -0.137044 -0.080202
v 0.070150 -0.329270 0.288430
v 0.074443 -0.342500 0.082830
v 0.070150 -0.339314 0.288383
v 0.055813 -0.342500 0.082830
v 0.060106 -0.339314 0.288383
v 0.060106 -0.329270 0.288430
v 0.074443 -0.323870 0.082916
v 0.055813 -0.323870 0.082916
v 0.059917 -0.338066 0.020817
v 0.059917 -0.327643 0.020865
v 0.123082 -0.330212 0.252742
v 0.066846 -0.342137 0.116730
v 0.123062 -0.337651 0.252715
v 0.052597 -0.342137 0.127571
v 0.117141 -0.337651 0.257219
v 0.117162 -0.330212 0.257246
v 0.052647 -0.324233 0.127637
v 0.070340 -0.327643 0.020865
v 0.070340 -0.338066 0.020817
v -0.065961 -0.324233 0.116796
v 0.066897 -0.324233 0.116796
vt 0.172217 0.839818
vt 0.161370 0.910040
vt 0.167710 0.840063
vt 0.315666 0.793035
vt 0.326244 0.880177
vt 0.321849 0.881339
vt 0.910873 0.376570
vt 0.906351 0.294295
vt 0.910873 0.294245
vt 0.172217 0.742610
vt 0.161636 0.829791
vt 0.167821 0.741441
vt 0.636364 0.734424
vt 0.639863 0.729411
vt 0.639863 0.733881
vt 0.723843 0.843829
vt 0.715424 0.854810
vt 0.715424 0.843857
vt 0.296278 0.861093
vt 0.308454 0.694049
vt 0.306407 0.861093
vt 0.154424 0.819602
vt 0.141285 0.697874
vt 0.151418 0.697874
vt 0.261752 0.864394
vt 0.247488 0.694049
vt 0.257602 0.694049
vt 0.355615 0.705236
vt 0.368711 0.826687
vt 0.358578 0.826686
vt 0.739327 0.843830
vt 0.731055 0.853962
vt 0.731055 0.843830
vt 0.355615 0.694049
vt 0.371759 0.705239
vt 0.107712 0.697874
vt 0.096413 0.821531
vt 0.101620 0.697889
vt 0.006231 0.861079
vt 0.015002 0.735519
vt 0.012375 0.861079
vt 0.059363 0.735862
vt 0.068541 0.861515
vt 0.062433 0.861515
vt 0.402327 0.731878
vt 0.411098 0.857622
vt 0.404954 0.857622
vt 0.639987 0.691365
vt 0.633949 0.697509
vt 0.633949 0.691365
vt 0.070691 0.735862
vt 0.062075 0.697874
vt 0.068414 0.697874
vt 0.904891 0.199378
vt 0.899990 0.287033
vt 0.900382 0.199378
vt 0.190011 0.742597
vt 0.179428 0.829812
vt 0.185614 0.741441
vt 0.355615 0.833899
vt 0.366504 0.912570
vt 0.361980 0.912506
vt 0.204516 0.700671
vt 0.215101 0.787930
vt 0.210703 0.789092
vt 0.639987 0.717728
vt 0.636364 0.721685
vt 0.636364 0.717215
vt 0.708212 0.843857
vt 0.699496 0.854782
vt 0.699496 0.843830
vt 0.633949 0.657209
vt 0.640326 0.650832
vt 0.640326 0.657209
vt 0.107712 0.821503
vt 0.098541 0.859375
vt 0.411212 0.694049
vt 0.413723 0.731878
vt 0.003606 0.735519
vt 0.012493 0.697874
vt 0.144624 0.910301
vt 0.149133 0.826924
vt 0.149133 0.910347
vt 0.204515 0.799104
vt 0.215100 0.886088
vt 0.210703 0.887251
vt 0.114924 0.830970
vt 0.125814 0.911942
vt 0.121289 0.911890
vt 0.910573 0.102666
vt 0.899990 0.189390
vt 0.906176 0.101513
vt 0.639861 0.753421
vt 0.636364 0.757960
vt 0.636364 0.753410
vt 0.692284 0.845137
vt 0.683861 0.854589
vt 0.683861 0.843829
vt 0.268964 0.694049
vt 0.282909 0.862332
vt 0.272779 0.862332
vt 0.378971 0.694049
vt 0.392089 0.819663
vt 0.381956 0.819663
vt 0.234644 0.694049
vt 0.222313 0.864946
vt 0.224530 0.694049
vt 0.114924 0.697874
vt 0.128062 0.823758
vt 0.117929 0.823758
vt 0.381958 0.826685
vt 0.660718 0.859974
vt 0.647537 0.843829
vt 0.660718 0.843829
vt 0.088841 0.697874
vt 0.077903 0.822356
vt 0.082749 0.697874
vt 0.423563 0.857613
vt 0.432331 0.732062
vt 0.429707 0.857613
vt 0.052151 0.823630
vt 0.043543 0.697874
vt 0.049650 0.697874
vt 0.024838 0.861062
vt 0.033610 0.735899
vt 0.030982 0.861062
vt 0.633949 0.678009
vt 0.640093 0.684153
vt 0.633949 0.684153
vt 0.040822 0.823630
vt 0.049983 0.861520
vt 0.043645 0.861520
vt 0.190283 0.839806
vt 0.179428 0.916748
vt 0.185773 0.839974
vt 0.344044 0.791394
vt 0.333456 0.878448
vt 0.339645 0.790237
vt 0.395115 0.913958
vt 0.390593 0.833959
vt 0.395115 0.833897
vt 0.899990 0.006369
vt 0.910577 0.093153
vt 0.906179 0.094301
vt 0.639985 0.746186
vt 0.636364 0.741647
vt 0.639985 0.741636
vt 0.667929 0.855826
vt 0.676650 0.843830
vt 0.676650 0.854590
vt 0.640215 0.664421
vt 0.633949 0.670797
vt 0.633949 0.664421
vt 0.089202 0.822356
vt 0.079287 0.859389
vt 0.022214 0.735899
vt 0.031100 0.697874
vt 0.420935 0.732062
vt 0.429821 0.694049
vt 0.172217 0.909449
vt 0.326244 0.790237
vt 0.899990 0.376691
vt 0.172217 0.832606
vt 0.636364 0.729954
vt 0.723843 0.854782
vt 0.292315 0.694049
vt 0.138280 0.819602
vt 0.245639 0.864394
vt 0.739327 0.853962
vt 0.371759 0.694051
vt 0.639987 0.697509
vt 0.910844 0.287033
vt 0.190011 0.832594
vt 0.366504 0.834052
vt 0.215101 0.697874
vt 0.639987 0.722199
vt 0.708212 0.854809
vt 0.633949 0.650832
vt 0.104863 0.859359
vt 0.404836 0.694049
vt 0.006117 0.697874
vt 0.138280 0.826814
vt 0.215100 0.796304
vt 0.125814 0.831095
vt 0.910573 0.192166
vt 0.639861 0.757971
vt 0.692284 0.855897
vt 0.285103 0.694049
vt 0.395115 0.694049
vt 0.238427 0.864946
vt 0.131068 0.697874
vt 0.392091 0.826685
vt 0.647537 0.859974
vt 0.640093 0.678009
vt 0.190283 0.916343
vt 0.344044 0.881233
vt 0.384232 0.914106
vt 0.910577 0.003606
vt 0.636364 0.746198
vt 0.667929 0.845066
vt 0.640215 0.670797
vt 0.085608 0.859389
vt 0.024724 0.697874
vt 0.423445 0.694049
vn -0.1477 0.5546 0.8189
vn -0.7890 -0.5972 -0.1443
vn -0.1511 -0.5599 0.8146
vn 0.7918 -0.5828 0.1827
vn 0.1821 -0.5726 -0.7993
vn 0.7955 0.5763 0.1871
vn -0.7852 0.6033 -0.1398
vn 0.1856 0.5775 -0.7950
vn -0.5727 -0.0276 0.8193
vn -0.5819 0.0079 -0.8132
vn -0.5727 -0.8197 -0.0080
vn 0.5727 -0.8197 -0.0080
vn 0.5819 0.0079 -0.8132
vn 0.5727 -0.0276 0.8193
vn 0.5819 0.8128 0.0274
vn -0.5819 0.8128 0.0274
vn -0.5718 0.5688 0.5912
vn -0.7068 -0.7066 -0.0348
vn -0.5718 -0.5748 0.5854
vn 0.7068 -0.7066 -0.0348
vn 0.5718 -0.5748 0.5854
vn 0.5718 0.5688 0.5912
vn 0.7068 0.7069 -0.0273
vn 0.5593 -0.5562 -0.6147
vn 0.5592 0.5623 -0.6091
vn -0.7868 0.5762 0.2210
vn -0.2162 -0.5727 -0.7907
vn -0.7833 -0.5827 0.2165
vn 0.7821 -0.5971 -0.1781
vn 0.1859 -0.5600 0.8074
vn 0.1826 0.5547 0.8117
vn 0.7785 0.6032 -0.1733
vn -0.5592 0.5623 -0.6091
vn -0.7068 0.7069 -0.0273
vn -0.5593 -0.5562 -0.6147
vn -0.1477 -0.5546 -0.8189
vn -0.7890 0.5972 0.1443
vn -0.1511 0.5599 -0.8146
vn 0.7918 0.5828 -0.1827
vn 0.1821 0.5726 0.7993
vn 0.7955 -0.5763 -0.1871
vn -0.7852 -0.6033 0.1398
vn 0.1856 -0.5775 0.7950
vn -0.5819 -0.8128 -0.0274
vn -0.5727 0.8197 0.0080
vn -0.5727 0.0276 -0.8193
vn -0.5819 -0.0079 0.8132
vn 0.5727 0.8197 0.0080
vn 0.5819 -0.8128 -0.0274
vn 0.5727 0.0276 -0.8193
vn 0.5819 -0.0079 0.8132
vn -0.5718 -0.5688 -0.5912
vn -0.7068 0.7066 0.0348
vn -0.5718 0.5748 -0.5854
vn 0.7068 0.7066 0.0348
vn 0.5718 0.5748 -0.5854
vn 0.5718 -0.5688 -0.5912
vn -0.7068 -0.7069 0.0273
vn 0.7068 -0.7069 0.0273
vn 0.5593 0.5562 0.6147
vn 0.5592 -0.5623 0.6091
vn -0.7868 -0.5763 -0.2210
vn -0.2162 0.5727 0.7907
vn -0.7834 0.5826 -0.2165
vn 0.7821 0.5971 0.1781
vn 0.1859 0.5600 -0.8074
vn 0.1826 -0.5547 -0.8117
vn 0.7785 -0.6032 0.1734
vn -0.5592 -0.5623 0.6091
vn -0.5593 0.5562 0.6147
vn -0.2195 0.5776 -0.7862
vn -0.2196 -0.5776 0.7862
s 1
f 1/1/1 2/2/2 3/3/3
f 2/4/2 4/5/4 3/6/3
f 5/7/5 6/8/6 4/9/4
f 6/10/6 7/11/7 1/12/1
f 4/13/4 1/14/1 3/15/3
f 2/16/2 8/17/8 5/18/5
f 9/19/9 10/20/10 11/21/11
f 10/22/10 12/23/12 11/24/11
f 13/25/13 14/26/14 12/27/12
f 15/28/15 9/29/9 14/30/14
f 11/31/11 14/32/14 9/33/9
f 13/34/13 16/35/16 15/28/15
f 17/36/17 18/37/18 19/38/19
f 19/39/19 20/40/20 21/41/21
f 20/42/20 22/43/22 21/44/21
f 23/45/23 17/46/17 22/47/22
f 19/48/19 22/49/22 17/50/17
f 23/51/23 24/52/24 25/53/25
f 26/54/26 27/55/27 28/56/28
f 28/57/28 29/58/29 30/59/30
f 29/60/29 31/61/31 30/62/30
f 32/63/32 26/64/26 31/65/31
f 30/66/30 26/67/26 28/68/28
f 27/69/27 32/70/32 29/71/29
f 24/72/24 33/73/33 25/74/25
f 34/75/34 35/76/35 18/37/18
f 23/45/23 33/77/33 34/78/34
f 18/79/18 24/80/24 20/40/20
f 36/81/36 37/82/37 38/83/38
f 37/84/37 39/85/39 38/86/38
f 40/87/40 41/88/41 39/89/39
f 41/90/41 42/91/42 36/92/36
f 39/93/39 36/94/36 38/95/38
f 37/96/37 43/97/43 40/98/40
f 44/99/44 45/100/45 46/101/46
f 47/102/47 48/103/48 45/104/45
f 48/105/48 49/106/49 50/107/50
f 49/108/49 46/109/46 50/110/50
f 48/103/48 46/111/46 45/104/45
f 47/112/47 49/113/49 51/114/51
f 52/115/52 53/116/53 54/117/54
f 54/118/54 55/119/55 56/120/56
f 55/121/55 57/122/57 56/123/56
f 57/124/57 58/125/58 52/126/52
f 56/127/56 52/128/52 54/129/54
f 59/130/59 60/131/60 61/132/61
f 62/133/62 63/134/63 64/135/64
f 64/136/64 65/137/65 66/138/66
f 65/139/65 67/140/67 66/141/66
f 68/142/68 62/143/62 67/144/67
f 64/145/64 67/146/67 62/147/62
f 63/148/63 68/149/68 65/150/65
f 60/151/60 69/152/69 61/153/61
f 58/154/58 70/155/70 53/116/53
f 59/156/59 69/157/69 58/125/58
f 53/158/53 60/159/60 55/119/55
f 1/1/1 7/160/7 2/2/2
f 2/4/2 5/161/5 4/5/4
f 5/7/5 8/162/8 6/8/6
f 6/10/6 8/163/8 7/11/7
f 4/13/4 6/164/6 1/14/1
f 2/16/2 7/165/7 8/17/8
f 9/19/9 16/166/16 10/20/10
f 10/22/10 13/167/13 12/23/12
f 13/25/13 15/168/15 14/26/14
f 15/28/15 16/35/16 9/29/9
f 11/31/11 12/169/12 14/32/14
f 13/34/13 10/170/10 16/35/16
f 17/36/17 34/75/34 18/37/18
f 19/39/19 18/79/18 20/40/20
f 20/42/20 23/51/23 22/43/22
f 23/45/23 34/78/34 17/46/17
f 19/48/19 21/171/21 22/49/22
f 23/51/23 20/42/20 24/52/24
f 26/54/26 71/172/71 27/55/27
f 28/57/28 27/173/27 29/58/29
f 29/60/29 32/174/32 31/61/31
f 32/63/32 71/175/71 26/64/26
f 30/66/30 31/176/31 26/67/26
f 27/69/27 71/177/71 32/70/32
f 24/72/24 35/178/35 33/73/33
f 34/75/34 33/179/33 35/76/35
f 23/45/23 25/180/25 33/77/33
f 18/79/18 35/181/35 24/80/24
f 36/81/36 42/182/42 37/82/37
f 37/84/37 40/183/40 39/85/39
f 40/87/40 43/184/43 41/88/41
f 41/90/41 43/185/43 42/91/42
f 39/93/39 41/186/41 36/94/36
f 37/96/37 42/187/42 43/97/43
f 44/99/44 47/188/47 45/100/45
f 47/102/47 51/189/51 48/103/48
f 48/105/48 51/190/51 49/106/49
f 49/108/49 44/191/44 46/109/46
f 48/103/48 50/192/50 46/111/46
f 47/112/47 44/193/44 49/113/49
f 52/115/52 58/154/58 53/116/53
f 54/118/54 53/158/53 55/119/55
f 55/121/55 59/130/59 57/122/57
f 57/124/57 59/156/59 58/125/58
f 56/127/56 57/194/57 52/128/52
f 59/130/59 55/121/55 60/131/60
f 62/133/62 72/195/72 63/134/63
f 64/136/64 63/196/63 65/137/65
f 65/139/65 68/197/68 67/140/67
f 68/142/68 72/198/72 62/143/62
f 64/145/64 66/199/66 67/146/67
f 63/148/63 72/200/72 68/149/68
f 60/151/60 70/201/70 69/152/69
f 58/154/58 69/202/69 70/155/70
f 59/156/59 61/203/61 69/157/69
f 53/158/53 70/204/70 60/159/60
