# Blender v3.4.1 OBJ File: 'decoratives_and_entities.blend'
# www.blender.org
o Bird_Wing_Left_Bird_Still_Cube.003
v 0.472134 0.016240 -0.271095
v 0.131506 0.218929 0.147723
v 0.428864 0.156665 0.114654
v 0.178818 0.106426 -0.258502
v -0.009580 0.192737 0.064462
v 0.699262 -0.068639 0.145716
v 0.865081 -0.229586 0.145709
v 0.736561 -0.179628 -0.138594
v 0.887490 -0.272416 0.073471
v 0.806304 -0.243075 -0.055238
v 0.025740 0.122677 -0.076897
v 0.846329 -0.278773 0.006014
vt 0.996394 0.653973
vt 0.884113 0.808044
vt 0.827367 0.706521
vt 0.996394 0.772359
vt 0.941955 0.838476
vt 0.845574 0.559558
vt 0.885091 0.460992
vt 0.960140 0.523193
vt 0.903620 0.427596
vt 0.933504 0.444284
vt 0.973442 0.819892
vt 0.912361 0.424998
vn 0.4610 0.8551 -0.2373
vn 0.1036 0.9549 -0.2782
vn 0.3764 0.8833 -0.2793
vn 0.1597 0.9504 -0.2668
vn -0.1066 0.9433 -0.3143
vn 0.6601 0.7256 -0.1943
vn 0.6865 0.6950 -0.2137
vn 0.6848 0.6980 -0.2097
vn 0.6845 0.6738 -0.2782
vn 0.8014 0.5214 -0.2931
vn -0.4951 0.7229 -0.4820
vn 0.8501 0.0543 -0.5238
s 1
f 1/1/1 2/2/2 3/3/3
f 4/4/4 5/5/5 2/2/2
f 6/6/6 1/1/1 3/3/3
f 7/7/7 8/8/8 6/6/6
f 9/9/9 10/10/10 7/7/7
f 1/1/1 4/4/4 2/2/2
f 4/4/4 11/11/11 5/5/5
f 6/6/6 8/8/8 1/1/1
f 7/7/7 10/10/10 8/8/8
f 9/9/9 12/12/12 10/10/10
