# Blender v3.4.1 OBJ File: 'astrolabe.blend'
# www.blender.org
o Astrolabe_Fragment_UL_Cylinder.001
v -0.015466 -0.000000 0.883726
v -0.015466 0.086620 0.879471
v -0.015466 0.172406 0.866745
v -0.015467 0.256532 0.845673
v -0.015467 0.338187 0.816456
v -0.015467 0.416586 0.779377
v -0.015467 0.490972 0.734791
v -0.015467 0.560630 0.683129
v -0.015467 0.624889 0.624889
v -0.015467 0.683129 0.560630
v -0.015467 0.734791 0.490972
v -0.015467 0.779377 0.416586
v -0.015467 0.816456 0.338187
v -0.015467 0.845673 0.256532
v -0.015467 0.866745 0.172406
v -0.015467 0.879471 0.086620
v -0.015467 0.883726 0.000000
v -0.015466 -0.000000 0.000000
v -0.076696 0.058715 0.674429
v -0.006596 0.058715 0.674429
v -0.076696 0.119960 0.572248
v -0.006596 0.119960 0.572248
v -0.076696 0.170895 0.464555
v -0.006596 0.170895 0.464555
v -0.076696 0.211029 0.352388
v -0.006596 0.211029 0.352388
v -0.076696 0.239975 0.236828
v -0.006596 0.239975 0.236828
v -0.076696 0.257455 0.118987
v -0.006596 0.257455 0.118987
v -0.006596 0.076648 0.204340
v -0.006596 0.091730 0.102665
v -0.006596 0.051672 0.304048
v -0.006596 0.017044 0.400828
v -0.076696 0.017044 0.400828
v -0.076696 0.051672 0.304048
v -0.076696 0.076648 0.204340
v -0.076696 0.091730 0.102665
v -0.006596 0.000000 0.753597
v -0.076696 0.000000 0.753597
v -0.006596 0.263300 0.000000
v -0.076696 0.263300 0.000000
v -0.076696 0.000000 0.436864
v -0.076696 0.096774 0.000000
v -0.006596 0.000000 0.436864
v -0.006596 0.096774 0.000000
v -0.006596 0.000000 0.508128
v -0.006596 0.000000 0.635198
vt 0.510000 0.250000
vt 0.511156 0.226476
vt 0.750000 0.250000
vt 0.514612 0.203178
vt 0.520334 0.180332
vt 0.528269 0.158156
vt 0.538339 0.136865
vt 0.550447 0.116663
vt 0.564478 0.097746
vt 0.580294 0.080294
vt 0.597746 0.064478
vt 0.616663 0.050447
vt 0.636865 0.038339
vt 0.658156 0.028269
vt 0.680332 0.020334
vt 0.703178 0.014612
vt 0.726476 0.011156
vt 0.750000 0.010000
vt 0.356678 1.000000
vt 0.343750 0.500000
vt 0.356678 0.500000
vt 0.328125 1.000000
vt 0.328125 0.500000
vt 0.312500 0.500000
vt 0.312500 1.000000
vt 0.296875 0.500000
vt 0.296875 1.000000
vt 0.281250 0.500000
vt 0.281250 1.000000
vt 0.265625 0.500000
vt 0.250000 1.000000
vt 0.250000 0.500000
vt 0.312500 0.594169
vt 0.318560 0.905831
vt 0.318560 0.594169
vt 0.296875 0.905831
vt 0.296875 0.594169
vt 0.281250 0.905831
vt 0.281250 0.594169
vt 0.265625 0.905831
vt 0.265625 0.594169
vt 0.250000 0.594169
vt 0.250000 0.905831
vt 0.051840 0.189889
vt 0.028269 0.158156
vt 0.058686 0.170755
vt 0.014612 0.203178
vt 0.020334 0.180332
vt 0.062055 0.149541
vt 0.062055 0.163631
vt 0.011156 0.226476
vt 0.042923 0.250000
vt 0.010000 0.250000
vt 0.050447 0.116663
vt 0.062055 0.101012
vt 0.062055 0.124419
vt 0.038339 0.136865
vt 0.043920 0.229703
vt 0.046902 0.209601
vt 0.750000 0.112004
vt 0.750000 0.077495
vt 0.750000 0.131358
vt 0.678493 0.250000
vt 0.723718 0.250000
vt 0.678493 0.250000
vt 0.343750 1.000000
vt 0.265625 1.000000
vt 0.312500 0.905831
vt 0.750000 0.045340
vt 0.750000 0.045340
vt 0.750000 0.131358
vt 0.723718 0.250000
vn 1.0000 0.0000 0.0000
vn 0.0000 0.8032 0.5957
vn 0.0000 0.8315 0.5556
vn 0.0000 0.8819 0.4714
vn 0.0000 0.9239 0.3827
vn 0.0000 0.9569 0.2903
vn 0.0000 0.9808 0.1951
vn 0.0000 0.9952 0.0980
vn 0.0000 0.9988 0.0491
vn 0.0000 -0.9239 -0.3827
vn 0.0000 -0.9757 -0.2191
vn 0.0000 -0.9569 -0.2903
vn 0.0000 -0.9808 -0.1951
vn 0.0000 -0.9952 -0.0980
vn 0.0000 -0.9988 -0.0491
vn 0.0000 -1.0000 0.0000
vn 0.0000 -0.0000 -1.0000
s 1
f 17/1/1 16/2/1 18/3/1
f 16/2/1 15/4/1 18/3/1
f 15/4/1 14/5/1 18/3/1
f 14/5/1 13/6/1 18/3/1
f 13/6/1 12/7/1 18/3/1
f 12/7/1 11/8/1 18/3/1
f 11/8/1 10/9/1 18/3/1
f 10/9/1 9/10/1 18/3/1
f 9/10/1 8/11/1 18/3/1
f 8/11/1 7/12/1 18/3/1
f 7/12/1 6/13/1 18/3/1
f 6/13/1 5/14/1 18/3/1
f 5/14/1 4/15/1 18/3/1
f 4/15/1 3/16/1 18/3/1
f 3/16/1 2/17/1 18/3/1
f 2/17/1 1/18/1 18/3/1
f 39/19/2 19/20/3 40/21/2
f 19/20/3 22/22/4 21/23/4
f 22/22/4 23/24/5 21/23/4
f 24/25/5 25/26/6 23/24/5
f 26/27/6 27/28/7 25/26/6
f 28/29/7 29/30/8 27/28/7
f 29/30/8 41/31/9 42/32/9
f 35/33/10 45/34/11 43/35/11
f 33/36/12 35/33/10 36/37/12
f 31/38/13 36/37/12 37/39/13
f 32/40/14 37/39/13 38/41/14
f 32/40/14 44/42/15 46/43/15
f 33/44/1 24/45/1 34/46/1
f 33/44/1 28/47/1 26/48/1
f 24/45/1 47/49/1 45/50/1
f 30/51/1 46/52/1 41/53/1
f 20/54/1 39/55/1 48/56/1
f 22/57/1 48/56/1 47/49/1
f 32/58/1 28/47/1 31/59/1
f 47/60/16 48/61/16 43/62/11
f 41/63/17 44/64/17 42/65/17
f 39/19/2 20/66/3 19/20/3
f 19/20/3 20/66/3 22/22/4
f 22/22/4 24/25/5 23/24/5
f 24/25/5 26/27/6 25/26/6
f 26/27/6 28/29/7 27/28/7
f 28/29/7 30/67/8 29/30/8
f 29/30/8 30/67/8 41/31/9
f 35/33/10 34/68/10 45/34/11
f 33/36/12 34/68/10 35/33/10
f 31/38/13 33/36/12 36/37/12
f 32/40/14 31/38/13 37/39/13
f 32/40/14 38/41/14 44/42/15
f 33/44/1 26/48/1 24/45/1
f 33/44/1 31/59/1 28/47/1
f 45/50/1 34/46/1 24/45/1
f 24/45/1 22/57/1 47/49/1
f 30/51/1 32/58/1 46/52/1
f 22/57/1 20/54/1 48/56/1
f 32/58/1 30/51/1 28/47/1
f 48/61/16 39/69/16 40/70/16
f 40/70/16 43/62/11 48/61/16
f 43/62/11 45/71/11 47/60/16
f 41/63/17 46/72/17 44/64/17
