# Blender v3.4.1 OBJ File: 'astrolabe.blend'
# www.blender.org
o Astrolabe_Fragment_LL_Cylinder.006
v -0.015466 -0.883726 -0.000000
v -0.015466 -0.879471 0.086620
v -0.015466 -0.866745 0.172406
v -0.015467 -0.845673 0.256532
v -0.015467 -0.816456 0.338187
v -0.015467 -0.779377 0.416585
v -0.015467 -0.734791 0.490972
v -0.015467 -0.683129 0.560630
v -0.015467 -0.624889 0.624889
v -0.015467 -0.560630 0.683129
v -0.015467 -0.490972 0.734791
v -0.015467 -0.416586 0.779377
v -0.015467 -0.338187 0.816456
v -0.015467 -0.256532 0.845673
v -0.015467 -0.172406 0.866745
v -0.015467 -0.086620 0.879471
v -0.015467 -0.000000 0.883726
v -0.015466 -0.000000 -0.000000
vt 0.510000 0.250000
vt 0.511156 0.226476
vt 0.750000 0.250000
vt 0.514612 0.203178
vt 0.520334 0.180332
vt 0.528269 0.158156
vt 0.538339 0.136865
vt 0.550447 0.116663
vt 0.564478 0.097746
vt 0.580294 0.080294
vt 0.597746 0.064478
vt 0.616663 0.050447
vt 0.636865 0.038339
vt 0.658156 0.028269
vt 0.680332 0.020334
vt 0.703178 0.014612
vt 0.726476 0.011156
vt 0.750000 0.010000
vn 1.0000 0.0000 0.0000
s 1
f 17/1/1 16/2/1 18/3/1
f 16/2/1 15/4/1 18/3/1
f 15/4/1 14/5/1 18/3/1
f 14/5/1 13/6/1 18/3/1
f 13/6/1 12/7/1 18/3/1
f 12/7/1 11/8/1 18/3/1
f 11/8/1 10/9/1 18/3/1
f 10/9/1 9/10/1 18/3/1
f 9/10/1 8/11/1 18/3/1
f 8/11/1 7/12/1 18/3/1
f 7/12/1 6/13/1 18/3/1
f 6/13/1 5/14/1 18/3/1
f 5/14/1 4/15/1 18/3/1
f 4/15/1 3/16/1 18/3/1
f 3/16/1 2/17/1 18/3/1
f 2/17/1 1/18/1 18/3/1
