# Blender v3.4.1 OBJ File: 'astrolabe.blend'
# www.blender.org
o Astrolabe_Fragment_LL_Cylinder.006
v -0.015466 -0.883726 -0.000000
v -0.015466 -0.879471 0.086620
v -0.015466 -0.866745 0.172406
v -0.015467 -0.845673 0.256532
v -0.015467 -0.816456 0.338187
v -0.015467 -0.779377 0.416585
v -0.015467 -0.734791 0.490972
v -0.015467 -0.683129 0.560630
v -0.015467 -0.624889 0.624889
v -0.015467 -0.560630 0.683129
v -0.015467 -0.490972 0.734791
v -0.015467 -0.416586 0.779377
v -0.015467 -0.338187 0.816456
v -0.015467 -0.256532 0.845673
v -0.015467 -0.172406 0.866745
v -0.015467 -0.086620 0.879471
v -0.015467 -0.000000 0.883726
v -0.015466 -0.000000 -0.000000
v -0.006596 -0.276211 0.942969
v -0.076696 -0.180525 0.938389
v -0.006596 -0.180525 0.938389
v -0.076696 -0.092255 0.858386
v -0.006596 -0.092255 0.858386
v -0.076696 -0.012252 0.770116
v -0.006596 -0.012252 0.770116
v -0.006596 -0.026904 0.493748
v -0.006596 -0.140979 0.664472
v -0.006596 -0.286168 0.809662
v -0.006596 -0.210007 0.740634
v -0.006596 -0.368728 0.870893
v -0.006596 -0.079748 0.581912
v -0.076696 -0.079748 0.581912
v -0.076696 -0.210007 0.740634
v -0.076696 -0.140979 0.664472
v -0.076696 -0.026904 0.493748
v -0.076696 -0.286168 0.809662
v -0.006596 0.000000 0.436864
v -0.006596 0.000000 0.508128
v -0.027660 0.000000 0.436864
v -0.076696 0.000000 0.436864
v -0.076696 0.000000 0.753596
v -0.006596 0.000000 0.753596
v -0.006596 0.000000 0.635198
vt 0.510000 0.250000
vt 0.511156 0.226476
vt 0.750000 0.250000
vt 0.514612 0.203178
vt 0.520334 0.180332
vt 0.528269 0.158156
vt 0.538339 0.136865
vt 0.550447 0.116663
vt 0.564478 0.097746
vt 0.580294 0.080294
vt 0.597746 0.064478
vt 0.616663 0.050447
vt 0.636865 0.038339
vt 0.658156 0.028269
vt 0.680332 0.020334
vt 0.703178 0.014612
vt 0.726476 0.011156
vt 0.750000 0.010000
vt 0.406250 1.000000
vt 0.390625 1.000000
vt 0.390625 0.500000
vt 0.375000 1.000000
vt 0.375000 0.500000
vt 0.359375 1.000000
vt 0.359375 0.500000
vt 0.356677 0.500000
vt 0.618632 0.089927
vt 0.597746 0.064478
vt 0.390625 0.905831
vt 0.406250 0.905831
vt 0.390625 0.594169
vt 0.375000 0.594169
vt 0.375000 0.905831
vt 0.359375 0.905831
vt 0.359375 0.594169
vt 0.343750 0.905831
vt 0.343750 0.594169
vt 0.328125 0.905831
vt 0.328125 0.594169
vt 0.118632 0.089927
vt 0.080294 0.080294
vt 0.097746 0.064478
vt 0.103574 0.103574
vt 0.064478 0.097746
vt 0.116663 0.050447
vt 0.067374 0.152385
vt 0.062055 0.163631
vt 0.062055 0.149541
vt 0.077822 0.134954
vt 0.062055 0.124419
vt 0.062055 0.101012
vt 0.089927 0.118632
vt 0.750000 0.131358
vt 0.750000 0.112004
vt 0.750000 0.131358
vt 0.318560 0.784963
vt 0.356677 1.000000
vt 0.134954 0.077822
vt 0.750000 0.045340
vt 0.750000 0.077495
vt 0.750000 0.045340
vt 0.750000 0.131358
vt 0.318560 0.594169
vt 0.318560 0.905831
vn 1.0000 0.0000 0.0000
vn 0.0000 0.0478 0.9989
vn 0.0000 0.6716 0.7410
vn 0.0000 0.7071 0.7071
vn 0.0000 0.7730 0.6344
vn 0.0000 0.8032 0.5957
vn -0.7833 -0.4347 0.4444
vn -0.7743 -0.4538 0.4411
vn -0.7389 -0.5209 0.4275
vn 0.0000 -0.6344 -0.7730
vn 0.0000 -0.5957 -0.8032
vn 0.0000 -0.6433 -0.7656
vn 0.0000 -0.7071 -0.7071
vn 0.0000 -0.7730 -0.6344
vn 0.0000 -0.8315 -0.5556
vn 0.0000 -0.8819 -0.4714
vn 0.0000 1.0000 -0.0000
vn 0.0000 -0.9040 -0.4276
vn -0.8162 -0.3550 0.4557
s 1
f 17/1/1 16/2/1 18/3/1
f 16/2/1 15/4/1 18/3/1
f 15/4/1 14/5/1 18/3/1
f 14/5/1 13/6/1 18/3/1
f 13/6/1 12/7/1 18/3/1
f 12/7/1 11/8/1 18/3/1
f 11/8/1 10/9/1 18/3/1
f 10/9/1 9/10/1 18/3/1
f 9/10/1 8/11/1 18/3/1
f 8/11/1 7/12/1 18/3/1
f 7/12/1 6/13/1 18/3/1
f 6/13/1 5/14/1 18/3/1
f 5/14/1 4/15/1 18/3/1
f 4/15/1 3/16/1 18/3/1
f 3/16/1 2/17/1 18/3/1
f 2/17/1 1/18/1 18/3/1
f 19/19/2 21/20/2 20/21/2
f 20/21/3 23/22/4 22/23/4
f 22/23/4 25/24/5 24/25/5
f 25/24/5 41/26/6 24/25/5
f 36/27/7 19/19/8 20/28/9
f 28/29/10 30/30/11 36/31/12
f 28/29/10 33/32/13 29/33/13
f 27/34/14 33/32/13 34/35/14
f 31/36/15 34/35/14 32/37/15
f 26/38/16 32/37/15 35/39/16
f 28/40/1 23/41/1 21/42/1
f 29/43/1 25/44/1 23/41/1
f 19/45/1 28/40/1 21/42/1
f 26/46/1 37/47/1 38/48/1
f 31/49/1 38/48/1 43/50/1
f 42/51/1 25/44/1 27/52/1
f 40/53/17 38/54/17 39/55/17
f 39/56/18 26/38/16 35/39/16
f 20/21/3 21/20/3 23/22/4
f 22/23/4 23/22/4 25/24/5
f 25/24/5 42/57/6 41/26/6
f 36/27/7 30/58/19 19/19/8
f 28/29/10 36/31/12 33/32/13
f 27/34/14 29/33/13 33/32/13
f 31/36/15 27/34/14 34/35/14
f 26/38/16 31/36/15 32/37/15
f 28/40/1 29/43/1 23/41/1
f 29/43/1 27/52/1 25/44/1
f 19/45/1 30/58/1 28/40/1
f 31/49/1 26/46/1 38/48/1
f 31/49/1 43/50/1 27/52/1
f 43/50/1 42/51/1 27/52/1
f 40/53/17 41/59/17 43/60/17
f 41/59/17 42/61/17 43/60/17
f 43/60/17 38/54/17 40/53/17
f 38/54/17 37/62/17 39/55/17
f 35/39/16 40/63/18 39/56/18
f 39/56/18 37/64/18 26/38/16
