# Blender v3.4.1 OBJ File: 'decoratives_and_entities.blend'
# www.blender.org
o Flower2_Plane.054
v -0.026833 0.401050 0.824960
v 0.190029 0.085559 0.440283
v -0.701020 0.401050 0.435717
v -0.476311 0.085559 0.055571
v -0.311327 0.519938 1.069492
v -0.770545 0.519938 0.804362
v -0.531949 0.544393 1.131498
v -0.713933 0.544393 1.026429
v 0.144636 -0.044949 0.244282
v -0.283873 -0.044949 -0.003118
v -0.727852 0.401050 0.389242
v -0.286281 0.085559 0.384712
v -0.727852 0.401050 -0.389242
v -0.286281 0.085559 -0.384712
v -1.081871 0.519938 0.265130
v -1.081871 0.519938 -0.265130
v -1.245880 0.544393 0.105068
v -1.245880 0.544393 -0.105068
v -0.139236 -0.044949 0.247400
v -0.139236 -0.044949 -0.247400
v -0.701020 0.401050 -0.435718
v -0.476311 0.085559 -0.055571
v -0.026832 0.401050 -0.824960
v 0.190030 0.085559 -0.440283
v -0.770544 0.519938 -0.804363
v -0.311326 0.519938 -1.069492
v -0.713932 0.544393 -1.026430
v -0.531948 0.544393 -1.131498
v -0.283873 -0.044949 0.003118
v 0.144637 -0.044949 -0.244282
v 0.026833 0.401050 -0.824960
v -0.190029 0.085559 -0.440283
v 0.701020 0.401050 -0.435718
v 0.476311 0.085559 -0.055571
v 0.311327 0.519938 -1.069492
v 0.770544 0.519938 -0.804363
v 0.531948 0.544393 -1.131498
v 0.713932 0.544393 -1.026430
v -0.144636 -0.044949 -0.244282
v 0.283873 -0.044949 0.003118
v 0.727853 0.401050 -0.389242
v 0.286282 0.085559 -0.384712
v 0.727852 0.401050 0.389242
v 0.286281 0.085559 0.384712
v 1.081871 0.519938 -0.265129
v 1.081871 0.519938 0.265130
v 1.245880 0.544393 -0.105068
v 1.245880 0.544393 0.105069
v 0.139236 -0.044949 -0.247400
v 0.139236 -0.044949 0.247400
v 0.701020 0.401050 0.435718
v 0.476311 0.085559 0.055571
v 0.026832 0.401050 0.824960
v -0.190030 0.085559 0.440283
v 0.770544 0.519938 0.804363
v 0.311326 0.519938 1.069492
v 0.713931 0.544393 1.026430
v 0.531948 0.544393 1.131498
v 0.283873 -0.044949 -0.003118
v -0.144637 -0.044949 0.244282
vt 1.000000 0.000000
vt 0.000000 1.000000
vt 0.000000 0.000000
vt 0.000000 0.000000
vt 0.000000 1.000000
vt 0.000000 0.000000
vt 1.000000 1.000000
vt 1.000000 1.000000
vt 1.000000 0.000000
vt 0.000000 1.000000
vt 0.000000 0.000000
vt 0.000000 1.000000
vt 0.000000 0.000000
vt 0.000000 0.000000
vt 1.000000 1.000000
vt 1.000000 1.000000
vt 1.000000 0.000000
vt 0.000000 1.000000
vt 0.000000 0.000000
vt 0.000000 0.000000
vt 0.000000 1.000000
vt 0.000000 0.000000
vt 1.000000 1.000000
vt 1.000000 1.000000
vt 1.000000 0.000000
vt 0.000000 1.000000
vt 0.000000 0.000000
vt 0.000000 0.000000
vt 0.000000 1.000000
vt 0.000000 0.000000
vt 1.000000 1.000000
vt 1.000000 1.000000
vt 1.000000 0.000000
vt 0.000000 1.000000
vt 0.000000 0.000000
vt 0.000000 0.000000
vt 0.000000 1.000000
vt 0.000000 0.000000
vt 1.000000 1.000000
vt 1.000000 1.000000
vt 1.000000 0.000000
vt 0.000000 1.000000
vt 0.000000 0.000000
vt 0.000000 0.000000
vt 0.000000 1.000000
vt 0.000000 0.000000
vt 1.000000 1.000000
vt 1.000000 1.000000
vt 0.000000 1.000000
vt 1.000000 0.000000
vt 0.000000 1.000000
vt 1.000000 0.000000
vt 0.000000 1.000000
vt 1.000000 0.000000
vt 0.000000 1.000000
vt 1.000000 0.000000
vt 0.000000 1.000000
vt 1.000000 0.000000
vt 0.000000 1.000000
vt 1.000000 0.000000
vn 0.3067 0.7898 -0.5312
vn 0.2348 0.8829 -0.4066
vn 0.1341 0.9633 -0.2324
vn 0.0737 0.9891 -0.1277
vn 0.3319 0.7479 -0.5749
vn 0.6133 0.7898 0.0000
vn 0.4695 0.8829 0.0000
vn 0.2683 0.9633 0.0000
vn 0.1475 0.9891 0.0000
vn 0.6638 0.7479 0.0000
vn 0.3067 0.7898 0.5312
vn 0.2348 0.8829 0.4066
vn 0.1341 0.9633 0.2324
vn 0.0737 0.9891 0.1277
vn 0.3319 0.7479 0.5749
vn -0.3067 0.7898 0.5312
vn -0.2348 0.8829 0.4066
vn -0.1341 0.9633 0.2324
vn -0.0737 0.9891 0.1277
vn -0.3319 0.7479 0.5749
vn -0.6133 0.7898 -0.0000
vn -0.4695 0.8829 -0.0000
vn -0.2683 0.9633 -0.0000
vn -0.1475 0.9891 -0.0000
vn -0.6638 0.7479 -0.0000
vn -0.3067 0.7898 -0.5312
vn -0.2348 0.8829 -0.4066
vn -0.1341 0.9633 -0.2324
vn -0.0737 0.9891 -0.1277
vn -0.3319 0.7479 -0.5749
s 1
f 2/1/1 3/2/2 1/3/2
f 3/2/2 5/4/3 1/3/2
f 6/5/3 7/6/4 5/4/3
f 2/1/1 10/7/5 4/8/1
f 12/9/6 13/10/7 11/11/7
f 11/11/7 16/12/8 15/13/8
f 16/12/8 17/14/9 15/13/8
f 12/9/6 20/15/10 14/16/6
f 22/17/11 23/18/12 21/19/12
f 23/18/12 25/20/13 21/19/12
f 26/21/13 27/22/14 25/20/13
f 22/17/11 30/23/15 24/24/11
f 32/25/16 33/26/17 31/27/17
f 33/26/17 35/28/18 31/27/17
f 36/29/18 37/30/19 35/28/18
f 32/25/16 40/31/20 34/32/16
f 42/33/21 43/34/22 41/35/22
f 43/34/22 45/36/23 41/35/22
f 46/37/23 47/38/24 45/36/23
f 42/33/21 50/39/25 44/40/21
f 52/41/26 53/42/27 51/43/27
f 53/42/27 55/44/28 51/43/27
f 55/44/28 58/45/29 57/46/29
f 52/41/26 60/47/30 54/48/26
f 2/1/1 4/8/1 3/2/2
f 3/2/2 6/5/3 5/4/3
f 6/5/3 8/49/4 7/6/4
f 2/1/1 9/50/5 10/7/5
f 12/9/6 14/16/6 13/10/7
f 11/11/7 13/10/7 16/12/8
f 16/12/8 18/51/9 17/14/9
f 12/9/6 19/52/10 20/15/10
f 22/17/11 24/24/11 23/18/12
f 23/18/12 26/21/13 25/20/13
f 26/21/13 28/53/14 27/22/14
f 22/17/11 29/54/15 30/23/15
f 32/25/16 34/32/16 33/26/17
f 33/26/17 36/29/18 35/28/18
f 36/29/18 38/55/19 37/30/19
f 32/25/16 39/56/20 40/31/20
f 42/33/21 44/40/21 43/34/22
f 43/34/22 46/37/23 45/36/23
f 46/37/23 48/57/24 47/38/24
f 42/33/21 49/58/25 50/39/25
f 52/41/26 54/48/26 53/42/27
f 53/42/27 56/59/28 55/44/28
f 55/44/28 56/59/28 58/45/29
f 52/41/26 59/60/30 60/47/30
