# Blender v3.4.1 OBJ File: 'decoratives_and_entities.blend'
# www.blender.org
o Flower2_Plane.054
v -0.067851 0.388302 0.796615
v 0.063131 0.086937 0.410785
v -0.655964 0.388302 0.457068
v -0.387316 0.086937 0.150719
v -0.316024 0.492011 1.009928
v -0.716613 0.492011 0.778647
v -0.508479 0.492162 1.064017
v -0.667228 0.492162 0.972363
v 0.032445 -0.093165 0.278288
v -0.257227 -0.093165 0.111046
v -0.659848 0.389387 0.357808
v -0.269314 0.047412 0.274051
v -0.659848 0.389387 -0.357808
v -0.269314 0.047412 -0.274051
v -0.973483 0.528957 0.263082
v -0.973483 0.528957 -0.263082
v -1.174363 0.561345 0.105068
v -1.174363 0.561345 -0.105068
v -0.173827 -0.055045 0.176236
v -0.173827 -0.055045 -0.176236
v -0.609821 0.367438 -0.382049
v -0.344398 0.101577 -0.109346
v -0.032068 0.367438 -0.715615
v 0.071389 0.101577 -0.349400
v -0.691125 0.497446 -0.738330
v -0.299964 0.497446 -0.964166
v -0.657687 0.519387 -0.922217
v -0.495776 0.519387 -1.015696
v -0.224319 0.020142 -0.072725
v 0.043064 0.020142 -0.227098
v 0.056164 0.401050 -0.754460
v -0.120382 0.070873 -0.327400
v 0.677561 0.401050 -0.395696
v 0.395989 0.070873 -0.029273
v 0.314263 0.519938 -1.014232
v 0.773481 0.519938 -0.749102
v 0.534885 0.505744 -1.076238
v 0.716868 0.505744 -0.971169
v -0.085206 -0.030263 -0.175512
v 0.246862 -0.030263 0.016208
v 0.727853 0.401050 -0.389242
v 0.269734 0.070873 -0.298127
v 0.727852 0.401050 0.389242
v 0.269734 0.070873 0.298128
v 1.081871 0.519938 -0.265129
v 1.081871 0.519938 0.265130
v 1.183660 0.523686 -0.051719
v 1.183660 0.523686 0.085184
v 0.155784 -0.030263 -0.191719
v 0.155783 -0.030263 0.191719
v 0.648805 0.393412 0.350594
v 0.341503 -0.002109 0.074335
v 0.001099 0.416081 0.781872
v -0.154587 0.015253 0.404658
v 0.733091 0.570225 0.691916
v 0.291910 0.585665 0.985677
v 0.688752 0.598237 0.911373
v 0.513916 0.604356 1.027788
v 0.196597 -0.116814 0.054813
v -0.122428 -0.105648 0.267237
vt 1.000000 0.000000
vt 0.000000 1.000000
vt 0.000000 0.000000
vt 0.000000 0.000000
vt 0.000000 1.000000
vt 0.000000 0.000000
vt 1.000000 1.000000
vt 1.000000 1.000000
vt 1.000000 0.000000
vt 0.000000 1.000000
vt 0.000000 0.000000
vt 0.000000 1.000000
vt 0.000000 0.000000
vt 0.000000 1.000000
vt 0.000000 0.000000
vt 1.000000 1.000000
vt 1.000000 1.000000
vt 0.000000 0.000000
vt 1.000000 1.000000
vt 0.000000 1.000000
vt 0.000000 1.000000
vt 0.000000 0.000000
vt 0.000000 1.000000
vt 0.000000 0.000000
vt 1.000000 0.000000
vt 1.000000 1.000000
vt 1.000000 0.000000
vt 0.000000 1.000000
vt 0.000000 0.000000
vt 0.000000 0.000000
vt 0.000000 1.000000
vt 0.000000 0.000000
vt 1.000000 1.000000
vt 1.000000 1.000000
vt 0.000000 0.000000
vt 1.000000 1.000000
vt 0.000000 1.000000
vt 0.000000 0.000000
vt 0.000000 1.000000
vt 0.000000 0.000000
vt 1.000000 0.000000
vt 1.000000 1.000000
vt 1.000000 0.000000
vt 0.000000 1.000000
vt 0.000000 0.000000
vt 0.000000 0.000000
vt 0.000000 1.000000
vt 0.000000 0.000000
vt 1.000000 1.000000
vt 1.000000 1.000000
vt 0.000000 1.000000
vt 1.000000 0.000000
vt 1.000000 0.000000
vt 1.000000 0.000000
vt 0.000000 1.000000
vt 1.000000 0.000000
vt 0.000000 1.000000
vt 1.000000 0.000000
vt 0.000000 1.000000
vt 1.000000 0.000000
vn 0.3632 0.6872 -0.6292
vn 0.2375 0.8800 -0.4114
vn 0.1134 0.9740 -0.1963
vn 0.0005 1.0000 -0.0009
vn 0.4378 0.4832 -0.7582
vn 0.6856 0.7280 0.0000
vn 0.5439 0.8392 0.0000
vn 0.3271 0.9450 0.0000
vn 0.1592 0.9873 0.0000
vn 0.7315 0.6818 0.0000
vn 0.2373 0.8802 0.4110
vn 0.3066 0.7899 0.5311
vn 0.1458 0.9566 0.2525
vn 0.1436 0.9579 0.2487
vn 0.0761 0.9884 0.1318
vn 0.3319 0.7479 0.5749
vn -0.3071 0.7891 0.5319
vn -0.2317 0.8862 0.4013
vn -0.0991 0.9802 0.1717
vn 0.0431 0.9963 -0.0747
vn -0.3319 0.7479 0.5749
vn -0.4648 0.8854 -0.0000
vn -0.6137 0.7896 -0.0000
vn -0.2664 0.9639 -0.0000
vn -0.2599 0.9656 -0.0000
vn -0.0368 0.9993 -0.0000
vn -0.6638 0.7479 -0.0000
vn -0.3884 0.6825 -0.6191
vn -0.3124 0.8006 -0.5113
vn -0.1854 0.9266 -0.3271
vn -0.0571 0.9888 -0.1378
vn -0.4133 0.6335 -0.6541
vn -0.1856 0.9265 -0.3274
s 1
f 2/1/1 3/2/2 1/3/2
f 3/2/2 5/4/3 1/3/2
f 6/5/3 7/6/4 5/4/3
f 2/1/1 10/7/5 4/8/1
f 12/9/6 13/10/7 11/11/7
f 11/11/7 16/12/8 15/13/8
f 15/13/8 18/14/9 17/15/9
f 12/9/6 20/16/10 14/17/6
f 21/18/11 24/19/12 23/20/11
f 21/18/11 26/21/13 25/22/14
f 25/22/14 28/23/15 27/24/15
f 22/25/12 30/26/16 24/19/12
f 32/27/17 33/28/18 31/29/18
f 33/28/18 35/30/19 31/29/18
f 36/31/19 37/32/20 35/30/19
f 32/27/17 40/33/21 34/34/17
f 41/35/22 44/36/23 43/37/22
f 43/37/22 45/38/24 41/35/22
f 46/39/25 47/40/26 45/38/24
f 42/41/23 50/42/27 44/36/23
f 52/43/28 53/44/29 51/45/29
f 53/44/29 55/46/30 51/45/29
f 55/46/30 58/47/31 57/48/31
f 52/43/28 60/49/32 54/50/28
f 2/1/1 4/8/1 3/2/2
f 3/2/2 6/5/3 5/4/3
f 6/5/3 8/51/4 7/6/4
f 2/1/1 9/52/5 10/7/5
f 12/9/6 14/17/6 13/10/7
f 11/11/7 13/10/7 16/12/8
f 15/13/8 16/12/8 18/14/9
f 12/9/6 19/53/10 20/16/10
f 21/18/11 22/25/12 24/19/12
f 21/18/11 23/20/11 26/21/13
f 25/22/14 26/21/13 28/23/15
f 22/25/12 29/54/16 30/26/16
f 32/27/17 34/34/17 33/28/18
f 33/28/18 36/31/19 35/30/19
f 36/31/19 38/55/20 37/32/20
f 32/27/17 39/56/21 40/33/21
f 41/35/22 42/41/23 44/36/23
f 43/37/22 46/39/25 45/38/24
f 46/39/25 48/57/26 47/40/26
f 42/41/23 49/58/27 50/42/27
f 52/43/28 54/50/28 53/44/29
f 53/44/29 56/59/33 55/46/30
f 55/46/30 56/59/33 58/47/31
f 52/43/28 59/60/32 60/49/32
