# Blender v3.4.1 OBJ File: 'decoratives_and_entities.blend'
# www.blender.org
o Flower2_Plane.054
v -0.067851 0.388302 0.796615
v 0.121324 0.113090 0.461051
v -0.655964 0.388302 0.457068
v -0.459944 0.113090 0.125455
v -0.316024 0.492011 1.009928
v -0.716613 0.492011 0.778647
v -0.508479 0.492162 1.064017
v -0.667228 0.492162 0.972363
v 0.081727 -0.119318 0.290073
v -0.292074 -0.119318 0.074259
v -0.659848 0.389387 0.357808
v -0.283180 0.062290 0.353643
v -0.659848 0.389387 -0.357808
v -0.283180 0.062290 -0.353643
v -0.973483 0.528957 0.263082
v -0.973483 0.528957 -0.263082
v -1.174363 0.561345 0.105068
v -1.174363 0.561345 -0.105068
v -0.159961 -0.069923 0.227420
v -0.159960 -0.069923 -0.227420
v -0.592374 0.367438 -0.392122
v -0.411437 0.113402 -0.086025
v -0.049514 0.367438 -0.705542
v 0.125105 0.113402 -0.395798
v -0.691125 0.497446 -0.738330
v -0.299964 0.497446 -0.964166
v -0.657687 0.519387 -0.922217
v -0.495776 0.519387 -1.015696
v -0.256485 0.008316 -0.038769
v 0.088554 0.008316 -0.237977
v 0.029769 0.401050 -0.769699
v -0.187093 0.085559 -0.385023
v 0.703956 0.401050 -0.380457
v 0.479247 0.085559 -0.000311
v 0.314263 0.519938 -1.014232
v 0.773481 0.519938 -0.749102
v 0.534885 0.505744 -1.076238
v 0.716868 0.505744 -0.971169
v -0.141700 -0.044949 -0.189022
v 0.286809 -0.044949 0.058378
v 0.727853 0.401050 -0.389242
v 0.286282 0.085559 -0.384712
v 0.727852 0.401050 0.389242
v 0.286281 0.085559 0.384712
v 1.081871 0.519938 -0.265129
v 1.081871 0.519938 0.265130
v 1.183660 0.523686 -0.051719
v 1.183660 0.523686 0.085184
v 0.139236 -0.044949 -0.247400
v 0.139236 -0.044949 0.247400
v 0.648805 0.393412 0.350594
v 0.421728 0.012476 0.037763
v 0.001099 0.416081 0.781872
v -0.218440 0.034881 0.464020
v 0.733091 0.570225 0.691916
v 0.291910 0.585665 0.985677
v 0.688752 0.598237 0.911373
v 0.513916 0.604356 1.027788
v 0.234738 -0.135542 0.012571
v -0.176941 -0.121133 0.286689
vt 1.000000 0.000000
vt 0.000000 1.000000
vt 0.000000 0.000000
vt 0.000000 0.000000
vt 0.000000 1.000000
vt 0.000000 0.000000
vt 1.000000 1.000000
vt 1.000000 1.000000
vt 1.000000 0.000000
vt 0.000000 1.000000
vt 0.000000 0.000000
vt 0.000000 1.000000
vt 0.000000 0.000000
vt 0.000000 1.000000
vt 0.000000 0.000000
vt 1.000000 1.000000
vt 1.000000 1.000000
vt 1.000000 0.000000
vt 0.000000 1.000000
vt 0.000000 0.000000
vt 0.000000 0.000000
vt 0.000000 1.000000
vt 0.000000 0.000000
vt 1.000000 1.000000
vt 1.000000 1.000000
vt 1.000000 0.000000
vt 0.000000 1.000000
vt 0.000000 0.000000
vt 0.000000 0.000000
vt 0.000000 1.000000
vt 0.000000 0.000000
vt 1.000000 1.000000
vt 1.000000 1.000000
vt 1.000000 0.000000
vt 0.000000 1.000000
vt 0.000000 0.000000
vt 0.000000 0.000000
vt 0.000000 1.000000
vt 0.000000 0.000000
vt 1.000000 1.000000
vt 1.000000 1.000000
vt 0.000000 0.000000
vt 1.000000 1.000000
vt 0.000000 1.000000
vt 0.000000 0.000000
vt 0.000000 1.000000
vt 0.000000 0.000000
vt 1.000000 0.000000
vt 1.000000 1.000000
vt 0.000000 1.000000
vt 1.000000 0.000000
vt 1.000000 0.000000
vt 0.000000 1.000000
vt 1.000000 0.000000
vt 0.000000 1.000000
vt 1.000000 0.000000
vt 0.000000 1.000000
vt 1.000000 0.000000
vt 0.000000 1.000000
vt 1.000000 0.000000
vn 0.3613 0.6913 -0.6257
vn 0.2348 0.8829 -0.4066
vn 0.1134 0.9740 -0.1963
vn 0.0005 1.0000 -0.0009
vn 0.4378 0.4832 -0.7582
vn 0.6853 0.7283 0.0000
vn 0.5484 0.8362 0.0000
vn 0.3271 0.9450 0.0000
vn 0.1592 0.9873 0.0000
vn 0.7315 0.6818 0.0000
vn 0.3067 0.7898 0.5312
vn 0.2391 0.8783 0.4141
vn 0.1430 0.9582 0.2477
vn 0.0761 0.9884 0.1318
vn 0.3319 0.7479 0.5749
vn -0.3067 0.7898 0.5312
vn -0.2348 0.8829 0.4066
vn -0.1008 0.9794 0.1747
vn 0.0431 0.9963 -0.0747
vn -0.3319 0.7479 0.5749
vn -0.6133 0.7898 -0.0000
vn -0.4695 0.8829 -0.0000
vn -0.2664 0.9639 -0.0000
vn -0.2599 0.9656 -0.0000
vn -0.0368 0.9993 -0.0000
vn -0.6638 0.7479 -0.0000
vn -0.3149 0.7974 -0.5148
vn -0.3882 0.6828 -0.6189
vn -0.1854 0.9266 -0.3271
vn -0.0571 0.9888 -0.1378
vn -0.4133 0.6335 -0.6541
vn 0.1452 0.9569 0.2515
vn -0.1856 0.9265 -0.3274
s 1
f 2/1/1 3/2/2 1/3/2
f 3/2/2 5/4/3 1/3/2
f 6/5/3 7/6/4 5/4/3
f 2/1/1 10/7/5 4/8/1
f 12/9/6 13/10/7 11/11/7
f 11/11/7 16/12/8 15/13/8
f 15/13/8 18/14/9 17/15/9
f 12/9/6 20/16/10 14/17/6
f 22/18/11 23/19/12 21/20/12
f 23/19/12 25/21/13 21/20/12
f 25/21/13 28/22/14 27/23/14
f 22/18/11 30/24/15 24/25/11
f 32/26/16 33/27/17 31/28/17
f 33/27/17 35/29/18 31/28/17
f 36/30/18 37/31/19 35/29/18
f 32/26/16 40/32/20 34/33/16
f 42/34/21 43/35/22 41/36/22
f 43/35/22 45/37/23 41/36/22
f 46/38/24 47/39/25 45/37/23
f 42/34/21 50/40/26 44/41/21
f 51/42/27 54/43/28 53/44/27
f 53/44/27 55/45/29 51/42/27
f 55/45/29 58/46/30 57/47/30
f 52/48/28 60/49/31 54/43/28
f 2/1/1 4/8/1 3/2/2
f 3/2/2 6/5/3 5/4/3
f 6/5/3 8/50/4 7/6/4
f 2/1/1 9/51/5 10/7/5
f 12/9/6 14/17/6 13/10/7
f 11/11/7 13/10/7 16/12/8
f 15/13/8 16/12/8 18/14/9
f 12/9/6 19/52/10 20/16/10
f 22/18/11 24/25/11 23/19/12
f 23/19/12 26/53/32 25/21/13
f 25/21/13 26/53/32 28/22/14
f 22/18/11 29/54/15 30/24/15
f 32/26/16 34/33/16 33/27/17
f 33/27/17 36/30/18 35/29/18
f 36/30/18 38/55/19 37/31/19
f 32/26/16 39/56/20 40/32/20
f 42/34/21 44/41/21 43/35/22
f 43/35/22 46/38/24 45/37/23
f 46/38/24 48/57/25 47/39/25
f 42/34/21 49/58/26 50/40/26
f 51/42/27 52/48/28 54/43/28
f 53/44/27 56/59/33 55/45/29
f 55/45/29 56/59/33 58/46/30
f 52/48/28 59/60/31 60/49/31
