# Blender v3.4.1 OBJ File: 'decoratives_and_entities.blend'
# www.blender.org
o Flower_Plane.005
v 0.775595 0.516330 0.903520
v 0.457879 0.000000 -0.007700
v 0.394673 0.516330 1.123445
v -0.235608 0.000000 0.392685
v 0.585134 0.415091 1.013482
v 0.639162 0.200768 0.465598
v 0.111136 0.000000 0.192493
v 0.083638 0.200768 0.786329
v 0.361400 0.147079 0.625963
v 0.548521 0.079022 0.228949
v 0.239156 0.358875 0.954887
v 0.707378 0.358875 0.684559
v -0.075985 0.079022 0.589507
v 0.473267 0.257636 0.819723
v 0.236268 0.058787 0.409228
v 0.236420 0.000000 -0.149505
v -0.247685 0.000000 0.129993
v -0.005632 0.000000 -0.009756
v -1.170269 0.516330 0.219925
v -0.222271 0.000000 0.400385
v -1.170269 0.516330 -0.219925
v -0.222271 0.000000 -0.400385
v -1.170269 0.415091 0.000000
v -0.722800 0.200768 0.320731
v -0.222271 0.000000 -0.000000
v -0.722800 0.200768 -0.320732
v -0.722800 0.147079 0.000000
v -0.472536 0.079022 0.360558
v -0.946535 0.358875 -0.270328
v -0.946535 0.358875 0.270328
v -0.472536 0.079022 -0.360558
v -0.946534 0.257636 0.000000
v -0.472536 0.058787 0.000000
v 0.011265 0.000000 0.279498
v 0.011265 0.000000 -0.279498
v 0.011265 0.000000 -0.000000
v -0.775595 0.516330 -0.903520
v -0.457879 0.000000 0.007700
v -0.394674 0.516330 -1.123445
v 0.235608 0.000000 -0.392685
v -0.585134 0.415091 -1.013482
v -0.639162 0.200768 -0.465598
v -0.111136 0.000000 -0.192493
v -0.083638 0.200768 -0.786329
v -0.361400 0.147079 -0.625963
v -0.548521 0.079022 -0.228949
v -0.239156 0.358875 -0.954887
v -0.707378 0.358875 -0.684559
v 0.075985 0.079022 -0.589507
v -0.473267 0.257636 -0.819723
v -0.236268 0.058787 -0.409228
v -0.236420 0.000000 0.149505
v 0.247685 0.000000 -0.129993
v 0.005632 0.000000 0.009756
v 0.394674 0.516330 -1.123445
v -0.235608 0.000000 -0.392685
v 0.775595 0.516330 -0.903520
v 0.457879 0.000000 0.007700
v 0.585134 0.415091 -1.013482
v 0.083639 0.200768 -0.786329
v 0.111136 0.000000 -0.192493
v 0.639162 0.200768 -0.465598
v 0.361400 0.147079 -0.625963
v -0.075985 0.079022 -0.589507
v 0.707378 0.358875 -0.684559
v 0.239156 0.358875 -0.954887
v 0.548521 0.079022 -0.228949
v 0.473267 0.257636 -0.819723
v 0.236268 0.058787 -0.409228
v -0.247685 0.000000 -0.129994
v 0.236420 0.000000 0.149505
v -0.005632 0.000000 0.009756
v 1.170269 0.516330 -0.219925
v 0.222272 0.000000 -0.400385
v 1.170269 0.516330 0.219925
v 0.222271 0.000000 0.400385
v 1.170269 0.415091 0.000000
v 0.722800 0.200768 -0.320731
v 0.222271 0.000000 0.000000
v 0.722800 0.200768 0.320732
v 0.722800 0.147079 0.000000
v 0.472536 0.079022 -0.360558
v 0.946534 0.358875 0.270328
v 0.946535 0.358875 -0.270328
v 0.472536 0.079022 0.360558
v 0.946534 0.257636 0.000000
v 0.472536 0.058787 0.000000
v -0.011265 0.000000 -0.279498
v -0.011265 0.000000 0.279498
v -0.011265 0.000000 -0.000000
v -0.394674 0.516330 1.123445
v 0.235608 0.000000 0.392685
v -0.775595 0.516330 0.903520
v -0.457879 0.000000 -0.007700
v -0.585134 0.415091 1.013482
v -0.083639 0.200768 0.786329
v -0.111136 0.000000 0.192493
v -0.639162 0.200768 0.465598
v -0.361400 0.147079 0.625963
v 0.075985 0.079022 0.589507
v -0.707378 0.358875 0.684559
v -0.239156 0.358875 0.954887
v -0.548521 0.079022 0.228949
v -0.473267 0.257636 0.819723
v -0.236268 0.058787 0.409228
v 0.247685 0.000000 0.129994
v -0.236420 0.000000 -0.149505
v 0.005632 0.000000 -0.009756
v 0.674067 0.516330 0.236804
v 0.235611 0.000000 -0.141365
v 0.542112 0.516330 0.465357
v -0.004620 0.000000 0.274728
v 0.608089 0.415091 0.351081
v 0.471798 0.200768 0.050183
v 0.115496 0.000000 0.066681
v 0.279359 0.200768 0.383497
v 0.375578 0.147079 0.216840
v 0.353704 0.079022 -0.045591
v 0.410735 0.358875 0.424427
v 0.572932 0.358875 0.143494
v 0.137369 0.079022 0.329112
v 0.491834 0.257636 0.283960
v 0.245537 0.058787 0.141761
v 0.077996 0.000000 -0.148611
v -0.089703 0.000000 0.141852
v -0.005853 0.000000 -0.003379
v -0.542112 0.516330 0.465357
v 0.004620 0.000000 0.274728
v -0.674067 0.516330 0.236804
v -0.235611 0.000000 -0.141365
v -0.608089 0.415091 0.351081
v -0.279359 0.200768 0.383497
v -0.115496 0.000000 0.066681
v -0.471797 0.200768 0.050183
v -0.375578 0.147079 0.216840
v -0.137369 0.079022 0.329112
v -0.572932 0.358875 0.143494
v -0.410735 0.358875 0.424427
v -0.353704 0.079022 -0.045591
v -0.491834 0.257636 0.283960
v -0.245537 0.058787 0.141761
v 0.089703 0.000000 0.141852
v -0.077996 0.000000 -0.148611
v 0.005853 0.000000 -0.003379
v -0.674067 0.516330 -0.236804
v -0.235611 0.000000 0.141365
v -0.542112 0.516330 -0.465357
v 0.004620 0.000000 -0.274728
v -0.608089 0.415091 -0.351081
v -0.471797 0.200768 -0.050183
v -0.115496 0.000000 -0.066681
v -0.279359 0.200768 -0.383497
v -0.375578 0.147079 -0.216840
v -0.353704 0.079022 0.045591
v -0.410735 0.358875 -0.424427
v -0.572932 0.358875 -0.143494
v -0.137369 0.079022 -0.329112
v -0.491834 0.257636 -0.283960
v -0.245537 0.058787 -0.141761
v -0.077996 0.000000 0.148611
v 0.089703 0.000000 -0.141852
v 0.005853 0.000000 0.003379
v -0.131955 0.516330 -0.702161
v -0.240231 0.000000 -0.133363
v 0.131955 0.516330 -0.702161
v 0.240231 0.000000 -0.133363
v 0.000000 0.415091 -0.702161
v -0.192439 0.200768 -0.433680
v 0.000000 0.000000 -0.133363
v 0.192439 0.200768 -0.433680
v 0.000000 0.147079 -0.433680
v -0.216335 0.079022 -0.283522
v 0.162197 0.358875 -0.567921
v -0.162197 0.358875 -0.567921
v 0.216335 0.079022 -0.283521
v 0.000000 0.257636 -0.567921
v 0.000000 0.058787 -0.283522
v -0.167699 0.000000 0.006759
v 0.167699 0.000000 0.006759
v -0.000000 0.000000 0.006759
v 0.542112 0.516330 -0.465357
v -0.004620 0.000000 -0.274728
v 0.674067 0.516330 -0.236804
v 0.235611 0.000000 0.141365
v 0.608089 0.415091 -0.351081
v 0.279359 0.200768 -0.383497
v 0.115496 0.000000 -0.066681
v 0.471797 0.200768 -0.050183
v 0.375578 0.147079 -0.216840
v 0.137369 0.079022 -0.329112
v 0.572932 0.358875 -0.143494
v 0.410735 0.358875 -0.424427
v 0.353704 0.079022 0.045591
v 0.491834 0.257636 -0.283960
v 0.245537 0.058787 -0.141761
v -0.089703 0.000000 -0.141852
v 0.077996 0.000000 0.148611
v -0.005853 0.000000 0.003379
v 0.131955 0.516330 0.702161
v 0.240231 0.000000 0.133363
v -0.131955 0.516330 0.702161
v -0.240231 0.000000 0.133363
v -0.000000 0.415091 0.702161
v 0.192439 0.200768 0.433680
v -0.000000 0.000000 0.133363
v -0.192439 0.200768 0.433680
v -0.000000 0.147079 0.433680
v 0.216335 0.079022 0.283522
v -0.162197 0.358875 0.567921
v 0.162197 0.358875 0.567921
v -0.216335 0.079022 0.283521
v 0.000000 0.257636 0.567921
v -0.000000 0.058787 0.283522
v 0.167699 0.000000 -0.006759
v -0.167699 0.000000 -0.006759
v 0.000000 0.000000 -0.006759
vt 1.000000 0.500000
vt 0.750000 1.000000
vt 0.750000 0.500000
vt 0.250000 0.500000
vt 0.500000 1.000000
vt 0.250000 1.000000
vt 0.500000 0.000000
vt 0.250000 0.000000
vt 0.750000 0.000000
vt 0.500000 0.500000
vt 0.000000 0.500000
vt 0.000000 0.000000
vt 0.000000 1.000000
vt 1.000000 0.000000
vt 1.000000 0.500000
vt 1.000000 1.000000
vt 1.000000 1.000000
vt 1.000000 0.500000
vt 0.750000 1.000000
vt 0.750000 0.500000
vt 0.250000 0.500000
vt 0.500000 1.000000
vt 0.250000 1.000000
vt 0.500000 0.000000
vt 0.250000 0.000000
vt 0.750000 0.000000
vt 0.500000 0.500000
vt 0.000000 0.500000
vt 0.000000 0.000000
vt 0.000000 1.000000
vt 1.000000 0.000000
vt 1.000000 0.500000
vt 1.000000 1.000000
vt 1.000000 1.000000
vt 1.000000 0.500000
vt 0.750000 1.000000
vt 0.750000 0.500000
vt 0.250000 0.500000
vt 0.500000 1.000000
vt 0.250000 1.000000
vt 0.500000 0.000000
vt 0.250000 0.000000
vt 0.750000 0.000000
vt 0.500000 0.500000
vt 0.000000 0.500000
vt 0.000000 0.000000
vt 0.000000 1.000000
vt 1.000000 0.000000
vt 1.000000 0.500000
vt 1.000000 1.000000
vt 1.000000 1.000000
vt 1.000000 0.500000
vt 0.750000 1.000000
vt 0.750000 0.500000
vt 0.250000 0.500000
vt 0.500000 1.000000
vt 0.250000 1.000000
vt 0.500000 0.000000
vt 0.250000 0.000000
vt 0.750000 0.000000
vt 0.500000 0.500000
vt 0.000000 0.500000
vt 0.000000 0.000000
vt 0.000000 1.000000
vt 1.000000 0.000000
vt 1.000000 0.500000
vt 1.000000 1.000000
vt 1.000000 1.000000
vt 1.000000 0.500000
vt 0.750000 1.000000
vt 0.750000 0.500000
vt 0.250000 0.500000
vt 0.500000 1.000000
vt 0.250000 1.000000
vt 0.500000 0.000000
vt 0.250000 0.000000
vt 0.750000 0.000000
vt 0.500000 0.500000
vt 0.000000 0.500000
vt 0.000000 0.000000
vt 0.000000 1.000000
vt 1.000000 0.000000
vt 1.000000 0.500000
vt 1.000000 1.000000
vt 1.000000 1.000000
vt 1.000000 0.500000
vt 0.750000 1.000000
vt 0.750000 0.500000
vt 0.250000 0.500000
vt 0.500000 1.000000
vt 0.250000 1.000000
vt 0.500000 0.000000
vt 0.250000 0.000000
vt 0.750000 0.000000
vt 0.500000 0.500000
vt 0.000000 0.500000
vt 0.000000 0.000000
vt 0.000000 1.000000
vt 1.000000 0.000000
vt 1.000000 0.500000
vt 1.000000 1.000000
vt 1.000000 1.000000
vt 1.000000 0.500000
vt 0.750000 1.000000
vt 0.750000 0.500000
vt 0.250000 0.500000
vt 0.500000 1.000000
vt 0.250000 1.000000
vt 0.500000 0.000000
vt 0.250000 0.000000
vt 0.750000 0.000000
vt 0.500000 0.500000
vt 0.000000 0.500000
vt 0.000000 0.000000
vt 0.000000 1.000000
vt 1.000000 0.000000
vt 1.000000 0.500000
vt 1.000000 1.000000
vt 1.000000 1.000000
vt 1.000000 0.500000
vt 0.750000 1.000000
vt 0.750000 0.500000
vt 0.250000 0.500000
vt 0.500000 1.000000
vt 0.250000 1.000000
vt 0.500000 0.000000
vt 0.250000 0.000000
vt 0.750000 0.000000
vt 0.500000 0.500000
vt 0.000000 0.500000
vt 0.000000 0.000000
vt 0.000000 1.000000
vt 1.000000 0.000000
vt 1.000000 0.500000
vt 1.000000 1.000000
vt 1.000000 1.000000
vt 1.000000 0.500000
vt 0.750000 1.000000
vt 0.750000 0.500000
vt 0.250000 0.500000
vt 0.500000 1.000000
vt 0.250000 1.000000
vt 0.500000 0.000000
vt 0.250000 0.000000
vt 0.750000 0.000000
vt 0.500000 0.500000
vt 0.000000 0.500000
vt 0.000000 0.000000
vt 0.000000 1.000000
vt 1.000000 0.000000
vt 1.000000 0.500000
vt 1.000000 1.000000
vt 1.000000 1.000000
vt 1.000000 0.500000
vt 0.750000 1.000000
vt 0.750000 0.500000
vt 0.250000 0.500000
vt 0.500000 1.000000
vt 0.250000 1.000000
vt 0.500000 0.000000
vt 0.250000 0.000000
vt 0.750000 0.000000
vt 0.500000 0.500000
vt 0.000000 0.500000
vt 0.000000 0.000000
vt 0.000000 1.000000
vt 1.000000 0.000000
vt 1.000000 0.500000
vt 1.000000 1.000000
vt 1.000000 1.000000
vt 1.000000 0.500000
vt 0.750000 1.000000
vt 0.750000 0.500000
vt 0.250000 0.500000
vt 0.500000 1.000000
vt 0.250000 1.000000
vt 0.500000 0.000000
vt 0.250000 0.000000
vt 0.750000 0.000000
vt 0.500000 0.500000
vt 0.000000 0.500000
vt 0.000000 0.000000
vt 0.000000 1.000000
vt 1.000000 0.000000
vt 1.000000 0.500000
vt 1.000000 1.000000
vt 1.000000 1.000000
vt 1.000000 0.500000
vt 0.750000 1.000000
vt 0.750000 0.500000
vt 0.250000 0.500000
vt 0.500000 1.000000
vt 0.250000 1.000000
vt 0.500000 0.000000
vt 0.250000 0.000000
vt 0.750000 0.000000
vt 0.500000 0.500000
vt 0.000000 0.500000
vt 0.000000 0.000000
vt 0.000000 1.000000
vt 1.000000 0.000000
vt 1.000000 0.500000
vt 1.000000 1.000000
vt 1.000000 1.000000
vt 1.000000 0.000000
vt 1.000000 0.000000
vt 1.000000 0.000000
vt 1.000000 0.000000
vt 1.000000 0.000000
vt 1.000000 0.000000
vt 1.000000 0.000000
vt 1.000000 0.000000
vt 1.000000 0.000000
vt 1.000000 0.000000
vt 1.000000 0.000000
vt 1.000000 0.000000
vn -0.0650 0.9915 -0.1126
vn -0.1477 0.9346 -0.3236
vn -0.1532 0.9519 -0.2654
vn -0.2734 0.8373 -0.4735
vn -0.0964 0.8729 -0.4783
vn -0.0330 0.7562 -0.6535
vn -0.3660 0.8729 -0.3226
vn -0.5494 0.7562 -0.3554
vn -0.2064 0.9346 -0.2897
vn -0.1932 0.9224 -0.3346
vn -0.5583 0.7581 -0.3370
vn -0.5877 0.7325 -0.3436
vn -0.0128 0.7581 -0.6520
vn -0.0037 0.7325 -0.6808
vn 0.0000 1.0000 0.0000
vn -0.0861 0.9851 -0.1491
vn 0.1300 0.9915 0.0000
vn 0.3541 0.9346 0.0339
vn 0.3064 0.9519 -0.0000
vn 0.5467 0.8373 -0.0000
vn 0.4624 0.8729 0.1556
vn 0.5825 0.7562 0.2982
vn 0.4624 0.8729 -0.1556
vn 0.5825 0.7562 -0.2982
vn 0.3541 0.9346 -0.0339
vn 0.3863 0.9224 -0.0000
vn 0.5710 0.7581 -0.3150
vn 0.5914 0.7325 -0.3372
vn 0.5710 0.7581 0.3150
vn 0.5914 0.7325 0.3372
vn 0.1721 0.9851 0.0000
vn 0.0650 0.9915 0.1126
vn 0.1477 0.9346 0.3236
vn 0.1532 0.9519 0.2654
vn 0.2734 0.8373 0.4735
vn 0.0964 0.8729 0.4783
vn 0.0330 0.7562 0.6535
vn 0.3660 0.8729 0.3226
vn 0.5494 0.7562 0.3554
vn 0.2064 0.9346 0.2897
vn 0.1932 0.9224 0.3346
vn 0.5583 0.7581 0.3370
vn 0.5877 0.7325 0.3436
vn 0.0128 0.7581 0.6520
vn 0.0037 0.7325 0.6808
vn 0.0861 0.9851 0.1491
vn -0.0650 0.9915 0.1126
vn -0.2064 0.9346 0.2897
vn -0.1532 0.9519 0.2654
vn -0.2734 0.8373 0.4735
vn -0.3660 0.8729 0.3226
vn -0.5494 0.7562 0.3554
vn -0.0964 0.8729 0.4783
vn -0.0330 0.7562 0.6535
vn -0.1477 0.9346 0.3236
vn -0.1932 0.9224 0.3346
vn -0.0128 0.7581 0.6520
vn -0.0037 0.7325 0.6808
vn -0.5583 0.7581 0.3370
vn -0.5877 0.7325 0.3436
vn -0.0861 0.9851 0.1491
vn -0.1300 0.9915 -0.0000
vn -0.3541 0.9346 -0.0339
vn -0.3064 0.9519 -0.0000
vn -0.5467 0.8373 -0.0000
vn -0.4624 0.8729 -0.1556
vn -0.5825 0.7562 -0.2982
vn -0.4624 0.8729 0.1556
vn -0.5825 0.7562 0.2982
vn -0.3541 0.9346 0.0339
vn -0.3863 0.9224 -0.0000
vn -0.5710 0.7581 0.3150
vn -0.5914 0.7325 0.3372
vn -0.5710 0.7581 -0.3150
vn -0.5914 0.7325 -0.3372
vn -0.1721 0.9851 -0.0000
vn 0.0650 0.9915 -0.1126
vn 0.2064 0.9346 -0.2897
vn 0.1532 0.9519 -0.2654
vn 0.2734 0.8373 -0.4735
vn 0.3660 0.8729 -0.3226
vn 0.5494 0.7562 -0.3554
vn 0.0964 0.8729 -0.4783
vn 0.0330 0.7562 -0.6535
vn 0.1477 0.9346 -0.3236
vn 0.1932 0.9224 -0.3346
vn 0.0128 0.7581 -0.6520
vn 0.0037 0.7325 -0.6808
vn 0.5583 0.7581 -0.3370
vn 0.5877 0.7325 -0.3436
vn 0.0861 0.9851 -0.1491
vn -0.1806 0.9780 -0.1043
vn -0.3912 0.8597 -0.3286
vn -0.3769 0.9003 -0.2176
vn -0.6373 0.6772 -0.3679
vn -0.4525 0.7024 -0.5494
vn -0.4426 0.5720 -0.6906
vn -0.7020 0.7024 -0.1172
vn -0.8194 0.5720 -0.0380
vn -0.4801 0.8597 -0.1745
vn -0.5217 0.7982 -0.3012
vn -0.8218 0.5695 -0.0150
vn -0.8401 0.5423 -0.0046
vn -0.4239 0.5695 -0.7042
vn -0.4240 0.5423 -0.7253
vn -0.2354 0.9624 -0.1359
vn 0.1806 0.9780 -0.1043
vn 0.4801 0.8597 -0.1745
vn 0.3769 0.9003 -0.2176
vn 0.6373 0.6772 -0.3679
vn 0.7020 0.7024 -0.1172
vn 0.8194 0.5720 -0.0380
vn 0.4525 0.7024 -0.5494
vn 0.4426 0.5720 -0.6906
vn 0.3912 0.8597 -0.3286
vn 0.5217 0.7982 -0.3012
vn 0.4239 0.5695 -0.7042
vn 0.4240 0.5423 -0.7253
vn 0.8218 0.5695 -0.0150
vn 0.8401 0.5423 -0.0046
vn 0.2354 0.9624 -0.1359
vn 0.1806 0.9780 0.1043
vn 0.3912 0.8597 0.3286
vn 0.3769 0.9003 0.2176
vn 0.6373 0.6772 0.3679
vn 0.4525 0.7024 0.5494
vn 0.4426 0.5720 0.6906
vn 0.7020 0.7024 0.1172
vn 0.8194 0.5720 0.0380
vn 0.4801 0.8597 0.1745
vn 0.5217 0.7982 0.3012
vn 0.8218 0.5695 0.0150
vn 0.8401 0.5423 0.0046
vn 0.4239 0.5695 0.7042
vn 0.4240 0.5423 0.7253
vn 0.2354 0.9624 0.1359
vn -0.0000 0.9780 0.2085
vn -0.0890 0.8597 0.5030
vn -0.0000 0.9003 0.4352
vn 0.0000 0.6772 0.7358
vn -0.2495 0.7024 0.6666
vn -0.3768 0.5720 0.7286
vn 0.2495 0.7024 0.6666
vn 0.3768 0.5720 0.7286
vn 0.0890 0.8597 0.5030
vn -0.0000 0.7982 0.6024
vn 0.3979 0.5695 0.7193
vn 0.4161 0.5423 0.7299
vn -0.3979 0.5695 0.7193
vn -0.4161 0.5423 0.7299
vn 0.0000 0.9624 0.2718
vn -0.1806 0.9780 0.1043
vn -0.4801 0.8597 0.1745
vn -0.3769 0.9003 0.2176
vn -0.6373 0.6772 0.3679
vn -0.7020 0.7024 0.1172
vn -0.8194 0.5720 0.0380
vn -0.4525 0.7024 0.5494
vn -0.4426 0.5720 0.6906
vn -0.3912 0.8597 0.3286
vn -0.5217 0.7982 0.3012
vn -0.4239 0.5695 0.7042
vn -0.4240 0.5423 0.7253
vn -0.8218 0.5695 0.0150
vn -0.8401 0.5423 0.0046
vn -0.2354 0.9624 0.1359
vn 0.0000 0.9780 -0.2085
vn 0.0890 0.8597 -0.5030
vn 0.0000 0.9003 -0.4352
vn -0.0000 0.6772 -0.7358
vn 0.2495 0.7024 -0.6666
vn 0.3768 0.5720 -0.7286
vn -0.2495 0.7024 -0.6666
vn -0.3768 0.5720 -0.7286
vn -0.0890 0.8597 -0.5030
vn 0.0000 0.7982 -0.6024
vn -0.3979 0.5695 -0.7193
vn -0.4161 0.5423 -0.7299
vn 0.3979 0.5695 -0.7193
vn 0.4161 0.5423 -0.7299
vn 0.0000 0.9624 -0.2718
s 1
f 7/1/1 13/2/2 15/3/3
f 14/4/4 8/5/5 11/6/6
f 6/7/7 14/4/4 12/8/8
f 10/9/9 7/1/1 15/3/3
f 6/7/7 15/3/3 9/10/10
f 12/8/8 5/11/11 1/12/12
f 5/11/13 11/6/6 3/13/14
f 15/3/3 8/5/5 9/10/10
f 7/1/1 16/14/15 18/15/15
f 7/1/1 17/16/15 4/17/16
f 25/18/17 31/19/18 33/20/19
f 32/21/20 26/22/21 29/23/22
f 24/24/23 32/21/20 30/25/24
f 28/26/25 25/18/17 33/20/19
f 24/24/23 33/20/19 27/27/26
f 30/25/24 23/28/27 19/29/28
f 23/28/29 29/23/22 21/30/30
f 33/20/19 26/22/21 27/27/26
f 25/18/17 34/31/15 36/32/15
f 25/18/17 35/33/15 22/34/31
f 43/35/32 49/36/33 51/37/34
f 50/38/35 44/39/36 47/40/37
f 42/41/38 50/38/35 48/42/39
f 46/43/40 43/35/32 51/37/34
f 42/41/38 51/37/34 45/44/41
f 48/42/39 41/45/42 37/46/43
f 41/45/44 47/40/37 39/47/45
f 51/37/34 44/39/36 45/44/41
f 43/35/32 52/48/15 54/49/15
f 43/35/32 53/50/15 40/51/46
f 61/52/47 67/53/48 69/54/49
f 68/55/50 62/56/51 65/57/52
f 60/58/53 68/55/50 66/59/54
f 64/60/55 61/52/47 69/54/49
f 60/58/53 69/54/49 63/61/56
f 66/59/54 59/62/57 55/63/58
f 59/62/59 65/57/52 57/64/60
f 69/54/49 62/56/51 63/61/56
f 61/52/47 70/65/15 72/66/15
f 61/52/47 71/67/15 58/68/61
f 79/69/62 85/70/63 87/71/64
f 86/72/65 80/73/66 83/74/67
f 78/75/68 86/72/65 84/76/69
f 82/77/70 79/69/62 87/71/64
f 78/75/68 87/71/64 81/78/71
f 84/76/69 77/79/72 73/80/73
f 77/79/74 83/74/67 75/81/75
f 87/71/64 80/73/66 81/78/71
f 79/69/62 88/82/15 90/83/15
f 79/69/62 89/84/15 76/85/76
f 97/86/77 103/87/78 105/88/79
f 104/89/80 98/90/81 101/91/82
f 96/92/83 104/89/80 102/93/84
f 100/94/85 97/86/77 105/88/79
f 96/92/83 105/88/79 99/95/86
f 102/93/84 95/96/87 91/97/88
f 95/96/89 101/91/82 93/98/90
f 105/88/79 98/90/81 99/95/86
f 97/86/77 106/99/15 108/100/15
f 97/86/77 107/101/15 94/102/91
f 115/103/92 121/104/93 123/105/94
f 122/106/95 116/107/96 119/108/97
f 114/109/98 122/106/95 120/110/99
f 118/111/100 115/103/92 123/105/94
f 118/111/100 117/112/101 114/109/98
f 120/110/99 113/113/102 109/114/103
f 113/113/104 119/108/97 111/115/105
f 117/112/101 121/104/93 116/107/96
f 115/103/92 124/116/15 126/117/15
f 115/103/92 125/118/15 112/119/106
f 133/120/107 139/121/108 141/122/109
f 140/123/110 134/124/111 137/125/112
f 132/126/113 140/123/110 138/127/114
f 136/128/115 133/120/107 141/122/109
f 136/128/115 135/129/116 132/126/113
f 138/127/114 131/130/117 127/131/118
f 131/130/119 137/125/112 129/132/120
f 135/129/116 139/121/108 134/124/111
f 133/120/107 142/133/15 144/134/15
f 133/120/107 143/135/15 130/136/121
f 151/137/122 157/138/123 159/139/124
f 158/140/125 152/141/126 155/142/127
f 150/143/128 158/140/125 156/144/129
f 154/145/130 151/137/122 159/139/124
f 154/145/130 153/146/131 150/143/128
f 156/144/129 149/147/132 145/148/133
f 149/147/134 155/142/127 147/149/135
f 153/146/131 157/138/123 152/141/126
f 151/137/122 160/150/15 162/151/15
f 151/137/122 161/152/15 148/153/136
f 169/154/137 175/155/138 177/156/139
f 176/157/140 170/158/141 173/159/142
f 168/160/143 176/157/140 174/161/144
f 172/162/145 169/154/137 177/156/139
f 172/162/145 171/163/146 168/160/143
f 174/161/144 167/164/147 163/165/148
f 167/164/149 173/159/142 165/166/150
f 171/163/146 175/155/138 170/158/141
f 169/154/137 178/167/15 180/168/15
f 169/154/137 179/169/15 166/170/151
f 187/171/152 193/172/153 195/173/154
f 194/174/155 188/175/156 191/176/157
f 186/177/158 194/174/155 192/178/159
f 190/179/160 187/171/152 195/173/154
f 190/179/160 189/180/161 186/177/158
f 192/178/159 185/181/162 181/182/163
f 185/181/164 191/176/157 183/183/165
f 189/180/161 193/172/153 188/175/156
f 187/171/152 196/184/15 198/185/15
f 187/171/152 197/186/15 184/187/166
f 205/188/167 211/189/168 213/190/169
f 212/191/170 206/192/171 209/193/172
f 204/194/173 212/191/170 210/195/174
f 208/196/175 205/188/167 213/190/169
f 208/196/175 207/197/176 204/194/173
f 210/195/174 203/198/177 199/199/178
f 203/198/179 209/193/172 201/200/180
f 207/197/176 211/189/168 206/192/171
f 205/188/167 214/201/15 216/202/15
f 205/188/167 215/203/15 202/204/181
f 7/1/1 4/17/16 13/2/2
f 14/4/4 9/10/10 8/5/5
f 6/7/7 9/10/10 14/4/4
f 10/9/9 2/205/16 7/1/1
f 6/7/7 10/9/9 15/3/3
f 12/8/8 14/4/4 5/11/11
f 5/11/13 14/4/4 11/6/6
f 15/3/3 13/2/2 8/5/5
f 7/1/1 2/205/16 16/14/15
f 7/1/1 18/15/15 17/16/15
f 25/18/17 22/34/31 31/19/18
f 32/21/20 27/27/26 26/22/21
f 24/24/23 27/27/26 32/21/20
f 28/26/25 20/206/31 25/18/17
f 24/24/23 28/26/25 33/20/19
f 30/25/24 32/21/20 23/28/27
f 23/28/29 32/21/20 29/23/22
f 33/20/19 31/19/18 26/22/21
f 25/18/17 20/206/31 34/31/15
f 25/18/17 36/32/15 35/33/15
f 43/35/32 40/51/46 49/36/33
f 50/38/35 45/44/41 44/39/36
f 42/41/38 45/44/41 50/38/35
f 46/43/40 38/207/46 43/35/32
f 42/41/38 46/43/40 51/37/34
f 48/42/39 50/38/35 41/45/42
f 41/45/44 50/38/35 47/40/37
f 51/37/34 49/36/33 44/39/36
f 43/35/32 38/207/46 52/48/15
f 43/35/32 54/49/15 53/50/15
f 61/52/47 58/68/61 67/53/48
f 68/55/50 63/61/56 62/56/51
f 60/58/53 63/61/56 68/55/50
f 64/60/55 56/208/61 61/52/47
f 60/58/53 64/60/55 69/54/49
f 66/59/54 68/55/50 59/62/57
f 59/62/59 68/55/50 65/57/52
f 69/54/49 67/53/48 62/56/51
f 61/52/47 56/208/61 70/65/15
f 61/52/47 72/66/15 71/67/15
f 79/69/62 76/85/76 85/70/63
f 86/72/65 81/78/71 80/73/66
f 78/75/68 81/78/71 86/72/65
f 82/77/70 74/209/76 79/69/62
f 78/75/68 82/77/70 87/71/64
f 84/76/69 86/72/65 77/79/72
f 77/79/74 86/72/65 83/74/67
f 87/71/64 85/70/63 80/73/66
f 79/69/62 74/209/76 88/82/15
f 79/69/62 90/83/15 89/84/15
f 97/86/77 94/102/91 103/87/78
f 104/89/80 99/95/86 98/90/81
f 96/92/83 99/95/86 104/89/80
f 100/94/85 92/210/91 97/86/77
f 96/92/83 100/94/85 105/88/79
f 102/93/84 104/89/80 95/96/87
f 95/96/89 104/89/80 101/91/82
f 105/88/79 103/87/78 98/90/81
f 97/86/77 92/210/91 106/99/15
f 97/86/77 108/100/15 107/101/15
f 115/103/92 112/119/106 121/104/93
f 122/106/95 117/112/101 116/107/96
f 114/109/98 117/112/101 122/106/95
f 118/111/100 110/211/106 115/103/92
f 118/111/100 123/105/94 117/112/101
f 120/110/99 122/106/95 113/113/102
f 113/113/104 122/106/95 119/108/97
f 117/112/101 123/105/94 121/104/93
f 115/103/92 110/211/106 124/116/15
f 115/103/92 126/117/15 125/118/15
f 133/120/107 130/136/121 139/121/108
f 140/123/110 135/129/116 134/124/111
f 132/126/113 135/129/116 140/123/110
f 136/128/115 128/212/121 133/120/107
f 136/128/115 141/122/109 135/129/116
f 138/127/114 140/123/110 131/130/117
f 131/130/119 140/123/110 137/125/112
f 135/129/116 141/122/109 139/121/108
f 133/120/107 128/212/121 142/133/15
f 133/120/107 144/134/15 143/135/15
f 151/137/122 148/153/136 157/138/123
f 158/140/125 153/146/131 152/141/126
f 150/143/128 153/146/131 158/140/125
f 154/145/130 146/213/136 151/137/122
f 154/145/130 159/139/124 153/146/131
f 156/144/129 158/140/125 149/147/132
f 149/147/134 158/140/125 155/142/127
f 153/146/131 159/139/124 157/138/123
f 151/137/122 146/213/136 160/150/15
f 151/137/122 162/151/15 161/152/15
f 169/154/137 166/170/151 175/155/138
f 176/157/140 171/163/146 170/158/141
f 168/160/143 171/163/146 176/157/140
f 172/162/145 164/214/151 169/154/137
f 172/162/145 177/156/139 171/163/146
f 174/161/144 176/157/140 167/164/147
f 167/164/149 176/157/140 173/159/142
f 171/163/146 177/156/139 175/155/138
f 169/154/137 164/214/151 178/167/15
f 169/154/137 180/168/15 179/169/15
f 187/171/152 184/187/166 193/172/153
f 194/174/155 189/180/161 188/175/156
f 186/177/158 189/180/161 194/174/155
f 190/179/160 182/215/166 187/171/152
f 190/179/160 195/173/154 189/180/161
f 192/178/159 194/174/155 185/181/162
f 185/181/164 194/174/155 191/176/157
f 189/180/161 195/173/154 193/172/153
f 187/171/152 182/215/166 196/184/15
f 187/171/152 198/185/15 197/186/15
f 205/188/167 202/204/181 211/189/168
f 212/191/170 207/197/176 206/192/171
f 204/194/173 207/197/176 212/191/170
f 208/196/175 200/216/181 205/188/167
f 208/196/175 213/190/169 207/197/176
f 210/195/174 212/191/170 203/198/177
f 203/198/179 212/191/170 209/193/172
f 207/197/176 213/190/169 211/189/168
f 205/188/167 200/216/181 214/201/15
f 205/188/167 216/202/15 215/203/15
