# Blender v3.4.1 OBJ File: 'decoratives_and_entities.blend'
# www.blender.org
o Ground_1_Flower_Plane.206
v -0.388342 0.265464 -0.112836
v -0.247851 0.265464 0.319548
v -0.157364 0.066756 -0.137193
v -0.046670 0.066756 0.203488
v -0.091706 -0.026156 -0.083616
v -0.025043 -0.026156 0.121550
v -0.717928 0.440306 0.051175
v -0.610895 0.440306 0.380587
v -0.859298 0.486439 0.215203
v -0.821680 0.486439 0.330981
v -0.874871 0.483659 0.264254
v -0.863109 0.483659 0.300451
v -0.227318 0.265464 0.334466
v 0.227317 0.265464 0.334466
v -0.179107 0.066756 0.107267
v 0.179107 0.066756 0.107267
v -0.107862 -0.026156 0.061379
v 0.107862 -0.026156 0.061379
v -0.173182 0.440306 0.698604
v 0.173182 0.440306 0.698604
v -0.060868 0.486439 0.883742
v 0.060868 0.486439 0.883742
v -0.019030 0.483659 0.913710
v 0.019030 0.483659 0.913710
v 0.247851 0.265464 0.319548
v 0.388341 0.265464 -0.112836
v 0.046670 0.066756 0.203488
v 0.157364 0.066756 -0.137193
v 0.025043 -0.026156 0.121550
v 0.091706 -0.026156 -0.083616
v 0.610895 0.440306 0.380586
v 0.717928 0.440306 0.051175
v 0.821680 0.486439 0.330980
v 0.859298 0.486439 0.215202
v 0.863109 0.483659 0.300451
v 0.874871 0.483659 0.264253
v 0.380498 0.265464 -0.136975
v 0.012691 0.265464 -0.404203
v 0.207950 0.066756 0.018496
v -0.081851 0.066756 -0.192057
v 0.123340 -0.026156 0.013743
v -0.051185 -0.026156 -0.113056
v 0.550736 0.440306 -0.463389
v 0.270522 0.440306 -0.666976
v 0.568694 0.486439 -0.679185
v 0.470207 0.486439 -0.750740
v 0.552461 0.483659 -0.728022
v 0.521670 0.483659 -0.750393
v -0.012691 0.265464 -0.404203
v -0.380498 0.265464 -0.136975
v 0.081851 0.066756 -0.192057
v -0.207950 0.066756 0.018496
v 0.051185 -0.026156 -0.113056
v -0.123340 -0.026156 0.013743
v -0.270522 0.440306 -0.666976
v -0.550736 0.440306 -0.463388
v -0.470208 0.486439 -0.750740
v -0.568695 0.486439 -0.679185
v -0.521670 0.483659 -0.750392
v -0.552461 0.483659 -0.728021
vt 1.000000 0.000000
vt 0.000000 1.000000
vt 0.000000 0.000000
vt 1.000000 1.000000
vt 0.000000 1.000000
vt 0.000000 0.000000
vt 1.000000 0.000000
vt 1.000000 0.000000
vt 0.000000 0.000000
vt 1.000000 0.000000
vt 1.000000 0.000000
vt 0.000000 1.000000
vt 0.000000 0.000000
vt 1.000000 1.000000
vt 0.000000 1.000000
vt 1.000000 0.000000
vt 0.000000 0.000000
vt 1.000000 0.000000
vt 0.000000 0.000000
vt 1.000000 0.000000
vt 0.000000 0.000000
vt 1.000000 1.000000
vt 0.000000 1.000000
vt 0.000000 1.000000
vt 1.000000 0.000000
vt 0.000000 0.000000
vt 1.000000 0.000000
vt 0.000000 0.000000
vt 1.000000 0.000000
vt 1.000000 0.000000
vt 1.000000 0.000000
vt 0.000000 1.000000
vt 0.000000 0.000000
vt 1.000000 1.000000
vt 0.000000 1.000000
vt 1.000000 0.000000
vt 0.000000 0.000000
vt 1.000000 0.000000
vt 0.000000 0.000000
vt 1.000000 0.000000
vt 1.000000 0.000000
vt 0.000000 1.000000
vt 0.000000 0.000000
vt 1.000000 1.000000
vt 0.000000 1.000000
vt 1.000000 0.000000
vt 0.000000 0.000000
vt 1.000000 0.000000
vt 0.000000 0.000000
vt 1.000000 0.000000
vt 1.000000 1.000000
vt 0.000000 0.000000
vt 1.000000 1.000000
vt 0.000000 0.000000
vt 1.000000 1.000000
vt 0.000000 0.000000
vt 1.000000 1.000000
vt 0.000000 0.000000
vt 1.000000 1.000000
vt 0.000000 0.000000
vn 0.5227 0.8354 -0.1698
vn 0.7202 0.6531 -0.2340
vn 0.8527 0.4428 -0.2771
vn 0.3445 0.9321 -0.1119
vn 0.1588 0.9860 -0.0516
vn -0.0879 0.9957 0.0285
vn -0.0000 0.8354 -0.5496
vn -0.0000 0.6531 -0.7573
vn -0.0000 0.4428 -0.8966
vn -0.0000 0.9321 -0.3622
vn 0.0000 0.9860 -0.1670
vn 0.0000 0.9957 0.0924
vn -0.5227 0.8354 -0.1698
vn -0.7202 0.6531 -0.2340
vn -0.8527 0.4428 -0.2771
vn -0.3445 0.9321 -0.1119
vn -0.1588 0.9860 -0.0516
vn 0.0879 0.9957 0.0285
vn -0.3231 0.8354 0.4447
vn -0.4451 0.6531 0.6127
vn -0.5270 0.4428 0.7254
vn -0.2129 0.9321 0.2931
vn -0.0982 0.9860 0.1351
vn 0.0543 0.9957 -0.0747
vn 0.3231 0.8354 0.4447
vn 0.4451 0.6531 0.6127
vn 0.5270 0.4428 0.7254
vn 0.2129 0.9321 0.2931
vn 0.0982 0.9860 0.1351
vn -0.0543 0.9957 -0.0747
vn 0.0879 0.9957 0.0286
s 1
f 2/1/1 3/2/2 1/3/1
f 4/4/2 5/5/3 3/2/2
f 2/1/1 7/6/4 8/7/4
f 7/6/4 10/8/5 8/7/4
f 9/9/5 12/10/6 10/8/5
f 14/11/7 15/12/8 13/13/7
f 15/12/8 18/14/9 17/15/9
f 13/13/7 20/16/10 14/11/7
f 19/17/10 22/18/11 20/16/10
f 22/18/11 23/19/12 24/20/12
f 25/21/13 28/22/14 27/23/14
f 28/22/14 29/24/15 27/23/14
f 26/25/13 31/26/16 32/27/16
f 32/27/16 33/28/17 34/29/17
f 33/28/17 36/30/18 34/29/17
f 38/31/19 39/32/20 37/33/19
f 39/32/20 42/34/21 41/35/21
f 37/33/19 44/36/22 38/31/19
f 43/37/22 46/38/23 44/36/22
f 45/39/23 48/40/24 46/38/23
f 50/41/25 51/42/26 49/43/25
f 52/44/26 53/45/27 51/42/26
f 49/43/25 56/46/28 50/41/25
f 55/47/28 58/48/29 56/46/28
f 57/49/29 60/50/30 58/48/29
f 2/1/1 4/4/2 3/2/2
f 4/4/2 6/51/3 5/5/3
f 2/1/1 1/3/1 7/6/4
f 7/6/4 9/9/5 10/8/5
f 9/9/5 11/52/6 12/10/6
f 14/11/7 16/53/8 15/12/8
f 15/12/8 16/53/8 18/14/9
f 13/13/7 19/17/10 20/16/10
f 19/17/10 21/54/11 22/18/11
f 22/18/11 21/54/11 23/19/12
f 25/21/13 26/25/13 28/22/14
f 28/22/14 30/55/15 29/24/15
f 26/25/13 25/21/13 31/26/16
f 32/27/16 31/26/16 33/28/17
f 33/28/17 35/56/31 36/30/18
f 38/31/19 40/57/20 39/32/20
f 39/32/20 40/57/20 42/34/21
f 37/33/19 43/37/22 44/36/22
f 43/37/22 45/39/23 46/38/23
f 45/39/23 47/58/24 48/40/24
f 50/41/25 52/44/26 51/42/26
f 52/44/26 54/59/27 53/45/27
f 49/43/25 55/47/28 56/46/28
f 55/47/28 57/49/29 58/48/29
f 57/49/29 59/60/30 60/50/30
