# Blender v3.4.1 OBJ File: 'astrolabe.blend'
# www.blender.org
o Health_Unit_Cylinder.023
v 0.000000 -0.202953 -0.204890
v 0.000000 0.206828 -0.204890
v 0.070077 -0.202953 -0.192534
v 0.070077 0.206828 -0.192534
v 0.131701 -0.202953 -0.156955
v 0.131701 0.206828 -0.156955
v 0.177440 -0.202953 -0.102445
v 0.177440 0.206828 -0.102445
v 0.201777 -0.202953 -0.035579
v 0.201777 0.206828 -0.035579
v 0.201777 -0.202953 0.035579
v 0.201777 0.206828 0.035579
v 0.177440 -0.202953 0.102445
v 0.177440 0.206828 0.102445
v 0.131701 -0.202953 0.156955
v 0.131701 0.206828 0.156955
v 0.070077 -0.202953 0.192534
v 0.070077 0.206828 0.192534
v 0.000000 -0.202953 0.204890
v 0.000000 0.206828 0.204890
v -0.070077 -0.202953 0.192534
v -0.070077 0.206828 0.192534
v -0.131701 -0.202953 0.156955
v -0.131701 0.206828 0.156955
v -0.177440 -0.202953 0.102445
v -0.177440 0.206828 0.102445
v -0.201777 -0.202953 0.035579
v -0.201777 0.206828 0.035579
v -0.201777 -0.202953 -0.035579
v -0.201777 0.206828 -0.035579
v -0.177440 -0.202953 -0.102445
v -0.177440 0.206828 -0.102445
v -0.131701 -0.202953 -0.156955
v -0.131701 0.206828 -0.156955
v -0.070077 -0.202953 -0.192534
v -0.070077 0.206828 -0.192534
v 0.000000 -0.235785 -0.186247
v 0.063700 -0.235785 -0.175015
v 0.063700 0.239660 -0.175015
v 0.000000 0.239660 -0.186247
v 0.119718 -0.235785 -0.142674
v 0.119718 0.239660 -0.142674
v 0.161295 -0.235785 -0.093124
v 0.161295 0.239660 -0.093124
v 0.183418 -0.235785 -0.032342
v 0.183418 0.239660 -0.032342
v 0.183418 -0.235785 0.032342
v 0.183418 0.239660 0.032342
v 0.161295 -0.235785 0.093124
v 0.161295 0.239660 0.093124
v 0.119718 -0.235785 0.142674
v 0.119718 0.239660 0.142674
v 0.063700 -0.235785 0.175015
v 0.063700 0.239660 0.175015
v 0.000000 -0.235785 0.186247
v 0.000000 0.239660 0.186247
v -0.063700 -0.235785 0.175015
v -0.063700 0.239660 0.175015
v -0.119718 -0.235785 0.142674
v -0.119718 0.239660 0.142674
v -0.161295 -0.235785 0.093124
v -0.161295 0.239660 0.093124
v -0.183418 -0.235785 0.032342
v -0.183418 0.239660 0.032342
v -0.183418 -0.235785 -0.032342
v -0.183418 0.239660 -0.032342
v -0.161295 -0.235785 -0.093124
v -0.161295 0.239660 -0.093124
v -0.119718 -0.235785 -0.142674
v -0.119718 0.239660 -0.142674
v -0.063700 -0.235785 -0.175015
v -0.063700 0.239660 -0.175015
v 0.000000 -0.269720 -0.133449
v 0.045642 -0.269720 -0.125401
v 0.045642 0.261970 -0.125401
v 0.000000 0.261970 -0.133449
v 0.085779 -0.269720 -0.102228
v 0.085779 0.261970 -0.102228
v 0.115570 -0.269720 -0.066724
v 0.115570 0.261970 -0.066724
v 0.131421 -0.269720 -0.023173
v 0.131421 0.261970 -0.023173
v 0.131421 -0.269720 0.023173
v 0.131421 0.261970 0.023173
v 0.115570 -0.269720 0.066724
v 0.115570 0.261970 0.066724
v 0.085779 -0.269720 0.102228
v 0.085779 0.261970 0.102228
v 0.045642 -0.269720 0.125401
v 0.045642 0.261970 0.125401
v 0.000000 -0.269720 0.133449
v 0.000000 0.261970 0.133449
v -0.045642 -0.269720 0.125401
v -0.045642 0.261970 0.125401
v -0.085779 -0.269720 0.102228
v -0.085779 0.261970 0.102228
v -0.115570 -0.269720 0.066724
v -0.115570 0.261970 0.066724
v -0.131421 -0.269720 0.023173
v -0.131421 0.261970 0.023173
v -0.131421 -0.269720 -0.023173
v -0.131421 0.261970 -0.023173
v -0.115570 -0.269720 -0.066724
v -0.115570 0.261970 -0.066724
v -0.085779 -0.269720 -0.102228
v -0.085779 0.261970 -0.102228
v -0.045642 -0.269720 -0.125401
v -0.045642 0.261970 -0.125401
vt 1.000000 1.000000
vt 0.944444 0.500000
vt 1.000000 0.500000
vt 0.944444 1.000000
vt 0.888889 0.500000
vt 0.888889 1.000000
vt 0.833333 0.500000
vt 0.833333 1.000000
vt 0.777778 0.500000
vt 0.777778 1.000000
vt 0.722222 0.500000
vt 0.722222 1.000000
vt 0.666667 0.500000
vt 0.666667 1.000000
vt 0.611111 0.500000
vt 0.611111 1.000000
vt 0.555555 0.500000
vt 0.555555 1.000000
vt 0.500000 0.500000
vt 0.500000 1.000000
vt 0.444444 0.500000
vt 0.444444 1.000000
vt 0.388889 0.500000
vt 0.388889 1.000000
vt 0.333333 0.500000
vt 0.333333 1.000000
vt 0.277778 0.500000
vt 0.277778 1.000000
vt 0.222222 0.500000
vt 0.222222 1.000000
vt 0.166666 0.500000
vt 0.166666 1.000000
vt 0.111111 0.500000
vt 0.888889 1.000000
vt 0.111111 1.000000
vt 0.055555 0.500000
vt 0.055555 1.000000
vt -0.000000 0.500000
vt 0.388889 0.500000
vt 0.444444 0.500000
vt 0.111111 1.000000
vt 0.166666 1.000000
vt 0.111111 1.000000
vt 0.833333 0.500000
vt 0.888889 0.500000
vt 0.888889 0.500000
vt 0.388889 1.000000
vt 0.666667 0.500000
vt 0.166666 0.500000
vt 0.611111 1.000000
vt 0.333333 0.500000
vt 0.833333 1.000000
vt 0.333333 1.000000
vt 0.611111 0.500000
vt 0.111111 0.500000
vt 0.555555 1.000000
vt 0.055555 1.000000
vt 0.777778 1.000000
vt 0.277778 1.000000
vt 0.555555 0.500000
vt 0.055555 0.500000
vt 0.500000 1.000000
vt -0.000000 1.000000
vt -0.000000 1.000000
vt 0.777778 0.500000
vt 0.277778 0.500000
vt 0.944444 0.500000
vt 1.000000 0.500000
vt 0.722222 1.000000
vt 0.222222 1.000000
vt 0.944444 1.000000
vt 0.500000 0.500000
vt 0.444444 1.000000
vt 0.722222 0.500000
vt 0.222222 0.500000
vt 0.666667 1.000000
vt 0.166666 1.000000
vt 0.095731 0.433851
vt 0.332085 0.024474
vt 0.486354 0.291676
vt 0.957846 0.370000
vt 0.595731 0.066149
vt 0.542154 0.370000
vt 0.444444 0.500000
vt 0.500000 0.500000
vt 0.833333 1.000000
vt 0.111111 0.500000
vt 0.444444 1.000000
vt 0.833333 0.500000
vt 0.055555 1.000000
vt 0.777778 1.000000
vt -0.000000 0.500000
vt 0.055555 0.500000
vt 0.388889 1.000000
vt 0.777778 0.500000
vt -0.000000 1.000000
vt 0.388889 0.500000
vt 0.722222 1.000000
vt 0.333333 1.000000
vt 0.666667 0.500000
vt 0.722222 0.500000
vt 0.333333 0.500000
vt 0.666667 1.000000
vt 0.277778 1.000000
vt 0.611111 0.500000
vt 0.277778 0.500000
vt 0.611111 1.000000
vt 1.000000 0.500000
vt 0.222222 1.000000
vt 1.000000 1.000000
vt 0.944444 1.000000
vt 0.222222 0.500000
vt 0.555555 1.000000
vt 0.944444 0.500000
vt 0.555555 0.500000
vt 0.888889 1.000000
vt 0.166666 0.500000
vt 0.500000 1.000000
vt 1.000000 1.000000
vt 0.404269 0.433851
vt 0.332085 0.475526
vt 0.250000 0.490000
vt 0.167915 0.475526
vt 0.042154 0.370000
vt 0.013646 0.291676
vt 0.013646 0.208324
vt 0.042154 0.130000
vt 0.095731 0.066149
vt 0.167915 0.024474
vt 0.250000 0.010000
vt 0.404269 0.066149
vt 0.457846 0.130000
vt 0.486354 0.208324
vt 0.457846 0.370000
vt 0.667915 0.475526
vt 0.750000 0.490000
vt 0.832085 0.475526
vt 0.904269 0.433851
vt 0.986354 0.291676
vt 0.986354 0.208324
vt 0.957846 0.130000
vt 0.904269 0.066149
vt 0.832085 0.024474
vt 0.750000 0.010000
vt 0.667915 0.024474
vt 0.542154 0.130000
vt 0.513646 0.208324
vt 0.513646 0.291676
vt 0.595731 0.433851
vt -0.000000 0.500000
vn 0.0000 0.2486 -0.9686
vn 0.3313 -0.2486 -0.9102
vn -0.0000 -0.2486 -0.9686
vn 0.3313 0.2486 -0.9102
vn 0.6226 -0.2486 -0.7420
vn 0.6226 0.2486 -0.7420
vn 0.8388 -0.2486 -0.4843
vn 0.8388 0.2486 -0.4843
vn 0.9539 -0.2486 -0.1682
vn 0.9539 0.2486 -0.1682
vn 0.9539 -0.2486 0.1682
vn 0.9539 0.2486 0.1682
vn 0.8388 -0.2486 0.4843
vn 0.8388 0.2486 0.4843
vn 0.6226 -0.2486 0.7420
vn 0.6226 0.2486 0.7420
vn 0.3313 -0.2486 0.9102
vn 0.3313 0.2486 0.9102
vn 0.0000 -0.2486 0.9686
vn -0.0000 0.2486 0.9686
vn -0.3313 -0.2486 0.9102
vn -0.3313 0.2486 0.9102
vn -0.6226 -0.2486 0.7420
vn -0.6226 0.2486 0.7420
vn -0.8388 -0.2486 0.4843
vn -0.8388 0.2486 0.4843
vn -0.9539 -0.2486 0.1682
vn -0.9539 0.2486 0.1682
vn -0.9539 -0.2486 -0.1682
vn -0.9539 0.2486 -0.1682
vn -0.8388 -0.2486 -0.4843
vn -0.8388 0.2486 -0.4843
vn -0.6226 -0.2486 -0.7420
vn 0.5590 0.4938 -0.6661
vn -0.6226 0.2486 -0.7420
vn -0.3313 -0.2486 -0.9102
vn -0.3313 0.2486 -0.9102
vn -0.4746 -0.6745 0.5656
vn -0.2525 -0.6745 0.6938
vn -0.2502 0.9211 -0.2982
vn -0.1902 0.9756 -0.1098
vn -0.1411 0.9756 -0.1682
vn 0.6394 -0.6745 -0.3691
vn 0.3475 -0.8412 -0.4142
vn 0.4746 -0.6745 -0.5656
vn -0.5590 0.4938 0.6661
vn 0.6394 -0.6745 0.3691
vn -0.6394 -0.6745 -0.3691
vn 0.5590 0.4938 0.6661
vn -0.5590 0.4938 -0.6661
vn -0.6394 -0.6745 0.3691
vn 0.7531 0.4938 -0.4348
vn -0.7531 0.4938 0.4348
vn 0.4746 -0.6745 0.5656
vn -0.4746 -0.6745 -0.5656
vn 0.2974 0.4938 0.8172
vn -0.2974 0.4938 -0.8172
vn 0.8564 0.4938 -0.1510
vn -0.8564 0.4938 0.1510
vn 0.2525 -0.6745 0.6938
vn -0.2525 -0.6745 -0.6938
vn -0.0000 0.4938 0.8696
vn -0.0000 0.4938 -0.8696
vn 0.7271 -0.6745 -0.1282
vn -0.7271 -0.6745 0.1282
vn 0.2525 -0.6745 -0.6938
vn -0.0000 -0.6745 -0.7383
vn 0.8564 0.4938 0.1510
vn -0.8564 0.4938 -0.1510
vn 0.2974 0.4938 -0.8172
vn -0.0000 -0.6745 0.7383
vn -0.2974 0.4938 0.8171
vn 0.7271 -0.6745 0.1282
vn -0.7271 -0.6745 -0.1282
vn 0.7531 0.4938 0.4348
vn -0.7531 0.4938 -0.4348
vn 0.0751 0.9756 0.2063
vn 0.2162 0.9756 -0.0381
vn 0.0000 -1.0000 -0.0000
vn -0.1849 -0.8412 0.5081
vn -0.0000 -0.8412 0.5407
vn 0.2502 0.9211 -0.2982
vn 0.1902 0.9756 -0.1098
vn 0.3371 0.9211 -0.1946
vn -0.3475 -0.8412 -0.4142
vn 0.0000 0.9211 0.3892
vn -0.0751 0.9756 0.2063
vn -0.1331 0.9211 0.3658
vn 0.4682 -0.8412 -0.2703
vn -0.0751 0.9756 -0.2063
vn -0.1331 0.9211 -0.3658
vn 0.3833 0.9211 -0.0676
vn -0.1849 -0.8412 -0.5081
vn -0.1411 0.9756 0.1682
vn -0.2502 0.9211 0.2982
vn 0.5325 -0.8412 -0.0939
vn 0.0000 0.9211 -0.3892
vn 0.0000 0.9756 -0.2196
vn -0.3475 -0.8412 0.4142
vn 0.2162 0.9756 0.0381
vn 0.3833 0.9211 0.0676
vn -0.1902 0.9756 0.1098
vn -0.3371 0.9211 0.1946
vn 0.4682 -0.8412 0.2703
vn 0.5325 -0.8412 0.0939
vn -0.4682 -0.8412 0.2703
vn 0.1902 0.9756 0.1098
vn 0.3371 0.9211 0.1946
vn -0.3833 0.9211 0.0676
vn -0.2162 0.9756 0.0381
vn 0.3475 -0.8412 0.4142
vn -0.5325 -0.8412 0.0939
vn 0.2502 0.9211 0.2982
vn 0.1411 0.9756 0.1682
vn 0.0000 -0.8412 -0.5407
vn -0.3833 0.9211 -0.0676
vn -0.2162 0.9756 -0.0381
vn 0.1331 0.9211 -0.3658
vn 0.0751 0.9756 -0.2063
vn -0.5325 -0.8412 -0.0939
vn 0.1331 0.9211 0.3658
vn 0.1849 -0.8412 -0.5081
vn -0.3371 0.9211 -0.1946
vn 0.1849 -0.8412 0.5081
vn 0.1411 0.9756 -0.1682
vn -0.4682 -0.8412 -0.2703
vn 0.0000 0.9756 0.2196
s 1
f 2/1/1 3/2/2 1/3/3
f 4/4/4 5/5/5 3/2/2
f 6/6/6 7/7/7 5/5/5
f 8/8/8 9/9/9 7/7/7
f 10/10/10 11/11/11 9/9/9
f 12/12/12 13/13/13 11/11/11
f 14/14/14 15/15/15 13/13/13
f 16/16/16 17/17/17 15/15/15
f 18/18/18 19/19/19 17/17/17
f 20/20/20 21/21/21 19/19/19
f 22/22/22 23/23/23 21/21/21
f 24/24/24 25/25/25 23/23/23
f 26/26/26 27/27/27 25/25/25
f 28/28/28 29/29/29 27/27/27
f 30/30/30 31/31/31 29/29/29
f 32/32/32 33/33/33 31/31/31
f 4/4/4 42/34/34 6/6/6
f 34/35/35 35/36/36 33/33/33
f 36/37/37 1/38/3 35/36/36
f 21/21/21 59/39/38 57/40/39
f 70/41/40 104/42/41 106/43/42
f 43/44/43 77/45/44 41/46/45
f 22/22/22 60/47/46 24/24/24
f 15/15/15 49/48/47 13/13/13
f 33/33/33 67/49/48 31/31/31
f 14/14/14 52/50/49 16/16/16
f 32/32/32 70/41/50 34/35/35
f 5/5/5 43/44/43 41/46/45
f 23/23/23 61/51/51 59/39/38
f 6/6/6 44/52/52 8/8/8
f 24/24/24 62/53/53 26/26/26
f 17/17/17 51/54/54 15/15/15
f 35/36/36 69/55/55 33/33/33
f 16/16/16 54/56/56 18/18/18
f 34/35/35 72/57/57 36/37/37
f 9/9/9 43/44/43 7/7/7
f 27/27/27 61/51/51 25/25/25
f 10/10/10 44/52/52 46/58/58
f 28/28/28 62/53/53 64/59/59
f 19/19/19 53/60/60 17/17/17
f 1/38/3 71/61/61 35/36/36
f 20/20/20 54/56/56 56/62/62
f 2/63/1 72/57/57 40/64/63
f 11/11/11 45/65/64 9/9/9
f 29/29/29 63/66/65 27/27/27
f 1/3/3 38/67/66 37/68/67
f 10/10/10 48/69/68 12/12/12
f 28/28/28 66/70/69 30/30/30
f 2/1/1 39/71/70 4/4/4
f 21/21/21 55/72/71 19/19/19
f 20/20/20 58/73/72 22/22/22
f 13/13/13 47/74/73 11/11/11
f 31/31/31 65/75/74 29/29/29
f 12/12/12 50/76/75 14/14/14
f 30/30/30 68/77/76 32/32/32
f 3/2/2 41/46/45 38/67/66
f 106/78/42 90/79/77 82/80/78
f 79/81/79 95/82/79 103/83/79
f 55/72/71 93/84/80 91/85/81
f 42/34/82 80/86/83 44/52/84
f 71/61/61 105/87/85 69/55/55
f 56/62/86 94/88/87 58/73/88
f 45/65/64 79/89/89 43/44/43
f 70/41/40 108/90/90 72/57/91
f 59/39/38 93/84/80 57/40/39
f 44/52/84 82/91/78 46/58/92
f 37/92/67 107/93/93 71/61/61
f 58/73/88 96/94/94 60/47/95
f 47/74/73 81/95/96 45/65/64
f 40/64/97 108/90/90 76/96/98
f 61/51/51 95/97/99 59/39/38
f 46/58/92 84/98/100 48/69/101
f 60/47/95 98/99/102 62/53/103
f 47/74/73 85/100/104 83/101/105
f 63/66/65 97/102/106 61/51/51
f 48/69/101 86/103/107 50/76/108
f 64/59/109 98/99/102 100/104/110
f 49/48/47 87/105/111 85/100/104
f 65/75/74 99/106/112 63/66/65
f 52/50/113 86/103/107 88/107/114
f 38/67/66 73/108/115 37/68/67
f 66/70/116 100/104/110 102/109/117
f 53/60/60 87/105/111 51/54/54
f 39/71/118 76/110/98 75/111/119
f 67/49/48 101/112/120 65/75/74
f 52/50/113 90/113/77 54/56/121
f 41/46/45 74/114/122 38/67/66
f 66/70/116 104/42/41 68/77/123
f 55/72/71 89/115/124 53/60/60
f 39/71/118 78/116/125 42/34/82
f 67/49/48 105/87/85 103/117/126
f 54/56/121 92/118/127 56/62/86
f 2/1/1 4/4/4 3/2/2
f 4/4/4 6/6/6 5/5/5
f 6/6/6 8/8/8 7/7/7
f 8/8/8 10/10/10 9/9/9
f 10/10/10 12/12/12 11/11/11
f 12/12/12 14/14/14 13/13/13
f 14/14/14 16/16/16 15/15/15
f 16/16/16 18/18/18 17/17/17
f 18/18/18 20/20/20 19/19/19
f 20/20/20 22/22/22 21/21/21
f 22/22/22 24/24/24 23/23/23
f 24/24/24 26/26/26 25/25/25
f 26/26/26 28/28/28 27/27/27
f 28/28/28 30/30/30 29/29/29
f 30/30/30 32/32/32 31/31/31
f 32/32/32 34/35/35 33/33/33
f 4/4/4 39/71/70 42/34/34
f 34/35/35 36/37/37 35/36/36
f 36/37/37 2/63/1 1/38/3
f 21/21/21 23/23/23 59/39/38
f 70/41/40 68/77/123 104/42/41
f 43/44/43 79/89/89 77/45/44
f 22/22/22 58/73/72 60/47/46
f 15/15/15 51/54/54 49/48/47
f 33/33/33 69/55/55 67/49/48
f 14/14/14 50/76/75 52/50/49
f 32/32/32 68/77/76 70/41/50
f 5/5/5 7/7/7 43/44/43
f 23/23/23 25/25/25 61/51/51
f 6/6/6 42/34/34 44/52/52
f 24/24/24 60/47/46 62/53/53
f 17/17/17 53/60/60 51/54/54
f 35/36/36 71/61/61 69/55/55
f 16/16/16 52/50/49 54/56/56
f 34/35/35 70/41/50 72/57/57
f 9/9/9 45/65/64 43/44/43
f 27/27/27 63/66/65 61/51/51
f 10/10/10 8/8/8 44/52/52
f 28/28/28 26/26/26 62/53/53
f 19/19/19 55/72/71 53/60/60
f 1/38/3 37/92/67 71/61/61
f 20/20/20 18/18/18 54/56/56
f 2/63/1 36/37/37 72/57/57
f 11/11/11 47/74/73 45/65/64
f 29/29/29 65/75/74 63/66/65
f 1/3/3 3/2/2 38/67/66
f 10/10/10 46/58/58 48/69/68
f 28/28/28 64/59/59 66/70/69
f 2/1/1 40/119/63 39/71/70
f 21/21/21 57/40/39 55/72/71
f 20/20/20 56/62/62 58/73/72
f 13/13/13 49/48/47 47/74/73
f 31/31/31 67/49/48 65/75/74
f 12/12/12 48/69/68 50/76/75
f 30/30/30 66/70/69 68/77/76
f 3/2/2 5/5/5 41/46/45
f 78/120/125 75/121/119 76/122/98
f 76/122/98 108/123/90 78/120/125
f 108/123/90 106/78/42 78/120/125
f 106/78/42 104/124/41 102/125/117
f 102/125/117 100/126/110 106/78/42
f 100/126/110 98/127/102 106/78/42
f 98/127/102 96/128/94 94/129/87
f 94/129/87 92/130/127 90/79/77
f 90/79/77 88/131/114 82/80/78
f 88/131/114 86/132/107 82/80/78
f 86/132/107 84/133/100 82/80/78
f 82/80/78 80/134/83 78/120/125
f 98/127/102 94/129/87 90/79/77
f 82/80/78 78/120/125 106/78/42
f 106/78/42 98/127/102 90/79/77
f 107/135/79 73/136/79 79/81/79
f 73/136/79 74/137/79 79/81/79
f 74/137/79 77/138/79 79/81/79
f 79/81/79 81/139/79 83/140/79
f 83/140/79 85/141/79 87/142/79
f 87/142/79 89/143/79 91/144/79
f 91/144/79 93/145/79 87/142/79
f 93/145/79 95/82/79 87/142/79
f 95/82/79 97/146/79 99/147/79
f 99/147/79 101/148/79 103/83/79
f 103/83/79 105/149/79 107/135/79
f 79/81/79 83/140/79 87/142/79
f 95/82/79 99/147/79 103/83/79
f 103/83/79 107/135/79 79/81/79
f 79/81/79 87/142/79 95/82/79
f 55/72/71 57/40/39 93/84/80
f 42/34/82 78/116/125 80/86/83
f 71/61/61 107/93/93 105/87/85
f 56/62/86 92/118/127 94/88/87
f 45/65/64 81/95/96 79/89/89
f 70/41/40 106/43/42 108/90/90
f 59/39/38 95/97/99 93/84/80
f 44/52/84 80/86/83 82/91/78
f 37/92/67 73/150/115 107/93/93
f 58/73/88 94/88/87 96/94/94
f 47/74/73 83/101/105 81/95/96
f 40/64/97 72/57/91 108/90/90
f 61/51/51 97/102/106 95/97/99
f 46/58/92 82/91/78 84/98/100
f 60/47/95 96/94/94 98/99/102
f 47/74/73 49/48/47 85/100/104
f 63/66/65 99/106/112 97/102/106
f 48/69/101 84/98/100 86/103/107
f 64/59/109 62/53/103 98/99/102
f 49/48/47 51/54/54 87/105/111
f 65/75/74 101/112/120 99/106/112
f 52/50/113 50/76/108 86/103/107
f 38/67/66 74/114/122 73/108/115
f 66/70/116 64/59/109 100/104/110
f 53/60/60 89/115/124 87/105/111
f 39/71/118 40/119/97 76/110/98
f 67/49/48 103/117/126 101/112/120
f 52/50/113 88/107/114 90/113/77
f 41/46/45 77/45/44 74/114/122
f 66/70/116 102/109/117 104/42/41
f 55/72/71 91/85/81 89/115/124
f 39/71/118 75/111/119 78/116/125
f 67/49/48 69/55/55 105/87/85
f 54/56/121 90/113/77 92/118/127
