# Blender v3.4.1 OBJ File: 'astrolabe.blend'
# www.blender.org
o Health_Unit_Cylinder.023
v 0.000000 -0.202953 -0.204890
v 0.000000 0.206828 -0.204890
v 0.070077 -0.202953 -0.192534
v 0.070077 0.206828 -0.192534
v 0.131701 -0.202953 -0.156955
v 0.131701 0.206828 -0.156955
v 0.177440 -0.202953 -0.102445
v 0.177440 0.206828 -0.102445
v 0.201777 -0.202953 -0.035579
v 0.201777 0.206828 -0.035579
v 0.201777 -0.202953 0.035579
v 0.201777 0.206828 0.035579
v 0.177440 -0.202953 0.102445
v 0.177440 0.206828 0.102445
v 0.131701 -0.202953 0.156955
v 0.131701 0.206828 0.156955
v 0.070077 -0.202953 0.192534
v 0.070077 0.206828 0.192534
v 0.000000 -0.202953 0.204890
v 0.000000 0.206828 0.204890
v -0.070077 -0.202953 0.192534
v -0.070077 0.206828 0.192534
v -0.131701 -0.202953 0.156955
v -0.131701 0.206828 0.156955
v -0.177440 -0.202953 0.102445
v -0.177440 0.206828 0.102445
v -0.201777 -0.202953 0.035579
v -0.201777 0.206828 0.035579
v -0.201777 -0.202953 -0.035579
v -0.201777 0.206828 -0.035579
v -0.177440 -0.202953 -0.102445
v -0.177440 0.206828 -0.102445
v -0.131701 -0.202953 -0.156955
v -0.131701 0.206828 -0.156955
v -0.070077 -0.202953 -0.192534
v -0.070077 0.206828 -0.192534
v 0.000000 -0.235785 -0.186247
v 0.063700 -0.235785 -0.175015
v 0.063700 0.239660 -0.175015
v 0.000000 0.239660 -0.186247
v 0.119718 -0.235785 -0.142674
v 0.119718 0.239660 -0.142674
v 0.161295 -0.235785 -0.093124
v 0.161295 0.239660 -0.093124
v 0.183418 -0.235785 -0.032342
v 0.183418 0.239660 -0.032342
v 0.183418 -0.235785 0.032342
v 0.183418 0.239660 0.032342
v 0.161295 -0.235785 0.093124
v 0.161295 0.239660 0.093124
v 0.119718 -0.235785 0.142674
v 0.119718 0.239660 0.142674
v 0.063700 -0.235785 0.175015
v 0.063700 0.239660 0.175015
v 0.000000 -0.235785 0.186247
v 0.000000 0.239660 0.186247
v -0.063700 -0.235785 0.175015
v -0.063700 0.239660 0.175015
v -0.119718 -0.235785 0.142674
v -0.119718 0.239660 0.142674
v -0.161295 -0.235785 0.093124
v -0.161295 0.239660 0.093124
v -0.183418 -0.235785 0.032342
v -0.183418 0.239660 0.032342
v -0.183418 -0.235785 -0.032342
v -0.183418 0.239660 -0.032342
v -0.161295 -0.235785 -0.093124
v -0.161295 0.239660 -0.093124
v -0.119718 -0.235785 -0.142674
v -0.119718 0.239660 -0.142674
v -0.063700 -0.235785 -0.175015
v -0.063700 0.239660 -0.175015
v 0.000000 -0.258929 -0.128032
v 0.043789 -0.258929 -0.120311
v 0.043789 0.251179 -0.120311
v 0.000000 0.251179 -0.128032
v 0.082297 -0.258929 -0.098078
v 0.082297 0.251179 -0.098078
v 0.110879 -0.258929 -0.064016
v 0.110879 0.251179 -0.064016
v 0.126087 -0.258929 -0.022232
v 0.126087 0.251179 -0.022232
v 0.126087 -0.258929 0.022232
v 0.126087 0.251179 0.022232
v 0.110879 -0.258929 0.064016
v 0.110879 0.251179 0.064016
v 0.082297 -0.258929 0.098078
v 0.082297 0.251179 0.098078
v 0.043789 -0.258929 0.120311
v 0.043789 0.251179 0.120311
v 0.000000 -0.258929 0.128032
v 0.000000 0.251179 0.128032
v -0.043789 -0.258929 0.120311
v -0.043789 0.251179 0.120311
v -0.082297 -0.258929 0.098078
v -0.082297 0.251179 0.098078
v -0.110879 -0.258929 0.064016
v -0.110879 0.251179 0.064016
v -0.126087 -0.258929 0.022232
v -0.126087 0.251179 0.022232
v -0.126087 -0.258929 -0.022232
v -0.126087 0.251179 -0.022232
v -0.110879 -0.258929 -0.064016
v -0.110879 0.251179 -0.064016
v -0.082297 -0.258929 -0.098078
v -0.082297 0.251179 -0.098078
v -0.043789 -0.258929 -0.120311
v -0.043789 0.251179 -0.120311
vt 1.000000 1.000000
vt 0.944444 0.500000
vt 1.000000 0.500000
vt 0.944444 1.000000
vt 0.888889 0.500000
vt 0.888889 1.000000
vt 0.833333 0.500000
vt 0.833333 1.000000
vt 0.777778 0.500000
vt 0.777778 1.000000
vt 0.722222 0.500000
vt 0.722222 1.000000
vt 0.666667 0.500000
vt 0.666667 1.000000
vt 0.611111 0.500000
vt 0.611111 1.000000
vt 0.555555 0.500000
vt 0.555555 1.000000
vt 0.500000 0.500000
vt 0.500000 1.000000
vt 0.444444 0.500000
vt 0.444444 1.000000
vt 0.388889 0.500000
vt 0.388889 1.000000
vt 0.333333 0.500000
vt 0.333333 1.000000
vt 0.277778 0.500000
vt 0.277778 1.000000
vt 0.222222 0.500000
vt 0.222222 1.000000
vt 0.166666 0.500000
vt 0.166666 1.000000
vt 0.111111 0.500000
vt 0.888889 1.000000
vt 0.111111 1.000000
vt 0.055555 0.500000
vt 0.055555 1.000000
vt -0.000000 0.500000
vt 0.388889 0.500000
vt 0.444444 0.500000
vt 0.166666 1.000000
vt 0.111111 1.000000
vt 0.111111 1.000000
vt 0.833333 0.500000
vt 0.888889 0.500000
vt 0.888889 0.500000
vt 0.388889 1.000000
vt 0.666667 0.500000
vt 0.166666 0.500000
vt 0.611111 1.000000
vt 0.333333 0.500000
vt 0.833333 1.000000
vt 0.333333 1.000000
vt 0.611111 0.500000
vt 0.111111 0.500000
vt 0.555555 1.000000
vt 0.055555 1.000000
vt 0.777778 1.000000
vt 0.277778 1.000000
vt 0.555555 0.500000
vt 0.055555 0.500000
vt 0.500000 1.000000
vt -0.000000 1.000000
vt -0.000000 1.000000
vt 0.777778 0.500000
vt 0.277778 0.500000
vt 0.944444 0.500000
vt 1.000000 0.500000
vt 0.722222 1.000000
vt 0.222222 1.000000
vt 0.944444 1.000000
vt 0.500000 0.500000
vt 0.444444 1.000000
vt 0.722222 0.500000
vt 0.222222 0.500000
vt 0.666667 1.000000
vt 0.457846 0.130000
vt 0.486354 0.291676
vt 0.095731 0.433851
vt 0.542154 0.370000
vt 0.667915 0.475526
vt 0.957846 0.370000
vt 0.500000 0.500000
vt 0.888889 1.000000
vt 0.833333 1.000000
vt 0.111111 0.500000
vt 0.444444 1.000000
vt 0.777778 0.500000
vt 0.833333 0.500000
vt 0.055555 1.000000
vt 0.444444 0.500000
vt 0.777778 1.000000
vt -0.000000 0.500000
vt 0.055555 0.500000
vt 0.388889 1.000000
vt -0.000000 1.000000
vt 0.388889 0.500000
vt 0.722222 1.000000
vt 0.333333 1.000000
vt 0.666667 0.500000
vt 0.722222 0.500000
vt 0.333333 0.500000
vt 0.666667 1.000000
vt 0.277778 1.000000
vt 0.611111 0.500000
vt 0.277778 0.500000
vt 0.611111 1.000000
vt 0.944444 0.500000
vt 1.000000 0.500000
vt 0.222222 1.000000
vt 0.555555 0.500000
vt 1.000000 1.000000
vt 0.944444 1.000000
vt 0.222222 0.500000
vt 0.555555 1.000000
vt 0.166666 1.000000
vt 0.166666 0.500000
vt 0.500000 1.000000
vt 0.404269 0.433851
vt 0.332085 0.475526
vt 0.250000 0.490000
vt 0.167915 0.475526
vt 0.042154 0.370000
vt 0.013646 0.291676
vt 0.013646 0.208324
vt 0.042154 0.130000
vt 0.095731 0.066149
vt 0.167915 0.024474
vt 0.250000 0.010000
vt 0.332085 0.024474
vt 0.404269 0.066149
vt 0.486354 0.208324
vt 0.457846 0.370000
vt 0.750000 0.490000
vt 0.832085 0.475526
vt 0.904269 0.433851
vt 0.986354 0.291676
vt 0.986354 0.208324
vt 0.957846 0.130000
vt 0.904269 0.066149
vt 0.832085 0.024474
vt 0.750000 0.010000
vt 0.667915 0.024474
vt 0.595731 0.066149
vt 0.542154 0.130000
vt 0.513646 0.208324
vt 0.513646 0.291676
vt 0.595731 0.433851
vt -0.000000 0.500000
vt 1.000000 1.000000
vn 0.0000 0.2486 -0.9686
vn 0.3313 -0.2486 -0.9102
vn -0.0000 -0.2486 -0.9686
vn 0.3313 0.2486 -0.9102
vn 0.6226 -0.2486 -0.7420
vn 0.6226 0.2486 -0.7420
vn 0.8388 -0.2486 -0.4843
vn 0.8388 0.2486 -0.4843
vn 0.9539 -0.2486 -0.1682
vn 0.9539 0.2486 -0.1682
vn 0.9539 -0.2486 0.1682
vn 0.9539 0.2486 0.1682
vn 0.8388 -0.2486 0.4843
vn 0.8388 0.2486 0.4843
vn 0.6226 -0.2486 0.7420
vn 0.6226 0.2486 0.7420
vn 0.3313 -0.2486 0.9102
vn 0.3313 0.2486 0.9102
vn 0.0000 -0.2486 0.9686
vn -0.0000 0.2486 0.9686
vn -0.3313 -0.2486 0.9102
vn -0.3313 0.2486 0.9102
vn -0.6226 -0.2486 0.7420
vn -0.6226 0.2486 0.7420
vn -0.8388 -0.2486 0.4843
vn -0.8388 0.2486 0.4843
vn -0.9539 -0.2486 0.1682
vn -0.9539 0.2486 0.1682
vn -0.9539 -0.2486 -0.1682
vn -0.9539 0.2486 -0.1682
vn -0.8388 -0.2486 -0.4843
vn -0.8388 0.2486 -0.4843
vn -0.6226 -0.2486 -0.7420
vn 0.5590 0.4938 -0.6661
vn -0.6226 0.2486 -0.7420
vn -0.3313 -0.2486 -0.9102
vn -0.3313 0.2486 -0.9102
vn -0.5590 -0.4938 0.6661
vn -0.2974 -0.4938 0.8171
vn -0.1681 0.9810 -0.0971
vn -0.0696 0.9941 -0.0829
vn -0.1248 0.9810 -0.1487
vn 0.3199 -0.9293 -0.1847
vn 0.1337 -0.9781 -0.1594
vn 0.2375 -0.9293 -0.2830
vn -0.5590 0.4938 0.6661
vn 0.7531 -0.4938 0.4348
vn -0.7531 -0.4938 -0.4348
vn 0.5590 0.4938 0.6661
vn -0.5590 0.4938 -0.6661
vn 0.7531 -0.4938 -0.4348
vn 0.5590 -0.4938 -0.6661
vn -0.7531 -0.4938 0.4348
vn 0.7531 0.4938 -0.4348
vn -0.7531 0.4938 0.4348
vn 0.5590 -0.4938 0.6661
vn -0.5590 -0.4938 -0.6661
vn 0.2974 0.4938 0.8172
vn -0.2974 0.4938 -0.8172
vn 0.8564 0.4938 -0.1510
vn -0.8564 0.4938 0.1510
vn 0.2974 -0.4938 0.8171
vn -0.2974 -0.4938 -0.8171
vn -0.0000 0.4938 0.8696
vn -0.0000 0.4938 -0.8696
vn 0.8564 -0.4938 -0.1510
vn -0.8564 -0.4938 0.1510
vn 0.2974 -0.4938 -0.8171
vn -0.0000 -0.4938 -0.8696
vn 0.8564 0.4938 0.1510
vn -0.8564 0.4938 -0.1510
vn 0.2974 0.4938 -0.8172
vn -0.0000 -0.4938 0.8696
vn -0.2974 0.4938 0.8171
vn 0.8564 -0.4938 0.1510
vn -0.8564 -0.4938 -0.1510
vn 0.7531 0.4938 0.4348
vn -0.7531 0.4938 -0.4348
vn 0.0937 0.9941 0.0541
vn 0.1066 0.9941 -0.0188
vn -0.1802 -0.9781 -0.1040
vn -0.0712 -0.9781 -0.1955
vn 0.1802 -0.9781 -0.1040
vn -0.1264 -0.9293 0.3471
vn 0.0000 -0.9781 0.2081
vn 0.0000 -0.9293 0.3694
vn 0.1681 0.9810 -0.0971
vn 0.0696 0.9941 -0.0829
vn 0.0937 0.9941 -0.0541
vn -0.1264 -0.9293 -0.3471
vn -0.1337 -0.9781 -0.1594
vn -0.2375 -0.9293 -0.2830
vn 0.0000 0.9810 0.1941
vn -0.0370 0.9941 0.1017
vn -0.0664 0.9810 0.1824
vn 0.2049 -0.9781 -0.0361
vn -0.0664 0.9810 -0.1824
vn -0.0370 0.9941 -0.1017
vn -0.2375 -0.9293 0.2830
vn -0.0712 -0.9781 0.1955
vn 0.1912 0.9810 -0.0337
vn 0.0000 -0.9293 -0.3694
vn -0.0696 0.9941 0.0829
vn -0.1248 0.9810 0.1487
vn 0.3638 -0.9293 0.0642
vn 0.3638 -0.9293 -0.0642
vn 0.0000 0.9810 -0.1941
vn 0.0000 0.9941 -0.1082
vn -0.3199 -0.9293 0.1847
vn -0.1337 -0.9781 0.1594
vn 0.1066 0.9941 0.0188
vn 0.1912 0.9810 0.0337
vn -0.1681 0.9810 0.0971
vn -0.0937 0.9941 0.0541
vn 0.1802 -0.9781 0.1040
vn 0.2049 -0.9781 0.0361
vn -0.3638 -0.9293 0.0642
vn -0.1802 -0.9781 0.1040
vn 0.1681 0.9810 0.0971
vn -0.1066 0.9941 0.0188
vn -0.1912 0.9810 0.0337
vn 0.3199 -0.9293 0.1847
vn 0.1337 -0.9781 0.1594
vn -0.3638 -0.9293 -0.0642
vn -0.2049 -0.9781 0.0361
vn 0.0696 0.9941 0.0829
vn 0.1248 0.9810 0.1487
vn 0.0712 -0.9781 -0.1955
vn 0.0000 -0.9781 -0.2081
vn -0.1066 0.9941 -0.0188
vn -0.1912 0.9810 -0.0337
vn 0.2375 -0.9293 0.2830
vn 0.0712 -0.9781 0.1955
vn 0.0370 0.9941 -0.1017
vn 0.0664 0.9810 -0.1824
vn -0.3199 -0.9293 -0.1847
vn -0.2049 -0.9781 -0.0361
vn 0.0370 0.9941 0.1017
vn 0.0664 0.9810 0.1824
vn 0.1264 -0.9293 -0.3471
vn -0.0937 0.9941 -0.0541
vn 0.1264 -0.9293 0.3471
vn 0.1248 0.9810 -0.1487
vn -0.0000 0.9941 0.1082
s 1
f 2/1/1 3/2/2 1/3/3
f 4/4/4 5/5/5 3/2/2
f 6/6/6 7/7/7 5/5/5
f 8/8/8 9/9/9 7/7/7
f 10/10/10 11/11/11 9/9/9
f 12/12/12 13/13/13 11/11/11
f 14/14/14 15/15/15 13/13/13
f 16/16/16 17/17/17 15/15/15
f 18/18/18 19/19/19 17/17/17
f 20/20/20 21/21/21 19/19/19
f 22/22/22 23/23/23 21/21/21
f 24/24/24 25/25/25 23/23/23
f 26/26/26 27/27/27 25/25/25
f 28/28/28 29/29/29 27/27/27
f 30/30/30 31/31/31 29/29/29
f 32/32/32 33/33/33 31/31/31
f 4/4/4 42/34/34 6/6/6
f 34/35/35 35/36/36 33/33/33
f 36/37/37 1/38/3 35/36/36
f 21/21/21 59/39/38 57/40/39
f 68/41/40 106/42/41 70/43/42
f 43/44/43 77/45/44 41/46/45
f 22/22/22 60/47/46 24/24/24
f 15/15/15 49/48/47 13/13/13
f 33/33/33 67/49/48 31/31/31
f 14/14/14 52/50/49 16/16/16
f 32/32/32 70/43/50 34/35/35
f 5/5/5 43/44/51 41/46/52
f 23/23/23 61/51/53 59/39/38
f 6/6/6 44/52/54 8/8/8
f 24/24/24 62/53/55 26/26/26
f 17/17/17 51/54/56 15/15/15
f 35/36/36 69/55/57 33/33/33
f 16/16/16 54/56/58 18/18/18
f 34/35/35 72/57/59 36/37/37
f 9/9/9 43/44/51 7/7/7
f 27/27/27 61/51/53 25/25/25
f 10/10/10 44/52/54 46/58/60
f 28/28/28 62/53/55 64/59/61
f 19/19/19 53/60/62 17/17/17
f 1/38/3 71/61/63 35/36/36
f 20/20/20 54/56/58 56/62/64
f 2/63/1 72/57/59 40/64/65
f 11/11/11 45/65/66 9/9/9
f 29/29/29 63/66/67 27/27/27
f 1/3/3 38/67/68 37/68/69
f 10/10/10 48/69/70 12/12/12
f 28/28/28 66/70/71 30/30/30
f 2/1/1 39/71/72 4/4/4
f 21/21/21 55/72/73 19/19/19
f 20/20/20 58/73/74 22/22/22
f 13/13/13 47/74/75 11/11/11
f 31/31/31 65/75/76 29/29/29
f 12/12/12 50/76/77 14/14/14
f 30/30/30 68/41/78 32/32/32
f 3/2/2 41/46/52 38/67/68
f 86/77/79 82/78/80 106/79/41
f 103/80/81 107/81/82 79/82/83
f 57/40/84 91/83/85 55/72/86
f 44/52/87 78/84/88 80/85/89
f 71/61/90 105/86/91 69/55/92
f 56/62/93 94/87/94 58/73/95
f 43/44/43 81/88/96 79/89/83
f 72/57/97 106/42/41 108/90/98
f 59/39/99 93/91/100 57/40/84
f 44/52/87 82/92/80 46/58/101
f 37/93/102 107/94/82 71/61/90
f 58/73/95 96/95/103 60/47/104
f 47/74/105 81/88/96 45/65/106
f 40/64/107 108/90/98 76/96/108
f 61/51/109 95/97/110 59/39/99
f 46/58/101 84/98/111 48/69/112
f 62/53/113 96/95/103 98/99/114
f 47/74/105 85/100/115 83/101/116
f 63/66/117 97/102/118 61/51/109
f 48/69/112 86/103/79 50/76/119
f 62/53/113 100/104/120 64/59/121
f 49/48/122 87/105/123 85/100/115
f 65/75/124 99/106/125 63/66/117
f 50/76/119 88/107/126 52/50/127
f 37/68/102 74/108/128 73/109/129
f 64/59/121 102/110/130 66/70/131
f 51/54/132 89/111/133 87/105/123
f 40/112/107 75/113/134 39/71/135
f 67/49/136 101/114/137 65/75/124
f 52/50/127 90/115/138 54/56/139
f 38/67/140 77/45/44 74/108/128
f 68/41/40 102/110/130 104/116/141
f 53/60/142 91/83/85 89/111/133
f 39/71/135 78/84/88 42/34/143
f 67/49/136 105/86/91 103/117/81
f 54/56/139 92/118/144 56/62/93
f 2/1/1 4/4/4 3/2/2
f 4/4/4 6/6/6 5/5/5
f 6/6/6 8/8/8 7/7/7
f 8/8/8 10/10/10 9/9/9
f 10/10/10 12/12/12 11/11/11
f 12/12/12 14/14/14 13/13/13
f 14/14/14 16/16/16 15/15/15
f 16/16/16 18/18/18 17/17/17
f 18/18/18 20/20/20 19/19/19
f 20/20/20 22/22/22 21/21/21
f 22/22/22 24/24/24 23/23/23
f 24/24/24 26/26/26 25/25/25
f 26/26/26 28/28/28 27/27/27
f 28/28/28 30/30/30 29/29/29
f 30/30/30 32/32/32 31/31/31
f 32/32/32 34/35/35 33/33/33
f 4/4/4 39/71/72 42/34/34
f 34/35/35 36/37/37 35/36/36
f 36/37/37 2/63/1 1/38/3
f 21/21/21 23/23/23 59/39/38
f 68/41/40 104/116/141 106/42/41
f 43/44/43 79/89/83 77/45/44
f 22/22/22 58/73/74 60/47/46
f 15/15/15 51/54/56 49/48/47
f 33/33/33 69/55/57 67/49/48
f 14/14/14 50/76/77 52/50/49
f 32/32/32 68/41/78 70/43/50
f 5/5/5 7/7/7 43/44/51
f 23/23/23 25/25/25 61/51/53
f 6/6/6 42/34/34 44/52/54
f 24/24/24 60/47/46 62/53/55
f 17/17/17 53/60/62 51/54/56
f 35/36/36 71/61/63 69/55/57
f 16/16/16 52/50/49 54/56/58
f 34/35/35 70/43/50 72/57/59
f 9/9/9 45/65/66 43/44/51
f 27/27/27 63/66/67 61/51/53
f 10/10/10 8/8/8 44/52/54
f 28/28/28 26/26/26 62/53/55
f 19/19/19 55/72/73 53/60/62
f 1/38/3 37/93/69 71/61/63
f 20/20/20 18/18/18 54/56/58
f 2/63/1 36/37/37 72/57/59
f 11/11/11 47/74/75 45/65/66
f 29/29/29 65/75/76 63/66/67
f 1/3/3 3/2/2 38/67/68
f 10/10/10 46/58/60 48/69/70
f 28/28/28 64/59/61 66/70/71
f 2/1/1 40/112/65 39/71/72
f 21/21/21 57/40/39 55/72/73
f 20/20/20 56/62/64 58/73/74
f 13/13/13 49/48/47 47/74/75
f 31/31/31 67/49/48 65/75/76
f 12/12/12 48/69/70 50/76/77
f 30/30/30 66/70/71 68/41/78
f 3/2/2 5/5/5 41/46/52
f 78/119/88 75/120/134 76/121/108
f 76/121/108 108/122/98 106/79/41
f 106/79/41 104/123/141 102/124/130
f 102/124/130 100/125/120 98/126/114
f 98/126/114 96/127/103 94/128/94
f 94/128/94 92/129/144 90/130/138
f 90/130/138 88/131/126 86/77/79
f 86/77/79 84/132/111 82/78/80
f 82/78/80 80/133/89 78/119/88
f 78/119/88 76/121/108 82/78/80
f 76/121/108 106/79/41 82/78/80
f 106/79/41 102/124/130 90/130/138
f 102/124/130 98/126/114 90/130/138
f 98/126/114 94/128/94 90/130/138
f 90/130/138 86/77/79 106/79/41
f 107/81/82 73/134/129 79/82/83
f 73/134/129 74/135/128 79/82/83
f 74/135/128 77/136/44 79/82/83
f 79/82/83 81/137/96 83/138/116
f 83/138/116 85/139/115 87/140/123
f 87/140/123 89/141/133 91/142/85
f 91/142/85 93/143/100 95/144/110
f 95/144/110 97/145/118 99/146/125
f 99/146/125 101/147/137 103/80/81
f 103/80/81 105/148/91 107/81/82
f 79/82/83 83/138/116 87/140/123
f 87/140/123 91/142/85 79/82/83
f 91/142/85 95/144/110 79/82/83
f 95/144/110 99/146/125 79/82/83
f 99/146/125 103/80/81 79/82/83
f 57/40/84 93/91/100 91/83/85
f 44/52/87 42/34/143 78/84/88
f 71/61/90 107/94/82 105/86/91
f 56/62/93 92/118/144 94/87/94
f 43/44/43 45/65/106 81/88/96
f 72/57/97 70/43/42 106/42/41
f 59/39/99 95/97/110 93/91/100
f 44/52/87 80/85/89 82/92/80
f 37/93/102 73/149/129 107/94/82
f 58/73/95 94/87/94 96/95/103
f 47/74/105 83/101/116 81/88/96
f 40/64/107 72/57/97 108/90/98
f 61/51/109 97/102/118 95/97/110
f 46/58/101 82/92/80 84/98/111
f 62/53/113 60/47/104 96/95/103
f 47/74/105 49/48/122 85/100/115
f 63/66/117 99/106/125 97/102/118
f 48/69/112 84/98/111 86/103/79
f 62/53/113 98/99/114 100/104/120
f 49/48/122 51/54/132 87/105/123
f 65/75/124 101/114/137 99/106/125
f 50/76/119 86/103/79 88/107/126
f 37/68/102 38/67/140 74/108/128
f 64/59/121 100/104/120 102/110/130
f 51/54/132 53/60/142 89/111/133
f 40/112/107 76/150/108 75/113/134
f 67/49/136 103/117/81 101/114/137
f 52/50/127 88/107/126 90/115/138
f 38/67/140 41/46/45 77/45/44
f 68/41/40 66/70/131 102/110/130
f 53/60/142 55/72/86 91/83/85
f 39/71/135 75/113/134 78/84/88
f 67/49/136 69/55/92 105/86/91
f 54/56/139 90/115/138 92/118/144
