# Blender v3.4.1 OBJ File: 'decoratives_and_entities.blend'
# www.blender.org
o River_Leaf_Plane.020
v 0.129400 -0.038797 0.494766
v -0.266498 -0.022899 0.590689
v 0.129400 -0.038797 -0.494766
v -0.266498 -0.022899 -0.590689
v -0.663924 0.048863 0.549070
v -0.663924 0.048863 -0.549070
v -0.877909 0.051227 0.389362
v -0.877909 0.051227 -0.389362
v -0.969761 0.040481 0.215593
v -0.969761 0.040481 -0.215593
v 0.470192 -0.022899 0.310428
v 0.470192 -0.022899 -0.310428
v 0.764901 -0.031615 0.137133
v 0.764901 -0.031615 -0.137133
v 0.935483 -0.029319 0.053726
v 0.935483 -0.029319 -0.053726
v 1.066426 -0.003953 0.010782
v 1.066426 -0.003953 -0.010782
v 0.129400 -0.232150 0.000000
v -0.266498 -0.216252 0.000000
v -0.663924 -0.174790 0.000000
v -0.877909 -0.110795 0.000000
v -1.026451 -0.013083 0.000000
v 0.470192 -0.184921 0.000000
v 0.764901 -0.149367 0.000000
v 0.935483 -0.080121 0.000000
v 1.066426 -0.009517 0.000000
vt 0.000000 1.000000
vt 1.000000 0.500000
vt 0.000000 0.500000
vt 1.000000 0.500000
vt 1.000000 0.000000
vt 1.000000 0.000000
vt 1.000000 0.000000
vt 1.000000 0.500000
vt 1.000000 0.000000
vt 0.000000 1.000000
vt 0.000000 0.500000
vt 0.000000 1.000000
vt 0.000000 0.500000
vt 0.000000 1.000000
vt 0.000000 0.500000
vt 0.000000 0.500000
vt 0.000000 0.000000
vt 0.000000 0.000000
vt 0.000000 0.000000
vt 0.000000 0.000000
vt 1.000000 1.000000
vt 1.000000 1.000000
vt 1.000000 1.000000
vt 1.000000 1.000000
vt 1.000000 0.500000
vt 0.000000 1.000000
vt 0.000000 0.000000
vn -0.0969 0.9349 0.3413
vn 0.0522 0.9437 0.3267
vn -0.0698 0.9191 0.3879
vn 0.2011 0.9149 -0.3500
vn 0.0704 0.9406 -0.3321
vn 0.0522 0.9437 -0.3267
vn 0.3321 0.8726 -0.3582
vn 0.2323 0.9008 -0.3669
vn 0.3836 0.8522 -0.3559
vn 0.5243 0.7858 -0.3280
vn -0.2090 0.8859 0.4142
vn -0.1548 0.8578 0.4902
vn -0.2251 0.7837 0.5789
vn -0.1874 0.7418 0.6439
vn -0.3259 0.6998 0.6356
vn -0.3258 0.8039 0.4977
vn -0.3162 0.6893 0.6518
vn -0.3259 0.6998 -0.6356
vn -0.3258 0.8039 -0.4977
vn -0.3162 0.6893 -0.6518
vn -0.1874 0.7418 -0.6439
vn -0.2251 0.7837 -0.5789
vn -0.1548 0.8578 -0.4902
vn -0.2090 0.8859 -0.4142
vn -0.0698 0.9191 -0.3879
vn -0.0969 0.9349 -0.3413
vn 0.5243 0.7858 0.3280
vn 0.3836 0.8522 0.3559
vn 0.3321 0.8726 0.3582
vn 0.2011 0.9149 0.3500
vn 0.2323 0.9008 0.3669
vn 0.0704 0.9406 0.3321
vn 0.5184 0.7880 -0.3321
vn -0.3070 0.8457 0.4365
vn -0.3070 0.8457 -0.4365
vn 0.5184 0.7880 0.3321
s 1
f 3/1/1 20/2/2 19/3/3
f 21/4/4 2/5/5 20/2/6
f 21/4/4 7/6/7 5/7/8
f 22/8/9 9/9/10 7/6/7
f 19/3/3 12/10/11 3/1/1
f 24/11/12 14/12/13 12/10/11
f 25/13/14 16/14/15 14/12/13
f 27/15/16 16/14/15 26/16/17
f 15/17/18 27/15/19 26/16/20
f 15/17/18 25/13/21 13/18/22
f 13/18/22 24/11/23 11/19/24
f 11/19/24 19/3/25 1/20/26
f 10/21/27 22/8/28 8/22/29
f 8/22/29 21/4/30 6/23/31
f 4/24/32 21/4/30 20/2/2
f 1/20/26 20/2/6 2/5/5
f 3/1/1 4/24/32 20/2/2
f 21/4/4 5/7/8 2/5/5
f 21/4/4 22/8/9 7/6/7
f 22/8/9 23/25/33 9/9/10
f 19/3/3 24/11/12 12/10/11
f 24/11/12 25/13/14 14/12/13
f 25/13/14 26/16/17 16/14/15
f 27/15/16 18/26/34 16/14/15
f 15/17/18 17/27/35 27/15/19
f 15/17/18 26/16/20 25/13/21
f 13/18/22 25/13/21 24/11/23
f 11/19/24 24/11/23 19/3/25
f 10/21/27 23/25/36 22/8/28
f 8/22/29 22/8/28 21/4/30
f 4/24/32 6/23/31 21/4/30
f 1/20/26 19/3/25 20/2/6
