# Blender v3.4.1 OBJ File: 'decoratives_and_entities.blend'
# www.blender.org
o Rock_Dirt_Icosphere.011
v -1.040370 -0.458888 -0.388847
v -0.579767 -0.408284 -1.126726
v 1.226582 -0.278584 -0.685954
v 0.141896 0.685014 0.049514
v 1.360084 -0.265525 -0.386414
v -0.923945 -0.451790 -0.648628
v -0.766412 -0.434628 -0.910018
v 0.972433 -0.247886 -0.833692
v 1.427909 -0.164525 -0.250401
v 1.152953 -0.395554 0.601511
v 0.080799 -0.383749 1.195611
v 0.968681 -0.393690 0.882009
v 0.779619 -0.266801 1.005452
v -0.325524 -0.446535 1.019867
v -0.839855 -0.205295 -0.600634
v 0.806818 -0.038160 -0.888473
v 1.025639 -0.337136 -0.940609
v -0.423897 -0.412055 -1.269960
v 0.164150 0.192508 0.996841
v 0.230762 0.508178 -0.628241
v 0.671117 0.466012 -0.395599
v 0.934120 0.354726 -0.199200
v 0.151180 0.602356 0.317668
v 0.463091 0.443148 0.305263
v 0.385722 0.175122 0.817388
v 0.751283 0.481431 -0.207140
v 0.489583 0.559670 0.055780
v -0.031513 0.661569 -0.366831
v -0.580302 0.190051 -0.433740
v 0.316109 0.627724 -0.429473
v 0.113783 0.551708 -0.629497
v -0.163539 0.447849 -0.807580
v -0.606244 0.404167 0.574265
v -0.231459 0.445419 0.749844
v 0.685457 0.482427 -0.047626
v 1.354896 -0.105791 -0.577117
v -0.390245 -0.386843 -1.333150
v -0.729929 -0.436096 -1.024951
v -0.986449 -0.087930 -0.099420
v -1.139202 -0.478877 0.109721
v -1.134725 -0.147192 0.277037
v 0.010983 -0.270503 1.254809
v 0.355666 -0.159966 1.269334
v 1.077348 -0.348399 0.679385
v 0.022754 -0.374588 -1.330770
v 0.521549 -0.378984 -1.132151
v -0.103369 -0.404401 -1.304380
v -1.036888 -0.463184 -0.473741
v -0.661367 -0.347860 0.890748
v -0.914453 -0.501651 0.508049
v 0.701356 -0.387052 1.132934
v 1.418772 -0.319946 -0.074194
vt 0.636364 0.157461
vt 0.681818 0.157461
vt 0.684712 0.221173
vt 0.454546 0.157461
vt 0.500000 0.157461
vt 0.481138 0.203520
vt 0.773463 0.157461
vt 0.840920 0.197614
vt 0.762266 0.216943
vt 0.613637 0.196826
vt 0.383961 0.196826
vt 0.418561 0.408321
vt 0.479136 0.357512
vt 0.461650 0.460078
vt 0.389619 0.354286
vt 0.339301 0.314921
vt 0.454546 0.314921
vt 0.510846 0.314921
vt 0.522728 0.354286
vt 0.590909 0.393651
vt 0.644863 0.408373
vt 0.629260 0.460078
vt 0.571299 0.354286
vt 0.651138 0.340511
vt 0.700309 0.361625
vt 0.731090 0.276490
vt 0.774486 0.326553
vt 0.881338 0.355168
vt 0.795455 0.433017
vt 0.826984 0.457136
vt 0.805049 0.292174
vt 0.023127 0.354978
vt 0.102943 0.414495
vt 0.082108 0.457136
vt 0.064364 0.346891
vt 0.136365 0.393651
vt 0.175708 0.328595
vt 0.109676 0.314921
vt 0.250001 0.433017
vt 0.292906 0.409188
vt 0.272728 0.472382
vt 0.243799 0.365028
vt 0.292743 0.349588
vt 0.340910 0.354286
vt 0.456374 0.239357
vt 0.399768 0.240926
vt 0.545108 0.275556
vt 0.562893 0.236191
vt 0.634936 0.238665
vt 0.859613 0.275556
vt 0.041143 0.243660
vt 0.068182 0.196826
vt 0.090657 0.236628
vt 0.159514 0.247013
vt 0.113637 0.196826
vt 0.250001 0.196826
vt 0.286603 0.242879
vt 0.222703 0.244107
vt 0.297965 0.196826
vt 0.522728 0.196826
vt 0.568182 0.196826
vt 0.727273 0.157461
vt 0.938043 0.241447
vt 0.898754 0.196826
vt 0.977273 0.196826
vt 0.196154 0.196826
vt 0.409092 0.157461
vn 0.2389 -0.9670 0.0882
vn 0.2608 -0.9607 0.0951
vn 0.2398 -0.9668 0.0882
vn -0.3737 -0.7951 0.4777
vn -0.2757 -0.8010 0.5314
vn -0.2495 -0.8009 0.5444
vn 0.4653 -0.8828 0.0638
vn 0.4987 -0.8644 0.0642
vn 0.2049 -0.9771 0.0577
vn 0.5044 -0.6520 0.5661
vn -0.5242 0.8226 0.2203
vn -0.5181 0.8269 0.2187
vn -0.5753 0.7839 0.2337
vn 0.4128 0.8786 0.2401
vn 0.2653 0.9110 -0.3158
vn 0.0443 0.9909 0.1274
vn 0.4948 0.8681 -0.0404
vn 0.6769 0.7360 -0.0148
vn 0.4636 0.7724 -0.4342
vn 0.2942 0.6585 -0.6927
vn 0.1225 0.8110 -0.5721
vn -0.2701 0.9443 -0.1879
vn 0.2342 0.5870 -0.7750
vn -0.6682 0.6671 -0.3294
vn -0.6742 0.6784 -0.2921
vn -0.6782 0.5323 -0.5067
vn -0.7327 0.5323 -0.4240
vn -0.4735 0.8807 -0.0146
vn -0.8067 0.5393 -0.2417
vn 0.1772 0.8910 0.4181
vn -0.1911 0.9647 0.1812
vn 0.3386 0.8130 0.4737
vn 0.4807 0.7462 0.4606
vn 0.4733 0.7469 0.4670
vn 0.4164 0.7973 0.4369
vn 0.5315 0.7866 0.3143
vn 0.8234 -0.4768 -0.3076
vn 0.7768 -0.5378 -0.3277
vn 0.8980 -0.3521 -0.2640
vn 0.6476 0.7568 -0.0886
vn 0.6407 0.7678 -0.0052
vn 0.4400 0.6120 -0.6571
vn 0.7602 -0.5573 -0.3339
vn 0.4150 0.4332 -0.8001
vn 0.3430 0.5683 -0.7479
vn -0.0208 0.8132 -0.5817
vn 0.1341 0.6221 -0.7713
vn -0.2432 -0.8494 -0.4684
vn -0.0316 -0.9224 -0.3849
vn 0.0298 -0.9337 -0.3567
vn -0.6091 0.5344 -0.5860
vn -0.3358 -0.7996 -0.4979
vn -0.8604 0.3959 -0.3209
vn -0.9401 0.2354 -0.2466
vn -0.9244 0.1817 -0.3355
vn -0.6719 0.7252 -0.1505
vn -0.6264 0.2855 0.7253
vn -0.3898 0.4205 0.8193
vn -0.5404 0.3597 0.7607
vn -0.4115 -0.4134 0.8122
vn -0.1198 -0.4861 0.8657
vn -0.4305 -0.6608 0.6148
vn -0.3148 0.4775 0.8203
vn -0.1892 0.5249 0.8298
vn -0.2038 0.5271 0.8250
vn -0.0453 -0.4829 0.8745
vn 0.0905 -0.4101 0.9075
vn 0.5139 0.6368 0.5748
vn 0.6897 0.4958 0.5277
vn 0.7056 0.5445 0.4534
vn 0.6177 0.5345 0.5768
vn 0.7531 0.5181 0.4054
vn 0.7378 0.5557 0.3832
vn 0.3317 0.3289 -0.8842
vn 0.3624 -0.1814 -0.9142
vn 0.1395 -0.9182 -0.3706
vn -0.0862 -0.4306 -0.8984
vn -0.1566 -0.7952 0.5858
vn 0.1793 -0.9824 0.0516
vn -0.7973 -0.0382 0.6024
vn -0.8225 -0.1919 0.5354
vn -0.8522 0.1803 0.4912
vn -0.4250 -0.7070 0.5652
vn 0.0895 -0.4091 0.9081
vn 0.5854 0.3789 0.7168
vn 0.8473 0.3758 0.3754
vn -0.6257 0.7400 0.2466
s 1
f 2/1/1 7/2/2 38/3/3
f 3/4/4 8/5/5 17/6/6
f 1/7/7 40/8/8 48/9/9
f 2/1/10 38/3/10 18/10/10
f 3/4/11 17/6/12 52/11/13
f 27/12/14 30/13/15 4/14/16
f 26/15/17 30/13/15 27/12/14
f 22/16/18 21/17/19 26/15/17
f 26/15/17 21/17/19 30/13/15
f 21/17/19 20/18/20 30/13/15
f 30/13/15 20/18/20 31/19/21
f 30/20/15 28/21/22 4/22/16
f 30/20/15 31/23/21 28/21/22
f 31/23/21 32/24/23 28/21/22
f 28/21/22 32/24/24 29/25/25
f 20/18/20 32/24/23 31/23/21
f 32/24/24 38/3/26 29/25/25
f 38/3/26 15/26/27 29/25/25
f 29/27/25 33/28/28 28/29/22
f 28/29/22 33/28/28 4/30/16
f 29/27/25 39/31/29 33/28/28
f 33/32/28 23/33/30 4/34/16
f 33/32/28 34/35/31 23/33/30
f 23/33/30 34/35/32 24/36/33
f 34/35/32 25/37/34 24/36/33
f 34/35/32 19/38/35 25/37/34
f 23/39/30 27/40/14 4/41/16
f 24/42/33 27/40/14 23/39/30
f 24/42/33 35/43/36 27/40/14
f 35/43/36 26/44/17 27/40/14
f 25/37/34 35/43/36 24/42/33
f 35/43/36 22/16/18 26/44/17
f 52/11/37 36/45/38 9/46/39
f 9/46/40 21/17/19 22/16/18
f 9/46/40 36/45/41 21/17/19
f 36/45/42 20/18/20 21/17/19
f 52/11/37 17/6/43 36/45/38
f 17/6/44 16/47/45 36/45/42
f 36/45/42 16/47/45 20/18/20
f 45/48/46 37/49/47 16/47/45
f 18/10/48 37/49/49 45/48/50
f 16/47/45 37/49/47 20/18/20
f 37/49/47 32/24/23 20/18/20
f 37/49/51 38/3/26 32/24/24
f 18/10/48 38/3/52 37/49/49
f 48/9/53 39/31/29 15/26/27
f 15/26/27 39/31/29 29/27/25
f 48/9/53 40/8/54 39/31/29
f 40/8/54 41/50/55 39/31/29
f 41/50/56 33/28/28 39/31/29
f 49/51/57 34/35/58 33/32/59
f 14/52/60 42/53/61 49/51/62
f 49/51/57 42/53/63 34/35/58
f 42/53/63 19/38/64 34/35/58
f 42/53/63 43/54/65 19/38/64
f 14/52/60 11/55/66 42/53/61
f 11/55/66 43/54/67 42/53/61
f 43/54/68 25/37/34 19/38/35
f 12/56/69 44/57/70 13/58/71
f 13/58/71 44/57/70 25/37/34
f 44/57/70 35/43/36 25/37/34
f 44/57/70 22/16/18 35/43/36
f 12/56/69 10/59/72 44/57/70
f 44/57/70 9/46/73 22/16/18
f 17/6/44 45/48/74 16/47/45
f 17/6/44 46/60/75 45/48/74
f 46/60/76 47/61/76 45/48/76
f 47/61/77 18/10/77 45/48/77
f 17/6/6 8/5/5 46/60/78
f 38/3/26 48/9/53 15/26/27
f 7/2/2 6/62/79 38/3/3
f 38/3/3 6/62/79 48/9/9
f 6/62/79 1/7/7 48/9/9
f 41/50/80 49/63/57 33/28/59
f 40/8/81 49/63/57 41/50/80
f 40/8/81 50/64/82 49/63/57
f 50/64/83 14/65/60 49/63/62
f 43/54/68 13/58/71 25/37/34
f 11/55/66 51/66/84 43/54/67
f 43/54/68 51/66/85 13/58/71
f 51/66/85 12/56/69 13/58/71
f 44/57/70 10/59/72 9/46/73
f 10/59/72 52/11/86 9/46/73
f 5/67/87 3/4/11 52/11/13
