# Blender v3.4.1 OBJ File: 'decoratives_and_entities.blend'
# www.blender.org
o Rock_Dirt_Icosphere.011
v -0.864080 -0.503992 -0.296399
v -0.310028 -0.527269 -0.879137
v 0.782600 -0.551451 -0.714816
v -0.040152 0.527046 0.118235
v 0.874586 -0.555852 -0.479311
v -0.707225 -0.507093 -0.534880
v -0.505003 -0.516842 -0.738016
v 0.481454 -0.566265 -0.764246
v 1.073059 -0.390666 -0.273076
v 0.919095 -0.526385 0.468499
v -0.181597 -0.518430 1.038207
v 0.744180 -0.518819 0.753954
v 0.634648 -0.350345 0.924987
v -0.465538 -0.516792 0.934981
v -0.868841 -0.217068 -0.595376
v 0.418961 -0.284926 -0.978217
v 0.725090 -0.530705 -0.909152
v -0.208895 -0.521510 -1.045214
v -0.082025 0.057858 0.855050
v 0.383689 0.491264 -0.824102
v 0.655806 0.444354 -0.488383
v 0.895216 0.260794 0.179290
v 0.031978 0.492872 0.383196
v 0.469171 0.387494 0.571043
v 0.356906 0.154697 0.814204
v 0.754820 0.424548 0.084149
v 0.453611 0.467956 0.346507
v -0.259890 0.447998 -0.328903
v -0.801985 0.129384 -0.372862
v 0.363202 0.626353 -0.561260
v 0.208407 0.500242 -0.774164
v -0.239170 0.337615 -0.800150
v -0.708789 0.311414 0.508486
v -0.423950 0.334661 0.635513
v 0.738227 0.435578 0.370359
v 0.922752 -0.367648 -0.657940
v -0.218419 -0.484414 -1.134306
v -0.607491 -0.477044 -0.949343
v -1.012691 -0.082665 -0.113722
v -1.019841 -0.508256 0.172760
v -1.038562 -0.172168 0.327829
v -0.244552 -0.402650 1.102130
v 0.107657 -0.294230 1.125145
v 0.914491 -0.442166 0.588870
v 0.138193 -0.510373 -1.077978
v 0.348526 -0.552372 -0.959720
v 0.065140 -0.539977 -1.040681
v -0.967436 -0.484690 -0.439326
v -0.724311 -0.379196 0.852455
v -0.863951 -0.514089 0.534986
v 0.428063 -0.534745 0.973698
v 1.082144 -0.516383 -0.188621
vt 0.636364 0.157461
vt 0.681818 0.157461
vt 0.684712 0.221173
vt 0.454546 0.157461
vt 0.500000 0.157461
vt 0.481138 0.203520
vt 0.773463 0.157461
vt 0.840920 0.197614
vt 0.762266 0.216943
vt 0.613637 0.196826
vt 0.383961 0.196826
vt 0.418561 0.408321
vt 0.479136 0.357512
vt 0.461650 0.460078
vt 0.389619 0.354286
vt 0.339301 0.314921
vt 0.454546 0.314921
vt 0.510846 0.314921
vt 0.522728 0.354286
vt 0.590909 0.393651
vt 0.644863 0.408373
vt 0.629260 0.460078
vt 0.571299 0.354286
vt 0.651138 0.340511
vt 0.700309 0.361625
vt 0.731090 0.276490
vt 0.774486 0.326553
vt 0.881338 0.355168
vt 0.795455 0.433017
vt 0.826984 0.457136
vt 0.805049 0.292174
vt 0.023127 0.354978
vt 0.102943 0.414495
vt 0.082108 0.457136
vt 0.064364 0.346891
vt 0.136365 0.393651
vt 0.175708 0.328595
vt 0.109676 0.314921
vt 0.250001 0.433017
vt 0.292906 0.409188
vt 0.272728 0.472382
vt 0.243799 0.365028
vt 0.292743 0.349588
vt 0.340910 0.354286
vt 0.456374 0.239357
vt 0.399768 0.240926
vt 0.545108 0.275556
vt 0.562893 0.236191
vt 0.634936 0.238665
vt 0.859613 0.275556
vt 0.041143 0.243660
vt 0.068182 0.196826
vt 0.090657 0.236628
vt 0.159514 0.247013
vt 0.113637 0.196826
vt 0.250001 0.196826
vt 0.286603 0.242879
vt 0.222703 0.244107
vt 0.297965 0.196826
vt 0.522728 0.196826
vt 0.568182 0.196826
vt 0.727273 0.157461
vt 0.938043 0.241447
vt 0.898754 0.196826
vt 0.977273 0.196826
vt 0.196154 0.196826
vt 0.409092 0.157461
vn -0.1381 -0.9833 -0.1182
vn -0.1488 -0.9824 -0.1128
vn -0.1454 -0.9802 -0.1344
vn 0.4034 -0.8899 -0.2129
vn 0.0720 -0.9899 -0.1219
vn 0.2589 -0.9400 -0.2224
vn -0.1141 -0.9921 -0.0514
vn -0.1184 -0.9918 -0.0483
vn -0.1134 -0.9914 -0.0650
vn -0.1062 -0.9353 -0.3375
vn 0.8592 -0.3546 -0.3688
vn 0.1074 0.9712 0.2127
vn 0.1306 0.9719 -0.1957
vn -0.1528 0.9846 0.0851
vn 0.5672 0.8236 -0.0057
vn 0.9063 0.4076 0.1120
vn 0.7328 0.6117 -0.2980
vn 0.2963 0.6069 -0.7374
vn -0.2327 0.8152 -0.5304
vn -0.3861 0.9129 -0.1321
vn -0.3871 0.8938 -0.2264
vn -0.6812 0.6467 -0.3432
vn -0.3408 0.4029 -0.8494
vn -0.4943 0.3961 -0.7738
vn -0.7458 0.3093 -0.5900
vn -0.5773 0.7217 0.3819
vn -0.9322 0.3384 -0.1286
vn -0.0392 0.9544 0.2961
vn -0.2298 0.7428 0.6288
vn 0.2105 0.7735 0.5978
vn 0.2813 0.5541 0.7835
vn -0.0996 0.5520 0.8278
vn 0.1051 0.9904 0.0899
vn 0.7527 0.4376 0.4919
vn 0.8430 0.0466 -0.5359
vn 0.9800 0.1116 -0.1644
vn 0.4772 0.3704 -0.7970
vn 0.3433 0.1912 -0.9196
vn 0.1927 0.1864 -0.9634
vn -0.1505 0.3076 -0.9395
vn -0.0968 -0.9225 -0.3737
vn 0.0717 -0.8557 -0.5125
vn -0.9399 0.0404 -0.3390
vn -0.9876 -0.1026 0.1191
vn -0.9488 0.1646 0.2696
vn -0.6382 0.2824 0.7162
vn -0.4464 -0.4516 0.7725
vn -0.1505 -0.5003 0.8527
vn -0.5182 -0.6236 0.5853
vn -0.2797 0.4779 0.8327
vn 0.0757 0.1148 0.9905
vn -0.0603 -0.5081 0.8592
vn 0.6864 -0.3004 0.6622
vn 0.8726 -0.1072 0.4765
vn 0.6218 0.1025 0.7764
vn 0.9333 -0.2662 0.2411
vn 0.1083 -0.8966 -0.4294
vn -0.0040 -0.7794 -0.6266
vn -0.8163 -0.0355 -0.5766
vn -0.1249 -0.9877 -0.0939
vn -0.9183 0.0197 0.3955
vn -0.5245 -0.6758 0.5179
vn 0.3419 -0.2681 0.9007
vn 0.9442 0.2280 0.2378
vn 0.4237 -0.8873 -0.1821
s 1
f 2/1/1 7/2/2 38/3/3
f 3/4/4 8/5/5 17/6/6
f 1/7/7 40/8/8 48/9/9
f 2/1/1 38/3/3 18/10/10
f 3/4/4 17/6/6 52/11/11
f 27/12/12 30/13/13 4/14/14
f 26/15/15 30/13/13 27/12/12
f 22/16/16 21/17/17 26/15/15
f 26/15/15 21/17/17 30/13/13
f 21/17/17 20/18/18 30/13/13
f 30/13/13 20/18/18 31/19/19
f 30/20/13 28/21/20 4/22/14
f 30/20/13 31/23/19 28/21/20
f 31/23/19 32/24/21 28/21/20
f 28/21/20 32/24/21 29/25/22
f 20/18/18 32/24/23 31/23/19
f 32/24/23 38/3/24 29/25/22
f 38/3/24 15/26/25 29/25/22
f 29/27/22 33/28/26 28/29/20
f 28/29/20 33/28/26 4/30/14
f 29/27/22 39/31/27 33/28/26
f 33/32/26 23/33/28 4/34/14
f 33/32/26 34/35/29 23/33/28
f 23/33/28 34/35/29 24/36/30
f 34/35/29 25/37/31 24/36/30
f 34/35/29 19/38/32 25/37/31
f 23/39/28 27/40/12 4/41/14
f 24/42/30 27/40/12 23/39/28
f 24/42/30 35/43/33 27/40/12
f 35/43/33 26/44/15 27/40/12
f 25/37/31 35/43/34 24/42/30
f 35/43/34 22/16/16 26/44/15
f 52/11/11 36/45/35 9/46/36
f 9/46/36 21/17/17 22/16/16
f 9/46/36 36/45/35 21/17/17
f 36/45/35 20/18/18 21/17/17
f 52/11/11 17/6/6 36/45/35
f 17/6/37 16/47/38 36/45/35
f 36/45/35 16/47/38 20/18/18
f 45/48/39 37/49/40 16/47/38
f 18/10/10 37/49/41 45/48/42
f 16/47/38 37/49/40 20/18/18
f 37/49/40 32/24/23 20/18/18
f 37/49/40 38/3/24 32/24/23
f 18/10/10 38/3/3 37/49/41
f 48/9/43 39/31/27 15/26/25
f 15/26/25 39/31/27 29/27/22
f 48/9/43 40/8/44 39/31/27
f 40/8/44 41/50/45 39/31/27
f 41/50/45 33/28/26 39/31/27
f 49/51/46 34/35/29 33/32/26
f 14/52/47 42/53/48 49/51/49
f 49/51/46 42/53/50 34/35/29
f 42/53/50 19/38/32 34/35/29
f 42/53/50 43/54/51 19/38/32
f 14/52/47 11/55/52 42/53/48
f 11/55/52 43/54/51 42/53/48
f 43/54/51 25/37/31 19/38/32
f 12/56/53 44/57/54 13/58/55
f 13/58/55 44/57/54 25/37/31
f 44/57/54 35/43/34 25/37/31
f 44/57/54 22/16/16 35/43/34
f 12/56/53 10/59/56 44/57/54
f 44/57/54 9/46/36 22/16/16
f 17/6/37 45/48/39 16/47/38
f 17/6/6 46/60/57 45/48/42
f 46/60/57 47/61/58 45/48/42
f 47/61/58 18/10/10 45/48/42
f 17/6/6 8/5/5 46/60/57
f 38/3/59 48/9/43 15/26/25
f 7/2/2 6/62/60 38/3/3
f 38/3/3 6/62/60 48/9/9
f 6/62/60 1/7/7 48/9/9
f 41/50/45 49/63/46 33/28/26
f 40/8/44 49/63/46 41/50/45
f 40/8/44 50/64/61 49/63/46
f 50/64/62 14/65/47 49/63/49
f 43/54/51 13/58/55 25/37/31
f 11/55/52 51/66/63 43/54/51
f 43/54/51 51/66/63 13/58/55
f 51/66/63 12/56/53 13/58/55
f 44/57/54 10/59/56 9/46/36
f 10/59/56 52/11/64 9/46/36
f 5/67/65 3/4/4 52/11/11
