# Blender v3.4.1 OBJ File: 'decoratives_and_entities.blend'
# www.blender.org
o Rock_1_LoD_Icosphere.010
v -0.865065 -0.801816 -0.296115
v -0.310028 -0.836391 -0.879137
v 0.730719 -0.874749 -0.676406
v -0.691034 -0.435917 -0.726953
v 0.105049 0.812390 0.069070
v 0.822705 -0.881730 -0.440901
v -0.707225 -0.804385 -0.534880
v -0.505003 -0.819851 -0.738016
v 0.481454 -0.898249 -0.764246
v 0.869777 -0.389387 0.134744
v 0.878096 -0.817046 0.478575
v -0.181597 -0.822368 1.038207
v 0.735093 -0.832556 0.812288
v 0.308782 0.099511 0.920056
v -0.465538 -0.819771 0.934981
v -0.639237 -0.771270 -0.889461
v 0.421924 -0.378348 -0.968171
v 0.658722 -0.836215 -0.884033
v -0.208895 -0.827254 -1.045214
v -0.392625 0.675404 0.631514
v 0.311173 0.381101 0.726839
v 0.707521 0.709511 0.316807
v -0.846080 0.183457 -0.329118
v 0.944184 -0.546194 -0.609234
v -0.379928 -0.489801 -0.927128
v -1.046141 -0.733807 -0.092468
v -0.994338 -0.229292 0.344176
v -0.118227 -0.617096 1.134463
v 0.891144 -0.602802 0.505411
v 0.348526 -0.876211 -0.959720
v 0.065140 -0.856549 -1.040681
v -0.967483 -0.749822 -0.436254
v 0.373565 -0.841780 0.967514
v 1.064411 -0.616388 -0.317930
v 1.030570 -0.819233 -0.150333
v -0.163591 0.789717 0.115410
v -0.663856 0.533970 0.498048
v -0.522359 0.509680 -0.067296
v 0.173672 0.821334 -0.234115
v -0.156999 0.743639 -0.283759
v -0.082658 0.753722 -0.584478
v -0.791038 0.362336 0.190483
v -0.606193 0.539031 0.203324
v 0.020497 0.781634 -0.380447
v -0.184453 0.726205 -0.035868
v 0.105289 0.053295 -0.837311
v 0.420446 0.725881 -0.830660
v 0.023625 0.460108 -0.847072
v 0.463033 0.247554 -0.830767
v 0.119682 -0.802901 -1.165213
v -0.008074 0.839051 0.405925
v -0.642511 0.245779 -0.514447
v -0.358966 0.466681 -0.712288
v 0.210453 0.868983 -0.782088
v -0.745035 0.313124 0.580193
v -0.656758 -0.158124 0.813023
v -0.645631 0.372416 -0.207559
v 0.332752 0.785532 0.196302
v -0.348049 -0.758149 -1.088811
v -0.099670 -0.117164 -0.850863
v -0.142418 0.219511 -0.806399
v 0.637408 0.651510 0.448238
v -0.933920 -0.379434 -0.199268
v -0.999221 -0.784781 0.134674
v -1.044673 -0.644899 0.283851
v -0.780091 -0.626983 0.788892
v -0.861181 -0.810366 0.522084
v 0.891252 0.257333 0.017466
v 0.952023 -0.338599 -0.172268
v 0.676142 0.342422 -0.314229
v 0.656696 0.766368 -0.112749
v 0.742345 -0.277981 -0.734625
v 0.613416 0.641877 -0.546321
v -0.913965 0.043105 -0.040230
v -0.926303 -0.356657 -0.022568
v 0.256959 0.695454 0.536482
v -0.022099 0.507770 0.682568
v 0.820340 0.627039 0.139533
v 0.374882 0.997576 -0.530907
vt 0.781107 0.655974
vt 0.803742 0.702390
vt 0.768112 0.727738
vt 0.856370 0.442610
vt 0.831716 0.491713
vt 0.810599 0.452822
vt 0.749264 0.628987
vt 0.971835 0.402490
vt 0.213468 0.311389
vt 0.236133 0.233988
vt 0.257717 0.345120
vt 0.960381 0.335768
vt 0.874308 0.340536
vt 0.927259 0.263563
vt 0.776269 0.301241
vt 0.827921 0.252783
vt 0.896670 0.222042
vt 0.833159 0.241182
vt 0.864898 0.161245
vt 0.721551 0.266655
vt 0.750877 0.193189
vt 0.826851 0.010606
vt 0.817894 0.045864
vt 0.753772 0.051461
vt 0.888504 0.012330
vt 0.850810 0.082343
vt 0.196932 0.570472
vt 0.253011 0.541002
vt 0.290264 0.679500
vt 0.141442 0.589292
vt 0.101053 0.531779
vt 0.141658 0.672441
vt 0.065127 0.634814
vt 0.591775 0.460849
vt 0.516490 0.493379
vt 0.528894 0.407903
vt 0.410437 0.452150
vt 0.469406 0.440353
vt 0.447963 0.525980
vt 0.995473 0.294173
vt 0.133993 0.052522
vt 0.218495 0.102532
vt 0.117283 0.312087
vt 0.053739 0.267273
vt 0.364019 0.761756
vt 0.338284 0.721456
vt 0.364019 0.698306
vt 0.312651 0.048163
vt 0.300678 0.260795
vt 0.286537 0.107809
vt 0.356984 0.698306
vt 0.338284 0.679367
vt 0.356984 0.599906
vt 0.716304 0.398739
vt 0.632334 0.399208
vt 0.716892 0.351878
vt 0.604253 0.276635
vt 0.684830 0.285140
vt 0.512390 0.365260
vt 0.522189 0.205660
vt 0.423728 0.325752
vt 0.574651 0.179174
vt 0.445249 0.267398
vt 0.533366 0.131716
vt 0.736049 0.556752
vt 0.732956 0.658474
vt 0.052801 0.767779
vt 0.036011 0.826209
vt 0.000000 0.771029
vt 0.379353 0.298927
vt 0.392877 0.223149
vt 0.177902 0.680373
vt 0.151832 0.754628
vt 0.020911 0.524862
vt 0.040676 0.478257
vt 0.647458 0.641515
vt 0.521574 0.749382
vt 0.606446 0.783919
vt 0.675352 0.738025
vt 0.439938 0.581612
vt 0.541680 0.788284
vt 0.079424 0.006329
vt 0.036907 0.219820
vt 0.910317 0.357978
vt 0.165405 0.335315
vt 0.146811 0.002266
vt 0.786109 0.513360
vt 0.759839 0.570732
vt 0.327185 0.754702
vt 0.223738 0.759013
vt 0.839078 0.752485
vt 0.836699 0.798619
vt 0.883736 0.793948
vt 0.713014 0.757065
vt 0.434172 0.780348
vt 0.379353 0.726578
vt 0.416545 0.647544
vt 0.284146 0.005781
vt 0.908348 0.431295
vt 0.965848 0.193683
vt 0.968331 0.042048
vt 0.902107 0.162043
vt 0.906870 0.061212
vt 0.777179 0.358147
vt 0.770301 0.393546
vt 0.752616 0.372216
vt 0.311296 0.484238
vt 0.195970 0.508095
vt 0.719960 0.130804
vt 0.509858 0.066508
vt 0.817162 0.164475
vt 0.798735 0.218392
vt 0.654075 0.163130
vt 0.670560 0.064086
vt 0.580458 0.100453
vt 0.716582 0.156672
vt 0.671210 0.533830
vt 0.723673 0.624451
vt 0.674095 0.533698
vt 0.063481 0.735447
vt 0.043600 0.764631
vt 0.000000 0.723305
vt 0.102422 0.767157
vt 0.365171 0.156146
vt 0.332227 0.328462
vt 0.968320 0.837933
vt 0.897577 0.828842
vt 0.696248 0.000038
vt 0.642393 0.022005
vt 0.357690 0.525962
vt 0.366999 0.599906
vt 0.348139 0.571437
vt 0.999042 0.108441
vt 0.997411 0.239128
vt 0.376712 0.066258
vt 0.659334 0.484852
vt 0.379348 0.366082
vt 0.325068 0.410686
vn -0.1866 -0.9691 -0.1615
vn -0.1960 -0.9709 -0.1377
vn -0.2139 -0.9609 -0.1760
vn 0.1738 -0.9557 -0.2376
vn 0.1773 -0.9562 -0.2328
vn 0.1850 -0.9432 -0.2759
vn -0.1896 -0.8359 -0.5151
vn 0.7317 -0.5815 -0.3557
vn 0.7969 -0.4585 -0.3933
vn 0.7741 -0.4925 -0.3979
vn 0.8676 0.2979 -0.3982
vn 0.8463 0.2587 -0.4657
vn 0.8975 0.3135 -0.3100
vn 0.2357 0.9427 0.2362
vn 0.3316 0.9235 0.1928
vn 0.1982 0.9689 0.1479
vn -0.4264 0.8747 0.2304
vn -0.4541 0.8878 0.0747
vn -0.3295 0.9344 0.1352
vn -0.0374 0.9979 -0.0522
vn -0.3944 0.9073 -0.1456
vn -0.4803 0.8500 -0.2166
vn -0.5456 0.8169 -0.1869
vn -0.5658 0.7773 -0.2751
vn -0.6118 0.7564 -0.2314
vn -0.6469 0.7026 -0.2965
vn -0.6468 0.7366 -0.1980
vn -0.5867 0.7820 -0.2106
vn -0.9051 0.2028 -0.3738
vn -0.6859 0.2606 -0.6794
vn -0.6914 0.2396 -0.6815
vn -0.9743 0.2014 -0.1006
vn -0.9275 0.3591 0.1044
vn -0.9668 0.2101 -0.1454
vn -0.9603 0.1819 0.2115
vn -0.1341 0.4627 0.8763
vn 0.0469 0.5069 0.8607
vn -0.0477 0.9462 0.3200
vn 0.5262 0.5622 0.6380
vn 0.1525 0.6941 0.7036
vn 0.3575 0.4433 0.8220
vn 0.9182 0.1102 0.3805
vn 0.9719 0.1836 0.1475
vn 0.9773 0.0466 0.2068
vn 0.9631 0.2480 0.1047
vn 0.9368 0.2162 -0.2752
vn 0.9573 0.2888 0.0156
vn 0.8849 0.3488 -0.3087
vn 0.8056 -0.4301 -0.4075
vn 0.5389 0.1058 -0.8357
vn 0.5261 0.1200 -0.8419
vn 0.5913 0.1461 -0.7931
vn -0.0624 0.3993 -0.9147
vn -0.0320 0.2133 -0.9765
vn -0.0433 0.3332 -0.9419
vn -0.3275 0.4050 -0.8536
vn -0.0192 0.0979 -0.9950
vn 0.0815 0.1407 -0.9867
vn -0.3064 0.1087 -0.9457
vn 0.0026 -0.8958 -0.4444
vn -0.2560 -0.8291 -0.4971
vn -0.6199 0.2898 -0.7292
vn -0.4471 0.3782 -0.8106
vn -0.9589 0.2112 -0.1896
vn -0.9569 0.2421 -0.1606
vn -0.9201 0.3773 0.1049
vn -0.9180 0.3675 0.1489
vn -0.5722 0.2083 0.7932
vn -0.2079 -0.0855 0.9744
vn -0.4375 -0.1265 0.8903
vn -0.7066 -0.1595 0.6894
vn -0.1152 0.4281 0.8964
vn -0.1551 -0.3798 0.9120
vn 0.8223 0.1678 0.5438
vn 0.7800 0.3346 0.5288
vn 0.6205 0.7836 0.0303
vn 0.8528 0.1772 0.4913
vn 0.8596 0.0976 0.5016
vn 0.9513 -0.0858 0.2962
vn 0.9242 0.0382 0.3800
vn 0.2039 -0.8590 -0.4697
vn -0.0310 -0.9130 -0.4069
vn -0.8755 0.2682 -0.4019
vn -0.2458 -0.9590 -0.1412
vn -0.3056 -0.9446 -0.1201
vn -0.3575 -0.9288 -0.0981
vn -0.7989 -0.3941 0.4544
vn -0.6055 -0.5579 0.5675
vn 0.0976 -0.4471 0.8892
vn 0.3685 0.0740 0.9267
vn 0.3705 0.0844 0.9250
vn 0.3658 0.0599 0.9288
vn 0.3852 0.1691 0.9072
vn 0.9714 0.0324 0.2354
vn 0.5826 -0.7732 -0.2505
vn -0.5291 0.8459 -0.0667
vn -0.3185 0.9320 -0.1730
vn -0.5928 0.7855 -0.1776
vn -0.6410 0.7285 -0.2416
vn -0.3984 0.1767 -0.9000
vn -0.4376 0.8969 -0.0631
vn -0.3340 0.9407 0.0589
vn 0.4649 0.0784 -0.8819
vn -0.0232 0.0763 -0.9968
vn -0.0326 0.1021 -0.9942
vn -0.1623 0.1197 -0.9795
vn 0.6977 0.1864 -0.6917
vn 0.7258 0.4382 -0.5303
vn 0.8929 0.3045 -0.3315
vn 0.6276 0.1122 -0.7704
vn -0.5886 0.3001 0.7507
vn -0.9587 -0.1687 0.2292
vn -0.8830 -0.4453 0.1485
vn -0.9109 -0.4007 0.0982
vn -0.4515 -0.8860 -0.1056
vn -0.4410 -0.8925 -0.0941
vn 0.6877 0.6093 -0.3948
vn 0.3519 0.7195 -0.5987
vn -0.1584 0.2252 -0.9614
vn -0.4297 0.8994 -0.0800
vn 0.7621 -0.4832 -0.4310
vn -0.5738 0.4624 0.6760
vn 0.8260 0.5209 -0.2154
vn 0.3226 0.9035 0.2821
s 1
f 2/1/1 8/2/2 16/3/3
f 3/4/4 9/5/5 18/6/6
f 2/1/1 16/3/3 19/7/7
f 3/4/8 18/6/9 35/8/10
f 78/9/11 68/10/12 71/11/13
f 22/12/14 71/13/15 58/14/16
f 58/14/17 79/15/18 39/16/19
f 5/17/20 39/18/19 45/19/21
f 54/20/22 41/21/23 79/15/18
f 23/22/24 57/23/25 52/24/26
f 57/23/25 42/25/27 38/26/28
f 23/27/29 52/28/30 4/29/31
f 23/27/29 74/30/32 42/31/33
f 75/32/34 27/33/35 74/30/32
f 20/34/36 77/35/37 51/36/38
f 62/37/39 76/38/40 21/39/41
f 77/35/37 21/39/41 76/38/40
f 62/40/39 22/12/14 58/14/16
f 29/41/42 10/42/43 78/9/44
f 29/41/42 62/43/39 21/44/41
f 69/45/45 70/46/46 68/47/12
f 34/48/47 70/49/46 69/50/45
f 34/51/47 72/52/48 70/53/46
f 35/54/10 18/55/9 24/56/49
f 18/55/50 17/57/51 72/58/52
f 50/59/53 60/60/54 17/57/55
f 50/59/53 59/61/56 60/60/54
f 17/57/55 60/60/54 46/62/57
f 60/60/54 25/63/58 61/64/59
f 50/65/60 19/7/7 59/66/61
f 16/67/62 25/68/63 59/69/56
f 59/61/56 25/63/63 60/60/54
f 16/70/62 4/71/31 25/63/63
f 23/27/29 4/29/31 63/72/64
f 63/72/64 75/32/34 23/27/29
f 63/72/64 26/73/65 75/32/34
f 55/74/66 37/75/67 27/33/35
f 56/76/68 28/77/69 20/34/36
f 15/78/70 28/77/69 66/79/71
f 28/77/69 77/35/37 20/34/36
f 28/77/69 14/80/72 77/35/37
f 15/78/70 12/81/73 28/77/69
f 77/35/37 14/80/72 21/39/41
f 13/82/74 29/41/42 14/83/75
f 14/83/75 29/41/42 21/44/41
f 78/84/76 71/13/15 22/12/14
f 62/43/39 78/9/77 22/85/78
f 13/82/74 11/86/79 29/41/42
f 68/10/80 78/9/44 10/42/43
f 30/87/81 31/88/82 50/65/60
f 31/88/82 19/7/7 50/65/60
f 18/6/6 9/5/5 30/87/81
f 16/89/62 32/90/83 4/29/31
f 4/29/31 32/90/83 63/72/64
f 8/2/2 7/91/84 16/3/3
f 16/3/3 7/91/84 32/92/85
f 7/91/84 1/93/86 32/92/85
f 28/77/69 56/76/68 66/79/71
f 67/94/87 15/78/88 66/79/71
f 12/81/73 33/95/89 28/77/69
f 28/77/90 13/96/91 14/97/92
f 28/77/90 33/95/93 13/96/91
f 29/41/42 11/86/79 34/48/47
f 11/86/79 35/98/94 34/48/47
f 6/99/95 3/4/8 35/8/10
f 51/100/38 58/14/16 5/17/20
f 37/101/96 51/100/38 36/102/97
f 36/102/97 51/100/38 5/17/20
f 57/23/25 23/22/24 42/25/27
f 43/103/98 37/101/96 36/102/97
f 38/26/28 43/103/98 36/102/97
f 38/104/28 42/105/27 43/106/98
f 53/107/99 52/28/26 57/108/25
f 54/20/22 53/109/99 41/21/23
f 61/64/59 4/71/31 53/110/100
f 40/111/101 53/109/99 57/23/25
f 40/111/101 41/21/23 53/109/99
f 44/112/102 41/21/23 40/111/101
f 40/111/101 38/26/28 45/19/21
f 40/111/101 57/23/25 38/26/28
f 45/19/21 39/18/19 40/111/101
f 39/18/19 44/112/102 40/111/101
f 5/17/20 45/19/21 36/102/97
f 79/15/18 44/112/102 39/18/19
f 5/17/20 58/14/16 39/18/19
f 17/57/51 18/55/50 50/59/103
f 49/113/104 46/62/57 47/114/105
f 49/113/104 17/57/55 46/62/57
f 60/60/54 61/64/59 48/115/106
f 46/62/57 48/115/106 47/114/105
f 49/113/107 47/114/108 73/116/109
f 73/116/109 72/58/52 49/113/107
f 72/58/52 17/57/51 49/113/107
f 18/55/50 72/58/52 24/56/110
f 56/76/68 20/34/36 55/117/111
f 27/118/35 56/76/68 55/119/111
f 45/19/21 38/26/28 36/102/97
f 29/41/42 78/9/77 62/43/39
f 65/120/112 67/121/87 66/122/71
f 65/120/112 64/123/113 67/121/87
f 65/120/112 66/122/71 27/33/35
f 26/73/65 65/120/112 27/33/35
f 64/123/113 65/120/112 26/73/114
f 74/30/32 27/33/35 42/31/33
f 26/73/65 27/33/35 75/32/34
f 75/32/34 74/30/32 23/27/29
f 32/90/83 26/73/65 63/72/64
f 10/42/43 34/48/47 69/50/45
f 10/42/43 69/50/45 68/10/80
f 70/49/46 72/124/48 73/125/109
f 68/10/12 70/49/46 71/11/13
f 70/49/46 73/125/109 71/11/13
f 1/93/86 64/126/115 26/127/116
f 79/128/117 47/114/108 54/129/118
f 47/114/105 48/115/106 54/129/119
f 42/130/27 37/131/96 43/132/98
f 42/31/33 27/33/35 37/75/67
f 20/133/120 51/100/38 37/101/96
f 76/134/40 62/40/39 51/100/38
f 58/14/16 51/100/38 62/40/39
f 51/36/38 77/35/37 76/38/40
f 35/98/10 24/135/49 34/48/121
f 55/117/111 20/34/36 37/136/122
f 56/76/68 27/118/35 66/79/71
f 30/87/81 50/65/60 18/6/6
f 1/93/86 26/127/116 32/92/85
f 48/115/106 53/110/100 54/129/119
f 29/41/42 34/48/47 10/42/43
f 61/64/59 25/63/63 4/71/31
f 44/112/102 79/15/18 41/21/23
f 73/125/109 47/137/108 79/138/117
f 46/62/57 60/60/54 48/115/106
f 19/7/7 16/3/3 59/66/61
f 4/29/31 52/28/30 53/107/100
f 24/135/123 72/124/48 34/48/47
f 71/11/13 73/125/109 79/138/117
f 79/15/124 58/14/16 71/13/15
f 48/115/106 61/64/59 53/110/100
