# Blender v3.4.1 OBJ File: 'decoratives_and_entities.blend'
# www.blender.org
o Cone
v -0.707107 0.000000 -0.707107
v 0.707107 0.000000 -0.707107
v 0.707107 0.000000 0.707107
v -0.707107 0.000000 0.707107
v 0.000000 2.000000 0.000000
v 0.707107 0.000183 0.707107
v 0.707107 0.000183 -0.707107
v -0.707107 0.000183 -0.707107
v -0.707107 0.000183 0.707107
v -0.000000 -1.999817 -0.000000
vt 0.250000 0.490000
vt 0.250000 0.250000
vt 0.490000 0.250000
vt 0.250000 0.010000
vt 0.990000 0.250000
vt 0.510000 0.250000
vt 0.750000 0.490000
vt 0.010000 0.250000
vt 0.250000 0.490000
vt 0.250000 0.250000
vt 0.490000 0.250000
vt 0.250000 0.010000
vt 0.990000 0.250000
vt 0.510000 0.250000
vt 0.750000 0.490000
vt 0.010000 0.250000
vt 0.750000 0.010000
vt 0.750000 0.010000
vn 0.0000 0.3333 -0.9428
vn 0.9428 0.3333 0.0000
vn 0.0000 -1.0000 0.0000
vn 0.0000 0.3333 0.9428
vn -0.9428 0.3333 0.0000
vn 0.9428 -0.3333 0.0000
vn 0.0000 -0.3333 -0.9428
vn 0.0000 1.0000 0.0000
vn -0.9428 -0.3333 0.0000
vn -0.0000 -0.3333 0.9428
s 1
f 1/1/1 5/2/1 2/3/1
f 2/3/2 5/2/2 3/4/2
f 2/5/3 4/6/3 1/7/3
f 3/4/4 5/2/4 4/8/4
f 4/8/5 5/2/5 1/1/5
f 6/9/6 10/10/6 7/11/6
f 7/11/7 10/10/7 8/12/7
f 7/13/8 9/14/8 6/15/8
f 8/12/9 10/10/9 9/16/9
f 9/16/10 10/10/10 6/9/10
f 2/5/3 3/17/3 4/6/3
f 7/13/8 8/18/8 9/14/8
