# Blender v3.4.1 OBJ File: 'decoratives_and_entities.blend'
# www.blender.org
o Tiny_Flower_Plane.004
v -0.306290 0.573902 -1.017715
v -0.574605 0.000000 -0.019152
v 0.306289 0.573902 -1.017715
v 0.574605 0.000000 -0.019152
v -1.017715 0.573902 0.306289
v -0.019152 0.000000 0.574605
v -1.017715 0.573902 -0.306289
v -0.019152 0.000000 -0.574605
v 0.306289 0.573902 1.017715
v 0.574605 0.000000 0.019152
v -0.306289 0.573902 1.017715
v -0.574605 0.000000 0.019152
v 1.017715 0.573902 -0.306290
v 0.019152 0.000000 -0.574605
v 1.017715 0.573902 0.306289
v 0.019152 0.000000 0.574605
v -0.000001 0.573902 -1.178936
v -1.178936 0.573902 -0.000000
v 0.000000 0.573902 1.178936
v 1.178936 0.573902 -0.000000
vt 1.000000 1.000000
vt 0.000000 1.000000
vt 0.000000 0.500000
vt 1.000000 1.000000
vt 0.000000 1.000000
vt 0.000000 0.500000
vt 1.000000 1.000000
vt 0.000000 1.000000
vt 0.000000 0.500000
vt 1.000000 1.000000
vt 0.000000 1.000000
vt 0.000000 0.500000
vt 0.000000 0.000000
vt 1.000000 0.000000
vt 0.000000 0.000000
vt 1.000000 0.000000
vt 0.000000 0.000000
vt 1.000000 0.000000
vt 0.000000 0.000000
vt 1.000000 0.000000
vn -0.0414 0.8872 0.4595
vn -0.2810 0.7975 0.5339
vn 0.0000 0.8569 0.5154
vn 0.4595 0.8872 0.0414
vn 0.5339 0.7975 0.2810
vn 0.5154 0.8569 0.0000
vn 0.0414 0.8872 -0.4595
vn 0.2810 0.7975 -0.5339
vn -0.0000 0.8569 -0.5154
vn -0.4595 0.8872 -0.0414
vn -0.5339 0.7975 -0.2810
vn -0.5154 0.8569 0.0000
vn 0.2810 0.7975 0.5339
vn 0.0414 0.8872 0.4595
vn 0.5339 0.7975 -0.2810
vn 0.4595 0.8872 -0.0414
vn -0.2810 0.7975 -0.5339
vn -0.0414 0.8872 -0.4595
vn -0.5339 0.7975 0.2810
vn -0.4595 0.8872 0.0414
s 1
f 4/1/1 3/2/2 17/3/3
f 8/4/4 7/5/5 18/6/6
f 12/7/7 11/8/8 19/9/9
f 16/10/10 15/11/11 20/12/12
f 17/3/3 1/13/13 2/14/14
f 2/14/14 4/1/1 17/3/3
f 18/6/6 5/15/15 6/16/16
f 6/16/16 8/4/4 18/6/6
f 19/9/9 9/17/17 10/18/18
f 10/18/18 12/7/7 19/9/9
f 20/12/12 13/19/19 14/20/20
f 14/20/20 16/10/10 20/12/12
