# Blender v3.4.1 OBJ File: 'decoratives_and_entities.blend'
# www.blender.org
o Plane.003_Plane.004
v -0.306290 0.573902 -1.017715
v -0.574605 0.000000 -0.019152
v 0.306289 0.573902 -1.017715
v 0.574605 0.000000 -0.019152
v -1.017715 0.573902 0.306289
v -0.019152 0.000000 0.574605
v -1.017715 0.573902 -0.306289
v -0.019152 0.000000 -0.574605
v 0.306289 0.573902 1.017715
v 0.574605 0.000000 0.019152
v -0.306289 0.573902 1.017715
v -0.574605 0.000000 0.019152
v 1.017715 0.573902 -0.306290
v 0.019152 0.000000 -0.574605
v 1.017715 0.573902 0.306289
v 0.019152 0.000000 0.574605
v -0.000000 0.573902 -0.890853
v -0.890853 0.573902 -0.000000
v -0.000000 0.573902 0.890853
v 0.890853 0.573902 -0.000000
vt 1.000000 1.000000
vt 0.000000 1.000000
vt 0.000000 0.500000
vt 1.000000 1.000000
vt 0.000000 1.000000
vt 0.000000 0.500000
vt 1.000000 1.000000
vt 0.000000 1.000000
vt 0.000000 0.500000
vt 1.000000 1.000000
vt 0.000000 1.000000
vt 0.000000 0.500000
vt 0.000000 0.000000
vt 1.000000 0.000000
vt 0.000000 0.000000
vt 1.000000 0.000000
vt 0.000000 0.000000
vt 1.000000 0.000000
vt 0.000000 0.000000
vt 1.000000 0.000000
vn 0.0390 0.8462 0.5314
vn 0.1869 0.8726 0.4513
vn 0.0000 0.8750 0.4841
vn 0.5314 0.8462 -0.0390
vn 0.4513 0.8726 -0.1869
vn 0.4841 0.8750 0.0000
vn -0.0390 0.8462 -0.5314
vn -0.1869 0.8726 -0.4513
vn -0.0000 0.8750 -0.4841
vn -0.5314 0.8462 0.0390
vn -0.4513 0.8726 0.1869
vn -0.4841 0.8750 0.0000
vn -0.1869 0.8726 0.4513
vn -0.0390 0.8462 0.5314
vn 0.4513 0.8726 0.1869
vn 0.5314 0.8462 0.0390
vn 0.1869 0.8726 -0.4513
vn 0.0390 0.8462 -0.5314
vn -0.4513 0.8726 -0.1869
vn -0.5314 0.8462 -0.0390
s 1
f 4/1/1 3/2/2 17/3/3
f 8/4/4 7/5/5 18/6/6
f 12/7/7 11/8/8 19/9/9
f 16/10/10 15/11/11 20/12/12
f 17/3/3 1/13/13 2/14/14
f 2/14/14 4/1/1 17/3/3
f 18/6/6 5/15/15 6/16/16
f 6/16/16 8/4/4 18/6/6
f 19/9/9 9/17/17 10/18/18
f 10/18/18 12/7/7 19/9/9
f 20/12/12 13/19/19 14/20/20
f 14/20/20 16/10/10 20/12/12
