# Blender v3.4.1 OBJ File: 'decoratives_and_entities.blend'
# www.blender.org
o Icosphere_Icosphere.012
v -0.027207 -0.268481 -0.035983
v 0.540355 -0.125106 0.391214
v -0.221223 -0.124881 0.730302
v -0.829211 -0.130561 -0.011692
v -0.272435 -0.138206 -0.842896
v 0.690318 -0.131375 -0.513826
v 0.269231 0.129104 0.794076
v -0.686678 0.148214 0.494574
v -0.748896 0.117184 -0.463103
v 0.293428 0.144416 -0.757643
v 0.899590 0.138895 0.029002
v 0.021229 0.231300 0.067683
v -0.206440 -0.179995 0.624335
v -0.153419 -0.205619 0.392489
v -0.032884 -0.226508 0.271324
v 0.190343 -0.220722 0.123363
v 0.369090 -0.202040 0.159416
v 0.477096 -0.155690 0.312558
v 0.413263 -0.147760 0.531889
v 0.198982 -0.126660 0.657726
v -0.014591 -0.137070 0.661466
v 0.641930 -0.139130 -0.327978
v 0.569142 -0.137060 -0.077763
v 0.559237 -0.119554 0.199798
v 0.132960 -0.262569 -0.177051
v 0.426808 -0.266951 -0.302571
v 0.581628 -0.184450 -0.459942
v -0.595393 -0.172196 -0.010455
v -0.438028 -0.207474 -0.019881
v -0.165684 -0.248040 0.002049
v -0.400091 -0.136603 0.577958
v -0.575517 -0.156086 0.413290
v -0.704843 -0.137104 0.216349
v -0.228777 -0.204337 -0.718874
v -0.144829 -0.252755 -0.478791
v -0.025311 -0.268595 -0.242697
v -0.825719 -0.148329 -0.244807
v -0.707552 -0.164047 -0.520269
v -0.497435 -0.153505 -0.722790
v -0.031902 -0.157118 -0.871018
v 0.262994 -0.163655 -0.808799
v 0.549630 -0.158596 -0.671422
v 0.919773 0.087321 0.160382
v 0.867058 0.008355 0.213446
v 0.637527 -0.092652 0.296188
v 0.765462 -0.064857 -0.388302
v 0.819953 -0.002085 -0.283206
v 0.899222 0.077938 -0.087171
v 0.105415 0.102120 0.865175
v -0.034452 0.020724 0.933924
v -0.129728 -0.066470 0.798747
v 0.603361 -0.074671 0.590743
v 0.577598 0.009283 0.771933
v 0.412938 0.095502 0.788976
v -0.797394 0.080063 0.392103
v -0.821582 0.015573 0.266989
v -0.849978 -0.068535 0.066814
v -0.364439 -0.069843 0.680914
v -0.464629 -0.009064 0.697330
v -0.622308 0.066113 0.642592
v -0.637144 0.064355 -0.607454
v -0.594209 0.019543 -0.681064
v -0.487185 -0.058005 -0.764925
v -0.911103 -0.070408 -0.170194
v -0.932042 0.013705 -0.339057
v -0.839152 0.074231 -0.398507
v 0.412846 0.082828 -0.785519
v 0.520846 0.000394 -0.718522
v 0.644564 -0.075308 -0.628338
v -0.152447 -0.057482 -0.861439
v -0.052025 0.006687 -0.854083
v 0.129558 0.076305 -0.864020
v 0.913915 0.121160 0.190397
v 0.717675 0.161008 0.435663
v 0.476255 0.135760 0.689291
v 0.044451 0.154353 0.832199
v -0.220481 0.147766 0.752141
v -0.479246 0.164478 0.658800
v -0.736507 0.161649 0.270066
v -0.811110 0.145008 0.004633
v -0.848066 0.154657 -0.289200
v -0.617438 0.097508 -0.571951
v -0.141717 0.154060 -0.693178
v 0.033830 0.156387 -0.744079
v 0.460389 0.156986 -0.659168
v 0.623227 0.159460 -0.438617
v 0.775448 0.150521 -0.216027
v 0.080185 0.188410 0.226502
v 0.150349 0.249377 0.435196
v 0.223651 0.173768 0.776839
v 0.737558 0.205217 0.022136
v 0.436469 0.208677 0.002478
v 0.205041 0.252196 0.038244
v -0.122984 0.170430 0.140846
v -0.324912 0.180118 0.262366
v -0.562350 0.191224 0.407086
v -0.122923 0.170970 -0.063622
v -0.299139 0.163481 -0.201208
v -0.661209 0.141508 -0.401313
v 0.079320 0.236946 -0.131180
v 0.145241 0.173605 -0.367211
v 0.206642 0.161172 -0.605429
v 0.300310 0.191703 -0.197118
v 0.559677 0.205959 -0.255032
v 0.380923 0.174009 -0.420600
v -0.076603 0.169172 -0.293576
v -0.016160 0.161232 -0.536676
v -0.241594 0.152419 -0.429678
v -0.327715 0.172796 0.027038
v -0.555440 0.158853 -0.111248
v -0.547616 0.207980 0.141505
v -0.084489 0.232054 0.337083
v -0.285456 0.173125 0.496661
v -0.021469 0.237442 0.562796
v 0.314014 0.214582 0.232903
v 0.434290 0.222443 0.482578
v 0.602513 0.215850 0.233004
v 0.740575 0.091379 -0.344082
v 0.732582 0.006600 -0.543895
v 0.618615 0.082970 -0.587326
v -0.142002 0.053831 -0.799296
v -0.255688 0.019161 -0.812919
v -0.421733 0.063881 -0.720749
v -0.908745 0.097159 -0.159416
v -0.918882 -0.006296 -0.072870
v -0.898560 0.069902 0.103017
v -0.395577 0.080150 0.800086
v -0.281460 0.014279 0.854689
v -0.093097 0.094205 0.912701
v 0.670910 0.089363 0.689638
v 0.729515 -0.002230 0.530456
v 0.856341 0.073239 0.411526
v 0.228804 -0.004160 -0.864530
v 0.379229 -0.077697 -0.783907
v 0.147734 -0.080108 -0.864375
v -0.777236 -0.006845 -0.486921
v -0.668507 -0.084053 -0.667907
v -0.828961 -0.066108 -0.437703
v -0.710813 0.002131 0.495052
v -0.720552 -0.080142 0.338815
v -0.600129 -0.068209 0.617787
v 0.237095 -0.009699 0.776609
v 0.122505 -0.070696 0.679492
v 0.430185 -0.067862 0.700050
v 0.885319 -0.001670 -0.026412
v 0.647421 -0.082265 0.089108
v 0.777256 -0.065393 -0.153192
v 0.362197 -0.226903 -0.588405
v 0.108713 -0.256811 -0.405504
v 0.053968 -0.226639 -0.687796
v -0.446044 -0.225574 -0.527922
v -0.296508 -0.251950 -0.245103
v -0.531478 -0.205203 -0.259825
v -0.536030 -0.182843 0.211068
v -0.317453 -0.210211 0.186071
v -0.342676 -0.187871 0.443353
v 0.544591 -0.161815 -0.183788
v 0.502527 -0.150166 0.101821
v 0.350916 -0.241734 -0.009995
v 0.056417 -0.189923 0.483683
v 0.136011 -0.199533 0.402169
v 0.300942 -0.184225 0.487178
vt 0.181819 0.000000
vt 0.204546 0.039365
vt 0.159092 0.039365
vt 0.272728 0.157461
vt 0.295455 0.118096
vt 0.318182 0.157461
vt 0.909091 0.000000
vt 0.931818 0.039365
vt 0.886364 0.039365
vt 0.727273 0.000000
vt 0.750000 0.039365
vt 0.704546 0.039365
vt 0.545455 0.000000
vt 0.568182 0.039365
vt 0.522728 0.039365
vt 0.295455 0.196826
vt 0.090910 0.157461
vt 0.136364 0.157461
vt 0.113637 0.196826
vt 0.818182 0.157461
vt 0.863636 0.157461
vt 0.840909 0.196826
vt 0.636364 0.157461
vt 0.681818 0.157461
vt 0.659091 0.196826
vt 0.454546 0.157461
vt 0.500000 0.157461
vt 0.477273 0.196826
vt 0.250001 0.196826
vt 0.068182 0.196826
vt 0.795455 0.196826
vt 0.613637 0.196826
vt 0.431819 0.196826
vt 0.181819 0.314921
vt 0.227273 0.314921
vt 0.204546 0.354286
vt 0.000000 0.314921
vt 0.045455 0.314921
vt 0.022727 0.354286
vt 0.727273 0.314921
vt 0.772727 0.314921
vt 0.750000 0.354286
vt 0.545455 0.314921
vt 0.590909 0.314921
vt 0.568182 0.354286
vt 0.363637 0.314921
vt 0.409091 0.314921
vt 0.386364 0.354286
vt 0.431819 0.433017
vt 0.477273 0.433017
vt 0.454546 0.472382
vt 0.409091 0.393651
vt 0.454546 0.393651
vt 0.431819 0.354286
vt 0.500000 0.393651
vt 0.477273 0.354286
vt 0.522728 0.354286
vt 0.454546 0.314921
vt 0.500000 0.314921
vt 0.613637 0.433017
vt 0.659091 0.433017
vt 0.636364 0.472382
vt 0.590909 0.393651
vt 0.636364 0.393651
vt 0.613637 0.354286
vt 0.681818 0.393651
vt 0.659091 0.354286
vt 0.704546 0.354286
vt 0.636364 0.314921
vt 0.681818 0.314921
vt 0.795455 0.433017
vt 0.840909 0.433017
vt 0.818182 0.472382
vt 0.772727 0.393651
vt 0.818182 0.393651
vt 0.795455 0.354286
vt 0.863636 0.393651
vt 0.840909 0.354286
vt 0.886364 0.354286
vt 0.818182 0.314921
vt 0.863636 0.314921
vt 0.909091 0.314921
vt 0.068182 0.433017
vt 0.113637 0.433017
vt 0.090910 0.472382
vt 0.045455 0.393651
vt 0.090910 0.393651
vt 0.068182 0.354286
vt 0.136365 0.393651
vt 0.113637 0.354286
vt 0.159092 0.354286
vt 0.090909 0.314921
vt 0.136364 0.314921
vt 0.250001 0.433017
vt 0.295455 0.433017
vt 0.272728 0.472382
vt 0.227273 0.393651
vt 0.272728 0.393651
vt 0.250001 0.354286
vt 0.318182 0.393651
vt 0.295455 0.354286
vt 0.340910 0.354286
vt 0.272728 0.314921
vt 0.318182 0.314921
vt 0.386364 0.275556
vt 0.409091 0.236191
vt 0.431819 0.275556
vt 0.454546 0.236191
vt 0.477273 0.275556
vt 0.500000 0.236191
vt 0.522728 0.275556
vt 0.568182 0.275556
vt 0.590909 0.236191
vt 0.613637 0.275556
vt 0.636364 0.236191
vt 0.659091 0.275556
vt 0.681818 0.236191
vt 0.704546 0.275556
vt 0.750000 0.275556
vt 0.772727 0.236191
vt 0.795455 0.275556
vt 0.818182 0.236191
vt 0.840909 0.275556
vt 0.863636 0.236191
vt 0.886364 0.275556
vt 0.022727 0.275556
vt 0.045455 0.236191
vt 0.068182 0.275556
vt 0.090910 0.236191
vt 0.113637 0.275556
vt 0.136364 0.236191
vt 0.159092 0.275556
vt 0.204546 0.275556
vt 0.227273 0.236191
vt 0.250001 0.275556
vt 0.272728 0.236191
vt 0.295455 0.275556
vt 0.318182 0.236191
vt 0.340910 0.275556
vt 0.545455 0.236191
vt 0.522728 0.196826
vt 0.568182 0.196826
vt 0.545455 0.157461
vt 0.590909 0.157461
vt 0.727273 0.236191
vt 0.704546 0.196826
vt 0.750000 0.196826
vt 0.727273 0.157461
vt 0.772727 0.157461
vt 0.931818 0.275556
vt 0.909091 0.236191
vt 0.886364 0.196826
vt 0.954545 0.236191
vt 0.931818 0.196826
vt 0.977273 0.196826
vt 0.909091 0.157461
vt 0.954545 0.157461
vt 1.000000 0.157461
vt 0.181819 0.236191
vt 0.159092 0.196826
vt 0.204546 0.196826
vt 0.181819 0.157461
vt 0.227274 0.157461
vt 0.363637 0.236191
vt 0.340910 0.196826
vt 0.386364 0.196826
vt 0.363637 0.157461
vt 0.409092 0.157461
vt 0.477273 0.118096
vt 0.500000 0.078731
vt 0.522728 0.118096
vt 0.545455 0.078731
vt 0.568182 0.118096
vt 0.590909 0.078731
vt 0.613637 0.118096
vt 0.659091 0.118096
vt 0.681818 0.078731
vt 0.704546 0.118096
vt 0.727273 0.078731
vt 0.750000 0.118096
vt 0.772727 0.078731
vt 0.795455 0.118096
vt 0.840909 0.118096
vt 0.863636 0.078731
vt 0.886364 0.118096
vt 0.909091 0.078731
vt 0.931818 0.118096
vt 0.954545 0.078731
vt 0.977273 0.118096
vt 0.431819 0.118096
vt 0.386364 0.118096
vt 0.340910 0.118096
vt 0.409091 0.078731
vt 0.363637 0.078730
vt 0.386364 0.039365
vt 0.318182 0.078731
vt 0.340910 0.039365
vt 0.363637 0.000000
vt 0.113637 0.118096
vt 0.136365 0.078731
vt 0.159092 0.118096
vt 0.181819 0.078731
vt 0.204546 0.118096
vt 0.227273 0.078731
vt 0.250001 0.118096
vn -0.0137 -0.9973 0.0722
vn 0.0767 -0.9885 0.1303
vn 0.0041 -0.9914 0.1309
vn 0.3556 -0.9302 0.0912
vn 0.3423 -0.9372 0.0669
vn 0.3962 -0.9180 0.0173
vn -0.1174 -0.9892 0.0872
vn -0.0149 -0.9997 -0.0169
vn 0.0355 -0.9985 0.0408
vn 0.3984 -0.9158 0.0516
vn -0.2237 -0.7012 0.6769
vn 0.1584 -0.8520 0.4990
vn -0.0161 -0.8112 0.5845
vn -0.5387 -0.8255 0.1680
vn -0.4413 -0.8797 0.1772
vn -0.7990 -0.5246 0.2940
vn -0.2521 -0.4455 -0.8591
vn -0.3441 -0.7068 -0.6181
vn -0.4033 0.0729 -0.9122
vn 0.7206 -0.6439 -0.2572
vn 0.4676 -0.6497 -0.5994
vn 0.6975 -0.2145 -0.6837
vn 0.4299 -0.8507 0.3026
vn -0.3392 -0.7122 0.6146
vn -0.8625 -0.5059 0.0081
vn -0.1410 0.1591 -0.9772
vn 0.7917 -0.5871 -0.1686
vn 0.2431 0.6656 0.7057
vn 0.2331 0.8853 0.4024
vn 0.1684 0.8147 0.5549
vn -0.5387 0.7566 0.3706
vn -0.2477 0.8780 0.4095
vn -0.0996 0.9906 0.0937
vn -0.4184 0.7593 -0.4984
vn -0.5451 0.8126 -0.2063
vn -0.0400 0.9833 -0.1773
vn 0.1110 0.8885 -0.4452
vn -0.0850 0.9228 -0.3758
vn 0.0023 0.9977 -0.0682
vn 0.7583 0.6456 -0.0912
vn 0.5522 0.7725 -0.3135
vn 0.2366 0.9714 -0.0216
vn 0.0388 0.9987 0.0337
vn -0.0983 0.9841 -0.1480
vn -0.2212 0.9669 0.1269
vn 0.0502 0.9979 -0.0411
vn 0.0396 0.9897 -0.1375
vn 0.0858 0.9887 -0.1231
vn -0.0121 0.9924 -0.1228
vn -0.0041 0.9954 -0.0958
vn 0.4024 0.8709 -0.2822
vn 0.2951 0.8869 -0.3553
vn -0.1714 0.9846 -0.0333
vn -0.1035 0.9904 -0.0920
vn -0.0308 0.9990 -0.0338
vn -0.0312 0.9985 -0.0442
vn -0.0668 0.9959 -0.0610
vn -0.1329 0.9254 -0.3551
vn -0.2100 0.8864 -0.4126
vn -0.1137 0.9916 -0.0612
vn 0.0328 0.9978 -0.0576
vn -0.0332 0.9958 -0.0857
vn -0.0033 0.9998 -0.0221
vn -0.0457 0.9977 -0.0505
vn -0.3724 0.9273 0.0389
vn -0.4286 0.8966 0.1118
vn -0.0622 0.9975 -0.0322
vn -0.0979 0.9860 -0.1349
vn -0.1023 0.9913 0.0827
vn 0.0238 0.9995 -0.0201
vn -0.1030 0.9819 0.1592
vn -0.1580 0.9257 0.3436
vn 0.0336 0.8404 0.5410
vn 0.0148 0.9999 -0.0072
vn 0.1520 0.9753 0.1604
vn 0.1428 0.9888 0.0440
vn 0.3803 0.8931 0.2403
vn 0.8154 0.5525 0.1727
vn 0.9432 0.1617 -0.2901
vn 0.9433 -0.1517 -0.2953
vn 0.7404 0.5528 -0.3824
vn 0.8461 0.1652 -0.5068
vn 0.5918 0.6078 -0.5294
vn 0.5788 0.0609 -0.8132
vn 0.4364 0.3786 -0.8162
vn -0.0125 0.4626 -0.8865
vn -0.1192 0.3172 -0.9409
vn -0.1645 0.6823 -0.7123
vn -0.2174 0.5145 -0.8295
vn -0.2679 0.6934 -0.6690
vn -0.4807 0.4863 -0.7297
vn -0.5156 0.5860 -0.6251
vn -0.6938 0.4574 -0.5563
vn -0.9296 0.0577 -0.3639
vn -0.8469 0.5313 0.0231
vn -0.9754 -0.1649 0.1464
vn -0.9355 0.2627 0.2362
vn -0.8411 -0.4263 0.3328
vn -0.8970 0.2081 0.3899
vn -0.6718 0.0039 0.7407
vn -0.4169 -0.5248 0.7422
vn -0.4796 0.2716 0.8344
vn -0.3722 -0.3958 0.8395
vn -0.1535 0.5379 0.8289
vn 0.1111 -0.3284 0.9380
vn 0.3189 0.3180 0.8929
vn 0.1910 0.4220 0.8863
vn 0.4282 -0.2951 0.8541
vn 0.6707 0.3898 0.6311
vn 0.6575 -0.6659 0.3525
vn 0.9017 0.0560 0.4287
vn 0.6703 -0.7302 0.1322
vn 0.9866 -0.1520 0.0601
vn 0.2390 -0.0169 -0.9709
vn 0.4253 -0.1918 -0.8845
vn 0.1246 -0.1564 -0.9798
vn 0.2469 -0.6461 -0.7222
vn -0.0118 -0.5404 -0.8413
vn -0.7283 0.2192 -0.6492
vn -0.6704 -0.1775 -0.7204
vn -0.7886 -0.3566 -0.5009
vn -0.4956 -0.8167 -0.2956
vn -0.5126 -0.8548 -0.0812
vn -0.7858 -0.3792 0.4887
vn -0.6699 -0.6735 0.3126
vn -0.5820 -0.3913 0.7129
vn -0.3365 -0.9135 0.2287
vn -0.2450 -0.8787 0.4097
vn 0.1297 -0.6679 0.7329
vn 0.0882 -0.6726 0.7347
vn 0.1251 -0.8284 0.5460
vn 0.0279 -0.7485 0.6625
vn 0.2327 -0.9348 0.2682
vn 0.7649 -0.6435 -0.0301
vn 0.4000 -0.9146 0.0589
vn 0.5111 -0.8595 0.0106
vn 0.4100 -0.9057 0.1081
vn 0.4476 -0.8900 0.0871
vn 0.3982 -0.9161 -0.0476
vn 0.2880 -0.9573 0.0254
vn 0.1492 -0.9634 -0.2229
vn 0.0140 -0.9966 -0.0817
vn 0.0213 -0.9682 -0.2493
vn -0.0423 -0.9936 -0.1045
vn -0.1024 -0.9450 -0.3107
vn -0.1703 -0.9747 -0.1446
vn -0.1257 -0.9918 0.0239
vn -0.2003 -0.9791 0.0348
vn -0.1787 -0.9818 0.0639
vn -0.2040 -0.9775 0.0546
vn -0.1931 -0.9795 0.0582
vn -0.1108 -0.9904 0.0829
vn -0.1387 -0.9781 0.1550
vn -0.0361 -0.9934 0.1091
vn -0.0724 -0.9453 0.3181
vn 0.4646 -0.8741 0.1415
vn 0.4057 -0.9106 0.0793
vn 0.2213 -0.9634 0.1515
vn 0.2347 -0.9646 0.1201
vn 0.0389 -0.9767 0.2110
vn 0.0448 -0.9924 0.1150
vn 0.1297 -0.9673 0.2178
s 1
f 1/1/1 16/2/2 15/3/3
f 2/4/4 18/5/5 24/6/6
f 1/7/1 15/8/3 30/9/7
f 1/10/1 30/11/7 36/12/8
f 1/13/1 36/14/8 25/15/9
f 2/4/4 24/6/6 45/16/10
f 3/17/11 21/18/12 51/19/13
f 4/20/14 33/21/15 57/22/16
f 5/23/17 39/24/18 63/25/19
f 6/26/20 42/27/21 69/28/22
f 2/4/4 45/16/10 52/29/23
f 3/17/11 51/19/13 58/30/24
f 4/20/14 57/22/16 64/31/25
f 5/23/17 63/25/19 70/32/26
f 6/26/20 69/28/22 46/33/27
f 7/34/28 75/35/29 90/36/30
f 8/37/31 78/38/32 96/39/33
f 9/40/34 81/41/35 99/42/36
f 10/43/37 84/44/38 102/45/39
f 11/46/40 87/47/41 91/48/42
f 93/49/43 100/50/44 12/51/45
f 92/52/46 103/53/47 93/49/43
f 91/48/42 104/54/48 92/52/46
f 93/49/43 103/53/47 100/50/44
f 103/53/47 101/55/49 100/50/44
f 92/52/46 104/54/48 103/53/47
f 104/54/48 105/56/50 103/53/47
f 103/53/47 105/56/50 101/55/49
f 105/56/50 102/57/39 101/55/49
f 91/48/42 87/47/41 104/54/48
f 87/47/41 86/58/51 104/54/48
f 104/54/48 86/58/51 105/56/50
f 86/58/51 85/59/52 105/56/50
f 105/56/50 85/59/52 102/57/39
f 85/59/52 10/43/37 102/57/39
f 100/60/44 97/61/53 12/62/45
f 101/63/49 106/64/54 100/60/44
f 102/45/39 107/65/55 101/63/49
f 100/60/44 106/64/54 97/61/53
f 106/64/54 98/66/56 97/61/53
f 101/63/49 107/65/55 106/64/54
f 107/65/55 108/67/57 106/64/54
f 106/64/54 108/67/57 98/66/56
f 108/67/57 99/68/36 98/66/56
f 102/45/39 84/44/38 107/65/55
f 84/44/38 83/69/58 107/65/55
f 107/65/55 83/69/58 108/67/57
f 83/69/58 82/70/59 108/67/57
f 108/67/57 82/70/59 99/68/36
f 82/70/59 9/40/34 99/68/36
f 97/71/53 94/72/60 12/73/45
f 98/74/56 109/75/61 97/71/53
f 99/42/36 110/76/62 98/74/56
f 97/71/53 109/75/61 94/72/60
f 109/75/61 95/77/63 94/72/60
f 98/74/56 110/76/62 109/75/61
f 110/76/62 111/78/64 109/75/61
f 109/75/61 111/78/64 95/77/63
f 111/78/64 96/79/33 95/77/63
f 99/42/36 81/41/35 110/76/62
f 81/41/35 80/80/65 110/76/62
f 110/76/62 80/80/65 111/78/64
f 80/80/65 79/81/66 111/78/64
f 111/78/64 79/81/66 96/79/33
f 79/81/66 8/82/31 96/79/33
f 94/83/60 88/84/67 12/85/45
f 95/86/63 112/87/68 94/83/60
f 96/39/33 113/88/69 95/86/63
f 94/83/60 112/87/68 88/84/67
f 112/87/68 89/89/70 88/84/67
f 95/86/63 113/88/69 112/87/68
f 113/88/69 114/90/71 112/87/68
f 112/87/68 114/90/71 89/89/70
f 114/90/71 90/91/30 89/89/70
f 96/39/33 78/38/32 113/88/69
f 78/38/32 77/92/72 113/88/69
f 113/88/69 77/92/72 114/90/71
f 77/92/72 76/93/73 114/90/71
f 114/90/71 76/93/73 90/91/30
f 76/93/73 7/34/28 90/91/30
f 88/94/67 93/95/43 12/96/45
f 89/97/70 115/98/74 88/94/67
f 90/36/30 116/99/75 89/97/70
f 88/94/67 115/98/74 93/95/43
f 115/98/74 92/100/46 93/95/43
f 89/97/70 116/99/75 115/98/74
f 116/99/75 117/101/76 115/98/74
f 115/98/74 117/101/76 92/100/46
f 117/101/76 91/102/42 92/100/46
f 90/36/30 75/35/29 116/99/75
f 75/35/29 74/103/77 116/99/75
f 116/99/75 74/103/77 117/101/76
f 74/103/77 73/104/78 117/101/76
f 117/101/76 73/104/78 91/102/42
f 73/104/78 11/46/40 91/102/42
f 48/105/79 87/47/41 11/46/40
f 47/106/80 118/107/81 48/105/79
f 46/33/27 119/108/82 47/106/80
f 48/105/79 118/107/81 87/47/41
f 118/107/81 86/58/51 87/47/41
f 47/106/80 119/108/82 118/107/81
f 119/108/82 120/109/83 118/107/81
f 118/107/81 120/109/83 86/58/51
f 120/109/83 85/59/52 86/58/51
f 46/33/27 69/28/22 119/108/82
f 69/28/22 68/110/84 119/108/82
f 119/108/82 68/110/84 120/109/83
f 68/110/84 67/111/85 120/109/83
f 120/109/83 67/111/85 85/59/52
f 67/111/85 10/43/37 85/59/52
f 72/112/86 84/44/38 10/43/37
f 71/113/87 121/114/88 72/112/86
f 70/32/26 122/115/89 71/113/87
f 72/112/86 121/114/88 84/44/38
f 121/114/88 83/69/58 84/44/38
f 71/113/87 122/115/89 121/114/88
f 122/115/89 123/116/90 121/114/88
f 121/114/88 123/116/90 83/69/58
f 123/116/90 82/70/59 83/69/58
f 70/32/26 63/25/19 122/115/89
f 63/25/19 62/117/91 122/115/89
f 122/115/89 62/117/91 123/116/90
f 62/117/91 61/118/92 123/116/90
f 123/116/90 61/118/92 82/70/59
f 61/118/92 9/40/34 82/70/59
f 66/119/93 81/41/35 9/40/34
f 65/120/94 124/121/95 66/119/93
f 64/31/25 125/122/96 65/120/94
f 66/119/93 124/121/95 81/41/35
f 124/121/95 80/80/65 81/41/35
f 65/120/94 125/122/96 124/121/95
f 125/122/96 126/123/97 124/121/95
f 124/121/95 126/123/97 80/80/65
f 126/123/97 79/81/66 80/80/65
f 64/31/25 57/22/16 125/122/96
f 57/22/16 56/124/98 125/122/96
f 125/122/96 56/124/98 126/123/97
f 56/124/98 55/125/99 126/123/97
f 126/123/97 55/125/99 79/81/66
f 55/125/99 8/82/31 79/81/66
f 60/126/100 78/38/32 8/37/31
f 59/127/101 127/128/102 60/126/100
f 58/30/24 128/129/103 59/127/101
f 60/126/100 127/128/102 78/38/32
f 127/128/102 77/92/72 78/38/32
f 59/127/101 128/129/103 127/128/102
f 128/129/103 129/130/104 127/128/102
f 127/128/102 129/130/104 77/92/72
f 129/130/104 76/93/73 77/92/72
f 58/30/24 51/19/13 128/129/103
f 51/19/13 50/131/105 128/129/103
f 128/129/103 50/131/105 129/130/104
f 50/131/105 49/132/106 129/130/104
f 129/130/104 49/132/106 76/93/73
f 49/132/106 7/34/28 76/93/73
f 54/133/107 75/35/29 7/34/28
f 53/134/108 130/135/109 54/133/107
f 52/29/23 131/136/110 53/134/108
f 54/133/107 130/135/109 75/35/29
f 130/135/109 74/103/77 75/35/29
f 53/134/108 131/136/110 130/135/109
f 131/136/110 132/137/111 130/135/109
f 130/135/109 132/137/111 74/103/77
f 132/137/111 73/104/78 74/103/77
f 52/29/23 45/16/10 131/136/110
f 45/16/10 44/138/112 131/136/110
f 131/136/110 44/138/112 132/137/111
f 44/138/112 43/139/113 132/137/111
f 132/137/111 43/139/113 73/104/78
f 43/139/113 11/46/40 73/104/78
f 67/111/85 72/112/86 10/43/37
f 68/110/84 133/140/114 67/111/85
f 69/28/22 134/141/115 68/110/84
f 67/111/85 133/140/114 72/112/86
f 133/140/114 71/113/87 72/112/86
f 68/110/84 134/141/115 133/140/114
f 134/141/115 135/142/116 133/140/114
f 133/140/114 135/142/116 71/113/87
f 135/142/116 70/32/26 71/113/87
f 69/28/22 42/27/21 134/141/115
f 42/27/21 41/143/117 134/141/115
f 134/141/115 41/143/117 135/142/116
f 41/143/117 40/144/118 135/142/116
f 135/142/116 40/144/118 70/32/26
f 40/144/118 5/23/17 70/32/26
f 61/118/92 66/119/93 9/40/34
f 62/117/91 136/145/119 61/118/92
f 63/25/19 137/146/120 62/117/91
f 61/118/92 136/145/119 66/119/93
f 136/145/119 65/120/94 66/119/93
f 62/117/91 137/146/120 136/145/119
f 137/146/120 138/147/121 136/145/119
f 136/145/119 138/147/121 65/120/94
f 138/147/121 64/31/25 65/120/94
f 63/25/19 39/24/18 137/146/120
f 39/24/18 38/148/122 137/146/120
f 137/146/120 38/148/122 138/147/121
f 38/148/122 37/149/123 138/147/121
f 138/147/121 37/149/123 64/31/25
f 37/149/123 4/20/14 64/31/25
f 55/125/99 60/150/100 8/82/31
f 56/124/98 139/151/124 55/125/99
f 57/22/16 140/152/125 56/124/98
f 55/125/99 139/151/124 60/150/100
f 139/151/124 59/153/101 60/150/100
f 56/124/98 140/152/125 139/151/124
f 140/152/125 141/154/126 139/151/124
f 139/151/124 141/154/126 59/153/101
f 141/154/126 58/155/24 59/153/101
f 57/22/16 33/21/15 140/152/125
f 33/21/15 32/156/127 140/152/125
f 140/152/125 32/156/127 141/154/126
f 32/156/127 31/157/128 141/154/126
f 141/154/126 31/157/128 58/155/24
f 31/157/128 3/158/11 58/155/24
f 49/132/106 54/133/107 7/34/28
f 50/131/105 142/159/129 49/132/106
f 51/19/13 143/160/130 50/131/105
f 49/132/106 142/159/129 54/133/107
f 142/159/129 53/134/108 54/133/107
f 50/131/105 143/160/130 142/159/129
f 143/160/130 144/161/131 142/159/129
f 142/159/129 144/161/131 53/134/108
f 144/161/131 52/29/23 53/134/108
f 51/19/13 21/18/12 143/160/130
f 21/18/12 20/162/132 143/160/130
f 143/160/130 20/162/132 144/161/131
f 20/162/132 19/163/133 144/161/131
f 144/161/131 19/163/133 52/29/23
f 19/163/133 2/4/4 52/29/23
f 43/139/113 48/105/79 11/46/40
f 44/138/112 145/164/134 43/139/113
f 45/16/10 146/165/135 44/138/112
f 43/139/113 145/164/134 48/105/79
f 145/164/134 47/106/80 48/105/79
f 44/138/112 146/165/135 145/164/134
f 146/165/135 147/166/136 145/164/134
f 145/164/134 147/166/136 47/106/80
f 147/166/136 46/33/27 47/106/80
f 45/16/10 24/6/6 146/165/135
f 24/6/6 23/167/137 146/165/135
f 146/165/135 23/167/137 147/166/136
f 23/167/137 22/168/138 147/166/136
f 147/166/136 22/168/138 46/33/27
f 22/168/138 6/26/20 46/33/27
f 27/169/139 42/27/21 6/26/20
f 26/170/140 148/171/141 27/169/139
f 25/15/9 149/172/142 26/170/140
f 27/169/139 148/171/141 42/27/21
f 148/171/141 41/143/117 42/27/21
f 26/170/140 149/172/142 148/171/141
f 149/172/142 150/173/143 148/171/141
f 148/171/141 150/173/143 41/143/117
f 150/173/143 40/144/118 41/143/117
f 25/15/9 36/14/8 149/172/142
f 36/14/8 35/174/144 149/172/142
f 149/172/142 35/174/144 150/173/143
f 35/174/144 34/175/145 150/173/143
f 150/173/143 34/175/145 40/144/118
f 34/175/145 5/23/17 40/144/118
f 34/176/145 39/24/18 5/23/17
f 35/177/144 151/178/146 34/176/145
f 36/12/8 152/179/147 35/177/144
f 34/176/145 151/178/146 39/24/18
f 151/178/146 38/148/122 39/24/18
f 35/177/144 152/179/147 151/178/146
f 152/179/147 153/180/148 151/178/146
f 151/178/146 153/180/148 38/148/122
f 153/180/148 37/149/123 38/148/122
f 36/12/8 30/11/7 152/179/147
f 30/11/7 29/181/149 152/179/147
f 152/179/147 29/181/149 153/180/148
f 29/181/149 28/182/150 153/180/148
f 153/180/148 28/182/150 37/149/123
f 28/182/150 4/20/14 37/149/123
f 28/183/150 33/21/15 4/20/14
f 29/184/149 154/185/151 28/183/150
f 30/9/7 155/186/152 29/184/149
f 28/183/150 154/185/151 33/21/15
f 154/185/151 32/156/127 33/21/15
f 29/184/149 155/186/152 154/185/151
f 155/186/152 156/187/153 154/185/151
f 154/185/151 156/187/153 32/156/127
f 156/187/153 31/157/128 32/156/127
f 30/9/7 15/8/3 155/186/152
f 15/8/3 14/188/154 155/186/152
f 155/186/152 14/188/154 156/187/153
f 14/188/154 13/189/155 156/187/153
f 156/187/153 13/189/155 31/157/128
f 13/189/155 3/158/11 31/157/128
f 22/168/138 27/190/139 6/26/20
f 23/167/137 157/191/156 22/168/138
f 24/6/6 158/192/157 23/167/137
f 22/168/138 157/191/156 27/190/139
f 157/191/156 26/193/140 27/190/139
f 23/167/137 158/192/157 157/191/156
f 158/192/157 159/194/158 157/191/156
f 157/191/156 159/194/158 26/193/140
f 159/194/158 25/195/9 26/193/140
f 24/6/6 18/5/5 158/192/157
f 18/5/5 17/196/159 158/192/157
f 158/192/157 17/196/159 159/194/158
f 17/196/159 16/197/2 159/194/158
f 159/194/158 16/197/2 25/195/9
f 16/197/2 1/198/1 25/195/9
f 13/199/155 21/18/12 3/17/11
f 14/200/154 160/201/160 13/199/155
f 15/3/3 161/202/161 14/200/154
f 13/199/155 160/201/160 21/18/12
f 160/201/160 20/162/132 21/18/12
f 14/200/154 161/202/161 160/201/160
f 161/202/161 162/203/162 160/201/160
f 160/201/160 162/203/162 20/162/132
f 162/203/162 19/163/133 20/162/132
f 15/3/3 16/2/2 161/202/161
f 16/2/2 17/204/159 161/202/161
f 161/202/161 17/204/159 162/203/162
f 17/204/159 18/205/5 162/203/162
f 162/203/162 18/205/5 19/163/133
f 18/205/5 2/4/4 19/163/133
