# Blender v3.4.1 OBJ File: 'decoratives_and_entities.blend'
# www.blender.org
o Flower3_Plane.042
v -0.578342 0.291288 -0.118059
v -0.396809 0.291288 0.440641
v -0.261576 0.177310 -0.147911
v -0.120501 0.177310 0.286274
v -0.999996 0.148264 0.231611
v -0.940972 0.148264 0.413266
v -1.128732 0.178125 0.340031
v -1.108850 0.178125 0.401222
v -0.120212 0.081978 -0.097446
v -0.035797 0.081978 0.162354
v -0.293733 0.291289 0.515530
v 0.293719 0.291289 0.515530
v -0.228264 0.177310 0.207979
v 0.228264 0.177310 0.207979
v -0.095502 0.148264 1.027537
v 0.095502 0.148264 1.027536
v -0.032170 0.178125 1.183475
v 0.032170 0.178125 1.183475
v -0.136585 0.081978 0.089128
v 0.136585 0.081978 0.089128
v 0.396795 0.291289 0.440641
v 0.578328 0.291289 -0.118059
v 0.120501 0.177310 0.286274
v 0.261576 0.177310 -0.147911
v 0.940973 0.148264 0.413266
v 0.999996 0.148264 0.231611
v 1.108850 0.178125 0.401222
v 1.128732 0.178125 0.340031
v 0.035797 0.081978 0.162354
v 0.120212 0.081978 -0.097446
v 0.538956 0.291289 -0.239232
v 0.063697 0.291289 -0.584528
v 0.302738 0.177310 -0.021228
v -0.066601 0.177310 -0.289569
v 0.677055 0.148264 -0.762300
v 0.522530 0.148264 -0.874568
v 0.717477 0.178125 -0.925682
v 0.665425 0.178125 -0.963500
v 0.158709 0.081978 0.021037
v -0.062290 0.081978 -0.139528
v -0.063711 0.291289 -0.584528
v -0.538970 0.291288 -0.239232
v 0.066601 0.177310 -0.289569
v -0.302738 0.177310 -0.021228
v -0.522530 0.148264 -0.874568
v -0.677055 0.148264 -0.762299
v -0.665425 0.178125 -0.963500
v -0.717477 0.178125 -0.925682
v 0.062290 0.081978 -0.139528
v -0.158709 0.081978 0.021037
v -0.941615 0.222941 0.126612
v -0.817331 0.286810 0.001157
v -0.660228 0.286810 0.484669
v -0.833382 0.222941 0.459719
v -0.170336 0.223814 0.936921
v -0.246309 0.286811 0.779662
v 0.246295 0.286811 0.779662
v 0.170328 0.223814 0.936921
v 0.833279 0.222945 0.459997
v 0.660090 0.286811 0.485053
v 0.817442 0.286811 0.000772
v 0.941694 0.222945 0.126331
v 0.691537 0.221491 -0.648274
v 0.664528 0.286811 -0.474484
v 0.248631 0.286811 -0.776651
v 0.407452 0.221490 -0.854674
v -0.410740 0.221488 -0.852294
v -0.253309 0.286810 -0.773263
v -0.659879 0.286810 -0.477872
v -0.688268 0.221488 -0.650658
vt 1.000000 0.000000
vt 0.000000 1.000000
vt 0.000000 0.000000
vt 1.000000 0.000000
vt 0.000000 0.000000
vt 1.000000 0.000000
vt 1.000000 0.000000
vt 0.000000 0.000000
vt 1.000000 0.000000
vt 1.000000 0.000000
vt 1.000000 1.000000
vt 0.000000 1.000000
vt 1.000000 0.000000
vt 0.000000 1.000000
vt 0.000000 0.000000
vt 0.000000 0.000000
vt 1.000000 0.000000
vt 1.000000 0.000000
vt 1.000000 0.000000
vt 1.000000 0.000000
vt 1.000000 1.000000
vt 0.000000 1.000000
vt 0.000000 0.000000
vt 1.000000 1.000000
vt 0.000000 1.000000
vt 0.000000 0.000000
vt 1.000000 0.000000
vt 1.000000 0.000000
vt 1.000000 0.000000
vt 0.000000 0.000000
vt 1.000000 0.000000
vt 0.000000 0.000000
vt 1.000000 0.000000
vt 0.000000 1.000000
vt 0.000000 0.000000
vt 1.000000 1.000000
vt 0.000000 1.000000
vt 1.000000 0.000000
vt 0.000000 0.000000
vt 1.000000 0.000000
vt 1.000000 0.000000
vt 1.000000 0.000000
vt 0.000000 0.000000
vt 1.000000 0.000000
vt 0.000000 1.000000
vt 1.000000 0.000000
vt 0.000000 1.000000
vt 0.000000 0.000000
vt 1.000000 0.000000
vt 1.000000 0.000000
vt 1.000000 1.000000
vt 0.000000 1.000000
vt 0.000000 0.000000
vt 0.000000 0.000000
vt 0.000000 0.000000
vt 0.000000 0.000000
vt 0.000000 0.000000
vt 0.000000 0.000000
vt 0.000000 0.000000
vt 1.000000 0.000000
vt 0.000000 0.000000
vt 1.000000 1.000000
vt 0.000000 0.000000
vt 0.000000 0.000000
vt 1.000000 1.000000
vt 0.000000 0.000000
vt 1.000000 1.000000
vt 1.000000 1.000000
vt 1.000000 1.000000
vt 0.000000 0.000000
vn 0.1563 0.9864 -0.0508
vn 0.4310 0.8914 -0.1400
vn 0.1548 0.9867 -0.0503
vn -0.0000 0.8842 0.4670
vn -0.0000 0.7681 0.6404
vn -0.1554 0.9866 0.0505
vn 0.1789 0.9822 -0.0581
vn 0.4319 0.8910 -0.1403
vn 0.5951 0.7801 -0.1934
vn -0.0000 0.9860 -0.1669
vn -0.0000 0.8903 -0.4553
vn 0.4478 0.8822 0.1455
vn 0.6155 0.7624 0.2000
vn 0.4457 0.8834 0.1448
vn -0.0000 0.9871 0.1602
vn -0.0000 0.9822 -0.1881
vn -0.0000 0.7801 -0.6257
vn -0.1562 0.9864 -0.0508
vn -0.4310 0.8914 -0.1400
vn -0.4319 0.8910 -0.1403
vn 0.2813 0.8781 -0.3871
vn 0.3869 0.7528 -0.5326
vn 0.2805 0.8788 -0.3860
vn -0.1547 0.9867 -0.0503
vn 0.1554 0.9866 0.0505
vn 0.1541 0.9868 0.0501
vn -0.1789 0.9822 -0.0581
vn -0.5951 0.7801 -0.1934
vn -0.0947 0.9869 0.1304
vn -0.2649 0.8927 0.3646
vn -0.2652 0.8924 0.3651
vn -0.2824 0.8771 -0.3886
vn -0.3869 0.7527 -0.5326
vn 0.0972 0.9862 -0.1338
vn -0.0942 0.9871 0.1296
vn -0.1105 0.9822 0.1522
vn -0.3678 0.7801 0.5062
vn 0.0955 0.9867 0.1315
vn 0.2649 0.8927 0.3646
vn 0.0950 0.9869 0.1307
vn -0.0975 0.9862 -0.1341
vn 0.1105 0.9822 0.1522
vn 0.3678 0.7801 0.5062
vn -0.4459 0.8833 0.1449
vn -0.1540 0.9868 0.0501
vn 0.0977 0.9861 -0.1345
vn -0.2815 0.8778 -0.3875
vn -0.0969 0.9863 -0.1334
vn -0.4480 0.8821 0.1456
vn -0.6155 0.7624 0.2000
vn 0.2652 0.8924 0.3651
s 1
f 2/1/1 3/2/2 1/3/3
f 58/4/4 15/5/5 16/6/5
f 1/3/3 53/7/6 2/1/1
f 5/8/7 8/9/7 6/10/7
f 4/11/8 9/12/9 3/2/2
f 12/13/10 13/14/11 11/15/10
f 59/16/12 26/17/13 62/18/14
f 11/15/10 57/19/15 12/13/10
f 15/5/16 18/20/16 16/6/16
f 14/21/11 19/22/17 13/14/11
f 21/23/18 24/24/19 23/25/20
f 63/26/21 36/27/22 66/28/23
f 22/29/24 60/30/25 61/31/26
f 26/17/27 27/32/27 28/33/27
f 24/24/19 29/34/28 23/25/20
f 31/35/29 34/36/30 33/37/31
f 70/38/32 45/39/33 46/40/33
f 31/35/29 65/41/34 32/42/35
f 36/27/36 37/43/36 38/44/36
f 34/36/30 39/45/37 33/37/31
f 42/46/38 43/47/39 41/48/40
f 41/48/40 69/49/41 42/46/38
f 45/39/42 48/50/42 46/40/42
f 43/47/39 50/51/43 49/52/43
f 51/53/44 53/7/6 52/54/45
f 55/55/4 57/19/15 56/56/15
f 62/18/14 60/30/25 59/16/12
f 66/28/23 64/57/46 63/26/21
f 67/58/47 69/49/41 68/59/48
f 54/60/49 5/8/50 6/10/50
f 2/1/1 4/11/8 3/2/2
f 58/4/4 55/55/4 15/5/5
f 1/3/3 52/54/45 53/7/6
f 5/8/7 7/61/7 8/9/7
f 4/11/8 10/62/9 9/12/9
f 12/13/10 14/21/11 13/14/11
f 59/16/12 25/63/13 26/17/13
f 11/15/10 56/56/15 57/19/15
f 15/5/16 17/64/16 18/20/16
f 14/21/11 20/65/17 19/22/17
f 21/23/18 22/29/24 24/24/19
f 63/26/21 35/66/22 36/27/22
f 22/29/24 21/23/18 60/30/25
f 26/17/27 25/63/27 27/32/27
f 24/24/19 30/67/28 29/34/28
f 31/35/29 32/42/35 34/36/30
f 70/38/32 67/58/47 45/39/33
f 31/35/29 64/57/46 65/41/34
f 36/27/36 35/66/36 37/43/36
f 34/36/30 40/68/37 39/45/37
f 42/46/38 44/69/51 43/47/39
f 41/48/40 68/59/48 69/49/41
f 45/39/42 47/70/42 48/50/42
f 43/47/39 44/69/51 50/51/43
f 51/53/44 54/60/49 53/7/6
f 55/55/4 58/4/4 57/19/15
f 62/18/14 61/31/26 60/30/25
f 66/28/23 65/41/34 64/57/46
f 67/58/47 70/38/32 69/49/41
f 54/60/49 51/53/44 5/8/50
