# Blender v3.4.1 OBJ File: 'decoratives_and_entities.blend'
# www.blender.org
o Tree_Flower_Plane.078
v -0.302042 0.140260 -0.061657
v -0.207236 0.140260 0.230128
v -0.136610 0.102824 -0.077247
v -0.062932 0.102824 0.149508
v -0.466264 0.138325 0.020262
v -0.388245 0.138325 0.260381
v -0.522254 0.093284 0.120961
v -0.491428 0.093284 0.215831
v -0.589487 0.103092 0.177584
v -0.579103 0.103092 0.209541
v -0.062781 0.071512 -0.050892
v -0.018695 0.071512 0.084791
v -0.153404 0.140260 0.269239
v 0.153397 0.140260 0.269239
v -0.119213 0.102824 0.108618
v 0.119212 0.102824 0.108618
v -0.120816 0.138325 0.450738
v 0.120809 0.138325 0.450737
v -0.049876 0.093284 0.536637
v 0.049876 0.093284 0.536637
v -0.016801 0.103092 0.618077
v 0.016801 0.103092 0.618077
v -0.071332 0.071512 0.046548
v 0.071332 0.071512 0.046548
v 0.207229 0.140260 0.230127
v 0.302035 0.140260 -0.061657
v 0.062932 0.102824 0.149508
v 0.136610 0.102824 -0.077247
v 0.388152 0.138325 0.260645
v 0.466343 0.138325 0.019998
v 0.491429 0.093284 0.215831
v 0.522254 0.093284 0.120960
v 0.579104 0.103092 0.209540
v 0.589487 0.103092 0.177583
v 0.018695 0.071512 0.084791
v 0.062781 0.071512 -0.050892
v 0.281473 0.140260 -0.124940
v 0.033266 0.140260 -0.305273
v 0.158107 0.102824 -0.011086
v -0.034783 0.102824 -0.151229
v 0.367760 0.138325 -0.286594
v 0.160344 0.138325 -0.437291
v 0.353596 0.093284 -0.398116
v 0.272894 0.093284 -0.456749
v 0.374707 0.103092 -0.483443
v 0.347522 0.103092 -0.503194
v 0.082887 0.071512 0.010987
v -0.032531 0.071512 -0.072870
v -0.033274 0.140260 -0.305273
v -0.281481 0.140260 -0.124940
v 0.034783 0.102824 -0.151229
v -0.158107 0.102824 -0.011086
v -0.163556 0.138325 -0.434963
v -0.364563 0.138325 -0.288922
v -0.272894 0.093284 -0.456749
v -0.353596 0.093284 -0.398115
v -0.347522 0.103092 -0.503194
v -0.374707 0.103092 -0.483443
v 0.032531 0.071512 -0.072870
v -0.082887 0.071512 0.010987
vt 1.000000 0.000000
vt 0.000000 1.000000
vt 0.000000 0.000000
vt 0.000000 0.000000
vt 1.000000 0.000000
vt 0.000000 0.000000
vt 1.000000 0.000000
vt 0.000000 0.000000
vt 1.000000 0.000000
vt 1.000000 1.000000
vt 0.000000 1.000000
vt 1.000000 0.000000
vt 0.000000 1.000000
vt 0.000000 0.000000
vt 1.000000 0.000000
vt 0.000000 0.000000
vt 1.000000 0.000000
vt 1.000000 0.000000
vt 1.000000 1.000000
vt 0.000000 1.000000
vt 0.000000 0.000000
vt 1.000000 1.000000
vt 0.000000 1.000000
vt 1.000000 0.000000
vt 1.000000 0.000000
vt 0.000000 0.000000
vt 1.000000 0.000000
vt 0.000000 0.000000
vt 1.000000 0.000000
vt 0.000000 1.000000
vt 0.000000 0.000000
vt 1.000000 1.000000
vt 0.000000 1.000000
vt 1.000000 0.000000
vt 0.000000 0.000000
vt 1.000000 0.000000
vt 1.000000 0.000000
vt 0.000000 0.000000
vt 1.000000 0.000000
vt 0.000000 1.000000
vt 1.000000 0.000000
vt 0.000000 1.000000
vt 0.000000 0.000000
vt 1.000000 0.000000
vt 0.000000 0.000000
vt 1.000000 0.000000
vt 1.000000 0.000000
vt 1.000000 1.000000
vt 0.000000 1.000000
vt 1.000000 1.000000
vt 0.000000 0.000000
vt 0.000000 0.000000
vt 1.000000 1.000000
vt 0.000000 0.000000
vt 1.000000 1.000000
vt 0.000000 0.000000
vt 1.000000 1.000000
vt 1.000000 1.000000
vt 0.000000 0.000000
vt 0.000000 0.000000
vn 0.1009 0.9944 -0.0328
vn 0.2912 0.9520 -0.0946
vn 0.0999 0.9945 -0.0325
vn -0.1629 0.9852 0.0529
vn -0.1660 0.9846 0.0539
vn -0.2654 0.9603 0.0862
vn -0.2638 0.9607 0.0857
vn 0.1137 0.9928 -0.0369
vn 0.2919 0.9517 -0.0948
vn 0.4283 0.8928 -0.1392
vn -0.0000 0.9942 -0.1078
vn -0.0000 0.9515 -0.3078
vn -0.0000 0.9848 0.1736
vn -0.0000 0.9626 0.2709
vn -0.0000 0.9928 -0.1196
vn -0.0000 0.8928 -0.4504
vn -0.1009 0.9944 -0.0328
vn -0.2912 0.9520 -0.0946
vn -0.2919 0.9517 -0.0948
vn 0.1628 0.9852 0.0529
vn -0.0999 0.9945 -0.0325
vn 0.1659 0.9847 0.0539
vn 0.2655 0.9603 0.0863
vn 0.2639 0.9607 0.0858
vn -0.1137 0.9928 -0.0369
vn -0.4283 0.8928 -0.1392
vn -0.0611 0.9946 0.0841
vn -0.1789 0.9525 0.2463
vn -0.1792 0.9524 0.2466
vn -0.0608 0.9946 0.0836
vn 0.1033 0.9844 -0.1422
vn 0.1021 0.9848 -0.1405
vn 0.1694 0.9576 -0.2331
vn 0.1688 0.9579 -0.2323
vn -0.0703 0.9928 0.0967
vn -0.2647 0.8928 0.3644
vn 0.0616 0.9945 0.0849
vn 0.1789 0.9525 0.2463
vn 0.0613 0.9946 0.0843
vn -0.1044 0.9841 -0.1437
vn -0.1685 0.9580 -0.2319
vn -0.1679 0.9584 -0.2310
vn 0.0703 0.9928 0.0967
vn 0.2647 0.8928 0.3644
vn 0.1792 0.9524 0.2466
vn -0.1032 0.9845 -0.1420
s 1
f 2/1/1 3/2/2 1/3/3
f 2/1/1 5/4/4 6/5/5
f 6/5/5 7/6/6 8/7/7
f 8/7/7 9/8/8 10/9/8
f 4/10/9 11/11/10 3/2/2
f 14/12/11 15/13/12 13/14/11
f 13/14/11 18/15/13 14/12/11
f 18/15/13 19/16/14 20/17/14
f 19/16/14 22/18/15 20/17/14
f 16/19/12 23/20/16 15/13/12
f 25/21/17 28/22/18 27/23/19
f 25/21/17 30/24/20 26/25/21
f 29/26/22 32/27/23 30/24/20
f 31/28/24 34/29/25 32/27/23
f 28/22/18 35/30/26 27/23/19
f 37/31/27 40/32/28 39/33/29
f 38/34/30 41/35/31 42/36/32
f 41/35/31 44/37/33 42/36/32
f 43/38/34 46/39/35 44/37/33
f 40/32/28 47/40/36 39/33/29
f 50/41/37 51/42/38 49/43/39
f 49/43/39 54/44/40 50/41/37
f 54/44/40 55/45/41 56/46/42
f 55/45/41 58/47/43 56/46/42
f 51/42/38 60/48/44 59/49/44
f 2/1/1 4/10/9 3/2/2
f 2/1/1 1/3/3 5/4/4
f 6/5/5 5/4/4 7/6/6
f 8/7/7 7/6/6 9/8/8
f 4/10/9 12/50/10 11/11/10
f 14/12/11 16/19/12 15/13/12
f 13/14/11 17/51/13 18/15/13
f 18/15/13 17/51/13 19/16/14
f 19/16/14 21/52/15 22/18/15
f 16/19/12 24/53/16 23/20/16
f 25/21/17 26/25/21 28/22/18
f 25/21/17 29/26/22 30/24/20
f 29/26/22 31/28/24 32/27/23
f 31/28/24 33/54/25 34/29/25
f 28/22/18 36/55/26 35/30/26
f 37/31/27 38/34/30 40/32/28
f 38/34/30 37/31/27 41/35/31
f 41/35/31 43/38/34 44/37/33
f 43/38/34 45/56/35 46/39/35
f 40/32/28 48/57/36 47/40/36
f 50/41/37 52/58/45 51/42/38
f 49/43/39 53/59/46 54/44/40
f 54/44/40 53/59/46 55/45/41
f 55/45/41 57/60/43 58/47/43
f 51/42/38 52/58/45 60/48/44
