# Blender v3.4.1 OBJ File: 'decoratives_and_entities.blend'
# www.blender.org
o Vine_Leaf_Plane.065
v -0.421014 0.317510 -0.001459
v 0.421014 0.317510 -0.001459
v -0.472017 -0.058546 -0.146178
v 0.472017 -0.058546 -0.146178
v -0.297435 0.546903 0.138900
v 0.297435 0.546903 0.138900
v -0.347519 -0.473298 -0.240803
v 0.347519 -0.473298 -0.240803
v -0.042166 -0.927139 -0.307230
v 0.042166 -0.927139 -0.307230
v -0.151510 0.622887 0.161898
v 0.151510 0.622887 0.161898
v 0.000000 0.334590 -0.057895
v 0.000000 -0.041465 -0.202614
v 0.000000 0.563984 0.082465
v 0.000000 -0.456218 -0.297239
v 0.000000 -0.925159 -0.313772
v 0.000000 0.628384 0.143736
vt 1.000000 0.000000
vt 0.500000 1.000000
vt 0.500000 0.000000
vt 0.000000 0.000000
vt 0.500000 0.000000
vt 1.000000 1.000000
vt 0.500000 1.000000
vt 1.000000 1.000000
vt 0.500000 1.000000
vt 0.000000 0.000000
vt 0.500000 0.000000
vt 1.000000 0.000000
vt 1.000000 0.000000
vt 0.000000 1.000000
vt 0.000000 1.000000
vt 0.000000 1.000000
vt 0.000000 0.000000
vt 1.000000 1.000000
vn 0.1317 0.4511 -0.8827
vn -0.0000 0.2855 -0.9584
vn 0.0000 0.4537 -0.8912
vn -0.1591 0.5575 -0.8148
vn -0.0000 0.5911 -0.8066
vn 0.1509 0.1429 -0.9782
vn 0.0000 0.1313 -0.9913
vn 0.1571 0.0350 -0.9870
vn 0.0000 0.0352 -0.9994
vn -0.1694 0.6091 -0.7748
vn 0.0000 0.6893 -0.7245
vn 0.1694 0.6091 -0.7748
vn 0.1591 0.5575 -0.8148
vn -0.1571 0.0350 -0.9870
vn -0.1509 0.1429 -0.9782
vn -0.1240 0.2848 -0.9505
vn -0.1317 0.4511 -0.8827
vn 0.1240 0.2848 -0.9505
s 1
f 2/1/1 14/2/2 13/3/3
f 13/3/3 5/4/4 15/5/5
f 14/2/2 8/6/6 16/7/7
f 16/7/7 10/8/8 17/9/9
f 15/5/5 11/10/10 18/11/11
f 15/5/5 12/12/12 6/13/13
f 16/7/7 9/14/14 7/15/15
f 14/2/2 7/15/15 3/16/16
f 13/3/3 6/13/13 2/1/1
f 1/17/17 14/2/2 3/16/16
f 2/1/1 4/18/18 14/2/2
f 13/3/3 1/17/17 5/4/4
f 14/2/2 4/18/18 8/6/6
f 16/7/7 8/6/6 10/8/8
f 15/5/5 5/4/4 11/10/10
f 15/5/5 18/11/11 12/12/12
f 16/7/7 17/9/9 9/14/14
f 14/2/2 16/7/7 7/15/15
f 13/3/3 15/5/5 6/13/13
f 1/17/17 13/3/3 14/2/2
