# Blender v3.4.1 OBJ File: 'decoratives_and_entities.blend'
# www.blender.org
o Vine_Flower_Plane.070
v -0.302042 0.100486 -0.235513
v -0.207236 0.391160 -0.210082
v -0.136610 0.081692 -0.199578
v -0.062932 0.307585 -0.179815
v -0.466264 0.181925 -0.226445
v -0.388245 0.421130 -0.205518
v -0.522254 0.278314 -0.172799
v -0.491428 0.372824 -0.164531
v -0.589487 0.335577 -0.177635
v -0.579103 0.367412 -0.174849
v -0.062781 0.105219 -0.166088
v -0.018695 0.240385 -0.154263
v -0.153404 0.430122 -0.206674
v 0.153397 0.430123 -0.206674
v -0.119213 0.266851 -0.183379
v 0.119212 0.266851 -0.183379
v -0.120816 0.610762 -0.188927
v 0.120809 0.610762 -0.188927
v -0.049876 0.692409 -0.136571
v 0.049876 0.692409 -0.136571
v -0.016801 0.774394 -0.139243
v 0.016801 0.774394 -0.139243
v -0.071332 0.202287 -0.157596
v 0.071332 0.202287 -0.157596
v 0.207229 0.391160 -0.210082
v 0.302035 0.100486 -0.235513
v 0.062932 0.307585 -0.179815
v 0.136610 0.081692 -0.199578
v 0.388152 0.421393 -0.205495
v 0.466343 0.181662 -0.226469
v 0.491429 0.372824 -0.164531
v 0.522254 0.278314 -0.172799
v 0.579104 0.367412 -0.174850
v 0.589487 0.335576 -0.177635
v 0.018695 0.240385 -0.154263
v 0.062781 0.105219 -0.166088
v 0.281473 0.037443 -0.241029
v 0.033266 -0.142203 -0.256746
v 0.158107 0.147602 -0.193812
v -0.034783 0.007992 -0.206026
v 0.367760 -0.123764 -0.253190
v 0.160344 -0.273887 -0.266324
v 0.353596 -0.238786 -0.218040
v 0.272894 -0.297197 -0.223150
v 0.374707 -0.322935 -0.235247
v 0.347522 -0.342610 -0.236969
v 0.082887 0.166862 -0.160695
v -0.032531 0.083324 -0.168004
v -0.033274 -0.142203 -0.256746
v -0.281481 0.037444 -0.241029
v 0.034783 0.007992 -0.206026
v -0.158107 0.147602 -0.193812
v -0.163556 -0.271568 -0.266121
v -0.364563 -0.126083 -0.253393
v -0.272894 -0.297196 -0.223150
v -0.353596 -0.238786 -0.218040
v -0.347522 -0.342610 -0.236968
v -0.374707 -0.322934 -0.235247
v 0.032531 0.083324 -0.168004
v -0.082887 0.166862 -0.160695
vt 1.000000 0.000000
vt 0.000000 1.000000
vt 0.000000 0.000000
vt 0.000000 0.000000
vt 1.000000 0.000000
vt 0.000000 0.000000
vt 1.000000 0.000000
vt 1.000000 0.000000
vt 1.000000 1.000000
vt 0.000000 1.000000
vt 1.000000 0.000000
vt 0.000000 1.000000
vt 0.000000 0.000000
vt 1.000000 0.000000
vt 0.000000 0.000000
vt 1.000000 0.000000
vt 1.000000 0.000000
vt 1.000000 1.000000
vt 0.000000 1.000000
vt 0.000000 0.000000
vt 1.000000 1.000000
vt 0.000000 1.000000
vt 1.000000 0.000000
vt 1.000000 0.000000
vt 0.000000 0.000000
vt 1.000000 0.000000
vt 0.000000 0.000000
vt 1.000000 0.000000
vt 0.000000 1.000000
vt 0.000000 0.000000
vt 1.000000 1.000000
vt 0.000000 1.000000
vt 1.000000 0.000000
vt 1.000000 0.000000
vt 0.000000 0.000000
vt 1.000000 0.000000
vt 0.000000 0.000000
vt 1.000000 0.000000
vt 1.000000 1.000000
vt 0.000000 1.000000
vt 1.000000 0.000000
vt 0.000000 1.000000
vt 0.000000 0.000000
vt 1.000000 0.000000
vt 0.000000 0.000000
vt 1.000000 0.000000
vt 1.000000 0.000000
vt 1.000000 1.000000
vt 0.000000 1.000000
vt 0.000000 0.000000
vt 1.000000 1.000000
vt 0.000000 0.000000
vt 0.000000 0.000000
vt 1.000000 1.000000
vt 0.000000 0.000000
vt 1.000000 1.000000
vt 0.000000 0.000000
vt 1.000000 1.000000
vt 0.000000 0.000000
vt 0.000000 0.000000
vn 0.1009 0.0540 -0.9934
vn 0.2912 -0.0113 -0.9566
vn 0.0999 0.0543 -0.9935
vn -0.1629 0.1386 -0.9769
vn -0.1660 0.1396 -0.9762
vn -0.2654 0.1696 -0.9491
vn -0.2638 0.1691 -0.9496
vn 0.1137 0.0497 -0.9923
vn 0.2919 -0.0115 -0.9564
vn 0.4283 -0.0608 -0.9016
vn -0.0000 -0.0207 -0.9998
vn -0.0000 -0.2237 -0.9747
vn -0.0000 0.2588 -0.9659
vn -0.0000 0.3538 -0.9353
vn -0.0000 -0.0326 -0.9995
vn -0.0000 -0.3709 -0.9287
vn -0.1009 0.0540 -0.9934
vn -0.2912 -0.0113 -0.9566
vn -0.2919 -0.0115 -0.9564
vn 0.1628 0.1386 -0.9769
vn -0.0999 0.0543 -0.9935
vn 0.1659 0.1395 -0.9762
vn 0.2655 0.1696 -0.9491
vn 0.2639 0.1692 -0.9496
vn -0.1137 0.0497 -0.9923
vn -0.4283 -0.0608 -0.9016
vn -0.0611 0.1705 -0.9835
vn -0.1789 0.3283 -0.9275
vn -0.1792 0.3287 -0.9273
vn 0.1021 -0.0542 -0.9933
vn -0.0608 0.1700 -0.9836
vn 0.1033 -0.0559 -0.9931
vn 0.1694 -0.1488 -0.9743
vn -0.0703 0.1829 -0.9806
vn -0.2647 0.4408 -0.8577
vn 0.0616 0.1712 -0.9833
vn 0.1789 0.3283 -0.9275
vn 0.0613 0.1707 -0.9834
vn -0.1044 -0.0574 -0.9929
vn -0.1685 -0.1475 -0.9746
vn -0.1679 -0.1466 -0.9748
vn 0.0703 0.1829 -0.9806
vn 0.2647 0.4408 -0.8577
vn 0.1688 -0.1479 -0.9745
vn 0.1792 0.3287 -0.9273
vn -0.1032 -0.0556 -0.9931
s 1
f 2/1/1 3/2/2 1/3/3
f 2/1/1 5/4/4 6/5/5
f 6/5/5 7/6/6 8/7/7
f 7/6/6 10/8/8 8/7/7
f 4/9/9 11/10/10 3/2/2
f 14/11/11 15/12/12 13/13/11
f 13/13/11 18/14/13 14/11/11
f 18/14/13 19/15/14 20/16/14
f 19/15/14 22/17/15 20/16/14
f 16/18/12 23/19/16 15/12/12
f 25/20/17 28/21/18 27/22/19
f 25/20/17 30/23/20 26/24/21
f 29/25/22 32/26/23 30/23/20
f 31/27/24 34/28/25 32/26/23
f 28/21/18 35/29/26 27/22/19
f 37/30/27 40/31/28 39/32/29
f 37/30/27 42/33/30 38/34/31
f 41/35/32 44/36/33 42/33/30
f 44/36/33 45/37/34 46/38/34
f 39/32/29 48/39/35 47/40/35
f 50/41/36 51/42/37 49/43/38
f 49/43/38 54/44/39 50/41/36
f 54/44/39 55/45/40 56/46/41
f 55/45/40 58/47/42 56/46/41
f 51/42/37 60/48/43 59/49/43
f 2/1/1 4/9/9 3/2/2
f 2/1/1 1/3/3 5/4/4
f 6/5/5 5/4/4 7/6/6
f 7/6/6 9/50/8 10/8/8
f 4/9/9 12/51/10 11/10/10
f 14/11/11 16/18/12 15/12/12
f 13/13/11 17/52/13 18/14/13
f 18/14/13 17/52/13 19/15/14
f 19/15/14 21/53/15 22/17/15
f 16/18/12 24/54/16 23/19/16
f 25/20/17 26/24/21 28/21/18
f 25/20/17 29/25/22 30/23/20
f 29/25/22 31/27/24 32/26/23
f 31/27/24 33/55/25 34/28/25
f 28/21/18 36/56/26 35/29/26
f 37/30/27 38/34/31 40/31/28
f 37/30/27 41/35/32 42/33/30
f 41/35/32 43/57/44 44/36/33
f 44/36/33 43/57/44 45/37/34
f 39/32/29 40/31/28 48/39/35
f 50/41/36 52/58/45 51/42/37
f 49/43/38 53/59/46 54/44/39
f 54/44/39 53/59/46 55/45/40
f 55/45/40 57/60/42 58/47/42
f 51/42/37 52/58/45 60/48/43
