# Blender v3.4.1 OBJ File: 'decoratives_and_entities.blend'
# www.blender.org
o Lamppost_Stand_Cube.019
v -0.098442 -0.904321 0.098442
v -0.098442 0.904321 0.098442
v -0.098442 -0.904321 -0.098442
v -0.098442 0.904321 -0.098442
v 0.098442 -0.904321 0.098442
v 0.098442 0.904321 0.098442
v 0.098442 -0.904321 -0.098442
v 0.098442 0.904321 -0.098442
v -0.141179 -0.943151 0.141179
v -0.115685 -0.631392 0.115685
v -0.141179 -0.943151 -0.141179
v -0.115685 -0.631392 -0.115685
v 0.141179 -0.943151 0.141179
v 0.115685 -0.631392 0.115685
v 0.141179 -0.943151 -0.141179
v 0.115685 -0.631392 -0.115685
vt 0.625000 0.000000
vt 0.375000 0.250000
vt 0.375000 0.000000
vt 0.625000 0.250000
vt 0.375000 0.500000
vt 0.625000 0.500000
vt 0.375000 0.750000
vt 0.625000 0.750000
vt 0.375000 1.000000
vt 0.125000 0.750000
vt 0.125000 0.500000
vt 0.875000 0.500000
vt 0.375000 0.000000
vt 0.625000 0.250000
vt 0.375000 0.250000
vt 0.625000 0.500000
vt 0.375000 0.500000
vt 0.625000 0.750000
vt 0.375000 0.750000
vt 0.625000 1.000000
vt 0.375000 1.000000
vt 0.125000 0.750000
vt 0.125000 0.500000
vt 0.875000 0.500000
vt 0.625000 1.000000
vt 0.875000 0.750000
vt 0.625000 0.000000
vt 0.875000 0.750000
vn -1.0000 0.0000 0.0000
vn 0.0000 0.0000 -1.0000
vn 1.0000 0.0000 0.0000
vn 0.0000 0.0000 1.0000
vn 0.0000 -1.0000 0.0000
vn 0.0000 1.0000 0.0000
vn -0.9967 0.0815 0.0000
vn 0.0000 0.0815 -0.9967
vn 0.9967 0.0815 0.0000
vn 0.0000 0.0815 0.9967
s off
f 2/1/1 3/2/1 1/3/1
f 4/4/2 7/5/2 3/2/2
f 8/6/3 5/7/3 7/5/3
f 6/8/4 1/9/4 5/7/4
f 7/5/5 1/10/5 3/11/5
f 4/12/6 6/8/6 8/6/6
f 9/13/7 12/14/7 11/15/7
f 11/15/8 16/16/8 15/17/8
f 15/17/9 14/18/9 13/19/9
f 13/19/10 10/20/10 9/21/10
f 15/17/5 9/22/5 11/23/5
f 12/24/6 14/18/6 16/16/6
f 2/1/1 4/4/1 3/2/1
f 4/4/2 8/6/2 7/5/2
f 8/6/3 6/8/3 5/7/3
f 6/8/4 2/25/4 1/9/4
f 7/5/5 5/7/5 1/10/5
f 4/12/6 2/26/6 6/8/6
f 9/13/7 10/27/7 12/14/7
f 11/15/8 12/14/8 16/16/8
f 15/17/9 16/16/9 14/18/9
f 13/19/10 14/18/10 10/20/10
f 15/17/5 13/19/5 9/22/5
f 12/24/6 10/28/6 14/18/6
o Lamppost_Frame_Cube.022
v -0.568005 0.793969 0.023779
v -0.568005 0.841526 0.023779
v -0.568005 0.793969 -0.023779
v -0.568005 0.841526 -0.023779
v -0.039534 0.793969 0.023779
v -0.039534 0.841526 0.023779
v -0.039534 0.793969 -0.023779
v -0.039534 0.841526 -0.023779
v -0.118105 0.364184 0.120513
v -0.118105 0.416592 0.120513
v -0.118105 0.364184 -0.120513
v -0.118105 0.416592 -0.120513
v 0.128835 0.364184 0.120513
v 0.128835 0.416592 0.120513
v 0.128835 0.364184 -0.120513
v 0.128835 0.416592 -0.120513
v -0.118105 -0.163685 0.120513
v -0.118105 -0.111277 0.120513
v -0.118105 -0.163685 -0.120513
v -0.118105 -0.111277 -0.120513
v 0.128835 -0.163685 0.120513
v 0.128835 -0.111277 0.120513
v 0.128835 -0.163685 -0.120513
v 0.128835 -0.111277 -0.120513
v -0.516554 0.231771 0.119226
v -0.516554 0.282266 0.119226
v -0.516554 0.231771 -0.119226
v -0.516554 0.282266 -0.119226
v -0.278101 0.231771 0.119226
v -0.278101 0.282266 0.119226
v -0.278101 0.231771 -0.119226
v -0.278101 0.282266 -0.119226
v -0.516554 0.584907 0.119226
v -0.516554 0.635402 0.119226
v -0.516554 0.584907 -0.119226
v -0.516554 0.635402 -0.119226
v -0.278101 0.584907 0.119226
v -0.278101 0.635402 0.119226
v -0.278101 0.584907 -0.119226
v -0.278101 0.635402 -0.119226
v -0.508575 0.275359 0.112816
v -0.508575 0.606290 0.112816
v -0.508575 0.275359 0.084811
v -0.508575 0.606290 0.084811
v -0.482070 0.275359 0.112816
v -0.482070 0.606290 0.112816
v -0.482070 0.275359 0.084811
v -0.482070 0.606290 0.084811
v -0.508575 0.275359 -0.084460
v -0.508575 0.606290 -0.084460
v -0.508575 0.275359 -0.112466
v -0.508575 0.606290 -0.112466
v -0.482070 0.275359 -0.084460
v -0.482070 0.606290 -0.084460
v -0.482070 0.275359 -0.112466
v -0.482070 0.606290 -0.112466
v -0.312836 0.275359 0.112816
v -0.312836 0.606290 0.112816
v -0.312836 0.275359 0.084811
v -0.312836 0.606290 0.084811
v -0.286331 0.275359 0.112816
v -0.286331 0.606290 0.112816
v -0.286331 0.275359 0.084811
v -0.286331 0.606290 0.084811
v -0.312836 0.275359 -0.084460
v -0.312836 0.606290 -0.084460
v -0.312836 0.275359 -0.112466
v -0.312836 0.606290 -0.112466
v -0.286331 0.275359 -0.084460
v -0.286331 0.606290 -0.084460
v -0.286331 0.275359 -0.112466
v -0.286331 0.606290 -0.112466
v -0.409127 0.615495 0.011026
v -0.409127 0.808307 0.011026
v -0.409127 0.615495 -0.011026
v -0.409127 0.808307 -0.011026
v -0.387075 0.615495 0.011026
v -0.387075 0.808307 0.011026
v -0.387075 0.615495 -0.011026
v -0.387075 0.808307 -0.011026
vt 0.625000 0.000000
vt 0.375000 0.250000
vt 0.375000 0.000000
vt 0.625000 0.250000
vt 0.375000 0.500000
vt 0.625000 0.500000
vt 0.375000 0.750000
vt 0.625000 0.750000
vt 0.375000 1.000000
vt 0.125000 0.750000
vt 0.125000 0.500000
vt 0.875000 0.500000
vt 0.625000 0.000000
vt 0.375000 0.250000
vt 0.375000 0.000000
vt 0.625000 0.250000
vt 0.375000 0.500000
vt 0.625000 0.500000
vt 0.375000 0.750000
vt 0.625000 0.750000
vt 0.375000 1.000000
vt 0.125000 0.750000
vt 0.125000 0.500000
vt 0.875000 0.500000
vt 0.625000 0.000000
vt 0.375000 0.250000
vt 0.375000 0.000000
vt 0.625000 0.250000
vt 0.375000 0.500000
vt 0.625000 0.500000
vt 0.375000 0.750000
vt 0.625000 0.750000
vt 0.375000 1.000000
vt 0.125000 0.750000
vt 0.125000 0.500000
vt 0.875000 0.500000
vt 0.625000 0.000000
vt 0.375000 0.250000
vt 0.375000 0.000000
vt 0.625000 0.250000
vt 0.375000 0.500000
vt 0.625000 0.500000
vt 0.375000 0.750000
vt 0.625000 0.750000
vt 0.375000 1.000000
vt 0.125000 0.750000
vt 0.125000 0.500000
vt 0.875000 0.500000
vt 0.625000 0.000000
vt 0.375000 0.250000
vt 0.375000 0.000000
vt 0.625000 0.250000
vt 0.375000 0.500000
vt 0.625000 0.500000
vt 0.375000 0.750000
vt 0.625000 0.750000
vt 0.375000 1.000000
vt 0.125000 0.750000
vt 0.125000 0.500000
vt 0.875000 0.500000
vt 0.625000 0.000000
vt 0.375000 0.250000
vt 0.375000 0.000000
vt 0.625000 0.250000
vt 0.375000 0.500000
vt 0.625000 0.500000
vt 0.375000 0.750000
vt 0.625000 0.750000
vt 0.375000 1.000000
vt 0.125000 0.750000
vt 0.125000 0.500000
vt 0.875000 0.500000
vt 0.625000 0.000000
vt 0.375000 0.250000
vt 0.375000 0.000000
vt 0.625000 0.250000
vt 0.375000 0.500000
vt 0.625000 0.500000
vt 0.375000 0.750000
vt 0.625000 0.750000
vt 0.375000 1.000000
vt 0.125000 0.750000
vt 0.125000 0.500000
vt 0.875000 0.500000
vt 0.625000 0.000000
vt 0.375000 0.250000
vt 0.375000 0.000000
vt 0.625000 0.250000
vt 0.375000 0.500000
vt 0.625000 0.500000
vt 0.375000 0.750000
vt 0.625000 0.750000
vt 0.375000 1.000000
vt 0.125000 0.750000
vt 0.125000 0.500000
vt 0.875000 0.500000
vt 0.625000 0.000000
vt 0.375000 0.250000
vt 0.375000 0.000000
vt 0.625000 0.250000
vt 0.375000 0.500000
vt 0.625000 0.500000
vt 0.375000 0.750000
vt 0.625000 0.750000
vt 0.375000 1.000000
vt 0.125000 0.750000
vt 0.125000 0.500000
vt 0.875000 0.500000
vt 0.625000 0.000000
vt 0.375000 0.250000
vt 0.375000 0.000000
vt 0.625000 0.250000
vt 0.375000 0.500000
vt 0.625000 0.500000
vt 0.375000 0.750000
vt 0.625000 0.750000
vt 0.375000 1.000000
vt 0.125000 0.750000
vt 0.125000 0.500000
vt 0.875000 0.500000
vt 0.625000 1.000000
vt 0.875000 0.750000
vt 0.625000 1.000000
vt 0.875000 0.750000
vt 0.625000 1.000000
vt 0.875000 0.750000
vt 0.625000 1.000000
vt 0.875000 0.750000
vt 0.625000 1.000000
vt 0.875000 0.750000
vt 0.625000 1.000000
vt 0.875000 0.750000
vt 0.625000 1.000000
vt 0.875000 0.750000
vt 0.625000 1.000000
vt 0.875000 0.750000
vt 0.625000 1.000000
vt 0.875000 0.750000
vt 0.625000 1.000000
vt 0.875000 0.750000
vn -1.0000 0.0000 0.0000
vn 0.0000 0.0000 -1.0000
vn 1.0000 0.0000 0.0000
vn 0.0000 0.0000 1.0000
vn 0.0000 -1.0000 0.0000
vn 0.0000 1.0000 0.0000
s off
f 18/29/11 19/30/11 17/31/11
f 20/32/12 23/33/12 19/30/12
f 24/34/13 21/35/13 23/33/13
f 22/36/14 17/37/14 21/35/14
f 23/33/15 17/38/15 19/39/15
f 20/40/16 22/36/16 24/34/16
f 26/41/11 27/42/11 25/43/11
f 28/44/12 31/45/12 27/42/12
f 32/46/13 29/47/13 31/45/13
f 30/48/14 25/49/14 29/47/14
f 31/45/15 25/50/15 27/51/15
f 28/52/16 30/48/16 32/46/16
f 34/53/11 35/54/11 33/55/11
f 36/56/12 39/57/12 35/54/12
f 40/58/13 37/59/13 39/57/13
f 38/60/14 33/61/14 37/59/14
f 39/57/15 33/62/15 35/63/15
f 36/64/16 38/60/16 40/58/16
f 42/65/11 43/66/11 41/67/11
f 44/68/12 47/69/12 43/66/12
f 48/70/13 45/71/13 47/69/13
f 46/72/14 41/73/14 45/71/14
f 47/69/15 41/74/15 43/75/15
f 44/76/16 46/72/16 48/70/16
f 50/77/11 51/78/11 49/79/11
f 52/80/12 55/81/12 51/78/12
f 56/82/13 53/83/13 55/81/13
f 54/84/14 49/85/14 53/83/14
f 55/81/15 49/86/15 51/87/15
f 52/88/16 54/84/16 56/82/16
f 58/89/11 59/90/11 57/91/11
f 60/92/12 63/93/12 59/90/12
f 64/94/13 61/95/13 63/93/13
f 62/96/14 57/97/14 61/95/14
f 63/93/15 57/98/15 59/99/15
f 60/100/16 62/96/16 64/94/16
f 66/101/11 67/102/11 65/103/11
f 68/104/12 71/105/12 67/102/12
f 72/106/13 69/107/13 71/105/13
f 70/108/14 65/109/14 69/107/14
f 71/105/15 65/110/15 67/111/15
f 68/112/16 70/108/16 72/106/16
f 74/113/11 75/114/11 73/115/11
f 76/116/12 79/117/12 75/114/12
f 80/118/13 77/119/13 79/117/13
f 78/120/14 73/121/14 77/119/14
f 79/117/15 73/122/15 75/123/15
f 76/124/16 78/120/16 80/118/16
f 82/125/11 83/126/11 81/127/11
f 84/128/12 87/129/12 83/126/12
f 88/130/13 85/131/13 87/129/13
f 86/132/14 81/133/14 85/131/14
f 87/129/15 81/134/15 83/135/15
f 84/136/16 86/132/16 88/130/16
f 90/137/11 91/138/11 89/139/11
f 92/140/12 95/141/12 91/138/12
f 96/142/13 93/143/13 95/141/13
f 94/144/14 89/145/14 93/143/14
f 95/141/15 89/146/15 91/147/15
f 92/148/16 94/144/16 96/142/16
f 18/29/11 20/32/11 19/30/11
f 20/32/12 24/34/12 23/33/12
f 24/34/13 22/36/13 21/35/13
f 22/36/14 18/149/14 17/37/14
f 23/33/15 21/35/15 17/38/15
f 20/40/16 18/150/16 22/36/16
f 26/41/11 28/44/11 27/42/11
f 28/44/12 32/46/12 31/45/12
f 32/46/13 30/48/13 29/47/13
f 30/48/14 26/151/14 25/49/14
f 31/45/15 29/47/15 25/50/15
f 28/52/16 26/152/16 30/48/16
f 34/53/11 36/56/11 35/54/11
f 36/56/12 40/58/12 39/57/12
f 40/58/13 38/60/13 37/59/13
f 38/60/14 34/153/14 33/61/14
f 39/57/15 37/59/15 33/62/15
f 36/64/16 34/154/16 38/60/16
f 42/65/11 44/68/11 43/66/11
f 44/68/12 48/70/12 47/69/12
f 48/70/13 46/72/13 45/71/13
f 46/72/14 42/155/14 41/73/14
f 47/69/15 45/71/15 41/74/15
f 44/76/16 42/156/16 46/72/16
f 50/77/11 52/80/11 51/78/11
f 52/80/12 56/82/12 55/81/12
f 56/82/13 54/84/13 53/83/13
f 54/84/14 50/157/14 49/85/14
f 55/81/15 53/83/15 49/86/15
f 52/88/16 50/158/16 54/84/16
f 58/89/11 60/92/11 59/90/11
f 60/92/12 64/94/12 63/93/12
f 64/94/13 62/96/13 61/95/13
f 62/96/14 58/159/14 57/97/14
f 63/93/15 61/95/15 57/98/15
f 60/100/16 58/160/16 62/96/16
f 66/101/11 68/104/11 67/102/11
f 68/104/12 72/106/12 71/105/12
f 72/106/13 70/108/13 69/107/13
f 70/108/14 66/161/14 65/109/14
f 71/105/15 69/107/15 65/110/15
f 68/112/16 66/162/16 70/108/16
f 74/113/11 76/116/11 75/114/11
f 76/116/12 80/118/12 79/117/12
f 80/118/13 78/120/13 77/119/13
f 78/120/14 74/163/14 73/121/14
f 79/117/15 77/119/15 73/122/15
f 76/124/16 74/164/16 78/120/16
f 82/125/11 84/128/11 83/126/11
f 84/128/12 88/130/12 87/129/12
f 88/130/13 86/132/13 85/131/13
f 86/132/14 82/165/14 81/133/14
f 87/129/15 85/131/15 81/134/15
f 84/136/16 82/166/16 86/132/16
f 90/137/11 92/140/11 91/138/11
f 92/140/12 96/142/12 95/141/12
f 96/142/13 94/144/13 93/143/13
f 94/144/14 90/167/14 89/145/14
f 95/141/15 93/143/15 89/146/15
f 92/148/16 90/168/16 94/144/16
o Lamppost_Light_Cube.030
v -0.497003 0.258869 0.099676
v -0.497003 0.622780 0.099676
v -0.497003 0.258869 -0.099676
v -0.497003 0.622780 -0.099676
v -0.297651 0.258869 0.099676
v -0.297651 0.622780 0.099676
v -0.297651 0.258869 -0.099676
v -0.297651 0.622780 -0.099676
vt 0.625000 0.000000
vt 0.375000 0.250000
vt 0.375000 0.000000
vt 0.625000 0.250000
vt 0.375000 0.500000
vt 0.625000 0.500000
vt 0.375000 0.750000
vt 0.625000 0.750000
vt 0.375000 1.000000
vt 0.125000 0.750000
vt 0.125000 0.500000
vt 0.875000 0.500000
vt 0.625000 1.000000
vt 0.875000 0.750000
vn -1.0000 0.0000 0.0000
vn 0.0000 0.0000 -1.0000
vn 1.0000 0.0000 0.0000
vn 0.0000 0.0000 1.0000
vn 0.0000 -1.0000 0.0000
vn 0.0000 1.0000 0.0000
s off
f 98/169/17 99/170/17 97/171/17
f 100/172/18 103/173/18 99/170/18
f 104/174/19 101/175/19 103/173/19
f 102/176/20 97/177/20 101/175/20
f 103/173/21 97/178/21 99/179/21
f 100/180/22 102/176/22 104/174/22
f 98/169/17 100/172/17 99/170/17
f 100/172/18 104/174/18 103/173/18
f 104/174/19 102/176/19 101/175/19
f 102/176/20 98/181/20 97/177/20
f 103/173/21 101/175/21 97/178/21
f 100/180/22 98/182/22 102/176/22
