# Blender v3.4.1 OBJ File: 'decoratives_and_entities.blend'
# www.blender.org
o Wind_Chimes_Hook_2_Cube.032
v -0.102547 0.677077 -0.047689
v -0.109123 0.713615 -0.047689
v -0.102547 0.677077 0.041668
v -0.109123 0.713615 0.041668
v 0.012118 0.674503 0.041668
v 0.012118 0.674503 -0.047689
v 0.013577 0.711600 -0.047689
v 0.013577 0.711600 0.041668
v 0.123516 0.647264 0.041668
v 0.123516 0.647264 -0.047689
v 0.132969 0.683165 -0.047689
v 0.132969 0.683165 0.041668
v 0.226377 0.596560 0.041668
v 0.226377 0.596560 -0.047689
v 0.243377 0.629564 -0.047689
v 0.243377 0.629564 0.041668
v 0.315826 0.524794 0.041668
v 0.315826 0.524794 -0.047689
v 0.339567 0.553336 -0.047689
v 0.339567 0.553336 0.041668
v 0.387622 0.435369 0.041668
v 0.387622 0.435369 -0.047689
v 0.416977 0.458096 -0.047689
v 0.416977 0.458096 0.041668
v 0.438360 0.332524 0.041668
v 0.438360 0.332524 -0.047689
v 0.471939 0.348359 -0.047689
v 0.471939 0.348359 0.041668
v 0.465637 0.221135 0.041668
v 0.465637 0.221135 -0.047689
v 0.501846 0.229327 -0.047689
v 0.501846 0.229327 0.041668
v 0.468157 0.106483 0.041668
v 0.468157 0.106483 -0.047689
v 0.505282 0.106644 -0.047689
v 0.505282 0.106644 0.041668
v 0.445803 -0.005997 0.041668
v 0.445803 -0.005997 -0.047689
v 0.482082 -0.013875 -0.047689
v 0.482082 -0.013875 0.041668
v 0.399634 -0.110972 0.041668
v 0.399634 -0.110972 -0.047689
v 0.433347 -0.126516 -0.047689
v 0.433347 -0.126516 0.041668
v 0.331838 -0.203466 0.041668
v 0.331838 -0.203466 -0.047689
v 0.361388 -0.225939 -0.047689
v 0.361388 -0.225939 0.041668
v 0.245629 -0.279094 0.041668
v 0.245629 -0.279094 -0.047689
v 0.269615 -0.307430 -0.047689
v 0.269615 -0.307430 0.041668
v 0.145095 -0.334270 0.041668
v 0.145095 -0.334270 -0.047689
v 0.162380 -0.367126 -0.047689
v 0.162380 -0.367126 0.041668
v 0.035239 -0.401170 0.041668
v 0.033354 -0.402096 -0.047689
v 0.051046 -0.434722 -0.047689
v 0.051046 -0.434722 0.041668
v -0.213231 0.657604 0.041668
v -0.213231 0.657604 -0.047689
v -0.227559 0.691852 -0.047689
v -0.227559 0.691852 0.041668
v -0.309276 0.604390 0.041668
v -0.309276 0.604390 -0.047689
v -0.330677 0.634725 -0.047689
v -0.330677 0.634725 0.041668
v -0.388214 0.529168 0.045165
v -0.388214 0.529168 -0.044191
v -0.415674 0.554152 -0.044191
v -0.415674 0.554152 0.045165
v -0.485265 0.449643 0.045165
v -0.485265 0.449643 -0.044191
v -0.452794 0.437634 -0.044191
v -0.452794 0.437634 0.045165
v -0.088538 -0.497570 0.043659
v -0.090178 -0.498883 -0.045698
v -0.065844 -0.526906 -0.045698
v -0.065844 -0.526906 0.043659
v -0.171843 -0.592262 0.045547
v -0.173117 -0.593933 -0.043810
v -0.142726 -0.615236 -0.043810
v -0.142726 -0.615236 0.045547
v -0.221806 -0.710114 0.047384
v -0.222638 -0.712043 -0.041973
v -0.187996 -0.725362 -0.041973
v -0.187996 -0.725362 0.047384
v -0.237867 -0.827351 0.049069
v -0.238207 -0.829425 -0.040288
v -0.201373 -0.833967 -0.040288
v -0.201373 -0.833967 0.049069
v -0.223535 -0.935147 0.050508
v -0.223364 -0.937241 -0.038849
v -0.186524 -0.932738 -0.038849
v -0.186524 -0.932738 0.050508
v -0.184444 -1.026370 0.051638
v -0.183771 -1.028360 -0.037719
v -0.149116 -1.015078 -0.037719
v -0.149115 -1.015078 0.051638
v -0.127670 -1.096649 0.052442
v -0.126474 -1.098377 -0.036915
v -0.096822 -1.076057 -0.036915
v -0.096822 -1.076057 0.052442
v -0.058564 -1.141158 0.052930
v -0.056850 -1.142373 -0.036427
v -0.036620 -1.111258 -0.036427
v -0.036620 -1.111258 0.052930
v 0.021606 -1.159225 0.053314
v 0.023632 -1.159781 -0.036042
v 0.032000 -1.123622 -0.036042
v 0.032000 -1.123622 0.053314
v 0.103802 -1.148622 0.053798
v 0.105889 -1.148378 -0.035558
v 0.100103 -1.111718 -0.035558
v 0.100103 -1.111718 0.053798
v 0.179608 -1.119410 0.054597
v 0.181365 -1.118258 -0.034760
v 0.159799 -1.088054 -0.034760
v 0.159799 -1.088054 0.054597
v 0.234050 -1.063350 0.055561
v 0.234834 -1.061395 -0.033794
v 0.206781 -1.048862 -0.033866
v 0.206937 -1.048938 0.055489
v 0.261742 -0.992942 0.056453
v 0.261810 -0.990837 -0.032902
v 0.231161 -0.988654 -0.032974
v 0.231334 -0.988672 0.056380
v 0.258570 -0.920650 0.057271
v 0.257899 -0.918652 -0.032084
v 0.231938 -0.926191 -0.032168
v 0.232120 -0.926146 0.057187
v 0.231196 -0.866806 0.057820
v 0.230048 -0.865046 -0.031532
v 0.211916 -0.878528 -0.031564
v 0.211903 -0.878537 0.057788
v -0.516029 0.336357 0.045165
v -0.484862 0.333467 0.045165
v -0.516029 0.336357 -0.044191
v -0.484862 0.333467 -0.044191
v -0.507401 0.219892 0.045165
v -0.481526 0.228652 0.045165
v -0.507401 0.219892 -0.044191
v -0.481526 0.228652 -0.044191
vt 0.625000 1.000000
vt 0.375000 1.000000
vt 0.375000 1.000000
vt 0.875000 0.500000
vt 0.875000 0.750000
vt 0.875000 0.750000
vt 0.375000 0.250000
vt 0.625000 0.250000
vt 0.625000 0.250000
vt 0.125000 0.750000
vt 0.125000 0.500000
vt 0.125000 0.500000
vt 0.375000 0.250000
vt 0.625000 0.250000
vt 0.375000 1.000000
vt 0.625000 1.000000
vt 0.375000 1.000000
vt 0.375000 0.250000
vt 0.625000 0.250000
vt 0.625000 1.000000
vt 0.375000 1.000000
vt 0.875000 0.500000
vt 0.875000 0.750000
vt 0.125000 0.750000
vt 0.125000 0.500000
vt 0.875000 0.500000
vt 0.875000 0.750000
vt 0.875000 0.750000
vt 0.625000 1.000000
vt 0.375000 1.000000
vt 0.875000 0.500000
vt 0.125000 0.750000
vt 0.125000 0.500000
vt 0.375000 0.250000
vt 0.625000 0.250000
vt 0.625000 0.250000
vt 0.125000 0.500000
vt 0.375000 0.250000
vt 0.625000 1.000000
vt 0.375000 1.000000
vt 0.375000 1.000000
vt 0.625000 1.000000
vt 0.375000 1.000000
vt 0.625000 1.000000
vt 0.875000 0.500000
vt 0.875000 0.750000
vt 0.125000 0.750000
vt 0.125000 0.500000
vt 0.875000 0.500000
vt 0.875000 0.750000
vt 0.875000 0.750000
vt 0.875000 0.500000
vt 0.125000 0.750000
vt 0.125000 0.500000
vt 0.375000 0.250000
vt 0.625000 0.250000
vt 0.375000 0.250000
vt 0.625000 0.250000
vt 0.625000 0.250000
vt 0.125000 0.750000
vt 0.125000 0.500000
vt 0.375000 0.250000
vt 0.625000 1.000000
vt 0.375000 1.000000
vt 0.875000 0.500000
vt 0.875000 0.750000
vt 0.875000 0.750000
vt 0.625000 1.000000
vt 0.375000 1.000000
vt 0.875000 0.500000
vt 0.125000 0.750000
vt 0.125000 0.500000
vt 0.875000 0.500000
vt 0.875000 0.750000
vt 0.125000 0.750000
vt 0.125000 0.500000
vt 0.375000 0.250000
vt 0.625000 0.250000
vt 0.625000 1.000000
vt 0.375000 1.000000
vt 0.375000 0.250000
vt 0.625000 0.250000
vt 0.625000 0.250000
vt 0.125000 0.500000
vt 0.375000 0.250000
vt 0.625000 1.000000
vt 0.375000 1.000000
vt 0.875000 0.500000
vt 0.875000 0.750000
vt 0.875000 0.750000
vt 0.625000 1.000000
vt 0.375000 1.000000
vt 0.875000 0.500000
vt 0.125000 0.750000
vt 0.125000 0.500000
vt 0.125000 0.750000
vt 0.125000 0.500000
vt 0.125000 0.500000
vt 0.375000 0.250000
vt 0.625000 0.250000
vt 0.625000 1.000000
vt 0.375000 1.000000
vt 0.375000 0.250000
vt 0.625000 0.250000
vt 0.875000 0.500000
vt 0.875000 0.750000
vt 0.875000 0.750000
vt 0.875000 0.500000
vt 0.625000 0.250000
vt 0.375000 0.250000
vt 0.625000 0.250000
vt 0.875000 0.750000
vt 0.375000 0.250000
vt 0.125000 0.750000
vt 0.125000 0.500000
vt 0.375000 0.250000
vt 0.625000 0.250000
vt 0.375000 0.250000
vt 0.125000 0.500000
vt 0.125000 0.750000
vt 0.625000 1.000000
vt 0.375000 1.000000
vt 0.625000 1.000000
vt 0.875000 0.500000
vt 0.875000 0.750000
vt 0.875000 0.500000
vt 0.625000 1.000000
vt 0.875000 0.750000
vt 0.125000 0.750000
vt 0.875000 0.750000
vt 0.875000 0.500000
vt 0.125000 0.500000
vt 0.125000 0.750000
vt 0.625000 0.250000
vt 0.375000 0.250000
vt 0.375000 1.000000
vt 0.625000 1.000000
vt 0.125000 0.500000
vt 0.125000 0.750000
vt 0.375000 1.000000
vt 0.625000 1.000000
vt 0.625000 0.250000
vt 0.375000 0.250000
vt 0.375000 0.250000
vt 0.875000 0.500000
vt 0.875000 0.750000
vt 0.875000 0.750000
vt 0.125000 0.750000
vt 0.125000 0.500000
vt 0.625000 1.000000
vt 0.375000 1.000000
vt 0.875000 0.500000
vt 0.625000 0.250000
vt 0.375000 0.250000
vt 0.625000 0.250000
vt 0.375000 0.250000
vt 0.125000 0.750000
vt 0.125000 0.500000
vt 0.625000 1.000000
vt 0.375000 1.000000
vt 0.625000 1.000000
vt 0.375000 1.000000
vt 0.375000 1.000000
vt 0.125000 0.750000
vt 0.125000 0.500000
vt 0.625000 1.000000
vt 0.875000 0.500000
vt 0.875000 0.750000
vt 0.625000 1.000000
vt 0.375000 1.000000
vt 0.875000 0.500000
vt 0.875000 0.750000
vt 0.375000 0.250000
vt 0.625000 0.250000
vt 0.125000 0.750000
vt 0.125000 0.500000
vt 0.625000 0.250000
vt 0.375000 0.250000
vt 0.625000 0.250000
vt 0.875000 0.500000
vt 0.875000 0.750000
vt 0.375000 0.250000
vt 0.125000 0.750000
vt 0.125000 0.500000
vt 0.625000 1.000000
vt 0.375000 1.000000
vt 0.375000 1.000000
vt 0.125000 0.750000
vt 0.125000 0.500000
vt 0.625000 1.000000
vt 0.875000 0.500000
vt 0.875000 0.750000
vt 0.875000 0.500000
vt 0.875000 0.750000
vt 0.875000 0.750000
vt 0.875000 0.500000
vt 0.375000 0.250000
vt 0.625000 0.250000
vt 0.125000 0.750000
vt 0.125000 0.500000
vt 0.625000 0.250000
vt 0.375000 0.250000
vt 0.625000 0.250000
vt 0.375000 0.250000
vt 0.125000 0.750000
vt 0.125000 0.500000
vt 0.625000 1.000000
vt 0.375000 1.000000
vt 0.625000 1.000000
vt 0.375000 1.000000
vt 0.375000 1.000000
vt 0.125000 0.750000
vt 0.125000 0.500000
vt 0.625000 1.000000
vt 0.875000 0.500000
vt 0.875000 0.750000
vt 0.625000 0.250000
vt 0.375000 0.250000
vt 0.625000 0.250000
vt 0.875000 0.500000
vt 0.875000 0.750000
vt 0.375000 0.250000
vt 0.125000 0.750000
vt 0.125000 0.500000
vt 0.625000 0.250000
vt 0.125000 0.750000
vt 0.125000 0.500000
vt 0.625000 1.000000
vt 0.375000 1.000000
vt 0.875000 0.500000
vt 0.875000 0.750000
vt 0.375000 1.000000
vt 0.625000 1.000000
vt 0.375000 1.000000
vt 0.125000 0.750000
vt 0.125000 0.500000
vt 0.625000 1.000000
vt 0.875000 0.500000
vt 0.875000 0.750000
vt 0.375000 0.250000
vt 0.625000 0.250000
vt 0.625000 0.250000
vt 0.875000 0.500000
vt 0.875000 0.750000
vt 0.375000 0.250000
vt 0.125000 0.750000
vt 0.125000 0.500000
vt 0.125000 0.750000
vt 0.125000 0.500000
vt 0.125000 0.500000
vt 0.125000 0.750000
vt 0.625000 1.000000
vt 0.375000 1.000000
vt 0.875000 0.500000
vt 0.875000 0.750000
vt 0.625000 0.250000
vt 0.125000 0.750000
vt 0.875000 0.750000
vt 0.625000 1.000000
vt 0.375000 1.000000
vt 0.875000 0.500000
vt 0.375000 0.250000
vt 0.625000 1.000000
vt 0.375000 1.000000
vt 0.625000 1.000000
vt 0.125000 0.500000
vt 0.125000 0.750000
vt 0.875000 0.500000
vt 0.375000 1.000000
vt 0.375000 0.250000
vt 0.125000 0.750000
vt 0.625000 0.250000
vt 0.125000 0.500000
vt 0.875000 0.750000
vt 0.875000 0.500000
vt 0.125000 0.750000
vt 0.125000 0.750000
vt 0.125000 0.750000
vt 0.875000 0.500000
vt 0.375000 0.250000
vt 0.625000 0.250000
vt 0.375000 1.000000
vt 0.625000 1.000000
vt 0.375000 0.250000
vt 0.875000 0.500000
vt 0.125000 0.500000
vt 0.875000 0.750000
vt 0.625000 0.250000
vn -0.0000 -0.0000 -1.0000
vn -0.0053 -0.0028 -1.0000
vn -0.0826 0.9966 -0.0000
vn 0.1248 0.9922 0.0000
vn -0.0000 0.0000 1.0000
vn 0.0758 -0.9971 0.0000
vn -0.1308 -0.9914 -0.0000
vn 0.3362 0.9418 -0.0000
vn -0.3419 -0.9397 -0.0000
vn 0.5321 0.8467 -0.0000
vn 0.7027 0.7115 0.0000
vn -0.5372 -0.8435 0.0000
vn -0.7070 -0.7072 0.0000
vn 0.8401 0.5425 0.0000
vn -0.8433 -0.5374 0.0000
vn 0.9376 0.3478 0.0000
vn 0.9906 0.1366 0.0000
vn -0.9396 -0.3422 0.0000
vn -0.9914 -0.1307 0.0000
vn 0.9967 -0.0810 0.0000
vn 0.9556 -0.2948 0.0000
vn -0.9962 0.0870 0.0000
vn 0.8691 -0.4946 0.0000
vn -0.9538 0.3005 0.0000
vn -0.8661 0.4999 0.0000
vn 0.7414 -0.6710 0.0000
vn 0.5786 -0.8156 0.0000
vn -0.7374 0.6755 0.0000
vn -0.5737 0.8191 0.0000
vn -0.5008 0.8656 0.0000
vn 0.5028 -0.8644 -0.0000
vn -0.3371 0.9415 -0.0000
vn 0.0064 0.0033 1.0000
vn 0.0114 0.0085 0.9999
vn 0.0112 0.0091 0.9999
vn 0.5700 -0.8217 -0.0000
vn 0.0052 0.0025 1.0000
vn -0.5005 0.8657 0.0004
vn -0.5673 0.8235 0.0030
vn 0.0122 0.0086 0.9999
vn 0.0122 0.0094 0.9999
vn 0.3335 -0.9427 0.0000
vn -0.5920 0.8060 0.0000
vn -0.7643 0.6449 0.0000
vn -0.7657 0.6432 -0.0000
vn -0.0122 -0.0086 -0.9999
vn -0.5900 0.8074 0.0000
vn 0.5910 -0.8067 0.0000
vn -0.9105 0.4135 -0.0000
vn 0.5931 -0.8051 0.0000
vn 0.7564 -0.6541 0.0000
vn 0.0114 0.0115 0.9999
vn 0.0106 0.0117 0.9999
vn -0.0122 -0.0094 -0.9999
vn -0.0114 -0.0115 -0.9999
vn 0.7577 -0.6526 0.0000
vn 0.8976 -0.4408 0.0000
vn 0.6904 -0.7234 -0.0000
vn 0.8500 -0.5267 -0.0000
vn 0.6891 -0.7246 -0.0000
vn -0.5685 0.8227 0.0026
vn -0.6859 0.7277 0.0027
vn -0.0059 -0.0035 -1.0000
vn -0.0108 -0.0091 -0.9999
vn 0.5704 -0.8214 -0.0000
vn 0.0093 0.0124 0.9999
vn 0.0065 0.0136 0.9999
vn 0.0059 0.0139 0.9999
vn 0.0099 0.0119 0.9999
vn -0.6877 0.7260 0.0008
vn -0.8468 0.5320 0.0033
vn -0.0106 -0.0097 -0.9999
vn -0.0091 -0.0123 -0.9999
vn -0.0051 -0.0142 -0.9999
vn -0.0022 -0.0143 -0.9999
vn -0.0057 -0.0138 -0.9999
vn -0.8485 0.5292 0.0011
vn -0.9643 0.2649 0.0044
vn -0.0086 -0.0128 -0.9999
vn 0.8518 -0.5239 -0.0000
vn 0.9670 -0.2548 -0.0000
vn -0.0014 -0.0144 -0.9999
vn 0.0012 -0.0131 -0.9999
vn 0.9677 -0.2522 -0.0000
vn 0.9999 0.0120 -0.0000
vn 0.0030 0.0143 0.9999
vn 0.0022 0.0144 0.9999
vn -0.9651 0.2619 0.0022
vn -1.0000 0.0016 0.0050
vn -0.0012 0.0131 0.9999
vn -0.0030 0.0108 0.9999
vn -0.0037 0.0102 0.9999
vn 0.9999 0.0146 -0.0000
vn 0.9592 0.2827 -0.0000
vn -0.0005 0.0133 0.9999
vn -1.0000 -0.0019 0.0026
vn -0.9641 -0.2656 0.0056
vn 0.0042 -0.0099 -0.9999
vn 0.0047 -0.0069 -1.0000
vn 0.0036 -0.0104 -0.9999
vn -0.9630 -0.2695 0.0031
vn -0.8565 -0.5161 0.0064
vn 0.0019 -0.0129 -0.9999
vn 0.9585 0.2850 -0.0000
vn 0.8437 0.5368 -0.0000
vn 0.6401 0.7683 0.0000
vn 0.3470 0.9379 -0.0000
vn 0.6415 0.7671 -0.0000
vn 0.8426 0.5385 -0.0000
vn -0.0044 0.0073 1.0000
vn -0.0047 0.0065 1.0000
vn -0.8539 -0.5204 0.0036
vn -0.6682 -0.7440 0.0071
vn -0.0049 0.0033 1.0000
vn -0.0055 0.0019 1.0000
vn -0.0059 0.0013 1.0000
vn -0.0047 0.0039 1.0000
vn -0.6630 -0.7486 0.0035
vn -0.3865 -0.9223 0.0073
vn 0.0051 -0.0062 -1.0000
vn 0.0048 -0.0036 -1.0000
vn 0.0059 -0.0010 -1.0000
vn 0.0087 0.0017 -1.0000
vn 0.0055 -0.0016 -1.0000
vn -0.3787 -0.9255 0.0032
vn -0.0466 -0.9989 0.0073
vn 0.0051 -0.0030 -1.0000
vn 0.3457 0.9383 -0.0000
vn 0.0033 1.0000 -0.0000
vn -0.0088 -0.0017 1.0000
vn -0.0108 -0.0066 0.9999
vn -0.0115 -0.0073 0.9999
vn 0.0019 1.0000 -0.0000
vn -0.2712 0.9625 -0.0000
vn -0.0083 -0.0004 1.0000
vn -0.0380 -0.9993 0.0030
vn 0.2465 -0.9691 0.0055
vn -0.0088 -0.0101 0.9999
vn 0.2543 -0.9671 0.0004
vn 0.5522 -0.8337 0.0031
vn 0.0106 0.0066 -0.9999
vn 0.0094 0.0075 -0.9999
vn -0.2724 0.9622 -0.0000
vn -0.5098 0.8603 -0.0000
vn 0.0068 0.0110 -0.9999
vn 0.0038 0.0121 -0.9999
vn 0.0028 0.0120 -0.9999
vn 0.5613 -0.8276 -0.0036
vn 0.8417 -0.5400 -0.0005
vn 0.0081 0.0106 -0.9999
vn -0.5115 0.8593 0.0006
vn -0.8063 0.5915 0.0013
vn -0.0036 -0.0118 0.9999
vn -0.0007 -0.0112 0.9999
vn -0.0046 -0.0120 0.9999
vn -0.8086 0.5884 0.0019
vn -0.9800 0.1988 0.0020
vn -0.0075 -0.0105 0.9999
vn 0.8469 -0.5317 -0.0065
vn 0.9864 -0.1641 -0.0008
vn 0.9646 0.2636 -0.0033
vn 0.8899 0.4561 0.0013
vn 0.9670 0.2547 0.0009
vn 0.9878 -0.1555 -0.0053
vn 0.0002 0.0121 -0.9999
vn -0.0008 0.0113 -0.9999
vn -0.9807 0.1957 0.0020
vn -0.9818 -0.1898 0.0021
vn -0.5319 0.8466 0.0198
vn -0.5849 0.8111 0.0037
vn -0.5967 0.8025 -0.0000
vn -0.0033 0.0092 -1.0000
vn -0.0042 0.0081 -1.0000
vn -0.9809 -0.1943 0.0013
vn -0.9215 -0.3885 0.0013
vn 0.0030 -0.0106 0.9999
vn 0.0048 -0.0106 0.9999
vn 0.9911 -0.1330 0.0000
vn -0.9954 0.0955 -0.0000
vn 0.3207 -0.9472 -0.0000
vn 0.9995 0.0318 0.0000
vn -0.9973 -0.0739 -0.0000
vn -0.0106 -0.0117 -0.9999
vn 0.0100 0.0016 -0.9999
vn -0.0009 -0.0110 0.9999
vn 0.8874 0.4611 -0.0023
vn -0.5194 0.8542 0.0235
vn -0.9205 -0.3909 -0.0002
s 1
f 55/1/1 58/2/2 54/3/1
f 4/4/3 7/5/4 2/6/3
f 5/7/5 12/8/5 8/9/5
f 1/10/6 5/11/7 3/12/6
f 3/13/5 8/9/5 4/14/5
f 1/15/1 7/16/1 6/17/1
f 9/18/5 16/19/5 12/8/5
f 6/17/1 11/20/1 10/21/1
f 8/22/4 11/23/8 7/5/4
f 5/11/7 10/24/9 9/25/9
f 16/26/10 19/27/11 15/28/10
f 10/21/1 15/29/1 14/30/1
f 12/31/8 15/28/10 11/23/8
f 9/25/9 14/32/12 13/33/12
f 17/34/5 24/35/5 20/36/5
f 14/32/12 17/37/13 13/33/12
f 13/38/5 20/36/5 16/19/5
f 14/30/1 19/39/1 18/40/1
f 22/41/1 27/42/1 26/43/1
f 18/40/1 23/44/1 22/41/1
f 20/45/11 23/46/14 19/27/11
f 18/47/13 21/48/15 17/37/13
f 28/49/16 31/50/17 27/51/16
f 24/52/14 27/51/16 23/46/14
f 22/53/15 25/54/18 21/48/15
f 21/55/5 28/56/5 24/35/5
f 29/57/5 36/58/5 32/59/5
f 26/60/18 29/61/19 25/54/18
f 25/62/5 32/59/5 28/56/5
f 26/43/1 31/63/1 30/64/1
f 36/65/20 39/66/21 35/67/20
f 30/64/1 35/68/1 34/69/1
f 32/70/17 35/67/20 31/50/17
f 30/71/19 33/72/22 29/61/19
f 40/73/21 43/74/23 39/66/21
f 33/72/22 38/75/24 37/76/24
f 33/77/5 40/78/5 36/58/5
f 34/69/1 39/79/1 38/80/1
f 41/81/5 48/82/5 44/83/5
f 38/75/24 41/84/25 37/76/24
f 37/85/5 44/83/5 40/78/5
f 38/80/1 43/86/1 42/87/1
f 48/88/26 51/89/27 47/90/26
f 42/87/1 47/91/1 46/92/1
f 44/93/23 47/90/26 43/74/23
f 41/84/25 46/94/28 45/95/28
f 50/96/29 53/97/30 49/98/29
f 46/94/28 49/98/29 45/95/28
f 45/99/5 52/100/5 48/82/5
f 46/92/1 51/101/1 50/102/1
f 49/103/5 56/104/5 52/100/5
f 50/102/1 55/1/1 54/3/1
f 51/89/27 56/105/31 55/106/31
f 4/4/3 63/107/32 64/108/32
f 60/109/33 77/110/34 80/111/35
f 56/105/31 59/112/36 55/106/31
f 56/104/5 57/113/37 60/109/33
f 54/114/38 57/115/39 53/97/30
f 61/116/5 68/117/40 65/118/41
f 1/10/6 61/119/42 62/120/42
f 4/14/5 61/116/5 3/13/5
f 2/121/1 62/122/1 63/123/1
f 68/124/43 71/125/44 72/126/45
f 62/122/1 67/127/46 63/123/1
f 64/108/32 67/128/47 68/124/43
f 61/119/42 66/129/48 62/120/42
f 72/126/45 74/130/49 73/131/49
f 65/132/50 70/133/51 66/129/48
f 65/118/41 72/134/52 69/135/53
f 66/136/54 71/137/55 67/127/46
f 69/138/56 75/139/57 70/133/51
f 71/137/55 75/140/1 74/141/1
f 73/142/5 138/143/5 76/144/5
f 80/145/58 83/146/59 79/147/60
f 58/148/61 77/149/62 57/115/39
f 59/150/63 78/151/64 58/2/2
f 60/152/65 79/147/60 59/112/36
f 84/153/66 85/154/67 88/155/68
f 80/111/35 81/156/69 84/153/66
f 78/157/70 81/158/71 77/149/62
f 79/159/72 82/160/73 78/151/64
f 87/161/74 90/162/75 86/163/76
f 82/164/77 85/165/78 81/158/71
f 83/166/79 86/163/76 82/160/73
f 84/167/80 87/168/81 83/146/59
f 91/169/82 94/170/83 90/162/75
f 88/171/84 91/172/85 87/168/81
f 88/155/68 89/173/86 92/174/87
f 86/175/88 89/176/89 85/165/78
f 96/177/90 97/178/91 100/179/92
f 92/180/93 95/181/94 91/172/85
f 92/174/87 93/182/95 96/177/90
f 90/183/96 93/184/97 89/176/89
f 99/185/98 102/186/99 98/187/100
f 94/188/101 97/189/102 93/184/97
f 95/190/103 98/187/100 94/170/83
f 96/191/104 99/192/105 95/181/94
f 104/193/106 107/194/107 103/195/108
f 100/196/109 103/195/108 99/192/105
f 100/179/92 101/197/110 104/198/111
f 98/199/112 101/200/113 97/189/102
f 108/201/114 109/202/115 112/203/116
f 104/198/111 105/204/117 108/201/114
f 102/205/118 105/206/119 101/200/113
f 103/207/120 106/208/121 102/186/99
f 111/209/122 114/210/123 110/211/124
f 106/212/125 109/213/126 105/206/119
f 107/214/127 110/211/124 106/208/121
f 108/215/128 111/216/129 107/194/107
f 116/217/130 117/218/131 120/219/132
f 112/220/133 115/221/134 111/216/129
f 112/203/116 113/222/135 116/217/130
f 110/223/136 113/224/137 109/213/126
f 117/218/131 124/225/138 120/219/132
f 114/226/139 117/227/140 113/224/137
f 114/210/123 119/228/141 118/229/142
f 116/230/143 119/231/144 115/221/134
f 122/232/145 127/233/146 126/234/147
f 118/235/148 121/236/149 117/227/140
f 118/229/142 123/237/150 122/232/145
f 120/238/151 123/239/152 119/231/144
f 125/240/153 132/241/154 128/242/155
f 124/243/156 127/244/157 123/239/152
f 121/245/158 128/242/155 124/225/138
f 122/246/159 125/247/160 121/236/149
f 130/248/161 133/249/162 129/250/163
f 126/251/164 129/250/163 125/247/160
f 126/234/147 131/252/165 130/253/166
f 128/254/167 131/255/168 127/244/157
f 136/256/169 134/257/170 135/258/171
f 130/253/166 135/259/172 134/260/173
f 132/261/174 135/258/175 131/255/168
f 132/241/154 133/262/176 136/256/177
f 72/134/52 76/144/5 69/135/53
f 139/263/1 144/264/1 143/265/1
f 76/266/57 140/267/178 75/139/57
f 74/130/49 137/268/179 73/131/49
f 74/141/1 140/269/1 139/263/1
f 142/270/180 143/265/180 144/271/180
f 137/272/5 142/270/5 138/143/5
f 140/267/178 142/273/181 144/271/181
f 137/268/179 143/274/182 141/275/182
f 55/1/1 59/150/63 58/2/2
f 4/4/3 8/22/4 7/5/4
f 5/7/5 9/18/5 12/8/5
f 1/10/6 6/276/7 5/11/7
f 3/13/5 5/7/5 8/9/5
f 1/15/1 2/121/1 7/16/1
f 9/18/5 13/38/5 16/19/5
f 6/17/1 7/16/1 11/20/1
f 8/22/4 12/31/8 11/23/8
f 5/11/7 6/276/7 10/24/9
f 16/26/10 20/45/11 19/27/11
f 10/21/1 11/20/1 15/29/1
f 12/31/8 16/26/10 15/28/10
f 9/25/9 10/24/9 14/32/12
f 17/34/5 21/55/5 24/35/5
f 14/32/12 18/47/13 17/37/13
f 13/38/5 17/34/5 20/36/5
f 14/30/1 15/29/1 19/39/1
f 22/41/1 23/44/1 27/42/1
f 18/40/1 19/39/1 23/44/1
f 20/45/11 24/52/14 23/46/14
f 18/47/13 22/53/15 21/48/15
f 28/49/16 32/70/17 31/50/17
f 24/52/14 28/49/16 27/51/16
f 22/53/15 26/60/18 25/54/18
f 21/55/5 25/62/5 28/56/5
f 29/57/5 33/77/5 36/58/5
f 26/60/18 30/71/19 29/61/19
f 25/62/5 29/57/5 32/59/5
f 26/43/1 27/42/1 31/63/1
f 36/65/20 40/73/21 39/66/21
f 30/64/1 31/63/1 35/68/1
f 32/70/17 36/65/20 35/67/20
f 30/71/19 34/277/22 33/72/22
f 40/73/21 44/93/23 43/74/23
f 33/72/22 34/277/22 38/75/24
f 33/77/5 37/85/5 40/78/5
f 34/69/1 35/68/1 39/79/1
f 41/81/5 45/99/5 48/82/5
f 38/75/24 42/278/25 41/84/25
f 37/85/5 41/81/5 44/83/5
f 38/80/1 39/79/1 43/86/1
f 48/88/26 52/279/27 51/89/27
f 42/87/1 43/86/1 47/91/1
f 44/93/23 48/88/26 47/90/26
f 41/84/25 42/278/25 46/94/28
f 50/96/29 54/114/38 53/97/30
f 46/94/28 50/96/29 49/98/29
f 45/99/5 49/103/5 52/100/5
f 46/92/1 47/91/1 51/101/1
f 49/103/5 53/280/5 56/104/5
f 50/102/1 51/101/1 55/1/1
f 51/89/27 52/279/27 56/105/31
f 4/4/3 2/6/3 63/107/32
f 60/109/33 57/113/37 77/110/34
f 56/105/31 60/152/65 59/112/36
f 56/104/5 53/280/5 57/113/37
f 54/114/38 58/148/61 57/115/39
f 61/116/5 64/281/5 68/117/40
f 1/10/6 3/12/6 61/119/42
f 4/14/5 64/281/5 61/116/5
f 2/121/1 1/15/1 62/122/1
f 68/124/43 67/128/47 71/125/44
f 62/122/1 66/136/54 67/127/46
f 64/108/32 63/107/32 67/128/47
f 61/119/42 65/132/50 66/129/48
f 72/126/45 71/125/44 74/130/49
f 65/132/50 69/138/56 70/133/51
f 65/118/41 68/117/40 72/134/52
f 66/136/54 70/282/183 71/137/55
f 69/138/56 76/266/57 75/139/57
f 71/137/55 70/282/183 75/140/1
f 73/142/5 137/272/5 138/143/5
f 80/145/58 84/167/80 83/146/59
f 58/148/61 78/157/70 77/149/62
f 59/150/63 79/159/72 78/151/64
f 60/152/65 80/145/58 79/147/60
f 84/153/66 81/156/69 85/154/67
f 80/111/35 77/110/34 81/156/69
f 78/157/70 82/164/77 81/158/71
f 79/159/72 83/166/79 82/160/73
f 87/161/74 91/169/82 90/162/75
f 82/164/77 86/175/88 85/165/78
f 83/166/79 87/161/74 86/163/76
f 84/167/80 88/171/84 87/168/81
f 91/169/82 95/190/103 94/170/83
f 88/171/84 92/180/93 91/172/85
f 88/155/68 85/154/67 89/173/86
f 86/175/88 90/183/96 89/176/89
f 96/177/90 93/182/95 97/178/91
f 92/180/93 96/191/104 95/181/94
f 92/174/87 89/173/86 93/182/95
f 90/183/96 94/188/101 93/184/97
f 99/185/98 103/207/120 102/186/99
f 94/188/101 98/199/112 97/189/102
f 95/190/103 99/185/98 98/187/100
f 96/191/104 100/196/109 99/192/105
f 104/193/106 108/215/128 107/194/107
f 100/196/109 104/193/106 103/195/108
f 100/179/92 97/178/91 101/197/110
f 98/199/112 102/205/118 101/200/113
f 108/201/114 105/204/117 109/202/115
f 104/198/111 101/197/110 105/204/117
f 102/205/118 106/212/125 105/206/119
f 103/207/120 107/214/127 106/208/121
f 111/209/122 115/283/184 114/210/123
f 106/212/125 110/223/136 109/213/126
f 107/214/127 111/209/122 110/211/124
f 108/215/128 112/220/133 111/216/129
f 116/217/130 113/222/135 117/218/131
f 112/220/133 116/230/143 115/221/134
f 112/203/116 109/202/115 113/222/135
f 110/223/136 114/226/139 113/224/137
f 117/218/131 121/245/158 124/225/138
f 114/226/139 118/235/148 117/227/140
f 114/210/123 115/283/184 119/228/141
f 116/230/143 120/238/151 119/231/144
f 122/232/145 123/237/150 127/233/146
f 118/235/148 122/246/159 121/236/149
f 118/229/142 119/228/141 123/237/150
f 120/238/151 124/243/156 123/239/152
f 125/240/153 129/284/185 132/241/154
f 124/243/156 128/254/167 127/244/157
f 121/245/158 125/240/153 128/242/155
f 122/246/159 126/251/164 125/247/160
f 130/248/161 134/257/186 133/249/162
f 126/251/164 130/248/161 129/250/163
f 126/234/147 127/233/146 131/252/165
f 128/254/167 132/261/174 131/255/168
f 136/256/169 133/249/187 134/257/170
f 130/253/166 131/252/165 135/259/172
f 132/261/174 136/285/188 135/258/175
f 132/241/154 129/284/185 133/262/176
f 72/134/52 73/142/5 76/144/5
f 139/263/1 140/269/1 144/264/1
f 76/266/57 138/286/178 140/267/178
f 74/130/49 139/287/179 137/268/179
f 74/141/1 75/140/1 140/269/1
f 142/270/180 141/275/180 143/265/180
f 137/272/5 141/288/5 142/270/5
f 140/267/178 138/286/178 142/273/181
f 137/268/179 139/287/179 143/274/182
