# Blender v3.4.1 OBJ File: 'decoratives_and_entities.blend'
# www.blender.org
o Glow_Flower_Plane.009
v -0.236112 0.100397 0.059542
v -0.066491 0.100397 -0.234250
v -0.856296 0.489274 -0.429697
v -0.800276 0.489274 -0.526726
v -0.694775 0.532321 -0.259580
v -0.528546 0.489274 -0.097620
v -0.374535 0.335369 0.025625
v -0.165075 0.335369 -0.337169
v -0.348814 0.489274 -0.408925
v -0.572191 0.532321 -0.471903
v -0.070579 0.011511 0.010686
v -0.026035 0.011511 -0.066466
v 0.169621 0.100397 0.174708
v -0.169621 0.100397 0.174708
v 0.056019 0.489274 0.956423
v -0.056019 0.489274 0.956423
v 0.122585 0.532321 0.731483
v 0.179732 0.489274 0.506544
v 0.209460 0.335369 0.311544
v -0.209460 0.335369 0.311544
v -0.179732 0.489274 0.506544
v -0.122585 0.532321 0.731483
v 0.044544 0.011511 0.055780
v -0.044544 0.011511 0.055780
v -0.066491 0.100397 0.234250
v -0.236112 0.100397 -0.059542
v -0.800277 0.489274 0.526725
v -0.856296 0.489274 0.429697
v -0.572191 0.532321 0.471903
v -0.348814 0.489274 0.408925
v -0.165075 0.335369 0.337169
v -0.374535 0.335369 -0.025626
v -0.528546 0.489274 0.097619
v -0.694776 0.532321 0.259580
v -0.026035 0.011511 0.066466
v -0.070579 0.011511 -0.010686
v 0.236112 0.100397 -0.059542
v 0.066491 0.100397 0.234250
v 0.856296 0.489274 0.429698
v 0.800276 0.489274 0.526726
v 0.694775 0.532321 0.259581
v 0.528546 0.489274 0.097620
v 0.374535 0.335369 -0.025625
v 0.165075 0.335369 0.337169
v 0.348814 0.489274 0.408925
v 0.572190 0.532321 0.471904
v 0.070579 0.011511 -0.010686
v 0.026035 0.011511 0.066466
v -0.169621 0.100397 -0.174708
v 0.169621 0.100397 -0.174708
v -0.056019 0.489274 -0.956423
v 0.056019 0.489274 -0.956423
v -0.122585 0.532321 -0.731483
v -0.179732 0.489274 -0.506544
v -0.209460 0.335369 -0.311544
v 0.209460 0.335369 -0.311544
v 0.179732 0.489274 -0.506544
v 0.122585 0.532321 -0.731483
v -0.044544 0.011511 -0.055780
v 0.044544 0.011511 -0.055780
v 0.066491 0.100397 -0.234250
v 0.236112 0.100397 0.059542
v 0.800277 0.489274 -0.526725
v 0.856296 0.489274 -0.429697
v 0.572191 0.532321 -0.471903
v 0.348814 0.489274 -0.408925
v 0.165075 0.335369 -0.337169
v 0.374535 0.335369 0.025626
v 0.528546 0.489274 -0.097619
v 0.694776 0.532321 -0.259580
v 0.026035 0.011511 -0.066466
v 0.070579 0.011511 0.010686
vt 1.000000 0.750000
vt 0.000000 1.000000
vt 0.000000 0.750000
vt 1.000000 0.000000
vt 0.000000 0.250000
vt 0.000000 0.000000
vt 1.000000 0.250000
vt 0.000000 0.500000
vt 1.000000 0.500000
vt 1.000000 0.000000
vt 1.000000 0.750000
vt 0.000000 1.000000
vt 0.000000 0.750000
vt 1.000000 0.000000
vt 0.000000 0.250000
vt 0.000000 0.000000
vt 1.000000 0.250000
vt 0.000000 0.500000
vt 1.000000 0.500000
vt 1.000000 0.000000
vt 0.000000 0.750000
vt 1.000000 1.000000
vt 0.000000 1.000000
vt 0.000000 0.000000
vt 1.000000 0.250000
vt 0.000000 0.250000
vt 1.000000 0.500000
vt 0.000000 0.500000
vt 1.000000 0.750000
vt 1.000000 0.000000
vt 0.000000 0.000000
vt 1.000000 0.000000
vt 1.000000 0.750000
vt 0.000000 1.000000
vt 0.000000 0.750000
vt 1.000000 0.000000
vt 0.000000 0.250000
vt 0.000000 0.000000
vt 1.000000 0.250000
vt 0.000000 0.500000
vt 1.000000 0.500000
vt 1.000000 0.000000
vt 1.000000 0.750000
vt 0.000000 1.000000
vt 0.000000 0.750000
vt 1.000000 0.000000
vt 0.000000 0.250000
vt 0.000000 0.000000
vt 1.000000 0.250000
vt 0.000000 0.500000
vt 1.000000 0.500000
vt 1.000000 0.000000
vt 0.000000 0.750000
vt 1.000000 1.000000
vt 0.000000 1.000000
vt 0.000000 0.000000
vt 1.000000 0.250000
vt 0.000000 0.250000
vt 1.000000 0.500000
vt 0.000000 0.500000
vt 1.000000 0.750000
vt 1.000000 0.000000
vt 0.000000 0.000000
vt 1.000000 0.000000
vt 1.000000 1.000000
vt 0.000000 0.000000
vt 1.000000 1.000000
vt 0.000000 0.000000
vt 1.000000 1.000000
vt 0.000000 0.000000
vt 1.000000 1.000000
vt 0.000000 0.000000
vn 0.0282 0.9995 0.0163
vn -0.1628 0.9822 -0.0940
vn 0.6832 0.6145 0.3945
vn 0.6529 0.6569 0.3770
vn 0.3830 0.8969 0.2211
vn 0.5185 0.8010 0.2993
vn -0.0000 0.9995 -0.0325
vn 0.0000 0.9822 0.1880
vn -0.0000 0.6145 -0.7889
vn -0.0000 0.6569 -0.7540
vn -0.0000 0.8969 -0.4422
vn -0.0000 0.8010 -0.5987
vn 0.0282 0.9995 -0.0163
vn -0.1628 0.9822 0.0940
vn 0.6832 0.6145 -0.3945
vn 0.6529 0.6569 -0.3770
vn 0.3830 0.8969 -0.2211
vn 0.5185 0.8010 -0.2993
vn -0.0282 0.9995 -0.0163
vn 0.1628 0.9822 0.0940
vn -0.6832 0.6145 -0.3945
vn -0.6529 0.6569 -0.3770
vn -0.3830 0.8969 -0.2211
vn -0.5185 0.8010 -0.2993
vn 0.0000 0.9995 0.0325
vn 0.0000 0.9822 -0.1880
vn -0.0000 0.6145 0.7889
vn 0.0000 0.6569 0.7540
vn 0.0000 0.8969 0.4422
vn -0.0000 0.8010 0.5987
vn -0.0282 0.9995 0.0163
vn 0.1628 0.9822 -0.0940
vn -0.6832 0.6145 0.3945
vn -0.6529 0.6569 0.3770
vn -0.3830 0.8969 0.2211
vn -0.5185 0.8010 0.2993
s 1
f 10/1/1 3/2/2 5/3/1
f 2/4/3 7/5/4 1/6/3
f 8/7/4 6/8/5 7/5/4
f 9/9/5 5/3/1 6/8/5
f 1/6/3 12/10/6 2/4/3
f 22/11/7 15/12/8 17/13/7
f 14/14/9 19/15/10 13/16/9
f 20/17/10 18/18/11 19/15/10
f 21/19/11 17/13/7 18/18/11
f 13/16/9 24/20/12 14/14/9
f 29/21/13 28/22/14 27/23/14
f 25/24/15 32/25/16 31/26/16
f 31/26/16 33/27/17 30/28/17
f 30/28/17 34/29/13 29/21/13
f 26/30/15 35/31/18 36/32/18
f 46/33/19 39/34/20 41/35/19
f 38/36/21 43/37/22 37/38/21
f 44/39/22 42/40/23 43/37/22
f 45/41/23 41/35/19 42/40/23
f 37/38/21 48/42/24 38/36/21
f 58/43/25 51/44/26 53/45/25
f 50/46/27 55/47/28 49/48/27
f 56/49/28 54/50/29 55/47/28
f 57/51/29 53/45/25 54/50/29
f 49/48/27 60/52/30 50/46/27
f 65/53/31 64/54/32 63/55/32
f 61/56/33 68/57/34 67/58/34
f 67/58/34 69/59/35 66/60/35
f 66/60/35 70/61/31 65/53/31
f 62/62/33 71/63/36 72/64/36
f 10/1/1 4/65/2 3/2/2
f 2/4/3 8/7/4 7/5/4
f 8/7/4 9/9/5 6/8/5
f 9/9/5 10/1/1 5/3/1
f 1/6/3 11/66/6 12/10/6
f 22/11/7 16/67/8 15/12/8
f 14/14/9 20/17/10 19/15/10
f 20/17/10 21/19/11 18/18/11
f 21/19/11 22/11/7 17/13/7
f 13/16/9 23/68/12 24/20/12
f 29/21/13 34/29/13 28/22/14
f 25/24/15 26/30/15 32/25/16
f 31/26/16 32/25/16 33/27/17
f 30/28/17 33/27/17 34/29/13
f 26/30/15 25/24/15 35/31/18
f 46/33/19 40/69/20 39/34/20
f 38/36/21 44/39/22 43/37/22
f 44/39/22 45/41/23 42/40/23
f 45/41/23 46/33/19 41/35/19
f 37/38/21 47/70/24 48/42/24
f 58/43/25 52/71/26 51/44/26
f 50/46/27 56/49/28 55/47/28
f 56/49/28 57/51/29 54/50/29
f 57/51/29 58/43/25 53/45/25
f 49/48/27 59/72/30 60/52/30
f 65/53/31 70/61/31 64/54/32
f 61/56/33 62/62/33 68/57/34
f 67/58/34 68/57/34 69/59/35
f 66/60/35 69/59/35 70/61/31
f 62/62/33 61/56/33 71/63/36
