# Blender v3.4.1 OBJ File: 'astro_player.blend'
# www.blender.org
o Lesser_Vambrace_Cylinder.004
v 0.020774 0.369597 -0.079692
v -0.006458 -0.007466 -0.116484
v -0.009431 0.371496 -0.073672
v -0.050716 -0.004684 -0.107664
v -0.035039 0.373105 -0.056528
v -0.089058 -0.015417 -0.082544
v -0.052149 0.374181 -0.030871
v -0.114946 -0.026848 -0.044951
v -0.058157 0.374558 -0.000606
v -0.124338 -0.035671 -0.000606
v -0.052149 0.374181 0.029659
v -0.114946 -0.026848 0.043739
v -0.035039 0.373105 0.055317
v -0.089058 -0.015417 0.081333
v -0.009431 0.371496 0.072461
v -0.050716 -0.004684 0.106452
v 0.020774 0.369597 0.078481
v -0.006458 -0.007466 0.115273
v 0.050980 0.367698 0.072461
v 0.037799 -0.010248 0.106452
v 0.076587 0.366089 0.055317
v 0.074885 -0.019518 0.081333
v 0.093697 0.365013 0.029659
v 0.099544 -0.027626 0.043739
v 0.099705 0.364635 -0.000606
v 0.108021 -0.033372 -0.000606
v 0.093697 0.365013 -0.030871
v 0.099544 -0.027626 -0.044951
v 0.076587 0.366089 -0.056528
v 0.074885 -0.019518 -0.082544
v 0.050980 0.367698 -0.073672
v 0.037799 -0.010248 -0.107664
v -0.006413 0.028289 -0.124238
v -0.053632 0.031257 -0.114827
v -0.094540 0.019805 -0.088027
v -0.122159 0.007610 -0.047918
v -0.132180 -0.001804 -0.000606
v -0.122159 0.007610 0.046706
v -0.094540 0.019805 0.086816
v -0.053632 0.031257 0.113616
v -0.006413 0.028289 0.123027
v 0.040806 0.025321 0.113616
v 0.080373 0.015431 0.086816
v 0.106682 0.006779 0.046706
v 0.115726 0.000649 -0.000606
v 0.106682 0.006779 -0.047918
v 0.080373 0.015430 -0.088027
v 0.040806 0.025321 -0.114827
v -0.005871 0.052572 -0.104793
v -0.046589 0.055132 -0.096677
v -0.081864 0.045257 -0.073567
v -0.105681 0.034740 -0.038981
v -0.114322 0.026623 0.001817
v -0.105681 0.034740 0.042615
v -0.081864 0.045257 0.077202
v -0.046589 0.055132 0.100312
v -0.005871 0.052572 0.108427
v 0.034847 0.050013 0.100312
v 0.068965 0.041484 0.077202
v 0.091652 0.034024 0.042615
v 0.099451 0.028738 0.001817
v 0.091652 0.034024 -0.038981
v 0.068965 0.041484 -0.073567
v 0.034847 0.050013 -0.096677
vt 1.000000 1.000000
vt 0.937500 0.500000
vt 1.000000 0.500000
vt 0.937500 1.000000
vt 0.875000 0.500000
vt 0.875000 1.000000
vt 0.812500 0.500000
vt 0.812500 1.000000
vt 0.750000 0.500000
vt 0.687500 1.000000
vt 0.687500 0.500000
vt 0.625000 1.000000
vt 0.625000 0.500000
vt 0.562500 1.000000
vt 0.562500 0.500000
vt 0.500000 1.000000
vt 0.500000 0.500000
vt 0.437500 1.000000
vt 0.437500 0.500000
vt 0.375000 0.500000
vt 0.375000 1.000000
vt 0.312500 0.500000
vt 0.312500 1.000000
vt 0.250000 0.500000
vt 0.187500 1.000000
vt 0.187500 0.500000
vt 0.125000 1.000000
vt 0.125000 0.500000
vt 0.062500 1.000000
vt 0.062500 0.500000
vt 0.000000 0.500000
vt 0.000000 1.000000
vt 0.062500 1.000000
vt 0.750000 1.000000
vt 0.750000 1.000000
vt 0.437500 1.000000
vt 0.187500 1.000000
vt 0.875000 1.000000
vt 0.625000 1.000000
vt 0.250000 1.000000
vt 0.250000 1.000000
vt 0.375000 1.000000
vt 0.125000 1.000000
vt 0.812500 1.000000
vt 0.500000 1.000000
vt 1.000000 1.000000
vt 0.687500 1.000000
vt 0.312500 1.000000
vt 0.125000 1.000000
vt 0.500000 1.000000
vt 0.562500 1.000000
vt 0.937500 1.000000
vt 1.000000 1.000000
vt 0.000000 1.000000
vt 0.062500 1.000000
vt 0.437500 1.000000
vt 0.875000 1.000000
vt 0.375000 1.000000
vt 0.812500 1.000000
vt 0.312500 1.000000
vt 0.750000 1.000000
vt 0.250000 1.000000
vt 0.687500 1.000000
vt 0.187500 1.000000
vt 0.625000 1.000000
vt 0.562500 1.000000
vt 0.937500 1.000000
vt 0.000000 1.000000
vn 0.0050 0.0968 -0.9953
vn -0.3727 0.1240 -0.9196
vn 0.0072 0.0966 -0.9953
vn -0.4033 0.1249 -0.9065
vn -0.6959 0.1454 -0.7033
vn -0.7397 0.1456 -0.6571
vn -0.9114 0.1576 -0.3802
vn -0.9310 0.1565 -0.3298
vn -0.9869 0.1613 -0.0000
vn -0.9310 0.1565 0.3298
vn -0.9114 0.1576 0.3802
vn -0.7397 0.1456 0.6571
vn -0.6959 0.1454 0.7033
vn -0.4033 0.1249 0.9065
vn -0.3727 0.1240 0.9196
vn 0.0050 0.0968 0.9953
vn 0.0072 0.0966 0.9953
vn 0.3998 0.0677 0.9141
vn 0.3871 0.0692 0.9194
vn 0.7094 0.0451 0.7033
vn 0.7297 0.0423 0.6824
vn 0.9244 0.0281 0.3804
vn 0.9339 0.0263 0.3566
vn 0.9998 0.0219 0.0000
vn 0.9339 0.0263 -0.3566
vn 0.9244 0.0281 -0.3804
vn 0.7297 0.0423 -0.6824
vn 0.7094 0.0451 -0.7033
vn 0.3998 0.0677 -0.9141
vn 0.3871 0.0692 -0.9194
vn -0.0057 -0.2119 -0.9773
vn 0.3356 -0.2132 -0.9176
vn 0.3636 -0.2134 -0.9068
vn -0.9742 -0.2256 0.0000
vn -0.8874 -0.2206 -0.4048
vn 0.3356 -0.2132 0.9176
vn -0.0057 -0.2119 0.9773
vn 0.3636 -0.2134 0.9068
vn 0.6827 -0.2167 -0.6978
vn 0.8834 -0.2190 -0.4142
vn 0.8990 -0.2192 -0.3792
vn -0.6234 -0.2141 -0.7520
vn -0.3604 -0.2104 -0.9088
vn -0.6650 -0.2148 -0.7153
vn -0.3604 -0.2104 0.9088
vn -0.6234 -0.2141 0.7520
vn -0.6650 -0.2148 0.7153
vn 0.9753 -0.2209 0.0000
vn 0.8990 -0.2192 0.3792
vn -0.8874 -0.2206 0.4048
vn 0.6481 -0.2163 0.7302
vn 0.6827 -0.2167 0.6978
vn 0.6481 -0.2163 -0.7302
vn -0.8639 -0.2199 -0.4531
vn -0.0204 -0.2119 0.9771
vn -0.0204 -0.2119 -0.9771
vn -0.8639 -0.2199 0.4531
vn 0.8834 -0.2190 0.4142
vn 0.3867 0.6050 -0.6961
vn 0.6550 0.5652 -0.5016
vn 0.6662 0.5631 -0.4890
vn 0.0283 0.5146 0.8570
vn -0.3780 0.5332 0.7568
vn 0.0357 0.5143 0.8568
vn -0.3494 0.6302 -0.6934
vn 0.0358 0.6242 -0.7805
vn 0.0420 0.6239 -0.7803
vn 0.3728 0.6063 -0.7024
vn 0.3777 0.5082 0.7740
vn 0.4084 0.5074 0.7588
vn -0.6469 0.5939 -0.4783
vn -0.6674 0.5903 -0.4540
vn 0.6682 0.4969 0.5537
vn 0.6954 0.4963 0.5197
vn -0.7999 0.5583 -0.2200
vn -0.8078 0.5556 -0.1972
vn 0.8246 0.4958 0.2725
vn 0.8357 0.4963 0.2352
vn -0.8469 0.5317 0.0043
vn -0.8467 0.5321 -0.0026
vn 0.8655 0.5010 0.0057
vn 0.8651 0.5016 -0.0039
vn -0.8245 0.5305 0.1970
vn 0.8161 0.5276 -0.2359
vn -0.6953 0.5297 0.4857
vn -0.8107 0.5299 0.2489
vn 0.8128 0.5287 -0.2447
vn -0.6586 0.5298 0.5344
vn -0.9872 0.1593 -0.0000
vn 0.9998 0.0209 -0.0000
vn -0.3447 -0.2103 -0.9149
vn -0.3447 -0.2103 0.9149
vn -0.3436 0.5324 0.7736
vn -0.3338 0.6309 -0.7004
s 1
f 2/1/1 3/2/2 1/3/3
f 4/4/4 5/5/5 3/2/2
f 6/6/6 7/7/7 5/5/5
f 8/8/8 9/9/9 7/7/7
f 9/9/9 12/10/10 11/11/11
f 11/11/11 14/12/12 13/13/13
f 13/13/13 16/14/14 15/15/15
f 15/15/15 18/16/16 17/17/17
f 17/17/17 20/18/18 19/19/19
f 20/18/18 21/20/20 19/19/19
f 22/21/21 23/22/22 21/20/20
f 24/23/23 25/24/24 23/22/22
f 25/24/24 28/25/25 27/26/26
f 27/26/26 30/27/27 29/28/28
f 29/28/28 32/29/29 31/30/30
f 32/29/29 1/31/3 31/30/30
f 2/32/31 48/33/32 32/29/33
f 37/34/34 8/8/35 10/35/34
f 42/36/36 18/16/37 20/18/38
f 30/27/39 46/37/40 28/25/41
f 35/38/42 4/4/43 6/6/44
f 16/14/45 39/39/46 14/12/47
f 45/40/48 24/23/49 26/41/48
f 12/10/50 37/34/34 10/35/34
f 43/42/51 20/18/38 22/21/52
f 32/29/33 47/43/53 30/27/39
f 36/44/54 6/6/44 8/8/35
f 41/45/55 16/14/45 18/16/37
f 4/4/43 33/46/56 2/1/31
f 28/25/41 45/40/48 26/41/48
f 14/12/47 38/47/57 12/10/50
f 44/48/58 22/21/52 24/23/49
f 48/33/59 63/49/60 47/43/61
f 57/50/62 40/51/63 41/45/64
f 34/52/65 49/53/66 33/46/67
f 33/54/67 64/55/68 48/33/59
f 58/56/69 41/45/64 42/36/70
f 51/57/71 34/52/65 35/38/72
f 59/58/73 42/36/70 43/42/74
f 52/59/75 35/38/72 36/44/76
f 60/60/77 43/42/74 44/48/78
f 53/61/79 36/44/76 37/34/80
f 61/62/81 44/48/78 45/40/82
f 38/47/83 53/61/79 37/34/80
f 46/37/84 61/62/81 45/40/82
f 39/39/85 54/63/86 38/47/83
f 47/43/61 62/64/87 46/37/84
f 40/51/63 55/65/88 39/39/85
f 2/1/1 4/4/4 3/2/2
f 4/4/4 6/6/6 5/5/5
f 6/6/6 8/8/8 7/7/7
f 8/8/8 10/35/89 9/9/9
f 9/9/9 10/35/89 12/10/10
f 11/11/11 12/10/10 14/12/12
f 13/13/13 14/12/12 16/14/14
f 15/15/15 16/14/14 18/16/16
f 17/17/17 18/16/16 20/18/18
f 20/18/18 22/21/21 21/20/20
f 22/21/21 24/23/23 23/22/22
f 24/23/23 26/41/90 25/24/24
f 25/24/24 26/41/90 28/25/25
f 27/26/26 28/25/25 30/27/27
f 29/28/28 30/27/27 32/29/29
f 32/29/29 2/32/1 1/31/3
f 2/32/31 33/54/56 48/33/32
f 37/34/34 36/44/54 8/8/35
f 42/36/36 41/45/55 18/16/37
f 30/27/39 47/43/53 46/37/40
f 35/38/42 34/52/91 4/4/43
f 16/14/45 40/51/92 39/39/46
f 45/40/48 44/48/58 24/23/49
f 12/10/50 38/47/57 37/34/34
f 43/42/51 42/36/36 20/18/38
f 32/29/33 48/33/32 47/43/53
f 36/44/54 35/38/42 6/6/44
f 41/45/55 40/51/92 16/14/45
f 4/4/43 34/52/91 33/46/56
f 28/25/41 46/37/40 45/40/48
f 14/12/47 39/39/46 38/47/57
f 44/48/58 43/42/51 22/21/52
f 48/33/59 64/55/68 63/49/60
f 57/50/62 56/66/93 40/51/63
f 34/52/65 50/67/94 49/53/66
f 33/54/67 49/68/66 64/55/68
f 58/56/69 57/50/62 41/45/64
f 51/57/71 50/67/94 34/52/65
f 59/58/73 58/56/69 42/36/70
f 52/59/75 51/57/71 35/38/72
f 60/60/77 59/58/73 43/42/74
f 53/61/79 52/59/75 36/44/76
f 61/62/81 60/60/77 44/48/78
f 38/47/83 54/63/86 53/61/79
f 46/37/84 62/64/87 61/62/81
f 39/39/85 55/65/88 54/63/86
f 47/43/61 63/49/60 62/64/87
f 40/51/63 56/66/93 55/65/88
