# Blender v3.4.1 OBJ File: 'station.blend'
# www.blender.org
o Flying_Car_1_Cube.007
v 0.464953 -0.146721 -0.556747
v 0.464953 0.151821 -0.556747
v 0.464953 -0.146721 0.356939
v 0.464953 0.151821 0.356939
v 0.024073 -0.146721 -0.556747
v 0.024073 0.151821 -0.556747
v 0.024073 -0.146721 0.356939
v 0.024073 0.151821 0.356939
v 0.401623 -0.196870 0.825641
v 0.401623 -0.335568 0.519010
v -0.401623 -0.335568 0.519010
v -0.401623 -0.196870 0.825641
v 0.401623 -0.335568 -0.548722
v 0.401623 -0.226195 -0.658095
v -0.401623 -0.226195 -0.658094
v -0.401623 -0.335568 -0.548722
v 0.401623 0.313801 -0.658095
v 0.379856 0.335568 -0.636327
v 0.401623 0.313801 0.825641
v 0.379856 0.335568 0.825641
v -0.379856 0.335568 -0.636327
v -0.401623 0.313801 -0.658094
v -0.379856 0.335568 0.825641
v -0.401623 0.313801 0.825641
v 0.278488 -0.030409 -0.575828
v 0.278488 0.489236 -0.575828
v 0.278488 -0.030409 0.907907
v -0.278488 -0.030409 -0.575828
v -0.278488 0.489236 -0.575828
v -0.278488 -0.030409 0.907907
v 0.278488 0.489236 0.766037
v 0.278488 0.347365 0.907907
v -0.278488 0.347365 0.907907
v -0.278488 0.489236 0.766037
v 0.169897 0.205314 -0.529331
v 0.169897 0.205314 -0.907992
v 0.005932 0.110649 -0.529331
v 0.005932 0.110649 -0.907992
v 0.005932 -0.078682 -0.529331
v 0.005932 -0.078682 -0.907992
v 0.169897 -0.173347 -0.529331
v 0.169897 -0.173347 -0.907992
v 0.333862 -0.078682 -0.529331
v 0.333862 -0.078682 -0.907992
v 0.333862 0.110649 -0.529331
v 0.333862 0.110649 -0.907992
v -0.188952 0.205314 -0.529331
v -0.188952 0.205314 -0.907992
v -0.352917 0.110649 -0.529331
v -0.352917 0.110649 -0.907992
v -0.352917 -0.078682 -0.529331
v -0.352917 -0.078682 -0.907992
v -0.188952 -0.173347 -0.529331
v -0.188952 -0.173347 -0.907992
v -0.024987 -0.078682 -0.529331
v -0.024987 -0.078682 -0.907992
v -0.024987 0.110649 -0.529331
v -0.024987 0.110649 -0.907992
v -0.019870 -0.168750 -0.148330
v -0.019870 0.272130 -0.148330
v -0.019870 -0.168750 0.765356
v -0.019870 0.272130 0.765356
v -0.460751 -0.168750 -0.148330
v -0.460751 0.272130 -0.148330
v -0.460751 -0.168750 0.765356
v -0.460751 0.272130 0.765356
vt 0.625000 0.000000
vt 0.375000 0.250000
vt 0.375000 0.000000
vt 0.625000 0.250000
vt 0.375000 0.500000
vt 0.625000 0.500000
vt 0.375000 0.750000
vt 0.625000 0.750000
vt 0.375000 1.000000
vt 0.125000 0.750000
vt 0.125000 0.500000
vt 0.875000 0.500000
vt 0.616892 0.750000
vt 0.415742 0.750000
vt 0.426665 0.500000
vt 0.375000 0.551665
vt 0.125000 0.731571
vt 0.125000 0.551665
vt 0.616892 0.500000
vt 0.616892 0.250000
vt 0.415742 1.000000
vt 0.375000 0.500000
vt 0.375000 0.731571
vt 0.125000 0.750000
vt 0.868225 0.500000
vt 0.631775 0.746332
vt 0.631775 0.500000
vt 0.625000 0.003668
vt 0.616892 0.000000
vt 0.625000 0.993225
vt 0.625000 0.756775
vt 0.426665 0.250000
vt 0.375000 0.198335
vt 0.415742 0.000000
vt 0.556747 0.250000
vt 0.375000 0.500000
vt 0.375000 0.250000
vt 0.556747 0.500000
vt 0.625000 0.750000
vt 0.375000 0.750000
vt 0.375000 1.000000
vt 0.125000 0.750000
vt 0.125000 0.500000
vt 0.625000 0.000000
vt 0.625000 0.226096
vt 0.625000 0.500000
vt 0.625000 0.250000
vt 0.875000 0.523904
vt 0.625000 0.523904
vt 1.000000 1.000000
vt 0.833333 0.500000
vt 1.000000 0.500000
vt 0.833333 1.000000
vt 0.666667 0.500000
vt 0.666667 1.000000
vt 0.500000 0.500000
vt 0.500000 1.000000
vt 0.333333 0.500000
vt 0.042154 0.130000
vt 0.250000 0.010000
vt 0.457846 0.130000
vt 0.166667 1.000000
vt 0.166667 0.500000
vt -0.000000 0.500000
vt 0.542154 0.130000
vt 0.542154 0.370000
vt 0.957846 0.370000
vt 1.000000 1.000000
vt 0.833333 0.500000
vt 1.000000 0.500000
vt 0.833333 1.000000
vt 0.666667 0.500000
vt 0.666667 1.000000
vt 0.500000 0.500000
vt 0.500000 1.000000
vt 0.333333 0.500000
vt 0.042154 0.130000
vt 0.250000 0.010000
vt 0.457846 0.130000
vt 0.166667 1.000000
vt 0.166667 0.500000
vt -0.000000 0.500000
vt 0.542154 0.130000
vt 0.542154 0.370000
vt 0.957846 0.370000
vt 0.625000 0.000000
vt 0.375000 0.250000
vt 0.375000 0.000000
vt 0.625000 0.250000
vt 0.375000 0.500000
vt 0.625000 0.500000
vt 0.375000 0.750000
vt 0.625000 0.750000
vt 0.375000 1.000000
vt 0.125000 0.750000
vt 0.125000 0.500000
vt 0.875000 0.500000
vt 0.625000 1.000000
vt 0.875000 0.750000
vt 0.625000 0.256775
vt 0.625000 0.493225
vt 0.616892 1.000000
vt 0.125000 0.500000
vt 0.375000 0.750000
vt 0.868225 0.746332
vt 0.625000 0.250000
vt 0.375000 0.018429
vt 0.625000 1.000000
vt 0.375000 0.000000
vt 0.875000 0.750000
vt 0.333333 1.000000
vt 0.457846 0.370000
vt 0.250000 0.490000
vt 0.042154 0.370000
vt -0.000000 1.000000
vt 0.750000 0.490000
vt 0.957846 0.130000
vt 0.750000 0.010000
vt 0.333333 1.000000
vt 0.457846 0.370000
vt 0.250000 0.490000
vt 0.042154 0.370000
vt -0.000000 1.000000
vt 0.750000 0.490000
vt 0.957846 0.130000
vt 0.750000 0.010000
vt 0.625000 1.000000
vt 0.875000 0.750000
vn 1.0000 0.0000 -0.0000
vn 0.0000 0.0000 1.0000
vn -1.0000 0.0000 0.0000
vn -0.0000 0.0000 -1.0000
vn 0.0000 -1.0000 -0.0000
vn 0.0000 1.0000 0.0000
vn 0.0000 -0.9111 0.4121
vn -0.0000 -0.7071 -0.7071
vn 0.7071 0.7071 -0.0000
vn -0.7071 0.7071 0.0000
vn -0.0000 0.7071 -0.7071
vn 0.0000 0.7071 0.7071
vn -0.5000 0.8660 0.0000
vn -0.5000 -0.8660 0.0000
vn 0.5000 -0.8660 -0.0000
vn 0.5000 0.8660 -0.0000
s off
f 2/1/1 3/2/1 1/3/1
f 4/4/2 7/5/2 3/2/2
f 8/6/3 5/7/3 7/5/3
f 6/8/4 1/9/4 5/7/4
f 7/5/5 1/10/5 3/11/5
f 4/12/6 6/8/6 8/6/6
f 22/13/3 15/14/3 12/15/3
f 11/16/5 13/17/5 10/18/5
f 24/19/2 12/15/2 19/20/2
f 22/13/4 14/21/4 15/14/4
f 10/18/7 12/22/7 11/16/7
f 16/23/8 14/24/8 13/17/8
f 20/25/6 21/26/6 23/27/6
f 18/28/9 19/20/9 17/29/9
f 21/26/10 24/19/10 23/27/10
f 18/30/11 22/13/11 21/31/11
f 9/32/1 10/33/1 14/34/1
f 32/35/2 30/36/2 27/37/2
f 33/38/3 29/39/3 28/40/3
f 29/39/4 25/41/4 28/40/4
f 30/36/5 25/42/5 27/43/5
f 26/44/1 31/45/1 32/35/1
f 34/46/12 32/35/12 31/47/12
f 31/48/6 29/39/6 34/49/6
f 36/50/13 37/51/13 35/52/13
f 38/53/3 39/54/3 37/51/3
f 40/55/14 41/56/14 39/54/14
f 42/57/15 43/58/15 41/56/15
f 44/59/4 42/60/4 40/61/4
f 43/58/1 46/62/1 45/63/1
f 46/62/16 35/64/16 45/63/16
f 43/65/2 45/66/2 37/67/2
f 48/68/13 49/69/13 47/70/13
f 50/71/3 51/72/3 49/69/3
f 52/73/14 53/74/14 51/72/14
f 54/75/15 55/76/15 53/74/15
f 56/77/4 54/78/4 52/79/4
f 55/76/1 58/80/1 57/81/1
f 58/80/16 47/82/16 57/81/16
f 55/83/2 57/84/2 49/85/2
f 60/86/1 61/87/1 59/88/1
f 62/89/2 65/90/2 61/87/2
f 66/91/3 63/92/3 65/90/3
f 64/93/4 59/94/4 63/92/4
f 65/90/5 59/95/5 61/96/5
f 62/97/6 64/93/6 66/91/6
f 2/1/1 4/4/1 3/2/1
f 4/4/2 8/6/2 7/5/2
f 8/6/3 6/8/3 5/7/3
f 6/8/4 2/98/4 1/9/4
f 7/5/5 5/7/5 1/10/5
f 4/12/6 2/99/6 6/8/6
f 16/23/3 11/16/3 15/14/3
f 11/16/3 12/15/3 15/14/3
f 12/15/3 24/19/3 22/13/3
f 11/16/5 16/23/5 13/17/5
f 12/15/2 9/32/2 19/20/2
f 19/20/2 20/100/2 23/101/2
f 23/101/2 24/19/2 19/20/2
f 22/13/4 17/102/4 14/21/4
f 10/18/7 9/103/7 12/22/7
f 16/23/8 15/104/8 14/24/8
f 20/25/6 18/105/6 21/26/6
f 18/28/9 20/106/9 19/20/9
f 21/26/10 22/13/10 24/19/10
f 18/30/11 17/102/11 22/13/11
f 10/33/1 13/107/1 14/34/1
f 14/34/1 17/29/1 9/32/1
f 17/29/1 19/20/1 9/32/1
f 32/35/2 33/38/2 30/36/2
f 28/40/3 30/36/3 33/38/3
f 33/38/3 34/49/3 29/39/3
f 29/39/4 26/108/4 25/41/4
f 30/36/5 28/40/5 25/42/5
f 27/37/1 25/109/1 32/35/1
f 25/109/1 26/44/1 32/35/1
f 34/46/12 33/38/12 32/35/12
f 31/48/6 26/110/6 29/39/6
f 36/50/13 38/53/13 37/51/13
f 38/53/3 40/55/3 39/54/3
f 40/55/14 42/57/14 41/56/14
f 42/57/15 44/111/15 43/58/15
f 40/61/4 38/112/4 44/59/4
f 38/112/4 36/113/4 46/114/4
f 44/59/4 38/112/4 46/114/4
f 43/58/1 44/111/1 46/62/1
f 46/62/16 36/115/16 35/64/16
f 45/66/2 35/116/2 37/67/2
f 37/67/2 39/117/2 43/65/2
f 39/117/2 41/118/2 43/65/2
f 48/68/13 50/71/13 49/69/13
f 50/71/3 52/73/3 51/72/3
f 52/73/14 54/75/14 53/74/14
f 54/75/15 56/119/15 55/76/15
f 52/79/4 50/120/4 56/77/4
f 50/120/4 48/121/4 58/122/4
f 56/77/4 50/120/4 58/122/4
f 55/76/1 56/119/1 58/80/1
f 58/80/16 48/123/16 47/82/16
f 57/84/2 47/124/2 49/85/2
f 49/85/2 51/125/2 55/83/2
f 51/125/2 53/126/2 55/83/2
f 60/86/1 62/89/1 61/87/1
f 62/89/2 66/91/2 65/90/2
f 66/91/3 64/93/3 63/92/3
f 64/93/4 60/127/4 59/94/4
f 65/90/5 63/92/5 59/95/5
f 62/97/6 60/128/6 64/93/6
