# Blender v3.4.1 OBJ File: 'decoratives_and_entities.blend'
# www.blender.org
o Lesser_Guard_Sword_Hilt_Cube.012
v -0.338108 -1.297452 0.082763
v -0.338108 -1.221665 0.082763
v -0.338108 -1.297452 -0.082763
v -0.338108 -1.221665 -0.082763
v 0.338108 -1.297452 0.082763
v 0.338108 -1.221665 0.082763
v 0.338108 -1.297452 -0.082763
v 0.338108 -1.221665 -0.082763
v -0.372328 -1.310141 -0.110476
v -0.372328 -1.310141 0.110476
v -0.372328 -1.208977 0.110476
v -0.372328 -1.208977 -0.110476
v 0.372328 -1.208977 -0.110476
v 0.372328 -1.310141 -0.110476
v 0.372328 -1.310141 0.110476
v 0.372328 -1.208977 0.110476
v -0.517027 -1.310141 -0.110476
v -0.517027 -1.310141 0.110476
v -0.517027 -1.208977 0.110476
v -0.517027 -1.208977 -0.110476
v 0.517027 -1.208977 -0.110476
v 0.517027 -1.310141 -0.110476
v 0.517027 -1.310141 0.110476
v 0.517027 -1.208977 0.110476
v -0.553709 -1.290050 -0.066597
v -0.553709 -1.290050 0.066597
v -0.553709 -1.229067 0.066597
v -0.553709 -1.229067 -0.066597
v 0.553709 -1.229067 -0.066597
v 0.553709 -1.290050 -0.066597
v 0.553709 -1.290050 0.066597
v 0.553709 -1.229067 0.066597
v -0.115865 -2.122218 0.053694
v -0.115865 -1.289184 0.053694
v -0.115865 -2.122218 -0.053694
v -0.115865 -1.289184 -0.053694
v 0.115865 -2.122218 0.053694
v 0.115865 -1.289184 0.053694
v 0.115865 -2.122218 -0.053694
v 0.115865 -1.289184 -0.053694
v -0.100735 -2.206433 -0.046682
v -0.100735 -2.206433 0.046682
v 0.100735 -2.206433 -0.046682
v 0.100735 -2.206433 0.046682
v -0.068886 -2.260911 -0.031923
v -0.068886 -2.260911 0.031923
v 0.068886 -2.260911 -0.031923
v 0.068886 -2.260911 0.031923
vt 0.125000 0.750000
vt 0.125000 0.500000
vt 0.125000 0.500000
vt 0.625000 0.250000
vt 0.375000 0.500000
vt 0.375000 0.250000
vt 0.875000 0.500000
vt 0.875000 0.750000
vt 0.875000 0.750000
vt 0.625000 0.750000
vt 0.375000 1.000000
vt 0.375000 0.750000
vt 0.625000 0.500000
vt 0.125000 0.750000
vt 0.125000 0.500000
vt 0.875000 0.500000
vt 0.875000 0.750000
vt 0.625000 0.750000
vt 0.375000 0.750000
vt 0.625000 0.250000
vt 0.625000 1.000000
vt 0.375000 1.000000
vt 0.625000 0.500000
vt 0.375000 0.500000
vt 0.625000 0.500000
vt 0.375000 0.500000
vt 0.375000 0.500000
vt 0.625000 0.750000
vt 0.625000 0.500000
vt 0.375000 0.750000
vt 0.375000 0.250000
vt 0.625000 0.250000
vt 0.625000 1.000000
vt 0.375000 1.000000
vt 0.625000 0.000000
vt 0.375000 0.250000
vt 0.375000 0.000000
vt 0.375000 0.750000
vt 0.875000 0.500000
vt 0.875000 0.750000
vt 0.125000 0.750000
vt 0.125000 0.500000
vt 0.625000 0.750000
vt 0.375000 0.250000
vt 0.625000 0.250000
vt 0.625000 1.000000
vt 0.375000 1.000000
vt 0.625000 0.000000
vt 0.375000 0.250000
vt 0.375000 0.000000
vt 0.625000 0.250000
vt 0.375000 0.500000
vt 0.625000 0.500000
vt 0.375000 0.750000
vt 0.625000 0.750000
vt 0.375000 1.000000
vt 0.375000 0.000000
vt 0.875000 0.500000
vt 0.375000 0.500000
vt 0.375000 0.250000
vt 0.375000 0.250000
vt 0.375000 0.750000
vt 0.375000 0.500000
vt 0.125000 0.750000
vt 0.125000 0.500000
vt 0.375000 0.000000
vt 0.375000 1.000000
vt 0.375000 0.750000
vt 0.875000 0.500000
vt 0.125000 0.750000
vt 0.625000 1.000000
vt 0.625000 1.000000
vt 0.875000 0.750000
vt 0.375000 1.000000
vn 0.2068 -0.9784 0.0000
vn 0.1304 -0.9915 0.0000
vn 0.0000 0.0000 -1.0000
vn 0.2068 0.9784 0.0000
vn 0.1304 0.9915 0.0000
vn 0.0000 0.0000 1.0000
vn -0.2068 -0.9784 0.0000
vn -0.2068 0.9784 0.0000
vn -0.1612 -0.9869 0.0000
vn -0.1612 0.9869 0.0000
vn -0.6294 0.0000 0.7771
vn -0.1304 -0.9915 0.0000
vn 0.6294 0.0000 -0.7771
vn 0.6294 0.0000 0.7771
vn -0.1304 0.9915 0.0000
vn -0.6294 0.0000 -0.7771
vn 0.7672 0.0000 -0.6414
vn 0.1612 0.9869 0.0000
vn 0.4804 0.8771 0.0000
vn 0.1612 -0.9869 0.0000
vn -1.0000 0.0000 0.0000
vn 1.0000 0.0000 0.0000
vn -0.4804 0.8771 0.0000
vn -0.4804 -0.8771 0.0000
vn 0.7672 0.0000 0.6414
vn 0.4804 -0.8771 0.0000
vn -0.7672 0.0000 -0.6414
vn -0.7672 0.0000 0.6414
vn -0.9963 -0.0864 0.0000
vn 0.0000 -0.0390 -0.9992
vn 0.9963 -0.0864 0.0000
vn 0.0000 -0.0390 0.9992
vn -0.9444 -0.3287 0.0000
vn 0.0000 1.0000 0.0000
vn 0.0000 -0.1508 -0.9886
vn 0.0000 -0.2615 -0.9652
vn 0.9444 -0.3287 0.0000
vn 0.0000 -0.1508 0.9886
vn 0.0000 -1.0000 0.0000
vn 0.8633 -0.5047 0.0000
vn -0.8633 -0.5047 0.0000
vn 0.0000 -0.2615 0.9652
s 1
f 1/1/1 9/2/2 3/3/1
f 4/4/3 7/5/3 3/6/3
f 4/7/4 11/8/5 2/9/4
f 6/10/6 1/11/6 5/12/6
f 7/5/7 1/1/1 3/3/1
f 4/7/4 6/10/8 8/13/8
f 10/14/2 17/15/9 9/2/2
f 12/16/5 19/17/10 11/8/5
f 5/12/11 16/18/11 6/10/11
f 7/5/7 15/19/12 5/12/7
f 3/6/13 12/20/13 4/4/13
f 2/21/14 10/22/14 1/11/14
f 6/10/8 13/23/15 8/13/8
f 8/13/16 14/24/16 7/5/16
f 21/25/17 30/26/17 22/27/17
f 24/28/18 29/29/19 21/25/18
f 15/19/6 24/28/6 16/18/6
f 14/24/12 23/30/20 15/19/12
f 9/31/3 20/32/3 12/20/3
f 11/33/6 18/34/6 10/22/6
f 16/18/15 21/25/18 13/23/15
f 13/23/3 22/27/3 14/24/3
f 27/35/21 25/36/21 26/37/21
f 29/29/22 31/38/22 30/26/22
f 20/39/10 27/40/23 19/17/10
f 18/41/9 25/42/24 17/15/9
f 23/30/25 32/43/25 24/28/25
f 22/27/20 31/38/26 23/30/20
f 17/44/27 28/45/27 20/32/27
f 19/46/28 26/47/28 18/34/28
f 34/48/21 35/49/29 33/50/29
f 36/51/3 39/52/30 35/49/30
f 40/53/22 37/54/31 39/52/31
f 38/55/6 33/56/32 37/54/32
f 35/49/29 42/57/33 33/50/29
f 36/58/34 38/55/34 40/53/34
f 43/59/35 45/60/36 41/61/35
f 37/54/31 43/59/37 39/52/31
f 33/56/32 44/62/38 37/54/32
f 39/52/30 41/61/35 35/49/30
f 47/63/39 46/64/39 45/65/39
f 44/62/37 47/63/40 43/59/37
f 41/61/33 46/66/41 42/57/33
f 42/67/38 48/68/42 44/62/38
f 1/1/1 10/14/2 9/2/2
f 4/4/3 8/13/3 7/5/3
f 4/7/4 12/16/5 11/8/5
f 6/10/6 2/21/6 1/11/6
f 7/5/7 5/12/7 1/1/1
f 4/7/4 2/9/4 6/10/8
f 10/14/2 18/41/9 17/15/9
f 12/16/5 20/39/10 19/17/10
f 5/12/11 15/19/11 16/18/11
f 7/5/7 14/24/12 15/19/12
f 3/6/13 9/31/13 12/20/13
f 2/21/14 11/33/14 10/22/14
f 6/10/8 16/18/15 13/23/15
f 8/13/16 13/23/16 14/24/16
f 21/25/17 29/29/17 30/26/17
f 24/28/18 32/43/19 29/29/19
f 15/19/6 23/30/6 24/28/6
f 14/24/12 22/27/20 23/30/20
f 9/31/3 17/44/3 20/32/3
f 11/33/6 19/46/6 18/34/6
f 16/18/15 24/28/18 21/25/18
f 13/23/3 21/25/3 22/27/3
f 27/35/21 28/45/21 25/36/21
f 29/29/22 32/43/22 31/38/22
f 20/39/10 28/69/23 27/40/23
f 18/41/9 26/70/24 25/42/24
f 23/30/25 31/38/25 32/43/25
f 22/27/20 30/26/26 31/38/26
f 17/44/27 25/36/27 28/45/27
f 19/46/28 27/71/28 26/47/28
f 34/48/21 36/51/21 35/49/29
f 36/51/3 40/53/3 39/52/30
f 40/53/22 38/55/22 37/54/31
f 38/55/6 34/72/6 33/56/32
f 35/49/29 41/61/33 42/57/33
f 36/58/34 34/73/34 38/55/34
f 43/59/35 47/63/36 45/60/36
f 37/54/31 44/62/37 43/59/37
f 33/56/32 42/67/38 44/62/38
f 39/52/30 43/59/35 41/61/35
f 47/63/39 48/68/39 46/64/39
f 44/62/37 48/68/40 47/63/40
f 41/61/33 45/60/41 46/66/41
f 42/67/38 46/74/42 48/68/42
o Cube_Cube.014
v -0.159430 -1.232960 0.003813
v -0.023754 2.518242 0.000568
v -0.159430 -1.232960 -0.003813
v -0.023754 2.518242 -0.000568
v 0.159430 -1.232960 0.003813
v 0.023754 2.518242 0.000568
v 0.159430 -1.232960 -0.003813
v 0.023754 2.518242 -0.000568
v 0.000000 -1.232960 0.031302
v 0.000000 2.518242 0.004664
v 0.000000 -1.232960 -0.031302
v 0.000000 2.518242 -0.004664
vt 0.625000 0.000000
vt 0.375000 0.250000
vt 0.375000 0.000000
vt 0.375000 0.375000
vt 0.625000 0.500000
vt 0.375000 0.500000
vt 0.375000 0.750000
vt 0.375000 0.875000
vt 0.625000 1.000000
vt 0.375000 1.000000
vt 0.250000 0.750000
vt 0.125000 0.750000
vt 0.250000 0.500000
vt 0.750000 0.750000
vt 0.625000 0.750000
vt 0.750000 0.500000
vt 0.625000 0.250000
vt 0.625000 0.375000
vt 0.625000 0.875000
vt 0.125000 0.500000
vt 0.875000 0.500000
vt 0.875000 0.750000
vn -0.9993 0.0361 0.0000
vn 0.1699 0.0070 -0.9854
vn 0.9993 0.0361 0.0000
vn -0.1699 0.0070 0.9854
vn 0.0000 -1.0000 0.0000
vn 0.0000 1.0000 0.0000
vn 0.1699 0.0070 0.9854
vn -0.1699 0.0070 -0.9854
s off
f 50/75/43 51/76/43 49/77/43
f 59/78/44 56/79/44 55/80/44
f 56/79/45 53/81/45 55/80/45
f 57/82/46 50/83/46 49/84/46
f 57/85/47 49/86/47 59/87/47
f 58/88/48 54/89/48 60/90/48
f 54/89/49 57/82/49 53/81/49
f 52/91/50 59/78/50 51/76/50
f 50/75/43 52/91/43 51/76/43
f 59/78/44 60/92/44 56/79/44
f 56/79/45 54/89/45 53/81/45
f 57/82/46 58/93/46 50/83/46
f 49/86/47 51/94/47 59/87/47
f 59/87/47 55/80/47 53/81/47
f 53/81/47 57/85/47 59/87/47
f 54/89/48 56/79/48 60/90/48
f 60/90/48 52/95/48 50/96/48
f 50/96/48 58/88/48 60/90/48
f 54/89/49 58/93/49 57/82/49
f 52/91/50 60/92/50 59/78/50
