# Blender v3.4.1 OBJ File: 'bike.blend'
# www.blender.org
o Ramp_Cube.006
v -1.000000 -1.000000 1.000000
v -1.000000 1.000000 1.000000
v -1.000000 -0.999740 -1.000000
v 1.000000 -1.000000 1.000000
v 1.000000 1.000000 1.000000
v 1.000000 -1.000000 -1.000000
vt 0.375000 0.000000
vt 0.625000 0.000000
vt 0.375000 0.250000
vt 0.625000 0.500000
vt 0.625000 0.750000
vt 0.375000 0.750000
vt 0.375000 1.000000
vt 0.375000 0.500000
vt 0.125000 0.750000
vt 0.125000 0.500000
vt 0.875000 0.500000
vt 0.625000 1.000000
vt 0.875000 0.750000
vn -1.0000 0.0000 0.0000
vn 1.0000 0.0000 0.0000
vn 0.0000 0.0000 1.0000
vn -0.0001 -1.0000 -0.0001
vn 0.0001 0.7071 -0.7071
vn 0.0000 -1.0000 0.0000
vn 0.0000 0.7072 -0.7071
s off
f 1/1/1 2/2/1 3/3/1
f 6/4/2 5/5/2 4/6/2
f 5/5/3 1/7/3 4/6/3
f 6/8/4 1/9/4 3/10/4
f 3/11/5 5/5/5 6/4/5
f 5/5/3 2/12/3 1/7/3
f 6/8/6 4/6/6 1/9/6
f 3/11/7 2/13/7 5/5/7
