# Blender v3.4.1 OBJ File: 'metro_entities.blend'
# www.blender.org
o Cylinder_Cylinder.002
v 1.000000 -1.000000 0.000000
v 1.000000 1.000000 0.000000
v 0.980785 -1.000000 0.195090
v 0.980785 1.000000 0.195090
v 0.923880 -1.000000 0.382683
v 0.923880 1.000000 0.382683
v 0.831470 -1.000000 0.555570
v 0.831470 1.000000 0.555570
v 0.707107 -1.000000 0.707107
v 0.707107 1.000000 0.707107
v 0.555570 -1.000000 0.831470
v 0.555570 1.000000 0.831470
v 0.382683 -1.000000 0.923880
v 0.382683 1.000000 0.923880
v 0.195090 -1.000000 0.980785
v 0.195090 1.000000 0.980785
v -0.000000 -1.000000 1.000000
v -0.000000 1.000000 1.000000
v -0.195090 -1.000000 0.980785
v -0.195090 1.000000 0.980785
v -0.382683 -1.000000 0.923880
v -0.382683 1.000000 0.923880
v -0.555570 -1.000000 0.831470
v -0.555570 1.000000 0.831470
v -0.707107 -1.000000 0.707107
v -0.707107 1.000000 0.707107
v -0.831470 -1.000000 0.555570
v -0.831470 1.000000 0.555570
v -0.923880 -1.000000 0.382683
v -0.923880 1.000000 0.382683
v -0.980785 -1.000000 0.195090
v -0.980785 1.000000 0.195090
v -1.000000 -1.000000 -0.000000
v -1.000000 1.000000 -0.000000
v -0.980785 -1.000000 -0.195090
v -0.980785 1.000000 -0.195090
v -0.923880 -1.000000 -0.382683
v -0.923880 1.000000 -0.382683
v -0.831470 -1.000000 -0.555570
v -0.831470 1.000000 -0.555570
v -0.707107 -1.000000 -0.707107
v -0.707107 1.000000 -0.707107
v -0.555570 -1.000000 -0.831470
v -0.555570 1.000000 -0.831470
v -0.382683 -1.000000 -0.923880
v -0.382683 1.000000 -0.923880
v -0.195090 -1.000000 -0.980785
v -0.195090 1.000000 -0.980785
v 0.000000 -1.000000 -1.000000
v 0.000000 1.000000 -1.000000
v 0.195090 -1.000000 -0.980785
v 0.195090 1.000000 -0.980785
v 0.382683 -1.000000 -0.923880
v 0.382683 1.000000 -0.923880
v 0.555570 -1.000000 -0.831470
v 0.555570 1.000000 -0.831470
v 0.707107 -1.000000 -0.707107
v 0.707107 1.000000 -0.707107
v 0.831470 -1.000000 -0.555570
v 0.831470 1.000000 -0.555570
v 0.923880 -1.000000 -0.382683
v 0.923880 1.000000 -0.382683
v 0.980785 -1.000000 -0.195090
v 0.980785 1.000000 -0.195090
v -0.227365 -0.980838 -0.000000
v -0.227365 0.980838 -0.000000
v 0.227365 -0.980838 0.000000
v 0.227365 0.980838 0.000000
v -0.227365 -0.980838 1.691037
v -0.227365 0.980838 1.691037
v 0.227365 -0.980838 1.691037
v 0.227365 0.980838 1.691037
v 0.000004 0.980838 2.089083
v 0.000004 -0.980838 2.089083
v -0.000005 -0.980838 2.089083
v -0.000005 0.980838 2.089083
v 0.430636 0.980838 1.691037
v 0.430636 -0.980838 1.691037
v -0.430636 0.980838 1.691037
v -0.430636 -0.980838 1.691037
v 0.000083 0.980838 2.089083
v 0.000083 -0.980838 2.089083
v -0.000084 0.980838 2.089083
v -0.000084 -0.980838 2.089083
vt 0.625000 0.000000
vt 0.375000 0.250000
vt 0.375000 0.000000
vt 0.625000 0.250000
vt 0.375000 0.500000
vt 0.375000 0.500000
vt 0.375000 0.500000
vt 0.625000 0.750000
vt 0.375000 1.000000
vt 0.375000 0.750000
vt 0.125000 0.750000
vt 0.125000 0.500000
vt 0.875000 0.500000
vt 0.625000 0.500000
vt 0.625000 0.500000
vt 0.375000 0.750000
vt 0.625000 0.750000
vt 0.375000 0.750000
vt 0.625000 0.750000
vt 0.625000 0.500000
vt 0.375000 0.500000
vt 0.375000 0.750000
vt 0.625000 0.500000
vt 0.625000 0.750000
vt 0.625000 1.000000
vt 0.875000 0.750000
vt 1.000000 1.000000
vt 0.968750 0.500000
vt 1.000000 0.500000
vt 0.968750 1.000000
vt 0.937500 0.500000
vt 0.937500 1.000000
vt 0.906250 0.500000
vt 0.906250 1.000000
vt 0.875000 0.500000
vt 0.875000 1.000000
vt 0.843750 0.500000
vt 0.843750 1.000000
vt 0.812500 0.500000
vt 0.812500 1.000000
vt 0.781250 0.500000
vt 0.781250 1.000000
vt 0.750000 0.500000
vt 0.750000 1.000000
vt 0.718750 0.500000
vt 0.718750 1.000000
vt 0.687500 0.500000
vt 0.687500 1.000000
vt 0.656250 0.500000
vt 0.656250 1.000000
vt 0.625000 0.500000
vt 0.625000 1.000000
vt 0.593750 0.500000
vt 0.593750 1.000000
vt 0.562500 0.500000
vt 0.562500 1.000000
vt 0.531250 0.500000
vt 0.531250 1.000000
vt 0.500000 0.500000
vt 0.500000 1.000000
vt 0.468750 0.500000
vt 0.468750 1.000000
vt 0.437500 0.500000
vt 0.437500 1.000000
vt 0.406250 0.500000
vt 0.406250 1.000000
vt 0.375000 0.500000
vt 0.375000 1.000000
vt 0.343750 0.500000
vt 0.343750 1.000000
vt 0.312500 0.500000
vt 0.312500 1.000000
vt 0.281250 0.500000
vt 0.281250 1.000000
vt 0.250000 0.500000
vt 0.250000 1.000000
vt 0.218750 0.500000
vt 0.218750 1.000000
vt 0.187500 0.500000
vt 0.187500 1.000000
vt 0.156250 0.500000
vt 0.156250 1.000000
vt 0.125000 0.500000
vt 0.125000 1.000000
vt 0.093750 0.500000
vt 0.093750 1.000000
vt 0.062500 0.500000
vt 0.158156 0.028269
vt 0.471731 0.158156
vt 0.341844 0.471731
vt 0.062500 1.000000
vt 0.031250 0.500000
vt 0.031250 1.000000
vt 0.000000 0.500000
vt 0.796822 0.014612
vt 0.514612 0.203178
vt 0.703178 0.485388
vt 0.296822 0.485388
vt 0.250000 0.490000
vt 0.203178 0.485388
vt 0.158156 0.471731
vt 0.116663 0.449553
vt 0.080294 0.419706
vt 0.050447 0.383337
vt 0.028269 0.341844
vt 0.014612 0.296822
vt 0.010000 0.250000
vt 0.014612 0.203178
vt 0.028269 0.158156
vt 0.050447 0.116663
vt 0.080294 0.080294
vt 0.116663 0.050447
vt 0.203178 0.014612
vt 0.341844 0.028269
vt 0.250000 0.010000
vt 0.296822 0.014612
vt 0.383337 0.050447
vt 0.419706 0.080294
vt 0.449553 0.116663
vt 0.485388 0.203178
vt 0.471731 0.341844
vt 0.490000 0.250000
vt 0.485388 0.296822
vt 0.449553 0.383337
vt 0.419706 0.419706
vt 0.383337 0.449553
vt 0.000000 1.000000
vt 0.750000 0.490000
vt 0.796822 0.485388
vt 0.841844 0.471731
vt 0.883337 0.449553
vt 0.919706 0.419706
vt 0.949553 0.383337
vt 0.971731 0.341844
vt 0.985388 0.296822
vt 0.990000 0.250000
vt 0.985388 0.203178
vt 0.971731 0.158156
vt 0.949553 0.116663
vt 0.919706 0.080294
vt 0.883337 0.050447
vt 0.841844 0.028269
vt 0.750000 0.010000
vt 0.703178 0.014612
vt 0.658156 0.028269
vt 0.616663 0.050447
vt 0.580294 0.080294
vt 0.550447 0.116663
vt 0.528269 0.158156
vt 0.510000 0.250000
vt 0.514612 0.296822
vt 0.528269 0.341844
vt 0.550447 0.383337
vt 0.580294 0.419706
vt 0.616663 0.449553
vt 0.658156 0.471731
vn 0.0000 0.0000 -1.0000
vn 1.0000 0.0000 0.0000
vn 0.0000 -1.0000 0.0010
vn -1.0000 0.0000 -0.0000
vn 0.0000 -1.0000 0.0000
vn 0.0000 1.0000 0.0000
vn 0.0000 0.0000 1.0000
vn -0.6788 0.0000 0.7343
vn 0.6788 0.0000 0.7343
vn 0.0000 1.0000 0.0010
vn 0.0000 -1.0000 -0.0063
vn 0.0000 1.0000 -0.0063
vn 0.9808 0.0000 0.1951
vn 0.9239 0.0000 0.3827
vn 0.8315 0.0000 0.5556
vn 0.7071 0.0000 0.7071
vn 0.5556 0.0000 0.8315
vn 0.3827 0.0000 0.9239
vn 0.1951 0.0000 0.9808
vn -0.1951 0.0000 0.9808
vn -0.3827 0.0000 0.9239
vn -0.5556 0.0000 0.8315
vn -0.7071 0.0000 0.7071
vn -0.8315 0.0000 0.5556
vn -0.9239 0.0000 0.3827
vn -0.9808 0.0000 0.1951
vn -0.9808 0.0000 -0.1951
vn -0.9239 0.0000 -0.3827
vn -0.8315 0.0000 -0.5556
vn -0.7071 0.0000 -0.7071
vn -0.5556 0.0000 -0.8315
vn -0.3827 0.0000 -0.9239
vn -0.1951 0.0000 -0.9808
vn 0.1951 0.0000 -0.9808
vn 0.3827 0.0000 -0.9239
vn 0.5556 0.0000 -0.8315
vn 0.7071 0.0000 -0.7071
vn 0.8315 0.0000 -0.5556
vn 0.9239 0.0000 -0.3827
vn 0.9808 0.0000 -0.1951
s off
f 66/1/1 67/2/1 65/3/1
f 68/4/2 71/5/2 67/2/2
f 71/5/3 82/6/3 74/7/3
f 70/8/4 65/9/4 69/10/4
f 71/5/5 65/11/5 67/12/5
f 68/13/6 70/8/6 72/14/6
f 73/15/7 75/16/7 74/7/7
f 71/5/5 75/16/5 69/10/5
f 70/8/6 73/15/6 72/14/6
f 69/10/1 79/17/1 70/8/1
f 80/18/8 83/19/8 79/17/8
f 77/20/9 82/6/9 78/21/9
f 69/10/5 84/22/5 80/18/5
f 74/7/7 81/23/7 73/15/7
f 72/14/6 81/23/6 77/20/6
f 70/8/10 83/19/10 76/24/10
f 72/14/1 78/21/1 71/5/1
f 76/24/7 84/22/7 75/16/7
f 66/1/1 68/4/1 67/2/1
f 68/4/2 72/14/2 71/5/2
f 71/5/5 78/21/5 82/6/5
f 70/8/4 66/25/4 65/9/4
f 71/5/5 69/10/5 65/11/5
f 68/13/6 66/26/6 70/8/6
f 73/15/7 76/24/7 75/16/7
f 71/5/11 74/7/11 75/16/11
f 70/8/12 76/24/12 73/15/12
f 69/10/1 80/18/1 79/17/1
f 80/18/8 84/22/8 83/19/8
f 77/20/9 81/23/9 82/6/9
f 69/10/3 75/16/3 84/22/3
f 74/7/7 82/6/7 81/23/7
f 72/14/10 73/15/10 81/23/10
f 70/8/6 79/17/6 83/19/6
f 72/14/1 77/20/1 78/21/1
f 76/24/7 83/19/7 84/22/7
s 1
f 2/27/2 3/28/13 1/29/2
f 4/30/13 5/31/14 3/28/13
f 6/32/14 7/33/15 5/31/14
f 8/34/15 9/35/16 7/33/15
f 10/36/16 11/37/17 9/35/16
f 12/38/17 13/39/18 11/37/17
f 14/40/18 15/41/19 13/39/18
f 16/42/19 17/43/7 15/41/19
f 18/44/7 19/45/20 17/43/7
f 20/46/20 21/47/21 19/45/20
f 22/48/21 23/49/22 21/47/21
f 24/50/22 25/51/23 23/49/22
f 26/52/23 27/53/24 25/51/23
f 28/54/24 29/55/25 27/53/24
f 30/56/25 31/57/26 29/55/25
f 32/58/26 33/59/4 31/57/26
f 34/60/4 35/61/27 33/59/4
f 36/62/27 37/63/28 35/61/27
f 38/64/28 39/65/29 37/63/28
f 40/66/29 41/67/30 39/65/29
f 42/68/30 43/69/31 41/67/30
f 44/70/31 45/71/32 43/69/31
f 46/72/32 47/73/33 45/71/32
f 48/74/33 49/75/1 47/73/33
f 50/76/1 51/77/34 49/75/1
f 52/78/34 53/79/35 51/77/34
f 54/80/35 55/81/36 53/79/35
f 56/82/36 57/83/37 55/81/36
f 58/84/37 59/85/38 57/83/37
f 60/86/38 61/87/39 59/85/38
f 38/88/6 22/89/6 6/90/6
f 62/91/39 63/92/40 61/87/39
f 64/93/40 1/94/2 63/92/40
f 31/95/5 47/96/5 63/97/5
f 2/27/2 4/30/13 3/28/13
f 4/30/13 6/32/14 5/31/14
f 6/32/14 8/34/15 7/33/15
f 8/34/15 10/36/16 9/35/16
f 10/36/16 12/38/17 11/37/17
f 12/38/17 14/40/18 13/39/18
f 14/40/18 16/42/19 15/41/19
f 16/42/19 18/44/7 17/43/7
f 18/44/7 20/46/20 19/45/20
f 20/46/20 22/48/21 21/47/21
f 22/48/21 24/50/22 23/49/22
f 24/50/22 26/52/23 25/51/23
f 26/52/23 28/54/24 27/53/24
f 28/54/24 30/56/25 29/55/25
f 30/56/25 32/58/26 31/57/26
f 32/58/26 34/60/4 33/59/4
f 34/60/4 36/62/27 35/61/27
f 36/62/27 38/64/28 37/63/28
f 38/64/28 40/66/29 39/65/29
f 40/66/29 42/68/30 41/67/30
f 42/68/30 44/70/31 43/69/31
f 44/70/31 46/72/32 45/71/32
f 46/72/32 48/74/33 47/73/33
f 48/74/33 50/76/1 49/75/1
f 50/76/1 52/78/34 51/77/34
f 52/78/34 54/80/35 53/79/35
f 54/80/35 56/82/36 55/81/36
f 56/82/36 58/84/37 57/83/37
f 58/84/37 60/86/38 59/85/38
f 60/86/38 62/91/39 61/87/39
f 6/90/6 4/98/6 2/99/6
f 2/99/6 64/100/6 6/90/6
f 64/100/6 62/101/6 6/90/6
f 62/101/6 60/102/6 58/103/6
f 58/103/6 56/104/6 54/105/6
f 54/105/6 52/106/6 50/107/6
f 50/107/6 48/108/6 54/105/6
f 48/108/6 46/109/6 54/105/6
f 46/109/6 44/110/6 42/111/6
f 42/111/6 40/112/6 38/88/6
f 38/88/6 36/113/6 30/114/6
f 36/113/6 34/115/6 30/114/6
f 34/115/6 32/116/6 30/114/6
f 30/114/6 28/117/6 26/118/6
f 26/118/6 24/119/6 22/89/6
f 22/89/6 20/120/6 14/121/6
f 20/120/6 18/122/6 14/121/6
f 18/122/6 16/123/6 14/121/6
f 14/121/6 12/124/6 10/125/6
f 10/125/6 8/126/6 6/90/6
f 62/101/6 58/103/6 6/90/6
f 58/103/6 54/105/6 6/90/6
f 46/109/6 42/111/6 54/105/6
f 42/111/6 38/88/6 54/105/6
f 30/114/6 26/118/6 38/88/6
f 26/118/6 22/89/6 38/88/6
f 14/121/6 10/125/6 22/89/6
f 10/125/6 6/90/6 22/89/6
f 6/90/6 54/105/6 38/88/6
f 62/91/39 64/93/40 63/92/40
f 64/93/40 2/127/2 1/94/2
f 63/97/5 1/128/5 3/129/5
f 3/129/5 5/130/5 7/131/5
f 7/131/5 9/132/5 11/133/5
f 11/133/5 13/134/5 15/135/5
f 15/135/5 17/136/5 19/137/5
f 19/137/5 21/138/5 23/139/5
f 23/139/5 25/140/5 27/141/5
f 27/141/5 29/142/5 31/95/5
f 31/95/5 33/143/5 35/144/5
f 35/144/5 37/145/5 39/146/5
f 39/146/5 41/147/5 43/148/5
f 43/148/5 45/149/5 47/96/5
f 47/96/5 49/150/5 51/151/5
f 51/151/5 53/152/5 55/153/5
f 55/153/5 57/154/5 59/155/5
f 59/155/5 61/156/5 63/97/5
f 63/97/5 3/129/5 15/135/5
f 3/129/5 7/131/5 15/135/5
f 7/131/5 11/133/5 15/135/5
f 15/135/5 19/137/5 31/95/5
f 19/137/5 23/139/5 31/95/5
f 23/139/5 27/141/5 31/95/5
f 31/95/5 35/144/5 47/96/5
f 35/144/5 39/146/5 47/96/5
f 39/146/5 43/148/5 47/96/5
f 47/96/5 51/151/5 63/97/5
f 51/151/5 55/153/5 63/97/5
f 55/153/5 59/155/5 63/97/5
f 63/97/5 15/135/5 31/95/5
