# Blender v3.4.1 OBJ File: 'decoratives_and_entities.blend'
# www.blender.org
o LightPost_Pillar_Cube.021
v -0.244405 1.551007 0.244405
v -0.204448 1.834962 0.204448
v -0.244405 1.551007 -0.244405
v -0.204448 1.834962 -0.204448
v 0.244405 1.551007 0.244405
v 0.204448 1.834962 0.204448
v 0.244405 1.551007 -0.244405
v 0.204448 1.834962 -0.204448
v -0.369040 -1.359157 0.369040
v -0.246143 1.032215 0.246143
v -0.369040 -1.359157 -0.369040
v -0.246143 1.032215 -0.246143
v 0.369040 -1.359157 0.369040
v 0.246143 1.032215 0.246143
v 0.369040 -1.359157 -0.369040
v 0.246143 1.032215 -0.246143
v -0.420604 -1.403894 -0.420604
v -0.420604 -1.403894 0.420604
v 0.420604 -1.403894 -0.420604
v 0.420604 -1.403894 0.420604
v -0.442545 -1.487620 -0.442545
v -0.442545 -1.487620 0.442545
v 0.442545 -1.487620 -0.442545
v 0.442545 -1.487620 0.442545
v -0.177710 0.950559 -0.179105
v -0.158391 1.610622 -0.159546
v -0.241127 0.950559 -0.179105
v -0.221807 1.610622 -0.159546
v -0.177710 0.950559 -0.242521
v -0.158391 1.610622 -0.222962
v -0.241127 0.950559 -0.242521
v -0.221807 1.610622 -0.222962
v 0.179105 0.950559 -0.177710
v 0.159546 1.610622 -0.158391
v 0.179105 0.950559 -0.241126
v 0.159546 1.610622 -0.221807
v 0.242521 0.950559 -0.177710
v 0.222962 1.610622 -0.158391
v 0.242521 0.950559 -0.241126
v 0.222962 1.610622 -0.221807
v 0.177710 0.950559 0.179105
v 0.158391 1.610622 0.159546
v 0.241127 0.950559 0.179105
v 0.221807 1.610622 0.159546
v 0.177710 0.950559 0.242521
v 0.158391 1.610622 0.222962
v 0.241127 0.950559 0.242521
v 0.221807 1.610622 0.222962
v -0.179105 0.950559 0.177710
v -0.159546 1.610622 0.158391
v -0.179105 0.950559 0.241127
v -0.159546 1.610622 0.221807
v -0.242521 0.950559 0.177710
v -0.222962 1.610622 0.158391
v -0.242521 0.950559 0.241127
v -0.222962 1.610622 0.221807
vt 0.375000 0.000000
vt 0.625000 0.250000
vt 0.375000 0.250000
vt 0.625000 0.500000
vt 0.375000 0.500000
vt 0.625000 0.750000
vt 0.375000 0.750000
vt 0.625000 1.000000
vt 0.375000 1.000000
vt 0.125000 0.750000
vt 0.125000 0.500000
vt 0.875000 0.500000
vt 0.625000 0.000000
vt 0.375000 0.250000
vt 0.375000 0.000000
vt 0.625000 0.250000
vt 0.375000 0.500000
vt 0.625000 0.500000
vt 0.375000 0.750000
vt 0.625000 0.750000
vt 0.375000 1.000000
vt 0.375000 0.750000
vt 0.875000 0.500000
vt 0.375000 0.500000
vt 0.375000 0.750000
vt 0.375000 0.500000
vt 0.375000 0.250000
vt 0.375000 0.000000
vt 0.125000 0.750000
vt 0.125000 0.500000
vt 0.375000 0.250000
vt 0.375000 0.000000
vt 0.375000 1.000000
vt 0.375000 0.000000
vt 0.625000 0.250000
vt 0.375000 0.250000
vt 0.625000 0.500000
vt 0.375000 0.500000
vt 0.375000 0.750000
vt 0.625000 0.750000
vt 0.375000 1.000000
vt 0.125000 0.750000
vt 0.125000 0.500000
vt 0.875000 0.500000
vt 0.375000 0.000000
vt 0.625000 0.250000
vt 0.375000 0.250000
vt 0.625000 0.500000
vt 0.375000 0.500000
vt 0.375000 0.750000
vt 0.625000 0.750000
vt 0.375000 1.000000
vt 0.125000 0.750000
vt 0.125000 0.500000
vt 0.875000 0.500000
vt 0.375000 0.000000
vt 0.625000 0.250000
vt 0.375000 0.250000
vt 0.625000 0.500000
vt 0.375000 0.500000
vt 0.375000 0.750000
vt 0.625000 0.750000
vt 0.375000 1.000000
vt 0.125000 0.750000
vt 0.125000 0.500000
vt 0.875000 0.500000
vt 0.375000 0.000000
vt 0.625000 0.250000
vt 0.375000 0.250000
vt 0.625000 0.500000
vt 0.375000 0.500000
vt 0.375000 0.750000
vt 0.625000 0.750000
vt 0.375000 1.000000
vt 0.125000 0.500000
vt 0.125000 0.750000
vt 0.875000 0.500000
vt 0.625000 0.000000
vt 0.875000 0.750000
vt 0.625000 1.000000
vt 0.375000 1.000000
vt 0.875000 0.750000
vt 0.625000 0.000000
vt 0.625000 1.000000
vt 0.875000 0.750000
vt 0.625000 0.000000
vt 0.625000 1.000000
vt 0.875000 0.750000
vt 0.625000 0.000000
vt 0.625000 1.000000
vt 0.875000 0.750000
vt 0.625000 0.000000
vt 0.625000 1.000000
vt 0.875000 0.750000
vn -0.9902 0.1393 0.0000
vn 0.0000 0.1393 -0.9902
vn 0.9902 0.1393 0.0000
vn 0.0000 0.1393 0.9902
vn 0.0000 -1.0000 0.0000
vn 0.0000 1.0000 0.0000
vn -0.9987 0.0513 0.0000
vn 0.0000 0.0513 -0.9987
vn 0.9987 0.0513 0.0000
vn 0.0000 0.0513 0.9987
vn 0.0000 0.7553 0.6553
vn 0.9673 0.2535 0.0000
vn 0.0000 0.7553 -0.6553
vn -0.6553 0.7553 0.0000
vn 0.6553 0.7553 0.0000
vn -0.9673 0.2535 0.0000
vn 0.0000 0.2535 0.9673
vn 0.0000 0.2535 -0.9673
vn 0.0000 -0.0296 0.9996
vn -0.9996 0.0293 0.0000
vn 0.0000 0.0296 -0.9996
vn 0.9996 -0.0293 0.0000
vn -0.9996 -0.0296 0.0000
vn 0.0000 0.0293 -0.9996
vn 0.9996 0.0296 0.0000
vn 0.0000 -0.0293 0.9996
vn 0.0000 -0.0296 -0.9996
vn 0.9996 0.0293 0.0000
vn 0.0000 0.0296 0.9996
vn -0.9996 -0.0293 0.0000
vn 0.9996 -0.0296 0.0000
vn 0.0000 0.0293 0.9996
vn -0.9996 0.0296 0.0000
vn 0.0000 -0.0293 -0.9996
s off
f 1/1/1 4/2/1 3/3/1
f 3/3/2 8/4/2 7/5/2
f 7/5/3 6/6/3 5/7/3
f 5/7/4 2/8/4 1/9/4
f 7/5/5 1/10/5 3/11/5
f 4/12/6 6/6/6 8/4/6
f 10/13/7 11/14/7 9/15/7
f 12/16/8 15/17/8 11/14/8
f 16/18/9 13/19/9 15/17/9
f 14/20/10 9/21/10 13/19/10
f 9/21/11 20/22/11 13/19/11
f 12/23/6 14/20/6 16/18/6
f 19/24/12 24/25/12 23/26/12
f 15/17/13 17/27/13 11/14/13
f 11/14/14 18/28/14 9/15/14
f 13/19/15 19/24/15 15/17/15
f 23/26/5 22/29/5 21/30/5
f 18/28/16 21/31/16 22/32/16
f 20/22/17 22/33/17 24/25/17
f 17/27/18 23/26/18 21/31/18
f 25/34/19 28/35/19 27/36/19
f 27/36/20 32/37/20 31/38/20
f 32/37/21 29/39/21 31/38/21
f 30/40/22 25/41/22 29/39/22
f 31/38/5 25/42/5 27/43/5
f 28/44/6 30/40/6 32/37/6
f 33/45/23 36/46/23 35/47/23
f 35/47/24 40/48/24 39/49/24
f 40/48/25 37/50/25 39/49/25
f 38/51/26 33/52/26 37/50/26
f 39/49/5 33/53/5 35/54/5
f 36/55/6 38/51/6 40/48/6
f 41/56/27 44/57/27 43/58/27
f 43/58/28 48/59/28 47/60/28
f 48/59/29 45/61/29 47/60/29
f 46/62/30 41/63/30 45/61/30
f 47/60/5 41/64/5 43/65/5
f 44/66/6 46/62/6 48/59/6
f 49/67/31 52/68/31 51/69/31
f 51/69/32 56/70/32 55/71/32
f 56/70/33 53/72/33 55/71/33
f 54/73/34 49/74/34 53/72/34
f 51/75/5 53/72/5 49/76/5
f 52/77/6 54/73/6 56/70/6
f 1/1/1 2/78/1 4/2/1
f 3/3/2 4/2/2 8/4/2
f 7/5/3 8/4/3 6/6/3
f 5/7/4 6/6/4 2/8/4
f 7/5/5 5/7/5 1/10/5
f 4/12/6 2/79/6 6/6/6
f 10/13/7 12/16/7 11/14/7
f 12/16/8 16/18/8 15/17/8
f 16/18/9 14/20/9 13/19/9
f 14/20/10 10/80/10 9/21/10
f 9/21/11 18/81/11 20/22/11
f 12/23/6 10/82/6 14/20/6
f 19/24/12 20/22/12 24/25/12
f 15/17/13 19/24/13 17/27/13
f 11/14/14 17/27/14 18/28/14
f 13/19/15 20/22/15 19/24/15
f 23/26/5 24/25/5 22/29/5
f 18/28/16 17/27/16 21/31/16
f 20/22/17 18/81/17 22/33/17
f 17/27/18 19/24/18 23/26/18
f 25/34/19 26/83/19 28/35/19
f 27/36/20 28/35/20 32/37/20
f 32/37/21 30/40/21 29/39/21
f 30/40/22 26/84/22 25/41/22
f 31/38/5 29/39/5 25/42/5
f 28/44/6 26/85/6 30/40/6
f 33/45/23 34/86/23 36/46/23
f 35/47/24 36/46/24 40/48/24
f 40/48/25 38/51/25 37/50/25
f 38/51/26 34/87/26 33/52/26
f 39/49/5 37/50/5 33/53/5
f 36/55/6 34/88/6 38/51/6
f 41/56/27 42/89/27 44/57/27
f 43/58/28 44/57/28 48/59/28
f 48/59/29 46/62/29 45/61/29
f 46/62/30 42/90/30 41/63/30
f 47/60/5 45/61/5 41/64/5
f 44/66/6 42/91/6 46/62/6
f 49/67/31 50/92/31 52/68/31
f 51/69/32 52/68/32 56/70/32
f 56/70/33 54/73/33 53/72/33
f 54/73/34 50/93/34 49/74/34
f 51/75/5 55/71/5 53/72/5
f 52/77/6 50/94/6 54/73/6
