# Blender v3.4.1 OBJ File: 'decoratives_and_entities.blend'
# www.blender.org
o Lily_Pad_Cylinder.080
v 0.000000 -0.061558 -1.000000
v -0.000000 -0.008005 -1.073947
v 0.309017 -0.061558 -0.951057
v 0.331868 -0.008005 -1.021384
v 0.587785 -0.061558 -0.809017
v 0.631250 -0.008005 -0.868841
v 0.809017 -0.061558 -0.587785
v 0.868841 -0.008005 -0.631250
v 0.951057 -0.061558 -0.309017
v 1.021384 -0.008005 -0.331868
v 1.000000 -0.061558 0.000000
v 1.073947 -0.008005 -0.000000
v 0.951057 -0.061558 0.309017
v 1.021384 -0.008005 0.331868
v 0.809017 -0.061558 0.587785
v 0.868841 -0.008005 0.631250
v 0.587785 -0.061558 0.809017
v 0.631250 -0.008005 0.868841
v 0.309017 -0.061558 0.951057
v 0.331868 -0.008005 1.021384
v 0.000000 -0.061558 1.000000
v -0.000000 -0.008005 1.073947
v -0.309017 -0.061558 0.951057
v -0.331868 -0.008005 1.021384
v -0.587785 -0.061558 0.809017
v -0.631250 -0.008005 0.868841
v -0.809017 -0.061558 0.587785
v -0.868841 -0.008005 0.631250
v -0.951057 -0.061558 0.309017
v -1.021384 -0.008005 0.331868
v -1.000000 -0.061558 0.000000
v -1.073947 -0.008005 -0.000000
v -0.951057 -0.061558 -0.309017
v -1.021384 -0.008005 -0.331868
v -0.809017 -0.061558 -0.587785
v -0.868841 -0.008005 -0.631250
v -0.587785 -0.061558 -0.809017
v -0.631250 -0.008005 -0.868841
v -0.309017 -0.061558 -0.951057
v -0.331868 -0.008005 -1.021384
v 0.331868 0.018817 -1.021384
v 0.056284 0.024000 -1.092763
v 0.631250 0.018817 -0.868841
v 0.868841 0.018817 -0.631250
v 1.021384 0.018817 -0.331868
v 1.073947 0.018817 -0.000000
v 1.021384 0.018817 0.331868
v 0.939567 0.027440 0.585544
v 0.634031 0.027440 0.891079
v 0.316843 0.022467 1.039054
v -0.055200 0.022467 1.097979
v -0.331868 0.018817 1.021384
v -0.596546 0.023064 0.928951
v -0.867605 0.023064 0.657893
v -1.041635 0.023064 0.316339
v -1.101601 0.023064 -0.062275
v -1.057116 0.018817 -0.343641
v -0.904573 0.018817 -0.643024
v -0.683472 0.024000 -0.852402
v -0.332629 0.024000 -1.031165
v 0.337342 -0.023427 -0.977135
v 0.027023 -0.007961 -1.046557
v 0.664187 -0.002779 -0.810599
v 0.811076 -0.002779 -0.589281
v 0.953477 -0.002779 -0.309804
v 1.002545 -0.002779 -0.000000
v 0.953477 -0.002779 0.309804
v 0.881188 0.019891 0.524616
v 0.621247 -0.028294 0.832139
v 0.317193 -0.023321 0.981814
v -0.042107 -0.006429 1.038722
v -0.308822 -0.002779 0.970326
v -0.558556 -0.007026 0.876661
v -0.820330 -0.026063 0.614887
v -0.988399 -0.007026 0.285032
v -1.046312 -0.007026 -0.080615
v -1.010453 -0.002779 -0.348350
v -0.863135 -0.011889 -0.637478
v -0.666915 -0.007961 -0.807338
v -0.397565 -0.007961 -0.979309
v -0.000000 -0.074883 0.000000
v 0.868841 -0.032327 -0.631250
v 1.021384 -0.032327 -0.331868
v 0.748621 -0.049492 -0.508138
v 0.851120 -0.049492 -0.306971
v 0.164812 -0.016999 -0.083976
vt 1.000000 1.000000
vt 0.950000 0.500000
vt 1.000000 0.500000
vt 0.950000 1.000000
vt 0.900000 0.500000
vt 0.900000 1.000000
vt 0.850000 0.500000
vt 0.800000 1.000000
vt 0.750000 0.500000
vt 0.800000 0.500000
vt 0.750000 1.000000
vt 0.700000 0.500000
vt 0.700000 1.000000
vt 0.650000 0.500000
vt 0.650000 1.000000
vt 0.600000 0.500000
vt 0.600000 1.000000
vt 0.550000 0.500000
vt 0.550000 1.000000
vt 0.500000 0.500000
vt 0.500000 1.000000
vt 0.450000 0.500000
vt 0.450000 1.000000
vt 0.400000 0.500000
vt 0.400000 1.000000
vt 0.350000 0.500000
vt 0.350000 1.000000
vt 0.300000 0.500000
vt 0.300000 1.000000
vt 0.250000 0.500000
vt 0.250000 1.000000
vt 0.200000 0.500000
vt 0.200000 1.000000
vt 0.150000 0.500000
vt 0.150000 1.000000
vt 0.100000 0.500000
vt -0.000000 1.000000
vt 0.050000 1.000000
vt -0.000000 1.000000
vt 0.100000 1.000000
vt 0.050000 0.500000
vt 0.050000 1.000000
vt -0.000000 0.500000
vt 0.250000 1.000000
vt 0.300000 1.000000
vt 0.250000 1.000000
vt 0.850000 1.000000
vt 0.850000 1.000000
vt 0.600000 1.000000
vt 0.950000 1.000000
vt 0.350000 1.000000
vt 0.150000 1.000000
vt 0.100000 1.000000
vt 0.700000 1.000000
vt 0.450000 1.000000
vt 0.200000 1.000000
vt 0.550000 1.000000
vt 0.300000 1.000000
vt 0.900000 1.000000
vt 0.650000 1.000000
vt 0.400000 1.000000
vt 0.750000 1.000000
vt 0.500000 1.000000
vt 0.650000 1.000000
vt 0.600000 1.000000
vt 1.000000 1.000000
vt 0.950000 1.000000
vt 0.200000 1.000000
vt 0.550000 1.000000
vt 0.900000 1.000000
vt 0.150000 1.000000
vt 0.500000 1.000000
vt 0.850000 1.000000
vt 0.100000 1.000000
vt 0.450000 1.000000
vt 0.050000 1.000000
vt 0.400000 1.000000
vt 0.800000 1.000000
vt 0.750000 1.000000
vt -0.000000 1.000000
vt 0.350000 1.000000
vt 0.700000 1.000000
vt 0.324164 0.478254
vt 0.250000 0.490000
vt 0.250000 0.250000
vt 0.175836 0.478254
vt 0.108932 0.444164
vt 0.055836 0.391068
vt 0.021746 0.324164
vt 0.010000 0.250000
vt 0.021746 0.175836
vt 0.055836 0.108932
vt 0.108932 0.055836
vt 0.175836 0.021746
vt 0.250000 0.010000
vt 0.324164 0.021746
vt 0.391068 0.055836
vt 0.444164 0.108932
vt 0.478254 0.175836
vt 0.490000 0.250000
vt 0.478254 0.324164
vt 0.444164 0.391068
vt 0.391068 0.444164
vt 0.250000 0.250000
vt 0.444164 0.391068
vt 0.800000 1.000000
vt 0.800000 1.000000
vt 0.800000 1.000000
vt 0.478254 0.324164
vt 0.850000 1.000000
vt 1.000000 1.000000
vt 0.850000 1.000000
vn -0.0000 -0.8099 -0.5865
vn 0.1813 -0.8099 -0.5578
vn 0.3448 -0.8099 -0.4745
vn 0.4181 -0.8064 -0.4181
vn 0.5840 -0.8064 -0.0925
vn 0.5865 -0.8099 -0.0000
vn 0.5578 -0.8099 0.1813
vn 0.4745 -0.8099 0.3448
vn 0.5684 -0.6739 0.4719
vn 0.3448 -0.8099 0.4745
vn 0.4543 -0.6481 0.6112
vn 0.1813 -0.8099 0.5578
vn 0.2778 -0.5879 0.7597
vn 0.0000 -0.8099 0.5865
vn 0.0436 -0.6718 0.7395
vn -0.1813 -0.8099 0.5578
vn -0.3448 -0.8099 0.4745
vn -0.4561 -0.6959 0.5547
vn -0.4745 -0.8099 0.3448
vn -0.6577 -0.6115 0.4399
vn -0.5578 -0.8099 0.1813
vn -0.7435 -0.6107 0.2725
vn -0.5865 -0.8099 0.0000
vn -0.7254 -0.6866 0.0488
vn -0.5578 -0.8099 -0.1813
vn -0.5548 -0.8123 -0.1801
vn -0.4745 -0.8099 -0.3448
vn -0.4762 -0.8034 -0.3574
vn -0.3448 -0.8099 -0.4745
vn -0.0918 -0.3797 -0.9205
vn -0.2901 -0.2860 -0.9133
vn 0.1128 -0.6435 -0.7571
vn -0.4270 -0.5942 -0.6817
vn -0.1813 -0.8099 -0.5578
vn 0.4734 0.8807 -0.0176
vn 0.2793 0.9575 -0.0724
vn 0.2943 0.9557 0.0079
vn 0.5878 0.0000 -0.8090
vn 0.7071 0.0000 -0.7071
vn 0.4848 -0.4918 0.7233
vn 0.1564 0.0000 -0.9877
vn 0.3129 0.0000 -0.9498
vn 0.3090 0.0000 -0.9511
vn -0.6915 -0.4542 0.5618
vn -0.4958 -0.7964 -0.3463
vn -0.5350 -0.5385 -0.6510
vn 1.0000 0.0000 -0.0000
vn 0.9523 0.0000 0.3051
vn 0.9511 0.0000 0.3090
vn -0.1564 0.0000 0.9877
vn -0.3090 0.0000 0.9511
vn -0.5557 -0.8118 -0.1793
vn 0.2379 -0.4043 0.8831
vn -0.8639 -0.4470 0.2321
vn -0.3027 -0.2851 -0.9094
vn 0.5400 -0.8171 0.2019
vn 0.5677 -0.7751 0.2773
vn -0.2014 -0.8179 0.5390
vn -0.2786 -0.7781 0.5630
vn 0.9877 0.0000 -0.1564
vn -0.1065 -0.7274 0.6779
vn -0.6909 -0.7210 -0.0529
vn -0.4328 0.7016 -0.5661
vn -0.6441 0.6206 -0.4472
vn -0.5089 0.6778 -0.5306
vn -0.2159 0.7107 0.6695
vn 0.0198 0.9293 0.3687
vn -0.2779 0.6774 0.6811
vn 0.4326 0.8928 0.1252
vn 0.2752 0.9564 0.0981
vn -0.1960 0.7637 -0.6151
vn -0.1604 0.7780 -0.6074
vn -0.3217 0.8876 0.3296
vn -0.2765 0.8396 0.4676
vn 0.5123 0.7821 0.3549
vn 0.3127 0.9109 0.2694
vn 0.0236 0.9584 -0.2846
vn 0.0311 0.9035 -0.4275
vn -0.2661 0.9450 0.1899
vn -0.1491 0.9838 0.0990
vn 0.2096 0.9382 0.2753
vn 0.3459 0.8108 0.4722
vn 0.0626 0.9738 -0.2185
vn 0.1041 0.9294 -0.3540
vn 0.2251 0.8404 0.4931
vn 0.1416 0.7536 0.6419
vn 0.1363 0.9610 -0.2407
vn 0.2331 0.9064 -0.3523
vn -0.2892 0.9562 0.0458
vn -0.1924 0.9813 0.0000
vn -0.2895 0.9572 0.0000
vn -0.0438 0.8344 0.5494
vn 0.4730 0.8076 -0.3522
vn 0.3007 0.9296 -0.2130
vn -0.2479 0.9631 -0.1051
vn -0.1669 0.9818 -0.0906
vn 0.4210 0.8954 -0.1448
vn -0.0845 0.9949 -0.0553
vn -0.0658 0.9960 -0.0604
vn -0.0201 0.9988 0.0457
vn -0.0009 1.0000 -0.0006
vn 0.0142 0.9983 -0.0570
vn -0.0696 0.9976 -0.0039
vn -0.1923 0.9809 0.0305
vn 0.6346 0.2785 0.7209
vn 0.5294 0.4924 0.6909
vn 0.5459 0.4722 0.6921
vn -0.2166 0.2911 -0.9319
vn -0.2693 0.0965 -0.9582
vn -0.2773 0.5603 -0.7805
vn 0.3002 0.4009 0.8655
vn 0.6169 0.0965 0.7811
vn 0.5878 0.0000 0.8090
vn 0.1665 -0.7007 -0.6938
vn -0.1597 -0.7733 0.6137
vn 0.8910 0.0000 0.4540
vn -0.4540 0.0000 0.8910
vn -0.0630 0.9960 -0.0630
vn -0.5248 0.5426 -0.6559
vn -0.3090 0.0000 -0.9511
vn -0.2897 0.5890 -0.7544
s 1
f 2/1/1 3/2/2 1/3/1
f 4/4/2 5/5/3 3/2/2
f 6/6/3 7/7/4 5/5/3
f 10/8/5 11/9/6 9/10/5
f 12/11/6 13/12/7 11/9/6
f 14/13/7 15/14/8 13/12/7
f 16/15/9 17/16/10 15/14/8
f 18/17/11 19/18/12 17/16/10
f 20/19/13 21/20/14 19/18/12
f 22/21/15 23/22/16 21/20/14
f 24/23/16 25/24/17 23/22/16
f 26/25/18 27/26/19 25/24/17
f 28/27/20 29/28/21 27/26/19
f 30/29/22 31/30/23 29/28/21
f 32/31/24 33/32/25 31/30/23
f 34/33/26 35/34/27 33/32/25
f 36/35/28 37/36/29 35/34/27
f 2/37/30 60/38/31 42/39/32
f 38/40/33 39/41/34 37/36/29
f 40/42/34 1/43/1 39/41/34
f 56/44/35 75/45/36 76/46/37
f 6/6/38 44/47/39 8/48/39
f 16/15/9 49/49/40 18/17/11
f 2/1/41 41/50/42 4/4/43
f 26/25/18 54/51/44 28/27/20
f 38/40/33 58/52/45 59/53/46
f 12/11/47 47/54/48 14/13/49
f 22/21/50 52/55/51 24/23/51
f 32/31/24 57/56/52 34/33/26
f 18/17/11 50/57/53 20/19/13
f 28/27/20 55/58/54 30/29/22
f 38/40/33 60/38/31 40/42/55
f 4/4/43 43/59/38 6/6/38
f 16/15/9 47/54/56 48/60/57
f 26/25/18 52/55/58 53/61/59
f 34/33/26 58/52/45 36/35/28
f 10/8/60 46/62/47 12/11/47
f 22/21/15 50/57/53 51/63/61
f 32/31/24 55/58/54 56/44/62
f 49/49/63 68/64/64 69/65/65
f 41/50/66 62/66/67 61/67/68
f 57/56/69 76/46/37 77/68/70
f 49/49/63 70/69/71 50/57/72
f 41/50/66 63/70/73 43/59/74
f 58/52/75 77/68/70 78/71/76
f 50/57/72 71/72/77 51/63/78
f 44/47/79 63/70/73 64/73/80
f 58/52/75 79/74/81 59/53/82
f 51/63/78 72/75/83 52/55/84
f 59/53/82 80/76/85 60/38/86
f 52/55/84 73/77/87 53/61/88
f 45/78/89 66/79/90 46/62/91
f 60/38/86 62/80/67 42/39/92
f 54/51/93 73/77/87 74/81/94
f 47/54/95 66/79/90 67/82/96
f 54/51/93 75/45/36 55/58/97
f 47/54/95 68/64/98 48/60/99
f 61/83/100 62/84/67 81/85/101
f 62/84/67 80/86/85 81/85/101
f 80/86/85 79/87/81 81/85/101
f 79/87/81 78/88/76 81/85/101
f 78/88/76 77/89/70 81/85/101
f 77/89/70 76/90/37 81/85/101
f 76/90/37 75/91/36 81/85/101
f 75/91/36 74/92/94 81/85/101
f 74/92/94 73/93/87 81/85/101
f 73/93/87 72/94/83 81/85/101
f 72/94/83 71/95/77 81/85/101
f 71/95/77 70/96/102 81/85/101
f 70/96/102 69/97/103 81/85/101
f 69/97/103 68/98/98 81/85/101
f 68/98/98 67/99/96 81/85/101
f 67/99/96 66/100/90 81/85/101
f 66/100/90 65/101/104 81/85/101
f 64/102/80 63/103/73 81/85/101
f 63/103/73 61/83/100 81/85/101
f 64/102/105 86/104/106 84/105/107
f 65/106/108 83/107/109 85/108/110
f 81/85/111 85/109/111 86/104/111
f 64/73/105 82/110/112 44/47/113
f 2/1/1 4/4/2 3/2/2
f 4/4/2 6/6/3 5/5/3
f 6/6/3 8/48/4 7/7/4
f 10/8/5 12/11/6 11/9/6
f 12/11/6 14/13/7 13/12/7
f 14/13/7 16/15/9 15/14/8
f 16/15/9 18/17/11 17/16/10
f 18/17/11 20/19/13 19/18/12
f 20/19/13 22/21/15 21/20/14
f 22/21/15 24/23/16 23/22/16
f 24/23/16 26/25/18 25/24/17
f 26/25/18 28/27/20 27/26/19
f 28/27/20 30/29/22 29/28/21
f 30/29/22 32/31/24 31/30/23
f 32/31/24 34/33/26 33/32/25
f 34/33/26 36/35/28 35/34/27
f 36/35/28 38/40/33 37/36/29
f 2/37/30 40/42/55 60/38/31
f 38/40/33 40/42/34 39/41/34
f 40/42/34 2/37/1 1/43/1
f 56/44/35 55/58/97 75/45/36
f 6/6/38 43/59/38 44/47/39
f 16/15/9 48/60/57 49/49/40
f 2/1/30 42/111/32 41/50/114
f 26/25/18 53/61/59 54/51/44
f 38/40/33 36/35/28 58/52/45
f 12/11/47 46/62/47 47/54/48
f 22/21/15 51/63/61 52/55/115
f 32/31/24 56/44/62 57/56/52
f 18/17/11 49/49/40 50/57/53
f 28/27/20 54/51/44 55/58/54
f 38/40/33 59/53/46 60/38/31
f 4/4/43 41/50/42 43/59/38
f 16/15/116 14/13/49 47/54/48
f 26/25/117 24/23/51 52/55/51
f 34/33/26 57/56/52 58/52/45
f 10/8/60 45/78/60 46/62/47
f 22/21/15 20/19/13 50/57/53
f 32/31/24 30/29/22 55/58/54
f 49/49/118 48/60/99 68/64/98
f 41/50/66 42/111/92 62/66/67
f 57/56/69 56/44/35 76/46/37
f 49/49/63 69/65/65 70/69/71
f 41/50/66 61/67/68 63/70/73
f 58/52/75 57/56/69 77/68/70
f 50/57/72 70/69/71 71/72/77
f 44/47/79 43/59/74 63/70/73
f 58/52/75 78/71/76 79/74/81
f 51/63/78 71/72/77 72/75/83
f 59/53/82 79/74/81 80/76/85
f 52/55/84 72/75/83 73/77/87
f 45/78/89 65/106/104 66/79/90
f 60/38/86 80/76/85 62/80/67
f 54/51/93 53/61/88 73/77/87
f 47/54/95 46/62/91 66/79/90
f 54/51/93 74/81/94 75/45/36
f 47/54/95 67/82/96 68/64/98
f 64/102/119 81/85/119 86/104/119
f 65/106/108 45/78/120 83/107/109
f 81/85/121 65/101/108 85/109/110
f 64/73/105 84/112/107 82/110/112
